<?xml version="1.0" encoding="UTF-8"?>
<svg id="Layer_1" data-name="Layer 1" xmlns="http://www.w3.org/2000/svg" viewBox="0 0 403 374.2">
  <defs>
    <style>
      .cls-1 {
        fill: #46494c;
      }

      .cls-2 {
        fill: #28557c;
      }

      .cls-3 {
        fill: #8395a7;
      }

      .cls-4 {
        opacity: .5;
      }

      .cls-4, .cls-5, .cls-6, .cls-7 {
        fill: none;
      }

      .cls-4, .cls-5, .cls-8, .cls-9, .cls-10, .cls-11, .cls-12, .cls-13, .cls-14, .cls-15, .cls-16, .cls-17, .cls-18, .cls-19, .cls-20, .cls-21, .cls-22, .cls-23, .cls-24, .cls-25, .cls-26, .cls-27, .cls-28, .cls-29, .cls-30, .cls-31, .cls-7 {
        stroke-linejoin: round;
      }

      .cls-4, .cls-6 {
        stroke: #46494c;
      }

      .cls-5 {
        stroke-width: 1.07px;
      }

      .cls-5, .cls-7 {
        opacity: .3;
        stroke: #8395a7;
      }

      .cls-6 {
        stroke-miterlimit: 10;
        stroke-width: .75px;
      }

      .cls-8 {
        fill: rgba(67, 139, 196, .8);
      }

      .cls-8, .cls-9, .cls-10, .cls-11, .cls-12, .cls-13, .cls-14, .cls-15, .cls-16, .cls-17, .cls-18, .cls-19, .cls-20, .cls-21, .cls-22, .cls-23, .cls-24, .cls-25, .cls-26, .cls-27, .cls-28, .cls-29, .cls-30, .cls-31 {
        stroke: rgba(255, 255, 255, .8);
        stroke-linecap: round;
        stroke-width: .71px;
      }

      .cls-9 {
        fill: rgba(37, 78, 114, .8);
      }

      .cls-10 {
        fill: rgba(61, 126, 179, .8);
      }

      .cls-11 {
        fill: rgba(69, 142, 201, .8);
      }

      .cls-12 {
        fill: rgba(77, 159, 222, .8);
      }

      .cls-13 {
        fill: rgba(44, 92, 134, .8);
      }

      .cls-14 {
        fill: rgba(42, 90, 130, .8);
      }

      .cls-15 {
        fill: rgba(74, 152, 214, .8);
      }

      .cls-16 {
        fill: rgba(39, 82, 120, .8);
      }

      .cls-17 {
        fill: rgba(84, 172, 240, .8);
      }

      .cls-18 {
        fill: rgba(55, 114, 162, .8);
      }

      .cls-19 {
        fill: rgba(48, 100, 144, .8);
      }

      .cls-20 {
        fill: rgba(58, 120, 171, .8);
      }

      .cls-21 {
        fill: rgba(52, 108, 154, .8);
      }

      .cls-22 {
        fill: rgba(40, 85, 124, .8);
      }

      .cls-23 {
        fill: rgba(52, 109, 156, .8);
      }

      .cls-24 {
        fill: rgba(60, 125, 177, .8);
      }

      .cls-25 {
        fill: rgba(66, 136, 192, .8);
      }

      .cls-26 {
        fill: rgba(29, 63, 95, .8);
      }

      .cls-27 {
        fill: rgba(29, 62, 93, .8);
      }

      .cls-28 {
        fill: rgba(34, 72, 106, .8);
      }

      .cls-29 {
        fill: rgba(86, 177, 247, .8);
      }

      .cls-30 {
        fill: rgba(59, 122, 173, .8);
      }

      .cls-31 {
        fill: rgba(59, 123, 175, .8);
      }

      .cls-32 {
        isolation: isolate;
      }

      .cls-7 {
        stroke-dasharray: 0 0 3 6;
      }
    </style>
  </defs>
  <line class="cls-4" x1="344.62" y1="115.28" x2="344.62" y2="119.06"/>
  <line class="cls-4" x1="230.61" y1="115.28" x2="230.61" y2="119.06"/>
  <line class="cls-4" x1="116.6" y1="115.28" x2="116.6" y2="119.06"/>
  <g>
    <path class="cls-2" d="M342.35,100.88c.43,.22,.76,.51,.98,.88,.23,.37,.34,.79,.34,1.25,0,.49-.11,.97-.32,1.42-.21,.46-.57,.96-1.06,1.51s-1.22,1.29-2.17,2.2h3.74l-.18,1.31h-5.45v-1.22c1.11-1.13,1.9-1.96,2.38-2.5,.48-.54,.82-1,1.03-1.39,.2-.39,.31-.79,.31-1.2s-.12-.71-.34-.94-.54-.34-.92-.34c-.34,0-.64,.07-.89,.21-.26,.14-.52,.38-.8,.71l-1.01-.81c.74-.95,1.68-1.43,2.83-1.43,.59,0,1.1,.11,1.53,.32Z"/>
    <path class="cls-2" d="M350.09,101.94h-3.28v2.17c.43-.22,.88-.33,1.33-.33,.49,0,.92,.11,1.3,.34,.38,.23,.68,.55,.89,.98,.21,.42,.32,.93,.32,1.51s-.13,1.13-.4,1.59-.65,.82-1.14,1.07c-.49,.26-1.07,.38-1.72,.38-.58,0-1.09-.11-1.54-.32-.45-.21-.85-.52-1.22-.92l.95-.88c.5,.55,1.09,.83,1.77,.83,.49,0,.88-.15,1.16-.46,.28-.3,.42-.74,.42-1.3,0-1.08-.47-1.62-1.4-1.62-.2,0-.39,.02-.56,.07s-.36,.12-.57,.23h-1.18v-4.58h5.07l-.2,1.24Z"/>
  </g>
  <g>
    <path class="cls-2" d="M229.21,101.94h-3.28v2.17c.43-.22,.88-.33,1.33-.33,.49,0,.92,.11,1.3,.34,.38,.23,.68,.55,.89,.97,.21,.42,.32,.93,.32,1.51s-.13,1.13-.4,1.59c-.27,.46-.65,.82-1.14,1.07-.49,.25-1.07,.38-1.72,.38-.58,0-1.09-.11-1.54-.32-.45-.21-.85-.52-1.22-.92l.95-.88c.5,.55,1.09,.83,1.77,.83,.49,0,.88-.15,1.16-.46,.28-.3,.42-.74,.42-1.3,0-1.08-.47-1.62-1.4-1.62-.2,0-.39,.02-.56,.07s-.36,.12-.57,.23h-1.18v-4.58h5.07l-.2,1.23Z"/>
    <path class="cls-2" d="M236.32,101.72c.53,.78,.8,1.9,.8,3.37s-.27,2.6-.8,3.39-1.31,1.18-2.33,1.18-1.8-.39-2.33-1.18-.8-1.91-.8-3.39,.27-2.59,.8-3.37,1.31-1.17,2.33-1.17,1.8,.39,2.33,1.17Zm-3.41,.84c-.23,.5-.34,1.34-.34,2.53s.11,2.04,.34,2.55,.58,.75,1.08,.75,.85-.25,1.08-.75,.34-1.35,.34-2.55-.11-2.04-.34-2.54-.58-.74-1.08-.74-.85,.25-1.08,.75Z"/>
  </g>
  <g>
    <path class="cls-2" d="M81.04,99.76v1.17l-3.24,7.75-1.52-.49,3.04-7.14h-3.69v-1.29h5.41Z"/>
    <path class="cls-2" d="M86.87,101h-3.28v2.17c.43-.22,.88-.33,1.33-.33,.49,0,.92,.11,1.3,.34,.38,.23,.68,.55,.89,.97,.21,.42,.32,.93,.32,1.51s-.13,1.13-.4,1.59c-.27,.46-.65,.82-1.14,1.07-.49,.25-1.07,.38-1.72,.38-.58,0-1.09-.11-1.54-.32-.45-.21-.85-.52-1.22-.92l.95-.88c.5,.55,1.09,.83,1.77,.83,.49,0,.88-.15,1.16-.46,.28-.3,.42-.74,.42-1.3,0-1.08-.47-1.62-1.4-1.62-.2,0-.39,.02-.56,.07s-.36,.12-.57,.23h-1.18v-4.58h5.07l-.2,1.23Z"/>
    <path class="cls-2" d="M92.56,108.24c-.3-.31-.45-.74-.45-1.31v-8.06l1.66-.18v8.19c0,.32,.13,.48,.39,.48,.13,0,.26-.02,.39-.06l.35,1.17c-.35,.16-.72,.23-1.11,.23-.53,0-.94-.15-1.24-.46Z"/>
    <path class="cls-2" d="M101.55,105.58h-4.32c.05,.67,.23,1.14,.52,1.43,.29,.29,.68,.43,1.17,.43,.3,0,.59-.05,.86-.15s.55-.25,.86-.46l.69,.95c-.76,.62-1.61,.92-2.55,.92-1.05,0-1.86-.32-2.42-.96-.57-.64-.85-1.52-.85-2.63,0-.7,.12-1.33,.36-1.89,.24-.56,.59-1,1.05-1.31,.46-.32,1.01-.47,1.64-.47,.96,0,1.71,.31,2.24,.92,.53,.61,.79,1.46,.79,2.55,0,.09-.01,.31-.04,.68Zm-1.61-1.16c0-1.21-.45-1.81-1.34-1.81-.41,0-.73,.15-.96,.45s-.37,.78-.41,1.44h2.7v-.08Z"/>
    <path class="cls-2" d="M107.02,108.18c-.24,.17-.51,.3-.81,.39-.3,.09-.6,.13-.92,.13-.68,0-1.19-.2-1.54-.58-.35-.38-.53-.93-.53-1.67v-3.63h-1.08v-1.2h1.08v-1.52l1.66-.19v1.72h1.6l-.17,1.2h-1.43v3.59c0,.34,.06,.58,.18,.73s.3,.22,.55,.22,.52-.08,.82-.25l.58,1.07Z"/>
    <path class="cls-2" d="M116.7,102.39c.42,.63,.62,1.52,.62,2.67,0,.71-.11,1.34-.32,1.89-.21,.55-.53,.98-.94,1.29-.41,.31-.9,.47-1.46,.47-.73,0-1.3-.25-1.73-.75v3.21l-1.66,.18v-9.71h1.46l.09,.84c.27-.35,.58-.61,.92-.78,.35-.17,.71-.26,1.09-.26,.87,0,1.51,.32,1.92,.95Zm-1.12,2.68c0-.84-.11-1.45-.33-1.82-.22-.37-.54-.56-.97-.56-.28,0-.54,.08-.78,.25-.24,.17-.45,.4-.62,.68v3.09c.32,.48,.74,.71,1.26,.71,.96,0,1.44-.79,1.44-2.37Z"/>
    <path class="cls-2" d="M124.14,102.41c.57,.65,.85,1.53,.85,2.66,0,.72-.13,1.35-.39,1.9-.26,.55-.63,.98-1.12,1.28-.49,.3-1.06,.45-1.73,.45-1.01,0-1.81-.32-2.38-.97s-.86-1.54-.86-2.67c0-.72,.13-1.35,.39-1.9,.26-.55,.63-.97,1.12-1.27,.49-.3,1.07-.46,1.74-.46,1.01,0,1.8,.32,2.37,.97Zm-3.87,2.66c0,.81,.12,1.42,.37,1.8s.62,.58,1.11,.58,.86-.2,1.11-.58,.37-.99,.37-1.79-.12-1.4-.37-1.79-.61-.58-1.1-.58c-1,0-1.49,.79-1.49,2.37Z"/>
    <path class="cls-2" d="M135.3,108.51h-1.44l-.09-.96c-.25,.39-.55,.68-.89,.87-.34,.19-.75,.29-1.21,.29-.62,0-1.09-.19-1.42-.57s-.5-.9-.5-1.57v-4.94h1.66v4.73c0,.39,.07,.67,.2,.83,.13,.17,.35,.25,.64,.25,.53,0,.99-.33,1.39-.97v-4.84h1.66v6.88Zm-1.79-10.66l.68,1.3-2.94,1.17-.47-.84,2.73-1.62Z"/>
    <path class="cls-2" d="M145.92,102c.33,.38,.49,.89,.49,1.53v4.98h-1.66v-4.72c0-.74-.25-1.1-.75-1.1-.27,0-.5,.08-.7,.25-.2,.17-.4,.43-.6,.79v4.78h-1.66v-4.72c0-.74-.25-1.1-.75-1.1-.28,0-.51,.08-.71,.25s-.4,.43-.6,.79v4.78h-1.66v-6.88h1.44l.13,.9c.52-.73,1.18-1.09,1.99-1.09,.4,0,.74,.1,1.03,.31,.29,.2,.5,.49,.63,.85,.28-.37,.58-.66,.92-.86,.33-.2,.72-.3,1.15-.3,.55,0,1,.19,1.33,.57Z"/>
    <path class="cls-2" d="M152.43,101.54l-.29,1.61c-.21-.05-.41-.08-.61-.08-.41,0-.73,.15-.96,.44-.23,.29-.42,.73-.56,1.33v3.67h-1.66v-6.88h1.44l.16,1.35c.17-.49,.4-.87,.72-1.14,.31-.26,.67-.4,1.08-.4,.25,0,.48,.03,.69,.09Z"/>
    <path class="cls-2" d="M157.41,108.18c-.24,.17-.51,.3-.81,.39-.3,.09-.6,.13-.92,.13-.68,0-1.19-.2-1.54-.58-.35-.38-.53-.93-.53-1.67v-3.63h-1.08v-1.2h1.08v-1.52l1.66-.19v1.72h1.6l-.17,1.2h-1.43v3.59c0,.34,.06,.58,.18,.73s.3,.22,.55,.22,.52-.08,.82-.25l.58,1.07Z"/>
    <path class="cls-2" d="M160.17,97.85l.68,1.3-2.94,1.17-.47-.84,2.73-1.62Zm-.16,3.78v6.88h-1.66v-6.88h1.66Z"/>
  </g>
  <line class="cls-7" x1="344.62" y1="115.3" x2="344.62" y2="328.98"/>
  <line class="cls-7" x1="230.61" y1="115.3" x2="230.61" y2="328.98"/>
  <line class="cls-7" x1="116.6" y1="115.3" x2="116.6" y2="328.98"/>
  <g class="cls-32">
    <path d="M7.35,21.25h-1.51v4.99H3.46V13.8h3.71c3.29,0,4.93,1.22,4.93,3.65,0,.83-.2,1.51-.61,2.05-.41,.54-1.04,.98-1.91,1.31l3.26,5.42h-2.74l-2.75-4.99Zm2.39-11.72l.88,1.01-2.5,2.16h-1.44l-2.5-2.16,.88-1.01,2.34,1.49,2.34-1.49Zm-3.91,10.01h1.48c.76,0,1.33-.17,1.72-.5,.39-.33,.58-.86,.58-1.59,0-.67-.2-1.16-.6-1.47s-1.04-.46-1.9-.46h-1.28v4.01Z"/>
    <path d="M21.41,24.54c.11,.17,.3,.31,.55,.41l-.49,1.53c-.54-.05-.98-.18-1.32-.4-.34-.22-.6-.55-.78-.99-.32,.48-.73,.84-1.21,1.07s-1.03,.35-1.63,.35c-.95,0-1.7-.27-2.25-.81s-.83-1.25-.83-2.12c0-1.03,.38-1.82,1.12-2.37,.75-.55,1.82-.82,3.21-.82h1.19v-.54c0-.61-.14-1.04-.42-1.29-.28-.25-.74-.37-1.36-.37-.7,0-1.54,.17-2.52,.5l-.54-1.57c1.19-.46,2.34-.68,3.46-.68,2.44,0,3.65,1.09,3.65,3.28v4c0,.37,.06,.65,.17,.82Zm-2.44-13.06l.94,1.8-4.07,1.62-.65-1.17,3.78-2.25Zm0,12.19v-1.93h-.95c-1.49,0-2.23,.55-2.23,1.66,0,.46,.11,.81,.34,1.06,.23,.25,.56,.38,1.01,.38,.78,0,1.39-.39,1.84-1.17Z"/>
    <path d="M32.04,12.9v13.34h-2.03l-.16-1.21c-.3,.46-.68,.82-1.14,1.08s-.99,.4-1.57,.4c-1.16,0-2.06-.45-2.68-1.35s-.94-2.12-.94-3.67c0-.97,.16-1.84,.47-2.6,.31-.76,.76-1.36,1.34-1.79s1.26-.65,2.03-.65c.91,0,1.71,.34,2.39,1.03v-4.82l2.3,.25Zm-3.19,11.56c.31-.2,.61-.51,.88-.93v-4.36c-.28-.34-.55-.59-.84-.76s-.61-.25-.98-.25c-.61,0-1.1,.27-1.45,.82-.35,.55-.53,1.37-.53,2.48,0,1.18,.16,2.02,.47,2.53,.31,.51,.77,.77,1.37,.77,.41,0,.77-.1,1.08-.3Z"/>
    <path d="M46.84,17.77c.62,.88,.94,2.12,.94,3.7,0,.98-.15,1.86-.46,2.62-.31,.76-.74,1.36-1.3,1.78-.56,.43-1.23,.64-2,.64-.52,0-.99-.11-1.41-.32-.43-.22-.79-.52-1.11-.92l-.14,.97h-2.03V12.9l2.3-.25v5.15c.31-.43,.69-.77,1.14-1s.95-.35,1.49-.35c1.1,0,1.97,.44,2.59,1.32Zm-2,6.21c.35-.53,.52-1.37,.52-2.51,0-1.2-.16-2.05-.49-2.55s-.78-.75-1.37-.75c-.73,0-1.36,.43-1.89,1.3v4.21c.2,.35,.46,.62,.76,.81,.31,.19,.64,.29,1,.29,.62,0,1.11-.27,1.46-.8Z"/>
    <path d="M52.56,11.48l.94,1.8-4.07,1.62-.65-1.17,3.78-2.25Zm-.22,5.24v9.52h-2.3v-9.52h2.3Z"/>
    <path d="M55.88,25.87c-.41-.43-.62-1.03-.62-1.81V12.9l2.3-.25v11.34c0,.44,.18,.67,.54,.67,.18,0,.36-.03,.54-.09l.49,1.62c-.48,.22-.99,.32-1.53,.32-.73,0-1.3-.21-1.72-.64Z"/>
    <path d="M68.33,22.19h-5.98c.07,.92,.31,1.58,.72,1.98s.95,.59,1.62,.59c.42,0,.82-.07,1.19-.21,.37-.14,.77-.35,1.19-.64l.95,1.31c-1.06,.85-2.23,1.28-3.53,1.28-1.45,0-2.57-.44-3.36-1.33-.79-.89-1.18-2.1-1.18-3.64,0-.97,.17-1.84,.5-2.62s.82-1.38,1.46-1.82c.64-.44,1.39-.66,2.27-.66,1.33,0,2.36,.42,3.1,1.27,.73,.85,1.1,2.02,1.1,3.54,0,.12-.02,.43-.05,.94Zm-2.72-10.71l.94,1.8-4.07,1.62-.65-1.17,3.78-2.25Zm.49,9.11c0-1.67-.62-2.5-1.85-2.5-.56,0-1,.21-1.32,.62-.32,.41-.51,1.08-.57,1.99h3.74v-.11Z"/>
    <path d="M77.51,17.22c.48,.52,.72,1.22,.72,2.12v6.89h-2.3v-6.53c0-.56-.1-.96-.3-1.19-.2-.23-.49-.34-.87-.34s-.74,.12-1.06,.37-.64,.6-.94,1.05v6.64h-2.3V12.92l2.3-.23v5.17c.77-.94,1.69-1.4,2.77-1.4,.84,0,1.5,.26,1.98,.77Z"/>
    <path d="M88.09,17.79c.79,.89,1.18,2.12,1.18,3.68,0,1-.18,1.88-.54,2.64-.36,.76-.88,1.35-1.55,1.77-.67,.42-1.47,.63-2.39,.63-1.4,0-2.5-.45-3.29-1.34s-1.19-2.13-1.19-3.7c0-1,.18-1.87,.54-2.63,.36-.76,.88-1.34,1.56-1.76,.68-.42,1.48-.63,2.4-.63,1.4,0,2.5,.45,3.28,1.34Zm-5.35,3.68c0,1.13,.17,1.96,.51,2.49s.86,.8,1.54,.8,1.2-.27,1.54-.81,.51-1.37,.51-2.48-.17-1.94-.51-2.48c-.34-.53-.85-.8-1.52-.8-1.38,0-2.07,1.09-2.07,3.28Z"/>
    <path d="M96.46,25.87c-.41-.43-.62-1.03-.62-1.81V12.9l2.3-.25v11.34c0,.44,.18,.67,.54,.67,.18,0,.36-.03,.54-.09l.49,1.62c-.48,.22-.99,.32-1.53,.32-.73,0-1.3-.21-1.72-.64Z"/>
    <path d="M108.7,16.72l-3.1,9.52h-2.75l-3.15-9.52h2.5l2.03,7.67,2.09-7.67h2.38Z"/>
    <path d="M116.99,24.54c.11,.17,.3,.31,.55,.41l-.49,1.53c-.54-.05-.98-.18-1.32-.4-.34-.22-.6-.55-.78-.99-.32,.48-.73,.84-1.21,1.07s-1.03,.35-1.63,.35c-.95,0-1.7-.27-2.25-.81s-.83-1.25-.83-2.12c0-1.03,.38-1.82,1.12-2.37,.75-.55,1.82-.82,3.21-.82h1.19v-.54c0-.61-.14-1.04-.42-1.29-.28-.25-.74-.37-1.36-.37-.7,0-1.54,.17-2.52,.5l-.54-1.57c1.19-.46,2.34-.68,3.46-.68,2.44,0,3.65,1.09,3.65,3.28v4c0,.37,.06,.65,.17,.82Zm-2.44-.87v-1.93h-.95c-1.49,0-2.23,.55-2.23,1.66,0,.46,.11,.81,.34,1.06,.23,.25,.56,.38,1.01,.38,.78,0,1.39-.39,1.84-1.17Z"/>
    <path d="M121.42,24.01c.28,.28,.42,.62,.42,1.04,0,.23-.04,.46-.11,.7-.07,.24-.19,.55-.36,.92l-1.17,2.66h-1.4l.74-3.1c-.41-.28-.61-.68-.61-1.21,0-.41,.14-.75,.41-1.03,.28-.28,.62-.41,1.03-.41s.77,.14,1.05,.41Z"/>
    <path d="M130.72,25.39c0,.94-.13,1.7-.41,2.3-.27,.59-.65,1.07-1.14,1.43-.49,.36-1.13,.7-1.93,1.03l-.74-1.67c.47-.22,.83-.43,1.1-.64,.26-.21,.46-.49,.6-.85,.14-.36,.21-.84,.21-1.44v-8.82h2.3v8.68Zm-.12-13.09c.27,.27,.41,.6,.41,1s-.13,.73-.41,.99c-.27,.26-.62,.4-1.05,.4s-.76-.13-1.04-.4c-.27-.26-.41-.59-.41-.99s.14-.73,.41-1c.27-.27,.62-.41,1.04-.41s.78,.14,1.05,.41Z"/>
    <path d="M140.7,24.54c.11,.17,.3,.31,.55,.41l-.49,1.53c-.54-.05-.98-.18-1.32-.4-.34-.22-.6-.55-.78-.99-.32,.48-.73,.84-1.21,1.07s-1.03,.35-1.63,.35c-.95,0-1.7-.27-2.25-.81s-.83-1.25-.83-2.12c0-1.03,.38-1.82,1.12-2.37,.75-.55,1.82-.82,3.21-.82h1.19v-.54c0-.61-.14-1.04-.42-1.29-.28-.25-.74-.37-1.36-.37-.7,0-1.54,.17-2.52,.5l-.54-1.57c1.19-.46,2.34-.68,3.46-.68,2.44,0,3.65,1.09,3.65,3.28v4c0,.37,.06,.65,.17,.82Zm-2.44-.87v-1.93h-.95c-1.49,0-2.23,.55-2.23,1.66,0,.46,.11,.81,.34,1.06,.23,.25,.56,.38,1.01,.38,.78,0,1.39-.39,1.84-1.17Z"/>
    <path d="M145.62,12.65v13.59h-2.3V12.9l2.3-.25Zm5.71,4.07l-3.17,4.19,3.47,5.33h-2.65l-3.28-5.2,3.19-4.32h2.43Z"/>
    <path d="M169.36,17.23c.46,.52,.68,1.23,.68,2.11v6.89h-2.3v-6.53c0-1.02-.35-1.53-1.04-1.53-.37,0-.69,.12-.96,.35-.27,.23-.55,.6-.84,1.09v6.62h-2.3v-6.53c0-1.02-.35-1.53-1.04-1.53-.38,0-.71,.12-.98,.35-.27,.23-.55,.6-.84,1.09v6.62h-2.3v-9.52h2l.18,1.24c.72-1.01,1.64-1.51,2.75-1.51,.55,0,1.03,.14,1.43,.42,.4,.28,.69,.68,.87,1.18,.38-.52,.81-.91,1.27-1.19s.99-.41,1.59-.41c.77,0,1.38,.26,1.84,.78Z"/>
    <path d="M179.9,17.79c.79,.89,1.18,2.12,1.18,3.68,0,1-.18,1.88-.54,2.64-.36,.76-.88,1.35-1.55,1.77-.67,.42-1.47,.63-2.39,.63-1.4,0-2.5-.45-3.29-1.34s-1.19-2.13-1.19-3.7c0-1,.18-1.87,.54-2.63,.36-.76,.88-1.34,1.56-1.76,.68-.42,1.48-.63,2.4-.63,1.4,0,2.5,.45,3.28,1.34Zm-5.35,3.68c0,1.13,.17,1.96,.51,2.49s.86,.8,1.54,.8,1.2-.27,1.54-.81,.51-1.37,.51-2.48-.17-1.94-.51-2.48c-.34-.53-.85-.8-1.52-.8-1.38,0-2.07,1.09-2.07,3.28Z"/>
    <path d="M188.76,16.72c.5,.18,.97,.46,1.41,.85l-1.03,1.39c-.32-.24-.64-.41-.94-.52-.3-.11-.63-.16-.99-.16-1.43,0-2.14,1.09-2.14,3.26,0,1.1,.19,1.9,.56,2.38,.37,.49,.9,.73,1.58,.73,.34,0,.64-.05,.93-.16,.28-.11,.62-.28,1-.52l1.03,1.46c-.9,.73-1.93,1.1-3.08,1.1-.91,0-1.7-.2-2.38-.6-.67-.4-1.19-.97-1.55-1.72-.36-.74-.54-1.62-.54-2.63s.18-1.9,.54-2.67c.36-.77,.88-1.37,1.55-1.8,.67-.43,1.46-.64,2.36-.64,.62,0,1.19,.09,1.68,.27Z"/>
    <path d="M204.36,12.9v13.34h-2.03l-.16-1.21c-.3,.46-.68,.82-1.14,1.08s-.99,.4-1.57,.4c-1.16,0-2.06-.45-2.68-1.35s-.94-2.12-.94-3.67c0-.97,.16-1.84,.47-2.6,.31-.76,.76-1.36,1.34-1.79s1.26-.65,2.03-.65c.91,0,1.71,.34,2.39,1.03v-4.82l2.3,.25Zm-3.19,11.56c.31-.2,.61-.51,.88-.93v-4.36c-.28-.34-.55-.59-.84-.76s-.61-.25-.98-.25c-.61,0-1.1,.27-1.45,.82-.35,.55-.53,1.37-.53,2.48,0,1.18,.16,2.02,.47,2.53,.31,.51,.77,.77,1.37,.77,.41,0,.77-.1,1.08-.3Z"/>
    <path d="M207.66,25.87c-.41-.43-.62-1.03-.62-1.81V12.9l2.3-.25v11.34c0,.44,.18,.67,.54,.67,.18,0,.36-.03,.54-.09l.49,1.62c-.48,.22-.99,.32-1.53,.32-.73,0-1.3-.21-1.72-.64Z"/>
    <path d="M219.52,17.79c.79,.89,1.18,2.12,1.18,3.68,0,1-.18,1.88-.54,2.64-.36,.76-.88,1.35-1.55,1.77-.67,.42-1.47,.63-2.39,.63-1.4,0-2.5-.45-3.29-1.34s-1.19-2.13-1.19-3.7c0-1,.18-1.87,.54-2.63,.36-.76,.88-1.34,1.56-1.76,.68-.42,1.48-.63,2.4-.63,1.4,0,2.5,.45,3.28,1.34Zm-5.35,3.68c0,1.13,.17,1.96,.51,2.49s.86,.8,1.54,.8,1.2-.27,1.54-.81,.51-1.37,.51-2.48-.17-1.94-.51-2.48c-.34-.53-.85-.8-1.52-.8-1.38,0-2.07,1.09-2.07,3.28Z"/>
    <path d="M230.47,26.24h-2l-.13-1.33c-.35,.54-.76,.94-1.23,1.21-.47,.26-1.03,.4-1.68,.4-.85,0-1.51-.26-1.97-.78s-.69-1.24-.69-2.17v-6.84h2.3v6.55c0,.54,.09,.92,.28,1.15,.19,.23,.48,.34,.89,.34,.73,0,1.37-.45,1.93-1.35v-6.7h2.3v9.52Z"/>
    <path d="M240.3,17.22c.48,.52,.72,1.22,.72,2.12v6.89h-2.3v-6.53c0-.56-.1-.96-.3-1.19-.2-.23-.49-.34-.87-.34s-.74,.12-1.06,.37-.64,.6-.94,1.05v6.64h-2.3V12.92l2.3-.23v5.17c.77-.94,1.69-1.4,2.77-1.4,.84,0,1.5,.26,1.98,.77Z"/>
    <path d="M250.88,17.79c.79,.89,1.18,2.12,1.18,3.68,0,1-.18,1.88-.54,2.64-.36,.76-.88,1.35-1.55,1.77-.67,.42-1.47,.63-2.39,.63-1.4,0-2.5-.45-3.29-1.34s-1.19-2.13-1.19-3.7c0-1,.18-1.87,.54-2.63,.36-.76,.88-1.34,1.56-1.76,.68-.42,1.48-.63,2.4-.63,1.4,0,2.5,.45,3.28,1.34Zm-5.35,3.68c0,1.13,.17,1.96,.51,2.49s.86,.8,1.54,.8,1.2-.27,1.54-.81,.51-1.37,.51-2.48-.17-1.94-.51-2.48c-.34-.53-.85-.8-1.52-.8-1.38,0-2.07,1.09-2.07,3.28Z"/>
    <path d="M266.31,17.76c.58,.88,.86,2.11,.86,3.69,0,.98-.15,1.86-.44,2.62-.29,.76-.73,1.36-1.3,1.79-.57,.43-1.25,.65-2.03,.65-1.01,0-1.81-.35-2.39-1.04v4.45l-2.3,.25v-13.45h2.02l.13,1.17c.37-.48,.8-.84,1.28-1.08,.48-.24,.98-.36,1.51-.36,1.2,0,2.09,.44,2.66,1.31Zm-1.55,3.71c0-1.16-.15-2-.45-2.52-.3-.52-.75-.77-1.35-.77-.38,0-.74,.12-1.08,.35s-.62,.55-.86,.94v4.28c.44,.66,1.03,.99,1.75,.99,1.33,0,2-1.09,2-3.28Z"/>
    <path d="M276.62,17.79c.79,.89,1.18,2.12,1.18,3.68,0,1-.18,1.88-.54,2.64-.36,.76-.88,1.35-1.55,1.77-.67,.42-1.47,.63-2.39,.63-1.4,0-2.5-.45-3.29-1.34s-1.19-2.13-1.19-3.7c0-1,.18-1.87,.54-2.63,.36-.76,.88-1.34,1.56-1.76,.68-.42,1.48-.63,2.4-.63,1.4,0,2.5,.45,3.28,1.34Zm-5.35,3.68c0,1.13,.17,1.96,.51,2.49s.86,.8,1.54,.8,1.2-.27,1.54-.81,.51-1.37,.51-2.48-.17-1.94-.51-2.48c-.34-.53-.85-.8-1.52-.8-1.38,0-2.07,1.09-2.07,3.28Z"/>
    <path d="M290.85,17.58l-.9,1.35c-.82-.52-1.61-.77-2.39-.77-.46,0-.81,.09-1.06,.26s-.38,.4-.38,.69c0,.22,.05,.4,.16,.54,.11,.14,.3,.28,.58,.4s.7,.27,1.25,.42c1.03,.28,1.8,.64,2.29,1.1,.5,.46,.75,1.09,.75,1.91,0,.95-.38,1.69-1.15,2.22-.77,.53-1.72,.8-2.86,.8-.78,0-1.49-.12-2.13-.36-.64-.24-1.2-.57-1.67-.99l1.15-1.3c.83,.62,1.69,.94,2.59,.94,.52,0,.93-.1,1.23-.31,.31-.2,.46-.49,.46-.85,0-.28-.06-.5-.17-.66-.11-.16-.32-.31-.61-.43s-.75-.28-1.38-.46c-.97-.26-1.69-.63-2.14-1.11-.46-.47-.68-1.06-.68-1.77,0-.53,.15-1,.46-1.42,.31-.42,.74-.75,1.3-.99,.56-.24,1.2-.36,1.92-.36,1.28,0,2.41,.38,3.38,1.13Z"/>
    <path d="M304.96,17.23c.46,.52,.68,1.23,.68,2.11v6.89h-2.3v-6.53c0-1.02-.35-1.53-1.04-1.53-.37,0-.69,.12-.96,.35-.27,.23-.55,.6-.84,1.09v6.62h-2.3v-6.53c0-1.02-.35-1.53-1.04-1.53-.38,0-.71,.12-.98,.35-.27,.23-.55,.6-.84,1.09v6.62h-2.3v-9.52h2l.18,1.24c.72-1.01,1.64-1.51,2.75-1.51,.55,0,1.03,.14,1.43,.42,.4,.28,.69,.68,.87,1.18,.38-.52,.81-.91,1.27-1.19s.99-.41,1.59-.41c.77,0,1.38,.26,1.84,.78Z"/>
    <path d="M313.97,16.59l-.4,2.23c-.29-.07-.57-.11-.85-.11-.56,0-1.01,.2-1.33,.6s-.58,1.02-.77,1.84v5.08h-2.3v-9.52h2l.22,1.87c.23-.68,.56-1.21,.99-1.58,.43-.37,.93-.55,1.49-.55,.35,0,.67,.04,.95,.13Z"/>
    <path d="M320.87,25.79c-.34,.24-.71,.42-1.12,.54-.41,.12-.84,.18-1.27,.18-.94-.01-1.65-.28-2.13-.8-.49-.52-.73-1.29-.73-2.31v-5.02h-1.49v-1.66h1.49v-2.11l2.3-.27v2.38h2.21l-.23,1.66h-1.98v4.97c0,.47,.08,.8,.24,1.01,.16,.2,.42,.31,.77,.31s.73-.11,1.13-.34l.81,1.48Z"/>
    <path d="M324.35,12.3c.27,.27,.4,.6,.4,1s-.13,.73-.4,.99c-.27,.26-.62,.4-1.05,.4s-.76-.13-1.03-.4c-.27-.26-.41-.59-.41-.99s.13-.73,.41-1c.27-.27,.61-.41,1.03-.41s.78,.14,1.05,.41Zm.12,4.42v9.52h-2.3v-9.52h2.3Z"/>
    <path d="M334.03,25.39c0,.94-.13,1.7-.41,2.3-.27,.59-.65,1.07-1.14,1.43-.49,.36-1.13,.7-1.93,1.03l-.74-1.67c.47-.22,.83-.43,1.1-.64,.26-.21,.46-.49,.6-.85,.14-.36,.21-.84,.21-1.44v-8.82h2.3v8.68Zm-.12-13.09c.27,.27,.41,.6,.41,1s-.13,.73-.41,.99c-.27,.26-.62,.4-1.05,.4s-.76-.13-1.04-.4c-.27-.26-.41-.59-.41-.99s.14-.73,.41-1c.27-.27,.62-.41,1.04-.41s.78,.14,1.05,.41Z"/>
    <path d="M343.19,17.58l-.9,1.35c-.82-.52-1.61-.77-2.39-.77-.46,0-.81,.09-1.06,.26s-.38,.4-.38,.69c0,.22,.05,.4,.16,.54,.11,.14,.3,.28,.58,.4s.7,.27,1.25,.42c1.03,.28,1.8,.64,2.29,1.1,.5,.46,.75,1.09,.75,1.91,0,.95-.38,1.69-1.15,2.22-.77,.53-1.72,.8-2.86,.8-.78,0-1.49-.12-2.13-.36-.64-.24-1.2-.57-1.67-.99l1.15-1.3c.83,.62,1.69,.94,2.59,.94,.52,0,.93-.1,1.23-.31,.31-.2,.46-.49,.46-.85,0-.28-.06-.5-.17-.66-.11-.16-.32-.31-.61-.43s-.75-.28-1.38-.46c-.97-.26-1.69-.63-2.14-1.11-.46-.47-.68-1.06-.68-1.77,0-.53,.15-1,.46-1.42,.31-.42,.74-.75,1.3-.99,.56-.24,1.2-.36,1.92-.36,1.28,0,2.41,.38,3.38,1.13Z"/>
    <path d="M352.54,17.79c.79,.89,1.18,2.12,1.18,3.68,0,1-.18,1.88-.54,2.64-.36,.76-.88,1.35-1.55,1.77-.67,.42-1.47,.63-2.39,.63-1.4,0-2.5-.45-3.29-1.34s-1.19-2.13-1.19-3.7c0-1,.18-1.87,.54-2.63,.36-.76,.88-1.34,1.56-1.76,.68-.42,1.48-.63,2.4-.63,1.4,0,2.5,.45,3.28,1.34Zm-5.35,3.68c0,1.13,.17,1.96,.51,2.49s.86,.8,1.54,.8,1.2-.27,1.54-.81,.51-1.37,.51-2.48-.17-1.94-.51-2.48c-.34-.53-.85-.8-1.52-.8-1.38,0-2.07,1.09-2.07,3.28Z"/>
    <path d="M363.49,26.24h-2l-.13-1.33c-.35,.54-.76,.94-1.23,1.21-.47,.26-1.03,.4-1.68,.4-.85,0-1.51-.26-1.97-.78s-.69-1.24-.69-2.17v-6.84h2.3v6.55c0,.54,.09,.92,.28,1.15,.19,.23,.48,.34,.89,.34,.73,0,1.37-.45,1.93-1.35v-6.7h2.3v9.52Z"/>
    <path d="M378.42,16.72l-3.1,9.52h-2.75l-3.15-9.52h2.5l2.03,7.67,2.09-7.67h2.38Z"/>
    <path d="M384.44,26.27c-.38,1.18-.97,2.09-1.75,2.74-.78,.65-1.85,1.04-3.2,1.14l-.23-1.67c.62-.1,1.12-.23,1.5-.4,.38-.17,.68-.41,.91-.69,.23-.29,.44-.67,.63-1.15h-.79l-3.02-9.52h2.45l2.07,7.99,2.16-7.99h2.38l-3.1,9.56Z"/>
    <path d="M395.14,16.72v1.66l-4.61,6.07h4.7l-.23,1.8h-7.11v-1.66l4.63-6.07h-4.23v-1.8h6.86Z"/>
    <path d="M404.09,17.21c.47,.51,.71,1.22,.71,2.13v6.89h-2.3v-6.53c0-.56-.1-.96-.3-1.19-.2-.23-.49-.34-.87-.34s-.75,.12-1.07,.37c-.32,.25-.63,.6-.93,1.07v6.62h-2.3v-9.52h2l.18,1.24c.78-1.01,1.75-1.51,2.9-1.51,.85,0,1.51,.25,1.99,.77Z"/>
  </g>
  <g>
    <path class="cls-1" d="M10.58,303.26v1.43l-4.47,6.73h4.51l-.2,1.51H3.95v-1.41l4.55-6.79H4.42v-1.47h6.16Z"/>
    <path class="cls-1" d="M17.92,309.78h-4.65c.06,.72,.24,1.23,.56,1.54,.32,.31,.74,.46,1.26,.46,.33,0,.63-.05,.92-.16s.6-.27,.92-.5l.74,1.02c-.82,.66-1.74,.99-2.74,.99-1.13,0-2-.34-2.61-1.04-.61-.69-.92-1.63-.92-2.83,0-.76,.13-1.43,.39-2.04,.26-.6,.64-1.07,1.13-1.41,.5-.34,1.08-.51,1.76-.51,1.04,0,1.84,.33,2.41,.99s.85,1.58,.85,2.75c0,.09-.01,.34-.04,.73Zm-1.74-1.25c0-1.3-.48-1.95-1.44-1.95-.44,0-.78,.16-1.03,.48-.25,.32-.39,.84-.44,1.55h2.91v-.08Z"/>
    <path class="cls-1" d="M28.86,305.92c.35,.41,.53,.95,.53,1.64v5.36h-1.79v-5.08c0-.79-.27-1.19-.81-1.19-.29,0-.54,.09-.75,.27s-.43,.46-.65,.85v5.15h-1.79v-5.08c0-.79-.27-1.19-.81-1.19-.3,0-.55,.09-.76,.27-.21,.18-.43,.46-.65,.85v5.15h-1.79v-7.41h1.55l.14,.97c.56-.78,1.27-1.18,2.14-1.18,.43,0,.8,.11,1.11,.33,.31,.22,.54,.53,.68,.92,.3-.4,.63-.71,.99-.92,.36-.21,.77-.32,1.24-.32,.6,0,1.07,.2,1.43,.61Z"/>
    <path class="cls-1" d="M37.08,311.61c.09,.14,.23,.24,.43,.32l-.38,1.19c-.42-.04-.76-.14-1.03-.31s-.47-.42-.61-.77c-.25,.37-.57,.65-.94,.83-.38,.18-.8,.27-1.27,.27-.74,0-1.32-.21-1.75-.63-.43-.42-.64-.97-.64-1.65,0-.8,.29-1.42,.88-1.84,.58-.42,1.42-.64,2.5-.64h.92v-.42c0-.48-.11-.81-.33-1-.22-.19-.57-.29-1.06-.29-.54,0-1.2,.13-1.96,.39l-.42-1.22c.92-.35,1.82-.53,2.69-.53,1.89,0,2.84,.85,2.84,2.55v3.11c0,.29,.04,.5,.13,.64Zm-1.9-.68v-1.5h-.74c-1.16,0-1.74,.43-1.74,1.29,0,.35,.09,.63,.27,.83,.18,.2,.44,.29,.78,.29,.61,0,1.08-.3,1.43-.91Z"/>
    <path class="cls-1" d="M44.62,305.91c.37,.4,.55,.95,.55,1.66v5.36h-1.79v-5.08c0-.44-.08-.75-.23-.92-.15-.18-.38-.27-.68-.27s-.59,.1-.83,.29c-.25,.19-.49,.47-.72,.83v5.15h-1.79v-7.41h1.55l.14,.97c.61-.78,1.36-1.18,2.25-1.18,.66,0,1.18,.2,1.55,.59Z"/>
  </g>
  <g>
    <path class="cls-1" d="M5.85,221.48v9.67h-1.85v-9.67h1.85Zm5.43,0l-3.35,4.38,3.61,5.29h-2.2l-3.42-5.17,3.35-4.51h2Z"/>
    <path class="cls-1" d="M12.94,230.87c-.32-.33-.48-.8-.48-1.41v-8.68l1.79-.2v8.82c0,.35,.14,.52,.42,.52,.14,0,.28-.02,.42-.07l.38,1.26c-.37,.17-.77,.25-1.19,.25-.57,0-1.01-.17-1.34-.5Z"/>
    <path class="cls-1" d="M22.19,229.83c.09,.14,.23,.24,.43,.32l-.38,1.19c-.42-.04-.76-.14-1.03-.31s-.47-.42-.61-.77c-.25,.37-.57,.65-.94,.83-.38,.18-.8,.27-1.27,.27-.74,0-1.32-.21-1.75-.63-.43-.42-.64-.97-.64-1.65,0-.8,.29-1.42,.88-1.84,.58-.42,1.42-.64,2.5-.64h.92v-.42c0-.48-.11-.81-.33-1-.22-.19-.57-.29-1.06-.29-.54,0-1.2,.13-1.96,.39l-.42-1.22c.92-.35,1.82-.53,2.69-.53,1.89,0,2.84,.85,2.84,2.55v3.11c0,.29,.04,.5,.13,.64Zm-1.9-.68v-1.5h-.74c-1.16,0-1.74,.43-1.74,1.29,0,.35,.09,.63,.27,.83,.18,.2,.44,.29,.78,.29,.61,0,1.08-.3,1.43-.91Z"/>
    <path class="cls-1" d="M30.15,231.16h-1.55l-.1-1.04c-.27,.42-.59,.73-.96,.94-.37,.21-.8,.31-1.31,.31-.66,0-1.17-.2-1.53-.61-.36-.41-.54-.97-.54-1.69v-5.32h1.79v5.1c0,.42,.07,.72,.22,.9,.14,.18,.38,.27,.69,.27,.57,0,1.07-.35,1.5-1.05v-5.21h1.79v7.41Z"/>
    <path class="cls-1" d="M37.28,224.42l-.7,1.05c-.63-.4-1.25-.6-1.86-.6-.36,0-.63,.07-.83,.2-.2,.14-.29,.32-.29,.54,0,.17,.04,.31,.13,.42s.24,.22,.46,.32c.22,.1,.54,.21,.97,.33,.8,.21,1.4,.5,1.79,.85,.39,.35,.58,.85,.58,1.48,0,.74-.3,1.31-.9,1.73-.6,.42-1.34,.62-2.23,.62-.61,0-1.16-.09-1.66-.28s-.93-.44-1.29-.77l.9-1.01c.64,.49,1.32,.73,2.02,.73,.4,0,.72-.08,.96-.24,.24-.16,.36-.38,.36-.66,0-.21-.04-.39-.13-.51s-.25-.24-.48-.34c-.23-.1-.59-.22-1.07-.36-.76-.21-1.31-.49-1.67-.86-.35-.37-.53-.83-.53-1.38,0-.41,.12-.78,.36-1.11,.24-.33,.57-.58,1.01-.77,.43-.19,.93-.28,1.49-.28,1,0,1.88,.29,2.63,.88Z"/>
  </g>
  <g>
    <path class="cls-1" d="M9.29,149.38v-4.33h-3.44v4.33h-1.85v-9.67h1.85v3.88h3.44v-3.88h1.86v9.67h-1.86Z"/>
    <path class="cls-1" d="M18.96,148.06c.09,.14,.23,.24,.43,.32l-.38,1.19c-.42-.04-.76-.14-1.03-.31s-.47-.42-.61-.77c-.25,.37-.57,.65-.94,.83-.38,.18-.8,.27-1.27,.27-.74,0-1.32-.21-1.75-.63-.43-.42-.64-.97-.64-1.65,0-.8,.29-1.42,.88-1.84,.58-.42,1.42-.64,2.5-.64h.92v-.42c0-.48-.11-.81-.33-1-.22-.19-.57-.29-1.06-.29-.54,0-1.2,.13-1.96,.39l-.42-1.22c.92-.35,1.82-.53,2.69-.53,1.89,0,2.84,.85,2.84,2.55v3.11c0,.29,.04,.5,.13,.64Zm-1.9-.68v-1.5h-.74c-1.16,0-1.74,.43-1.74,1.29,0,.35,.09,.63,.27,.83,.18,.2,.44,.29,.78,.29,.61,0,1.08-.3,1.43-.91Z"/>
    <path class="cls-1" d="M26.73,141.98l-2.41,7.41h-2.14l-2.45-7.41h1.95l1.58,5.96,1.62-5.96h1.85Z"/>
    <path class="cls-1" d="M33.79,146.23h-4.65c.06,.72,.24,1.23,.56,1.54,.32,.31,.74,.46,1.26,.46,.33,0,.63-.05,.92-.16,.29-.11,.6-.27,.92-.5l.74,1.02c-.82,.66-1.74,.99-2.74,.99-1.13,0-2-.35-2.61-1.04s-.92-1.63-.92-2.83c0-.76,.13-1.43,.39-2.04,.26-.6,.64-1.07,1.13-1.41s1.08-.51,1.76-.51c1.04,0,1.84,.33,2.41,.99,.57,.66,.85,1.57,.85,2.75,0,.09-.01,.34-.04,.73Zm-1.74-1.25c0-1.3-.48-1.95-1.44-1.95-.44,0-.78,.16-1.03,.48-.25,.32-.39,.84-.44,1.55h2.91v-.08Z"/>
    <path class="cls-1" d="M35.85,149.1c-.32-.33-.48-.8-.48-1.41v-8.68l1.79-.2v8.82c0,.34,.14,.52,.42,.52,.14,0,.28-.02,.42-.07l.38,1.26c-.37,.17-.77,.25-1.19,.25-.57,0-1.01-.17-1.34-.5Z"/>
  </g>
  <g>
    <line class="cls-5" x1="463.2" y1="157.11" x2="1.48" y2="157.11"/>
    <line class="cls-5" x1="463.2" y1="238.89" x2=".97" y2="238.89"/>
    <line class="cls-5" x1="463.2" y1="320.66" x2="1.48" y2="320.66"/>
  </g>
  <circle class="cls-13" cx="298.86" cy="153.43" r="4.71"/>
  <circle class="cls-21" cx="253.26" cy="153.43" r="4.71"/>
  <circle class="cls-21" cx="253.26" cy="160.73" r="4.71"/>
  <circle class="cls-23" cx="248.7" cy="157.11" r="4.71"/>
  <circle class="cls-14" cx="307.99" cy="157.11" r="4.71"/>
  <circle class="cls-13" cx="298.86" cy="160.73" r="4.71"/>
  <circle class="cls-26" cx="390.08" cy="157.11" r="4.71"/>
  <circle class="cls-20" cx="216.77" cy="150.54" r="4.71"/>
  <circle class="cls-20" cx="216.77" cy="163.69" r="4.71"/>
  <circle class="cls-22" cx="321.67" cy="157.11" r="4.71"/>
  <circle class="cls-16" cx="330.79" cy="157.11" r="4.71"/>
  <circle class="cls-27" cx="394.64" cy="157.11" r="4.71"/>
  <circle class="cls-9" cx="344.47" cy="157.11" r="4.71"/>
  <circle class="cls-18" cx="235.02" cy="238.92" r="4.71"/>
  <circle class="cls-25" cx="171.17" cy="238.92" r="4.71"/>
  <circle class="cls-10" cx="198.53" cy="320.66" r="4.71"/>
  <circle class="cls-21" cx="253.26" cy="320.66" r="4.71"/>
  <circle class="cls-24" cx="203.1" cy="320.66" r="4.71"/>
  <circle class="cls-12" cx="107.32" cy="317.05" r="4.71"/>
  <circle class="cls-29" cx="57.16" cy="320.66" r="4.71"/>
  <circle class="cls-23" cx="248.7" cy="315.95" r="4.71"/>
  <circle class="cls-15" cx="125.57" cy="320.66" r="4.71"/>
  <circle class="cls-17" cx="70.84" cy="320.66" r="4.71"/>
  <circle class="cls-8" cx="162.05" cy="320.66" r="4.71"/>
  <circle class="cls-12" cx="107.32" cy="324.27" r="4.71"/>
  <circle class="cls-23" cx="248.7" cy="324.27" r="4.71"/>
  <circle class="cls-30" cx="212.22" cy="320.66" r="4.71"/>
  <circle class="cls-28" cx="362.71" cy="320.66" r="4.71"/>
  <circle class="cls-11" cx="152.93" cy="320.66" r="4.71"/>
  <circle class="cls-19" cx="276.06" cy="320.66" r="4.71"/>
  <g>
    <path class="cls-1" d="M94.06,71.51c.57,.36,1.01,.89,1.33,1.58,.32,.69,.47,1.53,.47,2.52s-.16,1.8-.47,2.5-.76,1.22-1.33,1.59-1.23,.55-1.98,.55-1.42-.18-1.98-.53-1.01-.88-1.33-1.57c-.32-.69-.47-1.53-.47-2.51s.16-1.79,.47-2.5,.76-1.24,1.33-1.61c.57-.37,1.23-.55,1.98-.55s1.42,.18,1.98,.54Zm-3.8,1.36c-.43,.59-.65,1.51-.65,2.76s.22,2.15,.66,2.73c.44,.58,1.04,.87,1.81,.87,1.65,0,2.47-1.21,2.47-3.61s-.82-3.63-2.47-3.63c-.78,0-1.39,.29-1.82,.88Z"/>
    <path class="cls-1" d="M100.94,73.27c.37,.13,.73,.33,1.07,.58l-.51,.75c-.31-.2-.61-.35-.89-.44-.28-.09-.58-.14-.89-.14-.39,0-.7,.08-.92,.24s-.34,.38-.34,.66,.11,.49,.32,.65,.6,.31,1.15,.46c.76,.19,1.33,.45,1.71,.78,.38,.33,.57,.78,.57,1.35,0,.68-.26,1.19-.79,1.55s-1.16,.53-1.92,.53c-1.04,0-1.9-.3-2.59-.9l.64-.73c.58,.44,1.22,.66,1.92,.66,.45,0,.81-.09,1.07-.28,.26-.19,.4-.44,.4-.76,0-.23-.05-.42-.14-.57-.1-.14-.26-.27-.49-.38-.23-.11-.58-.22-1.03-.34-.73-.19-1.25-.45-1.58-.77-.33-.32-.49-.73-.49-1.22,0-.35,.11-.68,.32-.97,.21-.29,.51-.52,.88-.68,.38-.16,.8-.24,1.27-.24s.89,.07,1.26,.2Z"/>
    <path class="cls-1" d="M108.7,74.04c.53,.64,.8,1.51,.8,2.61,0,.71-.12,1.34-.36,1.88-.24,.54-.59,.96-1.05,1.26-.46,.3-1,.45-1.64,.45-.96,0-1.71-.32-2.25-.96s-.81-1.51-.81-2.61c0-.71,.12-1.34,.36-1.88,.24-.54,.59-.96,1.05-1.26,.46-.3,1.01-.45,1.65-.45,.96,0,1.71,.32,2.24,.96Zm-4.02,2.63c0,1.74,.59,2.61,1.77,2.61s1.77-.88,1.77-2.63-.59-2.61-1.76-2.61-1.78,.88-1.78,2.63Z"/>
    <path class="cls-1" d="M116.47,74.02c.46,.63,.69,1.51,.69,2.63,0,.71-.11,1.34-.33,1.88-.22,.54-.53,.96-.94,1.26-.41,.3-.88,.45-1.43,.45-.72,0-1.33-.3-1.82-.91l-.12,.75h-1.05v-9.61l1.2-.14v3.76c.49-.68,1.14-1.01,1.94-1.01s1.4,.31,1.86,.94Zm-1.05,4.63c.3-.43,.45-1.09,.45-2s-.14-1.6-.42-2.01c-.28-.41-.67-.62-1.18-.62-.61,0-1.14,.36-1.6,1.07v3.28c.18,.29,.41,.51,.67,.68,.26,.17,.54,.25,.84,.25,.53,0,.94-.21,1.24-.64Z"/>
    <path class="cls-1" d="M123.89,73.64c.35,.37,.53,.88,.53,1.53v4.91h-1.2v-4.75c0-.49-.09-.83-.27-1.03-.18-.2-.45-.3-.81-.3s-.68,.1-.96,.31-.54,.51-.78,.9v4.86h-1.2v-6.85h1.03l.1,1.01c.24-.36,.54-.65,.9-.86s.76-.31,1.19-.31c.62,0,1.11,.19,1.46,.56Z"/>
    <path class="cls-1" d="M131.63,74.04c.53,.64,.8,1.51,.8,2.61,0,.71-.12,1.34-.36,1.88-.24,.54-.59,.96-1.05,1.26-.46,.3-1,.45-1.64,.45-.96,0-1.71-.32-2.25-.96s-.81-1.51-.81-2.61c0-.71,.12-1.34,.36-1.88,.24-.54,.59-.96,1.05-1.26,.46-.3,1.01-.45,1.65-.45,.96,0,1.71,.32,2.24,.96Zm-4.02,2.63c0,1.74,.59,2.61,1.77,2.61s1.77-.88,1.77-2.63-.59-2.61-1.76-2.61-1.78,.88-1.78,2.63Z"/>
    <path class="cls-1" d="M137.53,73.27c.37,.13,.73,.33,1.07,.58l-.51,.75c-.31-.2-.61-.35-.89-.44-.28-.09-.58-.14-.89-.14-.39,0-.7,.08-.92,.24s-.34,.38-.34,.66,.11,.49,.32,.65,.6,.31,1.15,.46c.76,.19,1.33,.45,1.71,.78,.38,.33,.57,.78,.57,1.35,0,.68-.26,1.19-.79,1.55s-1.16,.53-1.92,.53c-1.04,0-1.9-.3-2.59-.9l.64-.73c.58,.44,1.22,.66,1.92,.66,.45,0,.81-.09,1.07-.28,.26-.19,.4-.44,.4-.76,0-.23-.05-.42-.14-.57-.1-.14-.26-.27-.49-.38-.23-.11-.58-.22-1.03-.34-.73-.19-1.25-.45-1.58-.77-.33-.32-.49-.73-.49-1.22,0-.35,.11-.68,.32-.97,.21-.29,.51-.52,.88-.68,.38-.16,.8-.24,1.27-.24s.89,.07,1.26,.2Z"/>
    <path class="cls-1" d="M143.94,79.77c-.45,.31-.96,.47-1.53,.47s-1.03-.17-1.36-.5c-.33-.33-.49-.82-.49-1.45v-4.13h-1.2v-.92h1.2v-1.55l1.2-.14v1.69h1.62l-.13,.92h-1.5v4.08c0,.36,.06,.61,.19,.77s.34,.24,.63,.24c.27,0,.57-.09,.91-.27l.46,.79Z"/>
    <path class="cls-1" d="M146.37,70.18c.16,.16,.23,.35,.23,.58s-.08,.43-.23,.58c-.16,.15-.36,.23-.61,.23s-.44-.08-.6-.23c-.16-.15-.23-.34-.23-.58s.08-.43,.23-.58,.36-.23,.6-.23,.46,.08,.61,.23Zm0,3.05v6.85h-1.2v-6.85h1.2Z"/>
    <path class="cls-1" d="M85.19,85.53l-2.33,6.85h-1.44l-2.37-6.85h1.3l1.79,5.79,1.78-5.79h1.26Z"/>
    <path class="cls-1" d="M89.3,92.42c-.27,.8-.64,1.43-1.12,1.89s-1.17,.74-2.06,.84l-.13-.94c.45-.08,.81-.19,1.08-.34s.48-.34,.64-.57c.16-.23,.31-.54,.45-.93h-.4l-2.3-6.85h1.27l1.83,5.98,1.79-5.98h1.23l-2.29,6.89Z"/>
    <path class="cls-1" d="M96.97,85.53v.91l-3.58,4.94h3.61l-.14,1h-4.82v-.9l3.56-4.94h-3.26v-1.01h4.63Z"/>
    <path class="cls-1" d="M103.32,85.93c.35,.37,.53,.88,.53,1.53v4.91h-1.2v-4.75c0-.49-.09-.83-.27-1.03-.18-.2-.45-.3-.81-.3s-.68,.1-.96,.31-.54,.51-.78,.9v4.86h-1.2v-6.85h1.03l.1,1.01c.24-.36,.54-.65,.9-.86s.76-.31,1.19-.31c.62,0,1.11,.19,1.46,.56Z"/>
    <path class="cls-1" d="M111.01,91.4c.09,.13,.24,.24,.43,.31l-.27,.83c-.36-.04-.64-.14-.86-.3s-.38-.4-.48-.73c-.46,.69-1.14,1.03-2.04,1.03-.68,0-1.21-.19-1.6-.57-.39-.38-.58-.88-.58-1.5,0-.73,.26-1.29,.79-1.68s1.27-.58,2.23-.58h1.05v-.51c0-.49-.12-.83-.35-1.04-.23-.21-.59-.31-1.08-.31s-1.12,.12-1.85,.36l-.3-.87c.85-.31,1.64-.47,2.37-.47,.81,0,1.41,.2,1.81,.59s.6,.96,.6,1.68v3.13c0,.28,.05,.48,.14,.62Zm-1.34-.83v-1.57h-.9c-1.27,0-1.9,.47-1.9,1.4,0,.41,.1,.71,.3,.92s.49,.31,.88,.31c.68,0,1.22-.35,1.61-1.07Z"/>
    <path class="cls-1" d="M121.55,85.94c.34,.38,.51,.89,.51,1.53v4.91h-1.2v-4.75c0-.88-.32-1.33-.96-1.33-.34,0-.62,.1-.86,.29s-.49,.5-.75,.92v4.86h-1.2v-4.75c0-.88-.32-1.33-.96-1.33-.35,0-.64,.1-.87,.3-.23,.2-.48,.5-.74,.91v4.86h-1.2v-6.85h1.03l.1,1c.51-.77,1.17-1.16,1.98-1.16,.42,0,.79,.11,1.09,.33s.51,.52,.64,.91c.27-.4,.57-.7,.89-.92,.32-.21,.71-.32,1.15-.32,.56,0,1.01,.19,1.35,.57Z"/>
    <path class="cls-1" d="M129.61,89.36h-4.37c.05,.75,.24,1.31,.57,1.66s.75,.53,1.27,.53c.33,0,.63-.05,.91-.14,.28-.09,.57-.25,.87-.46l.52,.71c-.73,.57-1.53,.86-2.39,.86-.95,0-1.7-.31-2.23-.94-.53-.62-.8-1.48-.8-2.57,0-.71,.11-1.34,.34-1.89,.23-.55,.56-.98,.99-1.29,.43-.31,.93-.47,1.51-.47,.91,0,1.61,.3,2.09,.9,.49,.6,.73,1.43,.73,2.48,0,.2,0,.4-.03,.61Zm-1.16-.96c0-.68-.13-1.19-.4-1.55s-.67-.53-1.21-.53c-.98,0-1.51,.72-1.6,2.16h3.21v-.08Z"/>
    <path class="cls-1" d="M136.24,85.93c.35,.37,.53,.88,.53,1.53v4.91h-1.2v-4.75c0-.49-.09-.83-.27-1.03-.18-.2-.45-.3-.81-.3s-.68,.1-.96,.31-.54,.51-.78,.9v4.86h-1.2v-6.85h1.03l.1,1.01c.24-.36,.54-.65,.9-.86s.76-.31,1.19-.31c.62,0,1.11,.19,1.46,.56Z"/>
    <path class="cls-1" d="M143.93,91.4c.09,.13,.24,.24,.43,.31l-.27,.83c-.36-.04-.64-.14-.86-.3s-.38-.4-.48-.73c-.46,.69-1.14,1.03-2.04,1.03-.68,0-1.21-.19-1.6-.57-.39-.38-.58-.88-.58-1.5,0-.73,.26-1.29,.79-1.68s1.27-.58,2.23-.58h1.05v-.51c0-.49-.12-.83-.35-1.04-.23-.21-.59-.31-1.08-.31s-1.12,.12-1.85,.36l-.3-.87c.85-.31,1.64-.47,2.37-.47,.81,0,1.41,.2,1.81,.59s.6,.96,.6,1.68v3.13c0,.28,.05,.48,.14,.62Zm-1.34-.83v-1.57h-.9c-1.27,0-1.9,.47-1.9,1.4,0,.41,.1,.71,.3,.92s.49,.31,.88,.31c.68,0,1.22-.35,1.61-1.07Z"/>
    <path class="cls-1" d="M150.93,85.93c.35,.37,.53,.88,.53,1.53v4.91h-1.2v-4.75c0-.49-.09-.83-.27-1.03-.18-.2-.45-.3-.81-.3s-.68,.1-.96,.31-.54,.51-.78,.9v4.86h-1.2v-6.85h1.03l.1,1.01c.24-.36,.54-.65,.9-.86s.76-.31,1.19-.31c.62,0,1.11,.19,1.46,.56Z"/>
    <path class="cls-1" d="M159.01,89.36h-4.37c.05,.75,.24,1.31,.57,1.66s.75,.53,1.27,.53c.33,0,.63-.05,.91-.14,.28-.09,.57-.25,.87-.46l.52,.71c-.73,.57-1.53,.86-2.39,.86-.95,0-1.7-.31-2.23-.94-.53-.62-.8-1.48-.8-2.57,0-.71,.11-1.34,.34-1.89,.23-.55,.56-.98,.99-1.29,.43-.31,.93-.47,1.51-.47,.91,0,1.61,.3,2.09,.9,.49,.6,.73,1.43,.73,2.48,0,.2,0,.4-.03,.61Zm-1.16-.96c0-.68-.13-1.19-.4-1.55s-.67-.53-1.21-.53c-.98,0-1.51,.72-1.6,2.16h3.21v-.08Zm-.57-6.44l.53,1-2.76,1.12-.36-.64,2.59-1.48Z"/>
  </g>
  <circle class="cls-30" cx="212.22" cy="157.11" r="4.71"/>
  <circle class="cls-10" cx="198.53" cy="157.11" r="4.71"/>
  <circle class="cls-31" cx="207.66" cy="157.11" r="4.71"/>
  <g>
    <path class="cls-3" d="M70.98,280.92c.33,.13,.66,.33,.98,.6l-.58,.6c-.26-.21-.5-.36-.74-.45-.24-.09-.51-.14-.83-.14-.37,0-.71,.1-1.01,.3-.31,.2-.56,.51-.75,.95-.19,.43-.29,.98-.29,1.65,0,1.01,.16,1.74,.49,2.21,.33,.46,.82,.7,1.46,.7,.53,0,.98-.11,1.36-.32v-2.16h-1.27l-.11-.8h2.36v3.46c-.74,.42-1.52,.63-2.34,.63-.94,0-1.68-.32-2.21-.95-.53-.63-.8-1.55-.8-2.77,0-.78,.14-1.44,.42-2,.28-.56,.66-.98,1.13-1.27,.47-.29,.99-.43,1.55-.43,.45,0,.84,.06,1.17,.19Z"/>
    <path class="cls-3" d="M77.8,285.61h-3.5c.04,.6,.19,1.05,.46,1.33s.6,.43,1.02,.43c.26,0,.51-.04,.73-.11,.22-.08,.45-.2,.7-.36l.42,.57c-.58,.46-1.22,.69-1.91,.69-.76,0-1.36-.25-1.78-.75-.43-.5-.64-1.19-.64-2.06,0-.57,.09-1.07,.28-1.51,.18-.44,.45-.79,.79-1.04,.34-.25,.75-.38,1.21-.38,.73,0,1.29,.24,1.67,.72,.39,.48,.58,1.14,.58,1.99,0,.16,0,.32-.02,.49Zm-.93-.77c0-.54-.11-.95-.32-1.24-.21-.29-.54-.43-.97-.43-.78,0-1.21,.58-1.28,1.73h2.57v-.06Z"/>
    <path class="cls-3" d="M83.1,282.86c.28,.3,.42,.71,.42,1.23v3.93h-.96v-3.8c0-.39-.07-.66-.22-.82-.15-.16-.36-.24-.64-.24s-.55,.08-.77,.25c-.22,.17-.43,.41-.62,.72v3.89h-.96v-5.48h.82l.08,.81c.19-.29,.43-.52,.72-.69,.29-.17,.61-.25,.95-.25,.5,0,.89,.15,1.17,.45Z"/>
    <path class="cls-3" d="M89.56,285.61h-3.5c.04,.6,.19,1.05,.46,1.33s.6,.43,1.02,.43c.26,0,.51-.04,.73-.11,.22-.08,.45-.2,.7-.36l.42,.57c-.58,.46-1.22,.69-1.91,.69-.76,0-1.36-.25-1.78-.75-.43-.5-.64-1.19-.64-2.06,0-.57,.09-1.07,.28-1.51,.18-.44,.45-.79,.79-1.04,.34-.25,.75-.38,1.21-.38,.73,0,1.29,.24,1.67,.72,.39,.48,.58,1.14,.58,1.99,0,.16,0,.32-.02,.49Zm-.93-.77c0-.54-.11-.95-.32-1.24-.21-.29-.54-.43-.97-.43-.78,0-1.21,.58-1.28,1.73h2.57v-.06Z"/>
    <path class="cls-3" d="M94.04,282.48l-.18,.94c-.17-.04-.33-.06-.48-.06-.34,0-.61,.12-.82,.37-.21,.25-.37,.64-.49,1.17v3.13h-.96v-5.48h.82l.09,1.11c.15-.41,.34-.72,.59-.93,.25-.21,.54-.31,.87-.31,.19,0,.37,.02,.54,.06Z"/>
    <path class="cls-3" d="M98.57,287.24c.08,.11,.19,.19,.34,.24l-.22,.67c-.28-.04-.51-.11-.69-.24-.17-.12-.3-.32-.38-.58-.37,.55-.91,.82-1.63,.82-.54,0-.97-.15-1.28-.46-.31-.3-.47-.7-.47-1.2,0-.58,.21-1.03,.63-1.34,.42-.31,1.01-.47,1.78-.47h.84v-.41c0-.39-.09-.67-.28-.83-.19-.17-.47-.25-.86-.25s-.89,.1-1.48,.29l-.24-.7c.68-.25,1.31-.38,1.89-.38,.64,0,1.13,.16,1.45,.47,.32,.32,.48,.76,.48,1.35v2.51c0,.22,.04,.39,.11,.49Zm-1.26-7.55l.43,.8-2.21,.89-.29-.51,2.07-1.19Zm.19,6.89v-1.26h-.72c-1.01,0-1.52,.38-1.52,1.12,0,.33,.08,.57,.24,.74,.16,.17,.4,.25,.71,.25,.55,0,.98-.28,1.29-.85Z"/>
    <path class="cls-3" d="M100.58,287.83c-.21-.21-.31-.51-.31-.89v-6.61l.96-.12v6.7c0,.15,.03,.26,.08,.33,.05,.07,.14,.1,.26,.1,.13,0,.25-.02,.35-.06l.25,.67c-.23,.12-.48,.19-.76,.19-.35,0-.63-.11-.84-.32Z"/>
    <path class="cls-1" d="M70.5,292.25c.39,.16,.75,.4,1.09,.73l-.7,.85c-.27-.23-.53-.41-.8-.51-.27-.11-.56-.16-.87-.16-.34,0-.62,.08-.83,.24-.21,.16-.32,.39-.32,.69,0,.2,.04,.36,.12,.49,.08,.13,.23,.25,.45,.36,.21,.11,.53,.24,.96,.37,.73,.24,1.28,.54,1.65,.9,.37,.36,.55,.88,.55,1.57,0,.47-.11,.88-.34,1.25s-.55,.65-.97,.85c-.42,.2-.92,.31-1.51,.31s-1.07-.1-1.52-.29-.83-.46-1.16-.79l.73-.86c.29,.26,.58,.45,.89,.58,.31,.13,.65,.2,1.02,.2,.41,0,.74-.1,.99-.31s.38-.49,.38-.86c0-.23-.04-.41-.13-.56s-.23-.28-.44-.4-.51-.24-.9-.37c-.79-.26-1.36-.57-1.71-.93-.35-.36-.53-.84-.53-1.43,0-.43,.11-.81,.32-1.13s.51-.58,.9-.76,.82-.27,1.31-.27c.52,0,.98,.08,1.37,.24Z"/>
    <path class="cls-1" d="M76.24,299.74c-.2,.15-.42,.27-.67,.34-.25,.08-.5,.11-.76,.11-.56,0-.98-.18-1.28-.5-.29-.33-.44-.82-.44-1.46v-3.17h-.89v-1.04h.89v-1.33l1.38-.17v1.5h1.32l-.14,1.04h-1.18v3.13c0,.29,.05,.51,.15,.64s.25,.19,.46,.19,.43-.07,.68-.21l.48,.93Z"/>
    <path class="cls-1" d="M81.21,298.95c.07,.11,.18,.19,.33,.25l-.29,.96c-.32-.03-.59-.11-.79-.25-.21-.14-.36-.34-.47-.62-.19,.3-.44,.53-.73,.68s-.62,.22-.97,.22c-.57,0-1.01-.17-1.34-.51-.33-.34-.49-.79-.49-1.34,0-.65,.22-1.15,.67-1.49,.45-.34,1.09-.52,1.92-.52h.71v-.34c0-.39-.08-.66-.25-.81-.17-.15-.44-.23-.81-.23-.42,0-.92,.11-1.51,.32l-.32-.99c.71-.29,1.4-.43,2.07-.43,1.46,0,2.18,.69,2.18,2.07v2.52c0,.23,.03,.41,.1,.52Zm-1.46-.55v-1.21h-.57c-.89,0-1.33,.35-1.33,1.04,0,.29,.07,.51,.2,.67,.14,.16,.34,.24,.6,.24,.47,0,.83-.25,1.1-.74Z"/>
    <path class="cls-1" d="M87,294.33c.28,.32,.42,.77,.42,1.34v4.35h-1.38v-4.12c0-.36-.06-.6-.18-.75-.12-.14-.29-.21-.52-.21s-.45,.08-.64,.23c-.19,.16-.37,.38-.55,.67v4.18h-1.38v-6h1.19l.11,.78c.47-.64,1.04-.95,1.73-.95,.51,0,.91,.16,1.19,.48Z"/>
    <path class="cls-1" d="M90.34,291.23c.16,.17,.24,.38,.24,.63s-.08,.46-.24,.62c-.16,.17-.37,.25-.63,.25s-.46-.08-.62-.25c-.16-.17-.24-.37-.24-.62s.08-.46,.24-.63c.16-.17,.37-.25,.62-.25s.47,.08,.63,.25Zm.07,2.79v6h-1.38v-6h1.38Z"/>
    <path class="cls-1" d="M95.88,294.56l-.54,.85c-.49-.33-.96-.49-1.43-.49-.27,0-.48,.05-.63,.17-.15,.11-.23,.25-.23,.44,0,.14,.03,.25,.1,.34s.18,.18,.35,.25c.17,.08,.42,.17,.75,.27,.62,.17,1.07,.41,1.37,.69,.3,.29,.45,.69,.45,1.2,0,.6-.23,1.07-.69,1.4-.46,.34-1.03,.5-1.71,.5-.47,0-.89-.08-1.27-.23s-.71-.36-1-.62l.69-.82c.5,.39,1.01,.59,1.55,.59,.31,0,.55-.06,.74-.19s.27-.31,.27-.53c0-.17-.03-.31-.1-.42-.07-.1-.19-.19-.37-.27-.18-.08-.45-.18-.82-.29-.58-.17-1.01-.4-1.28-.7-.27-.3-.41-.67-.41-1.12,0-.33,.09-.63,.27-.9,.18-.27,.44-.47,.77-.62,.33-.15,.71-.23,1.15-.23,.77,0,1.44,.24,2.02,.71Z"/>
    <path class="cls-1" d="M97.5,299.79c-.25-.27-.37-.65-.37-1.14v-7.04l1.38-.16v7.15c0,.28,.11,.42,.32,.42,.11,0,.21-.02,.32-.06l.29,1.02c-.29,.14-.59,.2-.91,.2-.44,0-.78-.13-1.03-.4Z"/>
    <path class="cls-1" d="M104.61,298.95c.07,.11,.18,.19,.33,.25l-.29,.96c-.32-.03-.59-.11-.79-.25-.21-.14-.36-.34-.47-.62-.19,.3-.44,.53-.73,.68s-.62,.22-.97,.22c-.57,0-1.01-.17-1.34-.51-.33-.34-.49-.79-.49-1.34,0-.65,.22-1.15,.67-1.49,.45-.34,1.09-.52,1.92-.52h.71v-.34c0-.39-.08-.66-.25-.81-.17-.15-.44-.23-.81-.23-.42,0-.92,.11-1.51,.32l-.32-.99c.71-.29,1.4-.43,2.07-.43,1.46,0,2.18,.69,2.18,2.07v2.52c0,.23,.03,.41,.1,.52Zm-1.46-.55v-1.21h-.57c-.89,0-1.33,.35-1.33,1.04,0,.29,.07,.51,.2,.67,.14,.16,.34,.24,.6,.24,.47,0,.83-.25,1.1-.74Z"/>
    <path class="cls-1" d="M110.59,294.02l-1.85,6h-1.65l-1.88-6h1.5l1.22,4.83,1.25-4.83h1.42Z"/>
    <path class="cls-1" d="M118.19,292.21c.34,.14,.67,.34,.99,.62l-.72,.88c-.44-.37-.9-.56-1.38-.56-.55,0-1,.23-1.33,.7-.33,.47-.5,1.21-.5,2.21s.17,1.71,.49,2.19c.33,.48,.78,.71,1.33,.71,.29,0,.56-.05,.79-.16,.23-.11,.47-.27,.73-.47l.67,.88c-.25,.27-.57,.5-.95,.68-.38,.18-.81,.27-1.29,.27-.65,0-1.21-.16-1.71-.48-.5-.32-.88-.78-1.15-1.4-.27-.62-.41-1.36-.41-2.23s.14-1.59,.42-2.2c.28-.61,.67-1.08,1.16-1.4,.49-.32,1.05-.48,1.66-.48,.45,0,.85,.07,1.18,.21Zm.28-2.72l.53,.64-1.5,1.36h-.86l-1.5-1.36,.53-.64,1.4,.94,1.4-.94Z"/>
    <path class="cls-1" d="M124.66,297.47h-3.57c.04,.58,.19,1,.43,1.25,.24,.25,.57,.37,.97,.37,.25,0,.49-.04,.71-.13,.22-.09,.46-.22,.71-.4l.57,.83c-.63,.54-1.33,.81-2.11,.81-.87,0-1.54-.28-2.01-.84-.47-.56-.7-1.32-.7-2.29,0-.61,.1-1.16,.3-1.65s.49-.87,.87-1.15,.83-.41,1.36-.41c.8,0,1.41,.27,1.85,.8s.66,1.28,.66,2.23c0,.08-.01,.27-.03,.59Zm-1.33-1.01c0-1.05-.37-1.58-1.11-1.58-.34,0-.6,.13-.79,.39-.19,.26-.3,.68-.34,1.25h2.24v-.07Z"/>
    <path class="cls-1" d="M129.22,294.02c.3,.11,.58,.29,.84,.53l-.61,.87c-.19-.15-.38-.26-.56-.33-.18-.07-.38-.1-.59-.1-.85,0-1.28,.68-1.28,2.05,0,.7,.11,1.2,.33,1.5,.22,.31,.54,.46,.95,.46,.2,0,.38-.03,.55-.1,.17-.07,.37-.18,.6-.33l.61,.92c-.54,.46-1.15,.69-1.84,.69-.54,0-1.02-.13-1.42-.38-.4-.25-.71-.61-.92-1.08-.21-.47-.32-1.02-.32-1.66s.11-1.2,.32-1.68c.21-.49,.52-.87,.92-1.13,.4-.27,.87-.4,1.41-.4,.37,0,.71,.06,1.01,.17Zm.39-3.08l.53,.64-1.5,1.42h-.86l-1.5-1.42,.53-.64,1.4,1,1.4-1Z"/>
    <path class="cls-1" d="M135.49,297.47h-3.57c.04,.58,.19,1,.43,1.25,.24,.25,.57,.37,.97,.37,.25,0,.49-.04,.71-.13,.22-.09,.46-.22,.71-.4l.57,.83c-.63,.54-1.33,.81-2.11,.81-.87,0-1.54-.28-2.01-.84-.47-.56-.7-1.32-.7-2.29,0-.61,.1-1.16,.3-1.65s.49-.87,.87-1.15,.83-.41,1.36-.41c.8,0,1.41,.27,1.85,.8s.66,1.28,.66,2.23c0,.08-.01,.27-.03,.59Zm-1.33-1.01c0-1.05-.37-1.58-1.11-1.58-.34,0-.6,.13-.79,.39-.19,.26-.3,.68-.34,1.25h2.24v-.07Z"/>
    <path class="cls-1" d="M138.13,291.45v8.57h-1.38v-8.41l1.38-.16Zm3.41,2.56l-1.89,2.64,2.08,3.36h-1.58l-1.96-3.28,1.9-2.72h1.45Z"/>
  </g>
  <g>
    <path class="cls-3" d="M359.81,197.18c.49,.37,.73,.92,.73,1.66,0,.78-.25,1.37-.76,1.75-.51,.38-1.18,.57-2.02,.57h-.91v2.63h-.99v-7.17h1.88c.89,0,1.58,.19,2.06,.56Zm-.78,2.87c.3-.22,.45-.62,.45-1.2,0-.51-.15-.88-.45-1.11s-.73-.34-1.29-.34h-.88v2.99h.86c.58,0,1.01-.11,1.32-.33Z"/>
    <path class="cls-3" d="M365.4,198.96c.43,.51,.64,1.21,.64,2.09,0,.57-.1,1.07-.29,1.5s-.48,.77-.84,1.01c-.37,.24-.8,.36-1.31,.36-.77,0-1.37-.26-1.8-.77-.43-.51-.65-1.21-.65-2.09,0-.57,.1-1.07,.29-1.5,.19-.43,.48-.77,.84-1.01,.37-.24,.81-.36,1.32-.36,.77,0,1.37,.26,1.79,.77Zm-3.22,2.1c0,1.39,.47,2.09,1.42,2.09s1.41-.7,1.41-2.1-.47-2.09-1.4-2.09-1.42,.7-1.42,2.1Z"/>
    <path class="cls-3" d="M367.88,203.6c-.21-.21-.31-.51-.31-.89v-6.61l.96-.12v6.7c0,.15,.03,.26,.08,.33,.05,.07,.14,.1,.26,.1,.13,0,.25-.02,.35-.06l.25,.67c-.23,.12-.48,.19-.76,.19-.35,0-.63-.11-.84-.32Z"/>
    <path class="cls-3" d="M371.63,195.87c.12,.12,.19,.28,.19,.47s-.06,.34-.19,.46-.29,.18-.49,.18-.35-.06-.48-.18c-.12-.12-.19-.28-.19-.46s.06-.34,.19-.47c.12-.12,.28-.19,.48-.19s.36,.06,.49,.19Zm0,2.45v5.48h-.96v-5.48h.96Z"/>
    <path class="cls-3" d="M376.37,203.55c-.36,.25-.77,.38-1.23,.38s-.83-.13-1.09-.4c-.26-.27-.39-.65-.39-1.16v-3.31h-.96v-.74h.96v-1.24l.96-.11v1.35h1.3l-.1,.74h-1.2v3.27c0,.29,.05,.49,.15,.62,.1,.13,.27,.19,.5,.19,.21,0,.46-.07,.73-.22l.36,.63Z"/>
    <path class="cls-3" d="M378.32,195.87c.12,.12,.19,.28,.19,.47s-.06,.34-.19,.46-.29,.18-.49,.18-.35-.06-.48-.18c-.12-.12-.19-.28-.19-.46s.06-.34,.19-.47c.12-.12,.28-.19,.48-.19s.36,.06,.49,.19Zm0,2.45v5.48h-.96v-5.48h.96Z"/>
    <path class="cls-3" d="M381.25,195.99v7.8h-.96v-7.69l.96-.12Zm3.15,2.32l-2.02,2.42,2.25,3.06h-1.14l-2.17-3,2.02-2.49h1.07Z"/>
    <path class="cls-1" d="M359.64,215.8l-.46-1.82h-2.46l-.46,1.82h-1.47l2.31-7.84h1.75l2.3,7.84h-1.51Zm-2.65-2.95h1.89l-.95-3.75-.95,3.75Z"/>
    <path class="cls-1" d="M362.24,215.56c-.25-.27-.37-.65-.37-1.14v-7.04l1.38-.16v7.15c0,.28,.11,.42,.32,.42,.11,0,.21-.02,.32-.06l.29,1.02c-.29,.14-.59,.2-.91,.2-.44,0-.78-.13-1.03-.4Z"/>
    <path class="cls-1" d="M369.68,213.24h-3.57c.04,.58,.19,1,.43,1.25,.24,.25,.57,.37,.97,.37,.25,0,.49-.04,.71-.13,.22-.09,.46-.22,.71-.4l.57,.83c-.63,.54-1.33,.81-2.11,.81-.87,0-1.54-.28-2.01-.84-.47-.56-.7-1.32-.7-2.29,0-.61,.1-1.16,.3-1.65s.49-.87,.87-1.15,.83-.41,1.36-.41c.8,0,1.41,.27,1.85,.8s.66,1.28,.66,2.23c0,.08-.01,.27-.03,.59Zm-1.33-1.01c0-1.05-.37-1.58-1.11-1.58-.34,0-.6,.13-.79,.39-.19,.26-.3,.68-.34,1.25h2.24v-.07Z"/>
    <path class="cls-1" d="M373.51,212.58l1.9,3.21h-1.59l-1.17-2.38-1.16,2.38h-1.52l1.89-3.17-1.7-2.84h1.57l.97,2.04,.96-2.04h1.5l-1.65,2.79Z"/>
    <path class="cls-1" d="M380.36,214.72c.07,.11,.18,.19,.33,.25l-.29,.96c-.32-.03-.59-.11-.79-.25-.21-.14-.36-.34-.47-.62-.19,.3-.44,.53-.73,.68s-.62,.22-.97,.22c-.57,0-1.01-.17-1.34-.51-.33-.34-.49-.79-.49-1.34,0-.65,.22-1.15,.67-1.49,.45-.34,1.09-.52,1.92-.52h.71v-.34c0-.39-.08-.66-.25-.81-.17-.15-.44-.23-.81-.23-.42,0-.92,.11-1.51,.32l-.32-.99c.71-.29,1.4-.43,2.07-.43,1.46,0,2.18,.69,2.18,2.07v2.52c0,.23,.03,.41,.1,.52Zm-1.46-.55v-1.21h-.57c-.89,0-1.33,.35-1.33,1.04,0,.29,.07,.51,.2,.67,.14,.16,.34,.24,.6,.24,.47,0,.83-.25,1.1-.74Z"/>
    <path class="cls-1" d="M386.15,210.1c.28,.32,.42,.77,.42,1.34v4.35h-1.38v-4.12c0-.36-.06-.6-.18-.75-.12-.14-.29-.21-.52-.21s-.45,.08-.64,.23c-.19,.16-.37,.38-.55,.67v4.18h-1.38v-6h1.19l.11,.78c.47-.64,1.04-.95,1.73-.95,.51,0,.91,.16,1.19,.48Z"/>
    <path class="cls-1" d="M392.96,207.39v8.41h-1.22l-.1-.76c-.18,.29-.41,.51-.68,.68-.28,.17-.59,.25-.94,.25-.7,0-1.23-.28-1.6-.85-.37-.57-.56-1.34-.56-2.32,0-.61,.09-1.16,.28-1.64s.45-.86,.8-1.13c.35-.27,.75-.41,1.21-.41,.54,0,1.02,.22,1.43,.65v-3.04l1.38,.16Zm-1.9,7.29c.19-.12,.36-.32,.53-.58v-2.75c-.17-.21-.33-.37-.5-.48-.17-.11-.36-.16-.59-.16-.37,0-.65,.17-.87,.52-.21,.34-.32,.87-.32,1.56,0,.74,.09,1.27,.28,1.59,.19,.32,.46,.48,.82,.48,.24,0,.46-.06,.65-.19Z"/>
    <path class="cls-1" d="M399.25,213.24h-3.57c.04,.58,.19,1,.43,1.25,.24,.25,.57,.37,.97,.37,.25,0,.49-.04,.71-.13,.22-.09,.46-.22,.71-.4l.57,.83c-.63,.54-1.33,.81-2.11,.81-.87,0-1.54-.28-2.01-.84-.47-.56-.7-1.32-.7-2.29,0-.61,.1-1.16,.3-1.65s.49-.87,.87-1.15,.83-.41,1.36-.41c.8,0,1.41,.27,1.85,.8s.66,1.28,.66,2.23c0,.08-.01,.27-.03,.59Zm-1.33-1.01c0-1.05-.37-1.58-1.11-1.58-.34,0-.6,.13-.79,.39-.19,.26-.3,.68-.34,1.25h2.24v-.07Z"/>
    <path class="cls-1" d="M403.9,209.71l-.24,1.41c-.17-.04-.34-.07-.51-.07-.34,0-.6,.13-.8,.38-.19,.25-.35,.64-.46,1.16v3.2h-1.38v-6h1.19l.13,1.18c.14-.43,.33-.76,.59-.99s.56-.35,.89-.35c.21,0,.4,.03,.57,.08Z"/>
  </g>
  <g>
    <path class="cls-3" d="M373.07,131.51h-1.32l-2.91-6.09c.04,.48,.07,.92,.1,1.33,.02,.41,.04,.9,.04,1.47v3.29h-.93v-7.17h1.29l2.94,6.1c-.02-.18-.05-.5-.08-.95-.04-.45-.05-.86-.05-1.24v-3.91h.93v7.17Z"/>
    <path class="cls-3" d="M379.22,129.1h-3.5c.04,.6,.19,1.05,.46,1.33s.6,.43,1.02,.43c.26,0,.51-.04,.73-.12,.22-.08,.45-.2,.7-.36l.42,.57c-.58,.46-1.22,.69-1.91,.69-.76,0-1.36-.25-1.78-.75-.43-.5-.64-1.19-.64-2.06,0-.57,.09-1.07,.28-1.51,.18-.44,.45-.79,.79-1.04,.34-.25,.75-.37,1.21-.37,.73,0,1.29,.24,1.67,.72,.39,.48,.58,1.14,.58,1.99,0,.16,0,.32-.02,.49Zm-.93-.77c0-.54-.11-.95-.32-1.24-.21-.28-.54-.43-.97-.43-.78,0-1.21,.58-1.28,1.73h2.57v-.06Z"/>
    <path class="cls-3" d="M387.36,126.36c.27,.3,.41,.71,.41,1.22v3.93h-.96v-3.8c0-.71-.26-1.06-.77-1.06-.27,0-.5,.08-.69,.23-.19,.16-.39,.4-.6,.73v3.89h-.96v-3.8c0-.71-.26-1.06-.77-1.06-.28,0-.51,.08-.7,.24-.19,.16-.38,.4-.59,.73v3.89h-.96v-5.48h.82l.08,.8c.41-.62,.94-.93,1.58-.93,.34,0,.63,.09,.87,.26,.24,.17,.41,.42,.51,.73,.21-.32,.45-.56,.71-.73,.26-.17,.57-.25,.92-.25,.45,0,.81,.15,1.08,.45Z"/>
    <path class="cls-3" d="M393.81,129.1h-3.5c.04,.6,.19,1.05,.46,1.33s.6,.43,1.02,.43c.26,0,.51-.04,.73-.12,.22-.08,.45-.2,.7-.36l.42,.57c-.58,.46-1.22,.69-1.91,.69-.76,0-1.36-.25-1.78-.75-.43-.5-.64-1.19-.64-2.06,0-.57,.09-1.07,.28-1.51,.18-.44,.45-.79,.79-1.04,.34-.25,.75-.37,1.21-.37,.73,0,1.29,.24,1.67,.72,.39,.48,.58,1.14,.58,1.99,0,.16,0,.32-.02,.49Zm-.88-5.75l.41,.47-1.41,1.17h-.63l-1.42-1.17,.42-.47,1.31,.87,1.32-.87Zm-.04,4.98c0-.54-.11-.95-.32-1.24-.21-.28-.54-.43-.97-.43-.78,0-1.21,.58-1.28,1.73h2.57v-.06Z"/>
    <path class="cls-3" d="M398.25,126.05c.27,.09,.53,.24,.78,.45l-.46,.6c-.19-.14-.38-.24-.57-.31-.18-.07-.39-.1-.61-.1-.44,0-.79,.18-1.04,.53s-.37,.88-.37,1.57,.12,1.21,.36,1.54c.24,.33,.59,.49,1.04,.49,.21,0,.41-.03,.59-.1,.18-.07,.38-.17,.6-.32l.44,.62c-.5,.4-1.06,.6-1.68,.6-.74,0-1.33-.25-1.75-.75-.43-.5-.64-1.19-.64-2.07,0-.58,.1-1.09,.29-1.53,.19-.44,.47-.78,.83-1.02,.36-.24,.78-.36,1.27-.36,.33,0,.62,.05,.9,.14Z"/>
    <path class="cls-3" d="M401.29,123.71v7.8h-.96v-7.69l.96-.11Zm3.15,2.32l-2.02,2.42,2.25,3.06h-1.14l-2.17-3,2.02-2.49h1.07Z"/>
    <path class="cls-1" d="M396.49,135.02l-1.37,7.84h-1.85l-1.13-6.25-1.16,6.25h-1.8l-1.34-7.84h1.41l.95,6.65,1.21-6.65h1.51l1.19,6.65,1.03-6.65h1.34Z"/>
    <path class="cls-1" d="M398.8,134.07c.16,.17,.24,.38,.24,.63s-.08,.46-.24,.62c-.16,.17-.37,.25-.63,.25s-.46-.08-.62-.25c-.16-.17-.24-.38-.24-.62s.08-.46,.24-.63c.16-.17,.37-.26,.62-.26s.47,.08,.63,.26Zm.07,2.79v6h-1.38v-6h1.38Z"/>
    <path class="cls-1" d="M400.84,142.63c-.25-.27-.37-.65-.37-1.14v-7.04l1.38-.16v7.15c0,.28,.11,.42,.32,.42,.11,0,.21-.02,.32-.06l.29,1.02c-.29,.14-.59,.21-.91,.21-.44,0-.78-.13-1.03-.4Z"/>
  </g>
  <g>
    <circle class="cls-6" cx="57.16" cy="320.66" r="4.71"/>
    <line class="cls-6" x1="66.16" y1="305.01" x2="59.51" y2="316.58"/>
  </g>
  <g>
    <path d="M10.43,49.84h-1.18l-4.84-9.29c.08,1.25,.12,2.43,.12,3.54v5.75h-.85v-10.28h1.16l4.88,9.29c-.08-1.16-.12-2.17-.12-3.04v-6.24h.85v10.28Z"/>
    <path d="M19.22,46.25h-5.24c.05,1.02,.29,1.78,.73,2.27,.44,.5,1.01,.74,1.72,.74,.41,0,.77-.06,1.09-.19,.31-.12,.66-.32,1.03-.59l.41,.56c-.39,.32-.79,.56-1.2,.72-.41,.16-.87,.24-1.37,.24-1.04,0-1.86-.36-2.45-1.07s-.88-1.7-.88-2.96c0-.83,.13-1.56,.38-2.18,.25-.62,.62-1.11,1.09-1.46,.47-.34,1.03-.52,1.66-.52,1,0,1.76,.34,2.28,1.01,.52,.68,.78,1.6,.78,2.78,0,.22-.01,.43-.03,.63Zm-.83-.9c0-.88-.18-1.57-.55-2.06-.37-.5-.91-.74-1.63-.74-.65,0-1.17,.25-1.58,.75-.4,.5-.62,1.26-.66,2.28h4.41v-.23Zm-.34-7.05l.39,.45-1.93,1.59h-.54l-1.95-1.59,.39-.45,1.83,1.26,1.82-1.26Z"/>
    <path d="M22.59,49.55c0,.68-.08,1.22-.22,1.63-.15,.41-.37,.73-.66,.98s-.7,.49-1.23,.73l-.25-.63c.38-.19,.67-.38,.88-.56,.2-.19,.36-.44,.46-.77,.1-.33,.16-.77,.16-1.34v-7.59h.87v7.56Zm.03-10.83c.12,.12,.18,.27,.18,.45s-.06,.33-.18,.45c-.12,.12-.28,.18-.48,.18-.19,0-.34-.06-.46-.18-.12-.12-.18-.27-.18-.45s.06-.33,.18-.45,.28-.18,.46-.18c.2,0,.36,.06,.48,.18Z"/>
    <path d="M30.81,48.98c.11,.18,.27,.32,.5,.41l-.2,.62c-.36-.07-.64-.21-.83-.41s-.32-.5-.38-.92c-.54,.88-1.36,1.32-2.45,1.32-.75,0-1.34-.21-1.78-.64-.43-.42-.65-.99-.65-1.7,0-.81,.29-1.44,.86-1.88,.58-.44,1.37-.66,2.39-.66h1.5v-.77c0-.63-.14-1.09-.42-1.37s-.75-.43-1.39-.43c-.6,0-1.31,.15-2.13,.45l-.23-.66c.88-.35,1.71-.52,2.48-.52,1.71,0,2.56,.83,2.56,2.49v3.78c0,.41,.05,.71,.16,.88Zm-1.03-1.06v-2.16h-1.36c-.8,0-1.41,.16-1.83,.46-.42,.31-.63,.78-.63,1.39,0,.54,.15,.96,.44,1.25s.7,.44,1.21,.44c.94,0,1.67-.46,2.17-1.38Z"/>
    <path d="M34.68,38.69v11.15h-.87v-11.04l.87-.11Zm4.4,3.3l-3.3,3.51,3.65,4.33h-1.05l-3.6-4.29,3.3-3.56h1.01Z"/>
    <path d="M43.64,49.87c-.21,.61-.44,1.11-.69,1.5-.25,.39-.58,.71-.98,.97-.4,.25-.92,.44-1.54,.56l-.09-.67c.52-.13,.93-.29,1.22-.48,.29-.19,.53-.43,.71-.71s.35-.68,.53-1.19h-.3l-2.73-7.85h.95l2.37,7.2,2.33-7.2h.92l-2.69,7.88Zm.54-11.76l.39,.78-2.93,1.28-.28-.51,2.82-1.54Z"/>
    <path d="M57.72,42.88c.47,.71,.71,1.7,.71,2.99s-.26,2.26-.77,3.01c-.51,.75-1.25,1.12-2.21,1.12-.47,0-.9-.1-1.28-.29-.38-.19-.7-.46-.96-.79v3.87l-.87,.12v-10.92h.75l.08,1.14c.29-.41,.64-.73,1.06-.96,.42-.23,.87-.34,1.36-.34,.95,0,1.66,.35,2.14,1.06Zm-.79,5.53c.38-.57,.57-1.42,.57-2.54,0-2.22-.7-3.33-2.08-3.33-.47,0-.88,.12-1.22,.36-.34,.24-.67,.57-.98,.99v4.17c.52,.8,1.21,1.2,2.07,1.2,.72,0,1.27-.29,1.65-.85Z"/>
    <path d="M66.19,42.9c.58,.71,.88,1.71,.88,2.99s-.3,2.27-.89,3.01c-.6,.73-1.41,1.1-2.44,1.1s-1.85-.36-2.44-1.09c-.58-.72-.88-1.72-.88-2.99,0-.83,.13-1.55,.41-2.17,.27-.62,.65-1.1,1.15-1.43s1.09-.49,1.77-.49c1.04,0,1.85,.36,2.44,1.07Zm-4.21,.52c-.42,.57-.63,1.4-.63,2.5s.21,1.92,.62,2.49c.42,.57,1,.85,1.76,.85s1.35-.29,1.78-.85c.42-.57,.64-1.41,.64-2.52s-.21-1.92-.62-2.48c-.42-.56-1.01-.85-1.78-.85s-1.35,.29-1.77,.86Z"/>
    <path d="M75.21,38.8v11.04h-.75l-.1-1.2c-.54,.91-1.33,1.37-2.36,1.37-.91,0-1.63-.36-2.15-1.09-.52-.72-.79-1.71-.79-2.96,0-.81,.12-1.53,.37-2.15s.6-1.1,1.07-1.46c.46-.35,1.01-.52,1.64-.52,.89,0,1.62,.35,2.21,1.06v-4.2l.87,.11Zm-1.81,10.12c.34-.24,.66-.61,.94-1.09v-4.1c-.56-.79-1.25-1.18-2.06-1.18-.71,0-1.27,.29-1.69,.88s-.62,1.42-.61,2.5c0,1.08,.19,1.91,.57,2.48,.38,.58,.9,.86,1.58,.86,.5,0,.92-.12,1.27-.36Z"/>
    <path d="M81.96,49.51c-.5,.33-1.05,.5-1.65,.5s-1.07-.18-1.41-.53c-.34-.35-.51-.87-.51-1.54v-5.24h-1.32v-.71h1.32v-1.88l.87-.1v1.98h2.03l-.11,.71h-1.92v5.19c0,.46,.09,.8,.29,1.03,.19,.23,.48,.34,.87,.34s.8-.12,1.2-.35l.34,.6Z"/>
    <path d="M84.41,38.72c.12,.12,.18,.27,.18,.45s-.06,.33-.18,.45c-.12,.12-.28,.18-.48,.18-.19,0-.34-.06-.46-.18-.12-.12-.18-.27-.18-.45s.06-.33,.18-.45,.28-.18,.46-.18c.2,0,.36,.06,.48,.18Zm-.03,3.27v7.85h-.87v-7.85h.87Z"/>
    <path d="M91.13,49.51c-.5,.33-1.05,.5-1.65,.5s-1.07-.18-1.41-.53c-.34-.35-.51-.87-.51-1.54v-5.24h-1.32v-.71h1.32v-1.88l.87-.1v1.98h2.03l-.11,.71h-1.92v5.19c0,.46,.09,.8,.29,1.03,.19,.23,.48,.34,.87,.34s.8-.12,1.2-.35l.34,.6Z"/>
    <path d="M98.18,49.84h-.75l-.04-1.4c-.62,1.04-1.47,1.56-2.56,1.56-.71,0-1.26-.21-1.64-.62-.39-.42-.58-1.01-.58-1.78v-5.61h.87v5.52c0,.61,.13,1.06,.38,1.34s.64,.43,1.16,.43c.91,0,1.67-.53,2.29-1.6v-5.69h.87v7.85Z"/>
    <path d="M101.65,49.63c-.25-.25-.37-.62-.37-1.11v-9.72l.87-.11v9.79c0,.51,.21,.77,.63,.77,.21,0,.39-.04,.54-.11l.24,.65c-.28,.14-.58,.21-.9,.21-.43,0-.77-.12-1.01-.38Z"/>
    <path d="M111.08,46.25h-5.24c.05,1.02,.29,1.78,.73,2.27,.44,.5,1.01,.74,1.72,.74,.41,0,.77-.06,1.09-.19,.31-.12,.66-.32,1.03-.59l.41,.56c-.39,.32-.79,.56-1.2,.72-.41,.16-.87,.24-1.37,.24-1.04,0-1.86-.36-2.45-1.07s-.88-1.7-.88-2.96c0-.83,.13-1.56,.38-2.18,.25-.62,.62-1.11,1.09-1.46,.47-.34,1.03-.52,1.66-.52,1,0,1.76,.34,2.28,1.01,.52,.68,.78,1.6,.78,2.78,0,.22-.01,.43-.03,.63Zm-.83-.9c0-.88-.18-1.57-.55-2.06-.37-.5-.91-.74-1.63-.74-.65,0-1.17,.25-1.58,.75-.4,.5-.62,1.26-.66,2.28h4.41v-.23Z"/>
    <path d="M114.45,38.69v11.15h-.87v-11.04l.87-.11Zm4.4,3.3l-3.3,3.51,3.65,4.33h-1.05l-3.6-4.29,3.3-3.56h1.01Z"/>
    <path d="M123.84,39.7c.39,.2,.69,.47,.89,.79,.2,.33,.31,.7,.31,1.1,0,.36-.07,.67-.2,.93s-.29,.48-.47,.65c-.19,.17-.43,.36-.74,.57-.3,.21-.54,.4-.71,.56-.17,.16-.32,.36-.44,.6s-.18,.53-.18,.85v.83h-.86v-.88c0-.42,.07-.78,.21-1.07s.31-.54,.51-.72c.2-.19,.46-.39,.78-.61,.4-.27,.7-.52,.89-.75,.2-.23,.29-.53,.29-.9,0-.46-.16-.82-.47-1.09-.31-.26-.73-.4-1.26-.4-.45,0-.85,.09-1.21,.26-.36,.17-.7,.46-1.04,.85l-.6-.48c.41-.47,.85-.82,1.31-1.04,.46-.23,.99-.34,1.58-.34,.54,0,1,.1,1.4,.3Zm-1.42,9.08c.13,.13,.2,.3,.2,.5s-.07,.37-.2,.51c-.13,.14-.31,.21-.52,.21s-.38-.07-.52-.21c-.13-.14-.2-.31-.2-.51s.07-.37,.2-.5c.14-.13,.31-.2,.52-.2s.38,.07,.52,.2Z"/>
  </g>
</svg>