<?xml version="1.0" encoding="UTF-8"?>
<svg id="Layer_1" data-name="Layer 1" xmlns="http://www.w3.org/2000/svg" viewBox="0 0 620 299.8">
  <defs>
    <style>
      .cls-1 {
        fill: #818d95;
      }

      .cls-2 {
        fill: #c9ced1;
      }

      .cls-3 {
        fill: #46494c;
      }

      .cls-4 {
        fill: #4c5c68;
      }

      .cls-5 {
        fill: none;
        stroke: #818d95;
        stroke-miterlimit: 10;
      }

      .cls-6 {
        opacity: .8;
      }

      .cls-7 {
        isolation: isolate;
      }
    </style>
  </defs>
  <g class="cls-7">
    <path d="M7.35,21.25h-1.51v4.99H3.46V13.8h3.71c3.29,0,4.93,1.22,4.93,3.65,0,.83-.2,1.51-.61,2.05-.41,.54-1.04,.98-1.91,1.31l3.26,5.42h-2.74l-2.75-4.99Zm2.39-11.72l.88,1.01-2.5,2.16h-1.44l-2.5-2.16,.88-1.01,2.34,1.49,2.34-1.49Zm-3.91,10.01h1.48c.76,0,1.33-.17,1.72-.5,.39-.33,.58-.86,.58-1.59,0-.67-.2-1.16-.6-1.47s-1.04-.46-1.9-.46h-1.28v4.01Z"/>
    <path d="M21.41,24.54c.11,.17,.3,.31,.55,.41l-.49,1.53c-.54-.05-.98-.18-1.32-.4-.34-.22-.6-.55-.78-.99-.32,.48-.73,.84-1.21,1.07s-1.03,.35-1.63,.35c-.95,0-1.7-.27-2.25-.81s-.83-1.25-.83-2.12c0-1.03,.38-1.82,1.12-2.37,.75-.55,1.82-.82,3.21-.82h1.19v-.54c0-.61-.14-1.04-.42-1.29-.28-.25-.74-.37-1.36-.37-.7,0-1.54,.17-2.52,.5l-.54-1.57c1.19-.46,2.34-.68,3.46-.68,2.44,0,3.65,1.09,3.65,3.28v4c0,.37,.06,.65,.17,.82Zm-2.44-13.06l.94,1.8-4.07,1.62-.65-1.17,3.78-2.25Zm0,12.19v-1.93h-.95c-1.49,0-2.23,.55-2.23,1.66,0,.46,.11,.81,.34,1.06,.23,.25,.56,.38,1.01,.38,.78,0,1.39-.39,1.84-1.17Z"/>
    <path d="M32.04,12.9v13.34h-2.03l-.16-1.21c-.3,.46-.68,.82-1.14,1.08s-.99,.4-1.57,.4c-1.16,0-2.06-.45-2.68-1.35s-.94-2.12-.94-3.67c0-.97,.16-1.84,.47-2.6,.31-.76,.76-1.36,1.34-1.79s1.26-.65,2.03-.65c.91,0,1.71,.34,2.39,1.03v-4.82l2.3,.25Zm-3.19,11.56c.31-.2,.61-.51,.88-.93v-4.36c-.28-.34-.55-.59-.84-.76s-.61-.25-.98-.25c-.61,0-1.1,.27-1.45,.82-.35,.55-.53,1.37-.53,2.48,0,1.18,.16,2.02,.47,2.53,.31,.51,.77,.77,1.37,.77,.41,0,.77-.1,1.08-.3Z"/>
    <path d="M46.84,17.77c.62,.88,.94,2.12,.94,3.7,0,.98-.15,1.86-.46,2.62-.31,.76-.74,1.36-1.3,1.78-.56,.43-1.23,.64-2,.64-.52,0-.99-.11-1.41-.32-.43-.22-.79-.52-1.11-.92l-.14,.97h-2.03V12.9l2.3-.25v5.15c.31-.43,.69-.77,1.14-1s.95-.35,1.49-.35c1.1,0,1.97,.44,2.59,1.32Zm-2,6.21c.35-.53,.52-1.37,.52-2.51,0-1.2-.16-2.05-.49-2.55s-.78-.75-1.37-.75c-.73,0-1.36,.43-1.89,1.3v4.21c.2,.35,.46,.62,.76,.81,.31,.19,.64,.29,1,.29,.62,0,1.11-.27,1.46-.8Z"/>
    <path d="M52.56,11.48l.94,1.8-4.07,1.62-.65-1.17,3.78-2.25Zm-.22,5.24v9.52h-2.3v-9.52h2.3Z"/>
    <path d="M55.88,25.87c-.41-.43-.62-1.03-.62-1.81V12.9l2.3-.25v11.34c0,.44,.18,.67,.54,.67,.18,0,.36-.03,.54-.09l.49,1.62c-.48,.22-.99,.32-1.53,.32-.73,0-1.3-.21-1.72-.64Z"/>
    <path d="M68.33,22.19h-5.98c.07,.92,.31,1.58,.72,1.98s.95,.59,1.62,.59c.42,0,.82-.07,1.19-.21,.37-.14,.77-.35,1.19-.64l.95,1.31c-1.06,.85-2.23,1.28-3.53,1.28-1.45,0-2.57-.44-3.36-1.33-.79-.89-1.18-2.1-1.18-3.64,0-.97,.17-1.84,.5-2.62s.82-1.38,1.46-1.82c.64-.44,1.39-.66,2.27-.66,1.33,0,2.36,.42,3.1,1.27,.73,.85,1.1,2.02,1.1,3.54,0,.12-.02,.43-.05,.94Zm-2.72-10.71l.94,1.8-4.07,1.62-.65-1.17,3.78-2.25Zm.49,9.11c0-1.67-.62-2.5-1.85-2.5-.56,0-1,.21-1.32,.62-.32,.41-.51,1.08-.57,1.99h3.74v-.11Z"/>
    <path d="M77.51,17.22c.48,.52,.72,1.22,.72,2.12v6.89h-2.3v-6.53c0-.56-.1-.96-.3-1.19-.2-.23-.49-.34-.87-.34s-.74,.12-1.06,.37-.64,.6-.94,1.05v6.64h-2.3V12.92l2.3-.23v5.17c.77-.94,1.69-1.4,2.77-1.4,.84,0,1.5,.26,1.98,.77Z"/>
    <path d="M88.09,17.79c.79,.89,1.18,2.12,1.18,3.68,0,1-.18,1.88-.54,2.64-.36,.76-.88,1.35-1.55,1.77-.67,.42-1.47,.63-2.39,.63-1.4,0-2.5-.45-3.29-1.34s-1.19-2.13-1.19-3.7c0-1,.18-1.87,.54-2.63,.36-.76,.88-1.34,1.56-1.76,.68-.42,1.48-.63,2.4-.63,1.4,0,2.5,.45,3.28,1.34Zm-5.35,3.68c0,1.13,.17,1.96,.51,2.49s.86,.8,1.54,.8,1.2-.27,1.54-.81,.51-1.37,.51-2.48-.17-1.94-.51-2.48c-.34-.53-.85-.8-1.52-.8-1.38,0-2.07,1.09-2.07,3.28Z"/>
    <path d="M96.46,25.87c-.41-.43-.62-1.03-.62-1.81V12.9l2.3-.25v11.34c0,.44,.18,.67,.54,.67,.18,0,.36-.03,.54-.09l.49,1.62c-.48,.22-.99,.32-1.53,.32-.73,0-1.3-.21-1.72-.64Z"/>
    <path d="M108.7,16.72l-3.1,9.52h-2.75l-3.15-9.52h2.5l2.03,7.67,2.09-7.67h2.38Z"/>
    <path d="M116.99,24.54c.11,.17,.3,.31,.55,.41l-.49,1.53c-.54-.05-.98-.18-1.32-.4-.34-.22-.6-.55-.78-.99-.32,.48-.73,.84-1.21,1.07s-1.03,.35-1.63,.35c-.95,0-1.7-.27-2.25-.81s-.83-1.25-.83-2.12c0-1.03,.38-1.82,1.12-2.37,.75-.55,1.82-.82,3.21-.82h1.19v-.54c0-.61-.14-1.04-.42-1.29-.28-.25-.74-.37-1.36-.37-.7,0-1.54,.17-2.52,.5l-.54-1.57c1.19-.46,2.34-.68,3.46-.68,2.44,0,3.65,1.09,3.65,3.28v4c0,.37,.06,.65,.17,.82Zm-2.44-.87v-1.93h-.95c-1.49,0-2.23,.55-2.23,1.66,0,.46,.11,.81,.34,1.06,.23,.25,.56,.38,1.01,.38,.78,0,1.39-.39,1.84-1.17Z"/>
  </g>
  <g>
    <path d="M10.27,49.43c0,1.02-.29,1.84-.87,2.45-.58,.61-1.42,.92-2.5,.92s-1.94-.31-2.51-.92c-.58-.61-.86-1.43-.86-2.46v-7.06h.9v6.99c0,.86,.2,1.52,.61,1.98,.41,.46,1.03,.69,1.87,.69s1.46-.23,1.86-.7c.4-.46,.6-1.12,.6-1.97v-6.99h.92v7.06Z"/>
    <path d="M18.97,41.6v11.04h-.75l-.1-1.2c-.54,.91-1.33,1.37-2.36,1.37-.91,0-1.63-.36-2.15-1.09-.52-.73-.79-1.71-.79-2.96,0-.81,.12-1.52,.37-2.15s.6-1.1,1.07-1.46,1.01-.52,1.64-.52c.89,0,1.62,.35,2.21,1.06v-4.2l.87,.1Zm-1.81,10.12c.34-.24,.66-.6,.94-1.09v-4.1c-.56-.79-1.25-1.19-2.06-1.19-.71,0-1.27,.29-1.69,.89-.42,.59-.62,1.42-.61,2.5,0,1.08,.19,1.91,.57,2.48,.38,.58,.9,.86,1.58,.86,.5,0,.92-.12,1.27-.36Z"/>
    <path d="M27.68,49.06h-5.24c.05,1.02,.29,1.78,.73,2.27,.44,.5,1.01,.74,1.72,.74,.41,0,.77-.06,1.09-.19,.31-.12,.66-.32,1.03-.59l.41,.56c-.39,.32-.79,.56-1.2,.72-.41,.16-.87,.24-1.37,.24-1.04,0-1.86-.35-2.45-1.06s-.88-1.7-.88-2.96c0-.83,.13-1.56,.38-2.18,.25-.62,.62-1.11,1.09-1.46,.47-.34,1.03-.52,1.66-.52,1,0,1.76,.34,2.28,1.01,.52,.68,.78,1.6,.78,2.78,0,.22-.01,.43-.03,.63Zm-.83-.9c0-.88-.18-1.57-.55-2.06-.37-.5-.91-.74-1.63-.74-.65,0-1.17,.25-1.58,.75-.4,.5-.62,1.26-.66,2.28h4.41v-.23Zm-.34-7.05l.39,.45-1.93,1.59h-.54l-1.95-1.59,.39-.45,1.83,1.26,1.82-1.26Z"/>
    <path d="M30.48,52.43c-.25-.25-.37-.62-.37-1.11v-9.72l.87-.1v9.79c0,.51,.21,.77,.63,.77,.21,0,.39-.04,.54-.1l.24,.65c-.28,.14-.58,.21-.9,.21-.43,0-.77-.12-1.01-.38Z"/>
    <path d="M39.91,49.06h-5.24c.05,1.02,.29,1.78,.73,2.27,.44,.5,1.01,.74,1.72,.74,.41,0,.77-.06,1.09-.19,.31-.12,.66-.32,1.03-.59l.41,.56c-.39,.32-.79,.56-1.2,.72-.41,.16-.87,.24-1.37,.24-1.04,0-1.86-.35-2.45-1.06s-.88-1.7-.88-2.96c0-.83,.13-1.56,.38-2.18,.25-.62,.62-1.11,1.09-1.46,.47-.34,1.03-.52,1.66-.52,1,0,1.76,.34,2.28,1.01,.52,.68,.78,1.6,.78,2.78,0,.22-.01,.43-.03,.63Zm-.83-.9c0-.88-.18-1.57-.55-2.06-.37-.5-.91-.74-1.63-.74-.65,0-1.17,.25-1.58,.75-.4,.5-.62,1.26-.66,2.28h4.41v-.23Z"/>
    <path d="M47.5,45.26c.38,.42,.56,1.01,.56,1.77v5.61h-.87v-5.49c0-.63-.12-1.09-.38-1.38s-.62-.44-1.11-.44-.94,.14-1.33,.41c-.38,.28-.75,.68-1.1,1.21v5.69h-.87v-7.85h.75l.09,1.34c.32-.47,.7-.84,1.14-1.1,.44-.27,.93-.4,1.48-.4,.71,0,1.25,.21,1.63,.63Z"/>
    <path class="cls-4" d="M59.98,42.61v1.04l-3.75,9.15-1.26-.42,3.62-8.64h-4.44v-1.12h5.83Z"/>
    <path class="cls-4" d="M66.5,43.69h-3.92v2.96c.51-.26,1.04-.39,1.61-.39,.86,0,1.55,.28,2.07,.85,.52,.56,.78,1.34,.78,2.33,0,.66-.14,1.25-.43,1.76s-.7,.91-1.22,1.2c-.53,.29-1.13,.43-1.82,.43-.61,0-1.16-.11-1.64-.32-.48-.21-.92-.53-1.33-.95l.81-.79c.32,.32,.65,.56,.99,.71,.34,.16,.72,.23,1.15,.23,.64,0,1.14-.2,1.51-.6s.55-.96,.55-1.7-.17-1.26-.5-1.59-.78-.5-1.33-.5c-.26,0-.5,.03-.72,.08-.22,.06-.46,.14-.71,.26h-1.08v-5.06h5.43l-.2,1.08Z"/>
    <path class="cls-4" d="M78.42,45.71c.58,.71,.88,1.71,.88,2.99s-.3,2.27-.89,3.01c-.6,.73-1.41,1.1-2.44,1.1s-1.85-.36-2.44-1.09-.88-1.72-.88-2.99c0-.83,.13-1.55,.41-2.17,.27-.62,.65-1.1,1.15-1.43s1.09-.49,1.77-.49c1.04,0,1.85,.36,2.44,1.07Zm-4.21,.52c-.42,.57-.63,1.4-.63,2.5s.21,1.92,.62,2.49c.42,.57,1,.85,1.76,.85s1.35-.29,1.78-.85c.42-.57,.64-1.41,.64-2.52s-.21-1.92-.62-2.48c-.42-.56-1.01-.85-1.78-.85s-1.35,.28-1.77,.85Z"/>
    <path class="cls-4" d="M85.1,44.85c.4,.15,.79,.36,1.17,.65l-.4,.57c-.36-.25-.7-.43-1.02-.55-.32-.11-.67-.17-1.05-.17-.52,0-.94,.12-1.26,.36-.32,.24-.48,.56-.48,.96s.14,.68,.41,.89c.27,.21,.77,.41,1.49,.6,.89,.23,1.53,.52,1.93,.87,.39,.35,.59,.85,.59,1.5,0,.7-.27,1.26-.81,1.67-.54,.41-1.21,.62-2.03,.62-.6,0-1.12-.09-1.57-.26-.45-.17-.86-.42-1.23-.74l.48-.56c.35,.28,.71,.49,1.07,.62,.36,.13,.78,.2,1.24,.2,.58,0,1.05-.13,1.4-.4,.36-.27,.53-.63,.53-1.1,0-.32-.06-.58-.18-.78-.12-.2-.33-.37-.62-.52-.29-.14-.71-.29-1.27-.44-.83-.22-1.43-.5-1.79-.82-.37-.33-.55-.77-.55-1.32,0-.39,.11-.74,.34-1.06,.23-.31,.54-.56,.94-.73,.39-.17,.84-.26,1.33-.26s.94,.07,1.33,.22Z"/>
    <path class="cls-4" d="M93.94,45.71c.58,.71,.88,1.71,.88,2.99s-.3,2.27-.89,3.01c-.6,.73-1.41,1.1-2.44,1.1s-1.85-.36-2.44-1.09-.88-1.72-.88-2.99c0-.83,.13-1.55,.41-2.17,.27-.62,.65-1.1,1.15-1.43s1.09-.49,1.77-.49c1.04,0,1.85,.36,2.44,1.07Zm-4.21,.52c-.42,.57-.63,1.4-.63,2.5s.21,1.92,.62,2.49c.42,.57,1,.85,1.76,.85s1.35-.29,1.78-.85c.42-.57,.64-1.41,.64-2.52s-.21-1.92-.62-2.48c-.42-.56-1.01-.85-1.78-.85s-1.35,.28-1.77,.85Z"/>
    <path class="cls-4" d="M102.71,45.68c.5,.7,.75,1.7,.75,3s-.26,2.27-.79,3.02c-.53,.74-1.26,1.11-2.2,1.11-.47,0-.9-.1-1.28-.31s-.71-.49-.97-.84l-.09,.99h-.77v-11.04l.87-.1v4.4c.62-.84,1.41-1.26,2.36-1.26s1.61,.35,2.11,1.05Zm-.76,5.54c.38-.57,.58-1.42,.58-2.54,0-2.22-.71-3.33-2.12-3.33-.47,0-.88,.12-1.21,.35s-.66,.57-.96,1v4.12c.25,.39,.55,.7,.9,.92,.35,.23,.74,.34,1.17,.34,.71,0,1.26-.29,1.64-.86Z"/>
    <path class="cls-4" d="M110.97,51.79c.11,.18,.27,.31,.5,.4l-.2,.62c-.36-.07-.64-.21-.83-.41-.2-.2-.32-.5-.38-.91-.54,.88-1.36,1.32-2.45,1.32-.75,0-1.34-.21-1.78-.64-.43-.42-.65-.99-.65-1.7,0-.81,.29-1.44,.86-1.88s1.37-.66,2.39-.66h1.5v-.77c0-.63-.14-1.09-.42-1.37-.28-.28-.75-.43-1.39-.43-.6,0-1.31,.15-2.13,.45l-.23-.66c.88-.35,1.71-.52,2.48-.52,1.71,0,2.56,.83,2.56,2.49v3.78c0,.41,.05,.71,.16,.89Zm-1.03-1.06v-2.16h-1.36c-.8,0-1.41,.16-1.83,.46-.42,.31-.63,.78-.63,1.4,0,.54,.15,.96,.44,1.25s.7,.44,1.21,.44c.94,0,1.67-.46,2.17-1.38Zm-.6-9.81l.39,.78-2.92,1.28-.29-.51,2.82-1.54Z"/>
    <path class="cls-4" d="M123.12,45.28c.37,.43,.55,1.02,.55,1.76v5.61h-.87v-5.49c0-.62-.12-1.08-.35-1.37-.24-.29-.56-.44-.98-.44-.44,0-.83,.14-1.19,.42-.35,.28-.69,.68-1.02,1.2v5.69h-.87v-5.49c0-.62-.12-1.08-.35-1.37s-.56-.44-.98-.44c-.45,0-.85,.14-1.2,.42-.35,.28-.68,.68-1,1.2v5.69h-.87v-7.85h.75l.08,1.34c.3-.47,.66-.84,1.07-1.1,.41-.27,.86-.4,1.35-.4s.92,.14,1.26,.41c.34,.28,.57,.66,.69,1.15,.31-.49,.67-.87,1.09-1.15,.42-.27,.87-.41,1.37-.41,.63,0,1.13,.21,1.49,.64Z"/>
    <path class="cls-4" d="M136.79,45.59c.52,.74,.78,1.76,.78,3.08,0,.82-.13,1.55-.38,2.18-.25,.64-.62,1.13-1.09,1.48-.47,.35-1.03,.53-1.67,.53-.43,0-.82-.09-1.18-.27-.36-.18-.66-.44-.92-.77l-.12,.81h-1.69v-11.12l1.92-.21v4.29c.26-.36,.58-.64,.95-.83,.38-.19,.79-.29,1.24-.29,.92,0,1.64,.37,2.16,1.1Zm-1.67,5.18c.29-.44,.44-1.14,.44-2.09,0-1-.14-1.71-.41-2.12-.27-.41-.65-.62-1.14-.62-.61,0-1.14,.36-1.58,1.08v3.51c.17,.29,.38,.52,.64,.67,.25,.16,.53,.24,.83,.24,.52,0,.92-.22,1.21-.67Z"/>
    <path class="cls-4" d="M145.92,49.27h-4.98c.06,.77,.26,1.32,.6,1.65s.79,.5,1.35,.5c.35,0,.68-.06,.99-.17,.31-.12,.64-.29,.99-.53l.79,1.1c-.88,.71-1.86,1.06-2.94,1.06-1.21,0-2.14-.37-2.8-1.11-.66-.74-.98-1.75-.98-3.03,0-.81,.14-1.54,.42-2.18,.28-.65,.68-1.15,1.21-1.51,.53-.37,1.16-.55,1.89-.55,1.11,0,1.97,.35,2.58,1.06,.61,.71,.92,1.69,.92,2.95,0,.1-.01,.36-.04,.78Zm-1.46-8.62l.74,.84-2.08,1.88h-1.2l-2.08-1.88,.73-.84,1.95,1.32,1.95-1.32Zm-.41,7.29c0-1.39-.51-2.08-1.54-2.08-.47,0-.84,.17-1.1,.52-.26,.34-.42,.9-.47,1.66h3.12v-.09Z"/>
    <path class="cls-4" d="M153.58,45.13c.4,.43,.6,1.02,.6,1.77v5.75h-1.92v-5.44c0-.47-.08-.8-.25-.99s-.41-.29-.73-.29-.62,.1-.88,.31c-.27,.21-.53,.5-.78,.88v5.54h-1.92v-11.1l1.92-.19v4.3c.64-.78,1.41-1.17,2.31-1.17,.7,0,1.25,.22,1.65,.65Z"/>
    <path class="cls-4" d="M162.88,49.27h-4.98c.06,.77,.26,1.32,.6,1.65s.79,.5,1.35,.5c.35,0,.68-.06,.99-.17,.31-.12,.64-.29,.99-.53l.79,1.1c-.88,.71-1.86,1.06-2.94,1.06-1.21,0-2.14-.37-2.8-1.11-.66-.74-.98-1.75-.98-3.03,0-.81,.14-1.54,.42-2.18,.28-.65,.68-1.15,1.21-1.51,.53-.37,1.16-.55,1.89-.55,1.11,0,1.97,.35,2.58,1.06,.61,.71,.92,1.69,.92,2.95,0,.1-.01,.36-.04,.78Zm-1.86-1.33c0-1.39-.51-2.08-1.54-2.08-.47,0-.84,.17-1.1,.52-.26,.34-.42,.9-.47,1.66h3.12v-.09Z"/>
    <path class="cls-4" d="M174.59,45.14c.38,.44,.57,1.02,.57,1.76v5.75h-1.92v-5.44c0-.85-.29-1.28-.87-1.28-.31,0-.58,.1-.8,.29-.22,.2-.46,.5-.7,.91v5.52h-1.92v-5.44c0-.85-.29-1.28-.87-1.28-.32,0-.59,.1-.82,.29-.22,.2-.46,.5-.7,.91v5.52h-1.92v-7.94h1.67l.15,1.04c.6-.84,1.37-1.26,2.29-1.26,.46,0,.86,.12,1.19,.35,.33,.24,.58,.56,.73,.98,.32-.43,.67-.76,1.06-.99s.83-.35,1.33-.35c.64,0,1.15,.22,1.53,.65Z"/>
    <path class="cls-4" d="M186.3,44.71v1.38l-3.84,5.06h3.92l-.19,1.5h-5.93v-1.38l3.86-5.06h-3.53v-1.5h5.72Zm-.98-4.06l.74,.84-2.08,1.88h-1.2l-2.08-1.88,.74-.84,1.95,1.32,1.95-1.32Z"/>
    <path class="cls-4" d="M189.7,41.03c.22,.23,.34,.5,.34,.83s-.11,.61-.34,.83c-.22,.22-.52,.33-.88,.33s-.64-.11-.86-.33c-.22-.22-.34-.5-.34-.83s.11-.61,.34-.83c.23-.22,.51-.34,.86-.34s.65,.11,.88,.34Zm.1,3.68v7.94h-1.92v-7.94h1.92Z"/>
    <path class="cls-4" d="M198.48,44.71l-2.58,7.94h-2.29l-2.62-7.94h2.08l1.69,6.39,1.74-6.39h1.98Z"/>
    <path class="cls-4" d="M205.56,45.6c.65,.75,.98,1.77,.98,3.07,0,.83-.15,1.56-.45,2.2-.3,.63-.73,1.13-1.29,1.48-.56,.35-1.22,.52-2,.52-1.17,0-2.08-.37-2.75-1.12-.66-.74-.99-1.77-.99-3.08,0-.83,.15-1.56,.45-2.19s.73-1.12,1.3-1.47c.56-.35,1.23-.53,2-.53,1.17,0,2.08,.37,2.74,1.12Zm-4.46,3.07c0,.94,.14,1.63,.43,2.08s.71,.67,1.28,.67,1-.23,1.28-.67c.29-.45,.43-1.14,.43-2.07s-.14-1.62-.43-2.06c-.28-.44-.71-.67-1.27-.67-1.15,0-1.72,.91-1.72,2.73Z"/>
    <path class="cls-4" d="M212.88,52.27c-.28,.2-.59,.35-.94,.45-.34,.1-.7,.15-1.06,.15-.78-.01-1.37-.23-1.78-.67-.41-.44-.61-1.08-.61-1.93v-4.19h-1.25v-1.38h1.25v-1.75l1.92-.23v1.98h1.84l-.2,1.38h-1.65v4.14c0,.39,.07,.67,.2,.84,.13,.17,.35,.26,.64,.26s.6-.1,.95-.29l.67,1.23Z"/>
    <path class="cls-4" d="M219.82,51.23c.1,.15,.25,.26,.46,.34l-.41,1.27c-.45-.04-.82-.15-1.1-.33-.29-.18-.5-.46-.65-.83-.27,.4-.61,.7-1.01,.89-.4,.19-.86,.29-1.36,.29-.79,0-1.42-.23-1.88-.68-.46-.45-.69-1.04-.69-1.77,0-.86,.31-1.52,.94-1.97,.62-.46,1.52-.68,2.68-.68h.99v-.45c0-.51-.12-.87-.35-1.07s-.61-.31-1.13-.31c-.58,0-1.28,.14-2.1,.42l-.45-1.3c.99-.38,1.95-.57,2.88-.57,2.03,0,3.04,.91,3.04,2.73v3.33c0,.31,.05,.54,.14,.68Zm-2.03-.73v-1.6h-.79c-1.24,0-1.86,.46-1.86,1.38,0,.38,.1,.68,.29,.89,.19,.21,.47,.31,.84,.31,.65,0,1.16-.32,1.53-.98Z"/>
    <path d="M248.4,51.79c.11,.18,.27,.31,.5,.4l-.2,.62c-.36-.07-.64-.21-.83-.41-.2-.2-.32-.5-.38-.91-.54,.88-1.36,1.32-2.45,1.32-.75,0-1.34-.21-1.78-.64-.43-.42-.65-.99-.65-1.7,0-.81,.29-1.44,.86-1.88s1.37-.66,2.39-.66h1.5v-.77c0-.63-.14-1.09-.42-1.37-.28-.28-.75-.43-1.39-.43-.6,0-1.31,.15-2.13,.45l-.23-.66c.88-.35,1.71-.52,2.48-.52,1.71,0,2.56,.83,2.56,2.49v3.78c0,.41,.05,.71,.16,.89Zm-1.03-1.06v-2.16h-1.36c-.8,0-1.41,.16-1.83,.46-.42,.31-.63,.78-.63,1.4,0,.54,.15,.96,.44,1.25s.7,.44,1.21,.44c.94,0,1.67-.46,2.17-1.38Z"/>
    <path class="cls-1" d="M261.53,49.07v1.09h-1.31v2.48h-1.33v-2.48h-4.29v-.99l3.02-6.72,1.15,.48-2.71,6.14h2.85l.12-2.7h1.2v2.7h1.31Z"/>
    <path class="cls-1" d="M268.13,43.69h-3.92v2.96c.51-.26,1.04-.39,1.61-.39,.86,0,1.55,.28,2.07,.85,.52,.56,.78,1.34,.78,2.33,0,.66-.14,1.25-.43,1.76s-.7,.91-1.22,1.2c-.53,.29-1.13,.43-1.82,.43-.61,0-1.16-.11-1.64-.32-.48-.21-.92-.53-1.33-.95l.81-.79c.32,.32,.65,.56,.99,.71,.34,.16,.72,.23,1.15,.23,.64,0,1.14-.2,1.51-.6s.55-.96,.55-1.7-.17-1.26-.5-1.59-.78-.5-1.33-.5c-.26,0-.5,.03-.72,.08-.22,.06-.46,.14-.71,.26h-1.08v-5.06h5.43l-.2,1.08Z"/>
    <path class="cls-1" d="M280.26,45.71c.58,.71,.88,1.71,.88,2.99s-.3,2.27-.89,3.01c-.6,.73-1.41,1.1-2.44,1.1s-1.85-.36-2.44-1.09-.88-1.72-.88-2.99c0-.83,.13-1.55,.41-2.17,.27-.62,.65-1.1,1.15-1.43s1.09-.49,1.77-.49c1.04,0,1.85,.36,2.44,1.07Zm-4.21,.52c-.42,.57-.63,1.4-.63,2.5s.21,1.92,.62,2.49c.42,.57,1,.85,1.76,.85s1.35-.29,1.78-.85c.42-.57,.64-1.41,.64-2.52s-.21-1.92-.62-2.48c-.42-.56-1.01-.85-1.78-.85s-1.35,.28-1.77,.85Z"/>
    <path class="cls-1" d="M286.94,44.85c.4,.15,.79,.36,1.17,.65l-.4,.57c-.36-.25-.7-.43-1.02-.55-.32-.11-.67-.17-1.05-.17-.52,0-.94,.12-1.26,.36-.32,.24-.48,.56-.48,.96s.14,.68,.41,.89c.27,.21,.77,.41,1.49,.6,.89,.23,1.53,.52,1.93,.87,.39,.35,.59,.85,.59,1.5,0,.7-.27,1.26-.81,1.67-.54,.41-1.21,.62-2.03,.62-.6,0-1.12-.09-1.57-.26-.45-.17-.86-.42-1.23-.74l.48-.56c.35,.28,.71,.49,1.07,.62,.36,.13,.78,.2,1.24,.2,.58,0,1.05-.13,1.4-.4,.36-.27,.53-.63,.53-1.1,0-.32-.06-.58-.18-.78-.12-.2-.33-.37-.62-.52-.29-.14-.71-.29-1.27-.44-.83-.22-1.43-.5-1.79-.82-.37-.33-.55-.77-.55-1.32,0-.39,.11-.74,.34-1.06,.23-.31,.54-.56,.94-.73,.39-.17,.84-.26,1.33-.26s.94,.07,1.33,.22Z"/>
    <path class="cls-1" d="M295.78,45.71c.58,.71,.88,1.71,.88,2.99s-.3,2.27-.89,3.01c-.6,.73-1.41,1.1-2.44,1.1s-1.85-.36-2.44-1.09-.88-1.72-.88-2.99c0-.83,.13-1.55,.41-2.17,.27-.62,.65-1.1,1.15-1.43s1.09-.49,1.77-.49c1.04,0,1.85,.36,2.44,1.07Zm-4.21,.52c-.42,.57-.63,1.4-.63,2.5s.21,1.92,.62,2.49c.42,.57,1,.85,1.76,.85s1.35-.29,1.78-.85c.42-.57,.64-1.41,.64-2.52s-.21-1.92-.62-2.48c-.42-.56-1.01-.85-1.78-.85s-1.35,.28-1.77,.85Z"/>
    <path class="cls-1" d="M304.55,45.68c.5,.7,.75,1.7,.75,3s-.26,2.27-.79,3.02c-.53,.74-1.26,1.11-2.2,1.11-.47,0-.9-.1-1.28-.31s-.71-.49-.97-.84l-.09,.99h-.77v-11.04l.87-.1v4.4c.62-.84,1.41-1.26,2.36-1.26s1.61,.35,2.11,1.05Zm-.76,5.54c.38-.57,.58-1.42,.58-2.54,0-2.22-.71-3.33-2.12-3.33-.47,0-.88,.12-1.21,.35s-.66,.57-.96,1v4.12c.25,.39,.55,.7,.9,.92,.35,.23,.74,.34,1.17,.34,.71,0,1.26-.29,1.64-.86Z"/>
    <path class="cls-1" d="M312.8,51.79c.11,.18,.27,.31,.5,.4l-.2,.62c-.36-.07-.64-.21-.83-.41-.2-.2-.32-.5-.38-.91-.54,.88-1.36,1.32-2.45,1.32-.75,0-1.34-.21-1.78-.64-.43-.42-.65-.99-.65-1.7,0-.81,.29-1.44,.86-1.88s1.37-.66,2.39-.66h1.5v-.77c0-.63-.14-1.09-.42-1.37-.28-.28-.75-.43-1.39-.43-.6,0-1.31,.15-2.13,.45l-.23-.66c.88-.35,1.71-.52,2.48-.52,1.71,0,2.56,.83,2.56,2.49v3.78c0,.41,.05,.71,.16,.89Zm-1.03-1.06v-2.16h-1.36c-.8,0-1.41,.16-1.83,.46-.42,.31-.63,.78-.63,1.4,0,.54,.15,.96,.44,1.25s.7,.44,1.21,.44c.94,0,1.67-.46,2.17-1.38Zm-.6-9.81l.39,.78-2.92,1.28-.29-.51,2.82-1.54Z"/>
    <path class="cls-1" d="M324.96,45.28c.37,.43,.55,1.02,.55,1.76v5.61h-.87v-5.49c0-.62-.12-1.08-.35-1.37-.24-.29-.56-.44-.98-.44-.44,0-.83,.14-1.19,.42-.35,.28-.69,.68-1.02,1.2v5.69h-.87v-5.49c0-.62-.12-1.08-.35-1.37s-.56-.44-.98-.44c-.45,0-.85,.14-1.2,.42-.35,.28-.68,.68-1,1.2v5.69h-.87v-7.85h.75l.08,1.34c.3-.47,.66-.84,1.07-1.1,.41-.27,.86-.4,1.35-.4s.92,.14,1.26,.41c.34,.28,.57,.66,.69,1.15,.31-.49,.67-.87,1.09-1.15,.42-.27,.87-.41,1.37-.41,.63,0,1.13,.21,1.49,.64Z"/>
    <path class="cls-1" d="M334.18,41.03c.22,.23,.34,.5,.34,.83s-.11,.61-.34,.83c-.22,.22-.52,.33-.88,.33s-.64-.11-.86-.33c-.22-.22-.34-.5-.34-.83s.11-.61,.34-.83c.23-.22,.51-.34,.86-.34s.65,.11,.88,.34Zm.1,3.68v7.94h-1.92v-7.94h1.92Z"/>
    <path class="cls-1" d="M342.48,45.12c.39,.43,.59,1.02,.59,1.78v5.75h-1.92v-5.44c0-.47-.08-.8-.25-.99s-.41-.29-.73-.29-.63,.1-.89,.31c-.27,.21-.52,.5-.77,.89v5.52h-1.92v-7.94h1.67l.15,1.04c.65-.84,1.46-1.26,2.42-1.26,.71,0,1.26,.21,1.66,.64Z"/>
    <path class="cls-1" d="M359,45.14c.38,.44,.57,1.02,.57,1.76v5.75h-1.92v-5.44c0-.85-.29-1.28-.87-1.28-.31,0-.58,.1-.8,.29-.22,.2-.46,.5-.7,.91v5.52h-1.92v-5.44c0-.85-.29-1.28-.87-1.28-.32,0-.59,.1-.82,.29-.22,.2-.46,.5-.7,.91v5.52h-1.92v-7.94h1.67l.15,1.04c.6-.84,1.37-1.26,2.29-1.26,.46,0,.86,.12,1.19,.35,.33,.24,.58,.56,.73,.98,.32-.43,.67-.76,1.06-.99s.83-.35,1.33-.35c.64,0,1.15,.22,1.53,.65Z"/>
    <path class="cls-1" d="M368.27,49.27h-4.98c.06,.77,.26,1.32,.6,1.65s.79,.5,1.35,.5c.35,0,.68-.06,.99-.17,.31-.12,.64-.29,.99-.53l.79,1.1c-.88,.71-1.86,1.06-2.94,1.06-1.21,0-2.14-.37-2.8-1.11-.66-.74-.98-1.75-.98-3.03,0-.81,.14-1.54,.42-2.18,.28-.65,.68-1.15,1.21-1.51,.53-.37,1.16-.55,1.89-.55,1.11,0,1.97,.35,2.58,1.06,.61,.71,.92,1.69,.92,2.95,0,.1-.01,.36-.04,.78Zm-1.86-1.33c0-1.39-.51-2.08-1.54-2.08-.47,0-.84,.17-1.1,.52-.26,.34-.42,.9-.47,1.66h3.12v-.09Z"/>
    <path class="cls-1" d="M379.98,45.14c.38,.44,.57,1.02,.57,1.76v5.75h-1.92v-5.44c0-.85-.29-1.28-.87-1.28-.31,0-.58,.1-.8,.29-.22,.2-.46,.5-.7,.91v5.52h-1.92v-5.44c0-.85-.29-1.28-.87-1.28-.32,0-.59,.1-.82,.29-.22,.2-.46,.5-.7,.91v5.52h-1.92v-7.94h1.67l.15,1.04c.6-.84,1.37-1.26,2.29-1.26,.46,0,.86,.12,1.19,.35,.33,.24,.58,.56,.73,.98,.32-.43,.67-.76,1.06-.99s.83-.35,1.33-.35c.64,0,1.15,.22,1.53,.65Z"/>
    <path class="cls-1" d="M388.76,45.6c.65,.75,.98,1.77,.98,3.07,0,.83-.15,1.56-.45,2.2-.3,.63-.73,1.13-1.29,1.48-.56,.35-1.22,.52-2,.52-1.17,0-2.08-.37-2.75-1.12-.66-.74-.99-1.77-.99-3.08,0-.83,.15-1.56,.45-2.19s.73-1.12,1.3-1.47c.56-.35,1.23-.53,2-.53,1.17,0,2.08,.37,2.74,1.12Zm-4.46,3.07c0,.94,.14,1.63,.43,2.08s.71,.67,1.28,.67,1-.23,1.28-.67c.29-.45,.43-1.14,.43-2.07s-.14-1.62-.43-2.06c-.28-.44-.71-.67-1.27-.67-1.15,0-1.72,.91-1.72,2.73Z"/>
    <path class="cls-1" d="M396.26,44.6l-.33,1.86c-.24-.06-.48-.09-.71-.09-.47,0-.84,.17-1.11,.5-.27,.34-.49,.85-.64,1.54v4.23h-1.92v-7.94h1.67l.18,1.56c.19-.57,.46-1.01,.83-1.31,.36-.3,.77-.46,1.25-.46,.29,0,.55,.04,.79,.1Z"/>
    <path class="cls-1" d="M399.28,41.03c.22,.23,.34,.5,.34,.83s-.11,.61-.34,.83c-.22,.22-.52,.33-.88,.33s-.64-.11-.86-.33c-.22-.22-.34-.5-.34-.83s.11-.61,.34-.83c.23-.22,.51-.34,.86-.34s.65,.11,.88,.34Zm.1,3.68v7.94h-1.92v-7.94h1.92Z"/>
    <path class="cls-1" d="M407.69,51.23c.1,.15,.25,.26,.46,.34l-.41,1.27c-.45-.04-.82-.15-1.1-.33-.29-.18-.5-.46-.65-.83-.27,.4-.61,.7-1.01,.89-.4,.19-.86,.29-1.36,.29-.79,0-1.42-.23-1.88-.68-.46-.45-.69-1.04-.69-1.77,0-.86,.31-1.52,.94-1.97,.62-.46,1.52-.68,2.68-.68h.99v-.45c0-.51-.12-.87-.35-1.07s-.61-.31-1.13-.31c-.58,0-1.28,.14-2.1,.42l-.45-1.3c.99-.38,1.95-.57,2.88-.57,2.03,0,3.04,.91,3.04,2.73v3.33c0,.31,.05,.54,.14,.68Zm-2.03-.73v-1.6h-.79c-1.24,0-1.86,.46-1.86,1.38,0,.38,.1,.68,.29,.89,.19,.21,.47,.31,.84,.31,.65,0,1.16-.32,1.53-.98Z"/>
    <path class="cls-1" d="M419.82,45.14c.38,.44,.57,1.02,.57,1.76v5.75h-1.92v-5.44c0-.85-.29-1.28-.87-1.28-.31,0-.58,.1-.8,.29-.22,.2-.46,.5-.7,.91v5.52h-1.92v-5.44c0-.85-.29-1.28-.87-1.28-.32,0-.59,.1-.82,.29-.22,.2-.46,.5-.7,.91v5.52h-1.92v-7.94h1.67l.15,1.04c.6-.84,1.37-1.26,2.29-1.26,.46,0,.86,.12,1.19,.35,.33,.24,.58,.56,.73,.98,.32-.43,.67-.76,1.06-.99s.83-.35,1.33-.35c.64,0,1.15,.22,1.53,.65Z"/>
  </g>
  <circle class="cls-2" cx="431.07" cy="48.31" r="5.55"/>
  <circle class="cls-4" cx="229.62" cy="48.31" r="5.55"/>
  <g>
    <path class="cls-3" d="M32.42,265.35h1.22l5.77,3.83v-3.86l1.3,.17v5.54h-1.21l-5.82-3.9v3.5h-1.26v-5.28Z"/>
    <path class="cls-3" d="M38.01,259.05v3.98c.62-.05,1.06-.21,1.32-.48,.26-.27,.4-.63,.4-1.08,0-.28-.05-.54-.14-.79-.09-.25-.23-.51-.43-.79l.88-.64c.57,.7,.85,1.49,.85,2.35,0,.97-.3,1.71-.89,2.24-.59,.52-1.4,.79-2.42,.79-.65,0-1.23-.11-1.75-.34-.52-.22-.92-.55-1.21-.97-.29-.42-.44-.93-.44-1.51,0-.89,.28-1.58,.85-2.06,.56-.49,1.35-.73,2.36-.73,.08,0,.29,.01,.62,.04Zm-1.07,1.49c-1.11,0-1.67,.41-1.67,1.24,0,.38,.14,.67,.41,.88,.28,.21,.72,.34,1.33,.38v-2.5h-.07Z"/>
    <path class="cls-3" d="M34.7,249.68c.35-.3,.82-.46,1.41-.46h4.6v1.54h-4.36c-.68,0-1.02,.23-1.02,.7,0,.25,.08,.46,.23,.64s.4,.37,.73,.56h4.42v1.54h-4.36c-.68,0-1.02,.23-1.02,.7,0,.26,.08,.47,.23,.65,.16,.18,.4,.37,.73,.56h4.42v1.54h-6.35v-1.33l.83-.12c-.67-.48-1.01-1.09-1.01-1.84,0-.37,.09-.69,.28-.95,.19-.27,.45-.46,.79-.58-.34-.26-.61-.54-.79-.85-.18-.31-.28-.66-.28-1.06,0-.51,.17-.92,.52-1.22Z"/>
    <path class="cls-3" d="M39.58,242.63c.12-.08,.21-.2,.27-.37l1.02,.32c-.03,.36-.12,.65-.26,.88-.14,.23-.36,.4-.66,.52,.32,.22,.56,.49,.71,.81,.16,.32,.23,.69,.23,1.09,0,.63-.18,1.13-.54,1.5-.36,.37-.83,.55-1.42,.55-.69,0-1.21-.25-1.58-.75s-.55-1.21-.55-2.14v-.79h-.36c-.41,0-.69,.09-.86,.28-.16,.19-.25,.49-.25,.91,0,.46,.11,1.02,.34,1.68l-1.04,.36c-.3-.79-.46-1.56-.46-2.3,0-1.62,.73-2.44,2.18-2.44h2.66c.25,0,.43-.04,.55-.11Zm-.58,1.63h-1.28v.64c0,.99,.37,1.49,1.1,1.49,.3,0,.54-.08,.71-.23s.25-.38,.25-.67c0-.52-.26-.93-.78-1.22Z"/>
    <path class="cls-3" d="M34.69,236.17c.34-.32,.81-.47,1.42-.47h4.6v1.54h-4.36c-.38,0-.64,.07-.79,.2-.15,.13-.23,.33-.23,.58s.08,.5,.25,.71,.4,.42,.71,.62h4.42v1.54h-6.35v-1.33l.83-.12c-.67-.52-1.01-1.16-1.01-1.93,0-.57,.17-1.01,.51-1.33Z"/>
    <path class="cls-3" d="M32.84,227.85c.18-.36,.43-.63,.74-.82,.31-.19,.65-.28,1.02-.28,.49,0,.89,.14,1.21,.43,.32,.28,.53,.66,.64,1.13,.05-.54,.24-.97,.58-1.31s.79-.5,1.37-.5c.46,0,.88,.11,1.26,.34,.38,.22,.67,.54,.88,.96s.32,.9,.32,1.44c0,.49-.09,.94-.27,1.34-.18,.41-.45,.76-.81,1.07l-.61-.66c.27-.26,.47-.53,.6-.81,.13-.28,.19-.58,.19-.91,0-.5-.14-.9-.43-1.19s-.67-.43-1.15-.43c-.53,0-.9,.14-1.12,.41-.22,.27-.32,.67-.32,1.19v.6l-.85-.13v-.41c0-.42-.12-.76-.37-1.04-.25-.28-.6-.41-1.04-.41-.38,0-.67,.12-.89,.36-.22,.24-.33,.56-.33,.97,0,.31,.06,.6,.17,.86,.11,.26,.3,.53,.55,.8l-.66,.58c-.63-.68-.95-1.44-.95-2.29,0-.5,.09-.92,.28-1.28Z"/>
    <path class="cls-3" d="M35.72,221.03c.19-.34,.48-.6,.86-.8,.38-.2,.85-.3,1.4-.3s1.07,.11,1.51,.34c.44,.23,.77,.54,1.01,.92,.24,.39,.35,.82,.35,1.29,0,.94-.35,1.62-1.04,2.05-.69,.43-1.65,.65-2.87,.65-.87,0-1.64-.12-2.3-.37-.66-.24-1.17-.59-1.54-1.05s-.55-1-.55-1.62,.16-1.16,.49-1.66l.73,.43c-.23,.38-.35,.79-.35,1.24,0,.58,.28,1.03,.83,1.37,.55,.34,1.29,.52,2.22,.55-.7-.5-1.06-1.14-1.06-1.93,0-.41,.1-.78,.29-1.12Zm3.73,.38c-.35-.25-.83-.37-1.43-.37-1.14,0-1.72,.43-1.72,1.3,0,.35,.1,.68,.29,.97,.2,.3,.47,.55,.81,.76,.88-.02,1.53-.16,1.94-.41s.62-.64,.62-1.17c0-.46-.18-.82-.53-1.07Z"/>
    <path class="cls-3" d="M34.88,214.62l.68-.67,1.44,1.44,1.49-1.44,.67,.67-1.49,1.44,1.49,1.49-.67,.67-1.44-1.44-1.49,1.44-.68-.67,1.5-1.44-1.5-1.49Z"/>
  </g>
  <polyline class="cls-5" points="54.01 213.06 46.01 213.06 46.01 271.91 54.01 271.91"/>
  <g>
    <path class="cls-3" d="M32.42,195.91l3.76,2.87,4.54-3.1v1.88l-4.43,2.93-3.86-2.87v-1.72Zm0,4.66h8.29v1.58h-8.29v-1.58Z"/>
    <path class="cls-3" d="M40.46,194.49c-.28,.28-.69,.41-1.21,.41h-7.44l-.17-1.54h7.56c.3,0,.44-.12,.44-.36,0-.12-.02-.24-.06-.36l1.08-.32c.14,.32,.22,.66,.22,1.02,0,.49-.14,.87-.43,1.15Z"/>
    <path class="cls-3" d="M39.58,186.55c.12-.08,.21-.2,.27-.37l1.02,.32c-.03,.36-.12,.65-.26,.88-.14,.23-.36,.4-.66,.52,.32,.22,.56,.49,.71,.81,.16,.32,.23,.69,.23,1.09,0,.63-.18,1.13-.54,1.5-.36,.37-.83,.55-1.42,.55-.69,0-1.21-.25-1.58-.75s-.55-1.21-.55-2.14v-.79h-.36c-.41,0-.69,.09-.86,.28-.16,.19-.25,.49-.25,.91,0,.46,.11,1.02,.34,1.68l-1.04,.36c-.3-.79-.46-1.56-.46-2.3,0-1.62,.73-2.44,2.18-2.44h2.66c.25,0,.43-.04,.55-.11Zm-.58,1.63h-1.28v.64c0,.99,.37,1.49,1.1,1.49,.3,0,.54-.08,.71-.23s.25-.38,.25-.67c0-.52-.26-.93-.78-1.22Z"/>
    <path class="cls-3" d="M40.71,179.73v1.33l-.89,.08c.36,.23,.63,.51,.8,.82,.18,.32,.26,.69,.26,1.12,0,.57-.17,1.01-.52,1.31-.35,.31-.83,.46-1.45,.46h-4.56v-1.54h4.37c.36,0,.62-.06,.77-.19,.15-.12,.23-.32,.23-.59,0-.49-.3-.92-.9-1.28h-4.46v-1.54h6.35Z"/>
    <path class="cls-3" d="M34.94,173.63l.9,.6c-.34,.54-.52,1.08-.52,1.6,0,.3,.06,.54,.17,.71s.27,.25,.46,.25c.14,0,.26-.04,.36-.11,.1-.07,.19-.2,.27-.39,.08-.19,.18-.47,.28-.83,.18-.69,.43-1.2,.73-1.53,.3-.33,.73-.5,1.27-.5,.63,0,1.13,.26,1.48,.77,.36,.51,.53,1.15,.53,1.91,0,.52-.08,.99-.24,1.42s-.38,.8-.66,1.11l-.86-.77c.42-.55,.62-1.13,.62-1.73,0-.34-.07-.62-.2-.82-.14-.2-.32-.31-.56-.31-.18,0-.33,.04-.44,.11-.11,.08-.2,.21-.29,.41-.08,.2-.19,.5-.31,.92-.18,.65-.42,1.12-.74,1.43-.32,.3-.71,.46-1.18,.46-.35,0-.67-.1-.95-.31-.28-.2-.5-.49-.66-.86-.16-.37-.24-.8-.24-1.28,0-.86,.25-1.61,.76-2.26Z"/>
    <path class="cls-3" d="M32.85,166.09c.19-.36,.45-.65,.79-.85,.33-.2,.71-.3,1.12-.3,.49,0,.96,.11,1.4,.33,.45,.22,.93,.56,1.45,1.01,.52,.46,1.24,1.15,2.17,2.08v-3.61l.92,.13v4.74h-.88c-1.11-1.07-1.93-1.83-2.44-2.28-.52-.45-.97-.77-1.35-.96s-.8-.29-1.24-.29c-.42,0-.74,.12-.98,.36-.24,.24-.35,.56-.35,.96,0,.33,.07,.62,.2,.86,.14,.25,.36,.51,.67,.79l-.58,.72c-.41-.33-.71-.69-.91-1.09-.2-.4-.3-.85-.3-1.34s.1-.9,.29-1.27Z"/>
    <path class="cls-3" d="M38.56,158.08c.44,0,.83,.12,1.18,.35,.35,.24,.62,.57,.82,.99,.2,.42,.29,.9,.29,1.44s-.1,1.02-.29,1.44c-.19,.42-.46,.74-.8,.97-.34,.23-.74,.34-1.18,.34-.5,0-.91-.13-1.25-.4-.34-.27-.62-.66-.84-1.18-.22,.42-.48,.74-.79,.94-.31,.2-.67,.31-1.09,.31s-.8-.11-1.12-.34c-.31-.23-.55-.53-.71-.9-.16-.37-.24-.77-.24-1.19s.08-.81,.23-1.18c.15-.37,.38-.67,.69-.91,.31-.23,.68-.35,1.11-.35,.4,0,.74,.11,1.03,.34,.29,.22,.55,.57,.78,1.03,.46-1.13,1.18-1.69,2.16-1.69Zm-4.85,3.75c.22,.24,.52,.37,.92,.37s.68-.12,.88-.35c.2-.24,.38-.61,.55-1.13l.07-.2c-.21-.36-.43-.62-.66-.78-.23-.16-.52-.24-.85-.24-.38,0-.68,.12-.9,.35-.22,.24-.34,.57-.34,1s.11,.75,.32,.99Zm5.88-2.16c-.26-.29-.6-.44-1.02-.44-.29,0-.53,.06-.73,.17-.2,.11-.37,.29-.52,.54-.15,.25-.3,.6-.45,1.04l-.11,.3c.19,.4,.43,.7,.73,.89,.29,.19,.65,.29,1.09,.29s.78-.14,1.03-.43,.37-.68,.37-1.18-.13-.89-.38-1.18Z"/>
    <path class="cls-3" d="M34.88,152.72l.68-.67,1.44,1.44,1.49-1.44,.67,.67-1.49,1.44,1.49,1.49-.67,.67-1.44-1.44-1.49,1.44-.68-.67,1.5-1.44-1.5-1.49Z"/>
  </g>
  <polyline class="cls-5" points="54.01 160.17 46.01 160.17 46.01 193.98 54.01 193.98"/>
  <g>
    <path class="cls-3" d="M40.71,131.6h-3.71v2.95h3.71v1.58h-8.29v-1.58h3.32v-2.95h-3.32v-1.6h8.29v1.6Z"/>
    <path class="cls-3" d="M39.58,123.31c.12-.08,.21-.2,.27-.37l1.02,.32c-.03,.36-.12,.65-.26,.88-.14,.23-.36,.4-.66,.52,.32,.22,.56,.49,.71,.81,.16,.32,.23,.69,.23,1.09,0,.63-.18,1.13-.54,1.5-.36,.37-.83,.55-1.42,.55-.69,0-1.21-.25-1.58-.75s-.55-1.21-.55-2.14v-.79h-.36c-.41,0-.69,.09-.86,.28-.16,.19-.25,.49-.25,.91,0,.46,.11,1.02,.34,1.68l-1.04,.36c-.3-.79-.46-1.56-.46-2.3,0-1.62,.73-2.44,2.18-2.44h2.66c.25,0,.43-.04,.55-.11Zm-.58,1.63h-1.28v.64c0,.99,.37,1.49,1.1,1.49,.3,0,.54-.08,.71-.23s.25-.38,.25-.67c0-.52-.26-.93-.78-1.22Z"/>
    <path class="cls-3" d="M34.36,116.64l6.35,2.06v1.84l-6.35,2.1v-1.67l5.11-1.36-5.11-1.39v-1.58Z"/>
    <path class="cls-3" d="M38.01,110.6v3.98c.62-.05,1.06-.21,1.32-.48,.26-.27,.4-.63,.4-1.08,0-.28-.05-.54-.14-.79-.09-.25-.23-.51-.43-.79l.88-.64c.57,.7,.85,1.49,.85,2.35,0,.97-.3,1.71-.89,2.24-.59,.52-1.4,.79-2.42,.79-.65,0-1.23-.11-1.75-.34-.52-.22-.92-.55-1.21-.97-.29-.42-.44-.93-.44-1.51,0-.89,.28-1.58,.85-2.06,.56-.49,1.35-.73,2.36-.73,.08,0,.29,.01,.62,.04Zm-1.07,1.49c-1.11,0-1.67,.41-1.67,1.24,0,.38,.14,.67,.41,.88,.28,.21,.72,.34,1.33,.38v-2.5h-.07Z"/>
    <path class="cls-3" d="M40.46,108.83c-.28,.28-.69,.41-1.21,.41h-7.44l-.17-1.54h7.56c.3,0,.44-.12,.44-.36,0-.12-.02-.24-.06-.36l1.08-.32c.14,.32,.22,.66,.22,1.02,0,.49-.14,.87-.43,1.15Z"/>
    <path class="cls-3" d="M33.55,98.52v3.13h2.36c-.21-.41-.31-.84-.31-1.28,0-.69,.23-1.24,.68-1.66s1.07-.62,1.87-.62c.53,0,1,.12,1.41,.35,.41,.23,.73,.56,.96,.98,.23,.42,.34,.91,.34,1.46,0,.49-.09,.92-.26,1.31-.17,.38-.43,.74-.76,1.07l-.64-.65c.26-.26,.45-.52,.57-.79,.12-.27,.19-.58,.19-.92,0-.51-.16-.91-.48-1.21-.32-.29-.77-.44-1.36-.44s-1.01,.13-1.27,.4c-.26,.26-.4,.62-.4,1.07,0,.21,.02,.4,.07,.58,.04,.18,.11,.36,.21,.56v.86h-4.04v-4.34l.86,.16Z"/>
    <path class="cls-3" d="M35.72,92.74c.19-.34,.48-.6,.86-.8,.38-.2,.85-.3,1.4-.3s1.07,.11,1.51,.34c.44,.23,.77,.54,1.01,.92,.24,.39,.35,.82,.35,1.29,0,.94-.35,1.62-1.04,2.05-.69,.43-1.65,.65-2.87,.65-.87,0-1.64-.12-2.3-.37-.66-.24-1.17-.59-1.54-1.05s-.55-1-.55-1.62,.16-1.16,.49-1.66l.73,.43c-.23,.38-.35,.79-.35,1.24,0,.58,.28,1.03,.83,1.37,.55,.34,1.29,.52,2.22,.55-.7-.5-1.06-1.14-1.06-1.93,0-.41,.1-.78,.29-1.12Zm3.73,.38c-.35-.25-.83-.37-1.43-.37-1.14,0-1.72,.43-1.72,1.3,0,.35,.1,.68,.29,.97,.2,.3,.47,.55,.81,.76,.88-.02,1.53-.16,1.94-.41s.62-.64,.62-1.17c0-.46-.18-.82-.53-1.07Z"/>
    <path class="cls-3" d="M34.88,86.33l.68-.67,1.44,1.44,1.49-1.44,.67,.67-1.49,1.44,1.49,1.49-.67,.67-1.44-1.44-1.49,1.44-.68-.67,1.5-1.44-1.5-1.49Z"/>
  </g>
  <polyline class="cls-5" points="54.01 81.47 46.01 81.47 46.01 140.32 54.01 140.32"/>
  <g class="cls-6">
    <path class="cls-4" d="M106.62,243.94c.3,.16,.54,.38,.71,.65,.17,.28,.25,.59,.25,.94,0,.41-.09,.8-.28,1.17-.18,.37-.46,.78-.84,1.21-.38,.43-.96,1.04-1.73,1.81h3.01l-.11,.77h-3.95v-.73c.89-.93,1.53-1.6,1.9-2.04,.37-.43,.64-.8,.8-1.12,.16-.32,.24-.66,.24-1.03,0-.35-.1-.62-.3-.81s-.47-.29-.8-.29c-.27,0-.51,.06-.72,.17-.21,.11-.43,.3-.66,.56l-.6-.48c.27-.34,.58-.59,.91-.76s.71-.25,1.12-.25,.75,.08,1.05,.24Z"/>
    <path class="cls-4" d="M112.7,244.58c.38,.59,.57,1.44,.57,2.56s-.19,1.98-.57,2.57-.93,.89-1.67,.89-1.3-.3-1.67-.89c-.38-.59-.57-1.45-.57-2.57s.19-1.98,.57-2.56c.38-.59,.93-.89,1.67-.89s1.3,.29,1.67,.89Zm-2.64,.48c-.21,.43-.32,1.12-.32,2.08s.11,1.65,.32,2.08c.21,.43,.53,.65,.96,.65s.75-.22,.96-.65c.21-.43,.32-1.12,.32-2.08s-.11-1.65-.32-2.08c-.21-.43-.53-.65-.96-.65s-.75,.21-.96,.64Z"/>
    <path class="cls-4" d="M117.03,243.94c.3,.16,.54,.38,.71,.65,.17,.28,.25,.59,.25,.94,0,.41-.09,.8-.28,1.17-.18,.37-.46,.78-.84,1.21-.38,.43-.96,1.04-1.73,1.81h3.01l-.11,.77h-3.95v-.73c.89-.93,1.53-1.6,1.9-2.04,.37-.43,.64-.8,.8-1.12,.16-.32,.24-.66,.24-1.03,0-.35-.1-.62-.3-.81s-.47-.29-.8-.29c-.27,0-.51,.06-.72,.17-.21,.11-.43,.3-.66,.56l-.6-.48c.27-.34,.58-.59,.91-.76s.71-.25,1.12-.25,.75,.08,1.05,.24Z"/>
    <path class="cls-4" d="M121.62,243.8v6.69h-.92v-5.71l-1.56,.95-.4-.65,2.07-1.28h.81Z"/>
  </g>
  <g class="cls-6">
    <path class="cls-4" d="M65.79,243.94c.3,.16,.54,.38,.71,.65,.17,.28,.25,.59,.25,.94,0,.41-.09,.8-.28,1.17-.18,.37-.46,.78-.84,1.21-.38,.43-.96,1.04-1.73,1.81h3.01l-.11,.77h-3.95v-.73c.89-.93,1.53-1.6,1.9-2.04,.37-.43,.64-.8,.8-1.12,.16-.32,.24-.66,.24-1.03,0-.35-.1-.62-.3-.81s-.47-.29-.8-.29c-.27,0-.51,.06-.72,.17-.21,.11-.43,.3-.66,.56l-.6-.48c.27-.34,.58-.59,.91-.76s.71-.25,1.12-.25,.75,.08,1.05,.24Z"/>
    <path class="cls-4" d="M71.87,244.58c.38,.59,.57,1.44,.57,2.56s-.19,1.98-.57,2.57-.93,.89-1.67,.89-1.3-.3-1.67-.89c-.38-.59-.57-1.45-.57-2.57s.19-1.98,.57-2.56c.38-.59,.93-.89,1.67-.89s1.3,.29,1.67,.89Zm-2.64,.48c-.21,.43-.32,1.12-.32,2.08s.11,1.65,.32,2.08c.21,.43,.53,.65,.96,.65s.75-.22,.96-.65c.21-.43,.32-1.12,.32-2.08s-.11-1.65-.32-2.08c-.21-.43-.53-.65-.96-.65s-.75,.21-.96,.64Z"/>
    <path class="cls-4" d="M76.2,243.94c.3,.16,.54,.38,.71,.65,.17,.28,.25,.59,.25,.94,0,.41-.09,.8-.28,1.17-.18,.37-.46,.78-.84,1.21-.38,.43-.96,1.04-1.73,1.81h3.01l-.11,.77h-3.95v-.73c.89-.93,1.53-1.6,1.9-2.04,.37-.43,.64-.8,.8-1.12,.16-.32,.24-.66,.24-1.03,0-.35-.1-.62-.3-.81s-.47-.29-.8-.29c-.27,0-.51,.06-.72,.17-.21,.11-.43,.3-.66,.56l-.6-.48c.27-.34,.58-.59,.91-.76s.71-.25,1.12-.25,.75,.08,1.05,.24Z"/>
    <path class="cls-4" d="M82.28,244.58c.38,.59,.57,1.44,.57,2.56s-.19,1.98-.57,2.57-.93,.89-1.67,.89-1.3-.3-1.67-.89c-.38-.59-.57-1.45-.57-2.57s.19-1.98,.57-2.56c.38-.59,.93-.89,1.67-.89s1.3,.29,1.67,.89Zm-2.64,.48c-.21,.43-.32,1.12-.32,2.08s.11,1.65,.32,2.08c.21,.43,.53,.65,.96,.65s.75-.22,.96-.65c.21-.43,.32-1.12,.32-2.08s-.11-1.65-.32-2.08c-.21-.43-.53-.65-.96-.65s-.75,.21-.96,.64Z"/>
  </g>
  <g class="cls-6">
    <path class="cls-4" d="M445.13,216.94c.3,.16,.54,.38,.71,.65,.17,.28,.25,.59,.25,.94,0,.41-.09,.8-.28,1.17-.18,.37-.46,.78-.84,1.21-.38,.43-.96,1.04-1.73,1.81h3.01l-.11,.77h-3.95v-.73c.89-.93,1.53-1.6,1.9-2.04,.37-.43,.64-.8,.8-1.12,.16-.32,.24-.66,.24-1.03,0-.35-.1-.62-.3-.81s-.47-.29-.8-.29c-.27,0-.51,.06-.72,.17-.21,.11-.43,.3-.66,.56l-.6-.48c.27-.34,.58-.59,.91-.76s.71-.25,1.12-.25,.75,.08,1.05,.24Z"/>
    <path class="cls-4" d="M451.21,217.58c.38,.59,.57,1.44,.57,2.56s-.19,1.98-.57,2.57-.93,.89-1.67,.89-1.3-.3-1.67-.89c-.38-.59-.57-1.45-.57-2.57s.19-1.98,.57-2.56c.38-.59,.93-.89,1.67-.89s1.3,.29,1.67,.89Zm-2.64,.48c-.21,.43-.32,1.12-.32,2.08s.11,1.65,.32,2.08c.21,.43,.53,.65,.96,.65s.75-.22,.96-.65c.21-.43,.32-1.12,.32-2.08s-.11-1.65-.32-2.08c-.21-.43-.53-.65-.96-.65s-.75,.21-.96,.64Z"/>
    <path class="cls-4" d="M455.3,216.8v6.69h-.92v-5.71l-1.56,.95-.4-.65,2.07-1.28h.81Z"/>
    <path class="cls-4" d="M460.6,217.39c.37,.46,.55,1.1,.55,1.91,0,.91-.12,1.65-.37,2.21s-.62,1-1.13,1.33c-.51,.33-1.19,.62-2.06,.88l-.21-.69c.89-.25,1.58-.6,2.05-1.03,.48-.43,.73-1.01,.76-1.73-.15,.24-.36,.43-.62,.58-.26,.15-.55,.22-.88,.22-.35,0-.66-.09-.94-.26-.28-.18-.5-.43-.67-.75-.16-.32-.25-.7-.25-1.14s.1-.85,.29-1.18c.19-.33,.45-.59,.77-.77s.68-.27,1.08-.27c.71,0,1.24,.23,1.61,.69Zm-.38,2.12c.01-.74-.08-1.27-.28-1.6-.2-.32-.51-.48-.93-.48-.39,0-.7,.13-.91,.39-.21,.26-.32,.63-.32,1.11s.1,.82,.3,1.06c.2,.24,.47,.35,.81,.35,.53,0,.97-.28,1.33-.83Z"/>
  </g>
  <g class="cls-6">
    <path class="cls-4" d="M343.92,216.94c.3,.16,.54,.38,.71,.65,.17,.28,.25,.59,.25,.94,0,.41-.09,.8-.28,1.17-.18,.37-.46,.78-.84,1.21-.38,.43-.96,1.04-1.73,1.81h3.01l-.11,.77h-3.95v-.73c.89-.93,1.53-1.6,1.9-2.04,.37-.43,.64-.8,.8-1.12,.16-.32,.24-.66,.24-1.03,0-.35-.1-.62-.3-.81s-.47-.29-.8-.29c-.27,0-.51,.06-.72,.17-.21,.11-.43,.3-.66,.56l-.6-.48c.27-.34,.58-.59,.91-.76s.71-.25,1.12-.25,.75,.08,1.05,.24Z"/>
    <path class="cls-4" d="M350.01,217.58c.38,.59,.57,1.44,.57,2.56s-.19,1.98-.57,2.57-.93,.89-1.67,.89-1.3-.3-1.67-.89c-.38-.59-.57-1.45-.57-2.57s.19-1.98,.57-2.56c.38-.59,.93-.89,1.67-.89s1.3,.29,1.67,.89Zm-2.64,.48c-.21,.43-.32,1.12-.32,2.08s.11,1.65,.32,2.08c.21,.43,.53,.65,.96,.65s.75-.22,.96-.65c.21-.43,.32-1.12,.32-2.08s-.11-1.65-.32-2.08c-.21-.43-.53-.65-.96-.65s-.75,.21-.96,.64Z"/>
    <path class="cls-4" d="M354.1,216.8v6.69h-.92v-5.71l-1.56,.95-.4-.65,2.07-1.28h.81Z"/>
    <path class="cls-4" d="M360.26,221.7c0,.37-.1,.69-.29,.98-.2,.29-.47,.52-.82,.68-.35,.16-.75,.25-1.2,.25s-.85-.08-1.2-.24c-.35-.16-.62-.38-.8-.67-.19-.29-.29-.61-.29-.98,0-.41,.11-.76,.33-1.04,.22-.28,.55-.51,.98-.7-.35-.18-.61-.4-.78-.66-.17-.26-.25-.56-.25-.9s.09-.67,.28-.93c.19-.26,.44-.46,.75-.59,.31-.13,.64-.2,1-.2s.67,.06,.99,.19c.31,.13,.56,.32,.75,.58s.29,.56,.29,.92c0,.33-.09,.62-.28,.86-.19,.24-.47,.46-.86,.65,.94,.38,1.41,.98,1.41,1.8Zm-1.32,.86c.24-.21,.36-.5,.36-.85,0-.24-.05-.44-.14-.6-.09-.16-.24-.31-.45-.43-.21-.12-.5-.25-.87-.38l-.25-.09c-.33,.16-.58,.36-.74,.6-.16,.24-.24,.54-.24,.9s.12,.65,.36,.85c.24,.2,.57,.31,.98,.31s.74-.11,.99-.32Zm-1.8-4.9c-.2,.18-.3,.44-.3,.77s.1,.56,.29,.73c.2,.17,.51,.32,.95,.46l.17,.06c.3-.17,.52-.36,.65-.55,.13-.19,.2-.43,.2-.71,0-.31-.1-.56-.29-.75-.2-.19-.47-.28-.83-.28s-.62,.09-.83,.27Z"/>
  </g>
  <g class="cls-6">
    <path class="cls-4" d="M242.58,216.94c.3,.16,.54,.38,.71,.65,.17,.28,.25,.59,.25,.94,0,.41-.09,.8-.28,1.17-.18,.37-.46,.78-.84,1.21-.38,.43-.96,1.04-1.73,1.81h3.01l-.11,.77h-3.95v-.73c.89-.93,1.53-1.6,1.9-2.04,.37-.43,.64-.8,.8-1.12,.16-.32,.24-.66,.24-1.03,0-.35-.1-.62-.3-.81s-.47-.29-.8-.29c-.27,0-.51,.06-.72,.17-.21,.11-.43,.3-.66,.56l-.6-.48c.27-.34,.58-.59,.91-.76s.71-.25,1.12-.25,.75,.08,1.05,.24Z"/>
    <path class="cls-4" d="M248.66,217.58c.38,.59,.57,1.44,.57,2.56s-.19,1.98-.57,2.57-.93,.89-1.67,.89-1.3-.3-1.67-.89c-.38-.59-.57-1.45-.57-2.57s.19-1.98,.57-2.56c.38-.59,.93-.89,1.67-.89s1.3,.29,1.67,.89Zm-2.64,.48c-.21,.43-.32,1.12-.32,2.08s.11,1.65,.32,2.08c.21,.43,.53,.65,.96,.65s.75-.22,.96-.65c.21-.43,.32-1.12,.32-2.08s-.11-1.65-.32-2.08c-.21-.43-.53-.65-.96-.65s-.75,.21-.96,.64Z"/>
    <path class="cls-4" d="M252.75,216.8v6.69h-.92v-5.71l-1.56,.95-.4-.65,2.07-1.28h.81Z"/>
    <path class="cls-4" d="M257.99,216.8v.69l-2.5,6.1-.84-.28,2.41-5.76h-2.96v-.75h3.89Z"/>
  </g>
  <g class="cls-6">
    <path class="cls-4" d="M172.2,215.8c.3,.16,.54,.38,.71,.65,.17,.28,.25,.59,.25,.94,0,.41-.09,.8-.28,1.17-.18,.37-.46,.78-.84,1.21-.38,.43-.96,1.04-1.73,1.81h3.01l-.11,.77h-3.95v-.73c.89-.93,1.53-1.6,1.9-2.04,.37-.43,.64-.8,.8-1.12,.16-.32,.24-.66,.24-1.03,0-.35-.1-.62-.3-.81s-.47-.29-.8-.29c-.27,0-.51,.06-.72,.17-.21,.11-.43,.3-.66,.56l-.6-.48c.27-.34,.58-.59,.91-.76s.71-.25,1.12-.25,.75,.08,1.05,.24Z"/>
    <path class="cls-4" d="M178.28,216.45c.38,.59,.57,1.44,.57,2.56s-.19,1.98-.57,2.57-.93,.89-1.67,.89-1.3-.3-1.67-.89c-.38-.59-.57-1.45-.57-2.57s.19-1.98,.57-2.56c.38-.59,.93-.89,1.67-.89s1.3,.29,1.67,.89Zm-2.64,.48c-.21,.43-.32,1.12-.32,2.08s.11,1.65,.32,2.08c.21,.43,.53,.65,.96,.65s.75-.22,.96-.65c.21-.43,.32-1.12,.32-2.08s-.11-1.65-.32-2.08c-.21-.43-.53-.65-.96-.65s-.75,.21-.96,.64Z"/>
    <path class="cls-4" d="M182.38,215.66v6.69h-.92v-5.71l-1.56,.95-.4-.65,2.07-1.28h.81Z"/>
    <path class="cls-4" d="M187.49,218.19c.28,.16,.5,.4,.67,.72,.17,.32,.25,.71,.25,1.17s-.09,.89-.29,1.25c-.19,.36-.45,.64-.77,.84-.32,.2-.68,.29-1.08,.29-.78,0-1.35-.29-1.71-.87-.36-.58-.54-1.38-.54-2.4,0-.73,.1-1.36,.31-1.92,.2-.55,.49-.98,.88-1.28,.38-.3,.83-.46,1.35-.46s.97,.14,1.38,.41l-.36,.61c-.31-.19-.66-.29-1.03-.29-.48,0-.86,.23-1.14,.69-.28,.46-.43,1.08-.46,1.85,.41-.59,.95-.88,1.61-.88,.34,0,.65,.08,.93,.24Zm-.32,3.11c.21-.29,.31-.69,.31-1.19,0-.95-.36-1.43-1.08-1.43-.29,0-.56,.08-.81,.25-.25,.16-.46,.39-.63,.67,.02,.73,.13,1.27,.34,1.62s.54,.52,.97,.52c.39,0,.68-.15,.89-.44Z"/>
  </g>
  <g class="cls-6">
    <path class="cls-4" d="M146.73,215.8c.3,.16,.54,.38,.71,.65,.17,.28,.25,.59,.25,.94,0,.41-.09,.8-.28,1.17-.18,.37-.46,.78-.84,1.21-.38,.43-.96,1.04-1.73,1.81h3.01l-.11,.77h-3.95v-.73c.89-.93,1.53-1.6,1.9-2.04,.37-.43,.64-.8,.8-1.12,.16-.32,.24-.66,.24-1.03,0-.35-.1-.62-.3-.81s-.47-.29-.8-.29c-.27,0-.51,.06-.72,.17-.21,.11-.43,.3-.66,.56l-.6-.48c.27-.34,.58-.59,.91-.76s.71-.25,1.12-.25,.75,.08,1.05,.24Z"/>
    <path class="cls-4" d="M152.81,216.45c.38,.59,.57,1.44,.57,2.56s-.19,1.98-.57,2.57-.93,.89-1.67,.89-1.3-.3-1.67-.89c-.38-.59-.57-1.45-.57-2.57s.19-1.98,.57-2.56c.38-.59,.93-.89,1.67-.89s1.3,.29,1.67,.89Zm-2.64,.48c-.21,.43-.32,1.12-.32,2.08s.11,1.65,.32,2.08c.21,.43,.53,.65,.96,.65s.75-.22,.96-.65c.21-.43,.32-1.12,.32-2.08s-.11-1.65-.32-2.08c-.21-.43-.53-.65-.96-.65s-.75,.21-.96,.64Z"/>
    <path class="cls-4" d="M156.91,215.66v6.69h-.92v-5.71l-1.56,.95-.4-.65,2.07-1.28h.81Z"/>
    <path class="cls-4" d="M162.21,216.38h-2.61v1.97c.34-.17,.7-.26,1.07-.26,.57,0,1.03,.19,1.38,.56,.35,.38,.52,.9,.52,1.55,0,.44-.1,.83-.29,1.18s-.46,.61-.81,.8-.75,.29-1.21,.29c-.41,0-.77-.07-1.09-.22-.32-.14-.62-.35-.89-.63l.54-.53c.21,.21,.43,.37,.66,.47,.23,.1,.48,.16,.77,.16,.43,0,.76-.13,1-.4,.24-.27,.36-.64,.36-1.13s-.11-.84-.33-1.06c-.22-.22-.52-.33-.89-.33-.17,0-.33,.02-.48,.05-.15,.04-.3,.1-.47,.18h-.72v-3.37h3.62l-.13,.72Z"/>
  </g>
  <g class="cls-6">
    <path class="cls-4" d="M91.4,215.8c.3,.16,.54,.38,.71,.65,.17,.28,.25,.59,.25,.94,0,.41-.09,.8-.28,1.17-.18,.37-.46,.78-.84,1.21-.38,.43-.96,1.04-1.73,1.81h3.01l-.11,.77h-3.95v-.73c.89-.93,1.53-1.6,1.9-2.04,.37-.43,.64-.8,.8-1.12,.16-.32,.24-.66,.24-1.03,0-.35-.1-.62-.3-.81s-.47-.29-.8-.29c-.27,0-.51,.06-.72,.17-.21,.11-.43,.3-.66,.56l-.6-.48c.27-.34,.58-.59,.91-.76s.71-.25,1.12-.25,.75,.08,1.05,.24Z"/>
    <path class="cls-4" d="M97.48,216.45c.38,.59,.57,1.44,.57,2.56s-.19,1.98-.57,2.57-.93,.89-1.67,.89-1.3-.3-1.67-.89c-.38-.59-.57-1.45-.57-2.57s.19-1.98,.57-2.56c.38-.59,.93-.89,1.67-.89s1.3,.29,1.67,.89Zm-2.64,.48c-.21,.43-.32,1.12-.32,2.08s.11,1.65,.32,2.08c.21,.43,.53,.65,.96,.65s.75-.22,.96-.65c.21-.43,.32-1.12,.32-2.08s-.11-1.65-.32-2.08c-.21-.43-.53-.65-.96-.65s-.75,.21-.96,.64Z"/>
    <path class="cls-4" d="M101.58,215.66v6.69h-.92v-5.71l-1.56,.95-.4-.65,2.07-1.28h.81Z"/>
    <path class="cls-4" d="M107.7,219.97v.73h-.87v1.65h-.89v-1.65h-2.86v-.66l2.01-4.48,.77,.32-1.81,4.09h1.9l.08-1.8h.8v1.8h.87Z"/>
  </g>
  <g class="cls-6">
    <path class="cls-4" d="M66.2,215.8c.3,.16,.54,.38,.71,.65,.17,.28,.25,.59,.25,.94,0,.41-.09,.8-.28,1.17-.18,.37-.46,.78-.84,1.21-.38,.43-.96,1.04-1.73,1.81h3.01l-.11,.77h-3.95v-.73c.89-.93,1.53-1.6,1.9-2.04,.37-.43,.64-.8,.8-1.12,.16-.32,.24-.66,.24-1.03,0-.35-.1-.62-.3-.81s-.47-.29-.8-.29c-.27,0-.51,.06-.72,.17-.21,.11-.43,.3-.66,.56l-.6-.48c.27-.34,.58-.59,.91-.76s.71-.25,1.12-.25,.75,.08,1.05,.24Z"/>
    <path class="cls-4" d="M72.28,216.45c.38,.59,.57,1.44,.57,2.56s-.19,1.98-.57,2.57-.93,.89-1.67,.89-1.3-.3-1.67-.89c-.38-.59-.57-1.45-.57-2.57s.19-1.98,.57-2.56c.38-.59,.93-.89,1.67-.89s1.3,.29,1.67,.89Zm-2.64,.48c-.21,.43-.32,1.12-.32,2.08s.11,1.65,.32,2.08c.21,.43,.53,.65,.96,.65s.75-.22,.96-.65c.21-.43,.32-1.12,.32-2.08s-.11-1.65-.32-2.08c-.21-.43-.53-.65-.96-.65s-.75,.21-.96,.64Z"/>
    <path class="cls-4" d="M76.38,215.66v6.69h-.92v-5.71l-1.56,.95-.4-.65,2.07-1.28h.81Z"/>
    <path class="cls-4" d="M80.79,215.79c.3,.15,.52,.36,.68,.62,.16,.26,.24,.54,.24,.85,0,.41-.12,.74-.36,1s-.55,.44-.95,.54c.45,.04,.81,.2,1.09,.48,.28,.28,.42,.66,.42,1.14,0,.39-.09,.74-.28,1.05s-.45,.56-.8,.73-.75,.27-1.2,.27c-.41,0-.78-.08-1.12-.23s-.64-.38-.89-.67l.55-.51c.22,.23,.44,.39,.67,.5,.23,.11,.48,.16,.75,.16,.42,0,.75-.12,.99-.35s.36-.56,.36-.96c0-.44-.11-.75-.34-.93-.23-.18-.56-.27-.99-.27h-.5l.11-.71h.34c.35,0,.64-.1,.87-.31,.23-.21,.34-.5,.34-.87,0-.31-.1-.56-.3-.75-.2-.18-.47-.27-.81-.27-.26,0-.5,.05-.71,.14-.22,.09-.44,.25-.67,.46l-.48-.55c.57-.53,1.2-.79,1.91-.79,.41,0,.77,.08,1.07,.23Z"/>
  </g>
  <g class="cls-6">
    <path class="cls-4" d="M551.26,167.22c.3,.16,.54,.38,.71,.65,.17,.28,.25,.59,.25,.94,0,.41-.09,.8-.28,1.17-.18,.37-.46,.78-.84,1.21-.38,.43-.96,1.04-1.73,1.81h3.01l-.11,.77h-3.95v-.73c.89-.93,1.53-1.6,1.9-2.04,.37-.43,.64-.8,.8-1.12,.16-.32,.24-.66,.24-1.03,0-.35-.1-.62-.3-.81s-.47-.29-.8-.29c-.27,0-.51,.06-.72,.17-.21,.11-.43,.3-.66,.56l-.6-.48c.27-.34,.58-.59,.91-.76s.71-.25,1.12-.25,.75,.08,1.05,.24Z"/>
    <path class="cls-4" d="M557.34,167.86c.38,.59,.57,1.44,.57,2.56s-.19,1.98-.57,2.57-.93,.89-1.67,.89-1.3-.3-1.67-.89c-.38-.59-.57-1.45-.57-2.57s.19-1.98,.57-2.56c.38-.59,.93-.89,1.67-.89s1.3,.29,1.67,.89Zm-2.64,.48c-.21,.43-.32,1.12-.32,2.08s.11,1.65,.32,2.08c.21,.43,.53,.65,.96,.65s.75-.22,.96-.65c.21-.43,.32-1.12,.32-2.08s-.11-1.65-.32-2.08c-.21-.43-.53-.65-.96-.65s-.75,.21-.96,.64Z"/>
    <path class="cls-4" d="M561.44,167.08v6.69h-.92v-5.71l-1.56,.95-.4-.65,2.07-1.28h.81Z"/>
    <path class="cls-4" d="M565.88,167.22c.3,.16,.54,.38,.71,.65,.17,.28,.25,.59,.25,.94,0,.41-.09,.8-.28,1.17-.18,.37-.46,.78-.84,1.21-.38,.43-.96,1.04-1.73,1.81h3.01l-.11,.77h-3.95v-.73c.89-.93,1.53-1.6,1.9-2.04,.37-.43,.64-.8,.8-1.12,.16-.32,.24-.66,.24-1.03,0-.35-.1-.62-.3-.81s-.47-.29-.8-.29c-.27,0-.51,.06-.72,.17-.21,.11-.43,.3-.66,.56l-.6-.48c.27-.34,.58-.59,.91-.76s.71-.25,1.12-.25,.75,.08,1.05,.24Z"/>
  </g>
  <g class="cls-6">
    <path class="cls-4" d="M495.66,167.22c.3,.16,.54,.38,.71,.65,.17,.28,.25,.59,.25,.94,0,.41-.09,.8-.28,1.17-.18,.37-.46,.78-.84,1.21-.38,.43-.96,1.04-1.73,1.81h3.01l-.11,.77h-3.95v-.73c.89-.93,1.53-1.6,1.9-2.04,.37-.43,.64-.8,.8-1.12,.16-.32,.24-.66,.24-1.03,0-.35-.1-.62-.3-.81s-.47-.29-.8-.29c-.27,0-.51,.06-.72,.17-.21,.11-.43,.3-.66,.56l-.6-.48c.27-.34,.58-.59,.91-.76s.71-.25,1.12-.25,.75,.08,1.05,.24Z"/>
    <path class="cls-4" d="M501.74,167.86c.38,.59,.57,1.44,.57,2.56s-.19,1.98-.57,2.57-.93,.89-1.67,.89-1.3-.3-1.67-.89c-.38-.59-.57-1.45-.57-2.57s.19-1.98,.57-2.56c.38-.59,.93-.89,1.67-.89s1.3,.29,1.67,.89Zm-2.64,.48c-.21,.43-.32,1.12-.32,2.08s.11,1.65,.32,2.08c.21,.43,.53,.65,.96,.65s.75-.22,.96-.65c.21-.43,.32-1.12,.32-2.08s-.11-1.65-.32-2.08c-.21-.43-.53-.65-.96-.65s-.75,.21-.96,.64Z"/>
    <path class="cls-4" d="M505.84,167.08v6.69h-.92v-5.71l-1.56,.95-.4-.65,2.07-1.28h.81Z"/>
    <path class="cls-4" d="M510.03,167.08v6.69h-.92v-5.71l-1.56,.95-.4-.65,2.07-1.28h.81Z"/>
  </g>
  <g class="cls-6">
    <path class="cls-4" d="M424.86,167.22c.3,.16,.54,.38,.71,.65,.17,.28,.25,.59,.25,.94,0,.41-.09,.8-.28,1.17-.18,.37-.46,.78-.84,1.21-.38,.43-.96,1.04-1.73,1.81h3.01l-.11,.77h-3.95v-.73c.89-.93,1.53-1.6,1.9-2.04,.37-.43,.64-.8,.8-1.12,.16-.32,.24-.66,.24-1.03,0-.35-.1-.62-.3-.81s-.47-.29-.8-.29c-.27,0-.51,.06-.72,.17-.21,.11-.43,.3-.66,.56l-.6-.48c.27-.34,.58-.59,.91-.76s.71-.25,1.12-.25,.75,.08,1.05,.24Z"/>
    <path class="cls-4" d="M430.94,167.86c.38,.59,.57,1.44,.57,2.56s-.19,1.98-.57,2.57-.93,.89-1.67,.89-1.3-.3-1.67-.89c-.38-.59-.57-1.45-.57-2.57s.19-1.98,.57-2.56c.38-.59,.93-.89,1.67-.89s1.3,.29,1.67,.89Zm-2.64,.48c-.21,.43-.32,1.12-.32,2.08s.11,1.65,.32,2.08c.21,.43,.53,.65,.96,.65s.75-.22,.96-.65c.21-.43,.32-1.12,.32-2.08s-.11-1.65-.32-2.08c-.21-.43-.53-.65-.96-.65s-.75,.21-.96,.64Z"/>
    <path class="cls-4" d="M435.04,167.08v6.69h-.92v-5.71l-1.56,.95-.4-.65,2.07-1.28h.81Z"/>
    <path class="cls-4" d="M440.6,167.86c.38,.59,.57,1.44,.57,2.56s-.19,1.98-.57,2.57-.93,.89-1.67,.89-1.3-.3-1.67-.89c-.38-.59-.57-1.45-.57-2.57s.19-1.98,.57-2.56c.38-.59,.93-.89,1.67-.89s1.3,.29,1.67,.89Zm-2.64,.48c-.21,.43-.32,1.12-.32,2.08s.11,1.65,.32,2.08c.21,.43,.53,.65,.96,.65s.75-.22,.96-.65c.21-.43,.32-1.12,.32-2.08s-.11-1.65-.32-2.08c-.21-.43-.53-.65-.96-.65s-.75,.21-.96,.64Z"/>
  </g>
  <g class="cls-6">
    <path class="cls-4" d="M369.26,167.22c.3,.16,.54,.38,.71,.65,.17,.28,.25,.59,.25,.94,0,.41-.09,.8-.28,1.17-.18,.37-.46,.78-.84,1.21-.38,.43-.96,1.04-1.73,1.81h3.01l-.11,.77h-3.95v-.73c.89-.93,1.53-1.6,1.9-2.04,.37-.43,.64-.8,.8-1.12,.16-.32,.24-.66,.24-1.03,0-.35-.1-.62-.3-.81s-.47-.29-.8-.29c-.27,0-.51,.06-.72,.17-.21,.11-.43,.3-.66,.56l-.6-.48c.27-.34,.58-.59,.91-.76s.71-.25,1.12-.25,.75,.08,1.05,.24Z"/>
    <path class="cls-4" d="M375.34,167.86c.38,.59,.57,1.44,.57,2.56s-.19,1.98-.57,2.57-.93,.89-1.67,.89-1.3-.3-1.67-.89c-.38-.59-.57-1.45-.57-2.57s.19-1.98,.57-2.56c.38-.59,.93-.89,1.67-.89s1.3,.29,1.67,.89Zm-2.64,.48c-.21,.43-.32,1.12-.32,2.08s.11,1.65,.32,2.08c.21,.43,.53,.65,.96,.65s.75-.22,.96-.65c.21-.43,.32-1.12,.32-2.08s-.11-1.65-.32-2.08c-.21-.43-.53-.65-.96-.65s-.75,.21-.96,.64Z"/>
    <path class="cls-4" d="M380.92,167.86c.38,.59,.57,1.44,.57,2.56s-.19,1.98-.57,2.57-.93,.89-1.67,.89-1.3-.3-1.67-.89c-.38-.59-.57-1.45-.57-2.57s.19-1.98,.57-2.56c.38-.59,.93-.89,1.67-.89s1.3,.29,1.67,.89Zm-2.64,.48c-.21,.43-.32,1.12-.32,2.08s.11,1.65,.32,2.08c.21,.43,.53,.65,.96,.65s.75-.22,.96-.65c.21-.43,.32-1.12,.32-2.08s-.11-1.65-.32-2.08c-.21-.43-.53-.65-.96-.65s-.75,.21-.96,.64Z"/>
    <path class="cls-4" d="M386.14,167.67c.37,.46,.55,1.1,.55,1.91,0,.91-.12,1.65-.37,2.21s-.62,1-1.13,1.33c-.51,.33-1.19,.62-2.06,.88l-.21-.69c.89-.25,1.58-.6,2.05-1.03,.48-.43,.73-1.01,.76-1.73-.15,.24-.36,.43-.62,.58-.26,.15-.55,.22-.88,.22-.35,0-.66-.09-.94-.26-.28-.18-.5-.43-.67-.75-.16-.32-.25-.7-.25-1.14s.1-.85,.29-1.18c.19-.33,.45-.59,.77-.77s.68-.27,1.08-.27c.71,0,1.24,.23,1.61,.69Zm-.38,2.12c.01-.74-.08-1.27-.28-1.6-.2-.32-.51-.48-.93-.48-.39,0-.7,.13-.91,.39-.21,.26-.32,.63-.32,1.11s.1,.82,.3,1.06c.2,.24,.47,.35,.81,.35,.53,0,.97-.28,1.33-.83Z"/>
  </g>
  <g class="cls-6">
    <path class="cls-4" d="M344.06,167.22c.3,.16,.54,.38,.71,.65,.17,.28,.25,.59,.25,.94,0,.41-.09,.8-.28,1.17-.18,.37-.46,.78-.84,1.21-.38,.43-.96,1.04-1.73,1.81h3.01l-.11,.77h-3.95v-.73c.89-.93,1.53-1.6,1.9-2.04,.37-.43,.64-.8,.8-1.12,.16-.32,.24-.66,.24-1.03,0-.35-.1-.62-.3-.81s-.47-.29-.8-.29c-.27,0-.51,.06-.72,.17-.21,.11-.43,.3-.66,.56l-.6-.48c.27-.34,.58-.59,.91-.76s.71-.25,1.12-.25,.75,.08,1.05,.24Z"/>
    <path class="cls-4" d="M350.14,167.86c.38,.59,.57,1.44,.57,2.56s-.19,1.98-.57,2.57-.93,.89-1.67,.89-1.3-.3-1.67-.89c-.38-.59-.57-1.45-.57-2.57s.19-1.98,.57-2.56c.38-.59,.93-.89,1.67-.89s1.3,.29,1.67,.89Zm-2.64,.48c-.21,.43-.32,1.12-.32,2.08s.11,1.65,.32,2.08c.21,.43,.53,.65,.96,.65s.75-.22,.96-.65c.21-.43,.32-1.12,.32-2.08s-.11-1.65-.32-2.08c-.21-.43-.53-.65-.96-.65s-.75,.21-.96,.64Z"/>
    <path class="cls-4" d="M355.72,167.86c.38,.59,.57,1.44,.57,2.56s-.19,1.98-.57,2.57-.93,.89-1.67,.89-1.3-.3-1.67-.89c-.38-.59-.57-1.45-.57-2.57s.19-1.98,.57-2.56c.38-.59,.93-.89,1.67-.89s1.3,.29,1.67,.89Zm-2.64,.48c-.21,.43-.32,1.12-.32,2.08s.11,1.65,.32,2.08c.21,.43,.53,.65,.96,.65s.75-.22,.96-.65c.21-.43,.32-1.12,.32-2.08s-.11-1.65-.32-2.08c-.21-.43-.53-.65-.96-.65s-.75,.21-.96,.64Z"/>
    <path class="cls-4" d="M361.9,171.98c0,.37-.1,.69-.29,.98-.2,.29-.47,.52-.82,.68-.35,.16-.75,.25-1.2,.25s-.85-.08-1.2-.24c-.35-.16-.62-.38-.8-.67-.19-.29-.29-.61-.29-.98,0-.41,.11-.76,.33-1.04,.22-.28,.55-.51,.98-.7-.35-.18-.61-.4-.78-.66-.17-.26-.25-.56-.25-.9s.09-.67,.28-.93c.19-.26,.44-.46,.75-.59,.31-.13,.64-.2,1-.2s.67,.06,.99,.19c.31,.13,.56,.32,.75,.58s.29,.56,.29,.92c0,.33-.09,.62-.28,.86-.19,.24-.47,.46-.86,.65,.94,.38,1.41,.98,1.41,1.8Zm-1.32,.86c.24-.21,.36-.5,.36-.85,0-.24-.05-.44-.14-.6-.09-.16-.24-.31-.45-.43-.21-.12-.5-.25-.87-.38l-.25-.09c-.33,.16-.58,.36-.74,.6-.16,.24-.24,.54-.24,.9s.12,.65,.36,.85c.24,.2,.57,.31,.98,.31s.74-.11,.99-.32Zm-1.8-4.9c-.2,.18-.3,.44-.3,.77s.1,.56,.29,.73c.2,.17,.51,.32,.95,.46l.17,.06c.3-.17,.52-.36,.65-.55,.13-.19,.2-.43,.2-.71,0-.31-.1-.56-.29-.75-.2-.19-.47-.28-.83-.28s-.62,.09-.83,.27Z"/>
  </g>
  <g class="cls-6">
    <path class="cls-4" d="M303.67,167.22c.3,.16,.54,.38,.71,.65,.17,.28,.25,.59,.25,.94,0,.41-.09,.8-.28,1.17-.18,.37-.46,.78-.84,1.21-.38,.43-.96,1.04-1.73,1.81h3.01l-.11,.77h-3.95v-.73c.89-.93,1.53-1.6,1.9-2.04,.37-.43,.64-.8,.8-1.12,.16-.32,.24-.66,.24-1.03,0-.35-.1-.62-.3-.81s-.47-.29-.8-.29c-.27,0-.51,.06-.72,.17-.21,.11-.43,.3-.66,.56l-.6-.48c.27-.34,.58-.59,.91-.76s.71-.25,1.12-.25,.75,.08,1.05,.24Z"/>
    <path class="cls-4" d="M309.75,167.86c.38,.59,.57,1.44,.57,2.56s-.19,1.98-.57,2.57-.93,.89-1.67,.89-1.3-.3-1.67-.89c-.38-.59-.57-1.45-.57-2.57s.19-1.98,.57-2.56c.38-.59,.93-.89,1.67-.89s1.3,.29,1.67,.89Zm-2.64,.48c-.21,.43-.32,1.12-.32,2.08s.11,1.65,.32,2.08c.21,.43,.53,.65,.96,.65s.75-.22,.96-.65c.21-.43,.32-1.12,.32-2.08s-.11-1.65-.32-2.08c-.21-.43-.53-.65-.96-.65s-.75,.21-.96,.64Z"/>
    <path class="cls-4" d="M315.33,167.86c.38,.59,.57,1.44,.57,2.56s-.19,1.98-.57,2.57-.93,.89-1.67,.89-1.3-.3-1.67-.89c-.38-.59-.57-1.45-.57-2.57s.19-1.98,.57-2.56c.38-.59,.93-.89,1.67-.89s1.3,.29,1.67,.89Zm-2.64,.48c-.21,.43-.32,1.12-.32,2.08s.11,1.65,.32,2.08c.21,.43,.53,.65,.96,.65s.75-.22,.96-.65c.21-.43,.32-1.12,.32-2.08s-.11-1.65-.32-2.08c-.21-.43-.53-.65-.96-.65s-.75,.21-.96,.64Z"/>
    <path class="cls-4" d="M320.38,167.08v.69l-2.5,6.1-.84-.28,2.41-5.76h-2.96v-.75h3.89Z"/>
  </g>
  <g class="cls-6">
    <path class="cls-4" d="M262.99,167.22c.3,.16,.54,.38,.71,.65,.17,.28,.25,.59,.25,.94,0,.41-.09,.8-.28,1.17-.18,.37-.46,.78-.84,1.21-.38,.43-.96,1.04-1.73,1.81h3.01l-.11,.77h-3.95v-.73c.89-.93,1.53-1.6,1.9-2.04,.37-.43,.64-.8,.8-1.12,.16-.32,.24-.66,.24-1.03,0-.35-.1-.62-.3-.81s-.47-.29-.8-.29c-.27,0-.51,.06-.72,.17-.21,.11-.43,.3-.66,.56l-.6-.48c.27-.34,.58-.59,.91-.76s.71-.25,1.12-.25,.75,.08,1.05,.24Z"/>
    <path class="cls-4" d="M269.07,167.86c.38,.59,.57,1.44,.57,2.56s-.19,1.98-.57,2.57-.93,.89-1.67,.89-1.3-.3-1.67-.89c-.38-.59-.57-1.45-.57-2.57s.19-1.98,.57-2.56c.38-.59,.93-.89,1.67-.89s1.3,.29,1.67,.89Zm-2.64,.48c-.21,.43-.32,1.12-.32,2.08s.11,1.65,.32,2.08c.21,.43,.53,.65,.96,.65s.75-.22,.96-.65c.21-.43,.32-1.12,.32-2.08s-.11-1.65-.32-2.08c-.21-.43-.53-.65-.96-.65s-.75,.21-.96,.64Z"/>
    <path class="cls-4" d="M274.65,167.86c.38,.59,.57,1.44,.57,2.56s-.19,1.98-.57,2.57-.93,.89-1.67,.89-1.3-.3-1.67-.89c-.38-.59-.57-1.45-.57-2.57s.19-1.98,.57-2.56c.38-.59,.93-.89,1.67-.89s1.3,.29,1.67,.89Zm-2.64,.48c-.21,.43-.32,1.12-.32,2.08s.11,1.65,.32,2.08c.21,.43,.53,.65,.96,.65s.75-.22,.96-.65c.21-.43,.32-1.12,.32-2.08s-.11-1.65-.32-2.08c-.21-.43-.53-.65-.96-.65s-.75,.21-.96,.64Z"/>
    <path class="cls-4" d="M279.78,169.61c.28,.16,.5,.4,.67,.72,.17,.32,.25,.71,.25,1.17s-.09,.89-.29,1.25c-.19,.36-.45,.64-.77,.84-.32,.2-.68,.29-1.08,.29-.78,0-1.35-.29-1.71-.87-.36-.58-.54-1.38-.54-2.4,0-.73,.1-1.36,.31-1.92,.2-.55,.49-.98,.88-1.28,.38-.3,.83-.46,1.35-.46s.97,.14,1.38,.41l-.36,.61c-.31-.19-.66-.29-1.03-.29-.48,0-.86,.23-1.14,.69-.28,.46-.43,1.08-.46,1.85,.41-.59,.95-.88,1.61-.88,.34,0,.65,.08,.93,.24Zm-.32,3.11c.21-.29,.31-.69,.31-1.19,0-.95-.36-1.43-1.08-1.43-.29,0-.56,.08-.81,.25-.25,.16-.46,.39-.63,.67,.02,.73,.13,1.27,.34,1.62s.54,.52,.97,.52c.39,0,.68-.15,.89-.44Z"/>
  </g>
  <g class="cls-6">
    <path class="cls-4" d="M222.59,167.22c.3,.16,.54,.38,.71,.65,.17,.28,.25,.59,.25,.94,0,.41-.09,.8-.28,1.17-.18,.37-.46,.78-.84,1.21-.38,.43-.96,1.04-1.73,1.81h3.01l-.11,.77h-3.95v-.73c.89-.93,1.53-1.6,1.9-2.04,.37-.43,.64-.8,.8-1.12,.16-.32,.24-.66,.24-1.03,0-.35-.1-.62-.3-.81s-.47-.29-.8-.29c-.27,0-.51,.06-.72,.17-.21,.11-.43,.3-.66,.56l-.6-.48c.27-.34,.58-.59,.91-.76s.71-.25,1.12-.25,.75,.08,1.05,.24Z"/>
    <path class="cls-4" d="M228.67,167.86c.38,.59,.57,1.44,.57,2.56s-.19,1.98-.57,2.57-.93,.89-1.67,.89-1.3-.3-1.67-.89c-.38-.59-.57-1.45-.57-2.57s.19-1.98,.57-2.56c.38-.59,.93-.89,1.67-.89s1.3,.29,1.67,.89Zm-2.64,.48c-.21,.43-.32,1.12-.32,2.08s.11,1.65,.32,2.08c.21,.43,.53,.65,.96,.65s.75-.22,.96-.65c.21-.43,.32-1.12,.32-2.08s-.11-1.65-.32-2.08c-.21-.43-.53-.65-.96-.65s-.75,.21-.96,.64Z"/>
    <path class="cls-4" d="M234.25,167.86c.38,.59,.57,1.44,.57,2.56s-.19,1.98-.57,2.57-.93,.89-1.67,.89-1.3-.3-1.67-.89c-.38-.59-.57-1.45-.57-2.57s.19-1.98,.57-2.56c.38-.59,.93-.89,1.67-.89s1.3,.29,1.67,.89Zm-2.64,.48c-.21,.43-.32,1.12-.32,2.08s.11,1.65,.32,2.08c.21,.43,.53,.65,.96,.65s.75-.22,.96-.65c.21-.43,.32-1.12,.32-2.08s-.11-1.65-.32-2.08c-.21-.43-.53-.65-.96-.65s-.75,.21-.96,.64Z"/>
    <path class="cls-4" d="M239.57,167.8h-2.61v1.97c.34-.17,.7-.26,1.07-.26,.57,0,1.03,.19,1.38,.56,.35,.38,.52,.9,.52,1.55,0,.44-.1,.83-.29,1.18s-.46,.61-.81,.8-.75,.29-1.21,.29c-.41,0-.77-.07-1.09-.22-.32-.14-.62-.35-.89-.63l.54-.53c.21,.21,.43,.37,.66,.47,.23,.1,.48,.16,.77,.16,.43,0,.76-.13,1-.4,.24-.27,.36-.64,.36-1.13s-.11-.84-.33-1.06c-.22-.22-.52-.33-.89-.33-.17,0-.33,.02-.48,.05-.15,.04-.3,.1-.47,.18h-.72v-3.37h3.62l-.13,.72Z"/>
  </g>
  <g class="cls-6">
    <path class="cls-4" d="M167.26,167.22c.3,.16,.54,.38,.71,.65,.17,.28,.25,.59,.25,.94,0,.41-.09,.8-.28,1.17-.18,.37-.46,.78-.84,1.21-.38,.43-.96,1.04-1.73,1.81h3.01l-.11,.77h-3.95v-.73c.89-.93,1.53-1.6,1.9-2.04,.37-.43,.64-.8,.8-1.12,.16-.32,.24-.66,.24-1.03,0-.35-.1-.62-.3-.81s-.47-.29-.8-.29c-.27,0-.51,.06-.72,.17-.21,.11-.43,.3-.66,.56l-.6-.48c.27-.34,.58-.59,.91-.76s.71-.25,1.12-.25,.75,.08,1.05,.24Z"/>
    <path class="cls-4" d="M173.34,167.86c.38,.59,.57,1.44,.57,2.56s-.19,1.98-.57,2.57-.93,.89-1.67,.89-1.3-.3-1.67-.89c-.38-.59-.57-1.45-.57-2.57s.19-1.98,.57-2.56c.38-.59,.93-.89,1.67-.89s1.3,.29,1.67,.89Zm-2.64,.48c-.21,.43-.32,1.12-.32,2.08s.11,1.65,.32,2.08c.21,.43,.53,.65,.96,.65s.75-.22,.96-.65c.21-.43,.32-1.12,.32-2.08s-.11-1.65-.32-2.08c-.21-.43-.53-.65-.96-.65s-.75,.21-.96,.64Z"/>
    <path class="cls-4" d="M178.92,167.86c.38,.59,.57,1.44,.57,2.56s-.19,1.98-.57,2.57-.93,.89-1.67,.89-1.3-.3-1.67-.89c-.38-.59-.57-1.45-.57-2.57s.19-1.98,.57-2.56c.38-.59,.93-.89,1.67-.89s1.3,.29,1.67,.89Zm-2.64,.48c-.21,.43-.32,1.12-.32,2.08s.11,1.65,.32,2.08c.21,.43,.53,.65,.96,.65s.75-.22,.96-.65c.21-.43,.32-1.12,.32-2.08s-.11-1.65-.32-2.08c-.21-.43-.53-.65-.96-.65s-.75,.21-.96,.64Z"/>
    <path class="cls-4" d="M185.06,171.39v.73h-.87v1.65h-.89v-1.65h-2.86v-.66l2.01-4.48,.77,.32-1.81,4.09h1.9l.08-1.8h.8v1.8h.87Z"/>
  </g>
  <g class="cls-6">
    <path class="cls-4" d="M66.07,168.16c.3,.16,.54,.38,.71,.65,.17,.28,.25,.59,.25,.94,0,.41-.09,.8-.28,1.17-.18,.37-.46,.78-.84,1.21-.38,.43-.96,1.04-1.73,1.81h3.01l-.11,.77h-3.95v-.73c.89-.93,1.53-1.6,1.9-2.04,.37-.43,.64-.8,.8-1.12,.16-.32,.24-.66,.24-1.03,0-.35-.1-.62-.3-.81s-.47-.29-.8-.29c-.27,0-.51,.06-.72,.17-.21,.11-.43,.3-.66,.56l-.6-.48c.27-.34,.58-.59,.91-.76s.71-.25,1.12-.25,.75,.08,1.05,.24Z"/>
    <path class="cls-4" d="M72.15,168.81c.38,.59,.57,1.44,.57,2.56s-.19,1.98-.57,2.57-.93,.89-1.67,.89-1.3-.3-1.67-.89c-.38-.59-.57-1.45-.57-2.57s.19-1.98,.57-2.56c.38-.59,.93-.89,1.67-.89s1.3,.29,1.67,.89Zm-2.64,.48c-.21,.43-.32,1.12-.32,2.08s.11,1.65,.32,2.08c.21,.43,.53,.65,.96,.65s.75-.22,.96-.65c.21-.43,.32-1.12,.32-2.08s-.11-1.65-.32-2.08c-.21-.43-.53-.65-.96-.65s-.75,.21-.96,.64Z"/>
    <path class="cls-4" d="M77.73,168.81c.38,.59,.57,1.44,.57,2.56s-.19,1.98-.57,2.57-.93,.89-1.67,.89-1.3-.3-1.67-.89c-.38-.59-.57-1.45-.57-2.57s.19-1.98,.57-2.56c.38-.59,.93-.89,1.67-.89s1.3,.29,1.67,.89Zm-2.64,.48c-.21,.43-.32,1.12-.32,2.08s.11,1.65,.32,2.08c.21,.43,.53,.65,.96,.65s.75-.22,.96-.65c.21-.43,.32-1.12,.32-2.08s-.11-1.65-.32-2.08c-.21-.43-.53-.65-.96-.65s-.75,.21-.96,.64Z"/>
    <path class="cls-4" d="M82.06,168.15c.3,.15,.52,.36,.68,.62,.16,.26,.24,.54,.24,.85,0,.41-.12,.74-.36,1s-.55,.44-.95,.54c.45,.04,.81,.2,1.09,.48,.28,.28,.42,.66,.42,1.14,0,.39-.09,.74-.28,1.05s-.45,.56-.8,.73-.75,.27-1.2,.27c-.41,0-.78-.08-1.12-.23s-.64-.38-.89-.67l.55-.51c.22,.23,.44,.39,.67,.5,.23,.11,.48,.16,.75,.16,.42,0,.75-.12,.99-.35s.36-.56,.36-.96c0-.44-.11-.75-.34-.93-.23-.18-.56-.27-.99-.27h-.5l.11-.71h.34c.35,0,.64-.1,.87-.31,.23-.21,.34-.5,.34-.87,0-.31-.1-.56-.3-.75-.2-.18-.47-.27-.81-.27-.26,0-.5,.05-.71,.14-.22,.09-.44,.25-.67,.46l-.48-.55c.57-.53,1.2-.79,1.91-.79,.41,0,.77,.08,1.07,.23Z"/>
  </g>
  <g class="cls-6">
    <path class="cls-4" d="M430.6,113.74c.3,.16,.54,.38,.71,.65,.17,.28,.25,.59,.25,.94,0,.41-.09,.8-.28,1.17-.18,.37-.46,.78-.84,1.21-.38,.43-.96,1.04-1.73,1.81h3.01l-.11,.77h-3.95v-.73c.89-.93,1.53-1.6,1.9-2.04,.37-.43,.64-.8,.8-1.12,.16-.32,.24-.66,.24-1.03,0-.35-.1-.62-.3-.81s-.47-.29-.8-.29c-.27,0-.51,.06-.72,.17-.21,.11-.43,.3-.66,.56l-.6-.48c.27-.34,.58-.59,.91-.76s.71-.25,1.12-.25,.75,.08,1.05,.24Z"/>
    <path class="cls-4" d="M436.68,114.39c.38,.59,.57,1.44,.57,2.56s-.19,1.98-.57,2.57-.93,.89-1.67,.89-1.3-.3-1.67-.89c-.38-.59-.57-1.45-.57-2.57s.19-1.98,.57-2.56c.38-.59,.93-.89,1.67-.89s1.3,.29,1.67,.89Zm-2.64,.48c-.21,.43-.32,1.12-.32,2.08s.11,1.65,.32,2.08c.21,.43,.53,.65,.96,.65s.75-.22,.96-.65c.21-.43,.32-1.12,.32-2.08s-.11-1.65-.32-2.08c-.21-.43-.53-.65-.96-.65s-.75,.21-.96,.64Z"/>
    <path class="cls-4" d="M442.26,114.39c.38,.59,.57,1.44,.57,2.56s-.19,1.98-.57,2.57-.93,.89-1.67,.89-1.3-.3-1.67-.89c-.38-.59-.57-1.45-.57-2.57s.19-1.98,.57-2.56c.38-.59,.93-.89,1.67-.89s1.3,.29,1.67,.89Zm-2.64,.48c-.21,.43-.32,1.12-.32,2.08s.11,1.65,.32,2.08c.21,.43,.53,.65,.96,.65s.75-.22,.96-.65c.21-.43,.32-1.12,.32-2.08s-.11-1.65-.32-2.08c-.21-.43-.53-.65-.96-.65s-.75,.21-.96,.64Z"/>
    <path class="cls-4" d="M446.59,113.74c.3,.16,.54,.38,.71,.65,.17,.28,.25,.59,.25,.94,0,.41-.09,.8-.28,1.17-.18,.37-.46,.78-.84,1.21-.38,.43-.96,1.04-1.73,1.81h3.01l-.11,.77h-3.95v-.73c.89-.93,1.53-1.6,1.9-2.04,.37-.43,.64-.8,.8-1.12,.16-.32,.24-.66,.24-1.03,0-.35-.1-.62-.3-.81s-.47-.29-.8-.29c-.27,0-.51,.06-.72,.17-.21,.11-.43,.3-.66,.56l-.6-.48c.27-.34,.58-.59,.91-.76s.71-.25,1.12-.25,.75,.08,1.05,.24Z"/>
  </g>
  <g class="cls-6">
    <path class="cls-4" d="M329.4,113.74c.3,.16,.54,.38,.71,.65,.17,.28,.25,.59,.25,.94,0,.41-.09,.8-.28,1.17-.18,.37-.46,.78-.84,1.21-.38,.43-.96,1.04-1.73,1.81h3.01l-.11,.77h-3.95v-.73c.89-.93,1.53-1.6,1.9-2.04,.37-.43,.64-.8,.8-1.12,.16-.32,.24-.66,.24-1.03,0-.35-.1-.62-.3-.81s-.47-.29-.8-.29c-.27,0-.51,.06-.72,.17-.21,.11-.43,.3-.66,.56l-.6-.48c.27-.34,.58-.59,.91-.76s.71-.25,1.12-.25,.75,.08,1.05,.24Z"/>
    <path class="cls-4" d="M335.48,114.39c.38,.59,.57,1.44,.57,2.56s-.19,1.98-.57,2.57-.93,.89-1.67,.89-1.3-.3-1.67-.89c-.38-.59-.57-1.45-.57-2.57s.19-1.98,.57-2.56c.38-.59,.93-.89,1.67-.89s1.3,.29,1.67,.89Zm-2.64,.48c-.21,.43-.32,1.12-.32,2.08s.11,1.65,.32,2.08c.21,.43,.53,.65,.96,.65s.75-.22,.96-.65c.21-.43,.32-1.12,.32-2.08s-.11-1.65-.32-2.08c-.21-.43-.53-.65-.96-.65s-.75,.21-.96,.64Z"/>
    <path class="cls-4" d="M341.06,114.39c.38,.59,.57,1.44,.57,2.56s-.19,1.98-.57,2.57-.93,.89-1.67,.89-1.3-.3-1.67-.89c-.38-.59-.57-1.45-.57-2.57s.19-1.98,.57-2.56c.38-.59,.93-.89,1.67-.89s1.3,.29,1.67,.89Zm-2.64,.48c-.21,.43-.32,1.12-.32,2.08s.11,1.65,.32,2.08c.21,.43,.53,.65,.96,.65s.75-.22,.96-.65c.21-.43,.32-1.12,.32-2.08s-.11-1.65-.32-2.08c-.21-.43-.53-.65-.96-.65s-.75,.21-.96,.64Z"/>
    <path class="cls-4" d="M346.64,114.39c.38,.59,.57,1.44,.57,2.56s-.19,1.98-.57,2.57-.93,.89-1.67,.89-1.3-.3-1.67-.89c-.38-.59-.57-1.45-.57-2.57s.19-1.98,.57-2.56c.38-.59,.93-.89,1.67-.89s1.3,.29,1.67,.89Zm-2.64,.48c-.21,.43-.32,1.12-.32,2.08s.11,1.65,.32,2.08c.21,.43,.53,.65,.96,.65s.75-.22,.96-.65c.21-.43,.32-1.12,.32-2.08s-.11-1.65-.32-2.08c-.21-.43-.53-.65-.96-.65s-.75,.21-.96,.64Z"/>
  </g>
  <g class="cls-6">
    <path class="cls-4" d="M182.23,113.6v6.69h-.92v-5.71l-1.56,.95-.4-.65,2.07-1.28h.81Z"/>
    <path class="cls-4" d="M187.53,114.2c.37,.46,.55,1.1,.55,1.91,0,.91-.12,1.65-.37,2.21s-.62,1-1.13,1.33c-.51,.33-1.19,.62-2.06,.88l-.21-.69c.89-.25,1.58-.6,2.05-1.03,.48-.43,.73-1.01,.76-1.73-.15,.24-.36,.43-.62,.58-.26,.15-.55,.22-.88,.22-.35,0-.66-.09-.94-.26-.28-.18-.5-.43-.67-.75-.16-.32-.25-.7-.25-1.14s.1-.85,.29-1.18c.19-.33,.45-.59,.77-.77s.68-.27,1.08-.27c.71,0,1.24,.23,1.61,.69Zm-.38,2.12c.01-.74-.08-1.27-.28-1.6-.2-.32-.51-.48-.93-.48-.39,0-.7,.13-.91,.39-.21,.26-.32,.63-.32,1.11s.1,.82,.3,1.06c.2,.24,.47,.35,.81,.35,.53,0,.97-.28,1.33-.83Z"/>
    <path class="cls-4" d="M192.78,114.2c.37,.46,.55,1.1,.55,1.91,0,.91-.12,1.65-.37,2.21s-.62,1-1.13,1.33c-.51,.33-1.19,.62-2.06,.88l-.21-.69c.89-.25,1.58-.6,2.05-1.03,.48-.43,.73-1.01,.76-1.73-.15,.24-.36,.43-.62,.58-.26,.15-.55,.22-.88,.22-.35,0-.66-.09-.94-.26-.28-.18-.5-.43-.67-.75-.16-.32-.25-.7-.25-1.14s.1-.85,.29-1.18c.19-.33,.45-.59,.77-.77s.68-.27,1.08-.27c.71,0,1.24,.23,1.61,.69Zm-.38,2.12c.01-.74-.08-1.27-.28-1.6-.2-.32-.51-.48-.93-.48-.39,0-.7,.13-.91,.39-.21,.26-.32,.63-.32,1.11s.1,.82,.3,1.06c.2,.24,.47,.35,.81,.35,.53,0,.97-.28,1.33-.83Z"/>
    <path class="cls-4" d="M198.03,114.2c.37,.46,.55,1.1,.55,1.91,0,.91-.12,1.65-.37,2.21s-.62,1-1.13,1.33c-.51,.33-1.19,.62-2.06,.88l-.21-.69c.89-.25,1.58-.6,2.05-1.03,.48-.43,.73-1.01,.76-1.73-.15,.24-.36,.43-.62,.58-.26,.15-.55,.22-.88,.22-.35,0-.66-.09-.94-.26-.28-.18-.5-.43-.67-.75-.16-.32-.25-.7-.25-1.14s.1-.85,.29-1.18c.19-.33,.45-.59,.77-.77s.68-.27,1.08-.27c.71,0,1.24,.23,1.61,.69Zm-.38,2.12c.01-.74-.08-1.27-.28-1.6-.2-.32-.51-.48-.93-.48-.39,0-.7,.13-.91,.39-.21,.26-.32,.63-.32,1.11s.1,.82,.3,1.06c.2,.24,.47,.35,.81,.35,.53,0,.97-.28,1.33-.83Z"/>
  </g>
  <g class="cls-6">
    <path class="cls-4" d="M460.63,85.46v6.69h-.92v-5.71l-1.56,.95-.4-.65,2.07-1.28h.81Z"/>
    <path class="cls-4" d="M465.92,86.05c.37,.46,.55,1.1,.55,1.91,0,.91-.12,1.65-.37,2.21s-.62,1-1.13,1.33c-.51,.33-1.19,.62-2.06,.88l-.21-.69c.89-.25,1.58-.6,2.05-1.03,.48-.43,.73-1.01,.76-1.73-.15,.24-.36,.43-.62,.58-.26,.15-.55,.22-.88,.22-.35,0-.66-.09-.94-.26-.28-.18-.5-.43-.67-.75-.16-.32-.25-.7-.25-1.14s.1-.85,.29-1.18c.19-.33,.45-.59,.77-.77s.68-.27,1.08-.27c.71,0,1.24,.23,1.61,.69Zm-.38,2.12c.01-.74-.08-1.27-.28-1.6-.2-.32-.51-.48-.93-.48-.39,0-.7,.13-.91,.39-.21,.26-.32,.63-.32,1.11s.1,.82,.3,1.06c.2,.24,.47,.35,.81,.35,.53,0,.97-.28,1.33-.83Z"/>
    <path class="cls-4" d="M471.17,86.05c.37,.46,.55,1.1,.55,1.91,0,.91-.12,1.65-.37,2.21s-.62,1-1.13,1.33c-.51,.33-1.19,.62-2.06,.88l-.21-.69c.89-.25,1.58-.6,2.05-1.03,.48-.43,.73-1.01,.76-1.73-.15,.24-.36,.43-.62,.58-.26,.15-.55,.22-.88,.22-.35,0-.66-.09-.94-.26-.28-.18-.5-.43-.67-.75-.16-.32-.25-.7-.25-1.14s.1-.85,.29-1.18c.19-.33,.45-.59,.77-.77s.68-.27,1.08-.27c.71,0,1.24,.23,1.61,.69Zm-.38,2.12c.01-.74-.08-1.27-.28-1.6-.2-.32-.51-.48-.93-.48-.39,0-.7,.13-.91,.39-.21,.26-.32,.63-.32,1.11s.1,.82,.3,1.06c.2,.24,.47,.35,.81,.35,.53,0,.97-.28,1.33-.83Z"/>
    <path class="cls-4" d="M477.28,90.36c0,.37-.1,.69-.29,.98-.2,.29-.47,.52-.82,.68-.35,.16-.75,.25-1.2,.25s-.85-.08-1.2-.24c-.35-.16-.62-.38-.8-.67-.19-.29-.29-.61-.29-.98,0-.41,.11-.76,.33-1.04,.22-.28,.55-.51,.98-.7-.35-.18-.61-.4-.78-.66-.17-.26-.25-.56-.25-.9s.09-.67,.28-.93c.19-.26,.44-.46,.75-.59,.31-.13,.64-.2,1-.2s.67,.06,.99,.19c.31,.13,.56,.32,.75,.58s.29,.56,.29,.92c0,.33-.09,.62-.28,.86-.19,.24-.47,.46-.86,.65,.94,.38,1.41,.98,1.41,1.8Zm-1.32,.86c.24-.21,.36-.5,.36-.85,0-.24-.05-.44-.14-.6-.09-.16-.24-.31-.45-.43-.21-.12-.5-.25-.87-.38l-.25-.09c-.33,.16-.58,.36-.74,.6-.16,.24-.24,.54-.24,.9s.12,.65,.36,.85c.24,.2,.57,.31,.98,.31s.74-.11,.99-.32Zm-1.8-4.9c-.2,.18-.3,.44-.3,.77s.1,.56,.29,.73c.2,.17,.51,.32,.95,.46l.17,.06c.3-.17,.52-.36,.65-.55,.13-.19,.2-.43,.2-.71,0-.31-.1-.56-.29-.75-.2-.19-.47-.28-.83-.28s-.62,.09-.83,.27Z"/>
  </g>
  <g class="cls-6">
    <path class="cls-4" d="M283.42,85.46v6.69h-.92v-5.71l-1.56,.95-.4-.65,2.07-1.28h.81Z"/>
    <path class="cls-4" d="M288.72,86.05c.37,.46,.55,1.1,.55,1.91,0,.91-.12,1.65-.37,2.21s-.62,1-1.13,1.33c-.51,.33-1.19,.62-2.06,.88l-.21-.69c.89-.25,1.58-.6,2.05-1.03,.48-.43,.73-1.01,.76-1.73-.15,.24-.36,.43-.62,.58-.26,.15-.55,.22-.88,.22-.35,0-.66-.09-.94-.26-.28-.18-.5-.43-.67-.75-.16-.32-.25-.7-.25-1.14s.1-.85,.29-1.18c.19-.33,.45-.59,.77-.77s.68-.27,1.08-.27c.71,0,1.24,.23,1.61,.69Zm-.38,2.12c.01-.74-.08-1.27-.28-1.6-.2-.32-.51-.48-.93-.48-.39,0-.7,.13-.91,.39-.21,.26-.32,.63-.32,1.11s.1,.82,.3,1.06c.2,.24,.47,.35,.81,.35,.53,0,.97-.28,1.33-.83Z"/>
    <path class="cls-4" d="M293.97,86.05c.37,.46,.55,1.1,.55,1.91,0,.91-.12,1.65-.37,2.21s-.62,1-1.13,1.33c-.51,.33-1.19,.62-2.06,.88l-.21-.69c.89-.25,1.58-.6,2.05-1.03,.48-.43,.73-1.01,.76-1.73-.15,.24-.36,.43-.62,.58-.26,.15-.55,.22-.88,.22-.35,0-.66-.09-.94-.26-.28-.18-.5-.43-.67-.75-.16-.32-.25-.7-.25-1.14s.1-.85,.29-1.18c.19-.33,.45-.59,.77-.77s.68-.27,1.08-.27c.71,0,1.24,.23,1.61,.69Zm-.38,2.12c.01-.74-.08-1.27-.28-1.6-.2-.32-.51-.48-.93-.48-.39,0-.7,.13-.91,.39-.21,.26-.32,.63-.32,1.11s.1,.82,.3,1.06c.2,.24,.47,.35,.81,.35,.53,0,.97-.28,1.33-.83Z"/>
    <path class="cls-4" d="M299.01,85.46v.69l-2.5,6.1-.84-.28,2.41-5.76h-2.96v-.75h3.89Z"/>
  </g>
  <g class="cls-6">
    <path class="cls-4" d="M196.42,85.46v6.69h-.92v-5.71l-1.56,.95-.4-.65,2.07-1.28h.81Z"/>
    <path class="cls-4" d="M201.72,86.05c.37,.46,.55,1.1,.55,1.91,0,.91-.12,1.65-.37,2.21s-.62,1-1.13,1.33c-.51,.33-1.19,.62-2.06,.88l-.21-.69c.89-.25,1.58-.6,2.05-1.03,.48-.43,.73-1.01,.76-1.73-.15,.24-.36,.43-.62,.58-.26,.15-.55,.22-.88,.22-.35,0-.66-.09-.94-.26-.28-.18-.5-.43-.67-.75-.16-.32-.25-.7-.25-1.14s.1-.85,.29-1.18c.19-.33,.45-.59,.77-.77s.68-.27,1.08-.27c.71,0,1.24,.23,1.61,.69Zm-.38,2.12c.01-.74-.08-1.27-.28-1.6-.2-.32-.51-.48-.93-.48-.39,0-.7,.13-.91,.39-.21,.26-.32,.63-.32,1.11s.1,.82,.3,1.06c.2,.24,.47,.35,.81,.35,.53,0,.97-.28,1.33-.83Z"/>
    <path class="cls-4" d="M206.97,86.05c.37,.46,.55,1.1,.55,1.91,0,.91-.12,1.65-.37,2.21s-.62,1-1.13,1.33c-.51,.33-1.19,.62-2.06,.88l-.21-.69c.89-.25,1.58-.6,2.05-1.03,.48-.43,.73-1.01,.76-1.73-.15,.24-.36,.43-.62,.58-.26,.15-.55,.22-.88,.22-.35,0-.66-.09-.94-.26-.28-.18-.5-.43-.67-.75-.16-.32-.25-.7-.25-1.14s.1-.85,.29-1.18c.19-.33,.45-.59,.77-.77s.68-.27,1.08-.27c.71,0,1.24,.23,1.61,.69Zm-.38,2.12c.01-.74-.08-1.27-.28-1.6-.2-.32-.51-.48-.93-.48-.39,0-.7,.13-.91,.39-.21,.26-.32,.63-.32,1.11s.1,.82,.3,1.06c.2,.24,.47,.35,.81,.35,.53,0,.97-.28,1.33-.83Z"/>
    <path class="cls-4" d="M212.03,87.99c.28,.16,.5,.4,.67,.72,.17,.32,.25,.71,.25,1.17s-.09,.89-.29,1.25c-.19,.36-.45,.64-.77,.84-.32,.2-.68,.29-1.08,.29-.78,0-1.35-.29-1.71-.87-.36-.58-.54-1.38-.54-2.4,0-.73,.1-1.36,.31-1.92,.2-.55,.49-.98,.88-1.28,.38-.3,.83-.46,1.35-.46s.97,.14,1.38,.41l-.36,.61c-.31-.19-.66-.29-1.03-.29-.48,0-.86,.23-1.14,.69-.28,.46-.43,1.08-.46,1.85,.41-.59,.95-.88,1.61-.88,.34,0,.65,.08,.93,.24Zm-.32,3.11c.21-.29,.31-.69,.31-1.19,0-.95-.36-1.43-1.08-1.43-.29,0-.56,.08-.81,.25-.25,.16-.46,.39-.63,.67,.02,.73,.13,1.27,.34,1.62s.54,.52,.97,.52c.39,0,.68-.15,.89-.44Z"/>
  </g>
  <g class="cls-6">
    <path class="cls-4" d="M65.69,85.46v6.69h-.92v-5.71l-1.56,.95-.4-.65,2.07-1.28h.81Z"/>
    <path class="cls-4" d="M70.99,86.05c.37,.46,.55,1.1,.55,1.91,0,.91-.12,1.65-.37,2.21s-.62,1-1.13,1.33c-.51,.33-1.19,.62-2.06,.88l-.21-.69c.89-.25,1.58-.6,2.05-1.03,.48-.43,.73-1.01,.76-1.73-.15,.24-.36,.43-.62,.58-.26,.15-.55,.22-.88,.22-.35,0-.66-.09-.94-.26-.28-.18-.5-.43-.67-.75-.16-.32-.25-.7-.25-1.14s.1-.85,.29-1.18c.19-.33,.45-.59,.77-.77s.68-.27,1.08-.27c.71,0,1.24,.23,1.61,.69Zm-.38,2.12c.01-.74-.08-1.27-.28-1.6-.2-.32-.51-.48-.93-.48-.39,0-.7,.13-.91,.39-.21,.26-.32,.63-.32,1.11s.1,.82,.3,1.06c.2,.24,.47,.35,.81,.35,.53,0,.97-.28,1.33-.83Z"/>
    <path class="cls-4" d="M76.24,86.05c.37,.46,.55,1.1,.55,1.91,0,.91-.12,1.65-.37,2.21s-.62,1-1.13,1.33c-.51,.33-1.19,.62-2.06,.88l-.21-.69c.89-.25,1.58-.6,2.05-1.03,.48-.43,.73-1.01,.76-1.73-.15,.24-.36,.43-.62,.58-.26,.15-.55,.22-.88,.22-.35,0-.66-.09-.94-.26-.28-.18-.5-.43-.67-.75-.16-.32-.25-.7-.25-1.14s.1-.85,.29-1.18c.19-.33,.45-.59,.77-.77s.68-.27,1.08-.27c.71,0,1.24,.23,1.61,.69Zm-.38,2.12c.01-.74-.08-1.27-.28-1.6-.2-.32-.51-.48-.93-.48-.39,0-.7,.13-.91,.39-.21,.26-.32,.63-.32,1.11s.1,.82,.3,1.06c.2,.24,.47,.35,.81,.35,.53,0,.97-.28,1.33-.83Z"/>
    <path class="cls-4" d="M81.49,86.18h-2.61v1.97c.34-.17,.7-.26,1.07-.26,.57,0,1.03,.19,1.38,.56,.35,.38,.52,.9,.52,1.55,0,.44-.1,.83-.29,1.18s-.46,.61-.81,.8-.75,.29-1.21,.29c-.41,0-.77-.07-1.09-.22-.32-.14-.62-.35-.89-.63l.54-.53c.21,.21,.43,.37,.66,.47,.23,.1,.48,.16,.77,.16,.43,0,.76-.13,1-.4,.24-.27,.36-.64,.36-1.13s-.11-.84-.33-1.06c-.22-.22-.52-.33-.89-.33-.17,0-.33,.02-.48,.05-.15,.04-.3,.1-.47,.18h-.72v-3.37h3.62l-.13,.72Z"/>
  </g>
  <circle class="cls-2" cx="240.06" cy="183.14" r="5.6"/>
  <circle class="cls-2" cx="361.79" cy="128.73" r="5.6"/>
  <circle class="cls-4" cx="346.59" cy="128.73" r="5.6"/>
  <circle class="cls-2" cx="361.24" cy="231.73" r="5.6"/>
  <circle class="cls-4" cx="204.44" cy="231.73" r="5.6"/>
  <circle class="cls-4" cx="512.86" cy="183.14" r="5.6"/>
  <circle class="cls-4" cx="224.86" cy="183.14" r="5.6"/>
  <circle class="cls-4" cx="331.39" cy="128.73" r="5.6"/>
  <circle class="cls-4" cx="497.66" cy="183.14" r="5.6"/>
  <circle class="cls-2" cx="199.66" cy="183.14" r="5.6"/>
  <circle class="cls-2" cx="306.19" cy="128.73" r="5.6"/>
  <circle class="cls-4" cx="346.04" cy="231.73" r="5.6"/>
  <circle class="cls-4" cx="189.24" cy="231.73" r="5.6"/>
  <circle class="cls-2" cx="472.46" cy="183.14" r="5.6"/>
  <circle class="cls-4" cx="184.46" cy="183.14" r="5.6"/>
  <circle class="cls-4" cx="290.99" cy="128.73" r="5.6"/>
  <circle class="cls-2" cx="320.84" cy="231.73" r="5.6"/>
  <circle class="cls-4" cx="174.19" cy="231.73" r="5.6"/>
  <circle class="cls-4" cx="457.26" cy="183.14" r="5.6"/>
  <circle class="cls-4" cx="169.26" cy="183.14" r="5.6"/>
  <circle class="cls-4" cx="275.79" cy="128.73" r="5.6"/>
  <circle class="cls-2" cx="305.64" cy="231.73" r="5.6"/>
  <circle class="cls-4" cx="148.99" cy="231.73" r="5.6"/>
  <circle class="cls-4" cx="442.06" cy="183.14" r="5.6"/>
  <circle class="cls-2" cx="144.06" cy="183.14" r="5.6"/>
  <circle class="cls-4" cx="260.59" cy="128.73" r="5.6"/>
  <circle class="cls-2" cx="523.24" cy="231.73" r="5.6"/>
  <circle class="cls-4" cx="447.24" cy="231.73" r="5.6"/>
  <circle class="cls-4" cx="290.44" cy="231.73" r="5.6"/>
  <circle class="cls-2" cx="123.79" cy="231.73" r="5.6"/>
  <circle class="cls-4" cx="426.86" cy="183.14" r="5.6"/>
  <circle class="cls-2" cx="128.86" cy="183.14" r="5.6"/>
  <circle class="cls-4" cx="245.39" cy="128.73" r="5.6"/>
  <circle class="cls-4" cx="230.19" cy="128.73" r="5.6"/>
  <circle class="cls-4" cx="108.59" cy="231.73" r="5.6"/>
  <circle class="cls-2" cx="401.66" cy="183.14" r="5.6"/>
  <circle class="cls-4" cx="113.66" cy="183.14" r="5.6"/>
  <circle class="cls-4" cx="214.99" cy="128.73" r="5.6"/>
  <circle class="cls-4" cx="98.46" cy="183.14" r="5.6"/>
  <circle class="cls-4" cx="199.79" cy="128.73" r="5.6"/>
  <circle class="cls-4" cx="386.46" cy="183.14" r="5.6"/>
  <circle class="cls-4" cx="83.26" cy="183.14" r="5.6"/>
  <circle class="cls-4" cx="184.59" cy="128.73" r="5.6"/>
  <circle class="cls-2" cx="68.33" cy="258.73" r="5.6"/>
  <circle class="cls-2" cx="508.04" cy="231.73" r="5.6"/>
  <circle class="cls-2" cx="422.04" cy="231.73" r="5.6"/>
  <circle class="cls-4" cx="275.24" cy="231.73" r="5.6"/>
  <circle class="cls-4" cx="93.39" cy="231.73" r="5.6"/>
  <circle class="cls-4" cx="371.26" cy="183.14" r="5.6"/>
  <circle class="cls-4" cx="68.06" cy="183.14" r="5.6"/>
  <circle class="cls-2" cx="159.39" cy="128.73" r="5.6"/>
  <circle class="cls-2" cx="169.53" cy="258.73" r="5.6"/>
  <circle class="cls-2" cx="154.33" cy="258.73" r="5.6"/>
  <circle class="cls-4" cx="108.73" cy="258.73" r="5.6"/>
  <circle class="cls-2" cx="553.64" cy="231.73" r="5.6"/>
  <circle class="cls-2" cx="492.84" cy="231.73" r="5.6"/>
  <circle class="cls-2" cx="406.84" cy="231.73" r="5.6"/>
  <circle class="cls-4" cx="260.04" cy="231.73" r="5.6"/>
  <circle class="cls-4" cx="68.19" cy="231.73" r="5.6"/>
  <circle class="cls-4" cx="346.06" cy="183.14" r="5.6"/>
  <circle class="cls-2" cx="478.19" cy="128.73" r="5.6"/>
  <circle class="cls-2" cx="144.19" cy="128.73" r="5.6"/>
  <circle class="cls-4" cx="139.13" cy="258.73" r="5.6"/>
  <circle class="cls-2" cx="83.53" cy="258.73" r="5.6"/>
  <circle class="cls-2" cx="538.44" cy="231.73" r="5.6"/>
  <circle class="cls-4" cx="477.64" cy="231.73" r="5.6"/>
  <circle class="cls-2" cx="391.64" cy="231.73" r="5.6"/>
  <circle class="cls-4" cx="244.84" cy="231.73" r="5.6"/>
  <circle class="cls-4" cx="568.46" cy="183.14" r="5.6"/>
  <circle class="cls-2" cx="320.86" cy="183.14" r="5.6"/>
  <circle class="cls-4" cx="462.99" cy="128.73" r="5.6"/>
  <circle class="cls-2" cx="128.99" cy="128.73" r="5.6"/>
  <circle class="cls-4" cx="553.26" cy="183.14" r="5.6"/>
  <circle class="cls-4" cx="305.66" cy="183.14" r="5.6"/>
  <circle class="cls-4" cx="447.79" cy="128.73" r="5.6"/>
  <circle class="cls-2" cx="113.79" cy="128.73" r="5.6"/>
  <circle class="cls-4" cx="462.44" cy="231.73" r="5.6"/>
  <circle class="cls-2" cx="376.44" cy="231.73" r="5.6"/>
  <circle class="cls-2" cx="219.64" cy="231.73" r="5.6"/>
  <circle class="cls-4" cx="528.06" cy="183.14" r="5.6"/>
  <circle class="cls-2" cx="280.46" cy="183.14" r="5.6"/>
  <circle class="cls-4" cx="432.59" cy="128.73" r="5.6"/>
  <circle class="cls-2" cx="98.59" cy="128.73" r="5.6"/>
  <circle class="cls-2" cx="407.39" cy="128.73" r="5.6"/>
  <circle class="cls-2" cx="83.39" cy="128.73" r="5.6"/>
  <circle class="cls-2" cx="68.19" cy="128.73" r="5.6"/>
  <circle class="cls-4" cx="265.26" cy="183.14" r="5.6"/>
  <circle class="cls-2" cx="392.19" cy="128.73" r="5.6"/>
  <circle class="cls-2" cx="376.99" cy="128.73" r="5.6"/>
  <circle class="cls-4" cx="478.47" cy="101.73" r="5.6"/>
  <circle class="cls-4" cx="463.27" cy="101.73" r="5.6"/>
  <circle class="cls-2" cx="438.07" cy="101.73" r="5.6"/>
  <circle class="cls-2" cx="422.87" cy="101.73" r="5.6"/>
  <circle class="cls-4" cx="407.67" cy="101.73" r="5.6"/>
  <circle class="cls-4" cx="392.47" cy="101.73" r="5.6"/>
  <circle class="cls-4" cx="377.27" cy="101.73" r="5.6"/>
  <circle class="cls-4" cx="362.07" cy="101.73" r="5.6"/>
  <circle class="cls-4" cx="346.87" cy="101.73" r="5.6"/>
  <circle class="cls-4" cx="331.67" cy="101.73" r="5.6"/>
  <circle class="cls-4" cx="316.47" cy="101.73" r="5.6"/>
  <circle class="cls-4" cx="301.27" cy="101.73" r="5.6"/>
  <circle class="cls-4" cx="286.07" cy="101.73" r="5.6"/>
  <circle class="cls-2" cx="260.87" cy="101.73" r="5.6"/>
  <circle class="cls-4" cx="245.67" cy="101.73" r="5.6"/>
  <circle class="cls-4" cx="230.47" cy="101.73" r="5.6"/>
  <circle class="cls-4" cx="215.27" cy="101.73" r="5.6"/>
  <circle class="cls-4" cx="200.07" cy="101.73" r="5.6"/>
  <circle class="cls-2" cx="174.87" cy="101.73" r="5.6"/>
  <circle class="cls-2" cx="159.67" cy="101.73" r="5.6"/>
  <circle class="cls-4" cx="144.47" cy="101.73" r="5.6"/>
  <circle class="cls-4" cx="129.27" cy="101.73" r="5.6"/>
  <circle class="cls-4" cx="539.27" cy="101.73" r="5.6"/>
  <circle class="cls-4" cx="114.07" cy="101.73" r="5.6"/>
  <circle class="cls-4" cx="524.07" cy="101.73" r="5.6"/>
  <circle class="cls-4" cx="98.87" cy="101.73" r="5.6"/>
  <circle class="cls-4" cx="508.87" cy="101.73" r="5.6"/>
  <circle class="cls-4" cx="83.67" cy="101.73" r="5.6"/>
  <circle class="cls-4" cx="493.67" cy="101.73" r="5.6"/>
  <circle class="cls-4" cx="68.47" cy="101.73" r="5.6"/>
  <circle class="cls-4" cx="123.93" cy="258.73" r="5.6"/>
</svg>