<?xml version="1.0" encoding="UTF-8"?>
<svg id="Layer_1" data-name="Layer 1" xmlns="http://www.w3.org/2000/svg" viewBox="0 0 403 299.8">
  <defs>
    <style>
      .cls-1 {
        fill: #818d95;
      }

      .cls-2 {
        fill: #bcc9d1;
      }

      .cls-3 {
        fill: #3e5768;
      }

      .cls-4 {
        fill: #46494c;
      }

      .cls-5 {
        fill: #4c5c68;
      }

      .cls-6 {
        fill: none;
        stroke: #818d95;
        stroke-miterlimit: 10;
      }

      .cls-7 {
        opacity: .7;
      }

      .cls-8 {
        isolation: isolate;
      }
    </style>
  </defs>
  <g class="cls-8">
    <path d="M7.35,21.25h-1.51v4.99H3.46V13.8h3.71c3.29,0,4.93,1.22,4.93,3.65,0,.83-.2,1.51-.61,2.05-.41,.54-1.04,.98-1.91,1.31l3.26,5.42h-2.74l-2.75-4.99Zm2.39-11.72l.88,1.01-2.5,2.16h-1.44l-2.5-2.16,.88-1.01,2.34,1.49,2.34-1.49Zm-3.91,10.01h1.48c.76,0,1.33-.17,1.72-.5,.39-.33,.58-.86,.58-1.59,0-.67-.2-1.16-.6-1.47s-1.04-.46-1.9-.46h-1.28v4.01Z"/>
    <path d="M21.41,24.54c.11,.17,.3,.31,.55,.41l-.49,1.53c-.54-.05-.98-.18-1.32-.4-.34-.22-.6-.55-.78-.99-.32,.48-.73,.84-1.21,1.07s-1.03,.35-1.63,.35c-.95,0-1.7-.27-2.25-.81s-.83-1.25-.83-2.12c0-1.03,.38-1.82,1.12-2.37,.75-.55,1.82-.82,3.21-.82h1.19v-.54c0-.61-.14-1.04-.42-1.29-.28-.25-.74-.37-1.36-.37-.7,0-1.54,.17-2.52,.5l-.54-1.57c1.19-.46,2.34-.68,3.46-.68,2.44,0,3.65,1.09,3.65,3.28v4c0,.37,.06,.65,.17,.82Zm-2.44-13.06l.94,1.8-4.07,1.62-.65-1.17,3.78-2.25Zm0,12.19v-1.93h-.95c-1.49,0-2.23,.55-2.23,1.66,0,.46,.11,.81,.34,1.06,.23,.25,.56,.38,1.01,.38,.78,0,1.39-.39,1.84-1.17Z"/>
    <path d="M32.04,12.9v13.34h-2.03l-.16-1.21c-.3,.46-.68,.82-1.14,1.08s-.99,.4-1.57,.4c-1.16,0-2.06-.45-2.68-1.35s-.94-2.12-.94-3.67c0-.97,.16-1.84,.47-2.6,.31-.76,.76-1.36,1.34-1.79s1.26-.65,2.03-.65c.91,0,1.71,.34,2.39,1.03v-4.82l2.3,.25Zm-3.19,11.56c.31-.2,.61-.51,.88-.93v-4.36c-.28-.34-.55-.59-.84-.76s-.61-.25-.98-.25c-.61,0-1.1,.27-1.45,.82-.35,.55-.53,1.37-.53,2.48,0,1.18,.16,2.02,.47,2.53,.31,.51,.77,.77,1.37,.77,.41,0,.77-.1,1.08-.3Z"/>
    <path d="M46.84,17.77c.62,.88,.94,2.12,.94,3.7,0,.98-.15,1.86-.46,2.62-.31,.76-.74,1.36-1.3,1.78-.56,.43-1.23,.64-2,.64-.52,0-.99-.11-1.41-.32-.43-.22-.79-.52-1.11-.92l-.14,.97h-2.03V12.9l2.3-.25v5.15c.31-.43,.69-.77,1.14-1s.95-.35,1.49-.35c1.1,0,1.97,.44,2.59,1.32Zm-2,6.21c.35-.53,.52-1.37,.52-2.51,0-1.2-.16-2.05-.49-2.55s-.78-.75-1.37-.75c-.73,0-1.36,.43-1.89,1.3v4.21c.2,.35,.46,.62,.76,.81,.31,.19,.64,.29,1,.29,.62,0,1.11-.27,1.46-.8Z"/>
    <path d="M52.56,11.48l.94,1.8-4.07,1.62-.65-1.17,3.78-2.25Zm-.22,5.24v9.52h-2.3v-9.52h2.3Z"/>
    <path d="M55.88,25.87c-.41-.43-.62-1.03-.62-1.81V12.9l2.3-.25v11.34c0,.44,.18,.67,.54,.67,.18,0,.36-.03,.54-.09l.49,1.62c-.48,.22-.99,.32-1.53,.32-.73,0-1.3-.21-1.72-.64Z"/>
    <path d="M68.33,22.19h-5.98c.07,.92,.31,1.58,.72,1.98s.95,.59,1.62,.59c.42,0,.82-.07,1.19-.21,.37-.14,.77-.35,1.19-.64l.95,1.31c-1.06,.85-2.23,1.28-3.53,1.28-1.45,0-2.57-.44-3.36-1.33-.79-.89-1.18-2.1-1.18-3.64,0-.97,.17-1.84,.5-2.62s.82-1.38,1.46-1.82c.64-.44,1.39-.66,2.27-.66,1.33,0,2.36,.42,3.1,1.27,.73,.85,1.1,2.02,1.1,3.54,0,.12-.02,.43-.05,.94Zm-2.72-10.71l.94,1.8-4.07,1.62-.65-1.17,3.78-2.25Zm.49,9.11c0-1.67-.62-2.5-1.85-2.5-.56,0-1,.21-1.32,.62-.32,.41-.51,1.08-.57,1.99h3.74v-.11Z"/>
    <path d="M77.51,17.22c.48,.52,.72,1.22,.72,2.12v6.89h-2.3v-6.53c0-.56-.1-.96-.3-1.19-.2-.23-.49-.34-.87-.34s-.74,.12-1.06,.37-.64,.6-.94,1.05v6.64h-2.3V12.92l2.3-.23v5.17c.77-.94,1.69-1.4,2.77-1.4,.84,0,1.5,.26,1.98,.77Z"/>
    <path d="M88.09,17.79c.79,.89,1.18,2.12,1.18,3.68,0,1-.18,1.88-.54,2.64-.36,.76-.88,1.35-1.55,1.77-.67,.42-1.47,.63-2.39,.63-1.4,0-2.5-.45-3.29-1.34s-1.19-2.13-1.19-3.7c0-1,.18-1.87,.54-2.63,.36-.76,.88-1.34,1.56-1.76,.68-.42,1.48-.63,2.4-.63,1.4,0,2.5,.45,3.28,1.34Zm-5.35,3.68c0,1.13,.17,1.96,.51,2.49s.86,.8,1.54,.8,1.2-.27,1.54-.81,.51-1.37,.51-2.48-.17-1.94-.51-2.48c-.34-.53-.85-.8-1.52-.8-1.38,0-2.07,1.09-2.07,3.28Z"/>
    <path d="M96.46,25.87c-.41-.43-.62-1.03-.62-1.81V12.9l2.3-.25v11.34c0,.44,.18,.67,.54,.67,.18,0,.36-.03,.54-.09l.49,1.62c-.48,.22-.99,.32-1.53,.32-.73,0-1.3-.21-1.72-.64Z"/>
    <path d="M108.7,16.72l-3.1,9.52h-2.75l-3.15-9.52h2.5l2.03,7.67,2.09-7.67h2.38Z"/>
    <path d="M116.99,24.54c.11,.17,.3,.31,.55,.41l-.49,1.53c-.54-.05-.98-.18-1.32-.4-.34-.22-.6-.55-.78-.99-.32,.48-.73,.84-1.21,1.07s-1.03,.35-1.63,.35c-.95,0-1.7-.27-2.25-.81s-.83-1.25-.83-2.12c0-1.03,.38-1.82,1.12-2.37,.75-.55,1.82-.82,3.21-.82h1.19v-.54c0-.61-.14-1.04-.42-1.29-.28-.25-.74-.37-1.36-.37-.7,0-1.54,.17-2.52,.5l-.54-1.57c1.19-.46,2.34-.68,3.46-.68,2.44,0,3.65,1.09,3.65,3.28v4c0,.37,.06,.65,.17,.82Zm-2.44-.87v-1.93h-.95c-1.49,0-2.23,.55-2.23,1.66,0,.46,.11,.81,.34,1.06,.23,.25,.56,.38,1.01,.38,.78,0,1.39-.39,1.84-1.17Z"/>
  </g>
  <g>
    <path d="M10.27,49.43c0,1.02-.29,1.84-.87,2.45-.58,.61-1.42,.92-2.5,.92s-1.94-.31-2.51-.92c-.58-.61-.86-1.43-.86-2.46v-7.06h.9v6.99c0,.86,.2,1.52,.61,1.98,.41,.46,1.03,.69,1.87,.69s1.46-.23,1.86-.7c.4-.46,.6-1.12,.6-1.97v-6.99h.92v7.06Z"/>
    <path d="M18.97,41.6v11.04h-.75l-.1-1.2c-.54,.91-1.33,1.37-2.36,1.37-.91,0-1.63-.36-2.15-1.09-.52-.73-.79-1.71-.79-2.96,0-.81,.12-1.52,.37-2.15s.6-1.1,1.07-1.46,1.01-.52,1.64-.52c.89,0,1.62,.35,2.21,1.06v-4.2l.87,.1Zm-1.81,10.12c.34-.24,.66-.6,.94-1.09v-4.1c-.56-.79-1.25-1.19-2.06-1.19-.71,0-1.27,.29-1.69,.89-.42,.59-.62,1.42-.61,2.5,0,1.08,.19,1.91,.57,2.48,.38,.58,.9,.86,1.58,.86,.5,0,.92-.12,1.27-.36Z"/>
    <path d="M27.68,49.06h-5.24c.05,1.02,.29,1.78,.73,2.27,.44,.5,1.01,.74,1.72,.74,.41,0,.77-.06,1.09-.19,.31-.12,.66-.32,1.03-.59l.41,.56c-.39,.32-.79,.56-1.2,.72-.41,.16-.87,.24-1.37,.24-1.04,0-1.86-.35-2.45-1.06s-.88-1.7-.88-2.96c0-.83,.13-1.56,.38-2.18,.25-.62,.62-1.11,1.09-1.46,.47-.34,1.03-.52,1.66-.52,1,0,1.76,.34,2.28,1.01,.52,.68,.78,1.6,.78,2.78,0,.22-.01,.43-.03,.63Zm-.83-.9c0-.88-.18-1.57-.55-2.06-.37-.5-.91-.74-1.63-.74-.65,0-1.17,.25-1.58,.75-.4,.5-.62,1.26-.66,2.28h4.41v-.23Zm-.34-7.05l.39,.45-1.93,1.59h-.54l-1.95-1.59,.39-.45,1.83,1.26,1.82-1.26Z"/>
    <path d="M30.48,52.43c-.25-.25-.37-.62-.37-1.11v-9.72l.87-.1v9.79c0,.51,.21,.77,.63,.77,.21,0,.39-.04,.54-.1l.24,.65c-.28,.14-.58,.21-.9,.21-.43,0-.77-.12-1.01-.38Z"/>
    <path d="M39.91,49.06h-5.24c.05,1.02,.29,1.78,.73,2.27,.44,.5,1.01,.74,1.72,.74,.41,0,.77-.06,1.09-.19,.31-.12,.66-.32,1.03-.59l.41,.56c-.39,.32-.79,.56-1.2,.72-.41,.16-.87,.24-1.37,.24-1.04,0-1.86-.35-2.45-1.06s-.88-1.7-.88-2.96c0-.83,.13-1.56,.38-2.18,.25-.62,.62-1.11,1.09-1.46,.47-.34,1.03-.52,1.66-.52,1,0,1.76,.34,2.28,1.01,.52,.68,.78,1.6,.78,2.78,0,.22-.01,.43-.03,.63Zm-.83-.9c0-.88-.18-1.57-.55-2.06-.37-.5-.91-.74-1.63-.74-.65,0-1.17,.25-1.58,.75-.4,.5-.62,1.26-.66,2.28h4.41v-.23Z"/>
    <path d="M47.5,45.26c.38,.42,.56,1.01,.56,1.77v5.61h-.87v-5.49c0-.63-.12-1.09-.38-1.38s-.62-.44-1.11-.44-.94,.14-1.33,.41c-.38,.28-.75,.68-1.1,1.21v5.69h-.87v-7.85h.75l.09,1.34c.32-.47,.7-.84,1.14-1.1,.44-.27,.93-.4,1.48-.4,.71,0,1.25,.21,1.63,.63Z"/>
    <path class="cls-5" d="M60.28,42.55v1.35l-3.73,8.94-1.76-.57,3.51-8.23h-4.26v-1.49h6.24Z"/>
    <path class="cls-5" d="M67.01,43.97h-3.78v2.5c.5-.25,1.01-.38,1.53-.38,.56,0,1.06,.13,1.5,.39s.78,.64,1.03,1.12,.37,1.07,.37,1.74-.16,1.3-.47,1.83c-.31,.53-.75,.94-1.32,1.24-.57,.29-1.23,.44-1.98,.44-.67,0-1.26-.12-1.78-.37-.52-.24-.98-.6-1.4-1.06l1.09-1.02c.58,.64,1.26,.96,2.04,.96,.57,0,1.02-.18,1.34-.53,.32-.35,.49-.85,.49-1.5,0-1.25-.54-1.88-1.62-1.88-.23,0-.45,.03-.64,.08-.2,.06-.42,.14-.66,.26h-1.37v-5.28h5.85l-.22,1.43Z"/>
    <path class="cls-5" d="M79.11,45.6c.65,.75,.98,1.77,.98,3.07,0,.83-.15,1.56-.45,2.2-.3,.63-.73,1.13-1.29,1.48-.56,.35-1.22,.52-2,.52-1.17,0-2.08-.37-2.75-1.12-.66-.74-.99-1.77-.99-3.08,0-.83,.15-1.56,.45-2.19s.73-1.12,1.3-1.47c.56-.35,1.23-.53,2-.53,1.17,0,2.08,.37,2.74,1.12Zm-4.46,3.07c0,.94,.14,1.63,.43,2.08s.71,.67,1.28,.67,1-.23,1.28-.67c.29-.45,.43-1.14,.43-2.07s-.14-1.62-.43-2.06c-.28-.44-.71-.67-1.27-.67-1.15,0-1.72,.91-1.72,2.73Z"/>
    <path class="cls-5" d="M87.22,45.43l-.75,1.12c-.68-.43-1.35-.65-2-.65-.38,0-.68,.07-.89,.22-.21,.15-.31,.34-.31,.58,0,.18,.04,.33,.13,.45,.09,.12,.25,.23,.49,.34,.24,.1,.58,.22,1.04,.35,.86,.23,1.5,.53,1.91,.92,.42,.38,.62,.91,.62,1.59,0,.79-.32,1.41-.96,1.85-.64,.44-1.44,.67-2.39,.67-.65,0-1.24-.1-1.78-.3-.54-.2-1-.47-1.39-.82l.96-1.08c.69,.52,1.41,.78,2.16,.78,.43,0,.77-.08,1.03-.25,.26-.17,.38-.4,.38-.71,0-.23-.05-.41-.14-.55-.09-.13-.26-.25-.51-.36s-.63-.23-1.15-.38c-.81-.22-1.41-.53-1.79-.92s-.57-.89-.57-1.48c0-.44,.13-.83,.38-1.19,.25-.35,.62-.62,1.08-.82s1-.3,1.6-.3c1.07,0,2.01,.31,2.82,.95Z"/>
    <path class="cls-5" d="M95.01,45.6c.65,.75,.98,1.77,.98,3.07,0,.83-.15,1.56-.45,2.2-.3,.63-.73,1.13-1.29,1.48-.56,.35-1.22,.52-2,.52-1.17,0-2.08-.37-2.75-1.12-.66-.74-.99-1.77-.99-3.08,0-.83,.15-1.56,.45-2.19s.73-1.12,1.3-1.47c.56-.35,1.23-.53,2-.53,1.17,0,2.08,.37,2.74,1.12Zm-4.46,3.07c0,.94,.14,1.63,.43,2.08s.71,.67,1.28,.67,1-.23,1.28-.67c.29-.45,.43-1.14,.43-2.07s-.14-1.62-.43-2.06c-.28-.44-.71-.67-1.27-.67-1.15,0-1.72,.91-1.72,2.73Z"/>
    <path class="cls-5" d="M104.06,45.58c.52,.74,.78,1.76,.78,3.08,0,.82-.13,1.55-.38,2.18-.25,.64-.62,1.13-1.09,1.48-.47,.35-1.03,.53-1.67,.53-.43,0-.82-.09-1.18-.27-.36-.18-.66-.44-.92-.77l-.12,.81h-1.69v-11.12l1.92-.21v4.29c.26-.36,.58-.64,.95-.83,.38-.19,.79-.29,1.24-.29,.92,0,1.64,.37,2.16,1.1Zm-1.67,5.18c.29-.44,.44-1.14,.44-2.09,0-1-.14-1.71-.41-2.12-.27-.41-.65-.62-1.14-.62-.61,0-1.14,.36-1.58,1.08v3.51c.17,.29,.38,.52,.64,.67,.25,.16,.53,.24,.83,.24,.52,0,.92-.22,1.21-.67Z"/>
    <path class="cls-5" d="M112.59,51.23c.1,.15,.25,.26,.46,.34l-.41,1.27c-.45-.04-.82-.15-1.1-.33-.29-.18-.5-.46-.65-.83-.27,.4-.61,.7-1.01,.89-.4,.19-.86,.29-1.36,.29-.79,0-1.42-.23-1.88-.68-.46-.45-.69-1.04-.69-1.77,0-.86,.31-1.52,.94-1.97,.62-.46,1.52-.68,2.68-.68h.99v-.45c0-.51-.12-.87-.35-1.07s-.61-.31-1.13-.31c-.58,0-1.28,.14-2.1,.42l-.45-1.3c.99-.38,1.95-.57,2.88-.57,2.03,0,3.04,.91,3.04,2.73v3.33c0,.31,.05,.54,.14,.68Zm-2.03-10.88l.78,1.5-3.39,1.35-.54-.97,3.15-1.88Zm0,10.15v-1.6h-.79c-1.24,0-1.86,.46-1.86,1.38,0,.38,.1,.68,.29,.89,.19,.21,.47,.31,.84,.31,.65,0,1.16-.32,1.53-.98Z"/>
    <path class="cls-5" d="M124.72,45.14c.38,.44,.57,1.02,.57,1.76v5.75h-1.92v-5.44c0-.85-.29-1.28-.87-1.28-.31,0-.58,.1-.8,.29-.22,.2-.46,.5-.7,.91v5.52h-1.92v-5.44c0-.85-.29-1.28-.87-1.28-.32,0-.59,.1-.82,.29-.22,.2-.46,.5-.7,.91v5.52h-1.92v-7.94h1.67l.15,1.04c.6-.84,1.37-1.26,2.29-1.26,.46,0,.86,.12,1.19,.35,.33,.24,.58,.56,.73,.98,.32-.43,.67-.76,1.06-.99s.83-.35,1.33-.35c.64,0,1.15,.22,1.53,.65Z"/>
    <path class="cls-5" d="M137.54,45.58c.52,.74,.78,1.76,.78,3.08,0,.82-.13,1.55-.38,2.18-.25,.64-.62,1.13-1.09,1.48-.47,.35-1.03,.53-1.67,.53-.43,0-.82-.09-1.18-.27-.36-.18-.66-.44-.92-.77l-.12,.81h-1.69v-11.12l1.92-.21v4.29c.26-.36,.58-.64,.95-.83,.38-.19,.79-.29,1.24-.29,.92,0,1.64,.37,2.16,1.1Zm-1.67,5.18c.29-.44,.44-1.14,.44-2.09,0-1-.14-1.71-.41-2.12-.27-.41-.65-.62-1.14-.62-.61,0-1.14,.36-1.58,1.08v3.51c.17,.29,.38,.52,.64,.67,.25,.16,.53,.24,.83,.24,.52,0,.92-.22,1.21-.67Z"/>
    <path class="cls-5" d="M146.67,49.27h-4.98c.06,.77,.26,1.32,.6,1.65s.79,.5,1.35,.5c.35,0,.68-.06,.99-.17,.31-.12,.64-.29,.99-.53l.79,1.1c-.88,.71-1.86,1.06-2.94,1.06-1.21,0-2.14-.37-2.8-1.11-.66-.74-.98-1.75-.98-3.03,0-.81,.14-1.54,.42-2.18,.28-.65,.68-1.15,1.21-1.51,.53-.37,1.16-.55,1.89-.55,1.11,0,1.97,.35,2.58,1.06,.61,.71,.92,1.69,.92,2.95,0,.1-.01,.36-.04,.78Zm-1.46-8.62l.74,.84-2.08,1.88h-1.2l-2.08-1.88,.73-.84,1.95,1.32,1.95-1.32Zm-.41,7.29c0-1.39-.51-2.08-1.54-2.08-.47,0-.84,.17-1.1,.52-.26,.34-.42,.9-.47,1.66h3.12v-.09Z"/>
    <path class="cls-5" d="M154.33,45.13c.4,.43,.6,1.02,.6,1.77v5.75h-1.92v-5.44c0-.47-.08-.8-.25-.99s-.41-.29-.73-.29-.62,.1-.88,.31c-.27,.21-.53,.5-.78,.88v5.54h-1.92v-11.1l1.92-.19v4.3c.64-.78,1.41-1.17,2.31-1.17,.7,0,1.25,.22,1.65,.65Z"/>
    <path class="cls-5" d="M163.63,49.27h-4.98c.06,.77,.26,1.32,.6,1.65s.79,.5,1.35,.5c.35,0,.68-.06,.99-.17,.31-.12,.64-.29,.99-.53l.79,1.1c-.88,.71-1.86,1.06-2.94,1.06-1.21,0-2.14-.37-2.8-1.11-.66-.74-.98-1.75-.98-3.03,0-.81,.14-1.54,.42-2.18,.28-.65,.68-1.15,1.21-1.51,.53-.37,1.16-.55,1.89-.55,1.11,0,1.97,.35,2.58,1.06,.61,.71,.92,1.69,.92,2.95,0,.1-.01,.36-.04,.78Zm-1.86-1.33c0-1.39-.51-2.08-1.54-2.08-.47,0-.84,.17-1.1,.52-.26,.34-.42,.9-.47,1.66h3.12v-.09Z"/>
    <path class="cls-5" d="M175.34,45.14c.38,.44,.57,1.02,.57,1.76v5.75h-1.92v-5.44c0-.85-.29-1.28-.87-1.28-.31,0-.58,.1-.8,.29-.22,.2-.46,.5-.7,.91v5.52h-1.92v-5.44c0-.85-.29-1.28-.87-1.28-.32,0-.59,.1-.82,.29-.22,.2-.46,.5-.7,.91v5.52h-1.92v-7.94h1.67l.15,1.04c.6-.84,1.37-1.26,2.29-1.26,.46,0,.86,.12,1.19,.35,.33,.24,.58,.56,.73,.98,.32-.43,.67-.76,1.06-.99s.83-.35,1.33-.35c.64,0,1.15,.22,1.53,.65Z"/>
    <path class="cls-5" d="M187.05,44.71v1.38l-3.84,5.06h3.92l-.19,1.5h-5.93v-1.38l3.86-5.06h-3.53v-1.5h5.72Zm-.98-4.06l.74,.84-2.08,1.88h-1.2l-2.08-1.88,.74-.84,1.95,1.32,1.95-1.32Z"/>
    <path class="cls-5" d="M190.45,41.02c.22,.23,.34,.5,.34,.83s-.11,.61-.34,.83c-.22,.22-.52,.33-.88,.33s-.64-.11-.86-.33c-.22-.22-.34-.5-.34-.83s.11-.61,.34-.83c.23-.22,.51-.34,.86-.34s.65,.11,.88,.34Zm.1,3.68v7.94h-1.92v-7.94h1.92Z"/>
    <path class="cls-5" d="M199.23,44.71l-2.58,7.94h-2.29l-2.62-7.94h2.08l1.69,6.39,1.74-6.39h1.98Z"/>
    <path class="cls-5" d="M206.31,45.6c.65,.75,.98,1.77,.98,3.07,0,.83-.15,1.56-.45,2.2-.3,.63-.73,1.13-1.29,1.48-.56,.35-1.22,.52-2,.52-1.17,0-2.08-.37-2.75-1.12-.66-.74-.99-1.77-.99-3.08,0-.83,.15-1.56,.45-2.19s.73-1.12,1.3-1.47c.56-.35,1.23-.53,2-.53,1.17,0,2.08,.37,2.74,1.12Zm-4.46,3.07c0,.94,.14,1.63,.43,2.08s.71,.67,1.28,.67,1-.23,1.28-.67c.29-.45,.43-1.14,.43-2.07s-.14-1.62-.43-2.06c-.28-.44-.71-.67-1.27-.67-1.15,0-1.72,.91-1.72,2.73Z"/>
    <path class="cls-5" d="M213.63,52.27c-.28,.2-.59,.35-.94,.45-.34,.1-.7,.15-1.06,.15-.78-.01-1.37-.23-1.78-.67-.41-.44-.61-1.08-.61-1.93v-4.19h-1.25v-1.38h1.25v-1.75l1.92-.23v1.98h1.84l-.2,1.38h-1.65v4.14c0,.39,.07,.67,.2,.84,.13,.17,.35,.26,.64,.26s.6-.1,.95-.29l.67,1.23Z"/>
    <path class="cls-5" d="M220.57,51.23c.1,.15,.25,.26,.46,.34l-.41,1.27c-.45-.04-.82-.15-1.1-.33-.29-.18-.5-.46-.65-.83-.27,.4-.61,.7-1.01,.89-.4,.19-.86,.29-1.36,.29-.79,0-1.42-.23-1.88-.68-.46-.45-.69-1.04-.69-1.77,0-.86,.31-1.52,.94-1.97,.62-.46,1.52-.68,2.68-.68h.99v-.45c0-.51-.12-.87-.35-1.07s-.61-.31-1.13-.31c-.58,0-1.28,.14-2.1,.42l-.45-1.3c.99-.38,1.95-.57,2.88-.57,2.03,0,3.04,.91,3.04,2.73v3.33c0,.31,.05,.54,.14,.68Zm-2.03-.73v-1.6h-.79c-1.24,0-1.86,.46-1.86,1.38,0,.38,.1,.68,.29,.89,.19,.21,.47,.31,.84,.31,.65,0,1.16-.32,1.53-.98Z"/>
    <path d="M249.15,51.79c.11,.18,.27,.31,.5,.4l-.2,.62c-.36-.07-.64-.21-.83-.41-.2-.2-.32-.5-.38-.91-.54,.88-1.36,1.32-2.45,1.32-.75,0-1.34-.21-1.78-.64-.43-.42-.65-.99-.65-1.7,0-.81,.29-1.44,.86-1.88s1.37-.66,2.39-.66h1.5v-.77c0-.63-.14-1.09-.42-1.37-.28-.28-.75-.43-1.39-.43-.6,0-1.31,.15-2.13,.45l-.23-.66c.88-.35,1.71-.52,2.48-.52,1.71,0,2.56,.83,2.56,2.49v3.78c0,.41,.05,.71,.16,.89Zm-1.03-1.06v-2.16h-1.36c-.8,0-1.41,.16-1.83,.46-.42,.31-.63,.78-.63,1.4,0,.54,.15,.96,.44,1.25s.7,.44,1.21,.44c.94,0,1.67-.46,2.17-1.38Z"/>
    <path class="cls-1" d="M262.62,48.86v1.47h-1.21v2.31h-1.88v-2.31h-4.29v-1.32l2.94-6.66,1.64,.62-2.58,5.9h2.31l.2-2.54h1.67v2.54h1.21Z"/>
    <path class="cls-1" d="M269.43,43.97h-3.78v2.5c.5-.25,1.01-.38,1.53-.38,.56,0,1.06,.13,1.5,.39s.78,.64,1.03,1.12,.37,1.07,.37,1.74-.16,1.3-.47,1.83c-.31,.53-.75,.94-1.32,1.24-.57,.29-1.23,.44-1.98,.44-.67,0-1.26-.12-1.78-.37-.52-.24-.98-.6-1.4-1.06l1.09-1.02c.58,.64,1.26,.96,2.04,.96,.57,0,1.02-.18,1.34-.53,.32-.35,.49-.85,.49-1.5,0-1.25-.54-1.88-1.62-1.88-.23,0-.45,.03-.64,.08-.2,.06-.42,.14-.66,.26h-1.37v-5.28h5.85l-.22,1.43Z"/>
    <path class="cls-1" d="M281.53,45.6c.65,.75,.98,1.77,.98,3.07,0,.83-.15,1.56-.45,2.2-.3,.63-.73,1.13-1.29,1.48-.56,.35-1.22,.52-2,.52-1.17,0-2.08-.37-2.75-1.12-.66-.74-.99-1.77-.99-3.08,0-.83,.15-1.56,.45-2.19s.73-1.12,1.3-1.47c.56-.35,1.23-.53,2-.53,1.17,0,2.08,.37,2.74,1.12Zm-4.46,3.07c0,.94,.14,1.63,.43,2.08s.71,.67,1.28,.67,1-.23,1.28-.67c.29-.45,.43-1.14,.43-2.07s-.14-1.62-.43-2.06c-.28-.44-.71-.67-1.27-.67-1.15,0-1.72,.91-1.72,2.73Z"/>
    <path class="cls-1" d="M289.64,45.43l-.75,1.12c-.68-.43-1.35-.65-2-.65-.38,0-.68,.07-.89,.22-.21,.15-.31,.34-.31,.58,0,.18,.04,.33,.13,.45,.09,.12,.25,.23,.49,.34,.24,.1,.58,.22,1.04,.35,.86,.23,1.5,.53,1.91,.92,.42,.38,.62,.91,.62,1.59,0,.79-.32,1.41-.96,1.85-.64,.44-1.44,.67-2.39,.67-.65,0-1.24-.1-1.78-.3-.54-.2-1-.47-1.39-.82l.96-1.08c.69,.52,1.41,.78,2.16,.78,.43,0,.77-.08,1.03-.25,.26-.17,.38-.4,.38-.71,0-.23-.05-.41-.14-.55-.09-.13-.26-.25-.51-.36s-.63-.23-1.15-.38c-.81-.22-1.41-.53-1.79-.92s-.57-.89-.57-1.48c0-.44,.13-.83,.38-1.19,.25-.35,.62-.62,1.08-.82s1-.3,1.6-.3c1.07,0,2.01,.31,2.82,.95Z"/>
    <path class="cls-1" d="M297.43,45.6c.65,.75,.98,1.77,.98,3.07,0,.83-.15,1.56-.45,2.2-.3,.63-.73,1.13-1.29,1.48-.56,.35-1.22,.52-2,.52-1.17,0-2.08-.37-2.75-1.12-.66-.74-.99-1.77-.99-3.08,0-.83,.15-1.56,.45-2.19s.73-1.12,1.3-1.47c.56-.35,1.23-.53,2-.53,1.17,0,2.08,.37,2.74,1.12Zm-4.46,3.07c0,.94,.14,1.63,.43,2.08s.71,.67,1.28,.67,1-.23,1.28-.67c.29-.45,.43-1.14,.43-2.07s-.14-1.62-.43-2.06c-.28-.44-.71-.67-1.27-.67-1.15,0-1.72,.91-1.72,2.73Z"/>
    <path class="cls-1" d="M306.48,45.58c.52,.74,.78,1.76,.78,3.08,0,.82-.13,1.55-.38,2.18-.25,.64-.62,1.13-1.09,1.48-.47,.35-1.03,.53-1.67,.53-.43,0-.82-.09-1.18-.27-.36-.18-.66-.44-.92-.77l-.12,.81h-1.69v-11.12l1.92-.21v4.29c.26-.36,.58-.64,.95-.83,.38-.19,.79-.29,1.24-.29,.92,0,1.64,.37,2.16,1.1Zm-1.67,5.18c.29-.44,.44-1.14,.44-2.09,0-1-.14-1.71-.41-2.12-.27-.41-.65-.62-1.14-.62-.61,0-1.14,.36-1.58,1.08v3.51c.17,.29,.38,.52,.64,.67,.25,.16,.53,.24,.83,.24,.52,0,.92-.22,1.21-.67Z"/>
    <path class="cls-1" d="M315.01,51.23c.1,.15,.25,.26,.46,.34l-.41,1.27c-.45-.04-.82-.15-1.1-.33-.29-.18-.5-.46-.65-.83-.27,.4-.61,.7-1.01,.89-.4,.19-.86,.29-1.36,.29-.79,0-1.42-.23-1.88-.68-.46-.45-.69-1.04-.69-1.77,0-.86,.31-1.52,.94-1.97,.62-.46,1.52-.68,2.68-.68h.99v-.45c0-.51-.12-.87-.35-1.07s-.61-.31-1.13-.31c-.58,0-1.28,.14-2.1,.42l-.45-1.3c.99-.38,1.95-.57,2.88-.57,2.03,0,3.04,.91,3.04,2.73v3.33c0,.31,.05,.54,.14,.68Zm-2.03-10.88l.78,1.5-3.39,1.35-.54-.97,3.15-1.88Zm0,10.15v-1.6h-.79c-1.24,0-1.86,.46-1.86,1.38,0,.38,.1,.68,.29,.89,.19,.21,.47,.31,.84,.31,.65,0,1.16-.32,1.53-.98Z"/>
    <path class="cls-1" d="M327.14,45.14c.38,.44,.57,1.02,.57,1.76v5.75h-1.92v-5.44c0-.85-.29-1.28-.87-1.28-.31,0-.58,.1-.8,.29-.22,.2-.46,.5-.7,.91v5.52h-1.92v-5.44c0-.85-.29-1.28-.87-1.28-.32,0-.59,.1-.82,.29-.22,.2-.46,.5-.7,.91v5.52h-1.92v-7.94h1.67l.15,1.04c.6-.84,1.37-1.26,2.29-1.26,.46,0,.86,.12,1.19,.35,.33,.24,.58,.56,.73,.98,.32-.43,.67-.76,1.06-.99s.83-.35,1.33-.35c.64,0,1.15,.22,1.53,.65Z"/>
    <path class="cls-1" d="M335.52,41.02c.22,.23,.34,.5,.34,.83s-.11,.61-.34,.83c-.22,.22-.52,.33-.88,.33s-.64-.11-.86-.33c-.22-.22-.34-.5-.34-.83s.11-.61,.34-.83c.23-.22,.51-.34,.86-.34s.65,.11,.88,.34Zm.1,3.68v7.94h-1.92v-7.94h1.92Z"/>
    <path class="cls-1" d="M343.81,45.12c.39,.43,.59,1.02,.59,1.78v5.75h-1.92v-5.44c0-.47-.08-.8-.25-.99s-.41-.29-.73-.29-.63,.1-.89,.31c-.27,.21-.52,.5-.77,.89v5.52h-1.92v-7.94h1.67l.15,1.04c.65-.84,1.46-1.26,2.42-1.26,.71,0,1.26,.21,1.66,.64Z"/>
    <path class="cls-1" d="M360.33,45.14c.38,.44,.57,1.02,.57,1.76v5.75h-1.92v-5.44c0-.85-.29-1.28-.87-1.28-.31,0-.58,.1-.8,.29-.22,.2-.46,.5-.7,.91v5.52h-1.92v-5.44c0-.85-.29-1.28-.87-1.28-.32,0-.59,.1-.82,.29-.22,.2-.46,.5-.7,.91v5.52h-1.92v-7.94h1.67l.15,1.04c.6-.84,1.37-1.26,2.29-1.26,.46,0,.86,.12,1.19,.35,.33,.24,.58,.56,.73,.98,.32-.43,.67-.76,1.06-.99s.83-.35,1.33-.35c.64,0,1.15,.22,1.53,.65Z"/>
    <path class="cls-1" d="M369.6,49.27h-4.98c.06,.77,.26,1.32,.6,1.65s.79,.5,1.35,.5c.35,0,.68-.06,.99-.17,.31-.12,.64-.29,.99-.53l.79,1.1c-.88,.71-1.86,1.06-2.94,1.06-1.21,0-2.14-.37-2.8-1.11-.66-.74-.98-1.75-.98-3.03,0-.81,.14-1.54,.42-2.18,.28-.65,.68-1.15,1.21-1.51,.53-.37,1.16-.55,1.89-.55,1.11,0,1.97,.35,2.58,1.06,.61,.71,.92,1.69,.92,2.95,0,.1-.01,.36-.04,.78Zm-1.86-1.33c0-1.39-.51-2.08-1.54-2.08-.47,0-.84,.17-1.1,.52-.26,.34-.42,.9-.47,1.66h3.12v-.09Z"/>
    <path class="cls-1" d="M381.32,45.14c.38,.44,.57,1.02,.57,1.76v5.75h-1.92v-5.44c0-.85-.29-1.28-.87-1.28-.31,0-.58,.1-.8,.29-.22,.2-.46,.5-.7,.91v5.52h-1.92v-5.44c0-.85-.29-1.28-.87-1.28-.32,0-.59,.1-.82,.29-.22,.2-.46,.5-.7,.91v5.52h-1.92v-7.94h1.67l.15,1.04c.6-.84,1.37-1.26,2.29-1.26,.46,0,.86,.12,1.19,.35,.33,.24,.58,.56,.73,.98,.32-.43,.67-.76,1.06-.99s.83-.35,1.33-.35c.64,0,1.15,.22,1.53,.65Z"/>
    <path class="cls-1" d="M390.1,45.6c.65,.75,.98,1.77,.98,3.07,0,.83-.15,1.56-.45,2.2-.3,.63-.73,1.13-1.29,1.48-.56,.35-1.22,.52-2,.52-1.17,0-2.08-.37-2.75-1.12-.66-.74-.99-1.77-.99-3.08,0-.83,.15-1.56,.45-2.19s.73-1.12,1.3-1.47c.56-.35,1.23-.53,2-.53,1.17,0,2.08,.37,2.74,1.12Zm-4.46,3.07c0,.94,.14,1.63,.43,2.08s.71,.67,1.28,.67,1-.23,1.28-.67c.29-.45,.43-1.14,.43-2.07s-.14-1.62-.43-2.06c-.28-.44-.71-.67-1.27-.67-1.15,0-1.72,.91-1.72,2.73Z"/>
    <path class="cls-1" d="M397.59,44.6l-.33,1.86c-.24-.06-.48-.09-.71-.09-.47,0-.84,.17-1.11,.5-.27,.34-.49,.85-.64,1.54v4.23h-1.92v-7.94h1.67l.18,1.56c.19-.57,.46-1.01,.83-1.31,.36-.3,.77-.46,1.25-.46,.29,0,.55,.04,.79,.1Z"/>
    <path class="cls-1" d="M400.62,41.02c.22,.23,.34,.5,.34,.83s-.11,.61-.34,.83c-.22,.22-.52,.33-.88,.33s-.64-.11-.86-.33c-.22-.22-.34-.5-.34-.83s.11-.61,.34-.83c.23-.22,.51-.34,.86-.34s.65,.11,.88,.34Zm.1,3.68v7.94h-1.92v-7.94h1.92Z"/>
    <path class="cls-1" d="M409.03,51.23c.1,.15,.25,.26,.46,.34l-.41,1.27c-.45-.04-.82-.15-1.1-.33-.29-.18-.5-.46-.65-.83-.27,.4-.61,.7-1.01,.89-.4,.19-.86,.29-1.36,.29-.79,0-1.42-.23-1.88-.68-.46-.45-.69-1.04-.69-1.77,0-.86,.31-1.52,.94-1.97,.62-.46,1.52-.68,2.68-.68h.99v-.45c0-.51-.12-.87-.35-1.07s-.61-.31-1.13-.31c-.58,0-1.28,.14-2.1,.42l-.45-1.3c.99-.38,1.95-.57,2.88-.57,2.03,0,3.04,.91,3.04,2.73v3.33c0,.31,.05,.54,.14,.68Zm-2.03-.73v-1.6h-.79c-1.24,0-1.86,.46-1.86,1.38,0,.38,.1,.68,.29,.89,.19,.21,.47,.31,.84,.31,.65,0,1.16-.32,1.53-.98Z"/>
  </g>
  <circle class="cls-3" cx="229.62" cy="48.31" r="5.55"/>
  <g>
    <path class="cls-4" d="M10.26,225.23v1.43l-4.47,6.73h4.51l-.2,1.51H3.64v-1.41l4.55-6.79H4.1v-1.47h6.16Z"/>
    <path class="cls-4" d="M17.61,231.75h-4.65c.06,.72,.24,1.23,.56,1.54,.32,.31,.74,.46,1.26,.46,.33,0,.63-.05,.92-.16,.29-.11,.6-.27,.92-.5l.74,1.02c-.82,.66-1.74,.99-2.74,.99-1.13,0-2-.35-2.61-1.04s-.92-1.63-.92-2.83c0-.76,.13-1.43,.39-2.04,.26-.6,.64-1.07,1.13-1.41s1.08-.51,1.76-.51c1.04,0,1.84,.33,2.41,.99,.57,.66,.85,1.57,.85,2.75,0,.09-.01,.34-.04,.73Zm-1.74-1.25c0-1.3-.48-1.95-1.44-1.95-.44,0-.78,.16-1.03,.48-.25,.32-.39,.84-.44,1.55h2.91v-.08Z"/>
    <path class="cls-4" d="M28.55,227.89c.35,.41,.53,.95,.53,1.64v5.36h-1.79v-5.08c0-.79-.27-1.19-.81-1.19-.29,0-.54,.09-.75,.27-.21,.18-.43,.46-.65,.85v5.15h-1.79v-5.08c0-.79-.27-1.19-.81-1.19-.3,0-.55,.09-.76,.27-.21,.18-.43,.46-.65,.85v5.15h-1.79v-7.41h1.55l.14,.97c.56-.78,1.27-1.18,2.14-1.18,.43,0,.8,.11,1.11,.33,.31,.22,.54,.52,.68,.92,.3-.4,.63-.71,.99-.92,.36-.21,.77-.32,1.24-.32,.6,0,1.07,.2,1.43,.61Z"/>
    <path class="cls-4" d="M36.77,233.58c.09,.14,.23,.24,.43,.32l-.38,1.19c-.42-.04-.76-.14-1.03-.31s-.47-.42-.61-.77c-.25,.37-.57,.65-.94,.83-.38,.18-.8,.27-1.27,.27-.74,0-1.32-.21-1.75-.63-.43-.42-.64-.97-.64-1.65,0-.8,.29-1.42,.88-1.84,.58-.42,1.42-.64,2.5-.64h.92v-.42c0-.48-.11-.81-.33-1-.22-.19-.57-.29-1.06-.29-.54,0-1.2,.13-1.96,.39l-.42-1.22c.92-.35,1.82-.53,2.69-.53,1.89,0,2.84,.85,2.84,2.55v3.11c0,.29,.04,.5,.13,.64Zm-1.9-.68v-1.5h-.74c-1.16,0-1.74,.43-1.74,1.29,0,.35,.09,.63,.27,.83,.18,.2,.44,.29,.78,.29,.61,0,1.08-.3,1.43-.91Z"/>
    <path class="cls-4" d="M44.31,227.88c.37,.4,.55,.95,.55,1.66v5.36h-1.79v-5.08c0-.44-.08-.75-.23-.92-.15-.18-.38-.27-.68-.27s-.59,.1-.83,.29-.49,.47-.72,.83v5.15h-1.79v-7.41h1.55l.14,.97c.61-.78,1.36-1.18,2.25-1.18,.66,0,1.18,.2,1.55,.59Z"/>
    <path class="cls-4" d="M7.96,242.52c.42,.21,.73,.5,.95,.87,.22,.36,.33,.76,.33,1.19,0,.57-.17,1.04-.5,1.41-.33,.37-.77,.62-1.32,.75,.63,.06,1.13,.28,1.53,.67,.39,.39,.59,.92,.59,1.6,0,.54-.13,1.03-.39,1.47-.26,.44-.63,.78-1.12,1.03s-1.05,.37-1.68,.37c-.57,0-1.09-.11-1.57-.32s-.89-.52-1.25-.94l.77-.71c.31,.32,.62,.55,.94,.7s.67,.22,1.06,.22c.59,0,1.05-.17,1.39-.5s.5-.78,.5-1.34c0-.62-.16-1.05-.48-1.3-.32-.25-.78-.38-1.39-.38h-.7l.15-.99h.48c.48,0,.89-.14,1.21-.43,.32-.29,.48-.7,.48-1.22,0-.44-.14-.79-.42-1.04s-.66-.39-1.13-.39c-.36,0-.7,.07-1,.2-.3,.13-.61,.35-.93,.64l-.67-.77c.79-.74,1.68-1.11,2.67-1.11,.58,0,1.08,.11,1.49,.32Z"/>
    <path class="cls-4" d="M15.92,245.88c.39,.22,.7,.56,.94,1.01s.35,.99,.35,1.64-.13,1.25-.4,1.76-.62,.9-1.08,1.18c-.45,.28-.95,.41-1.5,.41-1.09,0-1.89-.4-2.39-1.21s-.76-1.92-.76-3.35c0-1.02,.14-1.91,.43-2.68,.28-.77,.69-1.37,1.22-1.79s1.16-.64,1.89-.64,1.35,.19,1.93,.57l-.5,.85c-.44-.27-.92-.41-1.44-.41-.67,0-1.2,.32-1.6,.97-.39,.64-.61,1.51-.64,2.59,.58-.82,1.33-1.23,2.25-1.23,.48,0,.91,.11,1.3,.34Zm-.45,4.35c.29-.41,.43-.97,.43-1.67,0-1.33-.5-2-1.51-2-.41,0-.79,.12-1.13,.34-.35,.23-.64,.54-.88,.94,.03,1.03,.19,1.78,.48,2.27s.75,.73,1.37,.73c.54,0,.96-.21,1.25-.62Z"/>
    <path class="cls-4" d="M23.4,244.9l.78,.8-1.68,1.68,1.68,1.74-.78,.78-1.68-1.74-1.74,1.74-.78-.78,1.68-1.68-1.68-1.74,.78-.8,1.68,1.75,1.74-1.75Z"/>
  </g>
  <polyline class="cls-6" points="63.01 213.06 55.01 213.06 55.01 271.91 63.01 271.91"/>
  <g>
    <path class="cls-4" d="M6.17,165.16v9.67h-1.85v-9.67h1.85Zm5.43,0l-3.35,4.38,3.61,5.29h-2.2l-3.42-5.17,3.35-4.51h2Z"/>
    <path class="cls-4" d="M13.26,174.54c-.32-.33-.48-.8-.48-1.41v-8.68l1.79-.2v8.82c0,.35,.14,.52,.42,.52,.14,0,.28-.02,.42-.07l.38,1.26c-.37,.17-.77,.25-1.19,.25-.57,0-1.01-.17-1.34-.5Z"/>
    <path class="cls-4" d="M22.52,173.51c.09,.14,.23,.24,.43,.32l-.38,1.19c-.42-.04-.76-.14-1.03-.31s-.47-.42-.61-.77c-.25,.37-.57,.65-.94,.83-.38,.18-.8,.27-1.27,.27-.74,0-1.32-.21-1.75-.63-.43-.42-.64-.97-.64-1.65,0-.8,.29-1.42,.88-1.84,.58-.42,1.42-.64,2.5-.64h.92v-.42c0-.48-.11-.81-.33-1-.22-.19-.57-.29-1.06-.29-.54,0-1.2,.13-1.96,.39l-.42-1.22c.92-.35,1.82-.53,2.69-.53,1.89,0,2.84,.85,2.84,2.55v3.11c0,.29,.04,.5,.13,.64Zm-1.9-.68v-1.5h-.74c-1.16,0-1.74,.43-1.74,1.29,0,.35,.09,.63,.27,.83,.18,.2,.44,.29,.78,.29,.61,0,1.08-.3,1.43-.91Z"/>
    <path class="cls-4" d="M30.48,174.83h-1.55l-.1-1.04c-.27,.42-.59,.73-.96,.94-.37,.21-.8,.31-1.31,.31-.66,0-1.17-.2-1.53-.61-.36-.41-.54-.97-.54-1.69v-5.32h1.79v5.1c0,.42,.07,.72,.22,.9,.14,.18,.38,.27,.69,.27,.57,0,1.07-.35,1.5-1.05v-5.21h1.79v7.41Z"/>
    <path class="cls-4" d="M37.6,168.1l-.7,1.05c-.63-.4-1.25-.6-1.86-.6-.36,0-.63,.07-.83,.2-.2,.14-.29,.32-.29,.54,0,.17,.04,.31,.13,.42,.08,.11,.24,.22,.46,.32,.22,.1,.54,.21,.97,.33,.8,.21,1.4,.5,1.79,.85,.39,.36,.58,.85,.58,1.48,0,.74-.3,1.31-.9,1.73-.6,.42-1.34,.62-2.23,.62-.61,0-1.16-.09-1.66-.28-.5-.19-.93-.44-1.29-.77l.9-1.01c.64,.49,1.32,.73,2.02,.73,.4,0,.72-.08,.96-.24,.24-.16,.36-.38,.36-.66,0-.21-.04-.38-.13-.51s-.25-.24-.48-.34c-.23-.1-.59-.22-1.07-.36-.76-.21-1.31-.49-1.67-.86-.35-.37-.53-.83-.53-1.38,0-.41,.12-.78,.36-1.11,.24-.33,.57-.58,1.01-.77,.43-.19,.93-.28,1.49-.28,1,0,1.88,.29,2.63,.88Z"/>
    <path class="cls-4" d="M7.86,182.46c.42,.22,.75,.53,.99,.92,.23,.39,.35,.82,.35,1.31,0,.57-.13,1.12-.38,1.64s-.65,1.09-1.18,1.69c-.53,.61-1.34,1.45-2.42,2.53h4.21l-.15,1.08H3.74v-1.02c1.25-1.3,2.14-2.25,2.66-2.85,.52-.6,.9-1.13,1.12-1.57,.22-.45,.34-.93,.34-1.44,0-.49-.14-.87-.42-1.14s-.65-.41-1.12-.41c-.38,0-.72,.08-1.01,.24-.29,.16-.6,.42-.92,.78l-.84-.67c.38-.48,.81-.83,1.27-1.06s.99-.35,1.57-.35,1.05,.11,1.48,.34Z"/>
    <path class="cls-4" d="M17.2,189.13c0,.51-.14,.97-.41,1.38s-.66,.72-1.16,.95c-.49,.23-1.05,.34-1.68,.34s-1.19-.11-1.68-.34c-.49-.22-.86-.54-1.13-.94-.27-.4-.4-.86-.4-1.37,0-.58,.16-1.06,.47-1.46,.31-.39,.77-.72,1.38-.98-.49-.25-.86-.56-1.1-.92s-.36-.78-.36-1.27,.13-.94,.4-1.3c.27-.36,.62-.64,1.05-.83,.43-.19,.9-.28,1.39-.28s.94,.09,1.38,.27c.43,.18,.79,.45,1.06,.81s.41,.79,.41,1.29c0,.47-.13,.87-.39,1.2-.26,.34-.66,.64-1.2,.91,1.32,.53,1.97,1.37,1.97,2.52Zm-1.86,1.2c.34-.3,.51-.7,.51-1.19,0-.34-.07-.62-.2-.85s-.34-.43-.63-.6-.7-.35-1.22-.53l-.35-.13c-.47,.22-.81,.51-1.04,.85-.22,.34-.34,.76-.34,1.27s.17,.91,.5,1.2c.34,.28,.79,.43,1.37,.43s1.04-.15,1.38-.45Zm-2.52-6.86c-.29,.25-.43,.61-.43,1.08s.14,.79,.41,1.02c.27,.23,.72,.45,1.32,.64l.24,.08c.42-.24,.72-.5,.91-.77s.28-.6,.28-.99c0-.44-.14-.79-.41-1.05-.28-.26-.67-.39-1.17-.39s-.87,.13-1.16,.38Z"/>
    <path class="cls-4" d="M23.46,184.83l.78,.8-1.68,1.68,1.68,1.74-.78,.78-1.68-1.74-1.74,1.74-.78-.78,1.68-1.68-1.68-1.74,.78-.8,1.68,1.75,1.74-1.75Z"/>
  </g>
  <polyline class="cls-6" points="63.01 160.17 55.01 160.17 55.01 193.98 63.01 193.98"/>
  <g>
    <path class="cls-4" d="M9.6,113.5v-4.33h-3.44v4.33h-1.85v-9.67h1.85v3.88h3.44v-3.88h1.86v9.67h-1.86Z"/>
    <path class="cls-4" d="M19.27,112.18c.09,.14,.23,.24,.43,.32l-.38,1.19c-.42-.04-.76-.14-1.03-.31s-.47-.42-.61-.77c-.25,.37-.57,.65-.94,.83-.38,.18-.8,.27-1.27,.27-.74,0-1.32-.21-1.75-.63-.43-.42-.64-.97-.64-1.65,0-.8,.29-1.42,.88-1.84,.58-.42,1.42-.64,2.5-.64h.92v-.42c0-.48-.11-.81-.33-1-.22-.19-.57-.29-1.06-.29-.54,0-1.2,.13-1.96,.39l-.42-1.22c.92-.35,1.82-.53,2.69-.53,1.89,0,2.84,.85,2.84,2.55v3.11c0,.29,.04,.5,.13,.64Zm-1.9-.68v-1.5h-.74c-1.16,0-1.74,.43-1.74,1.29,0,.35,.09,.63,.27,.83,.18,.2,.44,.29,.78,.29,.61,0,1.08-.3,1.43-.91Z"/>
    <path class="cls-4" d="M27.05,106.1l-2.41,7.41h-2.14l-2.45-7.41h1.95l1.58,5.96,1.62-5.96h1.85Z"/>
    <path class="cls-4" d="M34.1,110.35h-4.65c.06,.72,.24,1.23,.56,1.54,.32,.31,.74,.46,1.26,.46,.33,0,.63-.05,.92-.16s.6-.27,.92-.5l.74,1.02c-.82,.66-1.74,.99-2.74,.99-1.13,0-2-.34-2.61-1.04-.61-.69-.92-1.63-.92-2.83,0-.76,.13-1.44,.39-2.04,.26-.6,.64-1.07,1.13-1.41s1.08-.51,1.76-.51c1.04,0,1.84,.33,2.41,.99s.85,1.58,.85,2.75c0,.09-.01,.34-.04,.73Zm-1.74-1.25c0-1.3-.48-1.95-1.44-1.95-.44,0-.78,.16-1.03,.48-.25,.32-.39,.84-.44,1.55h2.91v-.08Z"/>
    <path class="cls-4" d="M36.17,113.22c-.32-.33-.48-.8-.48-1.41v-8.68l1.79-.2v8.82c0,.35,.14,.52,.42,.52,.14,0,.28-.02,.42-.07l.38,1.26c-.37,.17-.77,.25-1.19,.25-.57,0-1.01-.17-1.34-.5Z"/>
    <path class="cls-4" d="M9.06,121.95h-3.65v2.76c.48-.24,.98-.36,1.5-.36,.8,0,1.45,.26,1.93,.79s.73,1.25,.73,2.18c0,.62-.13,1.17-.41,1.65-.27,.48-.65,.85-1.14,1.12-.49,.27-1.06,.4-1.7,.4-.57,0-1.08-.1-1.53-.3-.45-.2-.86-.5-1.25-.89l.76-.74c.3,.3,.61,.52,.92,.67s.68,.22,1.08,.22c.6,0,1.07-.19,1.41-.56,.34-.37,.51-.9,.51-1.58s-.15-1.18-.46-1.48c-.31-.31-.72-.46-1.25-.46-.24,0-.47,.03-.67,.08-.21,.05-.42,.13-.66,.25h-1.01v-4.72h5.07l-.18,1.01Z"/>
    <path class="cls-4" d="M15.81,124.48c.39,.22,.7,.56,.94,1.01,.23,.45,.35,.99,.35,1.64s-.13,1.25-.4,1.76-.62,.9-1.08,1.18c-.45,.28-.95,.41-1.5,.41-1.09,0-1.89-.4-2.39-1.21-.5-.81-.76-1.92-.76-3.35,0-1.02,.14-1.91,.43-2.68,.28-.77,.69-1.37,1.22-1.79,.53-.42,1.16-.64,1.89-.64s1.35,.19,1.93,.57l-.5,.85c-.44-.27-.92-.41-1.44-.41-.67,0-1.2,.32-1.6,.97-.39,.64-.61,1.51-.64,2.59,.58-.82,1.33-1.23,2.25-1.23,.48,0,.91,.11,1.3,.34Zm-.45,4.35c.29-.41,.43-.97,.43-1.67,0-1.33-.5-2-1.51-2-.41,0-.79,.11-1.13,.34-.35,.23-.64,.54-.88,.95,.03,1.03,.19,1.78,.48,2.27s.75,.73,1.37,.73c.54,0,.96-.21,1.25-.62Z"/>
    <path class="cls-4" d="M23.28,123.5l.78,.8-1.68,1.68,1.68,1.74-.78,.78-1.68-1.74-1.74,1.74-.78-.78,1.68-1.68-1.68-1.74,.78-.8,1.68,1.75,1.74-1.75Z"/>
  </g>
  <polyline class="cls-6" points="63.01 81.47 55.01 81.47 55.01 140.32 63.01 140.32"/>
  <g class="cls-7">
    <path class="cls-5" d="M116.95,243.28c.33,.18,.59,.42,.78,.72,.18,.3,.27,.65,.27,1.03,0,.45-.1,.88-.3,1.29-.2,.41-.51,.85-.93,1.33s-1.05,1.14-1.9,1.99h3.31l-.12,.85h-4.35v-.8c.98-1.02,1.68-1.76,2.09-2.24,.41-.47,.7-.88,.88-1.24,.18-.35,.26-.73,.26-1.13,0-.38-.11-.68-.33-.9-.22-.22-.51-.32-.88-.32-.3,0-.56,.06-.79,.19s-.47,.33-.73,.62l-.66-.53c.3-.37,.63-.65,1-.84,.37-.18,.78-.28,1.23-.28s.83,.09,1.16,.26Z"/>
    <path class="cls-5" d="M123.64,243.99c.42,.65,.62,1.59,.62,2.82s-.21,2.17-.62,2.83c-.41,.65-1.03,.98-1.84,.98s-1.43-.33-1.84-.98c-.41-.65-.62-1.59-.62-2.83s.21-2.17,.62-2.82c.41-.65,1.03-.97,1.84-.97s1.43,.33,1.84,.97Zm-2.9,.53c-.23,.47-.35,1.23-.35,2.29s.12,1.82,.35,2.29c.23,.47,.58,.71,1.06,.71s.82-.24,1.06-.71,.35-1.24,.35-2.29-.12-1.81-.35-2.28c-.23-.47-.59-.71-1.06-.71s-.83,.23-1.06,.7Z"/>
    <path class="cls-5" d="M128.4,243.28c.33,.18,.59,.42,.78,.72,.18,.3,.27,.65,.27,1.03,0,.45-.1,.88-.3,1.29-.2,.41-.51,.85-.93,1.33s-1.05,1.14-1.9,1.99h3.31l-.12,.85h-4.35v-.8c.98-1.02,1.68-1.76,2.09-2.24,.41-.47,.7-.88,.88-1.24,.18-.35,.26-.73,.26-1.13,0-.38-.11-.68-.33-.9-.22-.22-.51-.32-.88-.32-.3,0-.56,.06-.79,.19s-.47,.33-.73,.62l-.66-.53c.3-.37,.63-.65,1-.84,.37-.18,.78-.28,1.23-.28s.83,.09,1.16,.26Z"/>
    <path class="cls-5" d="M133.45,243.13v7.36h-1.01v-6.28l-1.72,1.04-.44-.71,2.28-1.41h.89Z"/>
  </g>
  <g class="cls-7">
    <path class="cls-5" d="M76.13,243.28c.33,.18,.59,.42,.78,.72,.18,.3,.27,.65,.27,1.03,0,.45-.1,.88-.3,1.29-.2,.41-.51,.85-.93,1.33s-1.05,1.14-1.9,1.99h3.31l-.12,.85h-4.35v-.8c.98-1.02,1.68-1.76,2.09-2.24,.41-.47,.7-.88,.88-1.24,.18-.35,.26-.73,.26-1.13,0-.38-.11-.68-.33-.9-.22-.22-.51-.32-.88-.32-.3,0-.56,.06-.79,.19s-.47,.33-.73,.62l-.66-.53c.3-.37,.63-.65,1-.84,.37-.18,.78-.28,1.23-.28s.83,.09,1.16,.26Z"/>
    <path class="cls-5" d="M82.81,243.99c.42,.65,.62,1.59,.62,2.82s-.21,2.17-.62,2.83c-.41,.65-1.03,.98-1.84,.98s-1.43-.33-1.84-.98c-.41-.65-.62-1.59-.62-2.83s.21-2.17,.62-2.82c.41-.65,1.03-.97,1.84-.97s1.43,.33,1.84,.97Zm-2.9,.53c-.23,.47-.35,1.23-.35,2.29s.12,1.82,.35,2.29c.23,.47,.58,.71,1.06,.71s.82-.24,1.06-.71,.35-1.24,.35-2.29-.12-1.81-.35-2.28c-.23-.47-.59-.71-1.06-.71s-.83,.23-1.06,.7Z"/>
    <path class="cls-5" d="M87.58,243.28c.33,.18,.59,.42,.78,.72,.18,.3,.27,.65,.27,1.03,0,.45-.1,.88-.3,1.29-.2,.41-.51,.85-.93,1.33s-1.05,1.14-1.9,1.99h3.31l-.12,.85h-4.35v-.8c.98-1.02,1.68-1.76,2.09-2.24,.41-.47,.7-.88,.88-1.24,.18-.35,.26-.73,.26-1.13,0-.38-.11-.68-.33-.9-.22-.22-.51-.32-.88-.32-.3,0-.56,.06-.79,.19s-.47,.33-.73,.62l-.66-.53c.3-.37,.63-.65,1-.84,.37-.18,.78-.28,1.23-.28s.83,.09,1.16,.26Z"/>
    <path class="cls-5" d="M94.26,243.99c.42,.65,.62,1.59,.62,2.82s-.21,2.17-.62,2.83c-.41,.65-1.03,.98-1.84,.98s-1.43-.33-1.84-.98c-.41-.65-.62-1.59-.62-2.83s.21-2.17,.62-2.82c.41-.65,1.03-.97,1.84-.97s1.43,.33,1.84,.97Zm-2.9,.53c-.23,.47-.35,1.23-.35,2.29s.12,1.82,.35,2.29c.23,.47,.58,.71,1.06,.71s.82-.24,1.06-.71,.35-1.24,.35-2.29-.12-1.81-.35-2.28c-.23-.47-.59-.71-1.06-.71s-.83,.23-1.06,.7Z"/>
  </g>
  <g class="cls-7">
    <path class="cls-5" d="M354.26,216.28c.33,.18,.59,.42,.78,.72,.18,.3,.27,.65,.27,1.03,0,.45-.1,.88-.3,1.29-.2,.41-.51,.85-.93,1.33s-1.05,1.14-1.9,1.99h3.31l-.12,.85h-4.35v-.8c.98-1.02,1.68-1.76,2.09-2.24,.41-.47,.7-.88,.88-1.24,.18-.35,.26-.73,.26-1.13,0-.38-.11-.68-.33-.9-.22-.22-.51-.32-.88-.32-.3,0-.56,.06-.79,.19s-.47,.33-.73,.62l-.66-.53c.3-.37,.63-.65,1-.84,.37-.18,.78-.28,1.23-.28s.83,.09,1.16,.26Z"/>
    <path class="cls-5" d="M360.95,216.99c.42,.65,.62,1.59,.62,2.82s-.21,2.17-.62,2.83c-.41,.65-1.03,.98-1.84,.98s-1.43-.33-1.84-.98c-.41-.65-.62-1.59-.62-2.83s.21-2.17,.62-2.82c.41-.65,1.03-.97,1.84-.97s1.43,.33,1.84,.97Zm-2.9,.53c-.23,.47-.35,1.23-.35,2.29s.12,1.82,.35,2.29c.23,.47,.58,.71,1.06,.71s.82-.24,1.06-.71,.35-1.24,.35-2.29-.12-1.81-.35-2.28c-.23-.47-.59-.71-1.06-.71s-.83,.23-1.06,.7Z"/>
    <path class="cls-5" d="M365.45,216.13v7.36h-1.01v-6.28l-1.72,1.04-.44-.71,2.28-1.41h.89Z"/>
    <path class="cls-5" d="M372.23,221.52c0,.4-.11,.76-.33,1.08-.22,.32-.52,.57-.91,.75s-.83,.27-1.32,.27-.94-.09-1.32-.26c-.38-.18-.68-.42-.89-.74s-.31-.67-.31-1.08c0-.45,.12-.84,.37-1.14,.25-.31,.61-.57,1.08-.77-.39-.2-.68-.44-.86-.72-.19-.28-.28-.61-.28-1s.1-.74,.31-1.02,.48-.5,.83-.65,.71-.22,1.09-.22,.74,.07,1.08,.21c.34,.14,.62,.35,.83,.63s.32,.62,.32,1.02c0,.37-.1,.68-.31,.95-.21,.26-.52,.5-.95,.71,1.03,.42,1.55,1.08,1.55,1.98Zm-1.46,.95c.27-.23,.4-.55,.4-.93,0-.26-.05-.49-.15-.67-.1-.18-.27-.34-.5-.47-.23-.14-.55-.27-.96-.41l-.28-.1c-.37,.18-.64,.4-.81,.67-.18,.27-.26,.6-.26,1s.13,.72,.4,.94c.26,.22,.62,.34,1.08,.34s.82-.12,1.08-.35Zm-1.98-5.39c-.22,.2-.34,.48-.34,.85s.11,.62,.32,.8c.22,.18,.56,.35,1.04,.51l.19,.07c.33-.19,.57-.39,.71-.6,.15-.21,.22-.47,.22-.78,0-.34-.11-.62-.33-.83-.22-.21-.52-.31-.92-.31s-.68,.1-.91,.3Z"/>
  </g>
  <g class="cls-7">
    <path class="cls-5" d="M252.91,216.28c.33,.18,.59,.42,.78,.72,.18,.3,.27,.65,.27,1.03,0,.45-.1,.88-.3,1.29-.2,.41-.51,.85-.93,1.33s-1.05,1.14-1.9,1.99h3.31l-.12,.85h-4.35v-.8c.98-1.02,1.68-1.76,2.09-2.24,.41-.47,.7-.88,.88-1.24,.18-.35,.26-.73,.26-1.13,0-.38-.11-.68-.33-.9-.22-.22-.51-.32-.88-.32-.3,0-.56,.06-.79,.19s-.47,.33-.73,.62l-.66-.53c.3-.37,.63-.65,1-.84,.37-.18,.78-.28,1.23-.28s.83,.09,1.16,.26Z"/>
    <path class="cls-5" d="M259.6,216.99c.42,.65,.62,1.59,.62,2.82s-.21,2.17-.62,2.83c-.41,.65-1.03,.98-1.84,.98s-1.43-.33-1.84-.98c-.41-.65-.62-1.59-.62-2.83s.21-2.17,.62-2.82c.41-.65,1.03-.97,1.84-.97s1.43,.33,1.84,.97Zm-2.9,.53c-.23,.47-.35,1.23-.35,2.29s.12,1.82,.35,2.29c.23,.47,.58,.71,1.06,.71s.82-.24,1.06-.71,.35-1.24,.35-2.29-.12-1.81-.35-2.28c-.23-.47-.59-.71-1.06-.71s-.83,.23-1.06,.7Z"/>
    <path class="cls-5" d="M264.1,216.13v7.36h-1.01v-6.28l-1.72,1.04-.44-.71,2.28-1.41h.89Z"/>
    <path class="cls-5" d="M269.87,216.13v.76l-2.75,6.71-.92-.31,2.65-6.34h-3.26v-.83h4.28Z"/>
  </g>
  <g class="cls-7">
    <path class="cls-5" d="M182.54,215.15c.33,.18,.59,.42,.78,.72,.18,.3,.27,.65,.27,1.03,0,.45-.1,.88-.3,1.29-.2,.41-.51,.85-.93,1.33s-1.05,1.14-1.9,1.99h3.31l-.12,.85h-4.35v-.8c.98-1.02,1.68-1.77,2.09-2.24,.41-.47,.7-.89,.88-1.24,.18-.35,.26-.73,.26-1.13,0-.38-.11-.68-.33-.9-.22-.22-.51-.32-.88-.32-.3,0-.56,.06-.79,.19-.23,.12-.47,.33-.73,.62l-.66-.53c.3-.37,.63-.65,1-.84,.37-.18,.78-.28,1.23-.28s.83,.09,1.16,.26Z"/>
    <path class="cls-5" d="M189.22,215.86c.42,.65,.62,1.59,.62,2.82s-.21,2.17-.62,2.83c-.41,.65-1.03,.98-1.84,.98s-1.43-.33-1.84-.98-.62-1.59-.62-2.83,.21-2.17,.62-2.82c.41-.65,1.03-.97,1.84-.97s1.43,.32,1.84,.97Zm-2.9,.53c-.23,.47-.35,1.23-.35,2.29s.12,1.82,.35,2.29c.23,.47,.58,.71,1.06,.71s.82-.24,1.06-.71c.23-.47,.35-1.24,.35-2.29s-.12-1.81-.35-2.28c-.23-.47-.59-.71-1.06-.71s-.83,.24-1.06,.7Z"/>
    <path class="cls-5" d="M193.73,214.99v7.36h-1.01v-6.28l-1.72,1.04-.44-.72,2.28-1.41h.89Z"/>
    <path class="cls-5" d="M199.35,217.78c.31,.18,.55,.44,.74,.79,.18,.35,.27,.78,.27,1.29s-.1,.98-.31,1.38-.49,.71-.85,.92c-.36,.22-.75,.32-1.18,.32-.86,0-1.49-.32-1.88-.95-.4-.63-.59-1.51-.59-2.63,0-.8,.11-1.5,.33-2.11,.22-.6,.54-1.07,.96-1.41,.42-.33,.91-.5,1.48-.5s1.06,.15,1.52,.45l-.4,.67c-.34-.21-.72-.32-1.13-.32-.53,0-.95,.25-1.25,.76-.31,.51-.48,1.18-.51,2.04,.45-.64,1.04-.97,1.77-.97,.37,0,.71,.09,1.02,.26Zm-.35,3.42c.23-.32,.34-.76,.34-1.31,0-1.05-.4-1.57-1.19-1.57-.32,0-.62,.09-.89,.27-.27,.18-.5,.43-.69,.74,.02,.81,.15,1.4,.38,1.78,.23,.38,.59,.57,1.07,.57,.42,0,.75-.16,.98-.48Z"/>
  </g>
  <g class="cls-7">
    <path class="cls-5" d="M157.06,215.15c.33,.18,.59,.42,.78,.72,.18,.3,.27,.65,.27,1.03,0,.45-.1,.88-.3,1.29-.2,.41-.51,.85-.93,1.33s-1.05,1.14-1.9,1.99h3.31l-.12,.85h-4.35v-.8c.98-1.02,1.68-1.77,2.09-2.24,.41-.47,.7-.89,.88-1.24,.18-.35,.26-.73,.26-1.13,0-.38-.11-.68-.33-.9-.22-.22-.51-.32-.88-.32-.3,0-.56,.06-.79,.19-.23,.12-.47,.33-.73,.62l-.66-.53c.3-.37,.63-.65,1-.84,.37-.18,.78-.28,1.23-.28s.83,.09,1.16,.26Z"/>
    <path class="cls-5" d="M163.75,215.86c.42,.65,.62,1.59,.62,2.82s-.21,2.17-.62,2.83c-.41,.65-1.03,.98-1.84,.98s-1.43-.33-1.84-.98-.62-1.59-.62-2.83,.21-2.17,.62-2.82c.41-.65,1.03-.97,1.84-.97s1.43,.32,1.84,.97Zm-2.9,.53c-.23,.47-.35,1.23-.35,2.29s.12,1.82,.35,2.29c.23,.47,.58,.71,1.06,.71s.82-.24,1.06-.71c.23-.47,.35-1.24,.35-2.29s-.12-1.81-.35-2.28c-.23-.47-.59-.71-1.06-.71s-.83,.24-1.06,.7Z"/>
    <path class="cls-5" d="M168.26,214.99v7.36h-1.01v-6.28l-1.72,1.04-.44-.72,2.28-1.41h.89Z"/>
    <path class="cls-5" d="M174.09,215.79h-2.87v2.17c.37-.19,.77-.29,1.18-.29,.63,0,1.14,.21,1.52,.62,.38,.42,.57,.98,.57,1.71,0,.48-.11,.92-.32,1.29-.21,.38-.51,.67-.9,.88-.39,.21-.83,.31-1.34,.31-.45,0-.85-.08-1.2-.24-.35-.16-.68-.39-.98-.7l.59-.58c.23,.23,.48,.41,.73,.52,.25,.11,.53,.17,.85,.17,.47,0,.84-.15,1.11-.44s.4-.71,.4-1.24-.12-.92-.36-1.17c-.24-.24-.57-.36-.98-.36-.19,0-.37,.02-.53,.06-.16,.04-.33,.1-.52,.19h-.79v-3.71h3.98l-.14,.79Z"/>
  </g>
  <g class="cls-7">
    <path class="cls-5" d="M101.74,215.15c.33,.18,.59,.42,.78,.72,.18,.3,.27,.65,.27,1.03,0,.45-.1,.88-.3,1.29-.2,.41-.51,.85-.93,1.33s-1.05,1.14-1.9,1.99h3.31l-.12,.85h-4.35v-.8c.98-1.02,1.68-1.77,2.09-2.24,.41-.47,.7-.89,.88-1.24,.18-.35,.26-.73,.26-1.13,0-.38-.11-.68-.33-.9-.22-.22-.51-.32-.88-.32-.3,0-.56,.06-.79,.19-.23,.12-.47,.33-.73,.62l-.66-.53c.3-.37,.63-.65,1-.84,.37-.18,.78-.28,1.23-.28s.83,.09,1.16,.26Z"/>
    <path class="cls-5" d="M108.42,215.86c.42,.65,.62,1.59,.62,2.82s-.21,2.17-.62,2.83c-.41,.65-1.03,.98-1.84,.98s-1.43-.33-1.84-.98-.62-1.59-.62-2.83,.21-2.17,.62-2.82c.41-.65,1.03-.97,1.84-.97s1.43,.32,1.84,.97Zm-2.9,.53c-.23,.47-.35,1.23-.35,2.29s.12,1.82,.35,2.29c.23,.47,.58,.71,1.06,.71s.82-.24,1.06-.71c.23-.47,.35-1.24,.35-2.29s-.12-1.81-.35-2.28c-.23-.47-.59-.71-1.06-.71s-.83,.24-1.06,.7Z"/>
    <path class="cls-5" d="M112.93,214.99v7.36h-1.01v-6.28l-1.72,1.04-.44-.72,2.28-1.41h.89Z"/>
    <path class="cls-5" d="M119.66,219.73v.8h-.96v1.81h-.98v-1.81h-3.15v-.73l2.21-4.93,.85,.35-1.99,4.5h2.09l.09-1.98h.88v1.98h.96Z"/>
  </g>
  <g class="cls-7">
    <path class="cls-5" d="M76.54,215.15c.33,.18,.59,.42,.78,.72,.18,.3,.27,.65,.27,1.03,0,.45-.1,.88-.3,1.29-.2,.41-.51,.85-.93,1.33s-1.05,1.14-1.9,1.99h3.31l-.12,.85h-4.35v-.8c.98-1.02,1.68-1.77,2.09-2.24,.41-.47,.7-.89,.88-1.24,.18-.35,.26-.73,.26-1.13,0-.38-.11-.68-.33-.9-.22-.22-.51-.32-.88-.32-.3,0-.56,.06-.79,.19-.23,.12-.47,.33-.73,.62l-.66-.53c.3-.37,.63-.65,1-.84,.37-.18,.78-.28,1.23-.28s.83,.09,1.16,.26Z"/>
    <path class="cls-5" d="M83.22,215.86c.42,.65,.62,1.59,.62,2.82s-.21,2.17-.62,2.83c-.41,.65-1.03,.98-1.84,.98s-1.43-.33-1.84-.98-.62-1.59-.62-2.83,.21-2.17,.62-2.82c.41-.65,1.03-.97,1.84-.97s1.43,.32,1.84,.97Zm-2.9,.53c-.23,.47-.35,1.23-.35,2.29s.12,1.82,.35,2.29c.23,.47,.58,.71,1.06,.71s.82-.24,1.06-.71c.23-.47,.35-1.24,.35-2.29s-.12-1.81-.35-2.28c-.23-.47-.59-.71-1.06-.71s-.83,.24-1.06,.7Z"/>
    <path class="cls-5" d="M87.73,214.99v7.36h-1.01v-6.28l-1.72,1.04-.44-.72,2.28-1.41h.89Z"/>
    <path class="cls-5" d="M92.59,215.14c.33,.17,.58,.4,.75,.68,.17,.29,.26,.6,.26,.94,0,.45-.13,.82-.39,1.11-.26,.29-.61,.49-1.04,.59,.49,.04,.89,.22,1.2,.53s.46,.73,.46,1.25c0,.43-.1,.81-.31,1.16s-.5,.61-.88,.81c-.38,.19-.82,.29-1.32,.29-.45,0-.86-.08-1.23-.25s-.7-.41-.98-.74l.6-.56c.24,.25,.49,.43,.74,.55,.25,.12,.53,.18,.83,.18,.46,0,.83-.13,1.09-.39,.26-.26,.4-.61,.4-1.05,0-.48-.12-.83-.37-1.02-.25-.2-.61-.3-1.09-.3h-.55l.12-.78h.37c.38,0,.7-.11,.95-.34,.25-.23,.38-.55,.38-.96,0-.34-.11-.62-.33-.82-.22-.2-.52-.3-.89-.3-.29,0-.55,.05-.79,.15s-.48,.27-.73,.51l-.53-.6c.62-.58,1.32-.87,2.1-.87,.46,0,.85,.08,1.17,.25Z"/>
  </g>
  <g class="cls-7">
    <path class="cls-5" d="M379.6,166.56c.33,.18,.59,.42,.78,.72,.18,.3,.27,.65,.27,1.03,0,.45-.1,.88-.3,1.29-.2,.41-.51,.85-.93,1.33s-1.05,1.14-1.9,1.99h3.31l-.12,.85h-4.35v-.8c.98-1.02,1.68-1.76,2.09-2.24,.41-.47,.7-.88,.88-1.24,.18-.35,.26-.73,.26-1.13,0-.38-.11-.68-.33-.9-.22-.22-.51-.32-.88-.32-.3,0-.56,.06-.79,.19s-.47,.33-.73,.62l-.66-.53c.3-.37,.63-.65,1-.84,.37-.18,.78-.28,1.23-.28s.83,.09,1.16,.26Z"/>
    <path class="cls-5" d="M386.29,167.27c.42,.65,.62,1.59,.62,2.82s-.21,2.17-.62,2.83c-.41,.65-1.03,.98-1.84,.98s-1.43-.33-1.84-.98c-.41-.65-.62-1.59-.62-2.83s.21-2.17,.62-2.82c.41-.65,1.03-.97,1.84-.97s1.43,.33,1.84,.97Zm-2.9,.53c-.23,.47-.35,1.23-.35,2.29s.12,1.82,.35,2.29c.23,.47,.58,.71,1.06,.71s.82-.24,1.06-.71,.35-1.24,.35-2.29-.12-1.81-.35-2.28c-.23-.47-.59-.71-1.06-.71s-.83,.23-1.06,.7Z"/>
    <path class="cls-5" d="M392.42,167.27c.42,.65,.62,1.59,.62,2.82s-.21,2.17-.62,2.83c-.41,.65-1.03,.98-1.84,.98s-1.43-.33-1.84-.98c-.41-.65-.62-1.59-.62-2.83s.21-2.17,.62-2.82c.41-.65,1.03-.97,1.84-.97s1.43,.33,1.84,.97Zm-2.9,.53c-.23,.47-.35,1.23-.35,2.29s.12,1.82,.35,2.29c.23,.47,.58,.71,1.06,.71s.82-.24,1.06-.71,.35-1.24,.35-2.29-.12-1.81-.35-2.28c-.23-.47-.59-.71-1.06-.71s-.83,.23-1.06,.7Z"/>
    <path class="cls-5" d="M398.16,167.06c.4,.51,.6,1.21,.6,2.1,0,1-.14,1.81-.41,2.43-.27,.61-.69,1.1-1.24,1.46-.56,.36-1.31,.68-2.27,.96l-.23-.76c.98-.28,1.74-.66,2.26-1.13,.52-.48,.8-1.11,.84-1.9-.17,.26-.4,.48-.68,.64s-.61,.24-.97,.24c-.38,0-.73-.1-1.03-.29s-.55-.47-.73-.83c-.18-.36-.27-.77-.27-1.25s.11-.93,.32-1.3c.21-.37,.5-.65,.85-.84,.36-.19,.75-.29,1.18-.29,.78,0,1.37,.26,1.77,.76Zm-.42,2.33c.01-.81-.09-1.4-.3-1.75s-.56-.53-1.03-.53c-.43,0-.77,.14-1,.43-.24,.29-.35,.69-.35,1.22s.11,.9,.33,1.16c.22,.26,.52,.39,.89,.39,.58,0,1.07-.3,1.46-.91Z"/>
  </g>
  <g class="cls-7">
    <path class="cls-5" d="M354.4,166.56c.33,.18,.59,.42,.78,.72,.18,.3,.27,.65,.27,1.03,0,.45-.1,.88-.3,1.29-.2,.41-.51,.85-.93,1.33s-1.05,1.14-1.9,1.99h3.31l-.12,.85h-4.35v-.8c.98-1.02,1.68-1.76,2.09-2.24,.41-.47,.7-.88,.88-1.24,.18-.35,.26-.73,.26-1.13,0-.38-.11-.68-.33-.9-.22-.22-.51-.32-.88-.32-.3,0-.56,.06-.79,.19s-.47,.33-.73,.62l-.66-.53c.3-.37,.63-.65,1-.84,.37-.18,.78-.28,1.23-.28s.83,.09,1.16,.26Z"/>
    <path class="cls-5" d="M361.09,167.27c.42,.65,.62,1.59,.62,2.82s-.21,2.17-.62,2.83c-.41,.65-1.03,.98-1.84,.98s-1.43-.33-1.84-.98c-.41-.65-.62-1.59-.62-2.83s.21-2.17,.62-2.82c.41-.65,1.03-.97,1.84-.97s1.43,.33,1.84,.97Zm-2.9,.53c-.23,.47-.35,1.23-.35,2.29s.12,1.82,.35,2.29c.23,.47,.58,.71,1.06,.71s.82-.24,1.06-.71,.35-1.24,.35-2.29-.12-1.81-.35-2.28c-.23-.47-.59-.71-1.06-.71s-.83,.23-1.06,.7Z"/>
    <path class="cls-5" d="M367.22,167.27c.42,.65,.62,1.59,.62,2.82s-.21,2.17-.62,2.83c-.41,.65-1.03,.98-1.84,.98s-1.43-.33-1.84-.98c-.41-.65-.62-1.59-.62-2.83s.21-2.17,.62-2.82c.41-.65,1.03-.97,1.84-.97s1.43,.33,1.84,.97Zm-2.9,.53c-.23,.47-.35,1.23-.35,2.29s.12,1.82,.35,2.29c.23,.47,.58,.71,1.06,.71s.82-.24,1.06-.71,.35-1.24,.35-2.29-.12-1.81-.35-2.28c-.23-.47-.59-.71-1.06-.71s-.83,.23-1.06,.7Z"/>
    <path class="cls-5" d="M374.02,171.8c0,.4-.11,.76-.33,1.08-.22,.32-.52,.57-.91,.75s-.83,.27-1.32,.27-.94-.09-1.32-.26c-.38-.18-.68-.42-.89-.74s-.31-.67-.31-1.08c0-.45,.12-.84,.37-1.14,.25-.31,.61-.57,1.08-.77-.39-.2-.68-.44-.86-.72-.19-.28-.28-.61-.28-1s.1-.74,.31-1.02,.48-.5,.83-.65,.71-.22,1.09-.22,.74,.07,1.08,.21c.34,.14,.62,.35,.83,.63s.32,.62,.32,1.02c0,.37-.1,.68-.31,.95-.21,.26-.52,.5-.95,.71,1.03,.42,1.55,1.08,1.55,1.98Zm-1.46,.95c.27-.23,.4-.55,.4-.93,0-.26-.05-.49-.15-.67-.1-.18-.27-.34-.5-.47-.23-.14-.55-.27-.96-.41l-.28-.1c-.37,.18-.64,.4-.81,.67-.18,.27-.26,.6-.26,1s.13,.72,.4,.94c.26,.22,.62,.34,1.08,.34s.82-.12,1.08-.35Zm-1.98-5.39c-.22,.2-.34,.48-.34,.85s.11,.62,.32,.8c.22,.18,.56,.35,1.04,.51l.19,.07c.33-.19,.57-.39,.71-.6,.15-.21,.22-.47,.22-.78,0-.34-.11-.62-.33-.83-.22-.21-.52-.31-.92-.31s-.68,.1-.91,.3Z"/>
  </g>
  <g class="cls-7">
    <path class="cls-5" d="M314,166.56c.33,.18,.59,.42,.78,.72,.18,.3,.27,.65,.27,1.03,0,.45-.1,.88-.3,1.29-.2,.41-.51,.85-.93,1.33s-1.05,1.14-1.9,1.99h3.31l-.12,.85h-4.35v-.8c.98-1.02,1.68-1.76,2.09-2.24,.41-.47,.7-.88,.88-1.24,.18-.35,.26-.73,.26-1.13,0-.38-.11-.68-.33-.9-.22-.22-.51-.32-.88-.32-.3,0-.56,.06-.79,.19s-.47,.33-.73,.62l-.66-.53c.3-.37,.63-.65,1-.84,.37-.18,.78-.28,1.23-.28s.83,.09,1.16,.26Z"/>
    <path class="cls-5" d="M320.69,167.27c.42,.65,.62,1.59,.62,2.82s-.21,2.17-.62,2.83c-.41,.65-1.03,.98-1.84,.98s-1.43-.33-1.84-.98c-.41-.65-.62-1.59-.62-2.83s.21-2.17,.62-2.82c.41-.65,1.03-.97,1.84-.97s1.43,.33,1.84,.97Zm-2.9,.53c-.23,.47-.35,1.23-.35,2.29s.12,1.82,.35,2.29c.23,.47,.58,.71,1.06,.71s.82-.24,1.06-.71,.35-1.24,.35-2.29-.12-1.81-.35-2.28c-.23-.47-.59-.71-1.06-.71s-.83,.23-1.06,.7Z"/>
    <path class="cls-5" d="M326.82,167.27c.42,.65,.62,1.59,.62,2.82s-.21,2.17-.62,2.83c-.41,.65-1.03,.98-1.84,.98s-1.43-.33-1.84-.98c-.41-.65-.62-1.59-.62-2.83s.21-2.17,.62-2.82c.41-.65,1.03-.97,1.84-.97s1.43,.33,1.84,.97Zm-2.9,.53c-.23,.47-.35,1.23-.35,2.29s.12,1.82,.35,2.29c.23,.47,.58,.71,1.06,.71s.82-.24,1.06-.71,.35-1.24,.35-2.29-.12-1.81-.35-2.28c-.23-.47-.59-.71-1.06-.71s-.83,.23-1.06,.7Z"/>
    <path class="cls-5" d="M332.38,166.41v.76l-2.75,6.71-.92-.31,2.65-6.34h-3.26v-.83h4.28Z"/>
  </g>
  <g class="cls-7">
    <path class="cls-5" d="M273.33,166.56c.33,.18,.59,.42,.78,.72,.18,.3,.27,.65,.27,1.03,0,.45-.1,.88-.3,1.29-.2,.41-.51,.85-.93,1.33s-1.05,1.14-1.9,1.99h3.31l-.12,.85h-4.35v-.8c.98-1.02,1.68-1.76,2.09-2.24,.41-.47,.7-.88,.88-1.24,.18-.35,.26-.73,.26-1.13,0-.38-.11-.68-.33-.9-.22-.22-.51-.32-.88-.32-.3,0-.56,.06-.79,.19s-.47,.33-.73,.62l-.66-.53c.3-.37,.63-.65,1-.84,.37-.18,.78-.28,1.23-.28s.83,.09,1.16,.26Z"/>
    <path class="cls-5" d="M280.01,167.27c.42,.65,.62,1.59,.62,2.82s-.21,2.17-.62,2.83c-.41,.65-1.03,.98-1.84,.98s-1.43-.33-1.84-.98c-.41-.65-.62-1.59-.62-2.83s.21-2.17,.62-2.82c.41-.65,1.03-.97,1.84-.97s1.43,.33,1.84,.97Zm-2.9,.53c-.23,.47-.35,1.23-.35,2.29s.12,1.82,.35,2.29c.23,.47,.58,.71,1.06,.71s.82-.24,1.06-.71,.35-1.24,.35-2.29-.12-1.81-.35-2.28c-.23-.47-.59-.71-1.06-.71s-.83,.23-1.06,.7Z"/>
    <path class="cls-5" d="M286.15,167.27c.42,.65,.62,1.59,.62,2.82s-.21,2.17-.62,2.83c-.41,.65-1.03,.98-1.84,.98s-1.43-.33-1.84-.98c-.41-.65-.62-1.59-.62-2.83s.21-2.17,.62-2.82c.41-.65,1.03-.97,1.84-.97s1.43,.33,1.84,.97Zm-2.9,.53c-.23,.47-.35,1.23-.35,2.29s.12,1.82,.35,2.29c.23,.47,.58,.71,1.06,.71s.82-.24,1.06-.71,.35-1.24,.35-2.29-.12-1.81-.35-2.28c-.23-.47-.59-.71-1.06-.71s-.83,.23-1.06,.7Z"/>
    <path class="cls-5" d="M291.79,169.19c.31,.18,.55,.44,.74,.79,.18,.35,.27,.78,.27,1.29s-.1,.98-.31,1.38c-.21,.4-.49,.71-.85,.92-.36,.22-.75,.32-1.18,.32-.86,0-1.49-.32-1.88-.95-.4-.63-.59-1.51-.59-2.63,0-.8,.11-1.5,.33-2.11,.22-.61,.54-1.07,.96-1.41s.91-.5,1.48-.5,1.06,.15,1.52,.45l-.4,.67c-.34-.21-.72-.32-1.13-.32-.53,0-.95,.25-1.25,.76s-.48,1.18-.51,2.04c.45-.65,1.04-.97,1.77-.97,.37,0,.71,.09,1.02,.26Zm-.35,3.42c.23-.32,.34-.76,.34-1.31,0-1.05-.4-1.57-1.19-1.57-.32,0-.62,.09-.89,.27-.27,.18-.5,.43-.69,.74,.02,.81,.15,1.4,.38,1.78,.23,.38,.59,.57,1.07,.57,.42,0,.75-.16,.98-.48Z"/>
  </g>
  <g class="cls-7">
    <path class="cls-5" d="M232.93,166.56c.33,.18,.59,.42,.78,.72,.18,.3,.27,.65,.27,1.03,0,.45-.1,.88-.3,1.29-.2,.41-.51,.85-.93,1.33s-1.05,1.14-1.9,1.99h3.31l-.12,.85h-4.35v-.8c.98-1.02,1.68-1.76,2.09-2.24,.41-.47,.7-.88,.88-1.24,.18-.35,.26-.73,.26-1.13,0-.38-.11-.68-.33-.9-.22-.22-.51-.32-.88-.32-.3,0-.56,.06-.79,.19s-.47,.33-.73,.62l-.66-.53c.3-.37,.63-.65,1-.84,.37-.18,.78-.28,1.23-.28s.83,.09,1.16,.26Z"/>
    <path class="cls-5" d="M239.61,167.27c.42,.65,.62,1.59,.62,2.82s-.21,2.17-.62,2.83c-.41,.65-1.03,.98-1.84,.98s-1.43-.33-1.84-.98c-.41-.65-.62-1.59-.62-2.83s.21-2.17,.62-2.82c.41-.65,1.03-.97,1.84-.97s1.43,.33,1.84,.97Zm-2.9,.53c-.23,.47-.35,1.23-.35,2.29s.12,1.82,.35,2.29c.23,.47,.58,.71,1.06,.71s.82-.24,1.06-.71,.35-1.24,.35-2.29-.12-1.81-.35-2.28c-.23-.47-.59-.71-1.06-.71s-.83,.23-1.06,.7Z"/>
    <path class="cls-5" d="M245.75,167.27c.42,.65,.62,1.59,.62,2.82s-.21,2.17-.62,2.83c-.41,.65-1.03,.98-1.84,.98s-1.43-.33-1.84-.98c-.41-.65-.62-1.59-.62-2.83s.21-2.17,.62-2.82c.41-.65,1.03-.97,1.84-.97s1.43,.33,1.84,.97Zm-2.9,.53c-.23,.47-.35,1.23-.35,2.29s.12,1.82,.35,2.29c.23,.47,.58,.71,1.06,.71s.82-.24,1.06-.71,.35-1.24,.35-2.29-.12-1.81-.35-2.28c-.23-.47-.59-.71-1.06-.71s-.83,.23-1.06,.7Z"/>
    <path class="cls-5" d="M251.6,167.2h-2.87v2.17c.37-.19,.77-.29,1.18-.29,.63,0,1.14,.21,1.52,.62,.38,.41,.57,.98,.57,1.71,0,.48-.11,.92-.32,1.29-.21,.38-.51,.67-.9,.88-.39,.21-.83,.31-1.34,.31-.45,0-.85-.08-1.2-.24-.35-.16-.68-.39-.98-.7l.59-.58c.23,.24,.48,.41,.73,.52,.25,.11,.53,.17,.85,.17,.47,0,.84-.15,1.11-.44,.27-.29,.4-.71,.4-1.24s-.12-.92-.36-1.17c-.24-.24-.57-.36-.98-.36-.19,0-.37,.02-.53,.06s-.33,.1-.52,.19h-.79v-3.71h3.98l-.14,.79Z"/>
  </g>
  <g class="cls-7">
    <path class="cls-5" d="M177.6,166.56c.33,.18,.59,.42,.78,.72,.18,.3,.27,.65,.27,1.03,0,.45-.1,.88-.3,1.29-.2,.41-.51,.85-.93,1.33s-1.05,1.14-1.9,1.99h3.31l-.12,.85h-4.35v-.8c.98-1.02,1.68-1.76,2.09-2.24,.41-.47,.7-.88,.88-1.24,.18-.35,.26-.73,.26-1.13,0-.38-.11-.68-.33-.9-.22-.22-.51-.32-.88-.32-.3,0-.56,.06-.79,.19s-.47,.33-.73,.62l-.66-.53c.3-.37,.63-.65,1-.84,.37-.18,.78-.28,1.23-.28s.83,.09,1.16,.26Z"/>
    <path class="cls-5" d="M184.29,167.27c.42,.65,.62,1.59,.62,2.82s-.21,2.17-.62,2.83c-.41,.65-1.03,.98-1.84,.98s-1.43-.33-1.84-.98c-.41-.65-.62-1.59-.62-2.83s.21-2.17,.62-2.82c.41-.65,1.03-.97,1.84-.97s1.43,.33,1.84,.97Zm-2.9,.53c-.23,.47-.35,1.23-.35,2.29s.12,1.82,.35,2.29c.23,.47,.58,.71,1.06,.71s.82-.24,1.06-.71,.35-1.24,.35-2.29-.12-1.81-.35-2.28c-.23-.47-.59-.71-1.06-.71s-.83,.23-1.06,.7Z"/>
    <path class="cls-5" d="M190.42,167.27c.42,.65,.62,1.59,.62,2.82s-.21,2.17-.62,2.83c-.41,.65-1.03,.98-1.84,.98s-1.43-.33-1.84-.98c-.41-.65-.62-1.59-.62-2.83s.21-2.17,.62-2.82c.41-.65,1.03-.97,1.84-.97s1.43,.33,1.84,.97Zm-2.9,.53c-.23,.47-.35,1.23-.35,2.29s.12,1.82,.35,2.29c.23,.47,.58,.71,1.06,.71s.82-.24,1.06-.71,.35-1.24,.35-2.29-.12-1.81-.35-2.28c-.23-.47-.59-.71-1.06-.71s-.83,.23-1.06,.7Z"/>
    <path class="cls-5" d="M197.17,171.15v.8h-.96v1.82h-.98v-1.82h-3.15v-.73l2.21-4.93,.85,.35-1.99,4.5h2.09l.09-1.98h.88v1.98h.96Z"/>
  </g>
  <g class="cls-7">
    <path class="cls-5" d="M76.4,167.51c.33,.18,.59,.42,.78,.72,.18,.3,.27,.65,.27,1.03,0,.45-.1,.88-.3,1.29-.2,.41-.51,.85-.93,1.33s-1.05,1.14-1.9,1.99h3.31l-.12,.85h-4.35v-.8c.98-1.02,1.68-1.76,2.09-2.24,.41-.47,.7-.88,.88-1.24,.18-.35,.26-.73,.26-1.13,0-.38-.11-.68-.33-.9s-.51-.32-.88-.32c-.3,0-.56,.06-.79,.19s-.47,.33-.73,.62l-.66-.53c.3-.37,.63-.65,1-.84,.37-.18,.78-.28,1.23-.28s.83,.09,1.16,.26Z"/>
    <path class="cls-5" d="M83.09,168.22c.42,.65,.62,1.59,.62,2.82s-.21,2.17-.62,2.83c-.41,.65-1.03,.98-1.84,.98s-1.43-.33-1.84-.98-.62-1.6-.62-2.83,.21-2.17,.62-2.82c.41-.65,1.03-.97,1.84-.97s1.43,.33,1.84,.97Zm-2.9,.53c-.23,.47-.35,1.23-.35,2.29s.12,1.82,.35,2.29c.23,.47,.58,.71,1.06,.71s.82-.24,1.06-.71c.23-.47,.35-1.24,.35-2.29s-.12-1.81-.35-2.28c-.23-.47-.59-.71-1.06-.71s-.83,.24-1.06,.7Z"/>
    <path class="cls-5" d="M89.22,168.22c.42,.65,.62,1.59,.62,2.82s-.21,2.17-.62,2.83c-.41,.65-1.03,.98-1.84,.98s-1.43-.33-1.84-.98-.62-1.6-.62-2.83,.21-2.17,.62-2.82c.41-.65,1.03-.97,1.84-.97s1.43,.33,1.84,.97Zm-2.9,.53c-.23,.47-.35,1.23-.35,2.29s.12,1.82,.35,2.29c.23,.47,.58,.71,1.06,.71s.82-.24,1.06-.71c.23-.47,.35-1.24,.35-2.29s-.12-1.81-.35-2.28c-.23-.47-.59-.71-1.06-.71s-.83,.24-1.06,.7Z"/>
    <path class="cls-5" d="M93.99,167.5c.33,.17,.58,.4,.75,.68,.17,.29,.26,.6,.26,.94,0,.45-.13,.82-.39,1.11-.26,.29-.61,.49-1.04,.59,.49,.04,.89,.22,1.2,.53,.31,.31,.46,.73,.46,1.25,0,.42-.1,.81-.31,1.16s-.5,.61-.88,.81c-.38,.19-.82,.29-1.32,.29-.45,0-.86-.08-1.23-.25-.37-.16-.7-.41-.98-.74l.6-.56c.24,.25,.49,.43,.74,.55,.25,.12,.53,.18,.83,.18,.46,0,.83-.13,1.09-.39,.26-.26,.4-.61,.4-1.05,0-.48-.12-.83-.37-1.02-.25-.2-.61-.3-1.09-.3h-.55l.12-.78h.37c.38,0,.7-.11,.95-.34s.38-.55,.38-.96c0-.34-.11-.62-.33-.82-.22-.2-.52-.3-.89-.3-.29,0-.55,.05-.79,.15s-.48,.27-.73,.51l-.53-.61c.62-.58,1.32-.87,2.1-.87,.46,0,.85,.08,1.17,.25Z"/>
  </g>
  <g class="cls-7">
    <path class="cls-5" d="M339.74,113.09c.33,.18,.59,.42,.78,.72,.18,.3,.27,.65,.27,1.03,0,.45-.1,.88-.3,1.29-.2,.41-.51,.85-.93,1.33s-1.05,1.14-1.9,1.99h3.31l-.12,.85h-4.35v-.8c.98-1.02,1.68-1.77,2.09-2.24,.41-.47,.7-.89,.88-1.24,.18-.35,.26-.73,.26-1.13,0-.38-.11-.68-.33-.9-.22-.22-.51-.32-.88-.32-.3,0-.56,.06-.79,.19-.23,.12-.47,.33-.73,.62l-.66-.53c.3-.37,.63-.65,1-.84,.37-.18,.78-.28,1.23-.28s.83,.09,1.16,.26Z"/>
    <path class="cls-5" d="M346.42,113.8c.42,.65,.62,1.59,.62,2.82s-.21,2.17-.62,2.83c-.41,.65-1.03,.98-1.84,.98s-1.43-.33-1.84-.98-.62-1.59-.62-2.83,.21-2.17,.62-2.82c.41-.65,1.03-.97,1.84-.97s1.43,.32,1.84,.97Zm-2.9,.53c-.23,.47-.35,1.23-.35,2.29s.12,1.82,.35,2.29c.23,.47,.58,.71,1.06,.71s.82-.24,1.06-.71c.23-.47,.35-1.24,.35-2.29s-.12-1.81-.35-2.28c-.23-.47-.59-.71-1.06-.71s-.83,.24-1.06,.7Z"/>
    <path class="cls-5" d="M352.56,113.8c.42,.65,.62,1.59,.62,2.82s-.21,2.17-.62,2.83c-.41,.65-1.03,.98-1.84,.98s-1.43-.33-1.84-.98-.62-1.59-.62-2.83,.21-2.17,.62-2.82c.41-.65,1.03-.97,1.84-.97s1.43,.32,1.84,.97Zm-2.9,.53c-.23,.47-.35,1.23-.35,2.29s.12,1.82,.35,2.29c.23,.47,.58,.71,1.06,.71s.82-.24,1.06-.71c.23-.47,.35-1.24,.35-2.29s-.12-1.81-.35-2.28c-.23-.47-.59-.71-1.06-.71s-.83,.24-1.06,.7Z"/>
    <path class="cls-5" d="M358.7,113.8c.42,.65,.62,1.59,.62,2.82s-.21,2.17-.62,2.83c-.41,.65-1.03,.98-1.84,.98s-1.43-.33-1.84-.98-.62-1.59-.62-2.83,.21-2.17,.62-2.82c.41-.65,1.03-.97,1.84-.97s1.43,.32,1.84,.97Zm-2.9,.53c-.23,.47-.35,1.23-.35,2.29s.12,1.82,.35,2.29c.23,.47,.58,.71,1.06,.71s.82-.24,1.06-.71c.23-.47,.35-1.24,.35-2.29s-.12-1.81-.35-2.28c-.23-.47-.59-.71-1.06-.71s-.83,.24-1.06,.7Z"/>
  </g>
  <g class="cls-7">
    <path class="cls-5" d="M192.55,112.94v7.36h-1.01v-6.28l-1.72,1.04-.44-.72,2.28-1.41h.89Z"/>
    <path class="cls-5" d="M198.38,113.59c.4,.51,.6,1.21,.6,2.1,0,1-.14,1.81-.41,2.42-.27,.61-.69,1.1-1.24,1.46-.56,.36-1.31,.68-2.27,.96l-.23-.76c.98-.28,1.74-.66,2.26-1.13,.52-.48,.8-1.11,.84-1.9-.17,.26-.4,.48-.68,.64-.29,.16-.61,.24-.97,.24-.38,0-.73-.1-1.03-.29s-.55-.47-.73-.83-.27-.77-.27-1.25,.11-.93,.32-1.3c.21-.37,.5-.65,.85-.84,.36-.19,.75-.29,1.18-.29,.78,0,1.37,.25,1.77,.76Zm-.42,2.33c.01-.81-.09-1.4-.3-1.75-.22-.36-.56-.53-1.03-.53-.43,0-.77,.14-1,.43-.24,.29-.35,.69-.35,1.22s.11,.9,.33,1.16c.22,.26,.52,.39,.89,.39,.58,0,1.07-.3,1.46-.91Z"/>
    <path class="cls-5" d="M204.15,113.59c.4,.51,.6,1.21,.6,2.1,0,1-.14,1.81-.41,2.42-.27,.61-.69,1.1-1.24,1.46-.56,.36-1.31,.68-2.27,.96l-.23-.76c.98-.28,1.74-.66,2.26-1.13,.52-.48,.8-1.11,.84-1.9-.17,.26-.4,.48-.68,.64-.29,.16-.61,.24-.97,.24-.38,0-.73-.1-1.03-.29s-.55-.47-.73-.83-.27-.77-.27-1.25,.11-.93,.32-1.3c.21-.37,.5-.65,.85-.84,.36-.19,.75-.29,1.18-.29,.78,0,1.37,.25,1.77,.76Zm-.42,2.33c.01-.81-.09-1.4-.3-1.75-.22-.36-.56-.53-1.03-.53-.43,0-.77,.14-1,.43-.24,.29-.35,.69-.35,1.22s.11,.9,.33,1.16c.22,.26,.52,.39,.89,.39,.58,0,1.07-.3,1.46-.91Z"/>
    <path class="cls-5" d="M209.93,113.59c.4,.51,.6,1.21,.6,2.1,0,1-.14,1.81-.41,2.42-.27,.61-.69,1.1-1.24,1.46-.56,.36-1.31,.68-2.27,.96l-.23-.76c.98-.28,1.74-.66,2.26-1.13,.52-.48,.8-1.11,.84-1.9-.17,.26-.4,.48-.68,.64-.29,.16-.61,.24-.97,.24-.38,0-.73-.1-1.03-.29s-.55-.47-.73-.83-.27-.77-.27-1.25,.11-.93,.32-1.3c.21-.37,.5-.65,.85-.84,.36-.19,.75-.29,1.18-.29,.78,0,1.37,.25,1.77,.76Zm-.42,2.33c.01-.81-.09-1.4-.3-1.75-.22-.36-.56-.53-1.03-.53-.43,0-.77,.14-1,.43-.24,.29-.35,.69-.35,1.22s.11,.9,.33,1.16c.22,.26,.52,.39,.89,.39,.58,0,1.07-.3,1.46-.91Z"/>
  </g>
  <g class="cls-7">
    <path class="cls-5" d="M293.75,84.79v7.36h-1.01v-6.28l-1.72,1.04-.44-.72,2.28-1.41h.89Z"/>
    <path class="cls-5" d="M299.58,85.44c.4,.51,.6,1.21,.6,2.1,0,1-.14,1.81-.41,2.42-.27,.61-.69,1.1-1.24,1.46-.56,.36-1.31,.68-2.27,.96l-.23-.76c.98-.28,1.74-.66,2.26-1.13,.52-.48,.8-1.11,.84-1.9-.17,.26-.4,.48-.68,.64-.29,.16-.61,.24-.97,.24-.38,0-.73-.1-1.03-.29s-.55-.47-.73-.83-.27-.77-.27-1.25,.11-.93,.32-1.3c.21-.37,.5-.65,.85-.84,.36-.19,.75-.29,1.18-.29,.78,0,1.37,.26,1.77,.76Zm-.42,2.33c.01-.81-.09-1.4-.3-1.75-.22-.36-.56-.53-1.03-.53-.43,0-.77,.14-1,.43-.24,.29-.35,.69-.35,1.22s.11,.9,.33,1.16c.22,.26,.52,.39,.89,.39,.58,0,1.07-.3,1.46-.91Z"/>
    <path class="cls-5" d="M305.35,85.44c.4,.51,.6,1.21,.6,2.1,0,1-.14,1.81-.41,2.42-.27,.61-.69,1.1-1.24,1.46-.56,.36-1.31,.68-2.27,.96l-.23-.76c.98-.28,1.74-.66,2.26-1.13,.52-.48,.8-1.11,.84-1.9-.17,.26-.4,.48-.68,.64-.29,.16-.61,.24-.97,.24-.38,0-.73-.1-1.03-.29s-.55-.47-.73-.83-.27-.77-.27-1.25,.11-.93,.32-1.3c.21-.37,.5-.65,.85-.84,.36-.19,.75-.29,1.18-.29,.78,0,1.37,.26,1.77,.76Zm-.42,2.33c.01-.81-.09-1.4-.3-1.75-.22-.36-.56-.53-1.03-.53-.43,0-.77,.14-1,.43-.24,.29-.35,.69-.35,1.22s.11,.9,.33,1.16c.22,.26,.52,.39,.89,.39,.58,0,1.07-.3,1.46-.91Z"/>
    <path class="cls-5" d="M310.9,84.79v.76l-2.75,6.71-.92-.31,2.65-6.34h-3.26v-.83h4.28Z"/>
  </g>
  <g class="cls-7">
    <path class="cls-5" d="M206.75,84.79v7.36h-1.01v-6.28l-1.72,1.04-.44-.72,2.28-1.41h.89Z"/>
    <path class="cls-5" d="M212.58,85.44c.4,.51,.6,1.21,.6,2.1,0,1-.14,1.81-.41,2.42-.27,.61-.69,1.1-1.24,1.46-.56,.36-1.31,.68-2.27,.96l-.23-.76c.98-.28,1.74-.66,2.26-1.13,.52-.48,.8-1.11,.84-1.9-.17,.26-.4,.48-.68,.64-.29,.16-.61,.24-.97,.24-.38,0-.73-.1-1.03-.29s-.55-.47-.73-.83-.27-.77-.27-1.25,.11-.93,.32-1.3c.21-.37,.5-.65,.85-.84,.36-.19,.75-.29,1.18-.29,.78,0,1.37,.26,1.77,.76Zm-.42,2.33c.01-.81-.09-1.4-.3-1.75-.22-.36-.56-.53-1.03-.53-.43,0-.77,.14-1,.43-.24,.29-.35,.69-.35,1.22s.11,.9,.33,1.16c.22,.26,.52,.39,.89,.39,.58,0,1.07-.3,1.46-.91Z"/>
    <path class="cls-5" d="M218.35,85.44c.4,.51,.6,1.21,.6,2.1,0,1-.14,1.81-.41,2.42-.27,.61-.69,1.1-1.24,1.46-.56,.36-1.31,.68-2.27,.96l-.23-.76c.98-.28,1.74-.66,2.26-1.13,.52-.48,.8-1.11,.84-1.9-.17,.26-.4,.48-.68,.64-.29,.16-.61,.24-.97,.24-.38,0-.73-.1-1.03-.29s-.55-.47-.73-.83-.27-.77-.27-1.25,.11-.93,.32-1.3c.21-.37,.5-.65,.85-.84,.36-.19,.75-.29,1.18-.29,.78,0,1.37,.26,1.77,.76Zm-.42,2.33c.01-.81-.09-1.4-.3-1.75-.22-.36-.56-.53-1.03-.53-.43,0-.77,.14-1,.43-.24,.29-.35,.69-.35,1.22s.11,.9,.33,1.16c.22,.26,.52,.39,.89,.39,.58,0,1.07-.3,1.46-.91Z"/>
    <path class="cls-5" d="M223.92,87.57c.31,.18,.55,.44,.74,.79,.18,.35,.27,.78,.27,1.29s-.1,.98-.31,1.38-.49,.71-.85,.92c-.36,.22-.75,.32-1.18,.32-.86,0-1.49-.32-1.88-.95-.4-.63-.59-1.51-.59-2.63,0-.8,.11-1.5,.33-2.11,.22-.6,.54-1.07,.96-1.41,.42-.33,.91-.5,1.48-.5s1.06,.15,1.52,.45l-.4,.67c-.34-.21-.72-.32-1.13-.32-.53,0-.95,.25-1.25,.76s-.48,1.18-.51,2.04c.45-.65,1.04-.97,1.77-.97,.37,0,.71,.09,1.02,.26Zm-.35,3.42c.23-.32,.34-.76,.34-1.31,0-1.05-.4-1.57-1.19-1.57-.32,0-.62,.09-.89,.27-.27,.18-.5,.43-.69,.74,.02,.81,.15,1.4,.38,1.78,.23,.38,.59,.57,1.07,.57,.42,0,.75-.16,.98-.48Z"/>
  </g>
  <g class="cls-7">
    <path class="cls-5" d="M76.01,84.79v7.36h-1.01v-6.28l-1.72,1.04-.44-.72,2.28-1.41h.89Z"/>
    <path class="cls-5" d="M81.84,85.44c.4,.51,.6,1.21,.6,2.1,0,1-.14,1.81-.41,2.42-.27,.61-.69,1.1-1.24,1.46-.56,.36-1.31,.68-2.27,.96l-.23-.76c.98-.28,1.74-.66,2.26-1.13,.52-.48,.8-1.11,.84-1.9-.17,.26-.4,.48-.68,.64-.29,.16-.61,.24-.97,.24-.38,0-.73-.1-1.03-.29s-.55-.47-.73-.83-.27-.77-.27-1.25,.11-.93,.32-1.3c.21-.37,.5-.65,.85-.84,.36-.19,.75-.29,1.18-.29,.78,0,1.37,.26,1.77,.76Zm-.42,2.33c.01-.81-.09-1.4-.3-1.75-.22-.36-.56-.53-1.03-.53-.43,0-.77,.14-1,.43-.24,.29-.35,.69-.35,1.22s.11,.9,.33,1.16c.22,.26,.52,.39,.89,.39,.58,0,1.07-.3,1.46-.91Z"/>
    <path class="cls-5" d="M87.62,85.44c.4,.51,.6,1.21,.6,2.1,0,1-.14,1.81-.41,2.42-.27,.61-.69,1.1-1.24,1.46-.56,.36-1.31,.68-2.27,.96l-.23-.76c.98-.28,1.74-.66,2.26-1.13,.52-.48,.8-1.11,.84-1.9-.17,.26-.4,.48-.68,.64-.29,.16-.61,.24-.97,.24-.38,0-.73-.1-1.03-.29s-.55-.47-.73-.83-.27-.77-.27-1.25,.11-.93,.32-1.3c.21-.37,.5-.65,.85-.84,.36-.19,.75-.29,1.18-.29,.78,0,1.37,.26,1.77,.76Zm-.42,2.33c.01-.81-.09-1.4-.3-1.75-.22-.36-.56-.53-1.03-.53-.43,0-.77,.14-1,.43-.24,.29-.35,.69-.35,1.22s.11,.9,.33,1.16c.22,.26,.52,.39,.89,.39,.58,0,1.07-.3,1.46-.91Z"/>
    <path class="cls-5" d="M93.39,85.58h-2.87v2.17c.37-.19,.77-.29,1.18-.29,.63,0,1.14,.21,1.52,.62,.38,.42,.57,.98,.57,1.71,0,.48-.11,.92-.32,1.29-.21,.38-.51,.67-.9,.88-.39,.21-.83,.31-1.34,.31-.45,0-.85-.08-1.2-.24-.35-.16-.68-.39-.98-.7l.59-.58c.23,.24,.48,.41,.73,.52,.25,.11,.53,.17,.85,.17,.47,0,.84-.15,1.11-.44s.4-.71,.4-1.24-.12-.92-.36-1.17c-.24-.24-.57-.36-.98-.36-.19,0-.37,.02-.53,.06-.16,.04-.33,.1-.52,.19h-.79v-3.71h3.98l-.14,.79Z"/>
  </g>
  <circle class="cls-2" cx="250.06" cy="183.14" r="5.6"/>
  <circle class="cls-2" cx="371.79" cy="128.73" r="5.6"/>
  <circle class="cls-3" cx="356.59" cy="128.73" r="5.6"/>
  <circle class="cls-2" cx="371.24" cy="231.73" r="5.6"/>
  <circle class="cls-3" cx="214.44" cy="231.73" r="5.6"/>
  <circle class="cls-3" cx="234.86" cy="183.14" r="5.6"/>
  <circle class="cls-3" cx="341.39" cy="128.73" r="5.6"/>
  <circle class="cls-2" cx="209.66" cy="183.14" r="5.6"/>
  <circle class="cls-2" cx="316.19" cy="128.73" r="5.6"/>
  <circle class="cls-3" cx="356.04" cy="231.73" r="5.6"/>
  <circle class="cls-3" cx="199.24" cy="231.73" r="5.6"/>
  <circle class="cls-3" cx="194.46" cy="183.14" r="5.6"/>
  <circle class="cls-3" cx="300.99" cy="128.73" r="5.6"/>
  <circle class="cls-2" cx="330.84" cy="231.73" r="5.6"/>
  <circle class="cls-3" cx="184.19" cy="231.73" r="5.6"/>
  <circle class="cls-3" cx="179.26" cy="183.14" r="5.6"/>
  <circle class="cls-3" cx="285.79" cy="128.73" r="5.6"/>
  <circle class="cls-2" cx="315.64" cy="231.73" r="5.6"/>
  <circle class="cls-3" cx="158.99" cy="231.73" r="5.6"/>
  <circle class="cls-2" cx="154.06" cy="183.14" r="5.6"/>
  <circle class="cls-3" cx="270.59" cy="128.73" r="5.6"/>
  <circle class="cls-3" cx="300.44" cy="231.73" r="5.6"/>
  <circle class="cls-2" cx="133.79" cy="231.73" r="5.6"/>
  <circle class="cls-2" cx="138.86" cy="183.14" r="5.6"/>
  <circle class="cls-3" cx="255.39" cy="128.73" r="5.6"/>
  <circle class="cls-3" cx="240.19" cy="128.73" r="5.6"/>
  <circle class="cls-3" cx="118.59" cy="231.73" r="5.6"/>
  <circle class="cls-3" cx="123.66" cy="183.14" r="5.6"/>
  <circle class="cls-3" cx="224.99" cy="128.73" r="5.6"/>
  <circle class="cls-3" cx="108.46" cy="183.14" r="5.6"/>
  <circle class="cls-3" cx="209.79" cy="128.73" r="5.6"/>
  <circle class="cls-3" cx="396.46" cy="183.14" r="5.6"/>
  <circle class="cls-3" cx="93.26" cy="183.14" r="5.6"/>
  <circle class="cls-3" cx="194.59" cy="128.73" r="5.6"/>
  <circle class="cls-2" cx="78.33" cy="258.73" r="5.6"/>
  <circle class="cls-3" cx="285.24" cy="231.73" r="5.6"/>
  <circle class="cls-3" cx="103.39" cy="231.73" r="5.6"/>
  <circle class="cls-3" cx="381.26" cy="183.14" r="5.6"/>
  <circle class="cls-3" cx="78.06" cy="183.14" r="5.6"/>
  <circle class="cls-2" cx="169.39" cy="128.73" r="5.6"/>
  <circle class="cls-2" cx="179.53" cy="258.73" r="5.6"/>
  <circle class="cls-2" cx="164.33" cy="258.73" r="5.6"/>
  <circle class="cls-3" cx="118.73" cy="258.73" r="5.6"/>
  <circle class="cls-3" cx="270.04" cy="231.73" r="5.6"/>
  <circle class="cls-3" cx="78.19" cy="231.73" r="5.6"/>
  <circle class="cls-3" cx="356.06" cy="183.14" r="5.6"/>
  <circle class="cls-2" cx="154.19" cy="128.73" r="5.6"/>
  <circle class="cls-3" cx="149.13" cy="258.73" r="5.6"/>
  <circle class="cls-2" cx="93.53" cy="258.73" r="5.6"/>
  <circle class="cls-2" cx="401.64" cy="231.73" r="5.6"/>
  <circle class="cls-3" cx="254.84" cy="231.73" r="5.6"/>
  <circle class="cls-2" cx="330.86" cy="183.14" r="5.6"/>
  <circle class="cls-2" cx="138.99" cy="128.73" r="5.6"/>
  <circle class="cls-3" cx="315.66" cy="183.14" r="5.6"/>
  <circle class="cls-2" cx="123.79" cy="128.73" r="5.6"/>
  <circle class="cls-2" cx="386.44" cy="231.73" r="5.6"/>
  <circle class="cls-2" cx="229.64" cy="231.73" r="5.6"/>
  <circle class="cls-2" cx="290.46" cy="183.14" r="5.6"/>
  <circle class="cls-2" cx="108.59" cy="128.73" r="5.6"/>
  <circle class="cls-2" cx="93.39" cy="128.73" r="5.6"/>
  <circle class="cls-2" cx="78.19" cy="128.73" r="5.6"/>
  <circle class="cls-3" cx="275.26" cy="183.14" r="5.6"/>
  <circle class="cls-2" cx="402.19" cy="128.73" r="5.6"/>
  <circle class="cls-2" cx="386.99" cy="128.73" r="5.6"/>
  <circle class="cls-3" cx="402.47" cy="101.73" r="5.6"/>
  <circle class="cls-3" cx="387.27" cy="101.73" r="5.6"/>
  <circle class="cls-3" cx="372.07" cy="101.73" r="5.6"/>
  <circle class="cls-3" cx="356.87" cy="101.73" r="5.6"/>
  <circle class="cls-3" cx="341.67" cy="101.73" r="5.6"/>
  <circle class="cls-3" cx="326.47" cy="101.73" r="5.6"/>
  <circle class="cls-3" cx="311.27" cy="101.73" r="5.6"/>
  <circle class="cls-3" cx="296.07" cy="101.73" r="5.6"/>
  <circle class="cls-2" cx="270.87" cy="101.73" r="5.6"/>
  <circle class="cls-3" cx="255.67" cy="101.73" r="5.6"/>
  <circle class="cls-3" cx="240.47" cy="101.73" r="5.6"/>
  <circle class="cls-3" cx="225.27" cy="101.73" r="5.6"/>
  <circle class="cls-3" cx="210.07" cy="101.73" r="5.6"/>
  <circle class="cls-2" cx="184.87" cy="101.73" r="5.6"/>
  <circle class="cls-2" cx="169.67" cy="101.73" r="5.6"/>
  <circle class="cls-3" cx="154.47" cy="101.73" r="5.6"/>
  <circle class="cls-3" cx="139.27" cy="101.73" r="5.6"/>
  <circle class="cls-3" cx="124.07" cy="101.73" r="5.6"/>
  <circle class="cls-3" cx="108.87" cy="101.73" r="5.6"/>
  <circle class="cls-3" cx="93.67" cy="101.73" r="5.6"/>
  <circle class="cls-3" cx="78.47" cy="101.73" r="5.6"/>
  <circle class="cls-3" cx="133.93" cy="258.73" r="5.6"/>
</svg>