<?xml version="1.0" encoding="UTF-8"?>
<svg id="Layer_1" data-name="Layer 1" xmlns="http://www.w3.org/2000/svg" viewBox="0 0 620 316.4">
  <defs>
    <style>
      .cls-1 {
        fill: none;
        stroke: #c9ced1;
        stroke-linejoin: round;
      }

      .cls-2 {
        fill: #fff;
      }

      .cls-3 {
        fill: #7d8d9c;
      }

      .cls-4 {
        fill: #818d95;
      }

      .cls-5 {
        fill: #bcc9d1;
      }

      .cls-6 {
        fill: #c9ced1;
      }

      .cls-7 {
        fill: #3e5768;
      }

      .cls-8 {
        fill: #46494c;
      }

      .cls-9 {
        fill: #4c5c68;
      }

      .cls-10 {
        opacity: .8;
      }

      .cls-11 {
        isolation: isolate;
      }
    </style>
  </defs>
  <rect class="cls-2" x="-1389.37" y="-1435.47" width="4405.95" height="4096.65"/>
  <g>
    <path class="cls-4" d="M499.7,73.42c.22,.23,.34,.5,.34,.83s-.11,.61-.34,.83c-.22,.22-.52,.33-.88,.33s-.64-.11-.86-.33c-.22-.22-.34-.5-.34-.83s.11-.61,.34-.83c.23-.22,.51-.34,.86-.34s.65,.11,.88,.34Zm.1,3.68v7.94h-1.92v-7.94h1.92Z"/>
    <path class="cls-4" d="M507.99,77.51c.39,.43,.59,1.02,.59,1.78v5.75h-1.92v-5.44c0-.47-.08-.8-.25-.99s-.41-.29-.73-.29-.63,.1-.89,.31c-.27,.21-.52,.5-.77,.89v5.52h-1.92v-7.94h1.67l.15,1.04c.65-.84,1.46-1.26,2.42-1.26,.71,0,1.26,.21,1.66,.64Z"/>
    <path class="cls-4" d="M524.51,77.53c.38,.44,.57,1.02,.57,1.76v5.75h-1.92v-5.44c0-.85-.29-1.28-.87-1.28-.31,0-.58,.1-.8,.29-.22,.2-.46,.5-.7,.91v5.52h-1.92v-5.44c0-.85-.29-1.28-.87-1.28-.32,0-.59,.1-.82,.29-.22,.2-.46,.5-.7,.91v5.52h-1.92v-7.94h1.67l.15,1.04c.6-.84,1.37-1.26,2.29-1.26,.46,0,.86,.12,1.19,.35,.33,.24,.58,.56,.73,.98,.32-.43,.67-.76,1.06-.99s.83-.35,1.33-.35c.64,0,1.15,.22,1.53,.65Z"/>
    <path class="cls-4" d="M533.78,81.66h-4.98c.06,.77,.26,1.32,.6,1.65s.79,.5,1.35,.5c.35,0,.68-.06,.99-.17,.31-.12,.64-.29,.99-.53l.79,1.1c-.88,.71-1.86,1.06-2.94,1.06-1.21,0-2.14-.37-2.8-1.11-.66-.74-.98-1.75-.98-3.03,0-.81,.14-1.54,.42-2.18,.28-.65,.68-1.15,1.21-1.51,.53-.37,1.16-.55,1.89-.55,1.11,0,1.97,.35,2.58,1.06,.61,.71,.92,1.69,.92,2.95,0,.1-.01,.36-.04,.78Zm-1.86-1.33c0-1.39-.51-2.08-1.54-2.08-.47,0-.84,.17-1.1,.52-.26,.34-.42,.9-.47,1.66h3.12v-.09Z"/>
    <path class="cls-4" d="M545.5,77.53c.38,.44,.57,1.02,.57,1.76v5.75h-1.92v-5.44c0-.85-.29-1.28-.87-1.28-.31,0-.58,.1-.8,.29-.22,.2-.46,.5-.7,.91v5.52h-1.92v-5.44c0-.85-.29-1.28-.87-1.28-.32,0-.59,.1-.82,.29-.22,.2-.46,.5-.7,.91v5.52h-1.92v-7.94h1.67l.15,1.04c.6-.84,1.37-1.26,2.29-1.26,.46,0,.86,.12,1.19,.35,.33,.24,.58,.56,.73,.98,.32-.43,.67-.76,1.06-.99s.83-.35,1.33-.35c.64,0,1.15,.22,1.53,.65Z"/>
    <path class="cls-4" d="M554.28,77.99c.65,.75,.98,1.77,.98,3.07,0,.83-.15,1.56-.45,2.2-.3,.63-.73,1.13-1.29,1.48-.56,.35-1.22,.52-2,.52-1.17,0-2.08-.37-2.75-1.12-.66-.74-.99-1.77-.99-3.08,0-.83,.15-1.56,.45-2.19s.73-1.12,1.3-1.47c.56-.35,1.23-.53,2-.53,1.17,0,2.08,.37,2.74,1.12Zm-4.46,3.07c0,.94,.14,1.63,.43,2.08s.71,.67,1.28,.67,1-.23,1.28-.67c.29-.45,.43-1.14,.43-2.07s-.14-1.62-.43-2.06c-.28-.44-.71-.67-1.27-.67-1.15,0-1.72,.91-1.72,2.73Z"/>
    <path class="cls-4" d="M561.77,77l-.33,1.86c-.24-.06-.48-.09-.71-.09-.47,0-.84,.17-1.11,.5-.27,.34-.49,.85-.64,1.54v4.23h-1.92v-7.94h1.67l.18,1.56c.19-.57,.46-1.01,.83-1.31,.36-.3,.77-.46,1.25-.46,.29,0,.55,.04,.79,.1Z"/>
    <path class="cls-4" d="M564.8,73.42c.22,.23,.34,.5,.34,.83s-.11,.61-.34,.83c-.22,.22-.52,.33-.88,.33s-.64-.11-.86-.33c-.22-.22-.34-.5-.34-.83s.11-.61,.34-.83c.23-.22,.51-.34,.86-.34s.65,.11,.88,.34Zm.1,3.68v7.94h-1.92v-7.94h1.92Z"/>
    <path class="cls-4" d="M573.21,83.62c.1,.15,.25,.26,.46,.34l-.41,1.27c-.45-.04-.82-.15-1.1-.33-.29-.18-.5-.46-.65-.83-.27,.4-.61,.7-1.01,.89-.4,.19-.86,.29-1.36,.29-.79,0-1.42-.23-1.88-.68-.46-.45-.69-1.04-.69-1.77,0-.86,.31-1.52,.94-1.97,.62-.46,1.52-.68,2.68-.68h.99v-.45c0-.51-.12-.87-.35-1.07s-.61-.31-1.13-.31c-.58,0-1.28,.14-2.1,.42l-.45-1.3c.99-.38,1.95-.57,2.88-.57,2.03,0,3.04,.91,3.04,2.73v3.33c0,.31,.05,.54,.14,.68Zm-2.03-.73v-1.6h-.79c-1.24,0-1.86,.46-1.86,1.38,0,.38,.1,.68,.29,.89,.19,.21,.47,.31,.84,.31,.65,0,1.16-.32,1.53-.98Z"/>
    <path class="cls-4" d="M585.34,77.53c.38,.44,.57,1.02,.57,1.76v5.75h-1.92v-5.44c0-.85-.29-1.28-.87-1.28-.31,0-.58,.1-.8,.29-.22,.2-.46,.5-.7,.91v5.52h-1.92v-5.44c0-.85-.29-1.28-.87-1.28-.32,0-.59,.1-.82,.29-.22,.2-.46,.5-.7,.91v5.52h-1.92v-7.94h1.67l.15,1.04c.6-.84,1.37-1.26,2.29-1.26,.46,0,.86,.12,1.19,.35,.33,.24,.58,.56,.73,.98,.32-.43,.67-.76,1.06-.99s.83-.35,1.33-.35c.64,0,1.15,.22,1.53,.65Z"/>
  </g>
  <g>
    <path class="cls-9" d="M119.09,77.33v1.38l-3.84,5.06h3.92l-.19,1.5h-5.93v-1.38l3.86-5.06h-3.53v-1.5h5.72Zm-.98-4.06l.74,.84-2.08,1.88h-1.2l-2.08-1.88,.74-.84,1.95,1.32,1.95-1.32Z"/>
    <path class="cls-9" d="M122.49,73.64c.22,.23,.34,.5,.34,.83s-.11,.61-.34,.83c-.22,.22-.52,.33-.88,.33s-.64-.11-.86-.33c-.22-.22-.34-.5-.34-.83s.11-.61,.34-.83c.23-.22,.51-.34,.86-.34s.65,.11,.88,.34Zm.1,3.68v7.94h-1.92v-7.94h1.92Z"/>
    <path class="cls-9" d="M126.8,84.56c0,.78-.11,1.42-.34,1.91-.23,.5-.54,.89-.95,1.19-.41,.3-.94,.58-1.6,.85l-.62-1.4c.39-.18,.7-.36,.92-.53,.22-.18,.39-.41,.5-.71,.11-.3,.17-.7,.17-1.2v-7.35h1.92v7.23Zm-.1-10.91c.22,.23,.34,.5,.34,.83s-.11,.61-.34,.83c-.23,.22-.52,.33-.88,.33s-.64-.11-.86-.33c-.23-.22-.34-.5-.34-.83s.11-.61,.34-.83c.22-.22,.51-.34,.86-.34s.65,.11,.88,.34Z"/>
    <path class="cls-9" d="M131.45,72.96l.78,1.5-3.39,1.35-.54-.97,3.15-1.88Zm-.18,4.36v7.94h-1.92v-7.94h1.92Z"/>
    <path class="cls-9" d="M138.18,77.33c.41,.15,.81,.39,1.18,.71l-.85,1.15c-.27-.2-.53-.34-.78-.43-.25-.09-.53-.14-.83-.14-1.19,0-1.79,.91-1.79,2.71,0,.92,.16,1.58,.47,1.99,.31,.4,.75,.61,1.32,.61,.28,0,.54-.04,.77-.14,.24-.09,.51-.23,.83-.43l.85,1.21c-.75,.61-1.6,.92-2.56,.92-.76,0-1.42-.17-1.98-.5-.56-.33-.99-.81-1.29-1.43s-.45-1.35-.45-2.19,.15-1.58,.45-2.23,.73-1.15,1.29-1.5c.56-.35,1.21-.53,1.96-.53,.52,0,.99,.08,1.4,.23Z"/>
    <path class="cls-9" d="M142.85,72.96l.78,1.5-3.39,1.35-.54-.97,3.15-1.88Zm-.18,4.36v7.94h-1.92v-7.94h1.92Z"/>
    <path class="cls-9" d="M154.93,77.75c.38,.44,.57,1.02,.57,1.76v5.75h-1.92v-5.44c0-.85-.29-1.28-.87-1.28-.31,0-.58,.1-.8,.29-.22,.2-.46,.5-.7,.91v5.52h-1.92v-5.44c0-.85-.29-1.28-.87-1.28-.32,0-.59,.1-.82,.29-.22,.2-.46,.5-.7,.91v5.52h-1.92v-7.94h1.67l.15,1.04c.6-.84,1.37-1.26,2.29-1.26,.46,0,.86,.12,1.19,.35,.33,.24,.58,.56,.73,.98,.32-.43,.67-.76,1.06-.99s.83-.35,1.33-.35c.64,0,1.15,.22,1.53,.65Z"/>
  </g>
  <g class="cls-10">
    <line class="cls-1" x1="114.17" y1="255.25" x2="114.17" y2="102.36"/>
    <line class="cls-1" x1="310.73" y1="255.25" x2="310.73" y2="102.36"/>
    <line class="cls-1" x1="507.3" y1="255.25" x2="507.3" y2="102.36"/>
  </g>
  <path class="cls-9" d="M116.36,262.13c.49,.77,.73,1.88,.73,3.33s-.25,2.57-.73,3.34c-.49,.77-1.22,1.16-2.18,1.16s-1.69-.39-2.18-1.16c-.49-.77-.73-1.89-.73-3.34s.25-2.57,.73-3.33c.49-.77,1.22-1.15,2.18-1.15s1.69,.38,2.18,1.15Zm-3.43,.63c-.27,.55-.41,1.46-.41,2.7s.14,2.15,.41,2.71c.27,.56,.69,.84,1.25,.84s.97-.28,1.25-.84,.42-1.46,.42-2.71-.14-2.14-.42-2.7-.69-.84-1.25-.84-.98,.28-1.25,.83Z"/>
  <g>
    <path class="cls-9" d="M304.61,261.29c.39,.21,.7,.49,.92,.85,.22,.36,.33,.77,.33,1.22,0,.53-.12,1.04-.36,1.52s-.6,1.01-1.1,1.57-1.24,1.35-2.25,2.35h3.91l-.14,1h-5.13v-.95c1.16-1.2,1.98-2.09,2.47-2.65,.49-.56,.83-1.05,1.04-1.46s.31-.86,.31-1.34c0-.45-.13-.8-.39-1.06-.26-.26-.61-.38-1.04-.38-.36,0-.67,.07-.94,.22-.27,.15-.55,.39-.86,.73l-.78-.62c.36-.44,.75-.77,1.18-.99s.92-.33,1.46-.33,.98,.1,1.37,.31Z"/>
    <path class="cls-9" d="M312.51,262.13c.49,.77,.73,1.88,.73,3.33s-.25,2.57-.73,3.34c-.49,.77-1.22,1.16-2.18,1.16s-1.69-.39-2.18-1.16c-.49-.77-.73-1.89-.73-3.34s.25-2.57,.73-3.33c.49-.77,1.22-1.15,2.18-1.15s1.69,.38,2.18,1.15Zm-3.43,.63c-.27,.55-.41,1.46-.41,2.7s.14,2.15,.41,2.71c.27,.56,.69,.84,1.25,.84s.97-.28,1.25-.84,.42-1.46,.42-2.71-.14-2.14-.42-2.7-.69-.84-1.25-.84-.98,.28-1.25,.83Z"/>
    <path class="cls-9" d="M319.77,262.13c.49,.77,.73,1.88,.73,3.33s-.25,2.57-.73,3.34c-.49,.77-1.22,1.16-2.18,1.16s-1.69-.39-2.18-1.16c-.49-.77-.73-1.89-.73-3.34s.25-2.57,.73-3.33c.49-.77,1.22-1.15,2.18-1.15s1.69,.38,2.18,1.15Zm-3.43,.63c-.27,.55-.41,1.46-.41,2.7s.14,2.15,.41,2.71c.27,.56,.69,.84,1.25,.84s.97-.28,1.25-.84,.42-1.46,.42-2.71-.14-2.14-.42-2.7-.69-.84-1.25-.84-.98,.28-1.25,.83Z"/>
  </g>
  <g>
    <path class="cls-9" d="M503.12,266.71v.95h-1.13v2.15h-1.16v-2.15h-3.72v-.86l2.61-5.82,1,.42-2.35,5.32h2.47l.1-2.34h1.04v2.34h1.13Z"/>
    <path class="cls-9" d="M509.31,262.13c.49,.77,.73,1.88,.73,3.33s-.25,2.57-.73,3.34c-.49,.77-1.22,1.16-2.18,1.16s-1.69-.39-2.18-1.16c-.49-.77-.73-1.89-.73-3.34s.25-2.57,.73-3.33c.49-.77,1.22-1.15,2.18-1.15s1.69,.38,2.18,1.15Zm-3.43,.63c-.27,.55-.41,1.46-.41,2.7s.14,2.15,.41,2.71c.27,.56,.69,.84,1.25,.84s.97-.28,1.25-.84,.42-1.46,.42-2.71-.14-2.14-.42-2.7-.69-.84-1.25-.84-.98,.28-1.25,.83Z"/>
    <path class="cls-9" d="M516.57,262.13c.49,.77,.73,1.88,.73,3.33s-.25,2.57-.73,3.34c-.49,.77-1.22,1.16-2.18,1.16s-1.69-.39-2.18-1.16c-.49-.77-.73-1.89-.73-3.34s.25-2.57,.73-3.33c.49-.77,1.22-1.15,2.18-1.15s1.69,.38,2.18,1.15Zm-3.43,.63c-.27,.55-.41,1.46-.41,2.7s.14,2.15,.41,2.71c.27,.56,.69,.84,1.25,.84s.97-.28,1.25-.84,.42-1.46,.42-2.71-.14-2.14-.42-2.7-.69-.84-1.25-.84-.98,.28-1.25,.83Z"/>
  </g>
  <g>
    <path class="cls-8" d="M69.08,106.34v-4.33h-3.44v4.33h-1.85v-9.67h1.85v3.88h3.44v-3.88h1.86v9.67h-1.86Z"/>
    <path class="cls-8" d="M78.75,105.01c.09,.14,.23,.24,.43,.32l-.38,1.19c-.42-.04-.76-.14-1.03-.31s-.47-.42-.61-.77c-.25,.37-.57,.65-.94,.83s-.8,.27-1.27,.27c-.74,0-1.32-.21-1.75-.63-.43-.42-.64-.97-.64-1.65,0-.8,.29-1.42,.88-1.84,.58-.42,1.42-.64,2.5-.64h.92v-.42c0-.48-.11-.81-.33-1-.22-.19-.57-.29-1.06-.29-.54,0-1.2,.13-1.96,.39l-.42-1.22c.92-.35,1.82-.53,2.69-.53,1.89,0,2.84,.85,2.84,2.55v3.11c0,.29,.04,.5,.13,.64Zm-1.9-.68v-1.5h-.74c-1.16,0-1.74,.43-1.74,1.29,0,.35,.09,.63,.27,.83,.18,.2,.44,.29,.78,.29,.61,0,1.08-.3,1.43-.91Z"/>
    <path class="cls-8" d="M86.53,98.93l-2.41,7.41h-2.14l-2.45-7.41h1.95l1.58,5.96,1.62-5.96h1.85Z"/>
    <path class="cls-8" d="M93.58,103.19h-4.65c.06,.72,.24,1.23,.56,1.54,.32,.31,.74,.46,1.26,.46,.33,0,.63-.05,.92-.16,.29-.11,.6-.27,.92-.5l.74,1.02c-.82,.66-1.74,.99-2.74,.99-1.13,0-2-.35-2.61-1.04-.61-.69-.92-1.63-.92-2.83,0-.76,.13-1.44,.39-2.04,.26-.6,.64-1.07,1.13-1.41s1.08-.51,1.76-.51c1.04,0,1.84,.33,2.41,.99,.57,.66,.85,1.57,.85,2.75,0,.09-.01,.34-.04,.73Zm-1.74-1.25c0-1.3-.48-1.95-1.44-1.95-.44,0-.78,.16-1.03,.48-.25,.32-.39,.84-.44,1.55h2.91v-.08Z"/>
    <path class="cls-8" d="M95.65,106.05c-.32-.33-.48-.8-.48-1.41v-8.68l1.79-.2v8.82c0,.35,.14,.52,.42,.52,.14,0,.28-.02,.42-.07l.38,1.26c-.37,.17-.77,.25-1.19,.25-.57,0-1.01-.17-1.34-.5Z"/>
  </g>
  <g>
    <g>
      <path class="cls-8" d="M62.17,206.49v1.43l-4.47,6.73h4.51l-.2,1.51h-6.47v-1.41l4.55-6.79h-4.09v-1.47h6.16Z"/>
      <path class="cls-8" d="M69.52,213.01h-4.65c.06,.72,.24,1.23,.56,1.54,.32,.31,.74,.46,1.26,.46,.33,0,.63-.05,.92-.16,.29-.11,.6-.27,.92-.5l.74,1.02c-.82,.66-1.74,.99-2.74,.99-1.13,0-2-.35-2.61-1.04-.61-.69-.92-1.63-.92-2.83,0-.76,.13-1.44,.39-2.04,.26-.6,.64-1.07,1.13-1.41s1.08-.51,1.76-.51c1.04,0,1.84,.33,2.41,.99,.57,.66,.85,1.57,.85,2.75,0,.09-.01,.34-.04,.73Zm-1.74-1.25c0-1.3-.48-1.95-1.44-1.95-.44,0-.78,.16-1.03,.48-.25,.32-.39,.84-.44,1.55h2.91v-.08Z"/>
      <path class="cls-8" d="M80.45,209.16c.35,.41,.53,.95,.53,1.65v5.36h-1.79v-5.08c0-.79-.27-1.19-.81-1.19-.29,0-.54,.09-.75,.27s-.43,.46-.65,.85v5.15h-1.79v-5.08c0-.79-.27-1.19-.81-1.19-.3,0-.55,.09-.76,.27-.21,.18-.43,.46-.65,.85v5.15h-1.79v-7.41h1.55l.14,.97c.56-.78,1.27-1.18,2.14-1.18,.43,0,.8,.11,1.11,.33,.31,.22,.54,.52,.68,.92,.3-.4,.63-.71,.99-.92,.36-.21,.77-.32,1.24-.32,.6,0,1.07,.2,1.43,.61Z"/>
      <path class="cls-8" d="M88.67,214.84c.09,.14,.23,.24,.43,.32l-.38,1.19c-.42-.04-.76-.14-1.03-.31s-.47-.42-.61-.77c-.25,.37-.57,.65-.94,.83s-.8,.27-1.27,.27c-.74,0-1.32-.21-1.75-.63-.43-.42-.64-.97-.64-1.65,0-.8,.29-1.42,.88-1.84,.58-.42,1.42-.64,2.5-.64h.92v-.42c0-.48-.11-.81-.33-1-.22-.19-.57-.29-1.06-.29-.54,0-1.2,.13-1.96,.39l-.42-1.22c.92-.35,1.82-.53,2.69-.53,1.89,0,2.84,.85,2.84,2.55v3.11c0,.29,.04,.5,.13,.64Zm-1.9-.68v-1.5h-.74c-1.16,0-1.74,.43-1.74,1.29,0,.35,.09,.63,.27,.83,.18,.2,.44,.29,.78,.29,.61,0,1.08-.3,1.43-.91Z"/>
      <path class="cls-8" d="M96.21,209.14c.37,.4,.55,.95,.55,1.66v5.36h-1.79v-5.08c0-.44-.08-.75-.23-.92-.15-.18-.38-.27-.68-.27s-.59,.1-.83,.29-.49,.47-.72,.83v5.15h-1.79v-7.41h1.55l.14,.97c.61-.78,1.36-1.18,2.25-1.18,.66,0,1.18,.2,1.55,.6Z"/>
    </g>
    <g>
      <path class="cls-8" d="M10.05,225.22c.36,.18,.63,.43,.82,.74,.19,.31,.28,.65,.28,1.02,0,.49-.14,.89-.43,1.21-.28,.32-.66,.53-1.13,.64,.54,.05,.97,.24,1.31,.58s.5,.79,.5,1.37c0,.46-.11,.88-.34,1.26-.22,.38-.54,.67-.96,.88s-.9,.32-1.44,.32c-.49,0-.94-.09-1.34-.27s-.76-.45-1.07-.81l.66-.61c.26,.27,.53,.47,.81,.6,.28,.13,.58,.19,.91,.19,.5,0,.9-.14,1.19-.43,.29-.28,.43-.67,.43-1.15,0-.53-.14-.9-.41-1.12-.27-.22-.67-.32-1.19-.32h-.6l.13-.85h.41c.42,0,.76-.12,1.04-.37,.28-.25,.41-.6,.41-1.04,0-.38-.12-.67-.36-.89-.24-.22-.56-.33-.97-.33-.31,0-.6,.06-.86,.17-.26,.11-.53,.3-.8,.55l-.58-.66c.68-.63,1.44-.95,2.29-.95,.5,0,.92,.09,1.28,.28Z"/>
      <path class="cls-8" d="M16.96,225.78c.44,.56,.66,1.32,.66,2.29,0,1.1-.15,1.98-.44,2.65s-.75,1.2-1.36,1.6c-.61,.4-1.43,.75-2.47,1.05l-.25-.83c1.07-.3,1.89-.72,2.47-1.24,.57-.52,.88-1.21,.92-2.08-.18,.29-.43,.52-.74,.7-.31,.18-.66,.26-1.06,.26-.42,0-.79-.11-1.13-.32s-.6-.51-.8-.9c-.2-.39-.29-.84-.29-1.36s.12-1.02,.35-1.42c.23-.4,.54-.71,.93-.92,.39-.21,.82-.32,1.29-.32,.85,0,1.49,.28,1.93,.83Zm-.46,2.54c.02-.89-.09-1.53-.33-1.91s-.61-.58-1.12-.58c-.47,0-.84,.16-1.09,.47s-.38,.76-.38,1.33,.12,.98,.36,1.27c.24,.28,.56,.43,.97,.43,.63,0,1.16-.33,1.6-1Z"/>
      <path class="cls-8" d="M21.86,225.07v8.03h-1.1v-6.85l-1.87,1.14-.48-.78,2.48-1.54h.97Z"/>
      <path class="cls-8" d="M32.14,226.77l-2.15,6.32h-1.33l-2.18-6.32h1.2l1.66,5.34,1.64-5.34h1.16Z"/>
      <path class="cls-8" d="M35.93,233.13c-.25,.74-.59,1.32-1.04,1.75-.44,.43-1.08,.69-1.9,.77l-.12-.86c.42-.07,.75-.18,1-.31,.25-.14,.45-.31,.59-.52,.15-.21,.29-.5,.41-.86h-.37l-2.12-6.32h1.18l1.69,5.52,1.66-5.52h1.14l-2.11,6.36Z"/>
      <path class="cls-8" d="M43.01,226.77v.84l-3.3,4.56h3.34l-.13,.92h-4.45v-.83l3.29-4.56h-3.01v-.94h4.27Z"/>
      <path class="cls-8" d="M48.87,227.14c.32,.34,.49,.82,.49,1.42v4.54h-1.1v-4.38c0-.45-.08-.76-.25-.95-.17-.18-.42-.28-.74-.28s-.63,.1-.89,.29-.5,.47-.72,.83v4.49h-1.1v-6.32h.95l.1,.94c.22-.34,.5-.6,.83-.79,.33-.19,.7-.29,1.1-.29,.58,0,1.03,.17,1.35,.52Z"/>
      <path class="cls-8" d="M55.97,232.19c.09,.12,.22,.22,.4,.28l-.25,.77c-.33-.04-.59-.13-.79-.28s-.35-.37-.44-.67c-.42,.63-1.05,.95-1.88,.95-.62,0-1.12-.18-1.48-.53s-.54-.81-.54-1.38c0-.67,.24-1.19,.73-1.55,.48-.36,1.17-.54,2.06-.54h.97v-.47c0-.45-.11-.77-.32-.96-.22-.19-.55-.29-1-.29s-1.03,.11-1.7,.34l-.28-.8c.78-.29,1.51-.43,2.18-.43,.74,0,1.3,.18,1.67,.55,.37,.36,.55,.88,.55,1.55v2.89c0,.26,.04,.45,.13,.57Zm-1.24-.76v-1.45h-.83c-1.17,0-1.75,.43-1.75,1.3,0,.38,.09,.66,.28,.85,.18,.19,.46,.29,.82,.29,.63,0,1.13-.33,1.49-.98Z"/>
      <path class="cls-8" d="M65.7,227.15c.31,.35,.47,.82,.47,1.41v4.54h-1.1v-4.38c0-.82-.3-1.22-.89-1.22-.31,0-.58,.09-.79,.27s-.45,.46-.7,.85v4.49h-1.1v-4.38c0-.82-.3-1.22-.89-1.22-.32,0-.59,.09-.8,.28-.22,.18-.44,.46-.68,.84v4.49h-1.1v-6.32h.95l.1,.92c.47-.71,1.08-1.07,1.82-1.07,.39,0,.73,.1,1,.3,.28,.2,.47,.48,.59,.84,.25-.37,.52-.65,.82-.85,.3-.2,.65-.29,1.06-.29,.52,0,.94,.17,1.25,.52Z"/>
      <path class="cls-8" d="M73.14,230.31h-4.03c.05,.7,.22,1.21,.53,1.54,.3,.33,.7,.49,1.18,.49,.3,0,.58-.04,.84-.13,.26-.09,.52-.23,.8-.42l.48,.66c-.67,.53-1.41,.79-2.21,.79-.88,0-1.57-.29-2.06-.86-.49-.58-.74-1.37-.74-2.38,0-.66,.11-1.24,.32-1.75,.21-.51,.52-.91,.91-1.19,.4-.29,.86-.43,1.4-.43,.84,0,1.48,.28,1.93,.83,.45,.55,.67,1.32,.67,2.29,0,.18,0,.37-.02,.56Zm-1.07-.89c0-.62-.12-1.1-.37-1.43-.25-.33-.62-.49-1.12-.49-.9,0-1.4,.66-1.48,1.99h2.96v-.07Z"/>
      <path class="cls-8" d="M79.26,227.14c.32,.34,.49,.82,.49,1.42v4.54h-1.1v-4.38c0-.45-.08-.76-.25-.95-.17-.18-.42-.28-.74-.28s-.63,.1-.89,.29-.5,.47-.72,.83v4.49h-1.1v-6.32h.95l.1,.94c.22-.34,.5-.6,.83-.79,.33-.19,.7-.29,1.1-.29,.58,0,1.03,.17,1.35,.52Z"/>
      <path class="cls-8" d="M86.36,232.19c.09,.12,.22,.22,.4,.28l-.25,.77c-.33-.04-.59-.13-.79-.28s-.35-.37-.44-.67c-.42,.63-1.05,.95-1.88,.95-.62,0-1.12-.18-1.48-.53s-.54-.81-.54-1.38c0-.67,.24-1.19,.73-1.55,.48-.36,1.17-.54,2.06-.54h.97v-.47c0-.45-.11-.77-.32-.96-.22-.19-.55-.29-1-.29s-1.03,.11-1.7,.34l-.28-.8c.78-.29,1.51-.43,2.18-.43,.74,0,1.3,.18,1.67,.55,.37,.36,.55,.88,.55,1.55v2.89c0,.26,.04,.45,.13,.57Zm-1.45-8.71l.49,.92-2.54,1.03-.34-.59,2.39-1.37Zm.22,7.94v-1.45h-.83c-1.17,0-1.75,.43-1.75,1.3,0,.38,.09,.66,.28,.85,.18,.19,.46,.29,.82,.29,.63,0,1.13-.33,1.49-.98Z"/>
      <path class="cls-8" d="M92.82,227.14c.32,.34,.49,.82,.49,1.42v4.54h-1.1v-4.38c0-.45-.08-.76-.25-.95-.17-.18-.42-.28-.74-.28s-.63,.1-.89,.29-.5,.47-.72,.83v4.49h-1.1v-6.32h.95l.1,.94c.22-.34,.5-.6,.83-.79,.33-.19,.7-.29,1.1-.29,.58,0,1.03,.17,1.35,.52Z"/>
      <path class="cls-8" d="M97.02,223.48l.49,.92-2.54,1.03-.34-.59,2.39-1.37Zm-.4,3.29v6.32h-1.1v-6.32h1.1Z"/>
    </g>
  </g>
  <g>
    <g>
      <path class="cls-8" d="M66.35,154.35v9.67h-1.85v-9.67h1.85Zm5.43,0l-3.35,4.38,3.61,5.29h-2.2l-3.42-5.17,3.35-4.51h2Z"/>
      <path class="cls-8" d="M73.44,163.74c-.32-.33-.48-.8-.48-1.41v-8.68l1.79-.2v8.82c0,.35,.14,.52,.42,.52,.14,0,.28-.02,.42-.07l.38,1.26c-.37,.17-.77,.25-1.19,.25-.57,0-1.01-.17-1.34-.5Z"/>
      <path class="cls-8" d="M82.7,162.7c.09,.14,.23,.24,.43,.32l-.38,1.19c-.42-.04-.76-.14-1.03-.31s-.47-.42-.61-.77c-.25,.37-.57,.65-.94,.83s-.8,.27-1.27,.27c-.74,0-1.32-.21-1.75-.63-.43-.42-.64-.97-.64-1.65,0-.8,.29-1.42,.88-1.84,.58-.42,1.42-.64,2.5-.64h.92v-.42c0-.48-.11-.81-.33-1-.22-.19-.57-.29-1.06-.29-.54,0-1.2,.13-1.96,.39l-.42-1.22c.92-.35,1.82-.53,2.69-.53,1.89,0,2.84,.85,2.84,2.55v3.11c0,.29,.04,.5,.13,.64Zm-1.9-.68v-1.5h-.74c-1.16,0-1.74,.43-1.74,1.29,0,.35,.09,.63,.27,.83,.18,.2,.44,.29,.78,.29,.61,0,1.08-.3,1.43-.91Z"/>
      <path class="cls-8" d="M90.66,164.03h-1.55l-.1-1.04c-.27,.42-.59,.73-.96,.94-.37,.21-.8,.31-1.31,.31-.66,0-1.17-.2-1.53-.61-.36-.41-.54-.97-.54-1.69v-5.32h1.79v5.1c0,.42,.07,.72,.22,.9s.38,.27,.69,.27c.57,0,1.07-.35,1.5-1.05v-5.21h1.79v7.41Z"/>
      <path class="cls-8" d="M97.78,157.29l-.7,1.05c-.63-.4-1.25-.6-1.86-.6-.36,0-.63,.07-.83,.2s-.29,.31-.29,.54c0,.17,.04,.31,.13,.42s.24,.22,.46,.31c.22,.1,.54,.21,.97,.33,.8,.21,1.4,.5,1.79,.85,.39,.35,.58,.85,.58,1.48,0,.74-.3,1.31-.9,1.73-.6,.42-1.34,.62-2.23,.62-.61,0-1.16-.09-1.66-.28-.5-.19-.93-.44-1.29-.77l.9-1.01c.64,.49,1.32,.73,2.02,.73,.4,0,.72-.08,.96-.24s.36-.38,.36-.66c0-.21-.04-.38-.13-.51s-.25-.24-.48-.34c-.23-.1-.59-.22-1.07-.36-.76-.21-1.31-.49-1.67-.86s-.53-.83-.53-1.38c0-.41,.12-.78,.36-1.11s.57-.58,1.01-.77c.43-.19,.93-.28,1.49-.28,1,0,1.88,.29,2.63,.88Z"/>
    </g>
    <g>
      <path class="cls-8" d="M10.82,173.1c.36,.19,.65,.45,.85,.79,.2,.33,.3,.71,.3,1.12,0,.49-.11,.96-.33,1.4-.22,.45-.56,.93-1.01,1.45-.46,.52-1.15,1.24-2.08,2.17h3.61l-.13,.92H7.28v-.88c1.07-1.11,1.83-1.93,2.28-2.44s.77-.97,.96-1.35,.29-.8,.29-1.24c0-.42-.12-.74-.36-.98-.24-.24-.56-.35-.96-.35-.33,0-.62,.07-.86,.2-.25,.14-.51,.36-.79,.67l-.72-.58c.33-.41,.69-.71,1.09-.91,.4-.2,.85-.3,1.34-.3s.9,.1,1.27,.29Z"/>
      <path class="cls-8" d="M17.8,173.79h-3.13v2.36c.41-.21,.84-.31,1.28-.31,.69,0,1.24,.23,1.66,.68,.42,.45,.62,1.07,.62,1.87,0,.53-.12,1-.35,1.41-.23,.41-.56,.73-.98,.96-.42,.23-.91,.34-1.46,.34-.49,0-.92-.09-1.31-.26-.38-.17-.74-.43-1.07-.76l.65-.64c.26,.26,.52,.45,.79,.57,.27,.12,.58,.19,.92,.19,.51,0,.91-.16,1.21-.48s.44-.77,.44-1.36-.13-1.01-.4-1.27c-.26-.26-.62-.4-1.07-.4-.21,0-.4,.02-.58,.07-.18,.04-.36,.11-.56,.21h-.86v-4.04h4.34l-.16,.86Z"/>
      <path class="cls-8" d="M23.45,172.93v.83l-3,7.32-1.01-.34,2.89-6.91h-3.55v-.9h4.67Z"/>
      <path class="cls-8" d="M32.77,174.63l-2.15,6.32h-1.33l-2.18-6.32h1.2l1.66,5.34,1.64-5.34h1.16Z"/>
      <path class="cls-8" d="M36.56,180.99c-.25,.74-.59,1.32-1.04,1.75-.44,.43-1.08,.69-1.9,.77l-.12-.86c.42-.07,.75-.18,1-.31,.25-.14,.45-.31,.59-.52,.15-.21,.29-.5,.41-.86h-.37l-2.12-6.32h1.18l1.69,5.52,1.66-5.52h1.14l-2.11,6.36Z"/>
      <path class="cls-8" d="M43.64,174.63v.84l-3.3,4.56h3.34l-.13,.92h-4.45v-.83l3.29-4.56h-3.01v-.94h4.27Z"/>
      <path class="cls-8" d="M49.5,175.01c.32,.34,.49,.82,.49,1.42v4.54h-1.1v-4.38c0-.45-.08-.76-.25-.95-.17-.18-.42-.28-.74-.28s-.63,.1-.89,.29-.5,.47-.72,.83v4.49h-1.1v-6.32h.95l.1,.94c.22-.34,.5-.6,.83-.79,.33-.19,.7-.29,1.1-.29,.58,0,1.03,.17,1.35,.52Z"/>
      <path class="cls-8" d="M56.6,180.05c.09,.12,.22,.22,.4,.28l-.25,.77c-.33-.04-.59-.13-.79-.28s-.35-.37-.44-.67c-.42,.63-1.05,.95-1.88,.95-.62,0-1.12-.18-1.48-.53s-.54-.81-.54-1.38c0-.67,.24-1.19,.73-1.55,.48-.36,1.17-.54,2.06-.54h.97v-.47c0-.45-.11-.77-.32-.96-.22-.19-.55-.29-1-.29s-1.03,.11-1.7,.34l-.28-.8c.78-.29,1.51-.43,2.18-.43,.74,0,1.3,.18,1.67,.55,.37,.36,.55,.88,.55,1.55v2.89c0,.26,.04,.45,.13,.57Zm-1.24-.76v-1.45h-.83c-1.17,0-1.75,.43-1.75,1.3,0,.38,.09,.66,.28,.85,.18,.19,.46,.29,.82,.29,.63,0,1.13-.33,1.49-.98Z"/>
      <path class="cls-8" d="M66.33,175.01c.31,.35,.47,.82,.47,1.41v4.54h-1.1v-4.38c0-.82-.3-1.22-.89-1.22-.31,0-.58,.09-.79,.27s-.45,.46-.7,.85v4.49h-1.1v-4.38c0-.82-.3-1.22-.89-1.22-.32,0-.59,.09-.8,.28-.22,.18-.44,.46-.68,.84v4.49h-1.1v-6.32h.95l.1,.92c.47-.71,1.08-1.07,1.82-1.07,.39,0,.73,.1,1,.3,.28,.2,.47,.48,.59,.84,.25-.37,.52-.65,.82-.85,.3-.2,.65-.29,1.06-.29,.52,0,.94,.17,1.25,.52Z"/>
      <path class="cls-8" d="M73.77,178.17h-4.03c.05,.7,.22,1.21,.53,1.54,.3,.33,.7,.49,1.18,.49,.3,0,.58-.04,.84-.13,.26-.09,.52-.23,.8-.42l.48,.66c-.67,.53-1.41,.79-2.21,.79-.88,0-1.57-.29-2.06-.86-.49-.58-.74-1.37-.74-2.38,0-.66,.11-1.24,.32-1.75,.21-.51,.52-.91,.91-1.19,.4-.29,.86-.43,1.4-.43,.84,0,1.48,.28,1.93,.83,.45,.55,.67,1.32,.67,2.29,0,.18,0,.37-.02,.56Zm-1.07-.89c0-.62-.12-1.1-.37-1.43-.25-.33-.62-.49-1.12-.49-.9,0-1.4,.66-1.48,1.99h2.96v-.07Z"/>
      <path class="cls-8" d="M79.89,175.01c.32,.34,.49,.82,.49,1.42v4.54h-1.1v-4.38c0-.45-.08-.76-.25-.95-.17-.18-.42-.28-.74-.28s-.63,.1-.89,.29-.5,.47-.72,.83v4.49h-1.1v-6.32h.95l.1,.94c.22-.34,.5-.6,.83-.79,.33-.19,.7-.29,1.1-.29,.58,0,1.03,.17,1.35,.52Z"/>
      <path class="cls-8" d="M86.99,180.05c.09,.12,.22,.22,.4,.28l-.25,.77c-.33-.04-.59-.13-.79-.28s-.35-.37-.44-.67c-.42,.63-1.05,.95-1.88,.95-.62,0-1.12-.18-1.48-.53s-.54-.81-.54-1.38c0-.67,.24-1.19,.73-1.55,.48-.36,1.17-.54,2.06-.54h.97v-.47c0-.45-.11-.77-.32-.96-.22-.19-.55-.29-1-.29s-1.03,.11-1.7,.34l-.28-.8c.78-.29,1.51-.43,2.18-.43,.74,0,1.3,.18,1.67,.55,.37,.36,.55,.88,.55,1.55v2.89c0,.26,.04,.45,.13,.57Zm-1.45-8.71l.49,.92-2.54,1.03-.34-.59,2.39-1.37Zm.22,7.94v-1.45h-.83c-1.17,0-1.75,.43-1.75,1.3,0,.38,.09,.66,.28,.85,.18,.19,.46,.29,.82,.29,.63,0,1.13-.33,1.49-.98Z"/>
      <path class="cls-8" d="M93.45,175.01c.32,.34,.49,.82,.49,1.42v4.54h-1.1v-4.38c0-.45-.08-.76-.25-.95-.17-.18-.42-.28-.74-.28s-.63,.1-.89,.29-.5,.47-.72,.83v4.49h-1.1v-6.32h.95l.1,.94c.22-.34,.5-.6,.83-.79,.33-.19,.7-.29,1.1-.29,.58,0,1.03,.17,1.35,.52Z"/>
      <path class="cls-8" d="M97.65,171.35l.49,.92-2.54,1.03-.34-.59,2.39-1.37Zm-.4,3.29v6.32h-1.1v-6.32h1.1Z"/>
    </g>
  </g>
  <g>
    <path class="cls-8" d="M31.42,123.27h-.95l-.08-.98c-.24,.39-.52,.68-.83,.86-.31,.18-.69,.27-1.14,.27-.55,0-.98-.17-1.3-.5-.31-.34-.47-.81-.47-1.43v-4.54h1.1v4.42c0,.43,.08,.74,.23,.92,.15,.18,.4,.27,.74,.27,.62,0,1.14-.36,1.58-1.09v-4.51h1.1v6.32Z"/>
    <path class="cls-8" d="M38.6,114.4v8.87h-.97l-.11-.88c-.21,.32-.47,.57-.78,.75-.31,.18-.66,.27-1.04,.27-.75,0-1.34-.3-1.76-.89-.42-.59-.63-1.39-.63-2.39,0-.65,.1-1.22,.3-1.73s.49-.9,.86-1.18c.38-.28,.82-.43,1.32-.43,.65,0,1.22,.26,1.7,.78v-3.31l1.1,.13Zm-1.8,7.9c.24-.16,.47-.39,.7-.7v-3.1c-.21-.27-.43-.48-.67-.62-.24-.14-.5-.21-.8-.21-.49,0-.87,.2-1.13,.61-.27,.41-.4,1.02-.4,1.82s.12,1.42,.37,1.82c.25,.4,.6,.6,1.07,.6,.34,0,.62-.08,.86-.23Z"/>
    <path class="cls-8" d="M45.63,120.49h-4.03c.05,.7,.22,1.21,.53,1.54,.3,.33,.7,.49,1.18,.49,.3,0,.58-.04,.84-.13,.26-.09,.52-.23,.8-.42l.48,.66c-.67,.53-1.41,.79-2.21,.79-.88,0-1.57-.29-2.06-.86-.49-.58-.74-1.37-.74-2.38,0-.66,.11-1.24,.32-1.75,.21-.51,.52-.91,.91-1.19,.4-.29,.86-.43,1.4-.43,.84,0,1.48,.28,1.93,.83,.45,.55,.67,1.32,.67,2.29,0,.18,0,.37-.02,.56Zm-1.02-6.64l.47,.54-1.62,1.36h-.73l-1.63-1.36,.48-.54,1.51,1.01,1.52-1.01Zm-.05,5.75c0-.62-.12-1.1-.37-1.43-.25-.33-.62-.49-1.12-.49-.9,0-1.4,.66-1.48,1.99h2.96v-.07Z"/>
    <path class="cls-8" d="M47.71,123.05c-.24-.24-.35-.59-.35-1.03v-7.62l1.1-.13v7.73c0,.18,.03,.3,.09,.38,.06,.08,.16,.12,.31,.12s.29-.02,.41-.07l.29,.77c-.26,.14-.56,.22-.88,.22-.41,0-.73-.12-.97-.37Z"/>
    <path class="cls-8" d="M52.04,114.13c.14,.14,.22,.32,.22,.54s-.07,.39-.22,.53c-.14,.14-.33,.21-.56,.21s-.41-.07-.55-.21c-.14-.14-.22-.32-.22-.53s.07-.4,.22-.54c.14-.14,.33-.22,.55-.22s.42,.07,.56,.22Zm0,2.82v6.32h-1.1v-6.32h1.1Z"/>
    <path class="cls-8" d="M54.61,123.05c-.24-.24-.35-.59-.35-1.03v-7.62l1.1-.13v7.73c0,.18,.03,.3,.09,.38,.06,.08,.16,.12,.31,.12s.29-.02,.41-.07l.29,.77c-.26,.14-.56,.22-.88,.22-.41,0-.73-.12-.97-.37Z"/>
    <path class="cls-8" d="M64.35,116.96c.31,.11,.61,.28,.9,.52l-.53,.7c-.22-.16-.44-.28-.65-.35s-.45-.11-.7-.11c-.51,0-.91,.2-1.19,.61-.28,.41-.43,1.01-.43,1.81s.14,1.39,.42,1.77,.68,.57,1.2,.57c.25,0,.48-.04,.68-.11,.21-.08,.44-.2,.7-.37l.5,.72c-.58,.46-1.22,.7-1.93,.7-.86,0-1.53-.29-2.02-.86-.49-.58-.74-1.37-.74-2.39,0-.67,.11-1.26,.34-1.76,.22-.5,.54-.9,.95-1.18,.41-.28,.9-.42,1.47-.42,.38,0,.72,.05,1.03,.16Z"/>
    <path class="cls-8" d="M71.26,120.49h-4.03c.05,.7,.22,1.21,.53,1.54,.3,.33,.7,.49,1.18,.49,.3,0,.58-.04,.84-.13,.26-.09,.52-.23,.8-.42l.48,.66c-.67,.53-1.41,.79-2.21,.79-.88,0-1.57-.29-2.06-.86-.49-.58-.74-1.37-.74-2.38,0-.66,.11-1.24,.32-1.75,.21-.51,.52-.91,.91-1.19,.4-.29,.86-.43,1.4-.43,.84,0,1.48,.28,1.93,.83,.45,.55,.67,1.32,.67,2.29,0,.18,0,.37-.02,.56Zm-1.07-.89c0-.62-.12-1.1-.37-1.43-.25-.33-.62-.49-1.12-.49-.9,0-1.4,.66-1.48,1.99h2.96v-.07Z"/>
    <path class="cls-8" d="M73.34,123.05c-.24-.24-.35-.59-.35-1.03v-7.62l1.1-.13v7.73c0,.18,.03,.3,.09,.38,.06,.08,.16,.12,.31,.12s.29-.02,.41-.07l.29,.77c-.26,.14-.56,.22-.88,.22-.41,0-.73-.12-.97-.37Z"/>
    <path class="cls-8" d="M77.67,114.27v9h-1.1v-8.87l1.1-.13Zm3.64,2.68l-2.33,2.8,2.59,3.53h-1.32l-2.51-3.46,2.33-2.87h1.24Z"/>
    <path class="cls-8" d="M87.35,120.49h-4.03c.05,.7,.22,1.21,.53,1.54,.3,.33,.7,.49,1.18,.49,.3,0,.58-.04,.84-.13,.26-.09,.52-.23,.8-.42l.48,.66c-.67,.53-1.41,.79-2.21,.79-.88,0-1.57-.29-2.06-.86-.49-.58-.74-1.37-.74-2.38,0-.66,.11-1.24,.32-1.75,.21-.51,.52-.91,.91-1.19,.4-.29,.86-.43,1.4-.43,.84,0,1.48,.28,1.93,.83,.45,.55,.67,1.32,.67,2.29,0,.18,0,.37-.02,.56Zm-1.07-.89c0-.62-.12-1.1-.37-1.43-.25-.33-.62-.49-1.12-.49-.9,0-1.4,.66-1.48,1.99h2.96v-.07Z"/>
    <path class="cls-8" d="M96.74,117.32c.31,.35,.47,.82,.47,1.41v4.54h-1.1v-4.38c0-.82-.3-1.22-.89-1.22-.31,0-.58,.09-.79,.27s-.45,.46-.7,.85v4.49h-1.1v-4.38c0-.82-.3-1.22-.89-1.22-.32,0-.59,.09-.8,.28-.22,.18-.44,.46-.68,.84v4.49h-1.1v-6.32h.95l.1,.92c.47-.71,1.08-1.07,1.82-1.07,.39,0,.73,.1,1,.3,.28,.2,.47,.48,.59,.84,.25-.37,.52-.65,.82-.85,.3-.2,.65-.29,1.06-.29,.52,0,.94,.17,1.25,.52Z"/>
    <path class="cls-8" d="M13.11,130.51h-3.13v2.36c.41-.21,.84-.31,1.28-.31,.69,0,1.24,.23,1.66,.68,.42,.45,.62,1.07,.62,1.87,0,.53-.12,1-.35,1.41-.23,.41-.56,.73-.98,.96-.42,.23-.91,.34-1.46,.34-.49,0-.92-.09-1.31-.26-.38-.17-.74-.43-1.07-.76l.65-.64c.26,.26,.52,.45,.79,.57,.27,.12,.58,.19,.92,.19,.51,0,.91-.16,1.21-.48s.44-.77,.44-1.36-.13-1.01-.4-1.27c-.26-.26-.62-.4-1.07-.4-.21,0-.4,.02-.58,.07-.18,.04-.36,.11-.56,.21h-.86v-4.04h4.34l-.16,.86Z"/>
    <path class="cls-8" d="M17.35,129.64v8.03h-1.1v-6.85l-1.87,1.14-.48-.78,2.48-1.54h.97Z"/>
    <path class="cls-8" d="M22.37,129.64v8.03h-1.1v-6.85l-1.87,1.14-.48-.78,2.48-1.54h.97Z"/>
    <path class="cls-8" d="M32.66,131.34l-2.15,6.32h-1.33l-2.18-6.32h1.2l1.66,5.34,1.64-5.34h1.16Z"/>
    <path class="cls-8" d="M36.45,137.71c-.25,.74-.59,1.32-1.04,1.75-.44,.43-1.08,.69-1.9,.77l-.12-.86c.42-.07,.75-.18,1-.31,.25-.14,.45-.31,.59-.52,.15-.21,.29-.5,.41-.86h-.37l-2.12-6.32h1.18l1.69,5.52,1.66-5.52h1.14l-2.11,6.36Z"/>
    <path class="cls-8" d="M43.53,131.34v.84l-3.3,4.56h3.34l-.13,.92h-4.45v-.83l3.29-4.56h-3.01v-.94h4.27Z"/>
    <path class="cls-8" d="M49.39,131.72c.32,.34,.49,.82,.49,1.42v4.54h-1.1v-4.38c0-.45-.08-.76-.25-.95-.17-.18-.42-.28-.74-.28s-.63,.1-.89,.29-.5,.47-.72,.83v4.49h-1.1v-6.32h.95l.1,.94c.22-.34,.5-.6,.83-.79,.33-.19,.7-.29,1.1-.29,.58,0,1.03,.17,1.35,.52Z"/>
    <path class="cls-8" d="M56.49,136.76c.09,.12,.22,.22,.4,.28l-.25,.77c-.33-.04-.59-.13-.79-.28s-.35-.37-.44-.67c-.42,.63-1.05,.95-1.88,.95-.62,0-1.12-.18-1.48-.53s-.54-.81-.54-1.38c0-.67,.24-1.19,.73-1.55,.48-.36,1.17-.54,2.06-.54h.97v-.47c0-.45-.11-.77-.32-.96-.22-.19-.55-.29-1-.29s-1.03,.11-1.7,.34l-.28-.8c.78-.29,1.51-.43,2.18-.43,.74,0,1.3,.18,1.67,.55,.37,.36,.55,.88,.55,1.55v2.89c0,.26,.04,.45,.13,.57Zm-1.24-.76v-1.45h-.83c-1.17,0-1.75,.43-1.75,1.3,0,.38,.09,.66,.28,.85,.18,.19,.46,.29,.82,.29,.63,0,1.13-.33,1.49-.98Z"/>
    <path class="cls-8" d="M66.22,131.72c.31,.35,.47,.82,.47,1.41v4.54h-1.1v-4.38c0-.82-.3-1.22-.89-1.22-.31,0-.58,.09-.79,.27s-.45,.46-.7,.85v4.49h-1.1v-4.38c0-.82-.3-1.22-.89-1.22-.32,0-.59,.09-.8,.28-.22,.18-.44,.46-.68,.84v4.49h-1.1v-6.32h.95l.1,.92c.47-.71,1.08-1.07,1.82-1.07,.39,0,.73,.1,1,.3,.28,.2,.47,.48,.59,.84,.25-.37,.52-.65,.82-.85,.3-.2,.65-.29,1.06-.29,.52,0,.94,.17,1.25,.52Z"/>
    <path class="cls-8" d="M73.66,134.89h-4.03c.05,.7,.22,1.21,.53,1.54,.3,.33,.7,.49,1.18,.49,.3,0,.58-.04,.84-.13,.26-.09,.52-.23,.8-.42l.48,.66c-.67,.53-1.41,.79-2.21,.79-.88,0-1.57-.29-2.06-.86-.49-.58-.74-1.37-.74-2.38,0-.66,.11-1.24,.32-1.75,.21-.51,.52-.91,.91-1.19,.4-.29,.86-.43,1.4-.43,.84,0,1.48,.28,1.93,.83,.45,.55,.67,1.32,.67,2.29,0,.18,0,.37-.02,.56Zm-1.07-.89c0-.62-.12-1.1-.37-1.43-.25-.33-.62-.49-1.12-.49-.9,0-1.4,.66-1.48,1.99h2.96v-.07Z"/>
    <path class="cls-8" d="M79.78,131.72c.32,.34,.49,.82,.49,1.42v4.54h-1.1v-4.38c0-.45-.08-.76-.25-.95-.17-.18-.42-.28-.74-.28s-.63,.1-.89,.29-.5,.47-.72,.83v4.49h-1.1v-6.32h.95l.1,.94c.22-.34,.5-.6,.83-.79,.33-.19,.7-.29,1.1-.29,.58,0,1.03,.17,1.35,.52Z"/>
    <path class="cls-8" d="M86.87,136.76c.09,.12,.22,.22,.4,.28l-.25,.77c-.33-.04-.59-.13-.79-.28s-.35-.37-.44-.67c-.42,.63-1.05,.95-1.88,.95-.62,0-1.12-.18-1.48-.53s-.54-.81-.54-1.38c0-.67,.24-1.19,.73-1.55,.48-.36,1.17-.54,2.06-.54h.97v-.47c0-.45-.11-.77-.32-.96-.22-.19-.55-.29-1-.29s-1.03,.11-1.7,.34l-.28-.8c.78-.29,1.51-.43,2.18-.43,.74,0,1.3,.18,1.67,.55,.37,.36,.55,.88,.55,1.55v2.89c0,.26,.04,.45,.13,.57Zm-1.45-8.71l.49,.92-2.54,1.03-.34-.59,2.39-1.37Zm.22,7.94v-1.45h-.83c-1.17,0-1.75,.43-1.75,1.3,0,.38,.09,.66,.28,.85,.18,.19,.46,.29,.82,.29,.63,0,1.13-.33,1.49-.98Z"/>
    <path class="cls-8" d="M93.34,131.72c.32,.34,.49,.82,.49,1.42v4.54h-1.1v-4.38c0-.45-.08-.76-.25-.95-.17-.18-.42-.28-.74-.28s-.63,.1-.89,.29-.5,.47-.72,.83v4.49h-1.1v-6.32h.95l.1,.94c.22-.34,.5-.6,.83-.79,.33-.19,.7-.29,1.1-.29,.58,0,1.03,.17,1.35,.52Z"/>
    <path class="cls-8" d="M97.54,128.06l.49,.92-2.54,1.03-.34-.59,2.39-1.37Zm-.4,3.29v6.32h-1.1v-6.32h1.1Z"/>
  </g>
  <g class="cls-11">
    <path d="M10.26,26.24v-5.56H5.84v5.56H3.46V13.8h2.38v4.99h4.43v-4.99h2.39v12.44h-2.39Z"/>
    <path d="M22.69,24.54c.11,.17,.3,.31,.55,.41l-.49,1.53c-.54-.05-.98-.18-1.32-.4-.34-.22-.6-.55-.78-.99-.32,.48-.73,.84-1.21,1.07s-1.03,.35-1.63,.35c-.95,0-1.7-.27-2.25-.81s-.83-1.25-.83-2.12c0-1.03,.38-1.82,1.12-2.37,.75-.55,1.82-.82,3.21-.82h1.19v-.54c0-.61-.14-1.04-.42-1.29-.28-.25-.74-.37-1.36-.37-.7,0-1.54,.17-2.52,.5l-.54-1.57c1.19-.46,2.34-.68,3.46-.68,2.44,0,3.65,1.09,3.65,3.28v4c0,.37,.06,.65,.17,.82Zm-2.44-.87v-1.93h-.95c-1.49,0-2.23,.55-2.23,1.66,0,.46,.11,.81,.34,1.06,.23,.25,.56,.38,1.01,.38,.78,0,1.39-.39,1.84-1.17Z"/>
    <path d="M32.69,16.72l-3.1,9.52h-2.75l-3.15-9.52h2.5l2.03,7.67,2.09-7.67h2.38Z"/>
    <path d="M41.76,22.19h-5.98c.07,.92,.31,1.58,.72,1.98s.95,.59,1.62,.59c.42,0,.82-.07,1.19-.21,.37-.14,.77-.35,1.19-.64l.95,1.31c-1.06,.85-2.23,1.28-3.53,1.28-1.45,0-2.57-.44-3.36-1.33-.79-.89-1.18-2.1-1.18-3.64,0-.97,.17-1.84,.5-2.62s.82-1.38,1.46-1.82c.64-.44,1.39-.66,2.27-.66,1.33,0,2.36,.42,3.1,1.27,.73,.85,1.1,2.02,1.1,3.54,0,.12-.02,.43-.05,.94Zm-2.23-1.6c0-1.67-.62-2.5-1.85-2.5-.56,0-1,.21-1.32,.62-.32,.41-.51,1.08-.57,1.99h3.74v-.11Z"/>
    <path d="M44.42,25.87c-.41-.43-.62-1.03-.62-1.81V12.9l2.3-.25v11.34c0,.44,.18,.67,.54,.67,.18,0,.36-.03,.54-.09l.49,1.62c-.48,.22-.99,.32-1.53,.32-.73,0-1.3-.21-1.72-.64Z"/>
    <path d="M61.35,16.72l-3.1,9.52h-2.75l-3.15-9.52h2.5l2.03,7.67,2.09-7.67h2.38Z"/>
    <path d="M67.38,26.27c-.38,1.18-.97,2.09-1.75,2.74-.78,.65-1.85,1.04-3.2,1.14l-.23-1.67c.62-.1,1.12-.23,1.5-.4,.38-.17,.68-.41,.91-.69,.23-.29,.44-.67,.63-1.15h-.79l-3.02-9.52h2.45l2.07,7.99,2.16-7.99h2.38l-3.1,9.56Z"/>
    <path d="M78.07,16.72v1.66l-4.61,6.07h4.7l-.23,1.8h-7.11v-1.66l4.63-6.07h-4.23v-1.8h6.86Z"/>
    <path d="M87.02,17.21c.47,.51,.71,1.22,.71,2.13v6.89h-2.3v-6.53c0-.56-.1-.96-.3-1.19-.2-.23-.49-.34-.87-.34s-.75,.12-1.07,.37c-.32,.25-.63,.6-.93,1.07v6.62h-2.3v-9.52h2l.18,1.24c.78-1.01,1.75-1.51,2.9-1.51,.85,0,1.51,.25,1.99,.77Z"/>
    <path d="M97.63,24.54c.11,.17,.3,.31,.55,.41l-.49,1.53c-.54-.05-.98-.18-1.32-.4-.34-.22-.6-.55-.78-.99-.32,.48-.73,.84-1.21,1.07s-1.03,.35-1.63,.35c-.95,0-1.7-.27-2.25-.81s-.83-1.25-.83-2.12c0-1.03,.38-1.82,1.12-2.37,.75-.55,1.82-.82,3.21-.82h1.19v-.54c0-.61-.14-1.04-.42-1.29-.28-.25-.74-.37-1.36-.37-.7,0-1.54,.17-2.52,.5l-.54-1.57c1.19-.46,2.34-.68,3.46-.68,2.44,0,3.65,1.09,3.65,3.28v4c0,.37,.06,.65,.17,.82Zm-2.44-.87v-1.93h-.95c-1.49,0-2.23,.55-2.23,1.66,0,.46,.11,.81,.34,1.06,.23,.25,.56,.38,1.01,.38,.78,0,1.39-.39,1.84-1.17Z"/>
    <path d="M112.18,17.23c.46,.52,.68,1.23,.68,2.11v6.89h-2.3v-6.53c0-1.02-.35-1.53-1.04-1.53-.37,0-.69,.12-.96,.35-.27,.23-.55,.6-.84,1.09v6.62h-2.3v-6.53c0-1.02-.35-1.53-1.04-1.53-.38,0-.71,.12-.98,.35-.27,.23-.55,.6-.84,1.09v6.62h-2.3v-9.52h2l.18,1.24c.72-1.01,1.64-1.51,2.75-1.51,.55,0,1.03,.14,1.43,.42,.4,.28,.69,.68,.87,1.18,.38-.52,.81-.91,1.27-1.19s.99-.41,1.59-.41c.77,0,1.38,.26,1.84,.78Z"/>
    <path d="M123.3,22.19h-5.98c.07,.92,.31,1.58,.72,1.98s.95,.59,1.62,.59c.42,0,.82-.07,1.19-.21,.37-.14,.77-.35,1.19-.64l.95,1.31c-1.06,.85-2.23,1.28-3.53,1.28-1.45,0-2.57-.44-3.36-1.33-.79-.89-1.18-2.1-1.18-3.64,0-.97,.17-1.84,.5-2.62s.82-1.38,1.46-1.82c.64-.44,1.39-.66,2.27-.66,1.33,0,2.36,.42,3.1,1.27,.73,.85,1.1,2.02,1.1,3.54,0,.12-.02,.43-.05,.94Zm-2.23-1.6c0-1.67-.62-2.5-1.85-2.5-.56,0-1,.21-1.32,.62-.32,.41-.51,1.08-.57,1.99h3.74v-.11Z"/>
    <path d="M132.49,17.21c.47,.51,.71,1.22,.71,2.13v6.89h-2.3v-6.53c0-.56-.1-.96-.3-1.19-.2-.23-.49-.34-.87-.34s-.75,.12-1.07,.37c-.32,.25-.63,.6-.93,1.07v6.62h-2.3v-9.52h2l.18,1.24c.78-1.01,1.75-1.51,2.9-1.51,.85,0,1.51,.25,1.99,.77Z"/>
    <path d="M143.09,24.54c.11,.17,.3,.31,.55,.41l-.49,1.53c-.54-.05-.98-.18-1.32-.4-.34-.22-.6-.55-.78-.99-.32,.48-.73,.84-1.21,1.07s-1.03,.35-1.63,.35c-.95,0-1.7-.27-2.25-.81s-.83-1.25-.83-2.12c0-1.03,.38-1.82,1.12-2.37,.75-.55,1.82-.82,3.21-.82h1.19v-.54c0-.61-.14-1.04-.42-1.29-.28-.25-.74-.37-1.36-.37-.7,0-1.54,.17-2.52,.5l-.54-1.57c1.19-.46,2.34-.68,3.46-.68,2.44,0,3.65,1.09,3.65,3.28v4c0,.37,.06,.65,.17,.82Zm-2.44-.87v-1.93h-.95c-1.49,0-2.23,.55-2.23,1.66,0,.46,.11,.81,.34,1.06,.23,.25,.56,.38,1.01,.38,.78,0,1.39-.39,1.84-1.17Z"/>
    <path d="M146.06,25.87c-.41-.43-.62-1.03-.62-1.81V12.9l2.3-.25v11.34c0,.44,.18,.67,.54,.67,.18,0,.36-.03,.54-.09l.49,1.62c-.48,.22-.99,.32-1.53,.32-.73,0-1.3-.21-1.72-.64Z"/>
    <path d="M162.41,17.21c.47,.51,.71,1.22,.71,2.13v6.89h-2.3v-6.53c0-.56-.1-.96-.3-1.19-.2-.23-.49-.34-.87-.34s-.75,.12-1.07,.37c-.32,.25-.63,.6-.93,1.07v6.62h-2.3v-9.52h2l.18,1.24c.78-1.01,1.75-1.51,2.9-1.51,.85,0,1.51,.25,1.99,.77Z"/>
    <path d="M173.56,22.19h-5.98c.07,.92,.31,1.58,.72,1.98s.95,.59,1.62,.59c.42,0,.82-.07,1.19-.21,.37-.14,.77-.35,1.19-.64l.95,1.31c-1.06,.85-2.23,1.28-3.53,1.28-1.45,0-2.57-.44-3.36-1.33-.79-.89-1.18-2.1-1.18-3.64,0-.97,.17-1.84,.5-2.62s.82-1.38,1.46-1.82c.64-.44,1.39-.66,2.27-.66,1.33,0,2.36,.42,3.1,1.27,.73,.85,1.1,2.02,1.1,3.54,0,.12-.02,.43-.05,.94Zm-2.23-1.6c0-1.67-.62-2.5-1.85-2.5-.56,0-1,.21-1.32,.62-.32,.41-.51,1.08-.57,1.99h3.74v-.11Z"/>
    <path d="M177.97,25.39c0,.94-.13,1.7-.41,2.3-.27,.59-.65,1.07-1.14,1.43-.49,.36-1.13,.7-1.93,1.03l-.74-1.67c.47-.22,.83-.43,1.1-.64,.26-.21,.46-.49,.6-.85,.14-.36,.21-.84,.21-1.44v-8.82h2.3v8.68Zm-.12-13.09c.27,.27,.41,.6,.41,1s-.13,.73-.41,.99c-.27,.26-.62,.4-1.05,.4s-.76-.13-1.04-.4c-.27-.26-.41-.59-.41-.99s.14-.73,.41-1c.27-.27,.62-.41,1.04-.41s.78,.14,1.05,.41Z"/>
    <path d="M188.39,16.72l-3.1,9.52h-2.75l-3.15-9.52h2.5l2.03,7.67,2.09-7.67h2.38Z"/>
    <path d="M192.33,11.48l.94,1.8-4.07,1.62-.65-1.17,3.78-2.25Zm-.22,5.24v9.52h-2.3v-9.52h2.3Z"/>
    <path d="M200.41,16.72c.5,.18,.97,.46,1.41,.85l-1.03,1.39c-.32-.24-.64-.41-.94-.52-.3-.11-.63-.16-.99-.16-1.43,0-2.14,1.09-2.14,3.26,0,1.1,.19,1.9,.56,2.38,.37,.49,.9,.73,1.58,.73,.34,0,.64-.05,.93-.16,.28-.11,.62-.28,1-.52l1.03,1.46c-.9,.73-1.93,1.1-3.08,1.1-.91,0-1.7-.2-2.38-.6-.67-.4-1.19-.97-1.55-1.72-.36-.74-.54-1.62-.54-2.63s.18-1.9,.54-2.67c.36-.77,.88-1.37,1.55-1.8,.67-.43,1.46-.64,2.36-.64,.62,0,1.19,.09,1.68,.27Z"/>
    <path d="M210.89,22.19h-5.98c.07,.92,.31,1.58,.72,1.98s.95,.59,1.62,.59c.42,0,.82-.07,1.19-.21,.37-.14,.77-.35,1.19-.64l.95,1.31c-1.06,.85-2.23,1.28-3.53,1.28-1.45,0-2.57-.44-3.36-1.33-.79-.89-1.18-2.1-1.18-3.64,0-.97,.17-1.84,.5-2.62s.82-1.38,1.46-1.82c.64-.44,1.39-.66,2.27-.66,1.33,0,2.36,.42,3.1,1.27,.73,.85,1.1,2.02,1.1,3.54,0,.12-.02,.43-.05,.94Zm-2.23-1.6c0-1.67-.62-2.5-1.85-2.5-.56,0-1,.21-1.32,.62-.32,.41-.51,1.08-.57,1.99h3.74v-.11Z"/>
    <path d="M223.71,16.72v1.66l-4.61,6.07h4.7l-.23,1.8h-7.11v-1.66l4.63-6.07h-4.23v-1.8h6.86Zm-1.17-4.88l.88,1.01-2.5,2.25h-1.44l-2.5-2.25,.88-1.01,2.34,1.58,2.34-1.58Z"/>
    <path d="M227.78,12.3c.27,.27,.4,.6,.4,1s-.13,.73-.4,.99c-.27,.26-.62,.4-1.05,.4s-.76-.13-1.03-.4c-.27-.26-.41-.59-.41-.99s.13-.73,.41-1c.27-.27,.61-.41,1.03-.41s.78,.14,1.05,.41Zm.12,4.42v9.52h-2.3v-9.52h2.3Z"/>
    <path d="M238.32,16.72l-3.1,9.52h-2.75l-3.15-9.52h2.5l2.03,7.67,2.09-7.67h2.38Z"/>
    <path d="M244.35,26.27c-.38,1.18-.97,2.09-1.75,2.74-.78,.65-1.85,1.04-3.2,1.14l-.23-1.67c.62-.1,1.12-.23,1.5-.4,.38-.17,.68-.41,.91-.69,.23-.29,.44-.67,.63-1.15h-.79l-3.02-9.52h2.45l2.07,7.99,2.16-7.99h2.38l-3.1,9.56Zm-.07-14.8l.94,1.8-4.07,1.62-.65-1.17,3.78-2.25Z"/>
    <path d="M254.26,16.72c.5,.18,.97,.46,1.41,.85l-1.03,1.39c-.32-.24-.64-.41-.94-.52-.3-.11-.63-.16-.99-.16-1.43,0-2.14,1.09-2.14,3.26,0,1.1,.19,1.9,.56,2.38,.37,.49,.9,.73,1.58,.73,.34,0,.64-.05,.93-.16,.28-.11,.62-.28,1-.52l1.03,1.46c-.9,.73-1.93,1.1-3.08,1.1-.91,0-1.7-.2-2.38-.6-.67-.4-1.19-.97-1.55-1.72-.36-.74-.54-1.62-.54-2.63s.18-1.9,.54-2.67c.36-.77,.88-1.37,1.55-1.8,.67-.43,1.46-.64,2.36-.64,.62,0,1.19,.09,1.68,.27Z"/>
    <path d="M264.4,17.22c.48,.52,.72,1.22,.72,2.12v6.89h-2.3v-6.53c0-.56-.1-.96-.3-1.19-.2-.23-.49-.34-.87-.34s-.74,.12-1.06,.37-.64,.6-.94,1.05v6.64h-2.3V12.92l2.3-.23v5.17c.77-.94,1.69-1.4,2.77-1.4,.84,0,1.5,.26,1.98,.77Z"/>
    <path d="M274.49,12.3c.27,.27,.4,.6,.4,1s-.13,.73-.4,.99c-.27,.26-.62,.4-1.05,.4s-.76-.13-1.03-.4c-.27-.26-.41-.59-.41-.99s.13-.73,.41-1c.27-.27,.61-.41,1.03-.41s.78,.14,1.05,.41Zm.12,4.42v9.52h-2.3v-9.52h2.3Z"/>
    <path d="M293.82,17.23c.46,.52,.68,1.23,.68,2.11v6.89h-2.3v-6.53c0-1.02-.35-1.53-1.04-1.53-.37,0-.69,.12-.96,.35-.27,.23-.55,.6-.84,1.09v6.62h-2.3v-6.53c0-1.02-.35-1.53-1.04-1.53-.38,0-.71,.12-.98,.35-.27,.23-.55,.6-.84,1.09v6.62h-2.3v-9.52h2l.18,1.24c.72-1.01,1.64-1.51,2.75-1.51,.55,0,1.03,.14,1.43,.42,.4,.28,.69,.68,.87,1.18,.38-.52,.81-.91,1.27-1.19s.99-.41,1.59-.41c.77,0,1.38,.26,1.84,.78Z"/>
    <path d="M302.83,16.59l-.4,2.23c-.29-.07-.57-.11-.85-.11-.56,0-1.01,.2-1.33,.6s-.58,1.02-.77,1.84v5.08h-2.3v-9.52h2l.22,1.87c.23-.68,.56-1.21,.99-1.58,.43-.37,.93-.55,1.49-.55,.35,0,.67,.04,.95,.13Z"/>
    <path d="M309.73,25.79c-.34,.24-.71,.42-1.12,.54-.41,.12-.84,.18-1.27,.18-.94-.01-1.65-.28-2.13-.8-.49-.52-.73-1.29-.73-2.31v-5.02h-1.49v-1.66h1.49v-2.11l2.3-.27v2.38h2.21l-.23,1.66h-1.98v4.97c0,.47,.08,.8,.24,1.01,.16,.2,.42,.31,.77,.31s.73-.11,1.13-.34l.81,1.48Z"/>
    <path d="M318.58,16.72l-3.1,9.52h-2.75l-3.15-9.52h2.5l2.03,7.67,2.09-7.67h2.38Z"/>
    <path d="M324.61,26.27c-.38,1.18-.97,2.09-1.75,2.74-.78,.65-1.85,1.04-3.2,1.14l-.23-1.67c.62-.1,1.12-.23,1.5-.4,.38-.17,.68-.41,.91-.69,.23-.29,.44-.67,.63-1.15h-.79l-3.02-9.52h2.45l2.07,7.99,2.16-7.99h2.38l-3.1,9.56Zm-.07-14.8l.94,1.8-4.07,1.62-.65-1.17,3.78-2.25Z"/>
    <path d="M334.52,16.72c.5,.18,.97,.46,1.41,.85l-1.03,1.39c-.32-.24-.64-.41-.94-.52-.3-.11-.63-.16-.99-.16-1.43,0-2.14,1.09-2.14,3.26,0,1.1,.19,1.9,.56,2.38,.37,.49,.9,.73,1.58,.73,.34,0,.64-.05,.93-.16,.28-.11,.62-.28,1-.52l1.03,1.46c-.9,.73-1.93,1.1-3.08,1.1-.91,0-1.7-.2-2.38-.6-.67-.4-1.19-.97-1.55-1.72-.36-.74-.54-1.62-.54-2.63s.18-1.9,.54-2.67c.36-.77,.88-1.37,1.55-1.8,.67-.43,1.46-.64,2.36-.64,.62,0,1.19,.09,1.68,.27Z"/>
    <path d="M344.67,17.22c.48,.52,.72,1.22,.72,2.12v6.89h-2.3v-6.53c0-.56-.1-.96-.3-1.19-.2-.23-.49-.34-.87-.34s-.74,.12-1.06,.37-.64,.6-.94,1.05v6.64h-2.3V12.92l2.3-.23v5.17c.77-.94,1.69-1.4,2.77-1.4,.84,0,1.5,.26,1.98,.77Z"/>
  </g>
  <rect class="cls-7" x="114.18" y="96.55" width="386.26" height="40"/>
  <rect class="cls-5" x="500.44" y="96.55" width="115.98" height="40"/>
  <g>
    <path class="cls-6" d="M224.55,112.39c.39,.2,.68,.47,.88,.81,.2,.34,.31,.71,.31,1.1,0,.53-.15,.96-.46,1.31s-.72,.57-1.23,.7c.58,.05,1.05,.26,1.42,.62,.36,.36,.55,.86,.55,1.48,0,.5-.12,.96-.36,1.36-.24,.41-.59,.73-1.04,.96-.45,.23-.97,.34-1.56,.34-.53,0-1.01-.1-1.46-.29-.44-.19-.83-.49-1.16-.88l.71-.66c.29,.29,.58,.51,.88,.65,.3,.14,.63,.21,.98,.21,.55,0,.98-.15,1.29-.46,.31-.31,.47-.72,.47-1.24,0-.57-.15-.98-.44-1.21s-.72-.35-1.29-.35h-.65l.14-.92h.44c.45,0,.83-.13,1.12-.4,.3-.27,.45-.65,.45-1.13,0-.41-.13-.73-.39-.97s-.61-.36-1.05-.36c-.34,0-.65,.06-.93,.18-.28,.12-.57,.32-.86,.6l-.62-.71c.74-.68,1.56-1.03,2.48-1.03,.54,0,1,.1,1.38,.3Z"/>
    <path class="cls-6" d="M232.03,112.99c.48,.6,.71,1.43,.71,2.48,0,1.19-.16,2.14-.48,2.87-.32,.72-.81,1.3-1.47,1.73-.66,.43-1.55,.81-2.68,1.14l-.27-.9c1.16-.33,2.05-.78,2.67-1.34,.62-.56,.95-1.31,1-2.25-.2,.31-.47,.56-.81,.75-.34,.19-.72,.29-1.14,.29-.45,0-.86-.11-1.22-.34-.36-.23-.65-.55-.86-.98-.21-.42-.32-.91-.32-1.48s.13-1.1,.38-1.53c.25-.43,.59-.77,1.01-.99,.42-.23,.89-.34,1.4-.34,.92,0,1.62,.3,2.09,.9Zm-.49,2.75c.02-.96-.1-1.65-.36-2.07s-.66-.63-1.22-.63c-.51,0-.91,.17-1.18,.51s-.42,.82-.42,1.44,.13,1.06,.39,1.37c.26,.31,.61,.46,1.05,.46,.68,0,1.26-.36,1.73-1.08Z"/>
    <path class="cls-6" d="M237.45,112.39c.39,.2,.68,.47,.88,.81,.2,.34,.31,.71,.31,1.1,0,.53-.15,.96-.46,1.31s-.72,.57-1.23,.7c.58,.05,1.05,.26,1.42,.62,.36,.36,.55,.86,.55,1.48,0,.5-.12,.96-.36,1.36-.24,.41-.59,.73-1.04,.96-.45,.23-.97,.34-1.56,.34-.53,0-1.01-.1-1.46-.29-.44-.19-.83-.49-1.16-.88l.71-.66c.29,.29,.58,.51,.88,.65,.3,.14,.63,.21,.98,.21,.55,0,.98-.15,1.29-.46,.31-.31,.47-.72,.47-1.24,0-.57-.15-.98-.44-1.21s-.72-.35-1.29-.35h-.65l.14-.92h.44c.45,0,.83-.13,1.12-.4,.3-.27,.45-.65,.45-1.13,0-.41-.13-.73-.39-.97s-.61-.36-1.05-.36c-.34,0-.65,.06-.93,.18-.28,.12-.57,.32-.86,.6l-.62-.71c.74-.68,1.56-1.03,2.48-1.03,.54,0,1,.1,1.38,.3Z"/>
  </g>
  <g>
    <path class="cls-9" d="M553.58,112.15v8.7h-1.2v-7.42l-2.03,1.23-.52-.85,2.69-1.66h1.05Z"/>
    <path class="cls-9" d="M559.02,112.15v8.7h-1.2v-7.42l-2.03,1.23-.52-.85,2.69-1.66h1.05Z"/>
    <path class="cls-9" d="M567.03,118.52c0,.48-.13,.9-.38,1.28s-.61,.67-1.07,.88c-.46,.21-.98,.32-1.56,.32s-1.11-.1-1.56-.31c-.45-.21-.8-.5-1.05-.87-.25-.37-.37-.8-.37-1.27,0-.54,.15-.99,.44-1.35,.29-.36,.72-.67,1.28-.91-.46-.23-.8-.52-1.02-.85-.22-.33-.33-.73-.33-1.18s.12-.87,.37-1.21c.25-.34,.57-.59,.98-.77,.4-.17,.83-.26,1.29-.26s.88,.08,1.28,.25c.4,.17,.73,.41,.98,.75,.25,.33,.38,.73,.38,1.2,0,.43-.12,.81-.36,1.12-.24,.31-.62,.59-1.12,.85,1.22,.49,1.83,1.27,1.83,2.34Zm-1.72,1.12c.32-.28,.47-.65,.47-1.1,0-.31-.06-.57-.18-.79-.12-.21-.32-.4-.58-.56-.27-.16-.65-.32-1.13-.49l-.32-.12c-.43,.21-.75,.47-.96,.79s-.31,.71-.31,1.18,.16,.85,.47,1.11c.31,.26,.74,.4,1.27,.4s.96-.14,1.28-.42Zm-2.34-6.37c-.26,.23-.4,.57-.4,1s.13,.73,.38,.95c.25,.22,.67,.42,1.23,.6l.22,.08c.39-.23,.67-.46,.84-.71s.26-.56,.26-.92c0-.41-.13-.73-.38-.98-.26-.24-.62-.36-1.09-.36s-.81,.12-1.07,.35Z"/>
  </g>
  <rect class="cls-7" x="114.18" y="148.69" width="230.97" height="40"/>
  <rect class="cls-5" x="345.15" y="148.69" width="21.62" height="40"/>
  <g>
    <path class="cls-6" d="M224.45,164.54c.39,.21,.7,.49,.92,.85,.22,.36,.33,.77,.33,1.22,0,.53-.12,1.04-.36,1.52s-.6,1.01-1.1,1.57-1.24,1.35-2.25,2.35h3.91l-.14,1h-5.13v-.95c1.16-1.2,1.98-2.09,2.47-2.65,.49-.56,.83-1.05,1.04-1.46s.31-.86,.31-1.34c0-.45-.13-.8-.39-1.06-.26-.26-.61-.38-1.04-.38-.36,0-.67,.07-.94,.22-.27,.15-.55,.39-.86,.73l-.78-.62c.36-.44,.75-.77,1.18-.99s.92-.33,1.46-.33,.98,.1,1.37,.31Z"/>
    <path class="cls-6" d="M230.79,164.53c.39,.2,.68,.47,.88,.81,.2,.34,.31,.71,.31,1.1,0,.53-.15,.96-.46,1.31s-.72,.57-1.23,.7c.58,.05,1.05,.26,1.42,.62,.36,.36,.55,.86,.55,1.48,0,.5-.12,.96-.36,1.36-.24,.41-.59,.73-1.04,.96-.45,.23-.97,.34-1.56,.34-.53,0-1.01-.1-1.46-.29-.44-.19-.83-.49-1.16-.88l.71-.66c.29,.29,.58,.51,.88,.65,.3,.14,.63,.21,.98,.21,.55,0,.98-.15,1.29-.46,.31-.31,.47-.72,.47-1.24,0-.57-.15-.98-.44-1.21s-.72-.35-1.29-.35h-.65l.14-.92h.44c.45,0,.83-.13,1.12-.4,.3-.27,.45-.65,.45-1.13,0-.41-.13-.73-.39-.97s-.61-.36-1.05-.36c-.34,0-.65,.06-.93,.18-.28,.12-.57,.32-.86,.6l-.62-.71c.74-.68,1.56-1.03,2.48-1.03,.54,0,1,.1,1.38,.3Z"/>
    <path class="cls-6" d="M238.43,165.29h-3.39v2.56c.44-.23,.91-.34,1.39-.34,.75,0,1.34,.25,1.79,.73,.45,.49,.68,1.16,.68,2.02,0,.57-.12,1.08-.38,1.53-.25,.45-.6,.79-1.06,1.04s-.98,.37-1.58,.37c-.53,0-1-.09-1.42-.28-.42-.19-.8-.46-1.16-.83l.7-.69c.28,.28,.56,.48,.86,.62,.29,.13,.63,.2,1,.2,.55,0,.99-.17,1.31-.52s.47-.84,.47-1.47-.14-1.09-.43-1.38-.67-.43-1.16-.43c-.23,0-.43,.02-.62,.07-.19,.05-.39,.12-.61,.23h-.94v-4.38h4.71l-.17,.94Z"/>
  </g>
  <g>
    <path class="cls-9" d="M354.02,164.62c.39,.21,.7,.49,.92,.85,.22,.36,.33,.77,.33,1.22,0,.53-.12,1.04-.36,1.52s-.6,1.01-1.1,1.57-1.24,1.35-2.25,2.35h3.91l-.14,1h-5.13v-.95c1.16-1.2,1.98-2.09,2.47-2.65,.49-.56,.83-1.05,1.04-1.46s.31-.86,.31-1.34c0-.45-.13-.8-.39-1.06-.26-.26-.61-.38-1.04-.38-.36,0-.67,.07-.94,.22-.27,.15-.55,.39-.86,.73l-.78-.62c.36-.44,.75-.77,1.18-.99s.92-.33,1.46-.33,.98,.1,1.37,.31Z"/>
    <path class="cls-9" d="M360.46,164.62c.39,.21,.7,.49,.92,.85,.22,.36,.33,.77,.33,1.22,0,.53-.12,1.04-.36,1.52s-.6,1.01-1.1,1.57-1.24,1.35-2.25,2.35h3.91l-.14,1h-5.13v-.95c1.16-1.2,1.98-2.09,2.47-2.65,.49-.56,.83-1.05,1.04-1.46s.31-.86,.31-1.34c0-.45-.13-.8-.39-1.06-.26-.26-.61-.38-1.04-.38-.36,0-.67,.07-.94,.22-.27,.15-.55,.39-.86,.73l-.78-.62c.36-.44,.75-.77,1.18-.99s.92-.33,1.46-.33,.98,.1,1.37,.31Z"/>
  </g>
  <rect class="cls-7" x="114.18" y="200.83" width="282.07" height="40"/>
  <rect class="cls-5" x="396.25" y="200.83" width="102.21" height="40"/>
  <g>
    <path class="cls-6" d="M224.45,216.76c.39,.21,.7,.49,.92,.85,.22,.36,.33,.77,.33,1.22,0,.53-.12,1.04-.36,1.52s-.6,1.01-1.1,1.57-1.24,1.35-2.25,2.35h3.91l-.14,1h-5.13v-.95c1.16-1.2,1.98-2.09,2.47-2.65,.49-.56,.83-1.05,1.04-1.46s.31-.86,.31-1.34c0-.45-.13-.8-.39-1.06-.26-.26-.61-.38-1.04-.38-.36,0-.67,.07-.94,.22-.27,.15-.55,.39-.86,.73l-.78-.62c.36-.44,.75-.77,1.18-.99s.92-.33,1.46-.33,.98,.1,1.37,.31Z"/>
    <path class="cls-6" d="M233.12,222.94c0,.48-.13,.9-.38,1.28s-.61,.67-1.07,.88c-.46,.21-.98,.32-1.56,.32s-1.11-.1-1.56-.31c-.45-.21-.8-.5-1.05-.87-.25-.37-.37-.8-.37-1.27,0-.54,.15-.99,.44-1.35,.29-.36,.72-.67,1.28-.91-.46-.23-.8-.52-1.02-.85-.22-.33-.33-.73-.33-1.18s.12-.87,.37-1.21c.25-.34,.57-.59,.98-.77,.4-.17,.83-.26,1.29-.26s.88,.08,1.28,.25c.4,.17,.73,.41,.98,.75,.25,.33,.38,.73,.38,1.2,0,.43-.12,.81-.36,1.12-.24,.31-.62,.59-1.12,.85,1.22,.49,1.83,1.27,1.83,2.34Zm-1.72,1.12c.32-.28,.47-.65,.47-1.1,0-.31-.06-.57-.18-.79-.12-.21-.32-.4-.58-.56-.27-.16-.65-.32-1.13-.49l-.32-.12c-.43,.21-.75,.47-.96,.79s-.31,.71-.31,1.18,.16,.85,.47,1.11c.31,.26,.74,.4,1.27,.4s.96-.14,1.28-.42Zm-2.34-6.37c-.26,.23-.4,.57-.4,1s.13,.73,.38,.95c.25,.22,.67,.42,1.23,.6l.22,.08c.39-.23,.67-.46,.84-.71s.26-.56,.26-.92c0-.41-.13-.73-.38-.98-.26-.24-.62-.36-1.09-.36s-.81,.12-1.07,.35Z"/>
    <path class="cls-6" d="M238.9,216.57v.9l-3.25,7.93-1.09-.36,3.13-7.49h-3.85v-.97h5.06Z"/>
  </g>
  <g>
    <path class="cls-9" d="M441.62,216.51v8.7h-1.2v-7.42l-2.03,1.23-.52-.85,2.69-1.66h1.05Z"/>
    <path class="cls-9" d="M448.86,217.53c.49,.77,.73,1.88,.73,3.33s-.25,2.57-.73,3.34c-.49,.77-1.22,1.16-2.18,1.16s-1.69-.39-2.18-1.16c-.49-.77-.73-1.89-.73-3.34s.25-2.57,.73-3.33c.49-.77,1.22-1.15,2.18-1.15s1.69,.38,2.18,1.15Zm-3.43,.63c-.27,.55-.41,1.46-.41,2.7s.14,2.15,.41,2.71c.27,.56,.69,.84,1.25,.84s.97-.28,1.25-.84,.42-1.46,.42-2.71-.14-2.14-.42-2.7-.69-.84-1.25-.84-.98,.28-1.25,.83Z"/>
    <path class="cls-9" d="M456.83,222.11v.95h-1.13v2.15h-1.16v-2.15h-3.72v-.86l2.61-5.82,1,.42-2.35,5.32h2.47l.1-2.34h1.04v2.34h1.13Z"/>
  </g>
  <g>
    <path d="M7.63,39.67c.46,.19,.9,.47,1.33,.86l-.53,.57c-.39-.33-.77-.57-1.14-.72-.37-.15-.79-.22-1.26-.22-.64,0-1.16,.16-1.54,.47-.39,.31-.59,.74-.59,1.27,0,.36,.07,.66,.22,.89,.15,.23,.39,.44,.73,.63s.82,.37,1.46,.56c.68,.21,1.23,.44,1.65,.68,.42,.24,.74,.55,.97,.93,.23,.38,.35,.86,.35,1.44s-.14,1.1-.42,1.55c-.28,.45-.68,.8-1.19,1.05s-1.11,.38-1.79,.38c-1.28,0-2.38-.43-3.29-1.29l.51-.57c.42,.36,.85,.63,1.28,.82s.93,.28,1.49,.28c.74,0,1.34-.19,1.81-.58s.7-.92,.7-1.59c0-.42-.08-.77-.23-1.04s-.4-.5-.75-.7c-.35-.2-.83-.39-1.46-.59-1.05-.32-1.8-.69-2.25-1.11-.45-.42-.67-.99-.67-1.71,0-.48,.13-.91,.38-1.3,.26-.39,.61-.69,1.07-.9,.46-.21,.98-.32,1.57-.32,.63,0,1.17,.09,1.63,.28Z"/>
    <path d="M15.25,49.51c-.5,.33-1.05,.5-1.65,.5s-1.07-.18-1.41-.53c-.34-.35-.51-.87-.51-1.54v-5.24h-1.32v-.71h1.32v-1.88l.87-.1v1.98h2.03l-.11,.71h-1.92v5.19c0,.46,.09,.8,.29,1.03,.19,.23,.48,.34,.87,.34s.8-.11,1.2-.35l.34,.6Z"/>
    <path d="M21.73,48.98c.11,.18,.27,.31,.5,.4l-.2,.62c-.36-.07-.64-.21-.83-.41-.2-.2-.32-.5-.38-.91-.54,.88-1.36,1.32-2.45,1.32-.75,0-1.34-.21-1.78-.64-.44-.42-.65-.99-.65-1.7,0-.81,.29-1.44,.86-1.88,.58-.44,1.37-.66,2.39-.66h1.5v-.77c0-.63-.14-1.09-.42-1.37-.28-.28-.74-.43-1.39-.43-.6,0-1.31,.15-2.13,.45l-.23-.66c.88-.35,1.71-.52,2.48-.52,1.71,0,2.56,.83,2.56,2.49v3.78c0,.41,.05,.71,.16,.89Zm-1.03-1.06v-2.16h-1.36c-.8,0-1.41,.16-1.83,.46-.42,.31-.63,.78-.63,1.4,0,.54,.14,.96,.44,1.25,.29,.29,.7,.44,1.21,.44,.94,0,1.66-.46,2.17-1.38Z"/>
    <path d="M28.63,42.01c.35,.12,.69,.33,1.02,.61l-.44,.57c-.26-.21-.53-.36-.8-.46s-.59-.15-.94-.15c-.74,0-1.33,.29-1.77,.86-.44,.58-.66,1.41-.66,2.51s.22,1.91,.65,2.46,1.02,.82,1.76,.82c.35,0,.67-.05,.95-.17,.29-.11,.57-.27,.86-.49l.42,.58c-.66,.56-1.41,.84-2.25,.84-.67,0-1.26-.16-1.76-.48s-.89-.78-1.16-1.39c-.28-.6-.41-1.33-.41-2.17s.14-1.56,.41-2.18c.28-.62,.66-1.11,1.16-1.45s1.08-.51,1.74-.51c.45,0,.85,.06,1.2,.19Zm.63-3.71l.39,.45-1.94,1.59h-.54l-1.95-1.59,.39-.45,1.83,1.26,1.81-1.26Z"/>
    <path d="M32.68,38.72c.12,.12,.18,.27,.18,.45s-.06,.33-.18,.45c-.12,.12-.28,.18-.48,.18-.19,0-.34-.06-.46-.18-.12-.12-.18-.27-.18-.45s.06-.33,.18-.45c.12-.12,.28-.18,.46-.18,.2,0,.36,.06,.48,.18Zm-.03,3.27v7.85h-.87v-7.85h.87Z"/>
    <path d="M36.12,49.63c-.25-.25-.37-.62-.37-1.11v-9.72l.87-.1v9.79c0,.51,.21,.77,.63,.77,.21,0,.39-.04,.54-.1l.24,.65c-.28,.14-.58,.21-.9,.21-.43,0-.77-.12-1.01-.38Z"/>
    <path d="M45.15,42.9c.59,.71,.88,1.71,.88,2.99s-.3,2.27-.89,3.01c-.6,.73-1.41,1.1-2.44,1.1s-1.85-.36-2.44-1.09c-.59-.73-.88-1.72-.88-2.99,0-.83,.13-1.55,.41-2.17,.27-.62,.65-1.1,1.15-1.43s1.09-.49,1.77-.49c1.04,0,1.85,.36,2.44,1.07Zm-4.21,.52c-.42,.57-.63,1.4-.63,2.5s.21,1.92,.62,2.49c.42,.57,1,.85,1.76,.85s1.35-.29,1.78-.85c.42-.57,.64-1.41,.64-2.52s-.21-1.92-.62-2.48c-.41-.56-1.01-.85-1.78-.85s-1.35,.28-1.77,.85Z"/>
    <path d="M61.9,42.47c.37,.43,.55,1.02,.55,1.76v5.61h-.87v-5.49c0-.62-.12-1.08-.35-1.37-.24-.29-.56-.44-.98-.44-.44,0-.84,.14-1.19,.42-.35,.28-.69,.68-1.02,1.2v5.69h-.87v-5.49c0-.62-.12-1.08-.35-1.37-.24-.29-.56-.44-.98-.44-.45,0-.85,.14-1.2,.42-.35,.28-.68,.68-1,1.2v5.69h-.87v-7.85h.75l.08,1.34c.3-.47,.65-.84,1.06-1.1,.41-.27,.86-.4,1.35-.4s.92,.14,1.26,.41c.34,.28,.57,.66,.69,1.15,.31-.49,.67-.87,1.09-1.15,.42-.27,.87-.41,1.37-.41,.63,0,1.13,.21,1.49,.64Z"/>
    <path d="M71.06,49.84h-.75l-.04-1.4c-.62,1.04-1.47,1.56-2.56,1.56-.71,0-1.26-.21-1.64-.62-.39-.42-.58-1.01-.58-1.78v-5.61h.87v5.52c0,.61,.13,1.06,.38,1.34,.26,.29,.64,.43,1.16,.43,.91,0,1.68-.53,2.29-1.6v-5.69h.87v7.85Z"/>
    <path d="M83.52,42.46c.38,.42,.56,1.01,.56,1.77v5.61h-.87v-5.49c0-.63-.12-1.09-.38-1.38s-.62-.44-1.11-.44-.94,.14-1.33,.41c-.38,.28-.75,.68-1.1,1.21v5.69h-.87v-7.85h.75l.09,1.34c.32-.47,.7-.84,1.14-1.1,.44-.27,.93-.4,1.48-.4,.71,0,1.25,.21,1.63,.63Z"/>
    <path d="M92.22,48.98c.11,.18,.27,.31,.5,.4l-.2,.62c-.36-.07-.64-.21-.83-.41-.2-.2-.32-.5-.38-.91-.54,.88-1.36,1.32-2.45,1.32-.75,0-1.34-.21-1.78-.64-.44-.42-.65-.99-.65-1.7,0-.81,.29-1.44,.86-1.88,.58-.44,1.37-.66,2.39-.66h1.5v-.77c0-.63-.14-1.09-.42-1.37-.28-.28-.74-.43-1.39-.43-.6,0-1.31,.15-2.13,.45l-.23-.66c.88-.35,1.71-.52,2.48-.52,1.71,0,2.56,.83,2.56,2.49v3.78c0,.41,.05,.71,.16,.89Zm-1.03-1.06v-2.16h-1.36c-.8,0-1.41,.16-1.83,.46-.42,.31-.63,.78-.63,1.4,0,.54,.14,.96,.44,1.25,.29,.29,.7,.44,1.21,.44,.94,0,1.66-.46,2.17-1.38Z"/>
    <path d="M102.98,49.51c-.5,.33-1.05,.5-1.65,.5s-1.07-.18-1.41-.53c-.34-.35-.51-.87-.51-1.54v-5.24h-1.32v-.71h1.32v-1.88l.87-.1v1.98h2.03l-.11,.71h-1.92v5.19c0,.46,.09,.8,.29,1.03,.19,.23,.48,.34,.87,.34s.8-.11,1.2-.35l.34,.6Z"/>
    <path d="M109.48,42.9c.59,.71,.88,1.71,.88,2.99s-.3,2.27-.89,3.01c-.6,.73-1.41,1.1-2.44,1.1s-1.85-.36-2.44-1.09c-.59-.73-.88-1.72-.88-2.99,0-.83,.13-1.55,.41-2.17,.27-.62,.65-1.1,1.15-1.43s1.09-.49,1.77-.49c1.04,0,1.85,.36,2.44,1.07Zm-4.21,.52c-.42,.57-.63,1.4-.63,2.5s.21,1.92,.62,2.49c.42,.57,1,.85,1.76,.85s1.35-.29,1.78-.85c.42-.57,.64-1.41,.64-2.52s-.21-1.92-.62-2.48c-.41-.56-1.01-.85-1.78-.85s-1.35,.28-1.77,.85Z"/>
    <path d="M122.23,42.9c.59,.71,.88,1.71,.88,2.99s-.3,2.27-.89,3.01c-.6,.73-1.41,1.1-2.44,1.1s-1.85-.36-2.44-1.09c-.59-.73-.88-1.72-.88-2.99,0-.83,.13-1.55,.41-2.17,.27-.62,.65-1.1,1.15-1.43s1.09-.49,1.77-.49c1.04,0,1.85,.36,2.44,1.07Zm-4.21,.52c-.42,.57-.63,1.4-.63,2.5s.21,1.92,.62,2.49c.42,.57,1,.85,1.76,.85s1.35-.29,1.78-.85c.42-.57,.64-1.41,.64-2.52s-.21-1.92-.62-2.48c-.41-.56-1.01-.85-1.78-.85s-1.35,.28-1.77,.85Z"/>
    <path d="M128.91,42.04c.4,.15,.79,.36,1.17,.65l-.4,.57c-.36-.25-.7-.43-1.02-.55-.32-.11-.67-.17-1.05-.17-.52,0-.94,.12-1.26,.36-.32,.24-.48,.56-.48,.96s.14,.68,.41,.89c.27,.21,.77,.41,1.49,.6,.89,.23,1.53,.52,1.93,.87,.39,.35,.59,.85,.59,1.5,0,.7-.27,1.26-.81,1.67-.54,.41-1.21,.62-2.03,.62-.6,0-1.12-.09-1.57-.26s-.86-.42-1.23-.74l.48-.56c.35,.28,.71,.49,1.07,.62,.37,.13,.78,.2,1.24,.2,.58,0,1.05-.13,1.4-.4,.36-.27,.53-.63,.53-1.1,0-.32-.06-.58-.18-.78-.12-.2-.32-.37-.62-.52-.29-.14-.71-.29-1.27-.44-.83-.22-1.43-.5-1.79-.82-.37-.33-.55-.77-.55-1.32,0-.39,.11-.74,.34-1.06,.23-.31,.54-.56,.94-.73,.39-.17,.84-.26,1.33-.26s.94,.07,1.33,.22Z"/>
    <path d="M141.76,42.47c.37,.43,.55,1.02,.55,1.76v5.61h-.87v-5.49c0-.62-.12-1.08-.35-1.37-.24-.29-.56-.44-.98-.44-.44,0-.84,.14-1.19,.42-.35,.28-.69,.68-1.02,1.2v5.69h-.87v-5.49c0-.62-.12-1.08-.35-1.37-.24-.29-.56-.44-.98-.44-.45,0-.85,.14-1.2,.42-.35,.28-.68,.68-1,1.2v5.69h-.87v-7.85h.75l.08,1.34c.3-.47,.65-.84,1.06-1.1,.41-.27,.86-.4,1.35-.4s.92,.14,1.26,.41c.34,.28,.57,.66,.69,1.15,.31-.49,.67-.87,1.09-1.15,.42-.27,.87-.41,1.37-.41,.63,0,1.13,.21,1.49,.64Z"/>
    <path d="M149.89,49.63c-.24-.25-.37-.62-.37-1.11v-9.72l.87-.1v9.79c0,.51,.21,.77,.63,.77,.21,0,.39-.04,.54-.1l.24,.65c-.28,.14-.58,.21-.9,.21-.43,0-.77-.12-1.01-.38Z"/>
    <path d="M159.32,46.25h-5.24c.05,1.02,.29,1.78,.73,2.27s1.01,.74,1.72,.74c.41,0,.77-.06,1.09-.19s.66-.32,1.03-.59l.41,.56c-.39,.32-.79,.56-1.2,.72-.41,.16-.87,.24-1.37,.24-1.04,0-1.86-.35-2.45-1.06s-.88-1.7-.88-2.96c0-.83,.13-1.56,.38-2.18,.26-.62,.62-1.11,1.1-1.46,.47-.34,1.03-.52,1.66-.52,1,0,1.76,.34,2.28,1.01,.52,.68,.78,1.6,.78,2.78,0,.22,0,.43-.03,.63Zm-.83-.9c0-.88-.18-1.57-.55-2.06-.37-.5-.91-.74-1.63-.74-.65,0-1.18,.25-1.58,.75-.4,.5-.62,1.26-.66,2.28h4.41v-.23Z"/>
    <path d="M165.39,49.51c-.5,.33-1.05,.5-1.65,.5s-1.07-.18-1.41-.53c-.34-.35-.51-.87-.51-1.54v-5.24h-1.32v-.71h1.32v-1.88l.87-.1v1.98h2.03l-.11,.71h-1.92v5.19c0,.46,.09,.8,.29,1.03,.19,.23,.48,.34,.87,.34s.8-.11,1.2-.35l.34,.6Z"/>
    <path d="M167.44,48.78c.13,.14,.2,.3,.2,.5,0,.22-.07,.5-.22,.83l-.84,2h-.63l.6-2.21c-.11-.06-.2-.15-.25-.25-.06-.11-.09-.23-.09-.36,0-.2,.07-.37,.21-.5,.14-.13,.31-.2,.51-.2,.21,0,.38,.07,.52,.2Z"/>
    <path d="M179.49,41.99l-2.71,7.85h-1.08l-2.8-7.85h.96l2.39,7.08,2.32-7.08h.93Z"/>
    <path d="M185.79,49.63c-.25-.25-.37-.62-.37-1.11v-9.72l.87-.1v9.79c0,.51,.21,.77,.63,.77,.21,0,.39-.04,.54-.1l.24,.65c-.28,.14-.58,.21-.9,.21-.43,0-.77-.12-1.01-.38Z"/>
    <path d="M195.22,46.25h-5.24c.05,1.02,.29,1.78,.73,2.27s1.01,.74,1.72,.74c.41,0,.77-.06,1.09-.19s.66-.32,1.03-.59l.41,.56c-.39,.32-.79,.56-1.2,.72-.41,.16-.87,.24-1.37,.24-1.04,0-1.86-.35-2.45-1.06s-.88-1.7-.88-2.96c0-.83,.13-1.56,.38-2.18,.26-.62,.62-1.11,1.1-1.46,.47-.34,1.03-.52,1.66-.52,1,0,1.76,.34,2.28,1.01,.52,.68,.78,1.6,.78,2.78,0,.22,0,.43-.03,.63Zm-.83-.9c0-.88-.18-1.57-.55-2.06-.37-.5-.91-.74-1.63-.74-.65,0-1.18,.25-1.58,.75-.4,.5-.62,1.26-.66,2.28h4.41v-.23Z"/>
    <path d="M201.29,49.51c-.5,.33-1.05,.5-1.65,.5s-1.07-.18-1.41-.53c-.34-.35-.51-.87-.51-1.54v-5.24h-1.32v-.71h1.32v-1.88l.87-.1v1.98h2.03l-.11,.71h-1.92v5.19c0,.46,.09,.8,.29,1.03,.19,.23,.48,.34,.87,.34s.8-.11,1.2-.35l.34,.6Z"/>
    <path d="M208.19,46.25h-5.24c.05,1.02,.29,1.78,.73,2.27s1.01,.74,1.72,.74c.41,0,.77-.06,1.09-.19s.66-.32,1.03-.59l.41,.56c-.39,.32-.79,.56-1.2,.72-.41,.16-.87,.24-1.37,.24-1.04,0-1.86-.35-2.45-1.06s-.88-1.7-.88-2.96c0-.83,.13-1.56,.38-2.18,.26-.62,.62-1.11,1.1-1.46,.47-.34,1.03-.52,1.66-.52,1,0,1.76,.34,2.28,1.01,.52,.68,.78,1.6,.78,2.78,0,.22,0,.43-.03,.63Zm-.83-.9c0-.88-.18-1.57-.55-2.06-.37-.5-.91-.74-1.63-.74-.65,0-1.18,.25-1.58,.75-.4,.5-.62,1.26-.66,2.28h4.41v-.23Z"/>
    <path d="M214.58,42.01c.35,.12,.69,.33,1.02,.61l-.44,.57c-.26-.21-.53-.36-.8-.46s-.59-.15-.94-.15c-.74,0-1.33,.29-1.77,.86-.44,.58-.66,1.41-.66,2.51s.22,1.91,.65,2.46,1.02,.82,1.76,.82c.35,0,.67-.05,.95-.17,.29-.11,.57-.27,.86-.49l.42,.58c-.66,.56-1.41,.84-2.25,.84-.67,0-1.26-.16-1.76-.48s-.89-.78-1.16-1.39c-.28-.6-.41-1.33-.41-2.17s.14-1.56,.41-2.18c.28-.62,.66-1.11,1.16-1.45s1.08-.51,1.74-.51c.45,0,.85,.06,1.2,.19Z"/>
    <path d="M222.81,42.46c.38,.43,.57,1.01,.57,1.76v5.61h-.87v-5.49c0-1.21-.49-1.81-1.48-1.81-.5,0-.94,.14-1.33,.41-.38,.28-.75,.68-1.1,1.21v5.69h-.87v-11.04l.87-.1v4.6c.7-.98,1.56-1.47,2.59-1.47,.7,0,1.24,.21,1.62,.64Z"/>
    <path d="M233.46,39.86v9.98h-.87v-9.02l-2.46,1.53-.4-.65,2.98-1.85h.75Z"/>
    <path d="M241.38,40.75c.5,.71,.76,1.69,.76,2.96s-.19,2.35-.56,3.17c-.37,.82-.91,1.48-1.63,1.96-.71,.49-1.66,.92-2.83,1.28l-.22-.68c1.38-.42,2.43-.99,3.16-1.73,.72-.73,1.12-1.73,1.19-3-.3,.44-.66,.78-1.08,1.03s-.88,.37-1.38,.37-.98-.13-1.39-.38-.73-.62-.97-1.09c-.23-.48-.35-1.03-.35-1.67s.13-1.24,.4-1.73c.27-.5,.63-.88,1.09-1.14,.46-.26,.97-.4,1.54-.4,1.01,0,1.77,.35,2.27,1.06Zm-1.17,4.26c.38-.26,.72-.63,1.04-1.12,0-1.19-.15-2.07-.49-2.63s-.88-.85-1.62-.85c-.67,0-1.2,.22-1.58,.67s-.58,1.08-.58,1.9c0,.77,.18,1.36,.53,1.79,.36,.42,.83,.63,1.43,.63,.47,0,.89-.13,1.27-.38Z"/>
    <path d="M249.15,40.75c.5,.71,.76,1.69,.76,2.96s-.19,2.35-.56,3.17c-.37,.82-.91,1.48-1.63,1.96-.71,.49-1.66,.92-2.83,1.28l-.22-.68c1.38-.42,2.43-.99,3.16-1.73,.72-.73,1.12-1.73,1.19-3-.3,.44-.66,.78-1.08,1.03s-.88,.37-1.38,.37-.98-.13-1.39-.38-.73-.62-.97-1.09c-.23-.48-.35-1.03-.35-1.67s.13-1.24,.4-1.73c.27-.5,.63-.88,1.09-1.14,.46-.26,.97-.4,1.54-.4,1.01,0,1.77,.35,2.27,1.06Zm-1.17,4.26c.38-.26,.72-.63,1.04-1.12,0-1.19-.15-2.07-.49-2.63s-.88-.85-1.62-.85c-.67,0-1.2,.22-1.58,.67s-.58,1.08-.58,1.9c0,.77,.18,1.36,.53,1.79,.36,.42,.83,.63,1.43,.63,.47,0,.89-.13,1.27-.38Z"/>
    <path d="M255.3,40.03c.42,.22,.73,.52,.95,.89s.33,.8,.33,1.27c0,.65-.18,1.18-.55,1.58-.37,.4-.84,.66-1.42,.76,.65,.03,1.19,.26,1.61,.7,.43,.43,.64,1.03,.64,1.79,0,.58-.13,1.09-.39,1.54-.26,.45-.63,.8-1.12,1.06-.48,.25-1.04,.38-1.67,.38-1.16,0-2.12-.43-2.87-1.29l.55-.5c.34,.37,.69,.64,1.06,.8s.77,.25,1.22,.25c.72,0,1.29-.21,1.7-.62,.41-.41,.62-.95,.62-1.62,0-1.4-.75-2.1-2.25-2.1h-.66l.12-.71h.48c.57,0,1.05-.17,1.46-.52,.4-.35,.6-.84,.6-1.48,0-.55-.18-.99-.53-1.31-.35-.32-.82-.49-1.4-.49-.42,0-.8,.07-1.15,.22s-.71,.38-1.06,.71l-.46-.54c.4-.38,.82-.66,1.26-.85s.93-.28,1.47-.28,1.05,.11,1.46,.33Z"/>
    <path d="M268.62,48.98c.11,.18,.27,.31,.5,.4l-.2,.62c-.36-.07-.64-.21-.83-.41-.2-.2-.32-.5-.38-.91-.54,.88-1.36,1.32-2.45,1.32-.75,0-1.34-.21-1.78-.64-.43-.42-.65-.99-.65-1.7,0-.81,.29-1.44,.86-1.88,.57-.44,1.37-.66,2.39-.66h1.5v-.77c0-.63-.14-1.09-.42-1.37-.28-.28-.75-.43-1.39-.43-.6,0-1.31,.15-2.13,.45l-.22-.66c.88-.35,1.71-.52,2.47-.52,1.71,0,2.56,.83,2.56,2.49v3.78c0,.41,.05,.71,.16,.89Zm-1.03-1.06v-2.16h-1.37c-.8,0-1.41,.16-1.83,.46-.42,.31-.63,.78-.63,1.4,0,.54,.15,.96,.44,1.25,.29,.29,.7,.44,1.21,.44,.94,0,1.67-.46,2.18-1.38Z"/>
    <path d="M278.6,39.86v9.98h-.87v-9.02l-2.46,1.53-.4-.65,2.98-1.85h.75Z"/>
    <path d="M286.51,40.75c.51,.71,.76,1.69,.76,2.96s-.19,2.35-.55,3.17c-.37,.82-.91,1.48-1.63,1.96-.72,.49-1.66,.92-2.83,1.28l-.22-.68c1.38-.42,2.43-.99,3.16-1.73,.72-.73,1.12-1.73,1.19-3-.3,.44-.66,.78-1.08,1.03s-.88,.37-1.38,.37-.98-.13-1.39-.38-.73-.62-.97-1.09c-.24-.48-.35-1.03-.35-1.67s.13-1.24,.4-1.73c.26-.5,.63-.88,1.09-1.14,.46-.26,.97-.4,1.54-.4,1.01,0,1.77,.35,2.27,1.06Zm-1.17,4.26c.38-.26,.72-.63,1.04-1.12,0-1.19-.16-2.07-.5-2.63s-.88-.85-1.62-.85c-.67,0-1.2,.22-1.58,.67s-.58,1.08-.58,1.9c0,.77,.18,1.36,.53,1.79,.35,.42,.83,.63,1.43,.63,.47,0,.89-.13,1.27-.38Z"/>
    <path d="M294.28,40.75c.5,.71,.76,1.69,.76,2.96s-.19,2.35-.56,3.17c-.37,.82-.91,1.48-1.63,1.96-.71,.49-1.66,.92-2.83,1.28l-.22-.68c1.38-.42,2.43-.99,3.16-1.73,.72-.73,1.12-1.73,1.19-3-.3,.44-.66,.78-1.08,1.03s-.88,.37-1.38,.37-.98-.13-1.39-.38-.73-.62-.97-1.09c-.23-.48-.35-1.03-.35-1.67s.13-1.24,.4-1.73c.27-.5,.63-.88,1.09-1.14,.46-.26,.97-.4,1.54-.4,1.01,0,1.77,.35,2.27,1.06Zm-1.17,4.26c.38-.26,.72-.63,1.04-1.12,0-1.19-.15-2.07-.49-2.63s-.88-.85-1.62-.85c-.67,0-1.2,.22-1.58,.67s-.58,1.08-.58,1.9c0,.77,.18,1.36,.53,1.79,.36,.42,.83,.63,1.43,.63,.47,0,.89-.13,1.27-.38Z"/>
    <path d="M303.05,46.49v.72h-1.35v2.62h-.86v-2.62h-4.37v-.65l3.04-6.87,.74,.3-2.85,6.49h3.43l.11-2.92h.75v2.92h1.35Z"/>
    <path d="M312.6,42.04c.4,.15,.79,.36,1.17,.65l-.4,.57c-.36-.25-.7-.43-1.02-.55-.32-.11-.67-.17-1.05-.17-.52,0-.94,.12-1.26,.36-.32,.24-.48,.56-.48,.96s.14,.68,.41,.89c.27,.21,.77,.41,1.49,.6,.89,.23,1.53,.52,1.93,.87,.39,.35,.59,.85,.59,1.5,0,.7-.27,1.26-.81,1.67-.54,.41-1.21,.62-2.03,.62-.6,0-1.12-.09-1.57-.26s-.86-.42-1.23-.74l.48-.56c.35,.28,.71,.49,1.07,.62,.37,.13,.78,.2,1.24,.2,.58,0,1.05-.13,1.4-.4,.36-.27,.53-.63,.53-1.1,0-.32-.06-.58-.18-.78-.12-.2-.32-.37-.62-.52-.29-.14-.71-.29-1.27-.44-.83-.22-1.43-.5-1.79-.82-.37-.33-.55-.77-.55-1.32,0-.39,.11-.74,.34-1.06,.23-.31,.54-.56,.94-.73,.39-.17,.84-.26,1.33-.26s.94,.07,1.33,.22Z"/>
    <path d="M321.84,46.25h-5.23c.05,1.02,.29,1.78,.73,2.27,.44,.5,1.01,.74,1.72,.74,.41,0,.77-.06,1.09-.19,.31-.12,.66-.32,1.03-.59l.4,.56c-.39,.32-.79,.56-1.2,.72-.41,.16-.87,.24-1.37,.24-1.04,0-1.86-.35-2.45-1.06s-.88-1.7-.88-2.96c0-.83,.13-1.56,.38-2.18,.25-.62,.62-1.11,1.09-1.46,.47-.34,1.03-.52,1.66-.52,1,0,1.76,.34,2.28,1.01,.52,.68,.78,1.6,.78,2.78,0,.22-.01,.43-.03,.63Zm-.82-.9c0-.88-.18-1.57-.55-2.06-.37-.5-.91-.74-1.63-.74-.65,0-1.17,.25-1.57,.75s-.62,1.26-.66,2.28h4.41v-.23Z"/>
    <path d="M333.77,41.99l-2.71,7.85h-1.08l-2.81-7.85h.96l2.38,7.08,2.32-7.08h.93Z"/>
    <path d="M338.09,49.87c-.21,.61-.44,1.11-.69,1.5-.25,.39-.57,.71-.97,.97s-.92,.44-1.54,.56l-.09-.68c.52-.13,.93-.29,1.22-.48s.53-.43,.71-.71c.17-.28,.35-.68,.53-1.19h-.3l-2.73-7.85h.95l2.37,7.2,2.33-7.2h.91l-2.69,7.88Z"/>
    <path d="M346.83,41.99v.68l-4.38,6.42h4.35l-.09,.75h-5.28v-.67l4.38-6.42h-4.02v-.75h5.04Z"/>
    <path d="M354.02,42.46c.38,.42,.56,1.01,.56,1.77v5.61h-.87v-5.49c0-.63-.12-1.09-.38-1.38s-.62-.44-1.11-.44-.94,.14-1.33,.41c-.38,.28-.75,.68-1.1,1.21v5.69h-.87v-7.85h.75l.09,1.34c.32-.47,.7-.84,1.14-1.1,.44-.27,.93-.4,1.48-.4,.71,0,1.25,.21,1.63,.63Z"/>
    <path d="M362.72,48.98c.11,.18,.27,.31,.5,.4l-.2,.62c-.36-.07-.64-.21-.83-.41-.2-.2-.32-.5-.38-.91-.54,.88-1.36,1.32-2.45,1.32-.75,0-1.34-.21-1.78-.64-.43-.42-.65-.99-.65-1.7,0-.81,.29-1.44,.86-1.88,.57-.44,1.37-.66,2.39-.66h1.5v-.77c0-.63-.14-1.09-.42-1.37-.28-.28-.75-.43-1.39-.43-.6,0-1.31,.15-2.13,.45l-.22-.66c.88-.35,1.71-.52,2.47-.52,1.71,0,2.56,.83,2.56,2.49v3.78c0,.41,.05,.71,.16,.89Zm-1.03-1.06v-2.16h-1.37c-.8,0-1.41,.16-1.83,.46-.42,.31-.63,.78-.63,1.4,0,.54,.15,.96,.44,1.25,.29,.29,.7,.44,1.21,.44,.94,0,1.67-.46,2.18-1.38Z"/>
    <path d="M374.87,42.47c.37,.43,.55,1.02,.55,1.76v5.61h-.87v-5.49c0-.62-.12-1.08-.35-1.37-.24-.29-.56-.44-.98-.44-.44,0-.84,.14-1.19,.42-.35,.28-.69,.68-1.02,1.2v5.69h-.87v-5.49c0-.62-.12-1.08-.35-1.37-.24-.29-.56-.44-.98-.44-.45,0-.85,.14-1.2,.42-.35,.28-.68,.68-1,1.2v5.69h-.87v-7.85h.75l.08,1.34c.3-.47,.65-.84,1.06-1.1,.41-.27,.86-.4,1.35-.4s.92,.14,1.26,.41c.34,.28,.57,.66,.69,1.15,.31-.49,.67-.87,1.09-1.15,.42-.27,.87-.41,1.37-.41,.63,0,1.13,.21,1.49,.64Z"/>
    <path d="M384.06,46.25h-5.23c.05,1.02,.29,1.78,.73,2.27,.44,.5,1.01,.74,1.72,.74,.41,0,.77-.06,1.09-.19,.31-.12,.66-.32,1.03-.59l.4,.56c-.39,.32-.79,.56-1.2,.72-.41,.16-.87,.24-1.37,.24-1.04,0-1.86-.35-2.45-1.06s-.88-1.7-.88-2.96c0-.83,.13-1.56,.38-2.18,.25-.62,.62-1.11,1.09-1.46,.47-.34,1.03-.52,1.66-.52,1,0,1.76,.34,2.28,1.01,.52,.68,.78,1.6,.78,2.78,0,.22-.01,.43-.03,.63Zm-.82-.9c0-.88-.18-1.57-.55-2.06-.37-.5-.91-.74-1.63-.74-.65,0-1.17,.25-1.57,.75s-.62,1.26-.66,2.28h4.41v-.23Z"/>
    <path d="M391.66,42.46c.38,.42,.56,1.01,.56,1.77v5.61h-.87v-5.49c0-.63-.12-1.09-.38-1.38s-.62-.44-1.11-.44-.94,.14-1.33,.41c-.38,.28-.75,.68-1.1,1.21v5.69h-.87v-7.85h.75l.09,1.34c.32-.47,.7-.84,1.14-1.1,.44-.27,.93-.4,1.48-.4,.71,0,1.25,.21,1.63,.63Z"/>
    <path d="M400.36,48.98c.11,.18,.27,.31,.5,.4l-.2,.62c-.36-.07-.64-.21-.83-.41-.2-.2-.32-.5-.38-.91-.54,.88-1.36,1.32-2.45,1.32-.75,0-1.34-.21-1.78-.64-.43-.42-.65-.99-.65-1.7,0-.81,.29-1.44,.86-1.88,.57-.44,1.37-.66,2.39-.66h1.5v-.77c0-.63-.14-1.09-.42-1.37-.28-.28-.75-.43-1.39-.43-.6,0-1.31,.15-2.13,.45l-.22-.66c.88-.35,1.71-.52,2.47-.52,1.71,0,2.56,.83,2.56,2.49v3.78c0,.41,.05,.71,.16,.89Zm-1.03-1.06v-2.16h-1.37c-.8,0-1.41,.16-1.83,.46-.42,.31-.63,.78-.63,1.4,0,.54,.15,.96,.44,1.25,.29,.29,.7,.44,1.21,.44,.94,0,1.67-.46,2.18-1.38Zm-.6-9.81l.39,.78-2.92,1.28-.29-.51,2.82-1.54Z"/>
    <path d="M408.46,42.46c.38,.42,.56,1.01,.56,1.77v5.61h-.87v-5.49c0-.63-.12-1.09-.38-1.38s-.62-.44-1.11-.44-.94,.14-1.33,.41c-.38,.28-.75,.68-1.1,1.21v5.69h-.87v-7.85h.75l.09,1.34c.32-.47,.7-.84,1.14-1.1,.44-.27,.94-.4,1.48-.4,.71,0,1.25,.21,1.63,.63Z"/>
    <path d="M413.69,38.11l.39,.78-2.92,1.28-.29-.51,2.82-1.54Zm-.69,3.88v7.85h-.87v-7.85h.87Z"/>
    <path d="M425.45,42.46c.38,.42,.56,1.01,.56,1.77v5.61h-.87v-5.49c0-.63-.12-1.09-.38-1.38s-.62-.44-1.11-.44-.94,.14-1.33,.41c-.38,.28-.75,.68-1.1,1.21v5.69h-.87v-7.85h.75l.09,1.34c.32-.47,.7-.84,1.14-1.1,.44-.27,.93-.4,1.48-.4,.71,0,1.25,.21,1.63,.63Z"/>
    <path d="M434.66,46.25h-5.24c.05,1.02,.29,1.78,.73,2.27s1.01,.74,1.72,.74c.41,0,.77-.06,1.09-.19s.66-.32,1.03-.59l.41,.56c-.39,.32-.79,.56-1.2,.72-.41,.16-.87,.24-1.37,.24-1.04,0-1.86-.35-2.45-1.06s-.88-1.7-.88-2.96c0-.83,.13-1.56,.38-2.18,.26-.62,.62-1.11,1.1-1.46,.47-.34,1.03-.52,1.66-.52,1,0,1.76,.34,2.28,1.01,.52,.68,.78,1.6,.78,2.78,0,.22,0,.43-.03,.63Zm-.83-.9c0-.88-.18-1.57-.55-2.06-.37-.5-.91-.74-1.63-.74-.65,0-1.18,.25-1.58,.75-.4,.5-.62,1.26-.66,2.28h4.41v-.23Z"/>
    <path d="M442.67,49.84h-.75l-.04-1.4c-.62,1.04-1.47,1.56-2.56,1.56-.71,0-1.26-.21-1.64-.62-.39-.42-.58-1.01-.58-1.78v-5.61h.87v5.52c0,.61,.13,1.06,.38,1.34,.26,.29,.64,.43,1.16,.43,.91,0,1.68-.53,2.29-1.6v-5.69h.87v7.85Z"/>
    <path d="M451.44,38.8v11.04h-.75l-.11-1.2c-.54,.91-1.32,1.37-2.36,1.37-.91,0-1.63-.36-2.15-1.09-.52-.73-.79-1.71-.79-2.96,0-.81,.12-1.52,.37-2.15,.25-.62,.6-1.1,1.07-1.46s1.01-.52,1.64-.52c.89,0,1.62,.35,2.21,1.06v-4.2l.87,.1Zm-1.81,10.12c.34-.24,.66-.6,.94-1.09v-4.1c-.56-.79-1.25-1.19-2.06-1.19-.71,0-1.27,.29-1.69,.89-.41,.59-.62,1.42-.61,2.5,0,1.08,.19,1.91,.57,2.48,.38,.58,.9,.86,1.58,.86,.5,0,.92-.12,1.27-.36Z"/>
    <path d="M460.16,46.25h-5.24c.05,1.02,.29,1.78,.73,2.27s1.01,.74,1.72,.74c.41,0,.77-.06,1.09-.19s.66-.32,1.03-.59l.41,.56c-.39,.32-.79,.56-1.2,.72-.41,.16-.87,.24-1.37,.24-1.04,0-1.86-.35-2.45-1.06s-.88-1.7-.88-2.96c0-.83,.13-1.56,.38-2.18,.26-.62,.62-1.11,1.1-1.46,.47-.34,1.03-.52,1.66-.52,1,0,1.76,.34,2.28,1.01,.52,.68,.78,1.6,.78,2.78,0,.22,0,.43-.03,.63Zm-.83-.9c0-.88-.18-1.57-.55-2.06-.37-.5-.91-.74-1.63-.74-.65,0-1.18,.25-1.58,.75-.4,.5-.62,1.26-.66,2.28h4.41v-.23Zm-.34-7.05l.39,.45-1.93,1.59h-.54l-1.95-1.59,.39-.45,1.83,1.26,1.82-1.26Z"/>
    <path d="M462.95,49.63c-.24-.25-.37-.62-.37-1.11v-9.72l.87-.1v9.79c0,.51,.21,.77,.63,.77,.21,0,.39-.04,.54-.1l.24,.65c-.28,.14-.58,.21-.9,.21-.43,0-.77-.12-1.01-.38Z"/>
    <path d="M471.98,42.9c.59,.71,.88,1.71,.88,2.99s-.3,2.27-.89,3.01c-.6,.73-1.41,1.1-2.44,1.1s-1.85-.36-2.44-1.09c-.59-.73-.88-1.72-.88-2.99,0-.83,.13-1.55,.41-2.17,.27-.62,.65-1.1,1.15-1.43s1.09-.49,1.77-.49c1.04,0,1.85,.36,2.44,1.07Zm-4.21,.52c-.42,.57-.63,1.4-.63,2.5s.21,1.92,.62,2.49c.42,.57,1,.85,1.76,.85s1.35-.29,1.78-.85c.42-.57,.64-1.41,.64-2.52s-.21-1.92-.62-2.48c-.41-.56-1.01-.85-1.78-.85s-1.35,.28-1.77,.85Z"/>
    <path d="M480.62,41.99l-2.71,7.85h-1.08l-2.8-7.85h.96l2.39,7.08,2.32-7.08h.93Z"/>
    <path d="M487.27,48.98c.11,.18,.27,.31,.5,.4l-.2,.62c-.36-.07-.64-.21-.83-.41-.2-.2-.32-.5-.38-.91-.54,.88-1.36,1.32-2.45,1.32-.75,0-1.34-.21-1.78-.64-.44-.42-.65-.99-.65-1.7,0-.81,.29-1.44,.86-1.88,.58-.44,1.37-.66,2.39-.66h1.5v-.77c0-.63-.14-1.09-.42-1.37-.28-.28-.74-.43-1.39-.43-.6,0-1.31,.15-2.13,.45l-.23-.66c.88-.35,1.71-.52,2.48-.52,1.71,0,2.56,.83,2.56,2.49v3.78c0,.41,.05,.71,.16,.89Zm-1.03-1.06v-2.16h-1.36c-.8,0-1.41,.16-1.83,.46-.42,.31-.63,.78-.63,1.4,0,.54,.14,.96,.44,1.25,.29,.29,.7,.44,1.21,.44,.94,0,1.66-.46,2.17-1.38Z"/>
    <path d="M490.42,49.63c-.24-.25-.37-.62-.37-1.11v-9.72l.87-.1v9.79c0,.51,.21,.77,.63,.77,.21,0,.39-.04,.54-.1l.24,.65c-.28,.14-.58,.21-.9,.21-.43,0-.77-.12-1.01-.38Z"/>
    <path d="M499.34,48.98c.11,.18,.27,.31,.5,.4l-.2,.62c-.36-.07-.64-.21-.83-.41-.2-.2-.32-.5-.38-.91-.54,.88-1.36,1.32-2.45,1.32-.75,0-1.34-.21-1.78-.64-.43-.42-.65-.99-.65-1.7,0-.81,.29-1.44,.86-1.88,.57-.44,1.37-.66,2.39-.66h1.5v-.77c0-.63-.14-1.09-.42-1.37-.28-.28-.75-.43-1.39-.43-.6,0-1.31,.15-2.13,.45l-.22-.66c.88-.35,1.71-.52,2.47-.52,1.71,0,2.56,.83,2.56,2.49v3.78c0,.41,.05,.71,.16,.89Zm-1.03-1.06v-2.16h-1.37c-.8,0-1.41,.16-1.83,.46-.42,.31-.63,.78-.63,1.4,0,.54,.15,.96,.44,1.25,.29,.29,.7,.44,1.21,.44,.94,0,1.67-.46,2.18-1.38Z"/>
    <path d="M502.82,48.78c.13,.14,.2,.3,.2,.5,0,.21-.07,.38-.2,.52-.13,.14-.31,.2-.52,.2s-.37-.07-.51-.21c-.14-.14-.21-.31-.21-.51s.07-.37,.21-.5c.14-.13,.31-.2,.51-.2s.38,.07,.52,.2Z"/>
  </g>
  <g>
    <path class="cls-3" d="M227.57,300.88v.96l-4.03,6.96h4.02l-.13,1.03h-5.21v-.96l4.06-6.98h-3.65v-1h4.95Z"/>
    <path class="cls-3" d="M233.65,300.22v9.61h-1.04l-.08-.9c-.44,.71-1.04,1.07-1.78,1.07s-1.32-.32-1.74-.95c-.41-.63-.62-1.5-.62-2.61,0-.72,.1-1.35,.31-1.9,.2-.55,.49-.97,.86-1.27,.37-.3,.8-.45,1.29-.45,.65,0,1.19,.27,1.62,.82v-3.55l1.17,.13Zm-1.81,8.59c.23-.17,.44-.43,.64-.77v-3.43c-.39-.58-.84-.87-1.37-.87-.46,0-.82,.22-1.09,.66-.27,.44-.4,1.11-.39,2,0,.91,.12,1.58,.36,2.02,.24,.43,.59,.65,1.03,.65,.31,0,.58-.09,.81-.26Z"/>
    <path class="cls-3" d="M239.15,302.91l-.2,1.13c-.16-.05-.34-.08-.53-.08-.38,0-.69,.15-.93,.45-.24,.3-.43,.77-.56,1.39v4.02h-1.17v-6.84h1.01l.09,1.35c.34-1.01,.9-1.51,1.7-1.51,.22,0,.42,.03,.58,.08Z"/>
    <path class="cls-3" d="M244.35,303.74c.49,.62,.73,1.5,.73,2.65s-.25,1.99-.74,2.63-1.18,.97-2.04,.97-1.56-.32-2.05-.95c-.49-.63-.73-1.51-.73-2.64s.25-2.02,.74-2.65c.49-.63,1.18-.94,2.05-.94s1.56,.31,2.04,.92Zm-3.21,.66c-.27,.43-.4,1.1-.4,2.01,0,1.78,.52,2.67,1.56,2.67s1.56-.89,1.56-2.68c0-.91-.13-1.58-.39-2s-.65-.64-1.16-.64-.9,.21-1.17,.64Z"/>
    <path class="cls-3" d="M247.94,309.55c0,.58-.07,1.05-.23,1.42s-.37,.67-.65,.9-.66,.46-1.14,.68l-.37-.85c.3-.16,.54-.31,.7-.47,.16-.16,.29-.36,.38-.62,.09-.26,.13-.61,.13-1.04v-6.59h1.17v6.57Zm-.03-9.57c.14,.15,.21,.33,.21,.55s-.07,.4-.21,.54c-.14,.14-.32,.21-.56,.21s-.41-.07-.55-.21c-.14-.14-.21-.32-.21-.54s.07-.4,.21-.55,.33-.22,.55-.22,.41,.07,.55,.22Z"/>
    <path class="cls-3" d="M257.96,300.22v9.61h-1.04l-.08-.9c-.44,.71-1.04,1.07-1.78,1.07s-1.32-.32-1.73-.95c-.41-.63-.62-1.5-.62-2.61,0-.72,.1-1.35,.3-1.9s.49-.97,.87-1.27c.37-.3,.8-.45,1.29-.45,.65,0,1.19,.27,1.62,.82v-3.55l1.17,.13Zm-1.81,8.59c.23-.17,.45-.43,.64-.77v-3.43c-.39-.58-.85-.87-1.37-.87-.46,0-.82,.22-1.09,.66-.27,.44-.4,1.11-.39,2,0,.91,.12,1.58,.36,2.02,.24,.43,.59,.65,1.03,.65,.31,0,.58-.09,.81-.26Z"/>
    <path class="cls-3" d="M264.45,308.88c.08,.13,.2,.24,.37,.31l-.25,.79c-.34-.05-.6-.16-.79-.31-.19-.16-.32-.39-.4-.72-.44,.69-1.06,1.04-1.86,1.04-.61,0-1.09-.19-1.44-.57s-.53-.88-.53-1.51c0-.73,.24-1.28,.72-1.66,.48-.38,1.16-.57,2.04-.57h.88v-.58c0-.48-.1-.82-.29-1.03-.19-.21-.51-.32-.96-.32-.48,0-1.03,.12-1.66,.36l-.29-.82c.76-.31,1.47-.47,2.13-.47,1.48,0,2.22,.74,2.22,2.22v3.22c0,.28,.04,.48,.12,.62Zm-1.27-.84v-1.61h-.75c-1.13,0-1.69,.47-1.69,1.42,0,.41,.09,.72,.27,.94,.18,.22,.44,.33,.78,.33,.61,0,1.07-.36,1.39-1.07Z"/>
    <path class="cls-3" d="M269.67,309.52c-.43,.31-.91,.47-1.44,.47s-.98-.16-1.28-.48-.45-.77-.45-1.35v-4.29h-.98v-.88h.98v-1.57l1.17-.14v1.72h1.51l-.13,.88h-1.38v4.28c0,.59,.25,.88,.74,.88,.15,0,.28-.02,.41-.06,.12-.04,.27-.11,.42-.2l.43,.75Z"/>
    <path class="cls-3" d="M271.64,303.75c.15,.16,.23,.35,.23,.58s-.07,.42-.23,.58c-.15,.17-.35,.25-.59,.25s-.43-.08-.58-.25c-.15-.16-.23-.36-.23-.58s.08-.42,.23-.58,.34-.24,.58-.24,.44,.08,.59,.24Zm0,4.84c.15,.16,.23,.35,.23,.58s-.07,.42-.23,.58c-.15,.17-.35,.25-.59,.25s-.43-.08-.58-.25c-.15-.16-.23-.36-.23-.58s.08-.42,.23-.58,.34-.24,.58-.24,.44,.08,.59,.24Z"/>
    <path class="cls-3" d="M281.06,309.82v-4.2h-3.25v4.2h-1.21v-8.94h1.21v3.76h3.25v-3.76h1.21v8.94h-1.21Z"/>
    <path class="cls-3" d="M287.82,302.91l-.2,1.13c-.16-.05-.34-.08-.53-.08-.38,0-.69,.15-.93,.45-.24,.3-.43,.77-.56,1.39v4.02h-1.17v-6.84h1.01l.09,1.35c.34-1.01,.9-1.51,1.7-1.51,.22,0,.42,.03,.58,.08Z"/>
    <path class="cls-3" d="M292.94,308.88c.08,.13,.2,.24,.36,.31l-.25,.79c-.34-.05-.6-.16-.79-.31-.19-.16-.33-.39-.4-.72-.44,.69-1.06,1.04-1.86,1.04-.61,0-1.09-.19-1.44-.57s-.53-.88-.53-1.51c0-.73,.24-1.28,.71-1.66,.48-.38,1.16-.57,2.04-.57h.88v-.58c0-.48-.1-.82-.29-1.03-.2-.21-.51-.32-.96-.32-.48,0-1.03,.12-1.66,.36l-.29-.82c.76-.31,1.47-.47,2.13-.47,1.48,0,2.22,.74,2.22,2.22v3.22c0,.28,.04,.48,.12,.62Zm-1.27-.84v-1.61h-.75c-1.13,0-1.69,.47-1.69,1.42,0,.41,.09,.72,.27,.94,.18,.22,.44,.33,.78,.33,.61,0,1.07-.36,1.39-1.07Z"/>
    <path class="cls-3" d="M299.79,300.22v9.61h-1.04l-.08-.9c-.44,.71-1.04,1.07-1.78,1.07s-1.32-.32-1.73-.95c-.41-.63-.62-1.5-.62-2.61,0-.72,.1-1.35,.3-1.9s.49-.97,.87-1.27c.37-.3,.8-.45,1.29-.45,.65,0,1.19,.27,1.62,.82v-3.55l1.17,.13Zm-1.81,8.59c.23-.17,.45-.43,.64-.77v-3.43c-.39-.58-.85-.87-1.37-.87-.46,0-.82,.22-1.09,.66-.27,.44-.4,1.11-.39,2,0,.91,.12,1.58,.36,2.02,.24,.43,.59,.65,1.03,.65,.31,0,.58-.09,.81-.26Z"/>
    <path class="cls-3" d="M302.8,308.58c.15,.16,.23,.35,.23,.58s-.08,.42-.23,.58c-.15,.17-.35,.25-.59,.25s-.43-.08-.58-.25c-.15-.16-.23-.36-.23-.58s.08-.42,.23-.58c.15-.16,.35-.24,.58-.24s.44,.08,.59,.24Z"/>
    <path class="cls-3" d="M307.9,303c.3,.12,.59,.31,.87,.56l-.52,.7c-.21-.17-.42-.29-.62-.37-.21-.08-.43-.12-.68-.12-.51,0-.91,.22-1.19,.65-.28,.43-.42,1.11-.42,2.03,0,1.72,.54,2.57,1.61,2.57,.24,0,.46-.04,.66-.12,.2-.08,.41-.21,.64-.37l.54,.71c-.55,.5-1.18,.75-1.88,.75-.88,0-1.56-.3-2.06-.91-.5-.61-.75-1.48-.75-2.63,0-.75,.12-1.39,.35-1.94,.23-.55,.55-.97,.97-1.26,.42-.29,.91-.44,1.47-.44,.37,0,.7,.06,1,.18Z"/>
    <path class="cls-3" d="M313.82,302.98v.87l-3.24,5h3.25l-.12,.96h-4.42v-.87l3.24-5h-2.96v-.96h4.25Z"/>
    <path class="cls-3" d="M323.14,299.33v11.82h-1.09v-11.82h1.09Z"/>
    <path class="cls-3" d="M337.52,300.88l-2.47,8.94h-1.44l-2.51-8.94h1.25l2,7.77,1.98-7.77h1.2Z"/>
    <path class="cls-3" d="M339.81,299.98c.14,.15,.21,.33,.21,.55s-.07,.4-.21,.54c-.14,.14-.33,.21-.56,.21s-.41-.07-.55-.21c-.14-.14-.21-.32-.21-.54s.07-.4,.21-.55c.14-.15,.33-.22,.55-.22s.41,.07,.55,.22Zm.03,3v6.84h-1.17v-6.84h1.17Z"/>
    <path class="cls-3" d="M345.68,302.98v.87l-3.24,5h3.25l-.12,.96h-4.42v-.87l3.24-5h-2.96v-.96h4.25Z"/>
    <path class="cls-3" d="M351.67,309.82h-1.01l-.07-1.03c-.48,.8-1.11,1.2-1.91,1.2-.55,0-.97-.18-1.29-.53s-.47-.84-.47-1.44v-5.03h1.17v4.93c0,.4,.08,.69,.23,.88,.15,.19,.38,.28,.68,.28,.58,0,1.08-.38,1.5-1.14v-4.94h1.17v6.84Z"/>
    <path class="cls-3" d="M358.16,308.88c.08,.13,.2,.24,.36,.31l-.25,.79c-.34-.05-.6-.16-.79-.31-.19-.16-.33-.39-.4-.72-.44,.69-1.06,1.04-1.86,1.04-.61,0-1.09-.19-1.44-.57s-.53-.88-.53-1.51c0-.73,.24-1.28,.71-1.66,.48-.38,1.16-.57,2.04-.57h.88v-.58c0-.48-.1-.82-.29-1.03-.2-.21-.51-.32-.96-.32-.48,0-1.03,.12-1.66,.36l-.29-.82c.76-.31,1.47-.47,2.13-.47,1.48,0,2.22,.74,2.22,2.22v3.22c0,.28,.04,.48,.12,.62Zm-1.27-.84v-1.61h-.75c-1.13,0-1.69,.47-1.69,1.42,0,.41,.09,.72,.27,.94,.18,.22,.44,.33,.78,.33,.61,0,1.07-.36,1.39-1.07Z"/>
    <path class="cls-3" d="M360.32,309.61c-.24-.25-.36-.6-.36-1.05v-8.35l1.17-.13v8.44c0,.34,.14,.51,.42,.51,.11,0,.24-.03,.38-.08l.26,.82c-.28,.15-.57,.22-.87,.22-.42,0-.75-.12-.99-.38Z"/>
    <path class="cls-3" d="M364.59,299.98c.14,.15,.21,.33,.21,.55s-.07,.4-.21,.54c-.14,.14-.33,.21-.56,.21s-.41-.07-.55-.21c-.14-.14-.21-.32-.21-.54s.07-.4,.21-.55c.14-.15,.33-.22,.55-.22s.41,.07,.55,.22Zm.03,3v6.84h-1.17v-6.84h1.17Z"/>
    <path class="cls-3" d="M370.46,302.98v.87l-3.24,5h3.25l-.12,.96h-4.42v-.87l3.24-5h-2.96v-.96h4.25Z"/>
    <path class="cls-3" d="M376.09,308.88c.08,.13,.2,.24,.37,.31l-.25,.79c-.34-.05-.6-.16-.79-.31-.19-.16-.32-.39-.4-.72-.44,.69-1.06,1.04-1.86,1.04-.61,0-1.09-.19-1.44-.57s-.53-.88-.53-1.51c0-.73,.24-1.28,.72-1.66,.48-.38,1.16-.57,2.04-.57h.88v-.58c0-.48-.1-.82-.29-1.03-.19-.21-.51-.32-.96-.32-.48,0-1.03,.12-1.66,.36l-.29-.82c.76-.31,1.47-.47,2.13-.47,1.48,0,2.22,.74,2.22,2.22v3.22c0,.28,.04,.48,.12,.62Zm-1.27-.84v-1.61h-.75c-1.13,0-1.69,.47-1.69,1.42,0,.41,.09,.72,.27,.94,.18,.22,.44,.33,.78,.33,.61,0,1.07-.36,1.39-1.07Z"/>
    <path class="cls-3" d="M381.46,303c.3,.12,.59,.31,.87,.56l-.52,.7c-.21-.17-.42-.29-.62-.37-.21-.08-.43-.12-.68-.12-.51,0-.91,.22-1.19,.65-.28,.43-.42,1.11-.42,2.03,0,1.72,.54,2.57,1.61,2.57,.24,0,.46-.04,.66-.12,.2-.08,.41-.21,.64-.37l.55,.71c-.55,.5-1.18,.75-1.88,.75-.88,0-1.56-.3-2.06-.91-.5-.61-.75-1.48-.75-2.63,0-.75,.12-1.39,.34-1.94,.23-.55,.55-.97,.97-1.26,.42-.29,.91-.44,1.48-.44,.36,0,.7,.06,1,.18Z"/>
    <path class="cls-3" d="M388.16,306.81h-3.98c.04,.8,.2,1.37,.48,1.72,.29,.35,.68,.53,1.17,.53,.31,0,.59-.05,.84-.14,.25-.09,.5-.25,.77-.47l.52,.69c-.64,.57-1.37,.86-2.18,.86-.89,0-1.58-.31-2.07-.93-.49-.62-.73-1.49-.73-2.61s.23-2,.7-2.66c.47-.65,1.12-.98,1.95-.98s1.46,.29,1.9,.88,.66,1.42,.66,2.5c0,.18,0,.39-.03,.61Zm-1.11-.96c0-1.43-.47-2.15-1.42-2.15-.43,0-.78,.18-1.03,.54s-.39,.94-.43,1.75h2.87v-.14Z"/>
    <path class="cls-3" d="M390.72,303.75c.15,.16,.23,.35,.23,.58s-.07,.42-.23,.58c-.15,.17-.35,.25-.59,.25s-.43-.08-.58-.25c-.15-.16-.23-.36-.23-.58s.08-.42,.23-.58,.34-.24,.58-.24,.44,.08,.59,.24Zm0,4.84c.15,.16,.23,.35,.23,.58s-.07,.42-.23,.58c-.15,.17-.35,.25-.59,.25s-.43-.08-.58-.25c-.15-.16-.23-.36-.23-.58s.08-.42,.23-.58,.34-.24,.58-.24,.44,.08,.59,.24Z"/>
    <path class="cls-3" d="M396.76,299.98c.14,.15,.21,.33,.21,.55s-.07,.4-.21,.54c-.14,.14-.32,.21-.56,.21s-.41-.07-.55-.21c-.14-.14-.21-.32-.21-.54s.07-.4,.21-.55,.33-.22,.55-.22,.41,.07,.55,.22Zm.03,3v6.84h-1.17v-6.84h1.17Z"/>
    <path class="cls-3" d="M403.35,309.82l-1.92-3.81h-1.26v3.81h-1.21v-8.94h2.09c2.13,0,3.2,.84,3.2,2.52,0,.59-.14,1.09-.43,1.5-.29,.41-.71,.71-1.26,.9l2.13,4.03h-1.34Zm-.82-5.14c.3-.27,.46-.7,.46-1.28,0-.55-.15-.95-.46-1.21-.31-.26-.81-.39-1.5-.39h-.86v3.29h.97c.62,0,1.09-.14,1.39-.41Z"/>
    <path class="cls-3" d="M411.41,301.89c.61,.79,.92,1.94,.92,3.46s-.3,2.65-.91,3.45c-.61,.8-1.45,1.2-2.52,1.2s-1.9-.39-2.52-1.18c-.61-.79-.92-1.94-.92-3.45,0-1,.14-1.84,.42-2.54,.28-.7,.68-1.22,1.2-1.58,.52-.35,1.12-.53,1.81-.53,1.07,0,1.9,.39,2.52,1.18Zm-4.67,3.48c0,2.44,.72,3.65,2.16,3.65,.71,0,1.25-.29,1.61-.87,.36-.58,.54-1.51,.54-2.79s-.18-2.21-.55-2.79c-.37-.59-.9-.88-1.61-.88-1.44,0-2.16,1.23-2.16,3.69Z"/>
    <path class="cls-3" d="M418.34,300.88v.96l-4.03,6.96h4.02l-.13,1.03h-5.21v-.96l4.06-6.98h-3.65v-1h4.95Z"/>
    <path class="cls-3" d="M424.36,309.82v-4.2h-3.25v4.2h-1.21v-8.94h1.21v3.76h3.25v-3.76h1.21v8.94h-1.21Z"/>
    <path class="cls-3" d="M428.98,300.88v7.92h3.26l-.13,1.03h-4.34v-8.94h1.21Z"/>
    <path class="cls-3" d="M437.93,309.82l-.6-2.27h-3l-.6,2.27h-1.21l2.59-8.94h1.48l2.59,8.94h-1.25Zm-3.36-3.22h2.51l-1.25-4.76-1.26,4.76Z"/>
    <path class="cls-3" d="M443.88,300.97c.39,.17,.76,.43,1.11,.78l-.61,.69c-.29-.26-.59-.45-.88-.58-.29-.13-.61-.19-.94-.19-.43,0-.78,.12-1.05,.36-.26,.24-.4,.55-.4,.94,0,.26,.05,.48,.16,.67,.11,.19,.28,.36,.53,.51,.25,.15,.61,.3,1.07,.46,.53,.19,.96,.39,1.3,.61s.6,.49,.78,.83,.27,.76,.27,1.27-.12,.97-.35,1.37c-.23,.4-.57,.72-1.01,.95-.44,.23-.95,.34-1.54,.34-1.08,0-2.01-.39-2.77-1.17l.64-.69c.32,.29,.65,.5,.98,.66s.71,.23,1.11,.23c.51,0,.92-.15,1.23-.44,.31-.29,.46-.69,.46-1.2,0-.44-.12-.79-.37-1.05-.25-.26-.7-.5-1.36-.73-.84-.29-1.44-.64-1.81-1.03-.37-.39-.55-.9-.55-1.52,0-.44,.11-.84,.33-1.2,.22-.36,.53-.64,.93-.84s.85-.3,1.35-.3c.53,0,.99,.09,1.38,.26Z"/>
    <path class="cls-3" d="M447.67,308.58c.15,.16,.23,.35,.23,.58s-.08,.42-.23,.58c-.15,.17-.35,.25-.59,.25s-.43-.08-.58-.25c-.15-.16-.23-.36-.23-.58s.08-.42,.23-.58c.15-.16,.35-.24,.58-.24s.44,.08,.59,.24Z"/>
    <path class="cls-3" d="M452.77,303c.3,.12,.59,.31,.87,.56l-.52,.7c-.21-.17-.42-.29-.62-.37-.21-.08-.43-.12-.68-.12-.51,0-.91,.22-1.19,.65-.28,.43-.42,1.11-.42,2.03,0,1.72,.54,2.57,1.61,2.57,.24,0,.46-.04,.66-.12,.2-.08,.41-.21,.64-.37l.54,.71c-.55,.5-1.18,.75-1.88,.75-.88,0-1.56-.3-2.06-.91-.5-.61-.75-1.48-.75-2.63,0-.75,.12-1.39,.35-1.94,.23-.55,.55-.97,.97-1.26,.42-.29,.91-.44,1.47-.44,.37,0,.7,.06,1,.18Z"/>
    <path class="cls-3" d="M458.69,302.98v.87l-3.24,5h3.25l-.12,.96h-4.42v-.87l3.24-5h-2.96v-.96h4.25Z"/>
    <path class="cls-3" d="M460.96,308.57c.15,.16,.22,.35,.22,.57,0,.12-.02,.25-.06,.38s-.1,.32-.19,.56l-.72,1.83h-.73l.48-2.07c-.25-.17-.38-.39-.38-.69,0-.23,.08-.43,.23-.58,.15-.16,.35-.23,.58-.23s.41,.08,.56,.23Z"/>
    <path class="cls-3" d="M467.13,300.88v8.94h-1.21v-8.94h1.21Zm4.39,0l-3.03,4.08,3.24,4.86h-1.39l-3.16-4.78,3.05-4.16h1.29Z"/>
    <path class="cls-3" d="M476.13,302.91l-.2,1.13c-.16-.05-.34-.08-.53-.08-.38,0-.69,.15-.93,.45-.24,.3-.43,.77-.56,1.39v4.02h-1.17v-6.84h1.01l.09,1.35c.34-1.01,.9-1.51,1.7-1.51,.22,0,.42,.03,.58,.08Z"/>
    <path class="cls-3" d="M478.41,299.98c.14,.15,.21,.33,.21,.55s-.07,.4-.21,.54c-.14,.14-.33,.21-.56,.21s-.41-.07-.55-.21c-.14-.14-.21-.32-.21-.54s.07-.4,.21-.55c.14-.15,.33-.22,.55-.22s.41,.07,.55,.22Zm.03,3v6.84h-1.17v-6.84h1.17Z"/>
    <path class="cls-3" d="M484.43,303.6l-.49,.69c-.28-.19-.54-.33-.78-.43-.24-.1-.5-.14-.77-.14-.36,0-.63,.08-.84,.25-.21,.17-.31,.4-.31,.7s.1,.51,.29,.68c.2,.16,.56,.33,1.11,.51,.68,.22,1.18,.48,1.49,.79,.31,.31,.47,.74,.47,1.29,0,.64-.23,1.15-.7,1.51-.47,.37-1.05,.55-1.76,.55-.93,0-1.71-.31-2.35-.92l.6-.65c.54,.44,1.12,.66,1.73,.66,.38,0,.69-.09,.92-.29,.23-.19,.35-.46,.35-.79,0-.24-.04-.44-.12-.58s-.23-.28-.44-.4c-.21-.12-.52-.24-.93-.37-.65-.22-1.12-.48-1.4-.78-.29-.3-.43-.69-.43-1.16,0-.36,.1-.69,.29-.98,.19-.29,.46-.51,.79-.68,.34-.16,.73-.25,1.17-.25,.79,0,1.49,.26,2.11,.78Z"/>
    <path class="cls-3" d="M489.34,309.52c-.43,.31-.91,.47-1.44,.47s-.98-.16-1.28-.48-.45-.77-.45-1.35v-4.29h-.98v-.88h.98v-1.57l1.17-.14v1.72h1.51l-.13,.88h-1.38v4.28c0,.59,.25,.88,.74,.88,.15,0,.28-.02,.41-.06,.12-.04,.27-.11,.42-.2l.43,.75Z"/>
    <path class="cls-3" d="M491.8,299.46l.49,.94-2.5,1.13-.34-.6,2.34-1.47Zm-.27,3.52v6.84h-1.17v-6.84h1.17Z"/>
    <path class="cls-3" d="M497.97,303.36c.31,.36,.46,.86,.46,1.49v4.98h-1.17v-4.84c0-.44-.07-.76-.22-.96-.15-.2-.37-.29-.68-.29-.57,0-1.09,.41-1.56,1.22v4.86h-1.17v-6.84h1.02l.09,1.01c.53-.79,1.18-1.18,1.95-1.18,.54,0,.97,.18,1.28,.54Z"/>
    <path class="cls-3" d="M504.86,308.88c.08,.13,.2,.24,.36,.31l-.25,.79c-.34-.05-.6-.16-.79-.31-.19-.16-.33-.39-.4-.72-.44,.69-1.06,1.04-1.86,1.04-.61,0-1.09-.19-1.44-.57s-.53-.88-.53-1.51c0-.73,.24-1.28,.71-1.66,.48-.38,1.16-.57,2.04-.57h.88v-.58c0-.48-.1-.82-.29-1.03-.2-.21-.51-.32-.96-.32-.48,0-1.03,.12-1.66,.36l-.29-.82c.76-.31,1.47-.47,2.13-.47,1.48,0,2.22,.74,2.22,2.22v3.22c0,.28,.04,.48,.12,.62Zm-1.27-.84v-1.61h-.75c-1.13,0-1.69,.47-1.69,1.42,0,.41,.09,.72,.27,.94,.18,.22,.44,.33,.78,.33,.61,0,1.07-.36,1.39-1.07Z"/>
    <path class="cls-3" d="M514.44,301.57c.56,.46,.85,1.15,.85,2.07,0,.97-.29,1.69-.87,2.16-.58,.47-1.38,.71-2.4,.71h-.86v3.31h-1.21v-8.94h2.03c1.08,0,1.89,.23,2.46,.69Zm-.92,3.58c.34-.29,.51-.78,.51-1.5,0-.65-.17-1.12-.5-1.41-.33-.29-.84-.44-1.53-.44h-.83v3.77h.82c.69,0,1.2-.14,1.54-.43Z"/>
    <path class="cls-3" d="M520.23,303.6l-.49,.69c-.28-.19-.54-.33-.78-.43-.24-.1-.5-.14-.77-.14-.36,0-.63,.08-.84,.25-.21,.17-.31,.4-.31,.7s.1,.51,.29,.68c.2,.16,.56,.33,1.11,.51,.68,.22,1.18,.48,1.49,.79,.31,.31,.47,.74,.47,1.29,0,.64-.23,1.15-.7,1.51-.47,.37-1.05,.55-1.76,.55-.93,0-1.71-.31-2.35-.92l.6-.65c.54,.44,1.12,.66,1.73,.66,.38,0,.69-.09,.92-.29,.23-.19,.35-.46,.35-.79,0-.24-.04-.44-.12-.58s-.23-.28-.44-.4c-.21-.12-.52-.24-.93-.37-.65-.22-1.12-.48-1.4-.78-.29-.3-.43-.69-.43-1.16,0-.36,.1-.69,.29-.98,.19-.29,.46-.51,.79-.68,.34-.16,.73-.25,1.17-.25,.79,0,1.49,.26,2.11,.78Zm-.59-3.95l.46,.52-1.57,1.51h-.73l-1.57-1.51,.46-.52,1.48,1.14,1.48-1.14Z"/>
    <path class="cls-3" d="M526.33,303.74c.48,.62,.73,1.5,.73,2.65s-.25,1.99-.74,2.63-1.17,.97-2.04,.97-1.56-.32-2.05-.95c-.49-.63-.73-1.51-.73-2.64s.25-2.02,.74-2.65c.49-.63,1.18-.94,2.05-.94s1.55,.31,2.04,.92Zm-3.21,.66c-.27,.43-.4,1.1-.4,2.01,0,1.78,.52,2.67,1.56,2.67s1.56-.89,1.56-2.68c0-.91-.13-1.58-.39-2s-.64-.64-1.16-.64-.9,.21-1.17,.64Z"/>
    <path class="cls-3" d="M532.14,302.91l-.2,1.13c-.17-.05-.34-.08-.53-.08-.38,0-.69,.15-.93,.45-.24,.3-.43,.77-.57,1.39v4.02h-1.17v-6.84h1.02l.09,1.35c.34-1.01,.91-1.51,1.7-1.51,.22,0,.42,.03,.59,.08Z"/>
    <path class="cls-3" d="M537.62,303.36c.31,.36,.46,.86,.46,1.49v4.98h-1.17v-4.84c0-.44-.07-.76-.22-.96-.15-.2-.37-.29-.68-.29-.57,0-1.09,.41-1.56,1.22v4.86h-1.17v-6.84h1.02l.09,1.01c.53-.79,1.18-1.18,1.95-1.18,.54,0,.97,.18,1.28,.54Z"/>
    <path class="cls-3" d="M547.81,300.88v.96l-4.03,6.96h4.02l-.13,1.03h-5.21v-.96l4.05-6.98h-3.65v-1h4.95Z"/>
    <path class="cls-3" d="M553.51,308.88c.08,.13,.2,.24,.36,.31l-.25,.79c-.34-.05-.6-.16-.79-.31-.19-.16-.33-.39-.4-.72-.44,.69-1.06,1.04-1.86,1.04-.61,0-1.09-.19-1.44-.57s-.53-.88-.53-1.51c0-.73,.24-1.28,.71-1.66,.48-.38,1.16-.57,2.04-.57h.88v-.58c0-.48-.1-.82-.29-1.03-.2-.21-.51-.32-.96-.32-.48,0-1.03,.12-1.66,.36l-.29-.82c.76-.31,1.47-.47,2.13-.47,1.48,0,2.22,.74,2.22,2.22v3.22c0,.28,.04,.48,.12,.62Zm-1.49-9.42l.49,.94-2.5,1.13-.34-.6,2.34-1.47Zm.22,8.58v-1.61h-.75c-1.13,0-1.69,.47-1.69,1.42,0,.41,.09,.72,.27,.94,.18,.22,.44,.33,.78,.33,.61,0,1.07-.36,1.39-1.07Z"/>
    <path class="cls-3" d="M556.67,300.09v9.74h-1.17v-9.61l1.17-.13Zm3.6,2.9l-2.31,3.04,2.54,3.8h-1.3l-2.46-3.74,2.31-3.09h1.22Z"/>
    <path class="cls-3" d="M565.86,303.74c.49,.62,.73,1.5,.73,2.65s-.25,1.99-.74,2.63-1.18,.97-2.04,.97-1.56-.32-2.05-.95c-.49-.63-.73-1.51-.73-2.64s.25-2.02,.74-2.65c.49-.63,1.18-.94,2.05-.94s1.56,.31,2.04,.92Zm-3.21,.66c-.27,.43-.4,1.1-.4,2.01,0,1.78,.52,2.67,1.56,2.67s1.56-.89,1.56-2.68c0-.91-.13-1.58-.39-2s-.65-.64-1.16-.64-.9,.21-1.17,.64Z"/>
    <path class="cls-3" d="M572.91,303.74c.38,.62,.57,1.5,.57,2.64s-.21,1.99-.63,2.64-1.01,.97-1.76,.97c-.68,0-1.22-.27-1.64-.82v3.25l-1.17,.14v-9.58h1.03l.06,.92c.47-.73,1.09-1.09,1.86-1.09s1.31,.31,1.68,.92Zm-.66,2.65c0-.93-.11-1.6-.33-2.02-.22-.42-.56-.63-1.01-.63-.3,0-.57,.09-.81,.27-.23,.18-.46,.43-.66,.74v3.46c.36,.56,.81,.84,1.37,.84,.96,0,1.44-.89,1.44-2.67Z"/>
    <path class="cls-3" d="M578.57,303c.3,.12,.59,.31,.87,.56l-.52,.7c-.21-.17-.42-.29-.62-.37-.21-.08-.43-.12-.68-.12-.51,0-.91,.22-1.19,.65-.28,.43-.42,1.11-.42,2.03,0,1.72,.54,2.57,1.61,2.57,.24,0,.46-.04,.66-.12,.2-.08,.41-.21,.64-.37l.55,.71c-.55,.5-1.18,.75-1.88,.75-.88,0-1.56-.3-2.06-.91-.5-.61-.75-1.48-.75-2.63,0-.75,.12-1.39,.34-1.94,.23-.55,.55-.97,.97-1.26,.42-.29,.91-.44,1.48-.44,.36,0,.7,.06,1,.18Zm.47-3.35l.46,.52-1.57,1.51h-.73l-1.57-1.51,.45-.52,1.48,1.14,1.48-1.14Z"/>
    <path class="cls-3" d="M585.01,308.88c.08,.13,.2,.24,.37,.31l-.25,.79c-.34-.05-.6-.16-.79-.31-.19-.16-.32-.39-.4-.72-.44,.69-1.06,1.04-1.86,1.04-.61,0-1.09-.19-1.44-.57s-.53-.88-.53-1.51c0-.73,.24-1.28,.72-1.66,.48-.38,1.16-.57,2.04-.57h.88v-.58c0-.48-.1-.82-.29-1.03-.19-.21-.51-.32-.96-.32-.48,0-1.03,.12-1.66,.36l-.29-.82c.76-.31,1.47-.47,2.13-.47,1.48,0,2.22,.74,2.22,2.22v3.22c0,.28,.04,.48,.12,.62Zm-1.27-.84v-1.61h-.75c-1.13,0-1.69,.47-1.69,1.42,0,.41,.09,.72,.27,.94,.18,.22,.44,.33,.78,.33,.61,0,1.07-.36,1.39-1.07Z"/>
    <path class="cls-3" d="M591.33,303.36c.31,.36,.46,.86,.46,1.49v4.98h-1.17v-4.84c0-.44-.07-.76-.22-.96-.15-.2-.37-.29-.68-.29-.57,0-1.09,.41-1.56,1.22v4.86h-1.17v-6.84h1.01l.09,1.01c.53-.79,1.18-1.18,1.95-1.18,.55,0,.97,.18,1.28,.54Z"/>
    <path class="cls-3" d="M598.27,303.74c.49,.62,.73,1.5,.73,2.65s-.25,1.99-.74,2.63-1.18,.97-2.04,.97-1.56-.32-2.05-.95c-.49-.63-.73-1.51-.73-2.64s.25-2.02,.74-2.65c.49-.63,1.18-.94,2.05-.94s1.56,.31,2.04,.92Zm-3.21,.66c-.27,.43-.4,1.1-.4,2.01,0,1.78,.52,2.67,1.56,2.67s1.56-.89,1.56-2.68c0-.91-.13-1.58-.39-2s-.65-.64-1.16-.64-.9,.21-1.17,.64Z"/>
    <path class="cls-3" d="M605.25,302.98l-2.04,6.84h-1.4l-2.11-6.84h1.22l1.59,5.85,1.57-5.85h1.17Z"/>
    <path class="cls-3" d="M610.62,308.88c.08,.13,.2,.24,.37,.31l-.25,.79c-.34-.05-.6-.16-.79-.31-.19-.16-.32-.39-.4-.72-.44,.69-1.06,1.04-1.86,1.04-.61,0-1.09-.19-1.44-.57s-.53-.88-.53-1.51c0-.73,.24-1.28,.72-1.66,.48-.38,1.16-.57,2.04-.57h.88v-.58c0-.48-.1-.82-.29-1.03-.19-.21-.51-.32-.96-.32-.48,0-1.03,.12-1.66,.36l-.29-.82c.76-.31,1.47-.47,2.13-.47,1.48,0,2.22,.74,2.22,2.22v3.22c0,.28,.04,.48,.12,.62Zm-1.49-9.42l.49,.94-2.5,1.13-.34-.6,2.34-1.47Zm.22,8.58v-1.61h-.75c-1.13,0-1.69,.47-1.69,1.42,0,.41,.09,.72,.27,.94,.18,.22,.44,.33,.78,.33,.61,0,1.07-.36,1.39-1.07Z"/>
  </g>
</svg>