<?xml version="1.0" encoding="UTF-8"?>
<svg id="Layer_1" data-name="Layer 1" xmlns="http://www.w3.org/2000/svg" viewBox="0 0 620 316.4">
  <defs>
    <style>
      .cls-1 {
        fill: none;
        stroke: #c9ced1;
        stroke-linejoin: round;
      }

      .cls-2 {
        fill: #818d95;
      }

      .cls-3 {
        fill: #b900a4;
      }

      .cls-4 {
        fill: #bcc9d1;
      }

      .cls-5 {
        fill: #c9ced1;
      }

      .cls-6 {
        fill: #3e5768;
      }

      .cls-7 {
        fill: #46494c;
      }

      .cls-8 {
        fill: #4c5c68;
      }

      .cls-9 {
        opacity: .8;
      }

      .cls-10 {
        isolation: isolate;
      }
    </style>
  </defs>
  <g>
    <path class="cls-2" d="M504.25,73.42c.22,.23,.34,.5,.34,.83s-.11,.61-.34,.83c-.22,.22-.52,.33-.88,.33s-.64-.11-.86-.33c-.22-.22-.34-.5-.34-.83s.11-.61,.34-.83c.23-.22,.51-.34,.86-.34s.65,.11,.88,.34Zm.1,3.68v7.94h-1.92v-7.94h1.92Z"/>
    <path class="cls-2" d="M512.54,77.51c.39,.43,.59,1.02,.59,1.78v5.75h-1.92v-5.44c0-.47-.08-.8-.25-.99s-.41-.29-.73-.29-.63,.1-.89,.31c-.27,.21-.52,.5-.77,.89v5.52h-1.92v-7.94h1.67l.15,1.04c.65-.84,1.46-1.26,2.42-1.26,.71,0,1.26,.21,1.66,.64Z"/>
    <path class="cls-2" d="M529.07,77.53c.38,.44,.57,1.02,.57,1.76v5.75h-1.92v-5.44c0-.85-.29-1.28-.87-1.28-.31,0-.58,.1-.8,.29-.22,.2-.46,.5-.7,.91v5.52h-1.92v-5.44c0-.85-.29-1.28-.87-1.28-.32,0-.59,.1-.82,.29-.22,.2-.46,.5-.7,.91v5.52h-1.92v-7.94h1.67l.15,1.04c.6-.84,1.37-1.26,2.29-1.26,.46,0,.86,.12,1.19,.35,.33,.24,.58,.56,.73,.98,.32-.43,.67-.76,1.06-.99s.83-.35,1.33-.35c.64,0,1.15,.22,1.53,.65Z"/>
    <path class="cls-2" d="M538.34,81.66h-4.98c.06,.77,.26,1.32,.6,1.65s.79,.5,1.35,.5c.35,0,.68-.06,.99-.17,.31-.12,.64-.29,.99-.53l.79,1.1c-.88,.71-1.86,1.06-2.94,1.06-1.21,0-2.14-.37-2.8-1.11-.66-.74-.98-1.75-.98-3.03,0-.81,.14-1.54,.42-2.18,.28-.65,.68-1.15,1.21-1.51,.53-.37,1.16-.55,1.89-.55,1.11,0,1.97,.35,2.58,1.06,.61,.71,.92,1.69,.92,2.95,0,.1-.01,.36-.04,.78Zm-1.86-1.33c0-1.39-.51-2.08-1.54-2.08-.47,0-.84,.17-1.1,.52-.26,.34-.42,.9-.47,1.66h3.12v-.09Z"/>
    <path class="cls-2" d="M550.05,77.53c.38,.44,.57,1.02,.57,1.76v5.75h-1.92v-5.44c0-.85-.29-1.28-.87-1.28-.31,0-.58,.1-.8,.29-.22,.2-.46,.5-.7,.91v5.52h-1.92v-5.44c0-.85-.29-1.28-.87-1.28-.32,0-.59,.1-.82,.29-.22,.2-.46,.5-.7,.91v5.52h-1.92v-7.94h1.67l.15,1.04c.6-.84,1.37-1.26,2.29-1.26,.46,0,.86,.12,1.19,.35,.33,.24,.58,.56,.73,.98,.32-.43,.67-.76,1.06-.99s.83-.35,1.33-.35c.64,0,1.15,.22,1.53,.65Z"/>
    <path class="cls-2" d="M558.83,77.99c.65,.75,.98,1.77,.98,3.07,0,.83-.15,1.56-.45,2.2-.3,.63-.73,1.13-1.29,1.48-.56,.35-1.22,.52-2,.52-1.17,0-2.08-.37-2.75-1.12-.66-.74-.99-1.77-.99-3.08,0-.83,.15-1.56,.45-2.19s.73-1.12,1.3-1.47c.56-.35,1.23-.53,2-.53,1.17,0,2.08,.37,2.74,1.12Zm-4.46,3.07c0,.94,.14,1.63,.43,2.08s.71,.67,1.28,.67,1-.23,1.28-.67c.29-.45,.43-1.14,.43-2.07s-.14-1.62-.43-2.06c-.28-.44-.71-.67-1.27-.67-1.15,0-1.72,.91-1.72,2.73Z"/>
    <path class="cls-2" d="M566.33,77l-.33,1.86c-.24-.06-.48-.09-.71-.09-.47,0-.84,.17-1.11,.5-.27,.34-.49,.85-.64,1.54v4.23h-1.92v-7.94h1.67l.18,1.56c.19-.57,.46-1.01,.83-1.31,.36-.3,.77-.46,1.25-.46,.29,0,.55,.04,.79,.1Z"/>
    <path class="cls-2" d="M569.35,73.42c.22,.23,.34,.5,.34,.83s-.11,.61-.34,.83c-.22,.22-.52,.33-.88,.33s-.64-.11-.86-.33c-.22-.22-.34-.5-.34-.83s.11-.61,.34-.83c.23-.22,.51-.34,.86-.34s.65,.11,.88,.34Zm.1,3.68v7.94h-1.92v-7.94h1.92Z"/>
    <path class="cls-2" d="M577.76,83.62c.1,.15,.25,.26,.46,.34l-.41,1.27c-.45-.04-.82-.15-1.1-.33-.29-.18-.5-.46-.65-.83-.27,.4-.61,.7-1.01,.89-.4,.19-.86,.29-1.36,.29-.79,0-1.42-.23-1.88-.68-.46-.45-.69-1.04-.69-1.77,0-.86,.31-1.52,.94-1.97,.62-.46,1.52-.68,2.68-.68h.99v-.45c0-.51-.12-.87-.35-1.07s-.61-.31-1.13-.31c-.58,0-1.28,.14-2.1,.42l-.45-1.3c.99-.38,1.95-.57,2.88-.57,2.03,0,3.04,.91,3.04,2.73v3.33c0,.31,.05,.54,.14,.68Zm-2.03-.73v-1.6h-.79c-1.24,0-1.86,.46-1.86,1.38,0,.38,.1,.68,.29,.89,.19,.21,.47,.31,.84,.31,.65,0,1.16-.32,1.53-.98Z"/>
    <path class="cls-2" d="M589.89,77.53c.38,.44,.57,1.02,.57,1.76v5.75h-1.92v-5.44c0-.85-.29-1.28-.87-1.28-.31,0-.58,.1-.8,.29-.22,.2-.46,.5-.7,.91v5.52h-1.92v-5.44c0-.85-.29-1.28-.87-1.28-.32,0-.59,.1-.82,.29-.22,.2-.46,.5-.7,.91v5.52h-1.92v-7.94h1.67l.15,1.04c.6-.84,1.37-1.26,2.29-1.26,.46,0,.86,.12,1.19,.35,.33,.24,.58,.56,.73,.98,.32-.43,.67-.76,1.06-.99s.83-.35,1.33-.35c.64,0,1.15,.22,1.53,.65Z"/>
  </g>
  <g>
    <path class="cls-8" d="M159.09,77.33v1.38l-3.84,5.06h3.92l-.19,1.5h-5.93v-1.38l3.86-5.06h-3.53v-1.5h5.72Zm-.98-4.06l.74,.84-2.08,1.88h-1.2l-2.08-1.88,.74-.84,1.95,1.32,1.95-1.32Z"/>
    <path class="cls-8" d="M162.49,73.64c.22,.23,.34,.5,.34,.83s-.11,.61-.34,.83c-.22,.22-.52,.33-.88,.33s-.64-.11-.86-.33c-.22-.22-.34-.5-.34-.83s.11-.61,.34-.83c.23-.22,.51-.34,.86-.34s.65,.11,.88,.34Zm.1,3.68v7.94h-1.92v-7.94h1.92Z"/>
    <path class="cls-8" d="M166.8,84.56c0,.78-.11,1.42-.34,1.91-.23,.5-.54,.89-.95,1.19-.41,.3-.94,.58-1.6,.85l-.62-1.4c.39-.18,.7-.36,.92-.53,.22-.18,.39-.41,.5-.71,.11-.3,.17-.7,.17-1.2v-7.35h1.92v7.23Zm-.1-10.91c.22,.23,.34,.5,.34,.83s-.11,.61-.34,.83c-.23,.22-.52,.33-.88,.33s-.64-.11-.86-.33c-.23-.22-.34-.5-.34-.83s.11-.61,.34-.83c.22-.22,.51-.34,.86-.34s.65,.11,.88,.34Z"/>
    <path class="cls-8" d="M171.45,72.96l.78,1.5-3.39,1.35-.54-.97,3.15-1.88Zm-.18,4.36v7.94h-1.92v-7.94h1.92Z"/>
    <path class="cls-8" d="M178.18,77.33c.41,.15,.81,.39,1.18,.71l-.85,1.15c-.27-.2-.53-.34-.78-.43-.25-.09-.53-.14-.83-.14-1.19,0-1.79,.91-1.79,2.71,0,.92,.16,1.58,.47,1.99,.31,.4,.75,.61,1.32,.61,.28,0,.54-.04,.77-.14,.24-.09,.51-.23,.83-.43l.85,1.21c-.75,.61-1.6,.92-2.56,.92-.76,0-1.42-.17-1.98-.5-.56-.33-.99-.81-1.29-1.43s-.45-1.35-.45-2.19,.15-1.58,.45-2.23,.73-1.15,1.29-1.5c.56-.35,1.21-.53,1.96-.53,.52,0,.99,.08,1.4,.23Z"/>
    <path class="cls-8" d="M182.85,72.96l.78,1.5-3.39,1.35-.54-.97,3.15-1.88Zm-.18,4.36v7.94h-1.92v-7.94h1.92Z"/>
    <path class="cls-8" d="M194.93,77.75c.38,.44,.57,1.02,.57,1.76v5.75h-1.92v-5.44c0-.85-.29-1.28-.87-1.28-.31,0-.58,.1-.8,.29-.22,.2-.46,.5-.7,.91v5.52h-1.92v-5.44c0-.85-.29-1.28-.87-1.28-.32,0-.59,.1-.82,.29-.22,.2-.46,.5-.7,.91v5.52h-1.92v-7.94h1.67l.15,1.04c.6-.84,1.37-1.26,2.29-1.26,.46,0,.86,.12,1.19,.35,.33,.24,.58,.56,.73,.98,.32-.43,.67-.76,1.06-.99s.83-.35,1.33-.35c.64,0,1.15,.22,1.53,.65Z"/>
  </g>
  <g class="cls-9">
    <line class="cls-1" x1="153.81" y1="255.25" x2="153.81" y2="102.36"/>
    <line class="cls-1" x1="334.28" y1="255.25" x2="334.28" y2="102.36"/>
    <line class="cls-1" x1="514.75" y1="255.25" x2="514.75" y2="102.36"/>
  </g>
  <path class="cls-8" d="M155.99,262.13c.49,.77,.73,1.88,.73,3.33s-.25,2.57-.73,3.34c-.49,.77-1.22,1.16-2.18,1.16s-1.69-.39-2.18-1.16c-.49-.77-.73-1.88-.73-3.34s.25-2.57,.73-3.33c.49-.77,1.22-1.15,2.18-1.15s1.69,.38,2.18,1.15Zm-3.43,.63c-.27,.55-.41,1.46-.41,2.7s.14,2.15,.41,2.71c.27,.56,.69,.84,1.25,.84s.97-.28,1.25-.84c.28-.56,.42-1.46,.42-2.71s-.14-2.14-.42-2.7c-.28-.56-.69-.84-1.25-.84s-.98,.28-1.25,.83Z"/>
  <g>
    <path class="cls-8" d="M328.15,261.29c.39,.21,.7,.49,.92,.85,.22,.36,.33,.76,.33,1.21,0,.53-.12,1.04-.36,1.52s-.6,1.01-1.1,1.57c-.49,.56-1.24,1.35-2.25,2.35h3.91l-.14,1h-5.13v-.95c1.16-1.2,1.98-2.09,2.47-2.65,.49-.56,.83-1.05,1.04-1.46s.31-.86,.31-1.34c0-.45-.13-.8-.39-1.06-.26-.26-.61-.38-1.04-.38-.36,0-.67,.07-.94,.22s-.55,.39-.86,.73l-.78-.62c.36-.44,.75-.77,1.18-.99s.92-.33,1.46-.33,.98,.1,1.37,.31Z"/>
    <path class="cls-8" d="M336.06,262.13c.49,.77,.73,1.88,.73,3.33s-.25,2.57-.73,3.34c-.49,.77-1.22,1.16-2.18,1.16s-1.69-.39-2.18-1.16c-.49-.77-.73-1.88-.73-3.34s.25-2.57,.73-3.33c.49-.77,1.22-1.15,2.18-1.15s1.69,.38,2.18,1.15Zm-3.43,.63c-.27,.55-.41,1.46-.41,2.7s.14,2.15,.41,2.71c.27,.56,.69,.84,1.25,.84s.97-.28,1.25-.84c.28-.56,.42-1.46,.42-2.71s-.14-2.14-.42-2.7c-.28-.56-.69-.84-1.25-.84s-.98,.28-1.25,.83Z"/>
    <path class="cls-8" d="M343.31,262.13c.49,.77,.73,1.88,.73,3.33s-.25,2.57-.73,3.34c-.49,.77-1.22,1.16-2.18,1.16s-1.69-.39-2.18-1.16c-.49-.77-.73-1.88-.73-3.34s.25-2.57,.73-3.33c.49-.77,1.22-1.15,2.18-1.15s1.69,.38,2.18,1.15Zm-3.43,.63c-.27,.55-.41,1.46-.41,2.7s.14,2.15,.41,2.71c.27,.56,.69,.84,1.25,.84s.97-.28,1.25-.84c.28-.56,.42-1.46,.42-2.71s-.14-2.14-.42-2.7c-.28-.56-.69-.84-1.25-.84s-.98,.28-1.25,.83Z"/>
  </g>
  <g>
    <path class="cls-8" d="M510.57,266.71v.95h-1.13v2.14h-1.16v-2.14h-3.72v-.86l2.61-5.82,1,.42-2.35,5.32h2.47l.1-2.34h1.04v2.34h1.13Z"/>
    <path class="cls-8" d="M516.77,262.13c.49,.77,.73,1.88,.73,3.33s-.25,2.57-.73,3.34c-.49,.77-1.22,1.16-2.18,1.16s-1.69-.39-2.18-1.16c-.49-.77-.73-1.88-.73-3.34s.25-2.57,.73-3.33c.49-.77,1.22-1.15,2.18-1.15s1.69,.38,2.18,1.15Zm-3.43,.63c-.27,.55-.41,1.46-.41,2.7s.14,2.15,.41,2.71c.27,.56,.69,.84,1.25,.84s.97-.28,1.25-.84c.28-.56,.42-1.46,.42-2.71s-.14-2.14-.42-2.7c-.28-.56-.69-.84-1.25-.84s-.98,.28-1.25,.83Z"/>
    <path class="cls-8" d="M524.02,262.13c.49,.77,.73,1.88,.73,3.33s-.25,2.57-.73,3.34c-.49,.77-1.22,1.16-2.18,1.16s-1.69-.39-2.18-1.16c-.49-.77-.73-1.88-.73-3.34s.25-2.57,.73-3.33c.49-.77,1.22-1.15,2.18-1.15s1.69,.38,2.18,1.15Zm-3.43,.63c-.27,.55-.41,1.46-.41,2.7s.14,2.15,.41,2.71c.27,.56,.69,.84,1.25,.84s.97-.28,1.25-.84c.28-.56,.42-1.46,.42-2.71s-.14-2.14-.42-2.7c-.28-.56-.69-.84-1.25-.84s-.98,.28-1.25,.83Z"/>
  </g>
  <g>
    <path class="cls-7" d="M68.23,216.74h-1.81l-.25-4.05c-.08-1.45-.13-2.59-.13-3.44v-.5l-1.76,6.94h-1.75l-1.88-6.96c.02,.62,.03,1.08,.03,1.4,0,.85-.03,1.72-.08,2.62l-.24,3.99h-1.79l.77-9.67h2.38l1.72,6.78,1.62-6.78h2.41l.76,9.67Z"/>
    <path class="cls-7" d="M71.65,205.9c.21,.21,.31,.47,.31,.78s-.1,.56-.31,.77-.48,.31-.82,.31-.59-.1-.8-.31-.32-.46-.32-.77,.11-.57,.32-.78c.21-.21,.48-.32,.8-.32s.61,.1,.82,.32Zm.09,3.44v7.41h-1.79v-7.41h1.79Z"/>
    <path class="cls-7" d="M74.31,216.45c-.32-.33-.48-.8-.48-1.41v-8.68l1.79-.2v8.82c0,.35,.14,.52,.42,.52,.14,0,.28-.02,.42-.07l.38,1.26c-.37,.17-.77,.25-1.19,.25-.57,0-1.01-.17-1.34-.5Z"/>
    <path class="cls-7" d="M83.54,210.17c.61,.7,.92,1.65,.92,2.86,0,.77-.14,1.46-.42,2.05-.28,.59-.68,1.05-1.2,1.38-.52,.33-1.14,.49-1.86,.49-1.09,0-1.95-.35-2.56-1.04-.62-.7-.92-1.65-.92-2.88,0-.77,.14-1.46,.42-2.04,.28-.59,.68-1.05,1.21-1.37,.53-.33,1.15-.49,1.87-.49,1.09,0,1.94,.35,2.56,1.04Zm-4.17,2.86c0,.88,.13,1.52,.4,1.94,.27,.42,.67,.62,1.2,.62s.93-.21,1.2-.63c.27-.42,.4-1.06,.4-1.93s-.13-1.51-.4-1.92c-.27-.42-.66-.62-1.18-.62-1.07,0-1.61,.85-1.61,2.55Z"/>
    <path class="cls-7" d="M91.11,210.01l-.7,1.05c-.63-.4-1.25-.6-1.86-.6-.36,0-.63,.07-.83,.2s-.29,.31-.29,.54c0,.17,.04,.31,.13,.42s.24,.22,.46,.31c.22,.1,.54,.21,.97,.33,.8,.21,1.4,.5,1.79,.85,.39,.35,.58,.85,.58,1.48,0,.74-.3,1.31-.9,1.73-.6,.42-1.34,.62-2.23,.62-.61,0-1.16-.09-1.66-.28-.5-.19-.93-.44-1.29-.77l.9-1.01c.64,.49,1.32,.73,2.02,.73,.4,0,.72-.08,.96-.24s.36-.38,.36-.66c0-.21-.04-.38-.13-.51s-.25-.24-.48-.34c-.23-.1-.59-.22-1.07-.36-.76-.21-1.31-.49-1.67-.86s-.53-.83-.53-1.38c0-.41,.12-.78,.36-1.11s.57-.58,1.01-.77c.43-.19,.93-.28,1.49-.28,1,0,1.88,.29,2.63,.88Zm-.77-4.47l.69,.78-1.95,1.75h-1.12l-1.95-1.75,.69-.78,1.82,1.23,1.82-1.23Z"/>
    <path class="cls-7" d="M102.17,207.07v1.43l-4.47,6.73h4.51l-.2,1.51h-6.47v-1.41l4.55-6.79h-4.09v-1.47h6.16Z"/>
    <path class="cls-7" d="M109.52,213.59h-4.65c.06,.72,.24,1.23,.56,1.54,.32,.31,.74,.46,1.26,.46,.33,0,.63-.05,.92-.16,.29-.11,.6-.27,.92-.5l.74,1.02c-.82,.66-1.74,.99-2.74,.99-1.13,0-2-.35-2.61-1.04-.61-.69-.92-1.63-.92-2.83,0-.76,.13-1.44,.39-2.04,.26-.6,.64-1.07,1.13-1.41s1.08-.51,1.76-.51c1.04,0,1.84,.33,2.41,.99,.57,.66,.85,1.57,.85,2.75,0,.09-.01,.34-.04,.73Zm-1.74-1.25c0-1.3-.48-1.95-1.44-1.95-.44,0-.78,.16-1.03,.48-.25,.32-.39,.84-.44,1.55h2.91v-.08Z"/>
    <path class="cls-7" d="M120.45,209.73c.35,.41,.53,.95,.53,1.65v5.36h-1.79v-5.08c0-.79-.27-1.19-.81-1.19-.29,0-.54,.09-.75,.27s-.43,.46-.65,.85v5.15h-1.79v-5.08c0-.79-.27-1.19-.81-1.19-.3,0-.55,.09-.76,.27-.21,.18-.43,.46-.65,.85v5.15h-1.79v-7.41h1.55l.14,.97c.56-.78,1.27-1.18,2.14-1.18,.43,0,.8,.11,1.11,.33,.31,.22,.54,.52,.68,.92,.3-.4,.63-.71,.99-.92,.36-.21,.77-.32,1.24-.32,.6,0,1.07,.2,1.43,.61Z"/>
    <path class="cls-7" d="M128.67,215.42c.09,.14,.23,.24,.43,.32l-.38,1.19c-.42-.04-.76-.14-1.03-.31s-.47-.42-.61-.77c-.25,.37-.57,.65-.94,.83s-.8,.27-1.27,.27c-.74,0-1.32-.21-1.75-.63-.43-.42-.64-.97-.64-1.65,0-.8,.29-1.42,.88-1.84,.58-.42,1.42-.64,2.5-.64h.92v-.42c0-.48-.11-.81-.33-1-.22-.19-.57-.29-1.06-.29-.54,0-1.2,.13-1.96,.39l-.42-1.22c.92-.35,1.82-.53,2.69-.53,1.89,0,2.84,.85,2.84,2.55v3.11c0,.29,.04,.5,.13,.64Zm-1.9-.68v-1.5h-.74c-1.16,0-1.74,.43-1.74,1.29,0,.35,.09,.63,.27,.83,.18,.2,.44,.29,.78,.29,.61,0,1.08-.3,1.43-.91Z"/>
    <path class="cls-7" d="M136.21,209.72c.37,.4,.55,.95,.55,1.66v5.36h-1.79v-5.08c0-.44-.08-.75-.23-.92-.15-.18-.38-.27-.68-.27s-.59,.1-.83,.29-.49,.47-.72,.83v5.15h-1.79v-7.41h1.55l.14,.97c.61-.78,1.36-1.18,2.25-1.18,.66,0,1.18,.2,1.55,.6Z"/>
  </g>
  <g>
    <path class="cls-7" d="M67.6,160.66l-2.87,9.67h-2.2l-2.95-9.67h1.99l2.1,8.04,2.04-8.04h1.89Z"/>
    <path class="cls-7" d="M73.67,169.01c.09,.14,.23,.24,.43,.32l-.38,1.19c-.42-.04-.76-.14-1.03-.31s-.47-.42-.61-.77c-.25,.37-.57,.65-.94,.83s-.8,.27-1.27,.27c-.74,0-1.32-.21-1.75-.63-.43-.42-.64-.97-.64-1.65,0-.8,.29-1.42,.88-1.84,.58-.42,1.42-.64,2.5-.64h.92v-.42c0-.48-.11-.81-.33-1-.22-.19-.57-.29-1.06-.29-.54,0-1.2,.13-1.96,.39l-.42-1.22c.92-.35,1.82-.53,2.69-.53,1.89,0,2.84,.85,2.84,2.55v3.11c0,.29,.04,.5,.13,.64Zm-1.9-10.16l.73,1.4-3.16,1.26-.5-.91,2.94-1.75Zm0,9.48v-1.5h-.74c-1.16,0-1.74,.43-1.74,1.29,0,.35,.09,.63,.27,.83,.18,.2,.44,.29,.78,.29,.61,0,1.08-.3,1.43-.91Z"/>
    <path class="cls-7" d="M80,162.93c.39,.14,.75,.36,1.1,.66l-.8,1.08c-.25-.19-.5-.32-.73-.41-.23-.08-.49-.13-.77-.13-1.11,0-1.67,.84-1.67,2.53,0,.86,.14,1.48,.43,1.85,.29,.38,.7,.57,1.23,.57,.26,0,.5-.04,.72-.13,.22-.08,.48-.22,.78-.41l.8,1.13c-.7,.57-1.5,.85-2.39,.85-.71,0-1.33-.16-1.85-.47-.52-.31-.92-.76-1.2-1.34-.28-.58-.42-1.26-.42-2.04s.14-1.48,.42-2.08c.28-.6,.68-1.07,1.2-1.4,.52-.33,1.13-.5,1.83-.5,.49,0,.92,.07,1.31,.21Z"/>
    <path class="cls-7" d="M82.81,170.05c-.32-.33-.48-.8-.48-1.41v-8.68l1.79-.2v8.82c0,.35,.14,.52,.42,.52,.14,0,.28-.02,.42-.07l.38,1.26c-.37,.17-.77,.25-1.19,.25-.57,0-1.01-.17-1.34-.5Z"/>
    <path class="cls-7" d="M92.07,169.01c.09,.14,.23,.24,.43,.32l-.38,1.19c-.42-.04-.76-.14-1.03-.31s-.47-.42-.61-.77c-.25,.37-.57,.65-.94,.83s-.8,.27-1.27,.27c-.74,0-1.32-.21-1.75-.63-.43-.42-.64-.97-.64-1.65,0-.8,.29-1.42,.88-1.84,.58-.42,1.42-.64,2.5-.64h.92v-.42c0-.48-.11-.81-.33-1-.22-.19-.57-.29-1.06-.29-.54,0-1.2,.13-1.96,.39l-.42-1.22c.92-.35,1.82-.53,2.69-.53,1.89,0,2.84,.85,2.84,2.55v3.11c0,.29,.04,.5,.13,.64Zm-1.9-.68v-1.5h-.74c-1.16,0-1.74,.43-1.74,1.29,0,.35,.09,.63,.27,.83,.18,.2,.44,.29,.78,.29,.61,0,1.08-.3,1.43-.91Z"/>
    <path class="cls-7" d="M99.84,162.93l-2.41,7.41h-2.14l-2.45-7.41h1.95l1.58,5.96,1.62-5.96h1.85Z"/>
    <path class="cls-7" d="M106.35,160.66v9.67h-1.85v-9.67h1.85Zm5.43,0l-3.35,4.38,3.61,5.29h-2.2l-3.42-5.17,3.35-4.51h2Z"/>
    <path class="cls-7" d="M113.44,170.05c-.32-.33-.48-.8-.48-1.41v-8.68l1.79-.2v8.82c0,.35,.14,.52,.42,.52,.14,0,.28-.02,.42-.07l.38,1.26c-.37,.17-.77,.25-1.19,.25-.57,0-1.01-.17-1.34-.5Z"/>
    <path class="cls-7" d="M122.7,169.01c.09,.14,.23,.24,.43,.32l-.38,1.19c-.42-.04-.76-.14-1.03-.31s-.47-.42-.61-.77c-.25,.37-.57,.65-.94,.83s-.8,.27-1.27,.27c-.74,0-1.32-.21-1.75-.63-.43-.42-.64-.97-.64-1.65,0-.8,.29-1.42,.88-1.84,.58-.42,1.42-.64,2.5-.64h.92v-.42c0-.48-.11-.81-.33-1-.22-.19-.57-.29-1.06-.29-.54,0-1.2,.13-1.96,.39l-.42-1.22c.92-.35,1.82-.53,2.69-.53,1.89,0,2.84,.85,2.84,2.55v3.11c0,.29,.04,.5,.13,.64Zm-1.9-.68v-1.5h-.74c-1.16,0-1.74,.43-1.74,1.29,0,.35,.09,.63,.27,.83,.18,.2,.44,.29,.78,.29,.61,0,1.08-.3,1.43-.91Z"/>
    <path class="cls-7" d="M130.66,170.33h-1.55l-.1-1.04c-.27,.42-.59,.73-.96,.94-.37,.21-.8,.31-1.31,.31-.66,0-1.17-.2-1.53-.61-.36-.41-.54-.97-.54-1.69v-5.32h1.79v5.1c0,.42,.07,.72,.22,.9s.38,.27,.69,.27c.57,0,1.07-.35,1.5-1.05v-5.21h1.79v7.41Z"/>
    <path class="cls-7" d="M137.78,163.6l-.7,1.05c-.63-.4-1.25-.6-1.86-.6-.36,0-.63,.07-.83,.2s-.29,.31-.29,.54c0,.17,.04,.31,.13,.42s.24,.22,.46,.31c.22,.1,.54,.21,.97,.33,.8,.21,1.4,.5,1.79,.85,.39,.35,.58,.85,.58,1.48,0,.74-.3,1.31-.9,1.73-.6,.42-1.34,.62-2.23,.62-.61,0-1.16-.09-1.66-.28-.5-.19-.93-.44-1.29-.77l.9-1.01c.64,.49,1.32,.73,2.02,.73,.4,0,.72-.08,.96-.24s.36-.38,.36-.66c0-.21-.04-.38-.13-.51s-.25-.24-.48-.34c-.23-.1-.59-.22-1.07-.36-.76-.21-1.31-.49-1.67-.86s-.53-.83-.53-1.38c0-.41,.12-.78,.36-1.11s.57-.58,1.01-.77c.43-.19,.93-.28,1.49-.28,1,0,1.88,.29,2.63,.88Z"/>
  </g>
  <g>
    <path class="cls-7" d="M66.89,98.41l-2.87,9.67h-2.2l-2.95-9.67h1.99l2.1,8.04,2.04-8.04h1.89Z"/>
    <path class="cls-7" d="M72.95,106.76c.09,.14,.23,.24,.43,.32l-.38,1.19c-.42-.04-.76-.14-1.03-.31s-.47-.42-.61-.77c-.25,.37-.57,.65-.94,.83s-.8,.27-1.27,.27c-.74,0-1.32-.21-1.75-.63-.43-.42-.64-.97-.64-1.65,0-.8,.29-1.42,.88-1.84,.58-.42,1.42-.64,2.5-.64h.92v-.42c0-.48-.11-.81-.33-1-.22-.19-.57-.29-1.06-.29-.54,0-1.2,.13-1.96,.39l-.42-1.22c.92-.35,1.82-.53,2.69-.53,1.89,0,2.84,.85,2.84,2.55v3.11c0,.29,.04,.5,.13,.64Zm-1.9-10.16l.73,1.4-3.16,1.26-.5-.91,2.94-1.75Zm0,9.48v-1.5h-.74c-1.16,0-1.74,.43-1.74,1.29,0,.35,.09,.63,.27,.83,.18,.2,.44,.29,.78,.29,.61,0,1.08-.3,1.43-.91Z"/>
    <path class="cls-7" d="M79.28,100.68c.39,.14,.75,.36,1.1,.66l-.8,1.08c-.25-.19-.5-.32-.73-.41-.23-.08-.49-.13-.77-.13-1.11,0-1.67,.84-1.67,2.53,0,.86,.14,1.48,.43,1.85,.29,.38,.7,.57,1.23,.57,.26,0,.5-.04,.72-.13,.22-.08,.48-.22,.78-.41l.8,1.13c-.7,.57-1.5,.85-2.39,.85-.71,0-1.33-.16-1.85-.47-.52-.31-.92-.76-1.2-1.34-.28-.58-.42-1.26-.42-2.04s.14-1.48,.42-2.08c.28-.6,.68-1.07,1.2-1.4,.52-.33,1.13-.5,1.83-.5,.49,0,.92,.07,1.31,.21Z"/>
    <path class="cls-7" d="M82.1,107.8c-.32-.33-.48-.8-.48-1.41v-8.68l1.79-.2v8.82c0,.35,.14,.52,.42,.52,.14,0,.28-.02,.42-.07l.38,1.26c-.37,.17-.77,.25-1.19,.25-.57,0-1.01-.17-1.34-.5Z"/>
    <path class="cls-7" d="M91.35,106.76c.09,.14,.23,.24,.43,.32l-.38,1.19c-.42-.04-.76-.14-1.03-.31s-.47-.42-.61-.77c-.25,.37-.57,.65-.94,.83s-.8,.27-1.27,.27c-.74,0-1.32-.21-1.75-.63-.43-.42-.64-.97-.64-1.65,0-.8,.29-1.42,.88-1.84,.58-.42,1.42-.64,2.5-.64h.92v-.42c0-.48-.11-.81-.33-1-.22-.19-.57-.29-1.06-.29-.54,0-1.2,.13-1.96,.39l-.42-1.22c.92-.35,1.82-.53,2.69-.53,1.89,0,2.84,.85,2.84,2.55v3.11c0,.29,.04,.5,.13,.64Zm-1.9-.68v-1.5h-.74c-1.16,0-1.74,.43-1.74,1.29,0,.35,.09,.63,.27,.83,.18,.2,.44,.29,.78,.29,.61,0,1.08-.3,1.43-.91Z"/>
    <path class="cls-7" d="M99.13,100.68l-2.41,7.41h-2.14l-2.45-7.41h1.95l1.58,5.96,1.62-5.96h1.85Z"/>
    <path class="cls-7" d="M109.08,108.09v-4.33h-3.44v4.33h-1.85v-9.67h1.85v3.88h3.44v-3.88h1.86v9.67h-1.86Z"/>
    <path class="cls-7" d="M118.75,106.76c.09,.14,.23,.24,.43,.32l-.38,1.19c-.42-.04-.76-.14-1.03-.31s-.47-.42-.61-.77c-.25,.37-.57,.65-.94,.83s-.8,.27-1.27,.27c-.74,0-1.32-.21-1.75-.63-.43-.42-.64-.97-.64-1.65,0-.8,.29-1.42,.88-1.84,.58-.42,1.42-.64,2.5-.64h.92v-.42c0-.48-.11-.81-.33-1-.22-.19-.57-.29-1.06-.29-.54,0-1.2,.13-1.96,.39l-.42-1.22c.92-.35,1.82-.53,2.69-.53,1.89,0,2.84,.85,2.84,2.55v3.11c0,.29,.04,.5,.13,.64Zm-1.9-.68v-1.5h-.74c-1.16,0-1.74,.43-1.74,1.29,0,.35,.09,.63,.27,.83,.18,.2,.44,.29,.78,.29,.61,0,1.08-.3,1.43-.91Z"/>
    <path class="cls-7" d="M126.53,100.68l-2.41,7.41h-2.14l-2.45-7.41h1.95l1.58,5.96,1.62-5.96h1.85Z"/>
    <path class="cls-7" d="M133.58,104.94h-4.65c.06,.72,.24,1.23,.56,1.54,.32,.31,.74,.46,1.26,.46,.33,0,.63-.05,.92-.16,.29-.11,.6-.27,.92-.5l.74,1.02c-.82,.66-1.74,.99-2.74,.99-1.13,0-2-.35-2.61-1.04-.61-.69-.92-1.63-.92-2.83,0-.76,.13-1.44,.39-2.04,.26-.6,.64-1.07,1.13-1.41s1.08-.51,1.76-.51c1.04,0,1.84,.33,2.41,.99,.57,.66,.85,1.57,.85,2.75,0,.09-.01,.34-.04,.73Zm-1.74-1.25c0-1.3-.48-1.95-1.44-1.95-.44,0-.78,.16-1.03,.48-.25,.32-.39,.84-.44,1.55h2.91v-.08Z"/>
    <path class="cls-7" d="M135.65,107.8c-.32-.33-.48-.8-.48-1.41v-8.68l1.79-.2v8.82c0,.35,.14,.52,.42,.52,.14,0,.28-.02,.42-.07l.38,1.26c-.37,.17-.77,.25-1.19,.25-.57,0-1.01-.17-1.34-.5Z"/>
  </g>
  <g>
    <path class="cls-7" d="M50.28,225.8c.36,.18,.63,.43,.82,.74,.19,.31,.28,.65,.28,1.02,0,.49-.14,.89-.43,1.21-.28,.32-.66,.53-1.13,.64,.54,.05,.97,.24,1.31,.58s.5,.79,.5,1.37c0,.46-.11,.88-.34,1.26-.22,.38-.54,.67-.96,.88s-.9,.32-1.44,.32c-.49,0-.94-.09-1.34-.27s-.76-.45-1.07-.81l.66-.61c.26,.27,.53,.47,.81,.6,.28,.13,.58,.19,.91,.19,.5,0,.9-.14,1.19-.43,.29-.28,.43-.67,.43-1.15,0-.53-.14-.9-.41-1.12-.27-.22-.67-.32-1.19-.32h-.6l.13-.85h.41c.42,0,.76-.12,1.04-.37,.28-.25,.41-.6,.41-1.04,0-.38-.12-.67-.36-.89-.24-.22-.56-.33-.97-.33-.31,0-.6,.06-.86,.17-.26,.11-.53,.3-.8,.55l-.58-.66c.68-.63,1.44-.95,2.29-.95,.5,0,.92,.09,1.28,.28Z"/>
    <path class="cls-7" d="M55.87,225.64v8.03h-1.1v-6.85l-1.87,1.14-.48-.78,2.48-1.54h.97Z"/>
    <path class="cls-7" d="M61.17,225.8c.36,.18,.63,.43,.82,.74,.19,.31,.28,.65,.28,1.02,0,.49-.14,.89-.43,1.21-.28,.32-.66,.53-1.13,.64,.54,.05,.97,.24,1.31,.58s.5,.79,.5,1.37c0,.46-.11,.88-.34,1.26-.22,.38-.54,.67-.96,.88s-.9,.32-1.44,.32c-.49,0-.94-.09-1.34-.27s-.76-.45-1.07-.81l.66-.61c.26,.27,.53,.47,.81,.6,.28,.13,.58,.19,.91,.19,.5,0,.9-.14,1.19-.43,.29-.28,.43-.67,.43-1.15,0-.53-.14-.9-.41-1.12-.27-.22-.67-.32-1.19-.32h-.6l.13-.85h.41c.42,0,.76-.12,1.04-.37,.28-.25,.41-.6,.41-1.04,0-.38-.12-.67-.36-.89-.24-.22-.56-.33-.97-.33-.31,0-.6,.06-.86,.17-.26,.11-.53,.3-.8,.55l-.58-.66c.68-.63,1.44-.95,2.29-.95,.5,0,.92,.09,1.28,.28Z"/>
    <path class="cls-7" d="M72.14,227.35l-2.15,6.32h-1.33l-2.18-6.32h1.2l1.66,5.34,1.64-5.34h1.16Z"/>
    <path class="cls-7" d="M75.93,233.71c-.25,.74-.59,1.32-1.04,1.75-.44,.43-1.08,.69-1.9,.77l-.12-.86c.42-.07,.75-.18,1-.31,.25-.14,.45-.31,.59-.52,.15-.21,.29-.5,.41-.86h-.37l-2.12-6.32h1.18l1.69,5.52,1.66-5.52h1.14l-2.11,6.36Z"/>
    <path class="cls-7" d="M83.01,227.35v.84l-3.3,4.56h3.34l-.13,.92h-4.45v-.83l3.29-4.56h-3.01v-.94h4.27Z"/>
    <path class="cls-7" d="M88.87,227.72c.32,.34,.49,.82,.49,1.42v4.54h-1.1v-4.38c0-.45-.08-.76-.25-.95-.17-.18-.42-.28-.74-.28s-.63,.1-.89,.29-.5,.47-.72,.83v4.49h-1.1v-6.32h.95l.1,.94c.22-.34,.5-.6,.83-.79,.33-.19,.7-.29,1.1-.29,.58,0,1.03,.17,1.35,.52Z"/>
    <path class="cls-7" d="M95.97,232.77c.09,.12,.22,.22,.4,.28l-.25,.77c-.33-.04-.59-.13-.79-.28s-.35-.37-.44-.67c-.42,.63-1.05,.95-1.88,.95-.62,0-1.12-.18-1.48-.53s-.54-.81-.54-1.38c0-.67,.24-1.19,.73-1.55,.48-.36,1.17-.54,2.06-.54h.97v-.47c0-.45-.11-.77-.32-.96-.22-.19-.55-.29-1-.29s-1.03,.11-1.7,.34l-.28-.8c.78-.29,1.51-.43,2.18-.43,.74,0,1.3,.18,1.67,.55,.37,.36,.55,.88,.55,1.55v2.89c0,.26,.04,.45,.13,.57Zm-1.24-.76v-1.45h-.83c-1.17,0-1.75,.43-1.75,1.3,0,.38,.09,.66,.28,.85,.18,.19,.46,.29,.82,.29,.63,0,1.13-.33,1.49-.98Z"/>
    <path class="cls-7" d="M105.7,227.73c.31,.35,.47,.82,.47,1.41v4.54h-1.1v-4.38c0-.82-.3-1.22-.89-1.22-.31,0-.58,.09-.79,.27s-.45,.46-.7,.85v4.49h-1.1v-4.38c0-.82-.3-1.22-.89-1.22-.32,0-.59,.09-.8,.28-.22,.18-.44,.46-.68,.84v4.49h-1.1v-6.32h.95l.1,.92c.47-.71,1.08-1.07,1.82-1.07,.39,0,.73,.1,1,.3,.28,.2,.47,.48,.59,.84,.25-.37,.52-.65,.82-.85,.3-.2,.65-.29,1.06-.29,.52,0,.94,.17,1.25,.52Z"/>
    <path class="cls-7" d="M113.14,230.89h-4.03c.05,.7,.22,1.21,.53,1.54,.3,.33,.7,.49,1.18,.49,.3,0,.58-.04,.84-.13,.26-.09,.52-.23,.8-.42l.48,.66c-.67,.53-1.41,.79-2.21,.79-.88,0-1.57-.29-2.06-.86-.49-.58-.74-1.37-.74-2.38,0-.66,.11-1.24,.32-1.75,.21-.51,.52-.91,.91-1.19,.4-.29,.86-.43,1.4-.43,.84,0,1.48,.28,1.93,.83,.45,.55,.67,1.32,.67,2.29,0,.18,0,.37-.02,.56Zm-1.07-.89c0-.62-.12-1.1-.37-1.43-.25-.33-.62-.49-1.12-.49-.9,0-1.4,.66-1.48,1.99h2.96v-.07Z"/>
    <path class="cls-7" d="M119.26,227.72c.32,.34,.49,.82,.49,1.42v4.54h-1.1v-4.38c0-.45-.08-.76-.25-.95-.17-.18-.42-.28-.74-.28s-.63,.1-.89,.29-.5,.47-.72,.83v4.49h-1.1v-6.32h.95l.1,.94c.22-.34,.5-.6,.83-.79,.33-.19,.7-.29,1.1-.29,.58,0,1.03,.17,1.35,.52Z"/>
    <path class="cls-7" d="M126.36,232.77c.09,.12,.22,.22,.4,.28l-.25,.77c-.33-.04-.59-.13-.79-.28s-.35-.37-.44-.67c-.42,.63-1.05,.95-1.88,.95-.62,0-1.12-.18-1.48-.53s-.54-.81-.54-1.38c0-.67,.24-1.19,.73-1.55,.48-.36,1.17-.54,2.06-.54h.97v-.47c0-.45-.11-.77-.32-.96-.22-.19-.55-.29-1-.29s-1.03,.11-1.7,.34l-.28-.8c.78-.29,1.51-.43,2.18-.43,.74,0,1.3,.18,1.67,.55,.37,.36,.55,.88,.55,1.55v2.89c0,.26,.04,.45,.13,.57Zm-1.45-8.71l.49,.92-2.54,1.03-.34-.59,2.39-1.37Zm.22,7.94v-1.45h-.83c-1.17,0-1.75,.43-1.75,1.3,0,.38,.09,.66,.28,.85,.18,.19,.46,.29,.82,.29,.63,0,1.13-.33,1.49-.98Z"/>
    <path class="cls-7" d="M132.82,227.72c.32,.34,.49,.82,.49,1.42v4.54h-1.1v-4.38c0-.45-.08-.76-.25-.95-.17-.18-.42-.28-.74-.28s-.63,.1-.89,.29-.5,.47-.72,.83v4.49h-1.1v-6.32h.95l.1,.94c.22-.34,.5-.6,.83-.79,.33-.19,.7-.29,1.1-.29,.58,0,1.03,.17,1.35,.52Z"/>
    <path class="cls-7" d="M137.02,224.06l.49,.92-2.54,1.03-.34-.59,2.39-1.37Zm-.4,3.29v6.32h-1.1v-6.32h1.1Z"/>
  </g>
  <g>
    <path class="cls-7" d="M50.44,179.4c.36,.19,.65,.45,.85,.79,.2,.33,.3,.71,.3,1.12,0,.49-.11,.96-.33,1.4-.22,.45-.56,.93-1.01,1.45-.46,.52-1.15,1.24-2.08,2.17h3.61l-.13,.92h-4.74v-.88c1.07-1.11,1.83-1.93,2.28-2.44s.77-.97,.96-1.35,.29-.8,.29-1.24c0-.42-.12-.74-.36-.98-.24-.24-.56-.35-.96-.35-.33,0-.62,.07-.86,.2-.25,.14-.51,.36-.79,.67l-.72-.58c.33-.41,.69-.71,1.09-.91,.4-.2,.85-.3,1.34-.3s.9,.1,1.27,.29Z"/>
    <path class="cls-7" d="M57.19,182.27c.34,.19,.6,.48,.8,.86,.2,.38,.3,.85,.3,1.4s-.11,1.07-.34,1.51c-.23,.44-.54,.77-.92,1.01-.39,.24-.82,.35-1.29,.35-.94,0-1.62-.35-2.05-1.04-.43-.69-.65-1.65-.65-2.87,0-.87,.12-1.64,.37-2.3,.24-.66,.59-1.17,1.05-1.54,.46-.36,1-.55,1.62-.55s1.16,.16,1.66,.49l-.43,.73c-.38-.23-.79-.35-1.24-.35-.58,0-1.03,.28-1.37,.83-.34,.55-.52,1.29-.55,2.22,.5-.7,1.14-1.06,1.93-1.06,.41,0,.78,.1,1.12,.29Zm-.38,3.73c.25-.35,.37-.83,.37-1.43,0-1.14-.43-1.72-1.3-1.72-.35,0-.68,.1-.97,.29-.3,.2-.55,.47-.76,.81,.02,.88,.16,1.53,.41,1.94s.64,.62,1.17,.62c.46,0,.82-.18,1.07-.53Z"/>
    <path class="cls-7" d="M63.45,179.24v.83l-3,7.32-1.01-.34,2.89-6.91h-3.55v-.9h4.67Z"/>
    <path class="cls-7" d="M72.77,180.94l-2.15,6.32h-1.33l-2.18-6.32h1.2l1.66,5.34,1.64-5.34h1.16Z"/>
    <path class="cls-7" d="M76.56,187.3c-.25,.74-.59,1.32-1.04,1.75-.44,.43-1.08,.69-1.9,.77l-.12-.86c.42-.07,.75-.18,1-.31,.25-.14,.45-.31,.59-.52,.15-.21,.29-.5,.41-.86h-.37l-2.12-6.32h1.18l1.69,5.52,1.66-5.52h1.14l-2.11,6.36Z"/>
    <path class="cls-7" d="M83.64,180.94v.84l-3.3,4.56h3.34l-.13,.92h-4.45v-.83l3.29-4.56h-3.01v-.94h4.27Z"/>
    <path class="cls-7" d="M89.5,181.31c.32,.34,.49,.82,.49,1.42v4.54h-1.1v-4.38c0-.45-.08-.76-.25-.95-.17-.18-.42-.28-.74-.28s-.63,.1-.89,.29-.5,.47-.72,.83v4.49h-1.1v-6.32h.95l.1,.94c.22-.34,.5-.6,.83-.79,.33-.19,.7-.29,1.1-.29,.58,0,1.03,.17,1.35,.52Z"/>
    <path class="cls-7" d="M96.6,186.36c.09,.12,.22,.22,.4,.28l-.25,.77c-.33-.04-.59-.13-.79-.28s-.35-.37-.44-.67c-.42,.63-1.05,.95-1.88,.95-.62,0-1.12-.18-1.48-.53s-.54-.81-.54-1.38c0-.67,.24-1.19,.73-1.55,.48-.36,1.17-.54,2.06-.54h.97v-.47c0-.45-.11-.77-.32-.96-.22-.19-.55-.29-1-.29s-1.03,.11-1.7,.34l-.28-.8c.78-.29,1.51-.43,2.18-.43,.74,0,1.3,.18,1.67,.55,.37,.36,.55,.88,.55,1.55v2.89c0,.26,.04,.45,.13,.57Zm-1.24-.76v-1.45h-.83c-1.17,0-1.75,.43-1.75,1.3,0,.38,.09,.66,.28,.85,.18,.19,.46,.29,.82,.29,.63,0,1.13-.33,1.49-.98Z"/>
    <path class="cls-7" d="M106.33,181.32c.31,.35,.47,.82,.47,1.41v4.54h-1.1v-4.38c0-.82-.3-1.22-.89-1.22-.31,0-.58,.09-.79,.27s-.45,.46-.7,.85v4.49h-1.1v-4.38c0-.82-.3-1.22-.89-1.22-.32,0-.59,.09-.8,.28-.22,.18-.44,.46-.68,.84v4.49h-1.1v-6.32h.95l.1,.92c.47-.71,1.08-1.07,1.82-1.07,.39,0,.73,.1,1,.3,.28,.2,.47,.48,.59,.84,.25-.37,.52-.65,.82-.85,.3-.2,.65-.29,1.06-.29,.52,0,.94,.17,1.25,.52Z"/>
    <path class="cls-7" d="M113.77,184.48h-4.03c.05,.7,.22,1.21,.53,1.54,.3,.33,.7,.49,1.18,.49,.3,0,.58-.04,.84-.13,.26-.09,.52-.23,.8-.42l.48,.66c-.67,.53-1.41,.79-2.21,.79-.88,0-1.57-.29-2.06-.86-.49-.58-.74-1.37-.74-2.38,0-.66,.11-1.24,.32-1.75,.21-.51,.52-.91,.91-1.19,.4-.29,.86-.43,1.4-.43,.84,0,1.48,.28,1.93,.83,.45,.55,.67,1.32,.67,2.29,0,.18,0,.37-.02,.56Zm-1.07-.89c0-.62-.12-1.1-.37-1.43-.25-.33-.62-.49-1.12-.49-.9,0-1.4,.66-1.48,1.99h2.96v-.07Z"/>
    <path class="cls-7" d="M119.89,181.31c.32,.34,.49,.82,.49,1.42v4.54h-1.1v-4.38c0-.45-.08-.76-.25-.95-.17-.18-.42-.28-.74-.28s-.63,.1-.89,.29-.5,.47-.72,.83v4.49h-1.1v-6.32h.95l.1,.94c.22-.34,.5-.6,.83-.79,.33-.19,.7-.29,1.1-.29,.58,0,1.03,.17,1.35,.52Z"/>
    <path class="cls-7" d="M126.99,186.36c.09,.12,.22,.22,.4,.28l-.25,.77c-.33-.04-.59-.13-.79-.28s-.35-.37-.44-.67c-.42,.63-1.05,.95-1.88,.95-.62,0-1.12-.18-1.48-.53s-.54-.81-.54-1.38c0-.67,.24-1.19,.73-1.55,.48-.36,1.17-.54,2.06-.54h.97v-.47c0-.45-.11-.77-.32-.96-.22-.19-.55-.29-1-.29s-1.03,.11-1.7,.34l-.28-.8c.78-.29,1.51-.43,2.18-.43,.74,0,1.3,.18,1.67,.55,.37,.36,.55,.88,.55,1.55v2.89c0,.26,.04,.45,.13,.57Zm-1.45-8.71l.49,.92-2.54,1.03-.34-.59,2.39-1.37Zm.22,7.94v-1.45h-.83c-1.17,0-1.75,.43-1.75,1.3,0,.38,.09,.66,.28,.85,.18,.19,.46,.29,.82,.29,.63,0,1.13-.33,1.49-.98Z"/>
    <path class="cls-7" d="M133.45,181.31c.32,.34,.49,.82,.49,1.42v4.54h-1.1v-4.38c0-.45-.08-.76-.25-.95-.17-.18-.42-.28-.74-.28s-.63,.1-.89,.29-.5,.47-.72,.83v4.49h-1.1v-6.32h.95l.1,.94c.22-.34,.5-.6,.83-.79,.33-.19,.7-.29,1.1-.29,.58,0,1.03,.17,1.35,.52Z"/>
    <path class="cls-7" d="M137.65,177.65l.49,.92-2.54,1.03-.34-.59,2.39-1.37Zm-.4,3.29v6.32h-1.1v-6.32h1.1Z"/>
  </g>
  <g>
    <path class="cls-7" d="M71.42,125.02h-.95l-.08-.98c-.24,.39-.52,.68-.83,.86-.31,.18-.69,.27-1.14,.27-.55,0-.98-.17-1.3-.5-.31-.34-.47-.81-.47-1.43v-4.54h1.1v4.42c0,.43,.08,.74,.23,.92,.15,.18,.4,.27,.74,.27,.62,0,1.14-.36,1.58-1.09v-4.51h1.1v6.32Z"/>
    <path class="cls-7" d="M78.6,116.15v8.87h-.97l-.11-.88c-.21,.32-.47,.57-.78,.75-.31,.18-.66,.27-1.04,.27-.75,0-1.34-.3-1.76-.89-.42-.59-.63-1.39-.63-2.39,0-.65,.1-1.22,.3-1.73s.49-.9,.86-1.18c.38-.28,.82-.43,1.32-.43,.65,0,1.22,.26,1.7,.78v-3.31l1.1,.13Zm-1.8,7.9c.24-.16,.47-.39,.7-.7v-3.1c-.21-.27-.43-.48-.67-.62-.24-.14-.5-.21-.8-.21-.49,0-.87,.2-1.13,.61-.27,.41-.4,1.02-.4,1.82s.12,1.42,.37,1.82c.25,.4,.6,.6,1.07,.6,.34,0,.62-.08,.86-.23Z"/>
    <path class="cls-7" d="M85.63,122.23h-4.03c.05,.7,.22,1.21,.53,1.54,.3,.33,.7,.49,1.18,.49,.3,0,.58-.04,.84-.13,.26-.09,.52-.23,.8-.42l.48,.66c-.67,.53-1.41,.79-2.21,.79-.88,0-1.57-.29-2.06-.86s-.74-1.37-.74-2.38c0-.66,.11-1.24,.32-1.75s.52-.91,.91-1.19c.4-.29,.86-.43,1.4-.43,.84,0,1.48,.28,1.93,.83s.67,1.32,.67,2.29c0,.18,0,.37-.02,.56Zm-1.02-6.64l.47,.54-1.62,1.36h-.73l-1.63-1.36,.48-.54,1.51,1.01,1.52-1.01Zm-.05,5.75c0-.62-.12-1.1-.37-1.43s-.62-.49-1.12-.49c-.9,0-1.4,.66-1.48,1.99h2.96v-.07Z"/>
    <path class="cls-7" d="M87.71,124.8c-.24-.24-.35-.59-.35-1.03v-7.62l1.1-.13v7.73c0,.18,.03,.3,.09,.38,.06,.08,.16,.12,.31,.12s.29-.02,.41-.07l.29,.77c-.26,.14-.56,.22-.88,.22-.41,0-.73-.12-.97-.37Z"/>
    <path class="cls-7" d="M92.04,115.87c.14,.14,.22,.32,.22,.54s-.07,.39-.22,.53c-.14,.14-.33,.21-.56,.21s-.41-.07-.55-.21c-.14-.14-.22-.32-.22-.53s.07-.4,.22-.54,.33-.22,.55-.22,.42,.07,.56,.22Zm0,2.82v6.32h-1.1v-6.32h1.1Z"/>
    <path class="cls-7" d="M94.61,124.8c-.24-.24-.35-.59-.35-1.03v-7.62l1.1-.13v7.73c0,.18,.03,.3,.09,.38,.06,.08,.16,.12,.31,.12s.29-.02,.41-.07l.29,.77c-.26,.14-.56,.22-.88,.22-.41,0-.73-.12-.97-.37Z"/>
    <path class="cls-7" d="M104.35,118.71c.31,.11,.61,.28,.9,.52l-.53,.7c-.22-.16-.44-.28-.65-.35s-.45-.11-.7-.11c-.51,0-.91,.2-1.19,.61-.28,.41-.43,1.01-.43,1.81s.14,1.39,.42,1.77,.68,.57,1.2,.57c.25,0,.48-.04,.68-.11,.21-.08,.44-.2,.7-.37l.5,.72c-.58,.46-1.22,.7-1.93,.7-.86,0-1.53-.29-2.02-.86s-.74-1.37-.74-2.39c0-.67,.11-1.26,.34-1.76,.22-.5,.54-.9,.95-1.18s.9-.42,1.47-.42c.38,0,.72,.05,1.03,.16Z"/>
    <path class="cls-7" d="M111.26,122.23h-4.03c.05,.7,.22,1.21,.53,1.54,.3,.33,.7,.49,1.18,.49,.3,0,.58-.04,.84-.13,.26-.09,.52-.23,.8-.42l.48,.66c-.67,.53-1.41,.79-2.21,.79-.88,0-1.57-.29-2.06-.86s-.74-1.37-.74-2.38c0-.66,.11-1.24,.32-1.75s.52-.91,.91-1.19c.4-.29,.86-.43,1.4-.43,.84,0,1.48,.28,1.93,.83s.67,1.32,.67,2.29c0,.18,0,.37-.02,.56Zm-1.07-.89c0-.62-.12-1.1-.37-1.43s-.62-.49-1.12-.49c-.9,0-1.4,.66-1.48,1.99h2.96v-.07Z"/>
    <path class="cls-7" d="M113.34,124.8c-.24-.24-.35-.59-.35-1.03v-7.62l1.1-.13v7.73c0,.18,.03,.3,.09,.38,.06,.08,.16,.12,.31,.12s.29-.02,.41-.07l.29,.77c-.26,.14-.56,.22-.88,.22-.41,0-.73-.12-.97-.37Z"/>
    <path class="cls-7" d="M117.67,116.02v9h-1.1v-8.87l1.1-.13Zm3.64,2.68l-2.33,2.8,2.59,3.53h-1.32l-2.51-3.46,2.33-2.87h1.24Z"/>
    <path class="cls-7" d="M127.35,122.23h-4.03c.05,.7,.22,1.21,.53,1.54,.3,.33,.7,.49,1.18,.49,.3,0,.58-.04,.84-.13,.26-.09,.52-.23,.8-.42l.48,.66c-.67,.53-1.41,.79-2.21,.79-.88,0-1.57-.29-2.06-.86s-.74-1.37-.74-2.38c0-.66,.11-1.24,.32-1.75s.52-.91,.91-1.19c.4-.29,.86-.43,1.4-.43,.84,0,1.48,.28,1.93,.83s.67,1.32,.67,2.29c0,.18,0,.37-.02,.56Zm-1.07-.89c0-.62-.12-1.1-.37-1.43s-.62-.49-1.12-.49c-.9,0-1.4,.66-1.48,1.99h2.96v-.07Z"/>
    <path class="cls-7" d="M136.74,119.07c.31,.35,.47,.82,.47,1.41v4.54h-1.1v-4.38c0-.82-.3-1.22-.89-1.22-.31,0-.58,.09-.79,.27-.22,.18-.45,.46-.7,.85v4.49h-1.1v-4.38c0-.82-.3-1.22-.89-1.22-.32,0-.59,.09-.8,.28-.22,.18-.44,.46-.68,.84v4.49h-1.1v-6.32h.95l.1,.92c.47-.71,1.08-1.07,1.82-1.07,.39,0,.73,.1,1,.3,.28,.2,.47,.48,.59,.84,.25-.37,.52-.65,.82-.85s.65-.29,1.06-.29c.52,0,.94,.17,1.25,.52Z"/>
    <path class="cls-7" d="M49.33,132.25h-3.13v2.36c.41-.21,.84-.31,1.28-.31,.69,0,1.24,.23,1.66,.68,.42,.45,.62,1.07,.62,1.87,0,.53-.12,1-.35,1.41-.23,.41-.56,.73-.98,.96-.42,.23-.91,.34-1.46,.34-.49,0-.92-.09-1.31-.26s-.74-.43-1.07-.76l.65-.64c.26,.26,.52,.45,.79,.57,.27,.12,.58,.19,.92,.19,.51,0,.91-.16,1.21-.48,.29-.32,.44-.77,.44-1.36s-.13-1.01-.4-1.27c-.26-.26-.62-.4-1.07-.4-.21,0-.4,.02-.58,.07-.18,.04-.36,.11-.56,.21h-.86v-4.04h4.34l-.16,.86Z"/>
    <path class="cls-7" d="M55.66,132.33c.45,.71,.68,1.73,.68,3.08s-.23,2.37-.68,3.08c-.45,.71-1.12,1.07-2.01,1.07s-1.56-.36-2.01-1.07-.68-1.74-.68-3.08,.23-2.37,.68-3.08,1.12-1.06,2.01-1.06,1.56,.35,2.01,1.06Zm-3.17,.58c-.25,.51-.38,1.34-.38,2.5s.13,1.99,.38,2.5c.25,.52,.64,.77,1.16,.77s.9-.26,1.15-.77c.26-.52,.38-1.35,.38-2.5s-.13-1.97-.38-2.49c-.26-.52-.64-.77-1.15-.77s-.91,.26-1.16,.77Z"/>
    <path class="cls-7" d="M62.36,132.33c.45,.71,.68,1.73,.68,3.08s-.23,2.37-.68,3.08c-.45,.71-1.12,1.07-2.01,1.07s-1.56-.36-2.01-1.07-.68-1.74-.68-3.08,.23-2.37,.68-3.08,1.12-1.06,2.01-1.06,1.56,.35,2.01,1.06Zm-3.17,.58c-.25,.51-.38,1.34-.38,2.5s.13,1.99,.38,2.5c.25,.52,.64,.77,1.16,.77s.9-.26,1.15-.77c.26-.52,.38-1.35,.38-2.5s-.13-1.97-.38-2.49c-.26-.52-.64-.77-1.15-.77s-.91,.26-1.16,.77Z"/>
    <path class="cls-7" d="M72.66,133.09l-2.15,6.32h-1.33l-2.18-6.32h1.2l1.66,5.34,1.64-5.34h1.16Z"/>
    <path class="cls-7" d="M76.45,139.45c-.25,.74-.59,1.32-1.04,1.75-.44,.43-1.08,.69-1.9,.77l-.12-.86c.42-.07,.75-.18,1-.31,.25-.14,.45-.31,.59-.52,.15-.21,.29-.5,.41-.86h-.37l-2.12-6.32h1.18l1.69,5.52,1.66-5.52h1.14l-2.11,6.36Z"/>
    <path class="cls-7" d="M83.53,133.09v.84l-3.3,4.56h3.34l-.13,.92h-4.45v-.83l3.29-4.56h-3.01v-.94h4.27Z"/>
    <path class="cls-7" d="M89.39,133.47c.32,.34,.49,.82,.49,1.42v4.54h-1.1v-4.38c0-.45-.08-.76-.25-.95s-.42-.28-.74-.28-.63,.1-.89,.29c-.26,.19-.5,.47-.72,.83v4.49h-1.1v-6.32h.95l.1,.94c.22-.34,.5-.6,.83-.79,.33-.19,.7-.29,1.1-.29,.58,0,1.03,.17,1.35,.52Z"/>
    <path class="cls-7" d="M96.49,138.51c.09,.12,.22,.22,.4,.28l-.25,.77c-.33-.04-.59-.13-.79-.28-.2-.14-.35-.37-.44-.67-.42,.63-1.05,.95-1.88,.95-.62,0-1.12-.18-1.48-.53-.36-.35-.54-.81-.54-1.38,0-.67,.24-1.19,.73-1.55,.48-.36,1.17-.54,2.06-.54h.97v-.47c0-.45-.11-.77-.32-.96-.22-.19-.55-.29-1-.29s-1.03,.11-1.7,.34l-.28-.8c.78-.29,1.51-.43,2.18-.43,.74,0,1.3,.18,1.67,.55,.37,.36,.55,.88,.55,1.55v2.89c0,.26,.04,.45,.13,.57Zm-1.24-.76v-1.45h-.83c-1.17,0-1.75,.43-1.75,1.3,0,.38,.09,.66,.28,.85,.18,.19,.46,.29,.82,.29,.63,0,1.13-.33,1.49-.98Z"/>
    <path class="cls-7" d="M106.22,133.47c.31,.35,.47,.82,.47,1.41v4.54h-1.1v-4.38c0-.82-.3-1.22-.89-1.22-.31,0-.58,.09-.79,.27-.22,.18-.45,.46-.7,.85v4.49h-1.1v-4.38c0-.82-.3-1.22-.89-1.22-.32,0-.59,.09-.8,.28s-.44,.46-.68,.84v4.49h-1.1v-6.32h.95l.1,.92c.47-.71,1.08-1.07,1.82-1.07,.39,0,.73,.1,1,.3,.28,.2,.47,.48,.59,.84,.25-.37,.52-.65,.82-.85,.3-.2,.65-.29,1.06-.29,.52,0,.94,.17,1.25,.52Z"/>
    <path class="cls-7" d="M113.66,136.63h-4.03c.05,.7,.22,1.21,.53,1.54,.3,.33,.7,.49,1.18,.49,.3,0,.58-.04,.84-.13,.26-.09,.52-.23,.8-.42l.48,.66c-.67,.53-1.41,.79-2.21,.79-.88,0-1.57-.29-2.06-.86-.49-.58-.74-1.37-.74-2.38,0-.66,.11-1.24,.32-1.75,.21-.51,.52-.91,.91-1.19,.4-.29,.86-.43,1.4-.43,.84,0,1.48,.28,1.93,.83,.45,.55,.67,1.32,.67,2.29,0,.18,0,.37-.02,.56Zm-1.07-.89c0-.62-.12-1.1-.37-1.43-.25-.33-.62-.49-1.12-.49-.9,0-1.4,.66-1.48,1.99h2.96v-.07Z"/>
    <path class="cls-7" d="M119.78,133.47c.32,.34,.49,.82,.49,1.42v4.54h-1.1v-4.38c0-.45-.08-.76-.25-.95s-.42-.28-.74-.28-.63,.1-.89,.29c-.26,.19-.5,.47-.72,.83v4.49h-1.1v-6.32h.95l.1,.94c.22-.34,.5-.6,.83-.79,.33-.19,.7-.29,1.1-.29,.58,0,1.03,.17,1.35,.52Z"/>
    <path class="cls-7" d="M126.87,138.51c.09,.12,.22,.22,.4,.28l-.25,.77c-.33-.04-.59-.13-.79-.28-.2-.14-.35-.37-.44-.67-.42,.63-1.05,.95-1.88,.95-.62,0-1.12-.18-1.48-.53-.36-.35-.54-.81-.54-1.38,0-.67,.24-1.19,.73-1.55,.48-.36,1.17-.54,2.06-.54h.97v-.47c0-.45-.11-.77-.32-.96-.22-.19-.55-.29-1-.29s-1.03,.11-1.7,.34l-.28-.8c.78-.29,1.51-.43,2.18-.43,.74,0,1.3,.18,1.67,.55,.37,.36,.55,.88,.55,1.55v2.89c0,.26,.04,.45,.13,.57Zm-1.45-8.71l.49,.92-2.54,1.03-.34-.59,2.39-1.37Zm.22,7.94v-1.45h-.83c-1.17,0-1.75,.43-1.75,1.3,0,.38,.09,.66,.28,.85,.18,.19,.46,.29,.82,.29,.63,0,1.13-.33,1.49-.98Z"/>
    <path class="cls-7" d="M133.33,133.47c.32,.34,.49,.82,.49,1.42v4.54h-1.1v-4.38c0-.45-.08-.76-.25-.95s-.42-.28-.74-.28-.63,.1-.89,.29c-.26,.19-.5,.47-.72,.83v4.49h-1.1v-6.32h.95l.1,.94c.22-.34,.5-.6,.83-.79,.33-.19,.7-.29,1.1-.29,.58,0,1.03,.17,1.35,.52Z"/>
    <path class="cls-7" d="M137.54,129.81l.49,.92-2.54,1.03-.34-.59,2.39-1.37Zm-.4,3.29v6.32h-1.1v-6.32h1.1Z"/>
  </g>
  <g class="cls-10">
    <path d="M10.85,14.79c.88,.66,1.32,1.65,1.32,2.97s-.45,2.42-1.33,3.11c-.89,.69-2.07,1.04-3.55,1.04h-1.46v4.34H3.46V13.8h3.67c1.6,0,2.84,.33,3.72,.99Zm-1.81,4.8c.43-.35,.65-.96,.65-1.83,0-1.48-.86-2.21-2.57-2.21h-1.28v4.57h1.28c.85,0,1.49-.18,1.93-.53Z"/>
    <path d="M19.32,16.59l-.4,2.23c-.29-.07-.57-.11-.85-.11-.56,0-1.01,.2-1.33,.6-.32,.4-.58,1.02-.77,1.84v5.08h-2.3v-9.52h2l.21,1.87c.23-.68,.56-1.21,.99-1.58,.43-.37,.93-.55,1.49-.55,.35,0,.67,.04,.96,.13Z"/>
    <path d="M27.97,22.19h-5.97c.07,.92,.31,1.58,.72,1.98,.41,.4,.95,.59,1.62,.59,.42,0,.82-.07,1.19-.21,.37-.14,.77-.35,1.19-.64l.96,1.31c-1.06,.85-2.23,1.28-3.53,1.28-1.45,0-2.57-.44-3.36-1.33-.79-.89-1.18-2.1-1.18-3.64,0-.97,.17-1.84,.5-2.62,.34-.77,.82-1.38,1.46-1.82,.63-.44,1.39-.66,2.27-.66,1.33,0,2.36,.42,3.1,1.27,.73,.85,1.1,2.03,1.1,3.54,0,.12-.02,.43-.05,.94Zm-2.23-1.6c0-1.67-.62-2.5-1.86-2.5-.56,0-1,.21-1.32,.62s-.51,1.08-.57,1.99h3.74v-.11Z"/>
    <path d="M36.15,16.72v1.66l-4.61,6.07h4.7l-.23,1.8h-7.11v-1.66l4.62-6.07h-4.23v-1.8h6.86Z"/>
    <path d="M40.22,12.3c.27,.27,.4,.6,.4,1s-.13,.73-.4,.99c-.27,.26-.62,.4-1.05,.4s-.76-.13-1.03-.4c-.27-.26-.41-.59-.41-.99s.13-.73,.41-1c.27-.27,.61-.41,1.03-.41s.78,.14,1.05,.41Zm.12,4.42v9.52h-2.3v-9.52h2.3Z"/>
    <path d="M51.12,12.9v13.34h-2.03l-.16-1.21c-.3,.46-.68,.82-1.14,1.08-.46,.26-.99,.4-1.57,.4-1.16,0-2.06-.45-2.68-1.35-.62-.9-.94-2.12-.94-3.67,0-.97,.15-1.84,.47-2.6,.31-.76,.76-1.36,1.34-1.79,.58-.43,1.26-.65,2.03-.65,.91,0,1.71,.34,2.39,1.03v-4.82l2.3,.25Zm-3.19,11.56c.31-.2,.61-.51,.88-.93v-4.36c-.28-.33-.55-.59-.84-.76-.28-.17-.61-.25-.98-.25-.61,0-1.1,.27-1.45,.82-.36,.55-.53,1.37-.53,2.47,0,1.18,.16,2.02,.47,2.53,.31,.51,.77,.76,1.37,.76,.41,0,.77-.1,1.08-.3Z"/>
    <path d="M61.65,22.19h-5.97c.07,.92,.31,1.58,.72,1.98,.41,.4,.95,.59,1.62,.59,.42,0,.82-.07,1.19-.21,.37-.14,.77-.35,1.19-.64l.96,1.31c-1.06,.85-2.23,1.28-3.53,1.28-1.45,0-2.57-.44-3.36-1.33-.79-.89-1.18-2.1-1.18-3.64,0-.97,.17-1.84,.5-2.62,.34-.77,.82-1.38,1.46-1.82,.63-.44,1.39-.66,2.27-.66,1.33,0,2.36,.42,3.1,1.27,.73,.85,1.1,2.03,1.1,3.54,0,.12-.02,.43-.05,.94Zm-2.23-1.6c0-1.67-.62-2.5-1.86-2.5-.56,0-1,.21-1.32,.62s-.51,1.08-.57,1.99h3.74v-.11Z"/>
    <path d="M70.84,17.21c.47,.51,.71,1.22,.71,2.13v6.89h-2.3v-6.53c0-.56-.1-.96-.3-1.19-.2-.23-.49-.34-.87-.34s-.75,.12-1.07,.37-.63,.6-.93,1.07v6.62h-2.3v-9.52h2l.18,1.24c.78-1.01,1.75-1.51,2.9-1.51,.85,0,1.51,.25,1.99,.76Z"/>
    <path d="M79.69,25.79c-.34,.24-.71,.42-1.12,.54s-.84,.18-1.27,.18c-.94-.01-1.65-.28-2.13-.8s-.73-1.29-.73-2.31v-5.02h-1.49v-1.66h1.49v-2.11l2.3-.27v2.38h2.21l-.23,1.66h-1.98v4.97c0,.47,.08,.8,.24,1.01,.16,.2,.42,.31,.77,.31s.72-.11,1.13-.34l.81,1.48Z"/>
    <path d="M83.17,12.3c.27,.27,.4,.6,.4,1s-.13,.73-.4,.99-.62,.4-1.05,.4-.77-.13-1.04-.4-.4-.59-.4-.99,.13-.73,.4-1c.27-.27,.62-.41,1.04-.41s.78,.14,1.05,.41Zm.12,4.42v9.52h-2.3v-9.52h2.3Z"/>
    <path d="M98.18,26.24h-2l-.13-1.33c-.35,.54-.76,.94-1.23,1.21s-1.04,.4-1.68,.4c-.85,0-1.51-.26-1.97-.78-.46-.52-.69-1.24-.69-2.17v-6.84h2.3v6.55c0,.54,.09,.92,.28,1.15,.19,.23,.48,.34,.89,.34,.73,0,1.37-.45,1.93-1.35v-6.7h2.3v9.52Z"/>
    <path d="M108.96,12.9v13.34h-2.03l-.16-1.21c-.3,.46-.68,.82-1.14,1.08-.46,.26-.99,.4-1.57,.4-1.16,0-2.06-.45-2.68-1.35-.62-.9-.94-2.12-.94-3.67,0-.97,.15-1.84,.47-2.6,.31-.76,.76-1.36,1.34-1.79,.58-.43,1.26-.65,2.03-.65,.91,0,1.71,.34,2.39,1.03v-4.82l2.3,.25Zm-3.19,11.56c.31-.2,.61-.51,.88-.93v-4.36c-.28-.33-.55-.59-.84-.76-.28-.17-.61-.25-.98-.25-.61,0-1.1,.27-1.45,.82-.36,.55-.53,1.37-.53,2.47,0,1.18,.16,2.02,.47,2.53,.31,.51,.77,.76,1.37,.76,.41,0,.77-.1,1.08-.3Z"/>
    <path d="M119.49,22.19h-5.97c.07,.92,.31,1.58,.72,1.98,.41,.4,.95,.59,1.62,.59,.42,0,.82-.07,1.19-.21,.37-.14,.77-.35,1.19-.64l.96,1.31c-1.06,.85-2.23,1.28-3.53,1.28-1.45,0-2.57-.44-3.36-1.33-.79-.89-1.18-2.1-1.18-3.64,0-.97,.17-1.84,.5-2.62,.34-.77,.82-1.38,1.46-1.82,.63-.44,1.39-.66,2.27-.66,1.33,0,2.36,.42,3.1,1.27,.73,.85,1.1,2.03,1.1,3.54,0,.12-.02,.43-.05,.94Zm-1.74-10.35l.88,1.01-2.5,2.25h-1.44l-2.5-2.25,.88-1.01,2.34,1.58,2.34-1.58Zm-.49,8.75c0-1.67-.62-2.5-1.86-2.5-.56,0-1,.21-1.32,.62s-.51,1.08-.57,1.99h3.74v-.11Z"/>
    <path d="M122.14,25.87c-.41-.43-.62-1.03-.62-1.81V12.9l2.3-.25v11.34c0,.44,.18,.67,.54,.67,.18,0,.36-.03,.54-.09l.49,1.62c-.48,.22-.99,.32-1.53,.32-.73,0-1.3-.21-1.72-.64Z"/>
    <path d="M134,17.79c.79,.89,1.18,2.12,1.18,3.68,0,1-.18,1.88-.54,2.64-.36,.76-.88,1.35-1.55,1.77-.67,.42-1.47,.63-2.39,.63-1.4,0-2.5-.45-3.29-1.34-.79-.89-1.19-2.13-1.19-3.7,0-1,.18-1.87,.54-2.63,.36-.76,.88-1.34,1.56-1.76s1.48-.63,2.4-.63c1.4,0,2.5,.45,3.29,1.34Zm-5.36,3.68c0,1.13,.17,1.96,.51,2.49s.86,.8,1.54,.8,1.2-.27,1.54-.81,.51-1.37,.51-2.48-.17-1.94-.51-2.47-.85-.8-1.52-.8c-1.38,0-2.07,1.09-2.07,3.28Z"/>
    <path d="M144.88,16.72l-3.1,9.52h-2.75l-3.15-9.52h2.5l2.04,7.67,2.09-7.67h2.38Z"/>
    <path d="M153.17,24.54c.11,.17,.3,.31,.55,.41l-.49,1.53c-.54-.05-.98-.18-1.32-.4s-.6-.55-.78-.99c-.32,.48-.73,.84-1.21,1.07-.49,.23-1.03,.35-1.63,.35-.95,0-1.7-.27-2.25-.81-.55-.54-.83-1.25-.83-2.12,0-1.03,.38-1.82,1.12-2.37s1.82-.82,3.21-.82h1.19v-.54c0-.61-.14-1.04-.42-1.29-.28-.25-.74-.37-1.36-.37-.7,0-1.54,.17-2.52,.5l-.54-1.57c1.19-.46,2.34-.68,3.46-.68,2.44,0,3.65,1.09,3.65,3.28v4c0,.37,.06,.65,.17,.82Zm-2.44-.87v-1.93h-.95c-1.49,0-2.23,.55-2.23,1.66,0,.46,.11,.81,.34,1.06s.56,.38,1.01,.38c.78,0,1.39-.39,1.84-1.17Z"/>
    <path d="M156.14,25.87c-.41-.43-.62-1.03-.62-1.81V12.9l2.3-.25v11.34c0,.44,.18,.67,.54,.67,.18,0,.36-.03,.54-.09l.49,1.62c-.48,.22-.99,.32-1.53,.32-.73,0-1.3-.21-1.72-.64Z"/>
    <path d="M163.11,12.3c.27,.27,.4,.6,.4,1s-.13,.73-.4,.99-.62,.4-1.05,.4-.77-.13-1.04-.4-.4-.59-.4-.99,.13-.73,.4-1c.27-.27,.62-.41,1.04-.41s.78,.14,1.05,.41Zm.12,4.42v9.52h-2.3v-9.52h2.3Z"/>
    <path d="M178.15,16.72l-3.1,9.52h-2.75l-3.15-9.52h2.5l2.04,7.67,2.09-7.67h2.38Z"/>
    <path d="M184.18,26.27c-.38,1.18-.97,2.09-1.75,2.74-.78,.65-1.85,1.04-3.21,1.14l-.23-1.67c.62-.1,1.12-.23,1.5-.41s.68-.41,.91-.69c.23-.29,.44-.67,.63-1.15h-.79l-3.02-9.52h2.45l2.07,7.99,2.16-7.99h2.38l-3.1,9.56Z"/>
    <path d="M194.87,16.72v1.66l-4.61,6.07h4.7l-.23,1.8h-7.11v-1.66l4.62-6.07h-4.23v-1.8h6.86Z"/>
    <path d="M203.83,17.21c.47,.51,.71,1.22,.71,2.13v6.89h-2.3v-6.53c0-.56-.1-.96-.3-1.19-.2-.23-.49-.34-.87-.34s-.75,.12-1.07,.37c-.32,.25-.63,.6-.93,1.07v6.62h-2.3v-9.52h2l.18,1.24c.78-1.01,1.74-1.51,2.9-1.51,.85,0,1.52,.25,1.99,.76Z"/>
    <path d="M214.43,24.54c.11,.17,.3,.31,.55,.41l-.49,1.53c-.54-.05-.98-.18-1.32-.4s-.6-.55-.78-.99c-.32,.48-.73,.84-1.21,1.07-.49,.23-1.03,.35-1.63,.35-.95,0-1.7-.27-2.25-.81-.55-.54-.83-1.25-.83-2.12,0-1.03,.38-1.82,1.12-2.37s1.82-.82,3.21-.82h1.19v-.54c0-.61-.14-1.04-.42-1.29-.28-.25-.74-.37-1.36-.37-.7,0-1.54,.17-2.52,.5l-.54-1.57c1.19-.46,2.34-.68,3.46-.68,2.44,0,3.65,1.09,3.65,3.28v4c0,.37,.06,.65,.17,.82Zm-2.44-.87v-1.93h-.95c-1.49,0-2.23,.55-2.23,1.66,0,.46,.11,.81,.34,1.06s.56,.38,1.01,.38c.78,0,1.39-.39,1.84-1.17Z"/>
    <path d="M228.98,17.23c.46,.52,.68,1.23,.68,2.11v6.89h-2.3v-6.53c0-1.02-.35-1.53-1.04-1.53-.37,0-.69,.12-.96,.35-.27,.23-.55,.6-.84,1.09v6.62h-2.3v-6.53c0-1.02-.35-1.53-1.04-1.53-.38,0-.71,.12-.98,.35-.27,.23-.55,.6-.84,1.09v6.62h-2.3v-9.52h2l.18,1.24c.72-1.01,1.64-1.51,2.75-1.51,.55,0,1.03,.14,1.43,.42s.69,.67,.87,1.18c.38-.52,.81-.91,1.27-1.19,.46-.28,.99-.41,1.59-.41,.77,0,1.38,.26,1.84,.78Z"/>
    <path d="M240.1,22.19h-5.97c.07,.92,.31,1.58,.72,1.98,.41,.4,.95,.59,1.62,.59,.42,0,.82-.07,1.19-.21,.37-.14,.77-.35,1.19-.64l.96,1.31c-1.06,.85-2.23,1.28-3.53,1.28-1.45,0-2.57-.44-3.36-1.33-.79-.89-1.18-2.1-1.18-3.64,0-.97,.17-1.84,.5-2.62,.34-.77,.82-1.38,1.46-1.82,.63-.44,1.39-.66,2.27-.66,1.33,0,2.36,.42,3.1,1.27,.73,.85,1.1,2.03,1.1,3.54,0,.12-.02,.43-.05,.94Zm-2.23-1.6c0-1.67-.62-2.5-1.86-2.5-.56,0-1,.21-1.32,.62s-.51,1.08-.57,1.99h3.74v-.11Z"/>
    <path d="M249.29,17.21c.47,.51,.71,1.22,.71,2.13v6.89h-2.3v-6.53c0-.56-.1-.96-.3-1.19-.2-.23-.49-.34-.87-.34s-.75,.12-1.07,.37-.63,.6-.93,1.07v6.62h-2.3v-9.52h2l.18,1.24c.78-1.01,1.75-1.51,2.9-1.51,.85,0,1.51,.25,1.99,.76Z"/>
    <path d="M259.89,24.54c.12,.17,.3,.31,.55,.41l-.48,1.53c-.54-.05-.98-.18-1.32-.4s-.6-.55-.78-.99c-.32,.48-.73,.84-1.21,1.07-.49,.23-1.03,.35-1.63,.35-.95,0-1.7-.27-2.25-.81-.55-.54-.83-1.25-.83-2.12,0-1.03,.38-1.82,1.12-2.37s1.82-.82,3.21-.82h1.19v-.54c0-.61-.14-1.04-.42-1.29s-.73-.37-1.36-.37c-.7,0-1.54,.17-2.52,.5l-.54-1.57c1.19-.46,2.34-.68,3.46-.68,2.44,0,3.65,1.09,3.65,3.28v4c0,.37,.06,.65,.17,.82Zm-2.44-13.06l.94,1.8-4.07,1.62-.65-1.17,3.78-2.25Zm0,12.19v-1.93h-.96c-1.49,0-2.23,.55-2.23,1.66,0,.46,.12,.81,.34,1.06,.23,.25,.56,.38,1.01,.38,.78,0,1.39-.39,1.84-1.17Z"/>
    <path d="M269.58,17.21c.47,.51,.71,1.22,.71,2.13v6.89h-2.3v-6.53c0-.56-.1-.96-.3-1.19-.2-.23-.49-.34-.87-.34s-.75,.12-1.07,.37-.63,.6-.93,1.07v6.62h-2.3v-9.52h2l.18,1.24c.78-1.01,1.75-1.51,2.9-1.51,.85,0,1.51,.25,1.99,.76Z"/>
    <path d="M275.49,11.48l.94,1.8-4.07,1.62-.65-1.17,3.78-2.25Zm-.22,5.24v9.52h-2.3v-9.52h2.3Z"/>
    <path d="M290.2,16.72l-3.1,9.52h-2.75l-3.15-9.52h2.5l2.04,7.67,2.09-7.67h2.38Z"/>
    <path d="M302.92,13.85c.56,.22,1.12,.55,1.66,.99l-1.21,1.4c-.73-.59-1.5-.88-2.3-.88-.92,0-1.67,.37-2.22,1.12-.56,.74-.84,1.91-.84,3.51s.28,2.72,.83,3.47,1.3,1.13,2.23,1.13c.49,0,.93-.09,1.31-.26,.38-.17,.79-.42,1.22-.75l1.12,1.4c-.42,.43-.95,.79-1.59,1.08s-1.36,.43-2.15,.43c-1.08,0-2.04-.25-2.86-.76s-1.47-1.25-1.93-2.22c-.46-.98-.68-2.16-.68-3.54s.24-2.52,.71-3.49,1.12-1.71,1.94-2.21,1.75-.76,2.78-.76c.76,0,1.42,.11,1.98,.32Zm.47-4.32l.88,1.01-2.5,2.16h-1.44l-2.5-2.16,.88-1.01,2.34,1.49,2.34-1.49Z"/>
    <path d="M313.74,22.19h-5.97c.07,.92,.31,1.58,.72,1.98,.41,.4,.95,.59,1.62,.59,.42,0,.82-.07,1.19-.21,.37-.14,.77-.35,1.19-.64l.96,1.31c-1.06,.85-2.23,1.28-3.53,1.28-1.45,0-2.57-.44-3.36-1.33-.79-.89-1.18-2.1-1.18-3.64,0-.97,.17-1.84,.5-2.62,.34-.77,.82-1.38,1.46-1.82,.63-.44,1.39-.66,2.27-.66,1.33,0,2.36,.42,3.1,1.27,.73,.85,1.1,2.03,1.1,3.54,0,.12-.02,.43-.05,.94Zm-2.23-1.6c0-1.67-.62-2.5-1.86-2.5-.56,0-1,.21-1.32,.62s-.51,1.08-.57,1.99h3.74v-.11Z"/>
    <path d="M322.26,17.58l-.9,1.35c-.82-.52-1.61-.77-2.39-.77-.46,0-.81,.09-1.06,.26s-.38,.41-.38,.69c0,.22,.05,.4,.16,.54,.11,.14,.3,.28,.59,.4,.28,.13,.7,.27,1.25,.42,1.03,.28,1.8,.64,2.29,1.1s.75,1.09,.75,1.91c0,.95-.38,1.69-1.15,2.22s-1.72,.8-2.86,.8c-.78,0-1.49-.12-2.13-.36-.64-.24-1.2-.57-1.66-.99l1.15-1.3c.83,.62,1.69,.94,2.59,.94,.52,0,.93-.1,1.23-.31,.31-.2,.46-.49,.46-.85,0-.28-.06-.5-.17-.66-.12-.16-.32-.31-.61-.43-.29-.13-.75-.28-1.38-.46-.97-.26-1.69-.63-2.14-1.11-.46-.47-.69-1.07-.69-1.77,0-.53,.15-1,.46-1.42,.31-.42,.74-.75,1.3-.99,.56-.24,1.2-.36,1.92-.36,1.29,0,2.41,.38,3.38,1.13Z"/>
    <path d="M326.74,12.65v13.59h-2.3V12.9l2.3-.25Zm5.71,4.07l-3.17,4.19,3.47,5.33h-2.65l-3.28-5.2,3.19-4.32h2.43Z"/>
    <path d="M341.61,22.19h-5.98c.07,.92,.31,1.58,.72,1.98,.41,.4,.95,.59,1.62,.59,.42,0,.82-.07,1.19-.21,.37-.14,.77-.35,1.19-.64l.95,1.31c-1.05,.85-2.23,1.28-3.53,1.28-1.45,0-2.57-.44-3.36-1.33-.79-.89-1.18-2.1-1.18-3.64,0-.97,.17-1.84,.5-2.62,.34-.77,.82-1.38,1.46-1.82,.64-.44,1.39-.66,2.27-.66,1.33,0,2.37,.42,3.1,1.27,.73,.85,1.1,2.03,1.1,3.54,0,.12-.02,.43-.05,.94Zm-2.72-10.71l.94,1.8-4.07,1.62-.65-1.17,3.78-2.25Zm.49,9.11c0-1.67-.62-2.5-1.85-2.5-.56,0-1.01,.21-1.32,.62-.32,.41-.51,1.08-.57,1.99h3.74v-.11Z"/>
    <path d="M353.88,16.59l-.4,2.23c-.29-.07-.57-.11-.85-.11-.56,0-1.01,.2-1.33,.6-.32,.4-.58,1.02-.77,1.84v5.08h-2.3v-9.52h2l.22,1.87c.23-.68,.56-1.21,.99-1.58,.43-.37,.93-.55,1.49-.55,.35,0,.67,.04,.95,.13Z"/>
    <path d="M362.54,22.19h-5.97c.07,.92,.31,1.58,.72,1.98,.41,.4,.95,.59,1.62,.59,.42,0,.82-.07,1.19-.21,.37-.14,.77-.35,1.19-.64l.96,1.31c-1.06,.85-2.23,1.28-3.53,1.28-1.45,0-2.57-.44-3.36-1.33-.79-.89-1.18-2.1-1.18-3.64,0-.97,.17-1.84,.5-2.62,.34-.77,.82-1.38,1.46-1.82,.63-.44,1.39-.66,2.27-.66,1.33,0,2.36,.42,3.1,1.27,.73,.85,1.1,2.03,1.1,3.54,0,.12-.02,.43-.05,.94Zm-2.23-1.6c0-1.67-.62-2.5-1.86-2.5-.56,0-1,.21-1.32,.62s-.51,1.08-.57,1.99h3.74v-.11Z"/>
    <path d="M372.26,17.76c.58,.88,.86,2.11,.86,3.69,0,.98-.15,1.86-.44,2.62-.29,.76-.73,1.36-1.3,1.79-.57,.43-1.24,.65-2.03,.65-1.01,0-1.81-.35-2.39-1.04v4.45l-2.3,.25v-13.45h2.02l.13,1.17c.37-.48,.8-.84,1.28-1.08,.48-.24,.98-.36,1.51-.36,1.2,0,2.09,.44,2.66,1.31Zm-1.55,3.71c0-1.16-.15-2-.45-2.52s-.75-.77-1.35-.77c-.38,0-.74,.12-1.08,.35-.34,.23-.62,.55-.86,.94v4.28c.44,.66,1.03,.99,1.74,.99,1.33,0,2-1.09,2-3.28Z"/>
    <path d="M383.01,26.24h-2l-.13-1.33c-.35,.54-.76,.94-1.23,1.21s-1.04,.4-1.68,.4c-.85,0-1.51-.26-1.97-.78-.46-.52-.69-1.24-.69-2.17v-6.84h2.3v6.55c0,.54,.09,.92,.28,1.15,.19,.23,.48,.34,.89,.34,.73,0,1.37-.45,1.93-1.35v-6.7h2.3v9.52Z"/>
    <path d="M393.3,17.77c.62,.88,.94,2.12,.94,3.7,0,.98-.15,1.86-.46,2.62-.3,.76-.74,1.36-1.3,1.78s-1.23,.64-2,.64c-.52,0-.99-.11-1.41-.32-.43-.22-.79-.52-1.11-.92l-.14,.97h-2.03V12.9l2.3-.25v5.15c.31-.43,.69-.76,1.14-1,.45-.23,.95-.35,1.48-.35,1.1,0,1.97,.44,2.59,1.32Zm-2,6.21c.35-.53,.52-1.37,.52-2.51,0-1.2-.16-2.05-.48-2.55s-.78-.75-1.37-.75c-.73,0-1.36,.43-1.89,1.3v4.21c.2,.35,.46,.62,.76,.81,.31,.19,.64,.29,1,.29,.62,0,1.11-.27,1.46-.8Z"/>
    <path d="M397.04,25.87c-.41-.43-.62-1.03-.62-1.81V12.9l2.3-.25v11.34c0,.44,.18,.67,.54,.67,.18,0,.36-.03,.54-.09l.49,1.62c-.48,.22-.99,.32-1.53,.32-.73,0-1.3-.21-1.72-.64Z"/>
    <path d="M404,12.3c.27,.27,.4,.6,.4,1s-.13,.73-.4,.99-.62,.4-1.05,.4-.77-.13-1.04-.4-.4-.59-.4-.99,.13-.73,.4-1c.27-.27,.62-.41,1.04-.41s.78,.14,1.05,.41Zm.12,4.42v9.52h-2.3v-9.52h2.3Z"/>
    <path d="M412.41,16.72c.5,.18,.97,.46,1.41,.85l-1.03,1.39c-.32-.24-.63-.41-.94-.52-.3-.11-.63-.16-.99-.16-1.43,0-2.14,1.09-2.14,3.26,0,1.1,.19,1.9,.56,2.38,.37,.49,.9,.73,1.58,.73,.34,0,.64-.05,.93-.16,.28-.11,.62-.28,1-.52l1.03,1.46c-.9,.73-1.93,1.1-3.08,1.1-.91,0-1.71-.2-2.38-.6-.67-.4-1.19-.97-1.55-1.72-.36-.74-.54-1.62-.54-2.63s.18-1.9,.54-2.67c.36-.77,.88-1.37,1.55-1.8s1.46-.64,2.36-.64c.62,0,1.19,.09,1.68,.27Z"/>
    <path d="M422.89,22.19h-5.97c.07,.92,.31,1.58,.72,1.98,.41,.4,.95,.59,1.62,.59,.42,0,.82-.07,1.19-.21,.37-.14,.77-.35,1.19-.64l.96,1.31c-1.06,.85-2.23,1.28-3.53,1.28-1.45,0-2.57-.44-3.36-1.33-.79-.89-1.18-2.1-1.18-3.64,0-.97,.17-1.84,.5-2.62,.34-.77,.82-1.38,1.46-1.82,.63-.44,1.39-.66,2.27-.66,1.33,0,2.36,.42,3.1,1.27,.73,.85,1.1,2.03,1.1,3.54,0,.12-.02,.43-.05,.94Zm-2.23-1.6c0-1.67-.62-2.5-1.86-2.5-.56,0-1,.21-1.32,.62s-.51,1.08-.57,1.99h3.74v-.11Z"/>
    <path d="M437.04,17.77c.62,.88,.94,2.12,.94,3.7,0,.98-.15,1.86-.46,2.62-.3,.76-.74,1.36-1.3,1.78s-1.23,.64-2,.64c-.52,0-.99-.11-1.41-.32-.43-.22-.79-.52-1.11-.92l-.14,.97h-2.03V12.9l2.3-.25v5.15c.31-.43,.69-.76,1.14-1,.45-.23,.95-.35,1.48-.35,1.1,0,1.97,.44,2.59,1.32Zm-2,6.21c.35-.53,.52-1.37,.52-2.51,0-1.2-.16-2.05-.48-2.55s-.78-.75-1.37-.75c-.73,0-1.36,.43-1.89,1.3v4.21c.2,.35,.46,.62,.76,.81,.31,.19,.64,.29,1,.29,.62,0,1.11-.27,1.46-.8Z"/>
    <path d="M444.75,26.27c-.38,1.18-.97,2.09-1.75,2.74-.78,.65-1.85,1.04-3.21,1.14l-.23-1.67c.62-.1,1.12-.23,1.5-.41s.68-.41,.91-.69c.23-.29,.44-.67,.63-1.15h-.79l-3.02-9.52h2.45l2.07,7.99,2.16-7.99h2.38l-3.1,9.56Z"/>
    <path d="M461.27,17.77c.62,.88,.94,2.12,.94,3.7,0,.98-.15,1.86-.46,2.62-.31,.76-.74,1.36-1.3,1.78-.56,.43-1.23,.64-2,.64-.52,0-.99-.11-1.41-.32-.43-.22-.79-.52-1.11-.92l-.14,.97h-2.04V12.9l2.3-.25v5.15c.31-.43,.69-.76,1.14-1,.45-.23,.95-.35,1.49-.35,1.1,0,1.97,.44,2.59,1.32Zm-2,6.21c.35-.53,.52-1.37,.52-2.51,0-1.2-.16-2.05-.49-2.55s-.78-.75-1.37-.75c-.73,0-1.36,.43-1.89,1.3v4.21c.2,.35,.46,.62,.77,.81,.3,.19,.64,.29,1,.29,.62,0,1.11-.27,1.46-.8Z"/>
    <path d="M468.97,26.27c-.38,1.18-.96,2.09-1.75,2.74-.78,.65-1.85,1.04-3.2,1.14l-.23-1.67c.62-.1,1.12-.23,1.5-.41,.38-.17,.68-.41,.91-.69s.44-.67,.63-1.15h-.79l-3.02-9.52h2.45l2.07,7.99,2.16-7.99h2.38l-3.1,9.56Z"/>
    <path d="M474,25.87c-.41-.43-.62-1.03-.62-1.81V12.9l2.3-.25v11.34c0,.44,.18,.67,.54,.67,.18,0,.36-.03,.54-.09l.49,1.62c-.48,.22-.99,.32-1.53,.32-.73,0-1.3-.21-1.72-.64Z"/>
    <path d="M485.9,24.54c.11,.17,.3,.31,.55,.41l-.49,1.53c-.54-.05-.98-.18-1.32-.4s-.6-.55-.78-.99c-.32,.48-.73,.84-1.21,1.07-.49,.23-1.03,.35-1.63,.35-.95,0-1.7-.27-2.25-.81-.55-.54-.83-1.25-.83-2.12,0-1.03,.38-1.82,1.12-2.37s1.82-.82,3.21-.82h1.19v-.54c0-.61-.14-1.04-.42-1.29-.28-.25-.74-.37-1.36-.37-.7,0-1.54,.17-2.52,.5l-.54-1.57c1.19-.46,2.34-.68,3.46-.68,2.44,0,3.65,1.09,3.65,3.28v4c0,.37,.06,.65,.17,.82Zm-2.44-.87v-1.93h-.95c-1.49,0-2.23,.55-2.23,1.66,0,.46,.11,.81,.34,1.06s.56,.38,1.01,.38c.78,0,1.39-.39,1.84-1.17Z"/>
  </g>
  <g>
    <path class="cls-3" d="M15.86,295.3c.31,.12,.63,.31,.95,.57l-.57,.67c-.46-.37-.95-.56-1.46-.56-.63,0-1.14,.24-1.52,.73-.39,.48-.58,1.26-.58,2.33s.19,1.81,.57,2.3c.38,.5,.89,.74,1.52,.74,.32,0,.61-.05,.85-.17,.24-.11,.5-.26,.77-.46l.52,.66c-.24,.24-.54,.44-.9,.6-.37,.16-.79,.24-1.26,.24-.62,0-1.17-.15-1.64-.46-.48-.3-.85-.75-1.12-1.34-.27-.59-.4-1.3-.4-2.13s.14-1.54,.42-2.13c.28-.59,.66-1.04,1.13-1.34s1.01-.45,1.59-.45c.46,0,.84,.06,1.15,.18Z"/>
    <path class="cls-3" d="M22.02,297.38c.3,.32,.45,.75,.45,1.3v4.16h-1.01v-4.01c0-.41-.08-.7-.24-.87-.16-.17-.39-.25-.69-.25s-.57,.09-.8,.26-.45,.43-.66,.75v4.12h-1.01v-8.12l1.01-.11v3.23c.46-.62,1.03-.93,1.72-.93,.53,0,.94,.16,1.24,.47Z"/>
    <path class="cls-3" d="M27.55,297.06c.29,.1,.56,.26,.83,.48l-.48,.64c-.21-.15-.41-.25-.6-.32-.19-.07-.41-.1-.64-.1-.47,0-.83,.19-1.09,.56s-.39,.93-.39,1.66,.13,1.27,.38,1.62c.26,.35,.62,.52,1.1,.52,.23,0,.44-.04,.63-.1,.19-.07,.4-.18,.64-.34l.46,.66c-.53,.42-1.12,.64-1.77,.64-.79,0-1.4-.26-1.85-.79s-.68-1.26-.68-2.19c0-.62,.1-1.16,.31-1.62,.21-.46,.5-.82,.88-1.08s.83-.38,1.35-.38c.34,0,.66,.05,.95,.15Z"/>
    <path class="cls-3" d="M33.89,300.29h-3.7c.04,.64,.21,1.11,.48,1.41,.28,.3,.64,.45,1.08,.45,.28,0,.54-.04,.77-.12,.23-.08,.48-.21,.74-.38l.44,.61c-.62,.48-1.29,.73-2.02,.73-.81,0-1.44-.26-1.89-.79s-.68-1.25-.68-2.18c0-.6,.1-1.13,.29-1.6,.19-.47,.47-.83,.84-1.09,.36-.26,.79-.4,1.28-.4,.77,0,1.36,.25,1.77,.76,.41,.51,.62,1.21,.62,2.1,0,.17,0,.34-.02,.52Zm-.98-.81c0-.57-.11-1.01-.34-1.31s-.57-.45-1.02-.45c-.83,0-1.28,.61-1.35,1.83h2.72v-.07Z"/>
    <path class="cls-3" d="M42.49,297.39c.29,.32,.43,.75,.43,1.29v4.16h-1.01v-4.01c0-.75-.27-1.12-.81-1.12-.29,0-.53,.08-.73,.25s-.41,.42-.64,.78v4.11h-1.01v-4.01c0-.75-.27-1.12-.81-1.12-.29,0-.54,.08-.74,.25-.2,.17-.41,.42-.63,.77v4.11h-1.01v-5.8h.87l.09,.85c.43-.65,.99-.98,1.67-.98,.36,0,.67,.09,.92,.27,.25,.18,.43,.44,.54,.77,.23-.34,.48-.6,.75-.78,.27-.18,.6-.27,.97-.27,.48,0,.86,.16,1.14,.48Z"/>
    <path class="cls-3" d="M49.31,300.29h-3.7c.04,.64,.21,1.11,.48,1.41,.28,.3,.64,.45,1.08,.45,.28,0,.54-.04,.77-.12,.23-.08,.48-.21,.74-.38l.44,.61c-.62,.48-1.29,.73-2.02,.73-.81,0-1.44-.26-1.89-.79s-.68-1.25-.68-2.18c0-.6,.1-1.13,.29-1.6,.19-.47,.47-.83,.84-1.09,.36-.26,.79-.4,1.28-.4,.77,0,1.36,.25,1.77,.76,.41,.51,.62,1.21,.62,2.1,0,.17,0,.34-.02,.52Zm-.98-.81c0-.57-.11-1.01-.34-1.31s-.57-.45-1.02-.45c-.83,0-1.28,.61-1.35,1.83h2.72v-.07Z"/>
    <path class="cls-3" d="M56.79,302.57c-.38,.26-.81,.4-1.3,.4s-.87-.14-1.15-.42-.41-.69-.41-1.23v-3.5h-1.01v-.78h1.01v-1.31l1.01-.12v1.43h1.38l-.11,.78h-1.26v3.45c0,.3,.05,.52,.16,.65s.28,.2,.53,.2c.23,0,.48-.08,.77-.23l.38,.67Z"/>
    <path class="cls-3" d="M61.79,302.01c.08,.11,.2,.2,.36,.26l-.23,.7c-.3-.04-.54-.12-.73-.25-.18-.13-.32-.34-.41-.62-.39,.58-.96,.87-1.73,.87-.57,0-1.02-.16-1.35-.48-.33-.32-.5-.75-.5-1.27,0-.62,.22-1.09,.67-1.42,.44-.33,1.07-.5,1.89-.5h.89v-.43c0-.41-.1-.7-.3-.88-.2-.18-.5-.26-.91-.26s-.95,.1-1.56,.31l-.25-.74c.72-.26,1.39-.4,2-.4,.68,0,1.19,.17,1.53,.5,.34,.33,.51,.81,.51,1.42v2.65c0,.23,.04,.41,.12,.52Zm-1.13-.7v-1.33h-.76c-1.07,0-1.61,.4-1.61,1.19,0,.34,.08,.6,.25,.78,.17,.18,.42,.26,.75,.26,.58,0,1.03-.3,1.36-.9Z"/>
    <path class="cls-3" d="M68.23,294.71v8.13h-.89l-.1-.8c-.19,.29-.43,.52-.71,.69s-.61,.25-.96,.25c-.69,0-1.23-.27-1.61-.81-.39-.54-.58-1.27-.58-2.19,0-.59,.09-1.12,.28-1.58s.45-.82,.79-1.08c.34-.26,.75-.39,1.21-.39,.59,0,1.11,.24,1.56,.71v-3.04l1.01,.12Zm-1.65,7.24c.22-.14,.43-.36,.64-.64v-2.84c-.19-.25-.39-.44-.61-.57-.22-.13-.46-.19-.73-.19-.45,0-.79,.19-1.04,.56-.25,.37-.37,.93-.37,1.67s.11,1.3,.34,1.67c.23,.37,.55,.55,.98,.55,.31,0,.57-.07,.79-.21Z"/>
    <path class="cls-3" d="M72.64,302.87c-.23,.67-.54,1.21-.95,1.6-.41,.39-.99,.63-1.74,.71l-.11-.79c.38-.07,.69-.16,.91-.29,.23-.12,.41-.28,.54-.48s.26-.46,.38-.79h-.34l-1.95-5.8h1.08l1.55,5.06,1.52-5.06h1.04l-1.94,5.83Z"/>
    <path class="cls-3" d="M82.61,297.38c.3,.32,.45,.75,.45,1.3v4.16h-1.01v-4.01c0-.41-.08-.7-.23-.87s-.38-.25-.68-.25-.58,.09-.81,.26-.45,.43-.66,.76v4.11h-1.01v-5.8h.87l.09,.86c.21-.31,.46-.55,.76-.73,.3-.18,.64-.26,1.01-.26,.53,0,.94,.16,1.24,.47Z"/>
    <path class="cls-3" d="M89.45,300.29h-3.7c.04,.64,.21,1.11,.48,1.41,.28,.3,.64,.45,1.08,.45,.28,0,.54-.04,.77-.12,.23-.08,.48-.21,.74-.38l.44,.61c-.62,.48-1.29,.73-2.02,.73-.81,0-1.44-.26-1.89-.79s-.68-1.25-.68-2.18c0-.6,.1-1.13,.29-1.6,.19-.47,.47-.83,.84-1.09,.36-.26,.79-.4,1.28-.4,.77,0,1.36,.25,1.77,.76,.41,.51,.62,1.21,.62,2.1,0,.17,0,.34-.02,.52Zm-.94-6.08l.43,.5-1.48,1.24h-.67l-1.5-1.24,.44-.5,1.39,.92,1.4-.92Zm-.04,5.27c0-.57-.11-1.01-.34-1.31s-.57-.45-1.02-.45c-.83,0-1.28,.61-1.35,1.83h2.72v-.07Z"/>
    <path class="cls-3" d="M92.08,302.49c0,.54-.07,.96-.2,1.29-.13,.32-.32,.58-.58,.79-.25,.2-.61,.41-1.06,.61l-.3-.74c.29-.13,.51-.26,.66-.39,.15-.13,.27-.31,.35-.54,.08-.23,.12-.55,.12-.95v-5.51h1.01v5.45Zm.01-8.03c.13,.13,.2,.3,.2,.5s-.07,.36-.2,.49-.3,.19-.52,.19-.37-.06-.51-.19c-.13-.13-.2-.29-.2-.49s.07-.36,.2-.5c.13-.13,.3-.2,.51-.2s.38,.07,.52,.2Z"/>
    <path class="cls-3" d="M98.2,302.01c.08,.11,.2,.2,.36,.26l-.23,.7c-.3-.04-.54-.12-.73-.25-.18-.13-.32-.34-.41-.62-.39,.58-.96,.87-1.73,.87-.57,0-1.02-.16-1.35-.48-.33-.32-.5-.75-.5-1.27,0-.62,.22-1.09,.67-1.42,.44-.33,1.07-.5,1.89-.5h.89v-.43c0-.41-.1-.7-.3-.88-.2-.18-.5-.26-.91-.26s-.95,.1-1.56,.31l-.25-.74c.72-.26,1.39-.4,2-.4,.68,0,1.19,.17,1.53,.5,.34,.33,.51,.81,.51,1.42v2.65c0,.23,.04,.41,.12,.52Zm-1.13-.7v-1.33h-.76c-1.07,0-1.61,.4-1.61,1.19,0,.34,.08,.6,.25,.78,.17,.18,.42,.26,.75,.26,.58,0,1.03-.3,1.36-.9Z"/>
    <path class="cls-3" d="M101.17,294.59v8.25h-1.01v-8.13l1.01-.12Zm3.33,2.45l-2.13,2.56,2.38,3.23h-1.21l-2.3-3.17,2.13-2.63h1.13Z"/>
    <path class="cls-3" d="M110.04,300.29h-3.7c.04,.64,.21,1.11,.48,1.41,.28,.3,.64,.45,1.08,.45,.28,0,.54-.04,.77-.12,.23-.08,.48-.21,.74-.38l.44,.61c-.62,.48-1.29,.73-2.02,.73-.81,0-1.44-.26-1.89-.79s-.68-1.25-.68-2.18c0-.6,.1-1.13,.29-1.6,.19-.47,.47-.83,.84-1.09,.36-.26,.79-.4,1.28-.4,.77,0,1.36,.25,1.77,.76,.41,.51,.62,1.21,.62,2.1,0,.17,0,.34-.02,.52Zm-.98-.81c0-.57-.11-1.01-.34-1.31s-.57-.45-1.02-.45c-.83,0-1.28,.61-1.35,1.83h2.72v-.07Zm-.48-5.44l.45,.85-2.33,.95-.31-.54,2.19-1.25Z"/>
    <path class="cls-3" d="M119.09,294.71v8.13h-.89l-.1-.8c-.19,.29-.43,.52-.71,.69s-.61,.25-.96,.25c-.69,0-1.23-.27-1.61-.81-.39-.54-.58-1.27-.58-2.19,0-.59,.09-1.12,.28-1.58s.45-.82,.79-1.08c.34-.26,.75-.39,1.21-.39,.59,0,1.11,.24,1.56,.71v-3.04l1.01,.12Zm-1.65,7.24c.22-.14,.43-.36,.64-.64v-2.84c-.19-.25-.39-.44-.61-.57-.22-.13-.46-.19-.73-.19-.45,0-.79,.19-1.04,.56-.25,.37-.37,.93-.37,1.67s.11,1.3,.34,1.67c.23,.37,.55,.55,.98,.55,.31,0,.57-.07,.79-.21Z"/>
    <path class="cls-3" d="M125.2,302.01c.08,.11,.2,.2,.36,.26l-.23,.7c-.3-.04-.54-.12-.73-.25-.18-.13-.32-.34-.41-.62-.39,.58-.96,.87-1.73,.87-.57,0-1.02-.16-1.35-.48-.33-.32-.5-.75-.5-1.27,0-.62,.22-1.09,.67-1.42,.44-.33,1.07-.5,1.89-.5h.89v-.43c0-.41-.1-.7-.3-.88-.2-.18-.5-.26-.91-.26s-.95,.1-1.56,.31l-.25-.74c.72-.26,1.39-.4,2-.4,.68,0,1.19,.17,1.53,.5,.34,.33,.51,.81,.51,1.42v2.65c0,.23,.04,.41,.12,.52Zm-1.13-.7v-1.33h-.76c-1.07,0-1.61,.4-1.61,1.19,0,.34,.08,.6,.25,.78,.17,.18,.42,.26,.75,.26,.58,0,1.03-.3,1.36-.9Z"/>
    <path class="cls-3" d="M127.32,302.64c-.22-.22-.32-.54-.32-.94v-6.99l1.01-.12v7.08c0,.16,.03,.28,.08,.35,.05,.07,.15,.11,.28,.11,.14,0,.26-.02,.37-.07l.26,.7c-.24,.13-.51,.2-.8,.2-.37,0-.67-.11-.89-.33Z"/>
    <path class="cls-3" d="M132.91,297.07c.32,.11,.62,.27,.9,.5l-.43,.64c-.26-.17-.52-.29-.75-.37s-.49-.12-.75-.12c-.33,0-.59,.07-.78,.2s-.29,.32-.29,.56,.09,.42,.27,.55c.18,.13,.5,.26,.97,.39,.65,.16,1.13,.38,1.45,.66,.32,.28,.48,.66,.48,1.14,0,.57-.22,1.01-.67,1.31-.44,.3-.99,.45-1.62,.45-.88,0-1.61-.25-2.19-.76l.54-.62c.49,.37,1.03,.56,1.63,.56,.38,0,.68-.08,.91-.24,.22-.16,.33-.37,.33-.64,0-.2-.04-.36-.12-.48-.08-.12-.22-.23-.42-.32-.2-.09-.49-.19-.87-.29-.62-.16-1.06-.38-1.34-.65s-.41-.62-.41-1.03c0-.3,.09-.57,.27-.82,.18-.25,.43-.44,.75-.57,.32-.14,.68-.2,1.07-.2s.75,.05,1.07,.17Zm.41-2.87l.43,.5-1.49,1.24h-.67l-1.5-1.24,.44-.5,1.39,.92,1.4-.92Z"/>
    <path class="cls-3" d="M136.78,294.03l.45,.85-2.33,.95-.31-.54,2.19-1.25Zm-.36,3.01v5.8h-1.01v-5.8h1.01Z"/>
    <path class="cls-3" d="M145.72,297.7c.34,.53,.52,1.27,.52,2.23,0,.91-.2,1.64-.59,2.2-.4,.56-.96,.84-1.68,.84-.65,0-1.15-.22-1.52-.66v2.75l-1.01,.12v-8.14h.87l.08,.78c.21-.29,.47-.52,.77-.68,.3-.16,.62-.24,.95-.24,.74,0,1.28,.26,1.63,.79Zm-.57,2.23c0-1.48-.44-2.22-1.31-2.22-.29,0-.55,.08-.78,.25s-.44,.38-.62,.65v2.83c.15,.23,.33,.4,.55,.52,.22,.12,.46,.18,.73,.18,.95,0,1.43-.74,1.43-2.21Z"/>
    <path class="cls-3" d="M152.03,297.72c.45,.54,.68,1.28,.68,2.21,0,.6-.1,1.13-.31,1.59-.21,.46-.5,.81-.89,1.07-.39,.25-.85,.38-1.39,.38-.81,0-1.45-.27-1.9-.81-.45-.54-.68-1.28-.68-2.21,0-.6,.1-1.13,.31-1.59,.21-.46,.5-.81,.89-1.07s.85-.38,1.4-.38c.81,0,1.45,.27,1.9,.81Zm-3.4,2.22c0,1.47,.5,2.21,1.5,2.21s1.5-.74,1.5-2.22-.5-2.21-1.49-2.21-1.51,.74-1.51,2.22Z"/>
    <path class="cls-3" d="M157.71,297.04v.77l-3.03,4.18h3.06l-.12,.85h-4.08v-.76l3.01-4.18h-2.76v-.86h3.92Z"/>
    <path class="cls-3" d="M163.08,297.38c.3,.32,.45,.75,.45,1.3v4.16h-1.01v-4.01c0-.41-.08-.7-.23-.87s-.38-.25-.68-.25-.58,.09-.81,.26-.45,.43-.66,.76v4.11h-1.01v-5.8h.87l.09,.86c.21-.31,.46-.55,.76-.73,.3-.18,.64-.26,1.01-.26,.53,0,.94,.16,1.24,.47Z"/>
    <path class="cls-3" d="M169.59,302.01c.08,.11,.2,.2,.36,.26l-.23,.7c-.3-.04-.54-.12-.73-.25-.18-.13-.32-.34-.41-.62-.39,.58-.96,.87-1.73,.87-.57,0-1.02-.16-1.35-.48-.33-.32-.5-.75-.5-1.27,0-.62,.22-1.09,.67-1.42,.44-.33,1.07-.5,1.89-.5h.89v-.43c0-.41-.1-.7-.3-.88-.2-.18-.5-.26-.91-.26s-.95,.1-1.56,.31l-.25-.74c.72-.26,1.39-.4,2-.4,.68,0,1.19,.17,1.53,.5,.34,.33,.51,.81,.51,1.42v2.65c0,.23,.04,.41,.12,.52Zm-1.33-7.98l.45,.85-2.33,.95-.31-.54,2.19-1.25Zm.2,7.28v-1.33h-.76c-1.07,0-1.61,.4-1.61,1.19,0,.34,.08,.6,.25,.78,.17,.18,.42,.26,.75,.26,.58,0,1.03-.3,1.36-.9Z"/>
    <path class="cls-3" d="M178.51,297.39c.29,.32,.43,.75,.43,1.29v4.16h-1.01v-4.01c0-.75-.27-1.12-.81-1.12-.29,0-.53,.08-.73,.25s-.41,.42-.64,.78v4.11h-1.01v-4.01c0-.75-.27-1.12-.81-1.12-.29,0-.54,.08-.74,.25-.2,.17-.41,.42-.63,.77v4.11h-1.01v-5.8h.87l.09,.85c.43-.65,.99-.98,1.67-.98,.36,0,.67,.09,.92,.27,.25,.18,.43,.44,.54,.77,.23-.34,.48-.6,.75-.78,.27-.18,.6-.27,.97-.27,.48,0,.86,.16,1.14,.48Z"/>
    <path class="cls-3" d="M181.98,294.59v8.25h-1.01v-8.13l1.01-.12Zm3.33,2.45l-2.13,2.56,2.38,3.23h-1.21l-2.3-3.17,2.13-2.63h1.13Z"/>
    <path class="cls-3" d="M188.92,302.87c-.23,.67-.54,1.21-.95,1.6-.41,.39-.99,.63-1.74,.71l-.11-.79c.38-.07,.69-.16,.91-.29,.23-.12,.41-.28,.54-.48s.26-.46,.38-.79h-.34l-1.95-5.8h1.08l1.55,5.06,1.52-5.06h1.04l-1.94,5.83Z"/>
    <path class="cls-3" d="M192.39,301.66c.15,.15,.22,.33,.22,.54,0,.23-.07,.49-.2,.78l-.74,1.68h-.73l.44-1.83c-.1-.07-.17-.17-.23-.28-.06-.11-.08-.23-.08-.36,0-.21,.07-.39,.22-.54,.15-.15,.33-.22,.54-.22s.4,.07,.55,.22Z"/>
    <path class="cls-3" d="M200.06,302.57c-.38,.26-.81,.4-1.3,.4s-.87-.14-1.15-.42-.41-.69-.41-1.23v-3.5h-1.01v-.78h1.01v-1.31l1.01-.12v1.43h1.38l-.11,.78h-1.26v3.45c0,.3,.05,.52,.16,.65s.28,.2,.53,.2c.23,0,.48-.08,.77-.23l.38,.67Z"/>
    <path class="cls-3" d="M205.29,300.29h-3.7c.04,.64,.21,1.11,.48,1.41,.28,.3,.64,.45,1.08,.45,.28,0,.54-.04,.77-.12,.23-.08,.48-.21,.74-.38l.44,.61c-.62,.48-1.29,.73-2.02,.73-.81,0-1.44-.26-1.89-.79s-.68-1.25-.68-2.18c0-.6,.1-1.13,.29-1.6,.19-.47,.47-.83,.84-1.09,.36-.26,.79-.4,1.28-.4,.77,0,1.36,.25,1.77,.76,.41,.51,.62,1.21,.62,2.1,0,.17,0,.34-.02,.52Zm-.98-.81c0-.57-.11-1.01-.34-1.31s-.57-.45-1.02-.45c-.83,0-1.28,.61-1.35,1.83h2.72v-.07Z"/>
    <path class="cls-3" d="M209.05,299.74l2.01,3.1h-1.22l-1.42-2.45-1.44,2.45h-1.14l2.02-3.06-1.79-2.74h1.19l1.21,2.12,1.22-2.12h1.14l-1.78,2.7Z"/>
    <path class="cls-3" d="M215.09,302.57c-.38,.26-.81,.4-1.3,.4s-.87-.14-1.15-.42-.41-.69-.41-1.23v-3.5h-1.01v-.78h1.01v-1.31l1.01-.12v1.43h1.38l-.11,.78h-1.26v3.45c0,.3,.05,.52,.16,.65s.28,.2,.53,.2c.23,0,.48-.08,.77-.23l.38,.67Z"/>
    <path class="cls-3" d="M218.4,302.87c-.23,.67-.54,1.21-.95,1.6-.41,.39-.99,.63-1.74,.71l-.11-.79c.38-.07,.69-.16,.91-.29,.23-.12,.41-.28,.54-.48s.26-.46,.38-.79h-.34l-1.95-5.8h1.08l1.55,5.06,1.52-5.06h1.04l-1.94,5.83Z"/>
    <path class="cls-3" d="M223.88,295.36c.32,.16,.56,.37,.72,.63,.16,.26,.24,.55,.24,.85s-.05,.53-.15,.73c-.1,.2-.22,.37-.36,.49-.14,.12-.33,.27-.56,.44-.31,.21-.54,.41-.69,.59s-.23,.42-.23,.72v.5h-1v-.55c0-.32,.05-.58,.16-.8s.23-.4,.38-.53c.15-.13,.34-.28,.58-.45,.28-.18,.48-.35,.62-.5,.13-.15,.2-.34,.2-.57,0-.3-.1-.53-.3-.7s-.47-.25-.81-.25c-.59,0-1.1,.26-1.53,.79l-.69-.54c.62-.73,1.38-1.09,2.29-1.09,.44,0,.82,.08,1.14,.24Zm-.95,6.3c.15,.15,.22,.33,.22,.54s-.07,.39-.22,.54-.33,.23-.55,.23-.39-.08-.54-.23-.22-.33-.22-.54,.07-.39,.22-.54,.33-.22,.54-.22,.4,.07,.55,.22Z"/>
  </g>
  <rect class="cls-6" x="153.81" y="95.1" width="347.46" height="42.9"/>
  <rect class="cls-4" x="501.27" y="95.1" width="103.78" height="42.9"/>
  <g>
    <path class="cls-5" d="M322.02,112.39c.39,.2,.68,.47,.88,.81,.2,.34,.31,.71,.31,1.1,0,.53-.15,.96-.46,1.31-.31,.34-.72,.57-1.23,.7,.58,.05,1.05,.26,1.42,.62,.36,.36,.55,.86,.55,1.48,0,.5-.12,.96-.36,1.37-.24,.41-.59,.73-1.04,.96-.45,.23-.97,.34-1.56,.34-.53,0-1.01-.1-1.46-.29-.44-.19-.83-.49-1.16-.88l.71-.66c.29,.29,.58,.51,.88,.65,.3,.14,.63,.21,.98,.21,.55,0,.98-.15,1.29-.46,.31-.31,.47-.72,.47-1.24,0-.57-.15-.97-.44-1.21-.29-.23-.72-.35-1.29-.35h-.65l.14-.92h.44c.45,0,.83-.13,1.12-.4s.45-.65,.45-1.13c0-.41-.13-.73-.39-.97-.26-.24-.61-.36-1.05-.36-.34,0-.65,.06-.93,.18-.28,.12-.57,.32-.86,.6l-.62-.71c.74-.68,1.56-1.03,2.48-1.03,.54,0,1,.1,1.38,.3Z"/>
    <path class="cls-5" d="M330.78,118.59c0,.48-.13,.9-.38,1.28s-.61,.67-1.07,.88c-.46,.21-.98,.32-1.56,.32s-1.11-.1-1.56-.31c-.45-.21-.8-.5-1.05-.87-.25-.37-.37-.8-.37-1.27,0-.54,.15-.99,.44-1.35,.29-.36,.72-.67,1.28-.91-.46-.23-.8-.52-1.02-.85-.22-.33-.33-.73-.33-1.18s.12-.87,.37-1.21,.57-.59,.98-.77c.4-.17,.83-.26,1.29-.26s.88,.08,1.28,.25c.4,.17,.73,.41,.98,.75,.25,.33,.38,.73,.38,1.2,0,.43-.12,.81-.36,1.12-.24,.31-.62,.59-1.12,.84,1.22,.49,1.83,1.27,1.83,2.34Zm-1.72,1.12c.32-.28,.47-.65,.47-1.11,0-.31-.06-.57-.18-.79-.12-.21-.32-.4-.58-.56-.27-.16-.65-.32-1.13-.49l-.32-.12c-.43,.21-.75,.47-.96,.79s-.31,.71-.31,1.18,.16,.85,.47,1.11c.31,.26,.74,.4,1.27,.4s.96-.14,1.28-.42Zm-2.34-6.37c-.26,.23-.4,.57-.4,1s.13,.73,.38,.95c.25,.22,.67,.42,1.23,.6l.22,.08c.39-.23,.67-.46,.84-.71s.26-.56,.26-.92c0-.41-.13-.73-.38-.98-.26-.24-.62-.36-1.09-.36s-.81,.12-1.07,.35Z"/>
    <path class="cls-5" d="M336.82,113.16h-3.39v2.56c.44-.22,.91-.34,1.39-.34,.75,0,1.34,.25,1.79,.73,.45,.49,.68,1.16,.68,2.02,0,.57-.12,1.08-.38,1.53-.25,.45-.6,.79-1.06,1.04s-.98,.37-1.58,.37c-.53,0-1-.09-1.42-.28-.42-.19-.8-.46-1.16-.83l.7-.69c.28,.28,.56,.48,.86,.62,.29,.13,.63,.2,1,.2,.55,0,.99-.17,1.31-.52s.47-.84,.47-1.47-.14-1.09-.43-1.38c-.29-.29-.67-.43-1.16-.43-.23,0-.43,.02-.62,.07-.19,.05-.39,.12-.61,.23h-.94v-4.38h4.71l-.17,.94Z"/>
  </g>
  <g>
    <path class="cls-8" d="M548.65,112.15v8.7h-1.2v-7.42l-2.03,1.23-.52-.84,2.69-1.66h1.05Z"/>
    <path class="cls-8" d="M554.1,112.15v8.7h-1.2v-7.42l-2.03,1.23-.52-.84,2.69-1.66h1.05Z"/>
    <path class="cls-8" d="M560.99,113.09h-3.39v2.56c.44-.22,.91-.34,1.39-.34,.75,0,1.34,.25,1.79,.73,.45,.49,.68,1.16,.68,2.02,0,.57-.12,1.08-.38,1.53-.25,.45-.6,.79-1.06,1.04s-.98,.37-1.58,.37c-.53,0-1-.09-1.42-.28-.42-.19-.8-.46-1.16-.83l.7-.69c.28,.28,.56,.48,.86,.62,.29,.13,.63,.2,1,.2,.55,0,.99-.17,1.31-.52s.47-.84,.47-1.47-.14-1.09-.43-1.38c-.29-.29-.67-.43-1.16-.43-.23,0-.43,.02-.62,.07-.19,.05-.39,.12-.61,.23h-.94v-4.38h4.71l-.17,.94Z"/>
  </g>
  <rect class="cls-6" x="153.81" y="147.24" width="219.31" height="42.9"/>
  <rect class="cls-4" x="373.12" y="147.24" width="21.66" height="42.9"/>
  <g>
    <path class="cls-5" d="M258.42,164.54c.39,.21,.7,.49,.92,.85,.22,.36,.33,.76,.33,1.21,0,.53-.12,1.04-.36,1.52s-.6,1.01-1.1,1.57c-.49,.56-1.24,1.35-2.25,2.35h3.91l-.14,1h-5.13v-.95c1.16-1.2,1.98-2.09,2.47-2.65,.49-.56,.83-1.05,1.04-1.46s.31-.86,.31-1.34c0-.45-.13-.8-.39-1.06-.26-.26-.61-.38-1.04-.38-.36,0-.67,.07-.94,.22s-.55,.39-.86,.73l-.78-.62c.36-.44,.75-.77,1.18-.99s.92-.33,1.46-.33,.98,.1,1.37,.31Z"/>
    <path class="cls-5" d="M266.7,169.96v.95h-1.13v2.14h-1.16v-2.14h-3.72v-.86l2.61-5.82,1,.42-2.35,5.32h2.47l.1-2.34h1.04v2.34h1.13Z"/>
    <path class="cls-5" d="M271.17,164.53c.39,.2,.68,.47,.88,.81,.2,.34,.31,.71,.31,1.1,0,.53-.15,.96-.46,1.31-.31,.34-.72,.57-1.23,.7,.58,.05,1.05,.26,1.42,.62,.36,.36,.55,.86,.55,1.48,0,.5-.12,.96-.36,1.37-.24,.41-.59,.73-1.04,.96-.45,.23-.97,.34-1.56,.34-.53,0-1.01-.1-1.46-.29-.44-.19-.83-.49-1.16-.88l.71-.66c.29,.29,.58,.51,.88,.65,.3,.14,.63,.21,.98,.21,.55,0,.98-.15,1.29-.46,.31-.31,.47-.72,.47-1.24,0-.57-.15-.97-.44-1.21-.29-.23-.72-.35-1.29-.35h-.65l.14-.92h.44c.45,0,.83-.13,1.12-.4s.45-.65,.45-1.13c0-.41-.13-.73-.39-.97-.26-.24-.61-.36-1.05-.36-.34,0-.65,.06-.93,.18-.28,.12-.57,.32-.86,.6l-.62-.71c.74-.68,1.56-1.03,2.48-1.03,.54,0,1,.1,1.38,.3Z"/>
  </g>
  <g>
    <path class="cls-8" d="M381.83,164.62c.39,.21,.7,.49,.92,.85,.22,.36,.33,.76,.33,1.21,0,.53-.12,1.04-.36,1.52s-.6,1.01-1.1,1.57c-.49,.56-1.24,1.35-2.25,2.35h3.91l-.14,1h-5.13v-.95c1.16-1.2,1.98-2.09,2.47-2.65,.49-.56,.83-1.05,1.04-1.46s.31-.86,.31-1.34c0-.45-.13-.8-.39-1.06-.26-.26-.61-.38-1.04-.38-.36,0-.67,.07-.94,.22s-.55,.39-.86,.73l-.78-.62c.36-.44,.75-.77,1.18-.99s.92-.33,1.46-.33,.98,.1,1.37,.31Z"/>
    <path class="cls-8" d="M390.1,170.04v.95h-1.13v2.14h-1.16v-2.14h-3.72v-.86l2.61-5.82,1,.42-2.35,5.32h2.47l.1-2.34h1.04v2.34h1.13Z"/>
  </g>
  <rect class="cls-6" x="153.81" y="199.38" width="217.5" height="42.9"/>
  <rect class="cls-4" x="371.31" y="199.38" width="64.98" height="42.9"/>
  <g>
    <path class="cls-5" d="M258.67,216.76c.39,.21,.7,.49,.92,.85,.22,.36,.33,.76,.33,1.21,0,.53-.12,1.04-.36,1.52s-.6,1.01-1.1,1.57c-.49,.56-1.24,1.35-2.25,2.35h3.91l-.14,1h-5.13v-.95c1.16-1.2,1.98-2.09,2.47-2.65,.49-.56,.83-1.05,1.04-1.46s.31-.86,.31-1.34c0-.45-.13-.8-.39-1.06-.26-.26-.61-.38-1.04-.38-.36,0-.67,.07-.94,.22s-.55,.39-.86,.73l-.78-.62c.36-.44,.75-.77,1.18-.99s.92-.33,1.46-.33,.98,.1,1.37,.31Z"/>
    <path class="cls-5" d="M266.95,222.18v.95h-1.13v2.14h-1.16v-2.14h-3.72v-.86l2.61-5.82,1,.42-2.35,5.32h2.47l.1-2.34h1.04v2.34h1.13Z"/>
    <path class="cls-5" d="M270.78,216.57v8.7h-1.2v-7.42l-2.03,1.23-.52-.84,2.69-1.66h1.05Z"/>
  </g>
  <g>
    <path class="cls-8" d="M403.39,216.51v.9l-3.25,7.93-1.09-.36,3.13-7.49h-3.85v-.98h5.06Z"/>
    <path class="cls-8" d="M407.92,216.69c.39,.21,.7,.49,.92,.85,.22,.36,.33,.76,.33,1.21,0,.53-.12,1.04-.36,1.52s-.6,1.01-1.1,1.57c-.49,.56-1.24,1.35-2.25,2.35h3.91l-.14,1h-5.13v-.95c1.16-1.2,1.98-2.09,2.47-2.65,.49-.56,.83-1.05,1.04-1.46s.31-.86,.31-1.34c0-.45-.13-.8-.39-1.06-.26-.26-.61-.38-1.04-.38-.36,0-.67,.07-.94,.22s-.55,.39-.86,.73l-.78-.62c.36-.44,.75-.77,1.18-.99s.92-.33,1.46-.33,.98,.1,1.37,.31Z"/>
  </g>
  <g>
    <path d="M10.43,49.84h-1.18l-4.84-9.29c.08,1.25,.12,2.43,.12,3.54v5.75h-.85v-10.27h1.16l4.88,9.28c-.08-1.16-.12-2.17-.12-3.04v-6.24h.85v10.27Z"/>
    <path d="M19.22,46.25h-5.24c.05,1.02,.29,1.78,.73,2.27,.44,.5,1.01,.74,1.72,.74,.41,0,.77-.06,1.09-.19,.31-.12,.66-.32,1.03-.59l.41,.56c-.39,.32-.79,.56-1.2,.72-.41,.16-.87,.24-1.37,.24-1.04,0-1.86-.35-2.45-1.06s-.88-1.7-.88-2.96c0-.83,.13-1.56,.38-2.18,.25-.62,.62-1.11,1.09-1.46,.47-.34,1.03-.52,1.66-.52,1,0,1.76,.34,2.28,1.01,.52,.68,.78,1.6,.78,2.78,0,.22-.01,.43-.03,.63Zm-.83-.9c0-.88-.18-1.57-.55-2.06-.37-.5-.91-.74-1.63-.74-.65,0-1.17,.25-1.58,.75-.4,.5-.62,1.26-.66,2.28h4.41v-.23Zm-.34-7.05l.39,.45-1.93,1.59h-.54l-1.95-1.59,.39-.45,1.83,1.26,1.82-1.26Z"/>
    <path d="M22.6,49.55c0,.68-.08,1.22-.22,1.63-.15,.41-.37,.73-.66,.98s-.7,.49-1.23,.73l-.25-.63c.38-.19,.67-.38,.88-.56,.2-.19,.36-.44,.46-.77,.1-.33,.16-.77,.16-1.34v-7.59h.87v7.56Zm.03-10.83c.12,.12,.18,.27,.18,.45s-.06,.33-.18,.45c-.12,.12-.28,.18-.48,.18-.19,0-.34-.06-.46-.18-.12-.12-.18-.27-.18-.45s.06-.33,.18-.45c.12-.12,.28-.18,.46-.18,.2,0,.36,.06,.48,.18Z"/>
    <path d="M30.81,48.98c.11,.18,.27,.31,.5,.4l-.2,.62c-.36-.07-.64-.21-.83-.41-.2-.2-.32-.5-.38-.91-.54,.88-1.36,1.32-2.45,1.32-.75,0-1.34-.21-1.78-.64-.43-.42-.65-.99-.65-1.7,0-.81,.29-1.44,.86-1.88s1.37-.66,2.39-.66h1.5v-.77c0-.63-.14-1.09-.42-1.37-.28-.28-.75-.43-1.39-.43-.6,0-1.31,.15-2.13,.45l-.23-.66c.88-.35,1.71-.52,2.48-.52,1.71,0,2.56,.83,2.56,2.49v3.78c0,.41,.05,.71,.16,.89Zm-1.03-1.06v-2.16h-1.36c-.8,0-1.41,.16-1.83,.46-.42,.31-.63,.78-.63,1.4,0,.54,.15,.96,.44,1.25s.7,.44,1.21,.44c.94,0,1.67-.46,2.17-1.38Z"/>
    <path d="M34.69,38.69v11.15h-.87v-11.04l.87-.1Zm4.4,3.3l-3.3,3.51,3.65,4.33h-1.05l-3.6-4.29,3.3-3.56h1.01Z"/>
    <path d="M43.64,49.87c-.21,.61-.44,1.11-.69,1.5-.25,.39-.58,.71-.98,.97-.4,.25-.92,.44-1.54,.56l-.09-.68c.52-.13,.93-.29,1.22-.48s.53-.43,.71-.71c.17-.28,.35-.68,.53-1.19h-.3l-2.73-7.85h.95l2.37,7.2,2.33-7.2h.92l-2.69,7.88Zm.54-11.76l.39,.78-2.93,1.28-.28-.51,2.82-1.54Z"/>
    <path d="M57.72,42.88c.47,.71,.71,1.7,.71,2.99s-.26,2.26-.77,3.01c-.51,.75-1.25,1.12-2.21,1.12-.47,0-.9-.1-1.28-.29s-.7-.46-.96-.79v3.87l-.87,.12v-10.92h.75l.08,1.14c.29-.41,.64-.73,1.06-.96s.87-.34,1.36-.34c.95,0,1.66,.35,2.14,1.06Zm-.79,5.53c.38-.57,.57-1.42,.57-2.54,0-2.22-.7-3.33-2.08-3.33-.47,0-.88,.12-1.22,.36-.34,.24-.67,.57-.98,.99v4.17c.52,.8,1.21,1.2,2.07,1.2,.72,0,1.27-.29,1.65-.85Z"/>
    <path d="M66.19,42.9c.58,.71,.88,1.71,.88,2.99s-.3,2.27-.89,3.01c-.6,.73-1.41,1.1-2.44,1.1s-1.85-.36-2.44-1.09-.88-1.72-.88-2.99c0-.83,.13-1.55,.41-2.17,.27-.62,.65-1.1,1.15-1.43s1.09-.49,1.77-.49c1.04,0,1.85,.36,2.44,1.07Zm-4.21,.52c-.42,.57-.63,1.4-.63,2.5s.21,1.92,.62,2.49c.42,.57,1,.85,1.76,.85s1.35-.29,1.78-.85c.42-.57,.64-1.41,.64-2.52s-.21-1.92-.62-2.48c-.42-.56-1.01-.85-1.78-.85s-1.35,.28-1.77,.85Z"/>
    <path d="M75.21,38.8v11.04h-.75l-.1-1.2c-.54,.91-1.33,1.37-2.36,1.37-.91,0-1.63-.36-2.15-1.09-.52-.73-.79-1.71-.79-2.96,0-.81,.12-1.52,.37-2.15s.6-1.1,1.07-1.46,1.01-.52,1.64-.52c.89,0,1.62,.35,2.21,1.06v-4.2l.87,.1Zm-1.81,10.12c.34-.24,.66-.6,.94-1.09v-4.1c-.56-.79-1.25-1.19-2.06-1.19-.71,0-1.27,.29-1.69,.89-.42,.59-.62,1.42-.61,2.5,0,1.08,.19,1.91,.57,2.48,.38,.58,.9,.86,1.58,.86,.5,0,.92-.12,1.27-.36Z"/>
    <path d="M81.96,49.51c-.5,.33-1.05,.5-1.65,.5s-1.07-.18-1.41-.53c-.34-.35-.51-.87-.51-1.54v-5.24h-1.32v-.71h1.32v-1.88l.87-.1v1.98h2.03l-.11,.71h-1.92v5.19c0,.46,.09,.8,.29,1.03,.19,.23,.48,.34,.87,.34s.8-.11,1.2-.35l.34,.6Z"/>
    <path d="M84.41,38.72c.12,.12,.18,.27,.18,.45s-.06,.33-.18,.45c-.12,.12-.28,.18-.48,.18-.19,0-.34-.06-.46-.18-.12-.12-.18-.27-.18-.45s.06-.33,.18-.45c.12-.12,.28-.18,.46-.18,.2,0,.36,.06,.48,.18Zm-.03,3.27v7.85h-.87v-7.85h.87Z"/>
    <path d="M91.13,49.51c-.5,.33-1.05,.5-1.65,.5s-1.07-.18-1.41-.53c-.34-.35-.51-.87-.51-1.54v-5.24h-1.32v-.71h1.32v-1.88l.87-.1v1.98h2.03l-.11,.71h-1.92v5.19c0,.46,.09,.8,.29,1.03,.19,.23,.48,.34,.87,.34s.8-.11,1.2-.35l.34,.6Z"/>
    <path d="M98.18,49.84h-.75l-.04-1.4c-.62,1.04-1.47,1.56-2.56,1.56-.71,0-1.26-.21-1.64-.62-.39-.42-.58-1.01-.58-1.78v-5.61h.87v5.52c0,.61,.13,1.06,.38,1.34s.64,.43,1.16,.43c.91,0,1.67-.53,2.29-1.6v-5.69h.87v7.85Z"/>
    <path d="M101.65,49.63c-.25-.25-.37-.62-.37-1.11v-9.72l.87-.1v9.79c0,.51,.21,.77,.63,.77,.21,0,.39-.04,.54-.1l.24,.65c-.28,.14-.58,.21-.9,.21-.43,0-.77-.12-1.01-.38Z"/>
    <path d="M111.08,46.25h-5.24c.05,1.02,.29,1.78,.73,2.27,.44,.5,1.01,.74,1.72,.74,.41,0,.77-.06,1.09-.19,.31-.12,.66-.32,1.03-.59l.41,.56c-.39,.32-.79,.56-1.2,.72-.41,.16-.87,.24-1.37,.24-1.04,0-1.86-.35-2.45-1.06s-.88-1.7-.88-2.96c0-.83,.13-1.56,.38-2.18,.25-.62,.62-1.11,1.09-1.46,.47-.34,1.03-.52,1.66-.52,1,0,1.76,.34,2.28,1.01,.52,.68,.78,1.6,.78,2.78,0,.22-.01,.43-.03,.63Zm-.83-.9c0-.88-.18-1.57-.55-2.06-.37-.5-.91-.74-1.63-.74-.65,0-1.17,.25-1.58,.75-.4,.5-.62,1.26-.66,2.28h4.41v-.23Z"/>
    <path d="M114.45,38.69v11.15h-.87v-11.04l.87-.1Zm4.4,3.3l-3.3,3.51,3.65,4.33h-1.05l-3.6-4.29,3.3-3.56h1.01Z"/>
    <path d="M123.84,39.7c.39,.2,.69,.47,.89,.79,.2,.33,.31,.7,.31,1.1,0,.36-.07,.67-.2,.93-.13,.26-.29,.48-.47,.65-.19,.17-.43,.36-.74,.57-.3,.21-.54,.4-.71,.56-.17,.16-.32,.36-.44,.6-.12,.24-.18,.53-.18,.85v.83h-.86v-.88c0-.42,.07-.78,.21-1.07s.31-.53,.51-.72,.46-.39,.78-.61c.4-.27,.7-.52,.89-.75,.2-.23,.29-.53,.29-.9,0-.46-.16-.82-.47-1.09-.31-.26-.73-.4-1.26-.4-.45,0-.85,.09-1.21,.26-.36,.18-.7,.46-1.04,.85l-.6-.48c.41-.47,.85-.82,1.31-1.04s.99-.34,1.58-.34c.54,0,1,.1,1.4,.3Zm-1.42,9.08c.13,.14,.2,.3,.2,.5s-.07,.37-.2,.51c-.13,.14-.31,.21-.52,.21s-.38-.07-.52-.21c-.13-.14-.2-.31-.2-.51s.07-.37,.2-.5c.14-.13,.31-.2,.52-.2s.38,.07,.52,.2Z"/>
    <path d="M132.6,48.46c0,.61-.08,1.11-.23,1.49-.16,.39-.4,.7-.73,.95-.33,.25-.79,.49-1.38,.72l-.24-.66c.46-.2,.81-.41,1.05-.62,.24-.22,.41-.47,.5-.77,.09-.29,.13-.68,.13-1.16v-8.85h.9v8.9Z"/>
    <path d="M141.32,46.25h-5.24c.05,1.02,.29,1.78,.73,2.27,.44,.5,1.01,.74,1.72,.74,.41,0,.77-.06,1.09-.19,.31-.12,.66-.32,1.03-.59l.41,.56c-.39,.32-.79,.56-1.2,.72-.41,.16-.87,.24-1.37,.24-1.04,0-1.86-.35-2.45-1.06s-.88-1.7-.88-2.96c0-.83,.13-1.56,.38-2.18,.25-.62,.62-1.11,1.09-1.46,.47-.34,1.03-.52,1.66-.52,1,0,1.76,.34,2.28,1.01,.52,.68,.78,1.6,.78,2.78,0,.22-.01,.43-.03,.63Zm-.83-.9c0-.88-.18-1.57-.55-2.06-.37-.5-.91-.74-1.63-.74-.65,0-1.17,.25-1.58,.75-.4,.5-.62,1.26-.66,2.28h4.41v-.23Z"/>
    <path d="M151.58,49.51c-.5,.33-1.05,.5-1.65,.5s-1.07-.18-1.41-.53c-.34-.35-.51-.87-.51-1.54v-5.24h-1.32v-.71h1.32v-1.88l.87-.1v1.98h2.03l-.11,.71h-1.92v5.19c0,.46,.09,.8,.29,1.03,.19,.23,.48,.34,.87,.34s.8-.11,1.2-.35l.34,.6Z"/>
    <path d="M158.08,42.9c.58,.71,.88,1.71,.88,2.99s-.3,2.27-.89,3.01c-.6,.73-1.41,1.1-2.44,1.1s-1.85-.36-2.44-1.09-.88-1.72-.88-2.99c0-.83,.13-1.55,.41-2.17,.27-.62,.65-1.1,1.15-1.43s1.09-.49,1.77-.49c1.04,0,1.85,.36,2.44,1.07Zm-4.21,.52c-.42,.57-.63,1.4-.63,2.5s.21,1.92,.62,2.49c.42,.57,1,.85,1.76,.85s1.35-.29,1.78-.85c.42-.57,.64-1.41,.64-2.52s-.21-1.92-.62-2.48c-.42-.56-1.01-.85-1.78-.85s-1.35,.28-1.77,.85Z"/>
    <path d="M170.83,42.9c.58,.71,.88,1.71,.88,2.99s-.3,2.27-.89,3.01c-.6,.73-1.41,1.1-2.44,1.1s-1.85-.36-2.44-1.09-.88-1.72-.88-2.99c0-.83,.13-1.55,.41-2.17,.27-.62,.65-1.1,1.15-1.43s1.09-.49,1.77-.49c1.04,0,1.85,.36,2.44,1.07Zm-4.21,.52c-.42,.57-.63,1.4-.63,2.5s.21,1.92,.62,2.49c.42,.57,1,.85,1.76,.85s1.35-.29,1.78-.85c.42-.57,.64-1.41,.64-2.52s-.21-1.92-.62-2.48c-.42-.56-1.01-.85-1.78-.85s-1.35,.28-1.77,.85Z"/>
    <path d="M179.85,38.8v11.04h-.75l-.1-1.2c-.54,.91-1.33,1.37-2.36,1.37-.91,0-1.63-.36-2.15-1.09-.52-.73-.79-1.71-.79-2.96,0-.81,.12-1.52,.37-2.15s.6-1.1,1.07-1.46,1.01-.52,1.64-.52c.89,0,1.62,.35,2.21,1.06v-4.2l.87,.1Zm-1.81,10.12c.34-.24,.66-.6,.94-1.09v-4.1c-.56-.79-1.25-1.19-2.06-1.19-.71,0-1.27,.29-1.69,.89-.42,.59-.62,1.42-.61,2.5,0,1.08,.19,1.91,.57,2.48,.38,.58,.9,.86,1.58,.86,.5,0,.92-.12,1.27-.36Z"/>
    <path d="M191.04,41.92l-.17,.82c-.22-.06-.45-.09-.69-.09-.53,0-.96,.19-1.28,.58s-.6,.99-.82,1.81v4.8h-.87v-7.85h.75l.08,1.76c.21-.65,.5-1.13,.86-1.45s.82-.47,1.36-.47c.31,0,.57,.03,.78,.09Z"/>
    <path d="M197.5,42.9c.58,.71,.88,1.71,.88,2.99s-.3,2.27-.89,3.01c-.6,.73-1.41,1.1-2.44,1.1s-1.85-.36-2.44-1.09-.88-1.72-.88-2.99c0-.83,.13-1.55,.41-2.17,.27-.62,.65-1.1,1.15-1.43s1.09-.49,1.77-.49c1.04,0,1.85,.36,2.44,1.07Zm-4.21,.52c-.42,.57-.63,1.4-.63,2.5s.21,1.92,.62,2.49c.42,.57,1,.85,1.76,.85s1.35-.29,1.78-.85c.42-.57,.64-1.41,.64-2.52s-.21-1.92-.62-2.48c-.42-.56-1.01-.85-1.78-.85s-1.35,.28-1.77,.85Z"/>
    <path d="M201.8,38.69v11.15h-.87v-11.04l.87-.1Zm4.4,3.3l-3.3,3.51,3.65,4.33h-1.05l-3.6-4.29,3.3-3.56h1.01Z"/>
    <path d="M213.66,49.84h-.75l-.04-1.4c-.62,1.04-1.47,1.56-2.56,1.56-.71,0-1.26-.21-1.64-.62-.39-.42-.58-1.01-.58-1.78v-5.61h.87v5.52c0,.61,.13,1.06,.38,1.34s.64,.43,1.16,.43c.91,0,1.67-.53,2.29-1.6v-5.69h.87v7.85Z"/>
    <path d="M223.82,39.86v9.98h-.87v-9.02l-2.46,1.53-.41-.65,2.99-1.85h.75Z"/>
    <path d="M231.73,40.75c.5,.71,.76,1.69,.76,2.96s-.19,2.35-.56,3.17c-.37,.82-.91,1.48-1.63,1.96-.72,.49-1.66,.92-2.83,1.28l-.22-.68c1.38-.42,2.43-.99,3.16-1.73,.72-.73,1.12-1.73,1.19-3-.3,.44-.66,.78-1.08,1.03s-.88,.37-1.38,.37-.98-.13-1.39-.38-.73-.62-.97-1.09c-.24-.48-.35-1.03-.35-1.67s.13-1.24,.4-1.73,.63-.88,1.09-1.14c.46-.26,.97-.4,1.54-.4,1.01,0,1.77,.35,2.27,1.06Zm-1.17,4.26c.38-.26,.72-.63,1.04-1.12,0-1.19-.16-2.07-.5-2.63s-.88-.85-1.62-.85c-.67,0-1.2,.22-1.58,.67s-.58,1.08-.58,1.9c0,.77,.18,1.36,.53,1.79,.35,.42,.83,.63,1.43,.63,.47,0,.89-.13,1.27-.38Z"/>
    <path d="M239.5,40.75c.5,.71,.76,1.69,.76,2.96s-.19,2.35-.56,3.17c-.37,.82-.91,1.48-1.63,1.96-.72,.49-1.66,.92-2.83,1.28l-.22-.68c1.38-.42,2.43-.99,3.16-1.73,.72-.73,1.12-1.73,1.19-3-.3,.44-.66,.78-1.08,1.03s-.88,.37-1.38,.37-.98-.13-1.39-.38-.73-.62-.97-1.09c-.24-.48-.35-1.03-.35-1.67s.13-1.24,.4-1.73,.63-.88,1.09-1.14c.46-.26,.97-.4,1.54-.4,1.01,0,1.77,.35,2.27,1.06Zm-1.17,4.26c.38-.26,.72-.63,1.04-1.12,0-1.19-.16-2.07-.5-2.63s-.88-.85-1.62-.85c-.67,0-1.2,.22-1.58,.67s-.58,1.08-.58,1.9c0,.77,.18,1.36,.53,1.79,.35,.42,.83,.63,1.43,.63,.47,0,.89-.13,1.27-.38Z"/>
    <path d="M245.65,40.03c.42,.22,.73,.52,.95,.89,.22,.38,.33,.8,.33,1.27,0,.65-.18,1.18-.55,1.58-.37,.4-.84,.66-1.42,.76,.65,.03,1.19,.26,1.61,.7,.43,.43,.64,1.03,.64,1.79,0,.58-.13,1.09-.39,1.54-.26,.45-.63,.8-1.12,1.06-.49,.25-1.04,.38-1.67,.38-1.16,0-2.12-.43-2.87-1.29l.56-.5c.34,.37,.69,.64,1.06,.8s.77,.25,1.22,.25c.72,0,1.29-.21,1.7-.62,.41-.41,.62-.95,.62-1.62,0-1.4-.75-2.1-2.25-2.1h-.66l.12-.71h.48c.57,0,1.05-.17,1.46-.52,.4-.35,.6-.84,.6-1.48,0-.55-.18-.99-.53-1.31-.35-.32-.82-.49-1.4-.49-.42,0-.8,.07-1.15,.22-.35,.15-.71,.38-1.07,.71l-.46-.54c.4-.38,.82-.66,1.26-.85,.44-.19,.93-.28,1.47-.28s1.05,.11,1.46,.33Z"/>
  </g>
</svg>