<?xml version="1.0" encoding="UTF-8"?>
<svg id="Layer_1" data-name="Layer 1" xmlns="http://www.w3.org/2000/svg" viewBox="0 0 403 281.85">
  <defs>
    <style>
      .cls-1 {
        fill: none;
        stroke: #c9ced1;
        stroke-linejoin: round;
      }

      .cls-2 {
        fill: #fff;
      }

      .cls-3 {
        fill: #7d8d9c;
      }

      .cls-4 {
        fill: #818d95;
      }

      .cls-5 {
        fill: #bcc9d1;
      }

      .cls-6 {
        fill: #c9ced1;
      }

      .cls-7 {
        fill: #3e5768;
      }

      .cls-8 {
        fill: #46494c;
      }

      .cls-9 {
        fill: #4c5c68;
      }

      .cls-10 {
        opacity: .8;
      }
    </style>
  </defs>
  <rect class="cls-2" x="-1389.37" y="-1782.62" width="4405.95" height="4096.65"/>
  <g>
    <path class="cls-4" d="M327.3,62.94c.19,.19,.28,.41,.28,.68s-.09,.5-.28,.68c-.19,.18-.43,.27-.73,.27s-.53-.09-.72-.27c-.19-.18-.28-.41-.28-.68s.09-.5,.28-.68c.19-.19,.43-.28,.72-.28s.54,.09,.73,.28Zm.08,3.03v6.52h-1.6v-6.52h1.6Z"/>
    <path class="cls-4" d="M334.23,66.31c.33,.35,.5,.84,.5,1.46v4.72h-1.6v-4.48c0-.39-.07-.66-.21-.81-.14-.16-.34-.23-.61-.23s-.52,.08-.75,.25-.44,.41-.65,.73v4.54h-1.6v-6.52h1.39l.12,.85c.54-.69,1.22-1.04,2.02-1.04,.59,0,1.06,.17,1.39,.52Z"/>
    <path class="cls-4" d="M348.04,66.32c.32,.36,.48,.84,.48,1.45v4.72h-1.6v-4.48c0-.7-.24-1.05-.73-1.05-.26,0-.48,.08-.67,.24-.19,.16-.38,.41-.58,.75v4.54h-1.6v-4.48c0-.7-.24-1.05-.73-1.05-.27,0-.5,.08-.68,.24-.19,.16-.38,.41-.58,.75v4.54h-1.6v-6.52h1.39l.12,.85c.5-.69,1.14-1.04,1.92-1.04,.38,0,.72,.1,1,.29,.28,.19,.48,.46,.61,.81,.27-.35,.56-.62,.88-.81,.32-.19,.69-.28,1.11-.28,.54,0,.96,.18,1.28,.54Z"/>
    <path class="cls-4" d="M355.78,69.72h-4.16c.05,.63,.22,1.08,.5,1.36,.28,.27,.66,.41,1.13,.41,.29,0,.57-.05,.83-.14s.54-.24,.83-.44l.67,.9c-.74,.58-1.55,.88-2.46,.88-1.01,0-1.79-.3-2.34-.91-.55-.61-.82-1.44-.82-2.49,0-.67,.12-1.26,.35-1.79,.23-.53,.57-.94,1.02-1.25,.44-.3,.97-.45,1.58-.45,.93,0,1.65,.29,2.16,.87s.76,1.39,.76,2.42c0,.08-.01,.3-.04,.64Zm-1.55-1.1c0-1.14-.43-1.71-1.29-1.71-.39,0-.7,.14-.92,.43s-.35,.74-.39,1.36h2.61v-.07Z"/>
    <path class="cls-4" d="M365.57,66.32c.32,.36,.48,.84,.48,1.45v4.72h-1.6v-4.48c0-.7-.24-1.05-.73-1.05-.26,0-.48,.08-.67,.24-.19,.16-.38,.41-.58,.75v4.54h-1.6v-4.48c0-.7-.24-1.05-.73-1.05-.27,0-.5,.08-.68,.24-.19,.16-.38,.41-.58,.75v4.54h-1.6v-6.52h1.39l.12,.85c.5-.69,1.14-1.04,1.92-1.04,.38,0,.72,.1,1,.29,.28,.19,.48,.46,.61,.81,.27-.35,.56-.62,.88-.81,.32-.19,.69-.28,1.11-.28,.54,0,.96,.18,1.28,.54Z"/>
    <path class="cls-4" d="M372.91,66.7c.55,.61,.82,1.45,.82,2.52,0,.68-.12,1.28-.38,1.81-.25,.52-.61,.93-1.08,1.21-.47,.29-1.02,.43-1.67,.43-.98,0-1.74-.31-2.29-.92-.55-.61-.83-1.46-.83-2.53,0-.68,.12-1.28,.38-1.8,.25-.52,.61-.92,1.08-1.21s1.03-.43,1.67-.43c.98,0,1.74,.31,2.29,.92Zm-3.73,2.52c0,.77,.12,1.34,.36,1.71,.24,.37,.6,.55,1.07,.55s.83-.19,1.07-.55c.24-.37,.36-.94,.36-1.7s-.12-1.33-.36-1.7c-.24-.37-.59-.55-1.06-.55-.96,0-1.44,.75-1.44,2.24Z"/>
    <path class="cls-4" d="M379.17,65.88l-.28,1.53c-.2-.05-.4-.07-.59-.07-.39,0-.7,.14-.93,.41s-.41,.7-.54,1.26v3.48h-1.6v-6.52h1.39l.15,1.28c.16-.47,.39-.83,.69-1.08,.3-.25,.65-.38,1.04-.38,.24,0,.46,.03,.66,.09Z"/>
    <path class="cls-4" d="M381.7,62.94c.19,.19,.28,.41,.28,.68s-.09,.5-.28,.68c-.19,.18-.43,.27-.73,.27s-.53-.09-.72-.27c-.19-.18-.28-.41-.28-.68s.09-.5,.28-.68c.19-.19,.43-.28,.72-.28s.54,.09,.73,.28Zm.08,3.03v6.52h-1.6v-6.52h1.6Z"/>
    <path class="cls-4" d="M388.73,71.33c.08,.12,.21,.21,.38,.28l-.34,1.05c-.38-.03-.68-.12-.92-.27s-.42-.37-.54-.68c-.23,.33-.51,.57-.85,.73-.34,.16-.72,.24-1.13,.24-.66,0-1.18-.19-1.57-.56-.38-.37-.58-.85-.58-1.46,0-.71,.26-1.25,.78-1.62,.52-.37,1.27-.56,2.24-.56h.83v-.37c0-.42-.1-.71-.29-.88-.2-.17-.51-.25-.95-.25-.49,0-1.07,.12-1.75,.35l-.38-1.07c.83-.31,1.63-.47,2.41-.47,1.7,0,2.54,.75,2.54,2.24v2.74c0,.26,.04,.44,.12,.56Zm-1.7-.6v-1.32h-.66c-1.04,0-1.55,.38-1.55,1.13,0,.31,.08,.55,.24,.73,.16,.17,.39,.26,.7,.26,.54,0,.97-.27,1.28-.8Z"/>
    <path class="cls-4" d="M398.86,66.32c.32,.36,.48,.84,.48,1.45v4.72h-1.6v-4.48c0-.7-.24-1.05-.73-1.05-.26,0-.48,.08-.67,.24-.19,.16-.38,.41-.58,.75v4.54h-1.6v-4.48c0-.7-.24-1.05-.73-1.05-.27,0-.5,.08-.68,.24-.19,.16-.38,.41-.58,.75v4.54h-1.6v-6.52h1.39l.12,.85c.5-.69,1.14-1.04,1.92-1.04,.38,0,.72,.1,1,.29,.28,.19,.48,.46,.61,.81,.27-.35,.56-.62,.88-.81,.32-.19,.69-.28,1.11-.28,.54,0,.96,.18,1.28,.54Z"/>
  </g>
  <g>
    <path class="cls-9" d="M91.16,66.16v1.13l-3.21,4.16h3.27l-.16,1.23h-4.95v-1.13l3.22-4.16h-2.95v-1.23h4.78Zm-.81-3.34l.61,.69-1.74,1.54h-1l-1.74-1.54,.61-.69,1.63,1.08,1.63-1.08Z"/>
    <path class="cls-9" d="M94,63.13c.19,.19,.28,.41,.28,.68s-.09,.5-.28,.68c-.19,.18-.43,.27-.73,.27s-.53-.09-.72-.27c-.19-.18-.28-.41-.28-.68s.09-.5,.28-.68c.19-.19,.43-.28,.72-.28s.54,.09,.73,.28Zm.08,3.03v6.52h-1.6v-6.52h1.6Z"/>
    <path class="cls-9" d="M97.61,72.1c0,.64-.09,1.17-.28,1.57-.19,.41-.45,.73-.8,.98s-.79,.48-1.34,.7l-.51-1.15c.33-.15,.58-.29,.76-.44,.18-.14,.32-.34,.42-.59,.1-.25,.14-.58,.14-.99v-6.04h1.6v5.94Zm-.08-8.97c.19,.19,.28,.41,.28,.68s-.09,.5-.28,.68c-.19,.18-.43,.27-.73,.27s-.53-.09-.72-.27c-.19-.18-.28-.41-.28-.68s.09-.5,.28-.68c.19-.19,.43-.28,.72-.28s.54,.09,.73,.28Z"/>
    <path class="cls-9" d="M101.49,62.57l.65,1.23-2.83,1.11-.45-.8,2.63-1.54Zm-.15,3.59v6.52h-1.6v-6.52h1.6Z"/>
    <path class="cls-9" d="M107.11,66.16c.35,.12,.67,.32,.98,.58l-.71,.95c-.23-.16-.44-.28-.65-.36-.21-.07-.44-.11-.69-.11-1,0-1.49,.74-1.49,2.23,0,.76,.13,1.3,.39,1.63,.26,.33,.63,.5,1.1,.5,.23,0,.45-.04,.65-.11,.2-.07,.43-.19,.7-.36l.71,1c-.63,.5-1.34,.75-2.14,.75-.64,0-1.19-.14-1.65-.41-.47-.28-.83-.67-1.08-1.18s-.38-1.11-.38-1.8,.12-1.3,.38-1.83,.61-.94,1.08-1.23c.47-.29,1.01-.44,1.64-.44,.43,0,.83,.06,1.17,.19Z"/>
    <path class="cls-9" d="M111.02,62.57l.65,1.23-2.83,1.11-.45-.8,2.63-1.54Zm-.15,3.59v6.52h-1.6v-6.52h1.6Z"/>
    <path class="cls-9" d="M121.11,66.51c.32,.36,.48,.84,.48,1.45v4.72h-1.6v-4.48c0-.7-.24-1.05-.73-1.05-.26,0-.48,.08-.67,.24-.19,.16-.38,.41-.58,.75v4.54h-1.6v-4.48c0-.7-.24-1.05-.73-1.05-.27,0-.5,.08-.68,.24-.19,.16-.38,.41-.58,.75v4.54h-1.6v-6.52h1.39l.12,.85c.5-.69,1.14-1.04,1.92-1.04,.38,0,.72,.1,1,.29,.28,.19,.48,.46,.61,.81,.27-.35,.56-.62,.88-.81,.32-.19,.69-.28,1.11-.28,.54,0,.96,.18,1.28,.54Z"/>
  </g>
  <g class="cls-10">
    <line class="cls-1" x1="86.77" y1="224.42" x2="86.77" y2="98.74"/>
    <line class="cls-1" x1="209.69" y1="224.42" x2="209.69" y2="98.74"/>
    <line class="cls-1" x1="332.61" y1="224.42" x2="332.61" y2="98.74"/>
  </g>
  <path class="cls-9" d="M88.6,230.08c.41,.63,.61,1.54,.61,2.74s-.21,2.11-.61,2.75c-.41,.63-1.02,.95-1.82,.95s-1.41-.32-1.82-.95c-.41-.63-.61-1.55-.61-2.75s.2-2.11,.61-2.74,1.02-.95,1.82-.95,1.41,.31,1.82,.95Zm-2.87,.52c-.23,.46-.34,1.2-.34,2.22s.11,1.77,.34,2.23c.23,.46,.58,.69,1.05,.69s.81-.23,1.04-.69c.23-.46,.35-1.2,.35-2.23s-.12-1.76-.35-2.22c-.23-.46-.58-.69-1.04-.69s-.82,.23-1.05,.68Z"/>
  <g>
    <path class="cls-9" d="M207.31,229.39c.33,.17,.58,.4,.77,.7,.18,.3,.27,.63,.27,1,0,.43-.1,.85-.3,1.25-.2,.4-.5,.83-.92,1.29-.41,.46-1.04,1.11-1.88,1.93h3.27l-.12,.82h-4.29v-.78c.97-.99,1.66-1.71,2.06-2.17,.41-.46,.7-.86,.87-1.2s.26-.71,.26-1.1c0-.37-.11-.66-.33-.87-.22-.21-.51-.32-.87-.32-.3,0-.56,.06-.78,.18-.22,.12-.46,.32-.72,.6l-.65-.51c.3-.36,.63-.63,.99-.81,.36-.18,.77-.27,1.22-.27s.82,.08,1.15,.26Z"/>
    <path class="cls-9" d="M213.91,230.08c.41,.63,.61,1.54,.61,2.74s-.21,2.11-.61,2.75c-.41,.63-1.02,.95-1.82,.95s-1.41-.32-1.82-.95c-.41-.63-.61-1.55-.61-2.75s.2-2.11,.61-2.74,1.02-.95,1.82-.95,1.41,.31,1.82,.95Zm-2.87,.52c-.23,.46-.34,1.2-.34,2.22s.11,1.77,.34,2.23c.23,.46,.58,.69,1.05,.69s.81-.23,1.04-.69c.23-.46,.35-1.2,.35-2.23s-.12-1.76-.35-2.22c-.23-.46-.58-.69-1.04-.69s-.82,.23-1.05,.68Z"/>
    <path class="cls-9" d="M219.97,230.08c.41,.63,.61,1.54,.61,2.74s-.21,2.11-.61,2.75c-.41,.63-1.02,.95-1.82,.95s-1.41-.32-1.82-.95c-.41-.63-.61-1.55-.61-2.75s.2-2.11,.61-2.74,1.02-.95,1.82-.95,1.41,.31,1.82,.95Zm-2.87,.52c-.23,.46-.34,1.2-.34,2.22s.11,1.77,.34,2.23c.23,.46,.58,.69,1.05,.69s.81-.23,1.04-.69c.23-.46,.35-1.2,.35-2.23s-.12-1.76-.35-2.22c-.23-.46-.58-.69-1.04-.69s-.82,.23-1.05,.68Z"/>
  </g>
  <g>
    <path class="cls-9" d="M329.18,233.84v.78h-.93v1.76h-.95v-1.76h-3.06v-.71l2.15-4.79,.82,.34-1.93,4.37h2.03l.09-1.92h.85v1.92h.93Z"/>
    <path class="cls-9" d="M334.27,230.08c.4,.63,.6,1.54,.6,2.74s-.2,2.11-.6,2.75c-.4,.63-1,.95-1.79,.95s-1.39-.32-1.79-.95c-.4-.63-.6-1.55-.6-2.75s.2-2.11,.6-2.74,1-.95,1.79-.95,1.39,.31,1.79,.95Zm-2.82,.52c-.22,.46-.34,1.2-.34,2.22s.11,1.77,.34,2.23c.22,.46,.57,.69,1.03,.69s.8-.23,1.03-.69c.23-.46,.34-1.2,.34-2.23s-.11-1.76-.34-2.22c-.23-.46-.57-.69-1.03-.69s-.81,.23-1.03,.68Z"/>
    <path class="cls-9" d="M340.24,230.08c.4,.63,.6,1.54,.6,2.74s-.2,2.11-.6,2.75c-.4,.63-1,.95-1.79,.95s-1.39-.32-1.79-.95c-.4-.63-.6-1.55-.6-2.75s.2-2.11,.6-2.74,1-.95,1.79-.95,1.39,.31,1.79,.95Zm-2.82,.52c-.22,.46-.34,1.2-.34,2.22s.11,1.77,.34,2.23c.22,.46,.57,.69,1.03,.69s.8-.23,1.03-.69c.23-.46,.34-1.2,.34-2.23s-.11-1.76-.34-2.22c-.23-.46-.57-.69-1.03-.69s-.81,.23-1.03,.68Z"/>
  </g>
  <g>
    <path class="cls-8" d="M54.53,90.01v-3.71h-2.95v3.71h-1.58v-8.29h1.58v3.32h2.95v-3.32h1.6v8.29h-1.6Z"/>
    <path class="cls-8" d="M62.81,88.87c.08,.12,.2,.21,.37,.27l-.32,1.02c-.36-.03-.65-.12-.88-.26-.23-.14-.4-.36-.52-.66-.22,.32-.49,.56-.81,.71-.32,.16-.69,.23-1.09,.23-.63,0-1.13-.18-1.5-.54-.37-.36-.55-.83-.55-1.42,0-.69,.25-1.21,.75-1.58,.5-.36,1.21-.55,2.14-.55h.79v-.36c0-.41-.09-.69-.28-.86-.19-.16-.49-.25-.91-.25-.46,0-1.02,.11-1.68,.34l-.36-1.04c.79-.3,1.56-.46,2.3-.46,1.62,0,2.44,.73,2.44,2.18v2.66c0,.25,.04,.43,.11,.55Zm-1.63-.58v-1.28h-.64c-.99,0-1.49,.37-1.49,1.1,0,.3,.08,.54,.23,.71s.38,.25,.67,.25c.52,0,.93-.26,1.22-.78Z"/>
    <path class="cls-8" d="M69.48,83.66l-2.06,6.35h-1.84l-2.1-6.35h1.67l1.36,5.11,1.39-5.11h1.58Z"/>
    <path class="cls-8" d="M75.53,87.31h-3.98c.05,.62,.21,1.06,.48,1.32,.27,.26,.63,.4,1.08,.4,.28,0,.54-.05,.79-.14,.25-.09,.51-.23,.79-.43l.64,.88c-.7,.57-1.49,.85-2.35,.85-.97,0-1.71-.3-2.24-.89-.52-.59-.79-1.4-.79-2.42,0-.65,.11-1.23,.34-1.75,.22-.52,.55-.92,.97-1.21,.42-.29,.93-.44,1.51-.44,.89,0,1.58,.28,2.06,.85,.49,.56,.73,1.35,.73,2.36,0,.08-.01,.29-.04,.62Zm-1.49-1.07c0-1.11-.41-1.67-1.24-1.67-.38,0-.67,.14-.88,.41s-.34,.72-.38,1.33h2.5v-.07Z"/>
    <path class="cls-8" d="M77.3,89.76c-.28-.28-.41-.69-.41-1.21v-7.44l1.54-.17v7.56c0,.3,.12,.44,.36,.44,.12,0,.24-.02,.36-.06l.32,1.08c-.32,.14-.66,.22-1.02,.22-.49,0-.87-.14-1.15-.43Z"/>
  </g>
  <g>
    <g>
      <path class="cls-8" d="M48.62,192v1.22l-3.83,5.77h3.86l-.17,1.3h-5.54v-1.21l3.9-5.82h-3.5v-1.26h5.28Z"/>
      <path class="cls-8" d="M54.92,197.59h-3.98c.05,.62,.21,1.06,.48,1.32,.27,.26,.63,.4,1.08,.4,.28,0,.54-.05,.79-.14s.51-.23,.79-.43l.64,.88c-.7,.57-1.49,.85-2.35,.85-.97,0-1.71-.3-2.24-.89-.52-.59-.79-1.4-.79-2.42,0-.65,.11-1.23,.34-1.75,.22-.52,.55-.92,.97-1.21,.42-.29,.93-.44,1.51-.44,.89,0,1.58,.28,2.06,.85,.49,.56,.73,1.35,.73,2.36,0,.08-.01,.29-.04,.62Zm-1.49-1.07c0-1.11-.41-1.67-1.24-1.67-.38,0-.67,.14-.88,.41-.21,.28-.34,.72-.38,1.33h2.5v-.07Z"/>
      <path class="cls-8" d="M64.29,194.28c.3,.35,.46,.82,.46,1.41v4.6h-1.54v-4.36c0-.68-.23-1.02-.7-1.02-.25,0-.46,.08-.64,.23-.18,.16-.37,.4-.56,.73v4.42h-1.54v-4.36c0-.68-.23-1.02-.7-1.02-.26,0-.47,.08-.65,.23-.18,.16-.37,.4-.56,.73v4.42h-1.54v-6.35h1.33l.12,.83c.48-.67,1.09-1.01,1.84-1.01,.37,0,.69,.09,.95,.28,.27,.19,.46,.45,.58,.79,.26-.34,.54-.61,.85-.79,.31-.18,.66-.28,1.06-.28,.51,0,.92,.17,1.22,.52Z"/>
      <path class="cls-8" d="M71.34,199.16c.08,.12,.2,.21,.37,.27l-.32,1.02c-.36-.03-.65-.12-.88-.26-.23-.14-.4-.36-.52-.66-.22,.32-.49,.56-.81,.71-.32,.16-.69,.23-1.09,.23-.63,0-1.13-.18-1.5-.54-.37-.36-.55-.83-.55-1.42,0-.69,.25-1.21,.75-1.58,.5-.36,1.21-.55,2.14-.55h.79v-.36c0-.41-.09-.69-.28-.86-.19-.16-.49-.25-.91-.25-.46,0-1.02,.11-1.68,.34l-.36-1.04c.79-.3,1.56-.46,2.3-.46,1.62,0,2.44,.73,2.44,2.18v2.66c0,.25,.04,.43,.11,.55Zm-1.63-.58v-1.28h-.64c-.99,0-1.49,.37-1.49,1.1,0,.3,.08,.54,.23,.71,.15,.17,.38,.25,.67,.25,.52,0,.93-.26,1.22-.78Z"/>
      <path class="cls-8" d="M77.8,194.27c.32,.34,.47,.81,.47,1.42v4.6h-1.54v-4.36c0-.38-.07-.64-.2-.79-.13-.15-.33-.23-.58-.23s-.5,.08-.71,.25-.42,.4-.62,.71v4.42h-1.54v-6.35h1.33l.12,.83c.52-.67,1.16-1.01,1.93-1.01,.57,0,1.01,.17,1.33,.51Z"/>
    </g>
    <g>
      <path class="cls-8" d="M6.04,207.65c.3,.15,.52,.36,.68,.62,.16,.26,.24,.54,.24,.85,0,.41-.12,.74-.36,1s-.55,.44-.95,.54c.45,.04,.81,.2,1.09,.48s.42,.66,.42,1.14c0,.39-.09,.74-.28,1.05s-.45,.56-.8,.74c-.35,.18-.75,.26-1.2,.26-.41,0-.78-.08-1.12-.23-.34-.15-.64-.38-.89-.67l.55-.51c.22,.23,.44,.39,.67,.5s.48,.16,.75,.16c.42,0,.75-.12,.99-.36,.24-.24,.36-.55,.36-.96,0-.44-.11-.75-.34-.93s-.56-.27-.99-.27h-.5l.11-.71h.34c.35,0,.64-.1,.87-.31,.23-.21,.34-.5,.34-.87,0-.31-.1-.56-.3-.75-.2-.18-.47-.27-.81-.27-.26,0-.5,.05-.71,.14-.22,.09-.44,.25-.67,.46l-.48-.55c.57-.53,1.2-.79,1.91-.79,.41,0,.77,.08,1.07,.23Z"/>
      <path class="cls-8" d="M11.8,208.11c.37,.46,.55,1.1,.55,1.9,0,.91-.12,1.65-.37,2.21s-.62,1-1.13,1.33-1.19,.62-2.06,.88l-.21-.69c.89-.25,1.58-.6,2.05-1.03s.73-1.01,.76-1.73c-.15,.24-.36,.43-.62,.58-.26,.15-.55,.22-.88,.22-.35,0-.66-.09-.94-.27-.28-.18-.5-.43-.67-.75-.16-.32-.25-.7-.25-1.13s.1-.85,.29-1.18c.19-.33,.45-.59,.77-.77,.32-.18,.68-.26,1.08-.26,.71,0,1.24,.23,1.61,.7Zm-.38,2.11c.01-.74-.08-1.27-.28-1.59s-.51-.48-.93-.48c-.39,0-.7,.13-.91,.39-.21,.26-.32,.63-.32,1.11s.1,.82,.3,1.05c.2,.24,.47,.35,.81,.35,.53,0,.97-.28,1.33-.83Z"/>
      <path class="cls-8" d="M15.88,207.52v6.69h-.92v-5.71l-1.56,.95-.4-.65,2.07-1.28h.81Z"/>
      <path class="cls-8" d="M24.45,208.94l-1.79,5.27h-1.11l-1.82-5.27h1l1.38,4.45,1.37-4.45h.97Z"/>
      <path class="cls-8" d="M27.61,214.24c-.21,.61-.49,1.1-.86,1.46-.37,.36-.9,.57-1.58,.64l-.1-.72c.35-.06,.62-.15,.83-.26,.21-.11,.37-.26,.5-.44s.24-.42,.34-.71h-.31l-1.77-5.27h.98l1.41,4.6,1.38-4.6h.95l-1.76,5.3Z"/>
      <path class="cls-8" d="M33.51,208.94v.7l-2.75,3.8h2.78l-.11,.77h-3.71v-.69l2.74-3.8h-2.51v-.78h3.56Z"/>
      <path class="cls-8" d="M38.39,209.25c.27,.29,.41,.68,.41,1.18v3.78h-.92v-3.65c0-.37-.07-.64-.21-.79-.14-.15-.35-.23-.62-.23s-.53,.08-.74,.24c-.21,.16-.41,.39-.6,.69v3.74h-.92v-5.27h.79l.08,.78c.19-.28,.42-.5,.69-.66,.28-.16,.58-.24,.92-.24,.48,0,.86,.14,1.12,.43Z"/>
      <path class="cls-8" d="M44.31,213.45c.07,.1,.18,.18,.33,.24l-.21,.64c-.27-.03-.49-.11-.66-.23-.17-.12-.29-.31-.37-.56-.35,.53-.88,.79-1.57,.79-.52,0-.93-.15-1.23-.44-.3-.29-.45-.68-.45-1.15,0-.56,.2-.99,.6-1.29s.98-.45,1.71-.45h.81v-.39c0-.37-.09-.64-.27-.8-.18-.16-.46-.24-.83-.24s-.86,.09-1.42,.28l-.23-.67c.65-.24,1.26-.36,1.82-.36,.62,0,1.08,.15,1.39,.46,.31,.3,.46,.73,.46,1.29v2.41c0,.21,.04,.37,.11,.48Zm-1.03-.63v-1.21h-.69c-.97,0-1.46,.36-1.46,1.08,0,.31,.08,.55,.23,.71,.15,.16,.38,.24,.68,.24,.53,0,.94-.27,1.24-.82Z"/>
      <path class="cls-8" d="M52.42,209.25c.26,.29,.39,.68,.39,1.17v3.78h-.92v-3.65c0-.68-.25-1.02-.74-1.02-.26,0-.48,.08-.66,.22-.18,.15-.37,.39-.58,.71v3.74h-.92v-3.65c0-.68-.25-1.02-.74-1.02-.27,0-.49,.08-.67,.23-.18,.15-.37,.39-.57,.7v3.74h-.92v-5.27h.79l.08,.77c.39-.59,.9-.89,1.52-.89,.33,0,.61,.08,.83,.25,.23,.17,.4,.4,.5,.7,.21-.31,.44-.54,.69-.7,.25-.16,.54-.25,.88-.25,.43,0,.78,.14,1.04,.43Z"/>
      <path class="cls-8" d="M58.62,211.89h-3.36c.04,.58,.19,1.01,.44,1.28,.25,.27,.58,.41,.98,.41,.25,0,.49-.04,.7-.11s.44-.19,.67-.35l.4,.55c-.56,.44-1.17,.66-1.84,.66-.73,0-1.31-.24-1.72-.72-.41-.48-.61-1.14-.61-1.98,0-.55,.09-1.03,.26-1.46,.18-.42,.43-.75,.76-1,.33-.24,.72-.36,1.17-.36,.7,0,1.24,.23,1.61,.69,.37,.46,.56,1.1,.56,1.91,0,.15,0,.31-.02,.47Zm-.89-.74c0-.52-.1-.92-.31-1.19s-.52-.41-.93-.41c-.75,0-1.16,.55-1.23,1.66h2.47v-.06Z"/>
      <path class="cls-8" d="M63.71,209.25c.27,.29,.41,.68,.41,1.18v3.78h-.92v-3.65c0-.37-.07-.64-.21-.79-.14-.15-.35-.23-.62-.23s-.53,.08-.74,.24c-.21,.16-.41,.39-.6,.69v3.74h-.92v-5.27h.79l.08,.78c.19-.28,.42-.5,.69-.66,.28-.16,.58-.24,.92-.24,.48,0,.86,.14,1.12,.43Z"/>
      <path class="cls-8" d="M69.63,213.45c.07,.1,.18,.18,.33,.24l-.21,.64c-.27-.03-.49-.11-.66-.23-.17-.12-.29-.31-.37-.56-.35,.53-.88,.79-1.57,.79-.52,0-.93-.15-1.23-.44-.3-.29-.45-.68-.45-1.15,0-.56,.2-.99,.6-1.29s.98-.45,1.71-.45h.81v-.39c0-.37-.09-.64-.27-.8-.18-.16-.46-.24-.83-.24s-.86,.09-1.42,.28l-.23-.67c.65-.24,1.26-.36,1.82-.36,.62,0,1.08,.15,1.39,.46,.31,.3,.46,.73,.46,1.29v2.41c0,.21,.04,.37,.11,.48Zm-1.21-7.25l.41,.77-2.12,.86-.28-.49,1.99-1.14Zm.18,6.62v-1.21h-.69c-.97,0-1.46,.36-1.46,1.08,0,.31,.08,.55,.23,.71,.15,.16,.38,.24,.68,.24,.53,0,.94-.27,1.24-.82Z"/>
      <path class="cls-8" d="M75.01,209.25c.27,.29,.41,.68,.41,1.18v3.78h-.92v-3.65c0-.37-.07-.64-.21-.79-.14-.15-.35-.23-.62-.23s-.53,.08-.74,.24c-.21,.16-.41,.39-.6,.69v3.74h-.92v-5.27h.79l.08,.78c.19-.28,.42-.5,.69-.66,.28-.16,.58-.24,.92-.24,.48,0,.86,.14,1.12,.43Z"/>
      <path class="cls-8" d="M78.52,206.2l.41,.77-2.12,.86-.28-.49,1.99-1.14Zm-.33,2.74v5.27h-.92v-5.27h.92Z"/>
    </g>
  </g>
  <g>
    <g>
      <path class="cls-8" d="M52.18,139.14v8.29h-1.58v-8.29h1.58Zm4.66,0l-2.87,3.76,3.1,4.54h-1.88l-2.93-4.43,2.87-3.86h1.72Z"/>
      <path class="cls-8" d="M58.26,147.18c-.28-.28-.41-.69-.41-1.21v-7.44l1.54-.17v7.56c0,.3,.12,.44,.36,.44,.12,0,.24-.02,.36-.06l.32,1.08c-.32,.14-.66,.22-1.02,.22-.49,0-.87-.14-1.15-.43Z"/>
      <path class="cls-8" d="M66.2,146.3c.08,.12,.2,.21,.37,.27l-.32,1.02c-.36-.03-.65-.12-.88-.26-.23-.14-.4-.36-.52-.66-.22,.32-.49,.56-.81,.71-.32,.16-.69,.23-1.09,.23-.63,0-1.13-.18-1.5-.54-.37-.36-.55-.83-.55-1.42,0-.69,.25-1.21,.75-1.58,.5-.36,1.21-.55,2.14-.55h.79v-.36c0-.41-.09-.69-.28-.86-.19-.16-.49-.25-.91-.25-.46,0-1.02,.11-1.68,.34l-.36-1.04c.79-.3,1.56-.46,2.3-.46,1.62,0,2.44,.73,2.44,2.18v2.66c0,.25,.04,.43,.11,.55Zm-1.63-.58v-1.28h-.64c-.99,0-1.49,.37-1.49,1.1,0,.3,.08,.54,.23,.71,.15,.17,.38,.25,.67,.25,.52,0,.93-.26,1.22-.78Z"/>
      <path class="cls-8" d="M73.02,147.43h-1.33l-.08-.89c-.23,.36-.51,.63-.82,.8-.32,.18-.69,.26-1.12,.26-.57,0-1.01-.17-1.31-.52-.31-.35-.46-.83-.46-1.45v-4.56h1.54v4.37c0,.36,.06,.62,.19,.77s.32,.23,.59,.23c.49,0,.92-.3,1.28-.9v-4.46h1.54v6.35Z"/>
      <path class="cls-8" d="M79.12,141.66l-.6,.9c-.54-.34-1.08-.52-1.6-.52-.3,0-.54,.06-.71,.17s-.25,.27-.25,.46c0,.14,.04,.26,.11,.36,.07,.1,.2,.19,.39,.27,.19,.08,.47,.18,.83,.28,.69,.18,1.2,.43,1.53,.73,.33,.3,.5,.73,.5,1.27,0,.63-.26,1.13-.77,1.48-.51,.36-1.15,.53-1.91,.53-.52,0-.99-.08-1.42-.24-.43-.16-.8-.38-1.11-.66l.77-.86c.55,.42,1.13,.62,1.73,.62,.34,0,.62-.07,.82-.2s.31-.32,.31-.56c0-.18-.04-.33-.11-.44-.08-.11-.21-.2-.41-.29-.2-.08-.5-.19-.92-.31-.65-.18-1.12-.42-1.43-.74-.3-.32-.46-.71-.46-1.18,0-.35,.1-.67,.31-.95s.49-.5,.86-.66,.8-.24,1.28-.24c.86,0,1.61,.25,2.26,.76Z"/>
    </g>
    <g>
      <path class="cls-8" d="M6.67,154.8c.3,.16,.54,.38,.71,.66,.17,.28,.25,.59,.25,.93,0,.41-.09,.8-.28,1.17-.18,.37-.46,.78-.84,1.21s-.96,1.04-1.73,1.81h3.01l-.11,.77H3.72v-.73c.89-.93,1.53-1.6,1.9-2.03,.37-.43,.64-.81,.8-1.12,.16-.32,.24-.66,.24-1.03,0-.35-.1-.62-.3-.82-.2-.2-.47-.29-.8-.29-.27,0-.51,.06-.72,.17-.21,.11-.43,.3-.66,.56l-.6-.48c.27-.34,.58-.59,.91-.76,.33-.17,.71-.25,1.12-.25s.75,.08,1.05,.24Z"/>
      <path class="cls-8" d="M12.48,155.38h-2.61v1.97c.34-.17,.7-.26,1.07-.26,.57,0,1.03,.19,1.38,.56,.35,.38,.52,.9,.52,1.56,0,.44-.1,.83-.29,1.17s-.46,.61-.81,.8-.75,.29-1.21,.29c-.41,0-.77-.07-1.09-.21-.32-.14-.62-.36-.89-.64l.54-.53c.21,.21,.43,.37,.66,.47s.48,.16,.77,.16c.43,0,.76-.13,1-.4,.24-.27,.36-.64,.36-1.13s-.11-.84-.33-1.06c-.22-.22-.52-.33-.89-.33-.17,0-.33,.02-.48,.05-.15,.04-.3,.09-.47,.17h-.72v-3.37h3.62l-.13,.72Z"/>
      <path class="cls-8" d="M17.19,154.66v.69l-2.5,6.1-.84-.28,2.41-5.76h-2.96v-.75h3.89Z"/>
      <path class="cls-8" d="M24.96,156.08l-1.79,5.27h-1.11l-1.82-5.27h1l1.38,4.45,1.37-4.45h.97Z"/>
      <path class="cls-8" d="M28.12,161.38c-.21,.61-.49,1.1-.86,1.46-.37,.36-.9,.57-1.58,.64l-.1-.72c.35-.06,.62-.15,.83-.26,.21-.11,.37-.26,.5-.44s.24-.42,.34-.71h-.31l-1.77-5.27h.98l1.41,4.6,1.38-4.6h.95l-1.76,5.3Z"/>
      <path class="cls-8" d="M34.02,156.08v.7l-2.75,3.8h2.78l-.11,.77h-3.71v-.69l2.74-3.8h-2.51v-.78h3.56Z"/>
      <path class="cls-8" d="M38.91,156.39c.27,.29,.41,.68,.41,1.18v3.78h-.92v-3.65c0-.37-.07-.64-.21-.79-.14-.15-.35-.23-.62-.23s-.53,.08-.74,.24c-.21,.16-.41,.39-.6,.69v3.74h-.92v-5.27h.79l.08,.78c.19-.28,.42-.5,.69-.66,.28-.16,.58-.24,.92-.24,.48,0,.86,.14,1.12,.43Z"/>
      <path class="cls-8" d="M44.82,160.59c.07,.1,.18,.18,.33,.24l-.21,.64c-.27-.03-.49-.11-.66-.23-.17-.12-.29-.31-.37-.56-.35,.53-.88,.79-1.57,.79-.52,0-.93-.15-1.23-.44-.3-.29-.45-.68-.45-1.15,0-.56,.2-.99,.6-1.29s.98-.45,1.71-.45h.81v-.39c0-.37-.09-.64-.27-.8-.18-.16-.46-.24-.83-.24s-.86,.09-1.42,.28l-.23-.67c.65-.24,1.26-.36,1.82-.36,.62,0,1.08,.15,1.39,.46,.31,.3,.46,.73,.46,1.29v2.41c0,.21,.04,.37,.11,.48Zm-1.03-.63v-1.21h-.69c-.97,0-1.46,.36-1.46,1.08,0,.31,.08,.55,.23,.71,.15,.16,.38,.24,.68,.24,.53,0,.94-.27,1.24-.82Z"/>
      <path class="cls-8" d="M52.93,156.39c.26,.29,.39,.68,.39,1.17v3.78h-.92v-3.65c0-.68-.25-1.02-.74-1.02-.26,0-.48,.08-.66,.22-.18,.15-.37,.39-.58,.71v3.74h-.92v-3.65c0-.68-.25-1.02-.74-1.02-.27,0-.49,.08-.67,.23-.18,.15-.37,.39-.57,.7v3.74h-.92v-5.27h.79l.08,.77c.39-.59,.9-.89,1.52-.89,.33,0,.61,.08,.83,.25,.23,.17,.4,.4,.5,.7,.21-.31,.44-.54,.69-.7,.25-.16,.54-.25,.88-.25,.43,0,.78,.14,1.04,.43Z"/>
      <path class="cls-8" d="M59.13,159.03h-3.36c.04,.58,.19,1.01,.44,1.28,.25,.27,.58,.41,.98,.41,.25,0,.49-.04,.7-.11s.44-.19,.67-.35l.4,.55c-.56,.44-1.17,.66-1.84,.66-.73,0-1.31-.24-1.72-.72-.41-.48-.61-1.14-.61-1.98,0-.55,.09-1.03,.26-1.46,.18-.42,.43-.75,.76-1,.33-.24,.72-.36,1.17-.36,.7,0,1.24,.23,1.61,.69,.37,.46,.56,1.1,.56,1.91,0,.15,0,.31-.02,.47Zm-.89-.74c0-.52-.1-.92-.31-1.19s-.52-.41-.93-.41c-.75,0-1.16,.55-1.23,1.66h2.47v-.06Z"/>
      <path class="cls-8" d="M64.23,156.39c.27,.29,.41,.68,.41,1.18v3.78h-.92v-3.65c0-.37-.07-.64-.21-.79-.14-.15-.35-.23-.62-.23s-.53,.08-.74,.24c-.21,.16-.41,.39-.6,.69v3.74h-.92v-5.27h.79l.08,.78c.19-.28,.42-.5,.69-.66,.28-.16,.58-.24,.92-.24,.48,0,.86,.14,1.12,.43Z"/>
      <path class="cls-8" d="M70.14,160.59c.07,.1,.18,.18,.33,.24l-.21,.64c-.27-.03-.49-.11-.66-.23-.17-.12-.29-.31-.37-.56-.35,.53-.88,.79-1.57,.79-.52,0-.93-.15-1.23-.44-.3-.29-.45-.68-.45-1.15,0-.56,.2-.99,.6-1.29s.98-.45,1.71-.45h.81v-.39c0-.37-.09-.64-.27-.8-.18-.16-.46-.24-.83-.24s-.86,.09-1.42,.28l-.23-.67c.65-.24,1.26-.36,1.82-.36,.62,0,1.08,.15,1.39,.46,.31,.3,.46,.73,.46,1.29v2.41c0,.21,.04,.37,.11,.48Zm-1.21-7.25l.41,.77-2.12,.86-.28-.49,1.99-1.14Zm.18,6.62v-1.21h-.69c-.97,0-1.46,.36-1.46,1.08,0,.31,.08,.55,.23,.71,.15,.16,.38,.24,.68,.24,.53,0,.94-.27,1.24-.82Z"/>
      <path class="cls-8" d="M75.53,156.39c.27,.29,.41,.68,.41,1.18v3.78h-.92v-3.65c0-.37-.07-.64-.21-.79-.14-.15-.35-.23-.62-.23s-.53,.08-.74,.24c-.21,.16-.41,.39-.6,.69v3.74h-.92v-5.27h.79l.08,.78c.19-.28,.42-.5,.69-.66,.28-.16,.58-.24,.92-.24,.48,0,.86,.14,1.12,.43Z"/>
      <path class="cls-8" d="M79.03,153.34l.41,.77-2.12,.86-.28-.49,1.99-1.14Zm-.33,2.74v5.27h-.92v-5.27h.92Z"/>
    </g>
  </g>
  <g>
    <path class="cls-8" d="M23.84,103.92h-.79l-.07-.82c-.2,.33-.43,.56-.69,.71-.26,.15-.58,.23-.95,.23-.46,0-.82-.14-1.08-.42-.26-.28-.39-.68-.39-1.19v-3.78h.92v3.68c0,.36,.06,.61,.19,.76,.13,.15,.33,.23,.62,.23,.51,0,.95-.3,1.32-.91v-3.76h.92v5.27Z"/>
    <path class="cls-8" d="M29.82,96.53v7.39h-.81l-.09-.73c-.17,.27-.39,.48-.65,.62-.26,.15-.55,.23-.87,.23-.63,0-1.12-.25-1.47-.74-.35-.49-.52-1.16-.52-1.99,0-.54,.08-1.02,.25-1.44,.17-.42,.41-.75,.72-.99,.31-.24,.68-.35,1.1-.35,.54,0,1.01,.22,1.42,.65v-2.76l.92,.11Zm-1.5,6.58c.2-.13,.39-.32,.58-.58v-2.58c-.17-.23-.36-.4-.56-.51-.2-.12-.42-.18-.67-.18-.41,0-.72,.17-.94,.51-.22,.34-.33,.85-.33,1.52s.1,1.19,.31,1.52,.5,.5,.89,.5c.28,0,.52-.06,.72-.2Z"/>
    <path class="cls-8" d="M35.68,101.61h-3.36c.04,.58,.19,1.01,.44,1.28,.25,.27,.58,.41,.98,.41,.25,0,.49-.04,.7-.11,.21-.07,.44-.19,.67-.35l.4,.55c-.56,.44-1.17,.66-1.84,.66-.73,0-1.31-.24-1.72-.72-.41-.48-.61-1.14-.61-1.98,0-.55,.09-1.03,.26-1.46,.18-.42,.43-.75,.76-.99,.33-.24,.72-.36,1.17-.36,.7,0,1.24,.23,1.61,.69,.37,.46,.56,1.1,.56,1.91,0,.15,0,.31-.02,.47Zm-.85-5.53l.39,.45-1.35,1.13h-.61l-1.36-1.13,.4-.45,1.26,.84,1.27-.84Zm-.04,4.79c0-.52-.1-.92-.31-1.19s-.52-.41-.93-.41c-.75,0-1.16,.55-1.23,1.66h2.47v-.06Z"/>
    <path class="cls-8" d="M37.42,103.74c-.2-.2-.29-.49-.29-.85v-6.35l.92-.11v6.44c0,.15,.02,.25,.07,.32,.05,.07,.14,.1,.26,.1s.24-.02,.34-.06l.24,.64c-.22,.12-.46,.18-.73,.18-.34,0-.61-.1-.8-.31Z"/>
    <path class="cls-8" d="M41.02,96.3c.12,.12,.18,.27,.18,.45s-.06,.33-.18,.44-.28,.18-.47,.18-.34-.06-.46-.18c-.12-.12-.18-.27-.18-.44s.06-.33,.18-.45c.12-.12,.27-.18,.46-.18s.35,.06,.47,.18Zm0,2.35v5.27h-.92v-5.27h.92Z"/>
    <path class="cls-8" d="M43.17,103.74c-.2-.2-.29-.49-.29-.85v-6.35l.92-.11v6.44c0,.15,.02,.25,.07,.32,.05,.07,.14,.1,.26,.1s.24-.02,.34-.06l.24,.64c-.22,.12-.46,.18-.73,.18-.34,0-.61-.1-.8-.31Z"/>
    <path class="cls-8" d="M51.28,98.67c.26,.09,.51,.23,.75,.44l-.44,.58c-.19-.13-.37-.23-.54-.29-.18-.06-.37-.09-.58-.09-.43,0-.76,.17-1,.51-.24,.34-.36,.84-.36,1.51s.12,1.16,.35,1.48c.23,.32,.57,.47,1,.47,.21,0,.4-.03,.57-.09,.17-.06,.37-.17,.58-.31l.42,.6c-.48,.39-1.02,.58-1.61,.58-.71,0-1.28-.24-1.69-.72-.41-.48-.61-1.14-.61-1.99,0-.56,.09-1.05,.28-1.47s.45-.75,.79-.98c.34-.23,.75-.35,1.23-.35,.31,0,.6,.04,.86,.14Z"/>
    <path class="cls-8" d="M57.04,101.61h-3.36c.04,.58,.19,1.01,.44,1.28,.25,.27,.58,.41,.98,.41,.25,0,.49-.04,.7-.11,.21-.07,.44-.19,.67-.35l.4,.55c-.56,.44-1.17,.66-1.84,.66-.73,0-1.31-.24-1.72-.72-.41-.48-.61-1.14-.61-1.98,0-.55,.09-1.03,.26-1.46,.18-.42,.43-.75,.76-.99,.33-.24,.72-.36,1.17-.36,.7,0,1.24,.23,1.61,.69,.37,.46,.56,1.1,.56,1.91,0,.15,0,.31-.02,.47Zm-.89-.74c0-.52-.1-.92-.31-1.19s-.52-.41-.93-.41c-.75,0-1.16,.55-1.23,1.66h2.47v-.06Z"/>
    <path class="cls-8" d="M58.77,103.74c-.2-.2-.29-.49-.29-.85v-6.35l.92-.11v6.44c0,.15,.02,.25,.07,.32,.05,.07,.14,.1,.26,.1s.24-.02,.34-.06l.24,.64c-.22,.12-.46,.18-.73,.18-.34,0-.61-.1-.8-.31Z"/>
    <path class="cls-8" d="M62.38,96.42v7.5h-.92v-7.39l.92-.11Zm3.03,2.23l-1.94,2.33,2.16,2.94h-1.1l-2.09-2.88,1.94-2.39h1.03Z"/>
    <path class="cls-8" d="M70.45,101.61h-3.36c.04,.58,.19,1.01,.44,1.28,.25,.27,.58,.41,.98,.41,.25,0,.49-.04,.7-.11,.21-.07,.44-.19,.67-.35l.4,.55c-.56,.44-1.17,.66-1.84,.66-.73,0-1.31-.24-1.72-.72-.41-.48-.61-1.14-.61-1.98,0-.55,.09-1.03,.26-1.46,.18-.42,.43-.75,.76-.99,.33-.24,.72-.36,1.17-.36,.7,0,1.24,.23,1.61,.69,.37,.46,.56,1.1,.56,1.91,0,.15,0,.31-.02,.47Zm-.89-.74c0-.52-.1-.92-.31-1.19s-.52-.41-.93-.41c-.75,0-1.16,.55-1.23,1.66h2.47v-.06Z"/>
    <path class="cls-8" d="M78.27,98.97c.26,.29,.39,.68,.39,1.18v3.78h-.92v-3.65c0-.68-.25-1.02-.74-1.02-.26,0-.48,.07-.66,.23-.18,.15-.37,.38-.58,.7v3.74h-.92v-3.65c0-.68-.25-1.02-.74-1.02-.27,0-.49,.08-.67,.23-.18,.15-.37,.39-.57,.7v3.74h-.92v-5.27h.79l.08,.77c.39-.59,.9-.89,1.52-.89,.33,0,.61,.08,.83,.25,.23,.17,.4,.4,.5,.7,.21-.31,.44-.54,.69-.71,.25-.16,.54-.25,.88-.25,.43,0,.78,.15,1.04,.44Z"/>
    <path class="cls-8" d="M8.58,109.95h-2.61v1.97c.34-.17,.7-.26,1.07-.26,.57,0,1.03,.19,1.38,.56,.35,.38,.52,.9,.52,1.55,0,.44-.1,.83-.29,1.18s-.46,.61-.81,.8-.75,.29-1.21,.29c-.41,0-.77-.07-1.09-.22-.32-.14-.62-.35-.89-.63l.54-.53c.21,.21,.43,.37,.66,.47,.23,.1,.48,.16,.77,.16,.43,0,.76-.13,1-.4,.24-.27,.36-.64,.36-1.13s-.11-.84-.33-1.06c-.22-.22-.52-.33-.89-.33-.17,0-.33,.02-.48,.05-.15,.04-.3,.1-.47,.18h-.72v-3.37h3.62l-.13,.72Z"/>
    <path class="cls-8" d="M12.11,109.23v6.69h-.92v-5.71l-1.56,.95-.4-.65,2.07-1.28h.81Z"/>
    <path class="cls-8" d="M16.3,109.23v6.69h-.92v-5.71l-1.56,.95-.4-.65,2.07-1.28h.81Z"/>
    <path class="cls-8" d="M24.87,110.65l-1.79,5.27h-1.11l-1.82-5.27h1l1.38,4.45,1.37-4.45h.97Z"/>
    <path class="cls-8" d="M28.03,115.95c-.21,.61-.49,1.1-.86,1.46-.37,.36-.9,.57-1.58,.65l-.1-.72c.35-.06,.62-.15,.83-.26s.37-.26,.5-.44,.24-.42,.34-.71h-.31l-1.77-5.27h.98l1.41,4.6,1.38-4.6h.95l-1.76,5.3Z"/>
    <path class="cls-8" d="M33.93,110.65v.7l-2.75,3.8h2.78l-.11,.77h-3.71v-.69l2.74-3.8h-2.51v-.78h3.56Z"/>
    <path class="cls-8" d="M38.81,110.96c.27,.29,.41,.68,.41,1.18v3.78h-.92v-3.65c0-.37-.07-.64-.21-.79s-.35-.23-.62-.23-.53,.08-.74,.24c-.21,.16-.41,.39-.6,.69v3.74h-.92v-5.27h.79l.08,.78c.19-.28,.42-.5,.69-.66,.28-.16,.58-.24,.92-.24,.48,0,.86,.14,1.12,.43Z"/>
    <path class="cls-8" d="M44.73,115.17c.07,.1,.18,.18,.33,.23l-.21,.64c-.27-.03-.49-.11-.66-.23-.17-.12-.29-.31-.37-.56-.35,.53-.88,.79-1.57,.79-.52,0-.93-.15-1.23-.44-.3-.29-.45-.68-.45-1.15,0-.56,.2-.99,.6-1.29,.4-.3,.98-.45,1.71-.45h.81v-.39c0-.37-.09-.64-.27-.8-.18-.16-.46-.24-.83-.24s-.86,.09-1.42,.28l-.23-.67c.65-.24,1.26-.36,1.82-.36,.62,0,1.08,.15,1.39,.46,.31,.3,.46,.73,.46,1.29v2.41c0,.21,.04,.37,.11,.48Zm-1.03-.64v-1.21h-.69c-.97,0-1.46,.36-1.46,1.08,0,.31,.08,.55,.23,.71s.38,.24,.68,.24c.53,0,.94-.27,1.24-.82Z"/>
    <path class="cls-8" d="M52.84,110.97c.26,.29,.39,.68,.39,1.18v3.78h-.92v-3.65c0-.68-.25-1.02-.74-1.02-.26,0-.48,.07-.66,.23-.18,.15-.37,.38-.58,.7v3.74h-.92v-3.65c0-.68-.25-1.02-.74-1.02-.27,0-.49,.08-.67,.23-.18,.15-.37,.39-.57,.7v3.74h-.92v-5.27h.79l.08,.77c.39-.59,.9-.89,1.52-.89,.33,0,.61,.08,.83,.25,.23,.17,.4,.4,.5,.7,.21-.31,.44-.54,.69-.71,.25-.16,.54-.25,.88-.25,.43,0,.78,.15,1.04,.44Z"/>
    <path class="cls-8" d="M59.04,113.61h-3.36c.04,.58,.19,1.01,.44,1.28,.25,.27,.58,.41,.98,.41,.25,0,.49-.04,.7-.11,.21-.07,.44-.19,.67-.35l.4,.55c-.56,.44-1.17,.66-1.84,.66-.73,0-1.31-.24-1.72-.72-.41-.48-.61-1.14-.61-1.98,0-.55,.09-1.03,.26-1.46,.18-.42,.43-.75,.76-.99,.33-.24,.72-.36,1.17-.36,.7,0,1.24,.23,1.61,.69,.37,.46,.56,1.1,.56,1.91,0,.15,0,.31-.02,.47Zm-.89-.74c0-.52-.1-.92-.31-1.19s-.52-.41-.93-.41c-.75,0-1.16,.55-1.23,1.66h2.47v-.06Z"/>
    <path class="cls-8" d="M64.13,110.96c.27,.29,.41,.68,.41,1.18v3.78h-.92v-3.65c0-.37-.07-.64-.21-.79s-.35-.23-.62-.23-.53,.08-.74,.24c-.21,.16-.41,.39-.6,.69v3.74h-.92v-5.27h.79l.08,.78c.19-.28,.42-.5,.69-.66,.28-.16,.58-.24,.92-.24,.48,0,.86,.14,1.12,.43Z"/>
    <path class="cls-8" d="M70.05,115.17c.07,.1,.18,.18,.33,.23l-.21,.64c-.27-.03-.49-.11-.66-.23-.17-.12-.29-.31-.37-.56-.35,.53-.88,.79-1.57,.79-.52,0-.93-.15-1.23-.44-.3-.29-.45-.68-.45-1.15,0-.56,.2-.99,.6-1.29,.4-.3,.98-.45,1.71-.45h.81v-.39c0-.37-.09-.64-.27-.8-.18-.16-.46-.24-.83-.24s-.86,.09-1.42,.28l-.23-.67c.65-.24,1.26-.36,1.82-.36,.62,0,1.08,.15,1.39,.46,.31,.3,.46,.73,.46,1.29v2.41c0,.21,.04,.37,.11,.48Zm-1.21-7.25l.41,.77-2.12,.86-.28-.49,1.99-1.14Zm.18,6.62v-1.21h-.69c-.97,0-1.46,.36-1.46,1.08,0,.31,.08,.55,.23,.71s.38,.24,.68,.24c.53,0,.94-.27,1.24-.82Z"/>
    <path class="cls-8" d="M75.43,110.96c.27,.29,.41,.68,.41,1.18v3.78h-.92v-3.65c0-.37-.07-.64-.21-.79s-.35-.23-.62-.23-.53,.08-.74,.24c-.21,.16-.41,.39-.6,.69v3.74h-.92v-5.27h.79l.08,.78c.19-.28,.42-.5,.69-.66,.28-.16,.58-.24,.92-.24,.48,0,.86,.14,1.12,.43Z"/>
    <path class="cls-8" d="M78.94,107.92l.41,.77-2.12,.86-.28-.49,1.99-1.14Zm-.33,2.74v5.27h-.92v-5.27h.92Z"/>
  </g>
  <g>
    <path d="M9.35,16.85v-4.94h-3.94v4.94H3.3V5.79h2.11v4.43h3.94V5.79h2.13v11.06h-2.13Z"/>
    <path d="M20.39,15.33c.1,.16,.26,.28,.49,.36l-.43,1.36c-.48-.04-.87-.16-1.18-.35-.3-.19-.54-.49-.7-.88-.29,.43-.65,.74-1.08,.95-.43,.21-.92,.31-1.45,.31-.84,0-1.51-.24-2-.72-.49-.48-.74-1.11-.74-1.89,0-.92,.33-1.62,1-2.1,.67-.48,1.62-.73,2.86-.73h1.06v-.48c0-.54-.12-.92-.38-1.14-.25-.22-.65-.33-1.21-.33-.62,0-1.37,.15-2.24,.45l-.48-1.39c1.06-.41,2.08-.61,3.07-.61,2.17,0,3.25,.97,3.25,2.91v3.55c0,.33,.05,.57,.15,.73Zm-2.17-.78v-1.71h-.85c-1.32,0-1.98,.49-1.98,1.47,0,.41,.1,.72,.3,.94,.2,.22,.5,.34,.9,.34,.69,0,1.24-.35,1.63-1.04Z"/>
    <path d="M29.28,8.38l-2.75,8.46h-2.45l-2.8-8.46h2.22l1.81,6.82,1.86-6.82h2.11Z"/>
    <path d="M37.35,13.25h-5.31c.06,.82,.28,1.41,.64,1.76,.36,.35,.84,.53,1.44,.53,.37,0,.72-.06,1.06-.18,.33-.12,.68-.31,1.06-.57l.85,1.17c-.94,.76-1.98,1.14-3.14,1.14-1.29,0-2.29-.39-2.98-1.18-.7-.79-1.05-1.87-1.05-3.23,0-.86,.15-1.64,.45-2.33,.3-.69,.73-1.23,1.3-1.62s1.24-.58,2.02-.58c1.18,0,2.1,.38,2.75,1.13,.65,.75,.98,1.8,.98,3.14,0,.11-.02,.38-.05,.83Zm-1.98-1.42c0-1.48-.55-2.22-1.65-2.22-.5,0-.89,.18-1.18,.55-.28,.37-.45,.96-.5,1.77h3.33v-.1Z"/>
    <path d="M39.71,16.52c-.37-.38-.55-.92-.55-1.61V4.99l2.05-.22V14.85c0,.39,.16,.59,.48,.59,.16,0,.32-.03,.48-.08l.43,1.44c-.43,.19-.88,.29-1.36,.29-.65,0-1.16-.19-1.53-.57Z"/>
    <path d="M54.75,8.38l-2.75,8.46h-2.45l-2.8-8.46h2.22l1.81,6.82,1.86-6.82h2.11Z"/>
    <path d="M60.11,16.88c-.34,1.04-.86,1.86-1.55,2.44-.69,.58-1.64,.92-2.85,1.02l-.21-1.49c.55-.09,1-.21,1.34-.36s.61-.36,.81-.62c.2-.26,.39-.6,.56-1.02h-.7l-2.69-8.46h2.18l1.84,7.1,1.92-7.1h2.11l-2.75,8.5Z"/>
    <path d="M69.62,8.38v1.47l-4.1,5.39h4.18l-.21,1.6h-6.32v-1.47l4.11-5.39h-3.76v-1.6h6.1Z"/>
    <path d="M77.58,8.82c.42,.45,.63,1.09,.63,1.9v6.13h-2.05v-5.81c0-.5-.09-.85-.26-1.06-.18-.2-.43-.3-.78-.3s-.67,.11-.95,.33c-.28,.22-.56,.54-.82,.95v5.89h-2.05V8.38h1.78l.16,1.1c.69-.9,1.55-1.34,2.58-1.34,.76,0,1.35,.23,1.77,.68Z"/>
    <path d="M87,15.33c.1,.16,.26,.28,.49,.36l-.43,1.36c-.48-.04-.87-.16-1.18-.35-.3-.19-.54-.49-.7-.88-.29,.43-.65,.74-1.08,.95-.43,.21-.92,.31-1.45,.31-.84,0-1.51-.24-2-.72-.49-.48-.74-1.11-.74-1.89,0-.92,.33-1.62,1-2.1,.67-.48,1.62-.73,2.86-.73h1.06v-.48c0-.54-.12-.92-.38-1.14-.25-.22-.65-.33-1.21-.33-.62,0-1.37,.15-2.24,.45l-.48-1.39c1.06-.41,2.08-.61,3.07-.61,2.17,0,3.25,.97,3.25,2.91v3.55c0,.33,.05,.57,.15,.73Zm-2.17-.78v-1.71h-.85c-1.32,0-1.98,.49-1.98,1.47,0,.41,.1,.72,.3,.94,.2,.22,.5,.34,.9,.34,.69,0,1.24-.35,1.63-1.04Z"/>
    <path d="M99.94,8.84c.41,.46,.61,1.09,.61,1.88v6.13h-2.05v-5.81c0-.91-.31-1.36-.93-1.36-.33,0-.62,.1-.86,.31s-.49,.53-.74,.97v5.89h-2.05v-5.81c0-.91-.31-1.36-.93-1.36-.34,0-.63,.1-.87,.31-.24,.21-.49,.53-.74,.97v5.89h-2.05V8.38h1.78l.16,1.1c.64-.9,1.46-1.34,2.45-1.34,.49,0,.91,.12,1.27,.38s.62,.6,.78,1.05c.34-.46,.72-.81,1.13-1.06,.41-.25,.88-.37,1.42-.37,.68,0,1.23,.23,1.63,.7Z"/>
    <path d="M109.83,13.25h-5.31c.06,.82,.28,1.41,.64,1.76,.36,.35,.84,.53,1.44,.53,.37,0,.72-.06,1.06-.18,.33-.12,.68-.31,1.06-.57l.85,1.17c-.94,.76-1.98,1.14-3.14,1.14-1.29,0-2.29-.39-2.98-1.18-.7-.79-1.05-1.87-1.05-3.23,0-.86,.15-1.64,.45-2.33,.3-.69,.73-1.23,1.3-1.62s1.24-.58,2.02-.58c1.18,0,2.1,.38,2.75,1.13,.65,.75,.98,1.8,.98,3.14,0,.11-.02,.38-.05,.83Zm-1.98-1.42c0-1.48-.55-2.22-1.65-2.22-.5,0-.89,.18-1.18,.55-.28,.37-.45,.96-.5,1.77h3.33v-.1Z"/>
    <path d="M117.99,8.82c.42,.45,.63,1.09,.63,1.9v6.13h-2.05v-5.81c0-.5-.09-.85-.26-1.06-.18-.2-.43-.3-.78-.3s-.67,.11-.95,.33c-.28,.22-.56,.54-.82,.95v5.89h-2.05V8.38h1.78l.16,1.1c.69-.9,1.55-1.34,2.58-1.34,.76,0,1.35,.23,1.77,.68Z"/>
    <path d="M127.42,15.33c.1,.16,.26,.28,.49,.36l-.43,1.36c-.48-.04-.87-.16-1.18-.35-.3-.19-.54-.49-.7-.88-.29,.43-.65,.74-1.08,.95-.43,.21-.92,.31-1.45,.31-.84,0-1.51-.24-2-.72-.49-.48-.74-1.11-.74-1.89,0-.92,.33-1.62,1-2.1,.67-.48,1.62-.73,2.86-.73h1.06v-.48c0-.54-.12-.92-.38-1.14-.25-.22-.65-.33-1.21-.33-.62,0-1.37,.15-2.24,.45l-.48-1.39c1.06-.41,2.08-.61,3.07-.61,2.17,0,3.25,.97,3.25,2.91v3.55c0,.33,.05,.57,.15,.73Zm-2.17-.78v-1.71h-.85c-1.32,0-1.98,.49-1.98,1.47,0,.41,.1,.72,.3,.94,.2,.22,.5,.34,.9,.34,.69,0,1.24-.35,1.63-1.04Z"/>
    <path d="M130.06,16.52c-.37-.38-.55-.92-.55-1.61V4.99l2.05-.22V14.85c0,.39,.16,.59,.48,.59,.16,0,.32-.03,.48-.08l.43,1.44c-.43,.19-.88,.29-1.36,.29-.65,0-1.16-.19-1.53-.57Z"/>
    <path d="M144.59,8.82c.42,.45,.63,1.09,.63,1.9v6.13h-2.05v-5.81c0-.5-.09-.85-.26-1.06-.18-.2-.43-.3-.78-.3s-.67,.11-.95,.33c-.28,.22-.56,.54-.82,.95v5.89h-2.05V8.38h1.78l.16,1.1c.69-.9,1.55-1.34,2.58-1.34,.76,0,1.35,.23,1.77,.68Z"/>
    <path d="M154.5,13.25h-5.31c.06,.82,.28,1.41,.64,1.76,.36,.35,.84,.53,1.44,.53,.37,0,.72-.06,1.06-.18,.33-.12,.68-.31,1.06-.57l.85,1.17c-.94,.76-1.98,1.14-3.14,1.14-1.29,0-2.29-.39-2.98-1.18-.7-.79-1.05-1.87-1.05-3.23,0-.86,.15-1.64,.45-2.33,.3-.69,.73-1.23,1.3-1.62s1.24-.58,2.02-.58c1.18,0,2.1,.38,2.75,1.13,.65,.75,.98,1.8,.98,3.14,0,.11-.02,.38-.05,.83Zm-1.98-1.42c0-1.48-.55-2.22-1.65-2.22-.5,0-.89,.18-1.18,.55-.28,.37-.45,.96-.5,1.77h3.33v-.1Z"/>
    <path d="M158.42,16.1c0,.83-.12,1.51-.36,2.04-.24,.53-.58,.95-1.02,1.27-.44,.32-1.01,.62-1.71,.91l-.66-1.49c.42-.19,.74-.38,.98-.57s.41-.44,.54-.76c.12-.32,.18-.75,.18-1.28v-7.84h2.05v7.71Zm-.1-11.64c.24,.24,.36,.54,.36,.89s-.12,.65-.36,.88-.55,.35-.94,.35-.68-.12-.92-.35c-.24-.23-.36-.53-.36-.88s.12-.65,.36-.89c.24-.24,.55-.36,.92-.36s.7,.12,.94,.36Z"/>
    <path d="M167.68,8.38l-2.75,8.46h-2.45l-2.8-8.46h2.22l1.81,6.82,1.86-6.82h2.11Z"/>
    <path d="M171.18,3.73l.83,1.6-3.62,1.44-.58-1.04,3.36-2Zm-.19,4.66v8.46h-2.05V8.38h2.05Z"/>
    <path d="M178.36,8.38c.44,.16,.86,.41,1.26,.75l-.91,1.23c-.29-.21-.57-.37-.83-.46-.27-.1-.56-.14-.88-.14-1.27,0-1.9,.96-1.9,2.9,0,.98,.17,1.69,.5,2.12,.33,.43,.8,.65,1.41,.65,.3,0,.57-.05,.82-.14s.55-.25,.89-.46l.91,1.3c-.8,.65-1.71,.98-2.74,.98-.81,0-1.51-.18-2.11-.54-.6-.36-1.06-.87-1.38-1.53s-.48-1.44-.48-2.34,.16-1.69,.48-2.38c.32-.69,.78-1.22,1.38-1.6,.6-.38,1.3-.57,2.1-.57,.55,0,1.05,.08,1.5,.24Z"/>
    <path d="M187.68,13.25h-5.31c.06,.82,.28,1.41,.64,1.76,.36,.35,.84,.53,1.44,.53,.37,0,.72-.06,1.06-.18,.33-.12,.68-.31,1.06-.57l.85,1.17c-.94,.76-1.98,1.14-3.14,1.14-1.29,0-2.29-.39-2.98-1.18-.7-.79-1.05-1.87-1.05-3.23,0-.86,.15-1.64,.45-2.33,.3-.69,.73-1.23,1.3-1.62s1.24-.58,2.02-.58c1.18,0,2.1,.38,2.75,1.13,.65,.75,.98,1.8,.98,3.14,0,.11-.02,.38-.05,.83Zm-1.98-1.42c0-1.48-.55-2.22-1.65-2.22-.5,0-.89,.18-1.18,.55-.28,.37-.45,.96-.5,1.77h3.33v-.1Z"/>
    <path d="M199.07,8.38v1.47l-4.1,5.39h4.18l-.21,1.6h-6.32v-1.47l4.11-5.39h-3.76v-1.6h6.1Zm-1.04-4.34l.78,.9-2.22,2h-1.28l-2.22-2,.78-.9,2.08,1.41,2.08-1.41Z"/>
    <path d="M202.7,4.46c.24,.24,.36,.54,.36,.89s-.12,.65-.36,.88-.55,.35-.94,.35-.68-.12-.92-.35c-.24-.23-.36-.53-.36-.88s.12-.65,.36-.89,.55-.36,.92-.36,.7,.12,.94,.36Zm.1,3.93v8.46h-2.05V8.38h2.05Z"/>
    <path d="M212.06,8.38l-2.75,8.46h-2.45l-2.8-8.46h2.22l1.81,6.82,1.86-6.82h2.11Z"/>
    <path d="M217.42,16.88c-.34,1.04-.86,1.86-1.55,2.44-.69,.58-1.64,.92-2.85,1.02l-.21-1.49c.55-.09,1-.21,1.34-.36s.61-.36,.81-.62c.2-.26,.39-.6,.56-1.02h-.7l-2.69-8.46h2.18l1.84,7.1,1.92-7.1h2.11l-2.75,8.5Zm-.06-13.15l.83,1.6-3.62,1.44-.58-1.04,3.36-2Z"/>
    <path d="M226.23,8.38c.44,.16,.86,.41,1.26,.75l-.91,1.23c-.29-.21-.57-.37-.83-.46-.27-.1-.56-.14-.88-.14-1.27,0-1.9,.96-1.9,2.9,0,.98,.17,1.69,.5,2.12,.33,.43,.8,.65,1.41,.65,.3,0,.57-.05,.82-.14s.55-.25,.89-.46l.91,1.3c-.8,.65-1.71,.98-2.74,.98-.81,0-1.51-.18-2.11-.54-.6-.36-1.06-.87-1.38-1.53s-.48-1.44-.48-2.34,.16-1.69,.48-2.38c.32-.69,.78-1.22,1.38-1.6,.6-.38,1.3-.57,2.1-.57,.55,0,1.05,.08,1.5,.24Z"/>
    <path d="M235.25,8.83c.43,.46,.64,1.09,.64,1.89v6.13h-2.05v-5.81c0-.5-.09-.85-.26-1.06-.18-.2-.43-.3-.78-.3s-.66,.11-.94,.33-.57,.53-.83,.94v5.9h-2.05V5.01l2.05-.21v4.59c.68-.83,1.5-1.25,2.46-1.25,.75,0,1.33,.23,1.76,.69Z"/>
    <path d="M244.22,4.46c.24,.24,.36,.54,.36,.89s-.12,.65-.36,.88-.55,.35-.94,.35-.68-.12-.92-.35c-.24-.23-.36-.53-.36-.88s.12-.65,.36-.89,.55-.36,.92-.36,.7,.12,.94,.36Zm.1,3.93v8.46h-2.05V8.38h2.05Z"/>
    <path d="M261.39,8.84c.41,.46,.61,1.09,.61,1.88v6.13h-2.05v-5.81c0-.91-.31-1.36-.93-1.36-.33,0-.62,.1-.86,.31s-.49,.53-.74,.97v5.89h-2.05v-5.81c0-.91-.31-1.36-.93-1.36-.34,0-.63,.1-.87,.31-.24,.21-.49,.53-.74,.97v5.89h-2.05V8.38h1.78l.16,1.1c.64-.9,1.46-1.34,2.45-1.34,.49,0,.91,.12,1.27,.38s.62,.6,.78,1.05c.34-.46,.72-.81,1.13-1.06,.41-.25,.88-.37,1.42-.37,.68,0,1.23,.23,1.63,.7Z"/>
    <path d="M269.41,8.27l-.35,1.98c-.26-.06-.51-.1-.75-.1-.5,0-.9,.18-1.18,.54s-.52,.9-.69,1.64v4.51h-2.05V8.38h1.78l.19,1.66c.2-.61,.5-1.08,.88-1.4s.83-.49,1.33-.49c.31,0,.59,.04,.85,.11Z"/>
    <path d="M275.54,16.45c-.3,.21-.63,.37-1,.48s-.74,.16-1.13,.16c-.83-.01-1.46-.25-1.9-.71-.43-.46-.65-1.15-.65-2.06v-4.46h-1.33v-1.47h1.33v-1.87l2.05-.24v2.11h1.97l-.21,1.47h-1.76v4.42c0,.42,.07,.71,.22,.9,.14,.18,.37,.27,.68,.27s.65-.1,1.01-.3l.72,1.31Z"/>
    <path d="M283.41,8.38l-2.75,8.46h-2.45l-2.8-8.46h2.22l1.81,6.82,1.86-6.82h2.11Z"/>
    <path d="M288.77,16.88c-.34,1.04-.86,1.86-1.55,2.44-.69,.58-1.64,.92-2.85,1.02l-.21-1.49c.55-.09,1-.21,1.34-.36s.61-.36,.81-.62c.2-.26,.39-.6,.56-1.02h-.7l-2.69-8.46h2.18l1.84,7.1,1.92-7.1h2.11l-2.75,8.5Zm-.06-13.15l.83,1.6-3.62,1.44-.58-1.04,3.36-2Z"/>
    <path d="M297.58,8.38c.44,.16,.86,.41,1.26,.75l-.91,1.23c-.29-.21-.57-.37-.83-.46-.27-.1-.56-.14-.88-.14-1.27,0-1.9,.96-1.9,2.9,0,.98,.17,1.69,.5,2.12,.33,.43,.8,.65,1.41,.65,.3,0,.57-.05,.82-.14s.55-.25,.89-.46l.91,1.3c-.8,.65-1.71,.98-2.74,.98-.81,0-1.51-.18-2.11-.54-.6-.36-1.06-.87-1.38-1.53s-.48-1.44-.48-2.34,.16-1.69,.48-2.38c.32-.69,.78-1.22,1.38-1.6,.6-.38,1.3-.57,2.1-.57,.55,0,1.05,.08,1.5,.24Z"/>
    <path d="M306.59,8.83c.43,.46,.64,1.09,.64,1.89v6.13h-2.05v-5.81c0-.5-.09-.85-.26-1.06-.18-.2-.43-.3-.78-.3s-.66,.11-.94,.33-.57,.53-.83,.94v5.9h-2.05V5.01l2.05-.21v4.59c.68-.83,1.5-1.25,2.46-1.25,.75,0,1.33,.23,1.76,.69Z"/>
  </g>
  <g>
    <path d="M6.27,27.75c.36,.14,.71,.36,1.04,.67l-.57,.64c-.29-.23-.57-.39-.84-.5s-.57-.16-.88-.16c-.4,0-.72,.09-.98,.27-.26,.18-.38,.45-.38,.8,0,.22,.04,.41,.13,.56,.09,.15,.25,.29,.49,.41,.24,.12,.58,.26,1.04,.4,.48,.15,.87,.3,1.19,.47,.32,.17,.57,.4,.77,.7,.19,.3,.29,.67,.29,1.13s-.11,.83-.32,1.17c-.22,.34-.53,.6-.94,.79-.41,.19-.89,.29-1.45,.29-1.05,0-1.91-.33-2.57-.98l.57-.64c.31,.25,.62,.44,.94,.57,.32,.13,.67,.19,1.06,.19,.47,0,.86-.12,1.17-.35,.31-.23,.46-.57,.46-1.01,0-.25-.05-.46-.14-.62s-.26-.31-.49-.45c-.23-.13-.57-.26-1.01-.4-.78-.23-1.35-.52-1.71-.85s-.54-.78-.54-1.34c0-.38,.1-.72,.3-1.02s.48-.54,.85-.7c.36-.17,.78-.25,1.24-.25,.51,0,.94,.07,1.3,.21Z"/>
    <path d="M11.97,34.98c-.38,.26-.81,.4-1.3,.4s-.88-.14-1.15-.42-.41-.69-.41-1.23v-3.5h-1.01v-.78h1.01v-1.31l1.01-.12v1.43h1.38l-.11,.78h-1.27v3.45c0,.3,.05,.52,.16,.65,.11,.14,.28,.2,.53,.2,.23,0,.48-.08,.77-.23l.38,.67Z"/>
    <path d="M16.96,34.42c.08,.11,.2,.2,.36,.26l-.23,.7c-.3-.04-.54-.12-.73-.25-.18-.13-.32-.34-.41-.62-.39,.58-.96,.87-1.73,.87-.57,0-1.02-.16-1.35-.48s-.5-.74-.5-1.27c0-.62,.22-1.09,.67-1.42s1.07-.49,1.89-.49h.89v-.43c0-.41-.1-.7-.3-.88-.2-.18-.5-.26-.91-.26s-.95,.1-1.56,.31l-.25-.74c.72-.26,1.39-.4,2-.4,.68,0,1.19,.17,1.53,.5,.34,.33,.51,.81,.51,1.42v2.65c0,.23,.04,.41,.12,.52Zm-1.13-.7v-1.33h-.76c-1.07,0-1.61,.4-1.61,1.19,0,.34,.08,.6,.25,.78,.17,.18,.42,.26,.75,.26,.58,0,1.03-.3,1.36-.9Z"/>
    <path d="M21.98,29.47c.29,.1,.56,.26,.83,.48l-.48,.64c-.21-.15-.4-.25-.6-.32-.19-.07-.41-.1-.64-.1-.47,0-.83,.19-1.1,.56-.26,.37-.39,.93-.39,1.66s.13,1.27,.38,1.62c.26,.35,.62,.52,1.1,.52,.23,0,.44-.03,.63-.1,.19-.07,.4-.18,.64-.34l.46,.66c-.53,.43-1.12,.64-1.77,.64-.79,0-1.4-.26-1.85-.79-.45-.53-.68-1.26-.68-2.19,0-.62,.1-1.15,.31-1.62,.21-.46,.5-.82,.88-1.08,.38-.26,.83-.39,1.35-.39,.35,0,.66,.05,.95,.15Zm.47-2.85l.43,.49-1.48,1.24h-.67l-1.5-1.24,.44-.49,1.38,.92,1.4-.92Z"/>
    <path d="M25.19,26.87c.13,.13,.2,.3,.2,.49s-.06,.36-.2,.49-.3,.19-.52,.19-.37-.06-.51-.19c-.13-.13-.2-.29-.2-.49s.07-.36,.2-.49c.13-.13,.3-.2,.51-.2s.38,.07,.52,.2Zm0,2.58v5.8h-1.01v-5.8h1.01Z"/>
    <path d="M27.55,35.04c-.22-.22-.32-.54-.32-.94v-6.98l1.01-.12v7.08c0,.16,.03,.28,.08,.35s.15,.11,.28,.11,.26-.02,.37-.07l.26,.7c-.24,.13-.51,.2-.8,.2-.37,0-.67-.11-.88-.34Z"/>
    <path d="M34.52,30.13c.45,.54,.68,1.28,.68,2.21,0,.6-.1,1.13-.31,1.59-.21,.46-.5,.81-.89,1.07s-.85,.38-1.38,.38c-.81,0-1.45-.27-1.9-.81-.45-.54-.68-1.28-.68-2.21,0-.6,.1-1.13,.31-1.59s.5-.81,.89-1.07c.39-.25,.86-.38,1.4-.38,.81,0,1.45,.27,1.9,.81Zm-3.4,2.22c0,1.47,.5,2.21,1.5,2.21s1.5-.74,1.5-2.22-.5-2.21-1.49-2.21-1.51,.74-1.51,2.22Z"/>
    <path d="M46.75,29.8c.29,.32,.43,.75,.43,1.29v4.16h-1.01v-4.02c0-.75-.27-1.12-.81-1.12-.29,0-.53,.08-.73,.25-.2,.17-.41,.42-.64,.78v4.11h-1.01v-4.02c0-.75-.27-1.12-.81-1.12-.29,0-.54,.08-.74,.25-.2,.17-.41,.43-.63,.77v4.11h-1.01v-5.8h.87l.09,.85c.43-.65,.99-.98,1.67-.98,.36,0,.67,.09,.92,.28,.25,.18,.44,.44,.54,.77,.23-.34,.48-.6,.75-.78,.27-.18,.6-.27,.97-.27,.48,0,.86,.16,1.14,.48Z"/>
    <path d="M53.53,35.25h-.87l-.08-.9c-.22,.36-.47,.62-.76,.79-.29,.17-.63,.25-1.04,.25-.51,0-.9-.15-1.19-.46-.29-.31-.43-.74-.43-1.31v-4.16h1.01v4.05c0,.4,.07,.68,.21,.84,.14,.17,.37,.25,.68,.25,.57,0,1.05-.33,1.45-1v-4.14h1.01v5.8Z"/>
    <path d="M62.5,29.79c.3,.32,.45,.75,.45,1.3v4.16h-1.01v-4.02c0-.41-.08-.7-.23-.87-.15-.17-.38-.25-.68-.25s-.58,.09-.81,.26c-.23,.18-.45,.43-.66,.76v4.11h-1.01v-5.8h.87l.09,.86c.21-.31,.46-.55,.77-.73,.3-.18,.64-.26,1.01-.26,.53,0,.94,.16,1.24,.47Z"/>
    <path d="M69,34.42c.08,.11,.2,.2,.36,.26l-.23,.7c-.3-.04-.54-.12-.73-.25-.18-.13-.32-.34-.41-.62-.39,.58-.96,.87-1.73,.87-.57,0-1.02-.16-1.35-.48s-.5-.74-.5-1.27c0-.62,.22-1.09,.67-1.42s1.07-.49,1.89-.49h.89v-.43c0-.41-.1-.7-.3-.88-.2-.18-.5-.26-.91-.26s-.95,.1-1.56,.31l-.25-.74c.72-.26,1.39-.4,2-.4,.68,0,1.19,.17,1.53,.5,.34,.33,.51,.81,.51,1.42v2.65c0,.23,.04,.41,.12,.52Zm-1.13-.7v-1.33h-.76c-1.07,0-1.61,.4-1.61,1.19,0,.34,.08,.6,.25,.78,.17,.18,.42,.26,.75,.26,.58,0,1.03-.3,1.36-.9Z"/>
    <path d="M76.8,34.98c-.38,.26-.81,.4-1.3,.4s-.88-.14-1.15-.42-.41-.69-.41-1.23v-3.5h-1.01v-.78h1.01v-1.31l1.01-.12v1.43h1.38l-.11,.78h-1.27v3.45c0,.3,.05,.52,.16,.65,.11,.14,.28,.2,.53,.2,.23,0,.48-.08,.77-.23l.38,.67Z"/>
    <path d="M81.76,30.13c.45,.54,.68,1.28,.68,2.21,0,.6-.1,1.13-.31,1.59s-.5,.81-.89,1.07-.85,.38-1.39,.38c-.81,0-1.45-.27-1.9-.81-.46-.54-.68-1.28-.68-2.21,0-.6,.1-1.13,.31-1.59,.21-.46,.5-.81,.89-1.07,.39-.25,.85-.38,1.4-.38,.81,0,1.45,.27,1.9,.81Zm-3.4,2.22c0,1.47,.5,2.21,1.5,2.21s1.5-.74,1.5-2.22-.49-2.21-1.48-2.21-1.51,.74-1.51,2.22Z"/>
    <path d="M91.1,30.13c.45,.54,.68,1.28,.68,2.21,0,.6-.1,1.13-.31,1.59-.21,.46-.5,.81-.89,1.07s-.85,.38-1.38,.38c-.81,0-1.45-.27-1.9-.81-.45-.54-.68-1.28-.68-2.21,0-.6,.1-1.13,.31-1.59s.5-.81,.89-1.07c.39-.25,.86-.38,1.4-.38,.81,0,1.45,.27,1.9,.81Zm-3.4,2.22c0,1.47,.5,2.21,1.5,2.21s1.5-.74,1.5-2.22-.5-2.21-1.49-2.21-1.51,.74-1.51,2.22Z"/>
    <path d="M96.08,29.48c.31,.11,.62,.28,.9,.5l-.43,.64c-.26-.17-.52-.29-.75-.37s-.49-.12-.75-.12c-.33,0-.59,.07-.78,.2-.19,.14-.29,.32-.29,.56s.09,.42,.27,.55c.18,.13,.5,.26,.97,.38,.64,.16,1.13,.38,1.45,.66,.32,.28,.48,.66,.48,1.14,0,.57-.22,1.01-.66,1.31-.45,.3-.99,.45-1.62,.45-.88,0-1.61-.25-2.19-.76l.54-.62c.49,.37,1.03,.56,1.63,.56,.38,0,.68-.08,.91-.24,.22-.16,.34-.37,.34-.64,0-.2-.04-.36-.12-.48s-.22-.23-.42-.32-.49-.19-.87-.29c-.62-.16-1.06-.38-1.34-.65-.28-.27-.41-.62-.41-1.03,0-.3,.09-.57,.27-.82s.43-.44,.75-.57c.32-.14,.68-.2,1.07-.2s.75,.06,1.07,.17Z"/>
    <path d="M105.54,29.8c.29,.32,.43,.75,.43,1.29v4.16h-1.01v-4.02c0-.75-.27-1.12-.81-1.12-.29,0-.53,.08-.73,.25-.2,.17-.41,.42-.64,.78v4.11h-1.01v-4.02c0-.75-.27-1.12-.81-1.12-.29,0-.54,.08-.74,.25-.2,.17-.41,.43-.63,.77v4.11h-1.01v-5.8h.87l.09,.85c.43-.65,.99-.98,1.67-.98,.36,0,.67,.09,.92,.28,.25,.18,.43,.44,.54,.77,.23-.34,.48-.6,.75-.78,.28-.18,.6-.27,.97-.27,.48,0,.86,.16,1.14,.48Z"/>
    <path d="M111.19,35.04c-.22-.22-.32-.54-.32-.94v-6.98l1.01-.12v7.08c0,.16,.03,.28,.08,.35,.05,.07,.15,.11,.28,.11,.14,0,.26-.02,.38-.07l.26,.7c-.24,.13-.51,.2-.8,.2-.38,0-.67-.11-.89-.34Z"/>
    <path d="M118.45,32.7h-3.7c.04,.64,.21,1.11,.48,1.41,.28,.3,.64,.45,1.08,.45,.28,0,.54-.04,.77-.12,.23-.08,.48-.21,.74-.39l.44,.6c-.62,.48-1.29,.73-2.02,.73-.81,0-1.44-.26-1.89-.79-.45-.53-.68-1.25-.68-2.18,0-.6,.1-1.13,.29-1.6,.19-.47,.47-.83,.84-1.09,.36-.26,.79-.4,1.28-.4,.77,0,1.36,.25,1.77,.76s.62,1.21,.62,2.1c0,.17,0,.34-.02,.52Zm-.98-.81c0-.57-.11-1.01-.34-1.31-.23-.3-.57-.45-1.02-.45-.83,0-1.28,.61-1.35,1.83h2.72v-.07Z"/>
    <path d="M123.01,34.98c-.38,.26-.81,.4-1.3,.4s-.87-.14-1.15-.42-.41-.69-.41-1.23v-3.5h-1.01v-.78h1.01v-1.31l1.01-.12v1.43h1.38l-.11,.78h-1.26v3.45c0,.3,.05,.52,.16,.65,.11,.14,.29,.2,.54,.2,.23,0,.48-.08,.77-.23l.38,.67Z"/>
    <path d="M124.92,34.07c.15,.15,.22,.33,.22,.54,0,.23-.07,.49-.2,.78l-.74,1.68h-.72l.44-1.83c-.1-.07-.17-.17-.22-.27-.06-.11-.08-.23-.08-.36,0-.21,.07-.39,.22-.54,.15-.15,.33-.22,.54-.22s.4,.07,.55,.22Z"/>
    <path d="M133.91,29.45l-1.97,5.8h-1.22l-2-5.8h1.1l1.52,4.9,1.51-4.9h1.07Z"/>
    <path d="M138.25,35.04c-.22-.22-.32-.54-.32-.94v-6.98l1.01-.12v7.08c0,.16,.03,.28,.08,.35,.05,.07,.15,.11,.28,.11,.14,0,.26-.02,.38-.07l.26,.7c-.24,.13-.51,.2-.8,.2-.38,0-.67-.11-.89-.34Z"/>
    <path d="M145.51,32.7h-3.7c.04,.64,.21,1.11,.48,1.41s.64,.45,1.08,.45c.28,0,.54-.04,.77-.12s.48-.21,.74-.39l.44,.6c-.62,.48-1.29,.73-2.02,.73-.81,0-1.44-.26-1.89-.79-.45-.53-.68-1.25-.68-2.18,0-.6,.1-1.13,.29-1.6,.19-.47,.47-.83,.84-1.09,.36-.26,.79-.4,1.28-.4,.77,0,1.36,.25,1.77,.76,.41,.51,.62,1.21,.62,2.1,0,.17,0,.34-.02,.52Zm-.98-.81c0-.57-.11-1.01-.34-1.31-.23-.3-.57-.45-1.02-.45-.83,0-1.28,.61-1.35,1.83h2.72v-.07Z"/>
    <path d="M150.07,34.98c-.38,.26-.81,.4-1.3,.4s-.87-.14-1.15-.42-.41-.69-.41-1.23v-3.5h-1.01v-.78h1.01v-1.31l1.01-.12v1.43h1.38l-.11,.78h-1.26v3.45c0,.3,.05,.52,.16,.65,.11,.14,.29,.2,.54,.2,.23,0,.48-.08,.77-.23l.38,.67Z"/>
    <path d="M155.31,32.7h-3.7c.04,.64,.21,1.11,.48,1.41s.64,.45,1.08,.45c.28,0,.54-.04,.77-.12s.48-.21,.74-.39l.44,.6c-.62,.48-1.29,.73-2.02,.73-.81,0-1.44-.26-1.89-.79-.45-.53-.68-1.25-.68-2.18,0-.6,.1-1.13,.29-1.6,.19-.47,.47-.83,.84-1.09,.36-.26,.79-.4,1.28-.4,.77,0,1.36,.25,1.77,.76,.41,.51,.62,1.21,.62,2.1,0,.17,0,.34-.02,.52Zm-.98-.81c0-.57-.11-1.01-.34-1.31-.23-.3-.57-.45-1.02-.45-.83,0-1.28,.61-1.35,1.83h2.72v-.07Z"/>
    <path d="M160,29.47c.29,.1,.56,.26,.83,.48l-.48,.64c-.21-.15-.4-.25-.6-.32-.19-.07-.41-.1-.64-.1-.47,0-.83,.19-1.1,.56-.26,.37-.39,.93-.39,1.66s.13,1.27,.38,1.62c.26,.35,.62,.52,1.1,.52,.23,0,.44-.03,.63-.1,.19-.07,.4-.18,.64-.34l.46,.66c-.53,.43-1.12,.64-1.77,.64-.79,0-1.4-.26-1.85-.79-.45-.53-.68-1.26-.68-2.19,0-.62,.1-1.15,.31-1.62,.21-.46,.5-.82,.88-1.08,.38-.26,.83-.39,1.35-.39,.35,0,.66,.05,.95,.15Z"/>
    <path d="M166.17,29.79c.3,.32,.45,.75,.45,1.3v4.16h-1.01v-4.02c0-.41-.08-.7-.24-.87-.16-.17-.39-.25-.69-.25s-.57,.09-.8,.26c-.23,.18-.46,.43-.66,.75v4.12h-1.01v-8.12l1.01-.11v3.23c.46-.62,1.03-.94,1.72-.94,.53,0,.94,.16,1.24,.47Z"/>
    <path d="M174.07,27.89v7.36h-1.01v-6.28l-1.72,1.04-.44-.72,2.28-1.41h.89Z"/>
    <path d="M179.9,28.54c.4,.51,.6,1.21,.6,2.1,0,1-.13,1.81-.41,2.43s-.69,1.1-1.24,1.46c-.56,.36-1.31,.68-2.27,.96l-.23-.76c.98-.28,1.74-.66,2.26-1.13,.52-.48,.8-1.11,.84-1.9-.17,.26-.39,.48-.68,.64-.29,.16-.61,.24-.97,.24-.38,0-.73-.1-1.04-.29-.31-.19-.55-.47-.73-.83-.18-.36-.27-.77-.27-1.25s.11-.93,.32-1.3,.5-.65,.85-.84c.36-.19,.75-.29,1.18-.29,.78,0,1.37,.26,1.77,.76Zm-.42,2.33c.01-.81-.09-1.4-.3-1.75-.22-.36-.56-.53-1.03-.53-.43,0-.77,.14-1,.43-.24,.29-.35,.69-.35,1.22s.11,.9,.33,1.16c.22,.26,.52,.39,.89,.39,.58,0,1.07-.3,1.46-.91Z"/>
    <path d="M185.68,28.54c.4,.51,.61,1.21,.61,2.1,0,1-.14,1.81-.41,2.43-.27,.61-.69,1.1-1.24,1.46-.56,.36-1.31,.68-2.27,.96l-.23-.76c.98-.28,1.74-.66,2.26-1.13s.8-1.11,.84-1.9c-.17,.26-.4,.48-.68,.64-.29,.16-.61,.24-.97,.24-.38,0-.73-.1-1.03-.29-.31-.19-.55-.47-.73-.83-.18-.36-.27-.77-.27-1.25s.11-.93,.32-1.3c.21-.37,.5-.65,.85-.84,.36-.19,.75-.29,1.18-.29,.78,0,1.37,.26,1.77,.76Zm-.42,2.33c.02-.81-.09-1.4-.3-1.75-.21-.36-.56-.53-1.03-.53-.43,0-.77,.14-1,.43-.23,.29-.35,.69-.35,1.22s.11,.9,.33,1.16,.52,.39,.89,.39c.58,0,1.07-.3,1.46-.91Z"/>
    <path d="M190.26,28.03c.33,.17,.58,.4,.75,.68,.17,.29,.26,.6,.26,.94,0,.45-.13,.82-.39,1.11-.26,.29-.61,.49-1.04,.59,.49,.04,.89,.22,1.2,.53,.31,.31,.46,.73,.46,1.25,0,.43-.1,.81-.31,1.16s-.5,.61-.88,.81c-.38,.19-.82,.29-1.32,.29-.45,0-.86-.08-1.23-.25-.38-.16-.7-.41-.98-.74l.6-.56c.24,.25,.49,.43,.74,.55,.25,.12,.53,.18,.83,.18,.46,0,.82-.13,1.09-.39,.27-.26,.4-.61,.4-1.05,0-.48-.12-.83-.37-1.02-.25-.2-.61-.3-1.09-.3h-.55l.12-.78h.38c.38,0,.7-.11,.95-.34,.25-.23,.38-.55,.38-.96,0-.34-.11-.62-.33-.82-.22-.2-.52-.3-.89-.3-.29,0-.55,.05-.79,.15s-.48,.27-.73,.51l-.53-.6c.62-.58,1.32-.87,2.1-.87,.46,0,.85,.08,1.17,.25Z"/>
    <path d="M200.09,34.42c.08,.11,.2,.2,.36,.26l-.23,.7c-.3-.04-.54-.12-.73-.25-.18-.13-.32-.34-.41-.62-.39,.58-.96,.87-1.73,.87-.57,0-1.02-.16-1.35-.48s-.5-.74-.5-1.27c0-.62,.22-1.09,.67-1.42s1.07-.49,1.89-.49h.89v-.43c0-.41-.1-.7-.3-.88-.2-.18-.5-.26-.91-.26s-.95,.1-1.56,.31l-.25-.74c.72-.26,1.39-.4,2-.4,.68,0,1.19,.17,1.53,.5,.34,.33,.51,.81,.51,1.42v2.65c0,.23,.04,.41,.12,.52Zm-1.13-.7v-1.33h-.76c-1.07,0-1.61,.4-1.61,1.19,0,.34,.08,.6,.25,.78,.17,.18,.42,.26,.75,.26,.58,0,1.03-.3,1.36-.9Z"/>
    <path d="M207.47,27.89v7.36h-1.01v-6.28l-1.71,1.04-.44-.72,2.28-1.41h.89Z"/>
    <path d="M213.3,28.54c.4,.51,.61,1.21,.61,2.1,0,1-.14,1.81-.41,2.43-.27,.61-.69,1.1-1.24,1.46-.56,.36-1.31,.68-2.27,.96l-.23-.76c.98-.28,1.74-.66,2.26-1.13s.8-1.11,.84-1.9c-.17,.26-.4,.48-.68,.64-.29,.16-.61,.24-.97,.24-.38,0-.73-.1-1.03-.29-.31-.19-.55-.47-.73-.83-.18-.36-.27-.77-.27-1.25s.11-.93,.32-1.3c.21-.37,.5-.65,.85-.84,.36-.19,.75-.29,1.18-.29,.78,0,1.37,.26,1.77,.76Zm-.42,2.33c.02-.81-.09-1.4-.3-1.75-.21-.36-.56-.53-1.03-.53-.43,0-.77,.14-1,.43-.23,.29-.35,.69-.35,1.22s.11,.9,.33,1.16,.52,.39,.89,.39c.58,0,1.07-.3,1.46-.91Z"/>
    <path d="M219.07,28.54c.4,.51,.61,1.21,.61,2.1,0,1-.14,1.81-.41,2.43-.27,.61-.69,1.1-1.24,1.46-.56,.36-1.31,.68-2.27,.96l-.23-.76c.98-.28,1.74-.66,2.26-1.13s.8-1.11,.84-1.9c-.17,.26-.4,.48-.68,.64-.29,.16-.61,.24-.97,.24-.38,0-.73-.1-1.03-.29-.31-.19-.55-.47-.73-.83-.18-.36-.27-.77-.27-1.25s.11-.93,.32-1.3c.21-.37,.5-.65,.85-.84,.36-.19,.75-.29,1.18-.29,.78,0,1.37,.26,1.77,.76Zm-.42,2.33c.02-.81-.09-1.4-.3-1.75-.21-.36-.56-.53-1.03-.53-.43,0-.77,.14-1,.43-.23,.29-.35,.69-.35,1.22s.11,.9,.33,1.16,.52,.39,.89,.39c.58,0,1.07-.3,1.46-.91Z"/>
    <path d="M225.64,32.63v.8h-.96v1.81h-.98v-1.81h-3.14v-.73l2.21-4.93,.85,.35-1.99,4.5h2.09l.09-1.98h.88v1.98h.96Z"/>
    <path d="M232.57,29.48c.32,.11,.62,.28,.9,.5l-.43,.64c-.27-.17-.52-.29-.75-.37s-.49-.12-.75-.12c-.33,0-.59,.07-.78,.2-.19,.14-.29,.32-.29,.56s.09,.42,.27,.55c.18,.13,.5,.26,.97,.38,.65,.16,1.13,.38,1.45,.66,.32,.28,.48,.66,.48,1.14,0,.57-.22,1.01-.67,1.31s-.98,.45-1.62,.45c-.88,0-1.61-.25-2.19-.76l.54-.62c.49,.37,1.03,.56,1.63,.56,.38,0,.68-.08,.91-.24,.22-.16,.33-.37,.33-.64,0-.2-.04-.36-.12-.48-.08-.12-.22-.23-.42-.32-.2-.09-.49-.19-.87-.29-.62-.16-1.06-.38-1.34-.65-.28-.27-.41-.62-.41-1.03,0-.3,.09-.57,.27-.82s.43-.44,.75-.57,.68-.2,1.07-.2,.75,.06,1.07,.17Z"/>
    <path d="M239.42,32.7h-3.7c.04,.64,.21,1.11,.48,1.41,.28,.3,.64,.45,1.08,.45,.28,0,.54-.04,.77-.12,.23-.08,.48-.21,.74-.39l.44,.6c-.62,.48-1.29,.73-2.02,.73-.81,0-1.44-.26-1.89-.79-.45-.53-.68-1.25-.68-2.18,0-.6,.1-1.13,.29-1.6,.19-.47,.47-.83,.84-1.09,.36-.26,.79-.4,1.28-.4,.77,0,1.36,.25,1.77,.76s.62,1.21,.62,2.1c0,.17,0,.34-.02,.52Zm-.98-.81c0-.57-.11-1.01-.34-1.31-.23-.3-.57-.45-1.02-.45-.83,0-1.28,.61-1.35,1.83h2.72v-.07Z"/>
    <path d="M248.23,29.45l-1.97,5.8h-1.22l-2-5.8h1.1l1.52,4.9,1.51-4.9h1.07Z"/>
    <path d="M251.71,35.28c-.23,.67-.54,1.21-.95,1.6-.41,.39-.99,.63-1.74,.71l-.11-.79c.38-.07,.69-.16,.91-.29,.23-.12,.41-.28,.54-.48,.14-.19,.26-.46,.38-.79h-.34l-1.95-5.8h1.08l1.55,5.06,1.52-5.06h1.04l-1.94,5.83Z"/>
    <path d="M258.2,29.45v.77l-3.03,4.18h3.06l-.12,.85h-4.08v-.76l3.01-4.18h-2.76v-.86h3.92Z"/>
    <path d="M263.57,29.79c.3,.32,.45,.75,.45,1.3v4.16h-1.01v-4.02c0-.41-.08-.7-.23-.87-.15-.17-.38-.25-.68-.25s-.58,.09-.81,.26c-.23,.18-.46,.43-.66,.76v4.11h-1.01v-5.8h.87l.09,.86c.21-.31,.46-.55,.76-.73,.3-.18,.64-.26,1.01-.26,.53,0,.94,.16,1.24,.47Z"/>
    <path d="M270.08,34.42c.08,.11,.2,.2,.36,.26l-.23,.7c-.3-.04-.54-.12-.73-.25-.18-.13-.32-.34-.41-.62-.39,.58-.96,.87-1.73,.87-.57,0-1.02-.16-1.35-.48s-.49-.74-.49-1.27c0-.62,.22-1.09,.66-1.42,.45-.33,1.07-.49,1.89-.49h.89v-.43c0-.41-.1-.7-.3-.88-.2-.18-.5-.26-.91-.26s-.95,.1-1.56,.31l-.25-.74c.72-.26,1.38-.4,2-.4,.68,0,1.19,.17,1.53,.5,.34,.33,.51,.81,.51,1.42v2.65c0,.23,.04,.41,.12,.52Zm-1.13-.7v-1.33h-.76c-1.07,0-1.61,.4-1.61,1.19,0,.34,.08,.6,.25,.78,.17,.18,.42,.26,.75,.26,.58,0,1.04-.3,1.37-.9Z"/>
    <path d="M279,29.8c.29,.32,.43,.75,.43,1.29v4.16h-1.01v-4.02c0-.75-.27-1.12-.81-1.12-.29,0-.53,.08-.73,.25-.2,.17-.41,.42-.64,.78v4.11h-1.01v-4.02c0-.75-.27-1.12-.81-1.12-.29,0-.54,.08-.74,.25-.2,.17-.41,.43-.63,.77v4.11h-1.01v-5.8h.87l.09,.85c.43-.65,.99-.98,1.67-.98,.36,0,.67,.09,.92,.28,.25,.18,.44,.44,.54,.77,.23-.34,.48-.6,.75-.78,.27-.18,.6-.27,.97-.27,.48,0,.86,.16,1.14,.48Z"/>
    <path d="M285.82,32.7h-3.7c.04,.64,.21,1.11,.48,1.41s.64,.45,1.08,.45c.28,0,.54-.04,.77-.12s.48-.21,.74-.39l.44,.6c-.62,.48-1.29,.73-2.02,.73-.81,0-1.44-.26-1.89-.79-.45-.53-.68-1.25-.68-2.18,0-.6,.1-1.13,.29-1.6,.19-.47,.47-.83,.84-1.09,.36-.26,.79-.4,1.28-.4,.77,0,1.36,.25,1.77,.76,.41,.51,.62,1.21,.62,2.1,0,.17,0,.34-.02,.52Zm-.98-.81c0-.57-.11-1.01-.34-1.31-.23-.3-.57-.45-1.02-.45-.83,0-1.28,.61-1.35,1.83h2.72v-.07Z"/>
    <path d="M291.43,29.79c.3,.32,.45,.75,.45,1.3v4.16h-1.01v-4.02c0-.41-.08-.7-.23-.87-.15-.17-.38-.25-.68-.25s-.58,.09-.81,.26c-.23,.18-.46,.43-.66,.76v4.11h-1.01v-5.8h.87l.09,.86c.21-.31,.46-.55,.76-.73,.3-.18,.64-.26,1.01-.26,.53,0,.94,.16,1.24,.47Z"/>
    <path d="M297.93,34.42c.08,.11,.2,.2,.36,.26l-.23,.7c-.3-.04-.54-.12-.73-.25-.18-.13-.32-.34-.41-.62-.39,.58-.96,.87-1.73,.87-.57,0-1.02-.16-1.35-.48s-.49-.74-.49-1.27c0-.62,.22-1.09,.66-1.42,.45-.33,1.07-.49,1.89-.49h.89v-.43c0-.41-.1-.7-.3-.88-.2-.18-.5-.26-.91-.26s-.95,.1-1.56,.31l-.25-.74c.72-.26,1.38-.4,2-.4,.68,0,1.19,.17,1.53,.5,.34,.33,.51,.81,.51,1.42v2.65c0,.23,.04,.41,.12,.52Zm-1.33-7.98l.45,.85-2.33,.95-.31-.54,2.19-1.25Zm.2,7.28v-1.33h-.76c-1.07,0-1.61,.4-1.61,1.19,0,.34,.08,.6,.25,.78,.17,.18,.42,.26,.75,.26,.58,0,1.04-.3,1.37-.9Z"/>
    <path d="M303.86,29.79c.3,.32,.45,.75,.45,1.3v4.16h-1.01v-4.02c0-.41-.08-.7-.23-.87-.15-.17-.38-.25-.68-.25s-.58,.09-.81,.26c-.23,.18-.46,.43-.66,.76v4.11h-1.01v-5.8h.87l.09,.86c.21-.31,.46-.55,.76-.73,.3-.18,.64-.26,1.01-.26,.53,0,.94,.16,1.24,.47Z"/>
    <path d="M307.71,26.44l.45,.85-2.33,.95-.31-.54,2.19-1.25Zm-.36,3.01v5.8h-1.01v-5.8h1.01Z"/>
    <path d="M316.32,29.79c.3,.32,.45,.75,.45,1.3v4.16h-1.01v-4.02c0-.41-.08-.7-.23-.87-.15-.17-.38-.25-.68-.25s-.58,.09-.81,.26c-.23,.18-.46,.43-.66,.76v4.11h-1.01v-5.8h.87l.09,.86c.21-.31,.46-.55,.76-.73,.3-.18,.64-.26,1.01-.26,.53,0,.94,.16,1.24,.47Z"/>
    <path d="M323.16,32.7h-3.7c.04,.64,.21,1.11,.48,1.41s.64,.45,1.08,.45c.28,0,.54-.04,.77-.12s.48-.21,.74-.39l.44,.6c-.62,.48-1.29,.73-2.02,.73-.81,0-1.44-.26-1.89-.79-.45-.53-.68-1.25-.68-2.18,0-.6,.1-1.13,.29-1.6,.19-.47,.47-.83,.84-1.09,.36-.26,.79-.4,1.28-.4,.77,0,1.36,.25,1.77,.76,.41,.51,.62,1.21,.62,2.1,0,.17,0,.34-.02,.52Zm-.98-.81c0-.57-.11-1.01-.34-1.31-.23-.3-.57-.45-1.02-.45-.83,0-1.28,.61-1.35,1.83h2.72v-.07Z"/>
    <path d="M329.11,35.25h-.87l-.08-.9c-.22,.36-.47,.62-.76,.79-.29,.17-.63,.25-1.04,.25-.51,0-.9-.15-1.19-.46-.29-.31-.43-.74-.43-1.31v-4.16h1.01v4.05c0,.4,.07,.68,.21,.84,.14,.17,.37,.25,.68,.25,.56,0,1.05-.33,1.45-1v-4.14h1.01v5.8Z"/>
    <path d="M335.68,27.12v8.13h-.89l-.1-.8c-.19,.29-.43,.52-.71,.69-.29,.17-.61,.25-.96,.25-.69,0-1.23-.27-1.61-.81-.38-.54-.58-1.27-.58-2.19,0-.59,.09-1.12,.28-1.58s.45-.82,.79-1.08c.34-.26,.75-.39,1.21-.39,.59,0,1.12,.24,1.56,.72v-3.04l1.01,.12Zm-1.65,7.24c.22-.14,.43-.36,.64-.64v-2.84c-.19-.25-.39-.44-.61-.57-.21-.13-.46-.19-.73-.19-.45,0-.79,.19-1.04,.56-.25,.37-.37,.93-.37,1.67s.11,1.31,.34,1.67c.23,.37,.55,.55,.98,.55,.31,0,.57-.07,.79-.21Z"/>
    <path d="M342.13,32.7h-3.7c.04,.64,.21,1.11,.48,1.41s.64,.45,1.08,.45c.28,0,.54-.04,.77-.12s.48-.21,.74-.39l.44,.6c-.62,.48-1.29,.73-2.02,.73-.81,0-1.44-.26-1.89-.79-.45-.53-.68-1.25-.68-2.18,0-.6,.1-1.13,.29-1.6,.19-.47,.47-.83,.84-1.09,.36-.26,.79-.4,1.28-.4,.77,0,1.36,.25,1.77,.76,.41,.51,.62,1.21,.62,2.1,0,.17,0,.34-.02,.52Zm-.94-6.08l.43,.49-1.48,1.24h-.67l-1.5-1.24,.44-.49,1.39,.92,1.4-.92Zm-.04,5.27c0-.57-.11-1.01-.34-1.31-.23-.3-.57-.45-1.02-.45-.83,0-1.28,.61-1.35,1.83h2.72v-.07Z"/>
    <path d="M344.04,35.04c-.22-.22-.32-.54-.32-.94v-6.98l1.01-.12v7.08c0,.16,.03,.28,.08,.35s.15,.11,.28,.11,.26-.02,.37-.07l.26,.7c-.24,.13-.51,.2-.8,.2-.37,0-.67-.11-.88-.34Z"/>
    <path d="M351.01,30.13c.45,.54,.68,1.28,.68,2.21,0,.6-.1,1.13-.31,1.59s-.5,.81-.89,1.07-.85,.38-1.39,.38c-.81,0-1.45-.27-1.9-.81-.46-.54-.68-1.28-.68-2.21,0-.6,.1-1.13,.31-1.59,.21-.46,.5-.81,.89-1.07,.39-.25,.85-.38,1.4-.38,.81,0,1.45,.27,1.9,.81Zm-3.4,2.22c0,1.47,.5,2.21,1.5,2.21s1.5-.74,1.5-2.22-.49-2.21-1.48-2.21-1.51,.74-1.51,2.22Z"/>
    <path d="M357.57,29.45l-1.97,5.8h-1.22l-2-5.8h1.1l1.52,4.9,1.51-4.9h1.07Z"/>
    <path d="M362.58,34.42c.08,.11,.2,.2,.36,.26l-.23,.7c-.3-.04-.54-.12-.73-.25-.18-.13-.32-.34-.41-.62-.39,.58-.96,.87-1.73,.87-.57,0-1.02-.16-1.35-.48s-.49-.74-.49-1.27c0-.62,.22-1.09,.66-1.42,.45-.33,1.07-.49,1.89-.49h.89v-.43c0-.41-.1-.7-.3-.88-.2-.18-.5-.26-.91-.26s-.95,.1-1.56,.31l-.25-.74c.72-.26,1.38-.4,2-.4,.68,0,1.19,.17,1.53,.5,.34,.33,.51,.81,.51,1.42v2.65c0,.23,.04,.41,.12,.52Zm-1.13-.7v-1.33h-.76c-1.07,0-1.61,.4-1.61,1.19,0,.34,.08,.6,.25,.78,.17,.18,.42,.26,.75,.26,.58,0,1.04-.3,1.37-.9Z"/>
    <path d="M364.7,35.04c-.22-.22-.32-.54-.32-.94v-6.98l1.01-.12v7.08c0,.16,.03,.28,.08,.35s.15,.11,.28,.11,.26-.02,.37-.07l.26,.7c-.24,.13-.51,.2-.8,.2-.37,0-.67-.11-.88-.34Z"/>
    <path d="M371.62,34.42c.08,.11,.2,.2,.36,.26l-.23,.7c-.3-.04-.54-.12-.73-.25-.18-.13-.32-.34-.41-.62-.39,.58-.96,.87-1.73,.87-.57,0-1.02-.16-1.35-.48s-.5-.74-.5-1.27c0-.62,.22-1.09,.67-1.42s1.07-.49,1.89-.49h.89v-.43c0-.41-.1-.7-.3-.88-.2-.18-.5-.26-.91-.26s-.95,.1-1.56,.31l-.25-.74c.72-.26,1.39-.4,2-.4,.68,0,1.19,.17,1.53,.5,.34,.33,.51,.81,.51,1.42v2.65c0,.23,.04,.41,.12,.52Zm-1.13-.7v-1.33h-.76c-1.07,0-1.61,.4-1.61,1.19,0,.34,.08,.6,.25,.78,.17,.18,.42,.26,.75,.26,.58,0,1.03-.3,1.36-.9Z"/>
    <path d="M374.39,34.07c.15,.15,.22,.33,.22,.54s-.07,.39-.22,.54c-.15,.15-.33,.23-.55,.23s-.39-.08-.54-.23c-.15-.15-.22-.33-.22-.54s.07-.39,.22-.54c.15-.15,.33-.22,.54-.22s.4,.07,.55,.22Z"/>
  </g>
  <g>
    <path class="cls-3" d="M44.89,260.33v.89l-3.72,6.42h3.71l-.12,.95h-4.81v-.89l3.74-6.44h-3.37v-.92h4.57Z"/>
    <path class="cls-3" d="M50.5,259.72v8.87h-.96l-.07-.83c-.41,.66-.96,.98-1.64,.98s-1.22-.29-1.6-.88c-.38-.58-.57-1.39-.57-2.41,0-.66,.09-1.25,.28-1.75,.19-.5,.46-.89,.8-1.17s.74-.41,1.19-.41c.6,0,1.1,.25,1.5,.76v-3.28l1.08,.12Zm-1.67,7.93c.21-.16,.41-.4,.59-.71v-3.17c-.36-.54-.78-.8-1.26-.8-.42,0-.76,.2-1.01,.61s-.37,1.02-.36,1.85c0,.84,.11,1.46,.34,1.86,.22,.4,.54,.6,.95,.6,.29,0,.54-.08,.75-.24Z"/>
    <path class="cls-3" d="M55.58,262.21l-.18,1.04c-.15-.05-.32-.07-.49-.07-.35,0-.64,.14-.86,.42-.22,.28-.39,.71-.52,1.29v3.71h-1.08v-6.31h.94l.08,1.25c.31-.93,.84-1.39,1.57-1.39,.21,0,.39,.02,.54,.07Z"/>
    <path class="cls-3" d="M60.38,262.97c.45,.57,.67,1.38,.67,2.45s-.23,1.83-.68,2.43c-.46,.6-1.08,.89-1.88,.89s-1.44-.29-1.89-.88c-.45-.58-.68-1.4-.68-2.44s.23-1.86,.68-2.44,1.09-.87,1.9-.87,1.44,.28,1.88,.85Zm-2.96,.61c-.25,.4-.37,1.01-.37,1.85,0,1.64,.48,2.46,1.44,2.46s1.44-.82,1.44-2.47c0-.84-.12-1.46-.36-1.85-.24-.39-.6-.59-1.07-.59s-.83,.2-1.08,.59Z"/>
    <path class="cls-3" d="M63.69,268.34c0,.54-.07,.97-.21,1.31-.14,.34-.34,.62-.6,.83-.26,.21-.61,.42-1.05,.63l-.34-.78c.28-.14,.5-.29,.65-.43s.27-.34,.35-.58,.12-.56,.12-.96v-6.08h1.08v6.06Zm-.03-8.83c.13,.14,.2,.3,.2,.5s-.06,.37-.19,.5c-.13,.13-.3,.2-.52,.2s-.38-.07-.51-.2c-.13-.13-.2-.3-.2-.5s.07-.37,.2-.5c.13-.13,.3-.2,.51-.2s.38,.07,.51,.2Z"/>
    <path class="cls-3" d="M72.94,259.72v8.87h-.96l-.07-.83c-.41,.66-.96,.98-1.64,.98s-1.22-.29-1.6-.88c-.38-.58-.57-1.39-.57-2.41,0-.66,.09-1.25,.28-1.75,.19-.5,.46-.89,.8-1.17s.74-.41,1.19-.41c.6,0,1.1,.25,1.5,.76v-3.28l1.08,.12Zm-1.67,7.93c.21-.16,.41-.4,.59-.71v-3.17c-.36-.54-.78-.8-1.26-.8-.42,0-.76,.2-1.01,.61s-.37,1.02-.36,1.85c0,.84,.11,1.46,.34,1.86,.22,.4,.54,.6,.95,.6,.29,0,.54-.08,.75-.24Z"/>
    <path class="cls-3" d="M78.93,267.72c.07,.12,.18,.22,.34,.28l-.23,.73c-.31-.05-.55-.14-.73-.29-.18-.14-.3-.36-.37-.66-.41,.64-.98,.96-1.72,.96-.56,0-1-.17-1.33-.52s-.49-.81-.49-1.4c0-.67,.22-1.18,.66-1.54,.44-.35,1.07-.53,1.88-.53h.82v-.54c0-.44-.09-.76-.27-.95-.18-.2-.47-.29-.88-.29-.44,0-.95,.11-1.54,.34l-.27-.76c.71-.29,1.36-.43,1.97-.43,1.37,0,2.05,.68,2.05,2.05v2.98c0,.26,.04,.45,.11,.57Zm-1.18-.77v-1.49h-.7c-1.04,0-1.56,.44-1.56,1.31,0,.38,.08,.67,.25,.87,.17,.2,.41,.3,.72,.3,.56,0,.99-.33,1.29-.98Z"/>
    <path class="cls-3" d="M83.75,268.31c-.4,.29-.84,.43-1.33,.43s-.91-.15-1.18-.44c-.28-.3-.41-.71-.41-1.25v-3.96h-.9v-.82h.9v-1.45l1.08-.13v1.58h1.39l-.12,.82h-1.27v3.95c0,.54,.23,.82,.68,.82,.13,0,.26-.02,.38-.06,.12-.04,.25-.1,.39-.18l.4,.7Z"/>
    <path class="cls-3" d="M85.57,262.98c.14,.15,.21,.33,.21,.53s-.07,.39-.21,.54c-.14,.15-.32,.23-.54,.23s-.39-.08-.54-.23c-.14-.15-.21-.33-.21-.54s.07-.38,.21-.53c.14-.15,.32-.22,.54-.22s.41,.07,.54,.22Zm0,4.46c.14,.15,.21,.33,.21,.53s-.07,.39-.21,.54c-.14,.15-.32,.23-.54,.23s-.39-.08-.54-.23c-.14-.15-.21-.33-.21-.54s.07-.39,.21-.53c.14-.15,.32-.22,.54-.22s.41,.07,.54,.22Z"/>
    <path class="cls-3" d="M94.27,268.59v-3.88h-3v3.88h-1.12v-8.26h1.12v3.47h3v-3.47h1.12v8.26h-1.12Z"/>
    <path class="cls-3" d="M100.5,262.21l-.18,1.04c-.15-.05-.32-.07-.49-.07-.35,0-.64,.14-.86,.42-.22,.28-.39,.71-.52,1.29v3.71h-1.08v-6.31h.94l.08,1.25c.31-.93,.84-1.39,1.57-1.39,.21,0,.39,.02,.54,.07Z"/>
    <path class="cls-3" d="M105.23,267.72c.07,.12,.19,.22,.34,.28l-.23,.73c-.31-.05-.56-.14-.73-.29s-.3-.36-.37-.66c-.41,.64-.98,.96-1.71,.96-.56,0-1-.17-1.33-.52s-.49-.81-.49-1.4c0-.67,.22-1.18,.66-1.54,.44-.35,1.07-.53,1.88-.53h.81v-.54c0-.44-.09-.76-.27-.95s-.47-.29-.88-.29c-.44,0-.95,.11-1.54,.34l-.26-.76c.7-.29,1.36-.43,1.97-.43,1.37,0,2.05,.68,2.05,2.05v2.98c0,.26,.04,.45,.11,.57Zm-1.18-.77v-1.49h-.7c-1.04,0-1.56,.44-1.56,1.31,0,.38,.08,.67,.25,.87,.17,.2,.41,.3,.72,.3,.56,0,.99-.33,1.28-.98Z"/>
    <path class="cls-3" d="M111.56,259.72v8.87h-.96l-.07-.83c-.41,.66-.96,.98-1.64,.98s-1.22-.29-1.6-.88c-.38-.58-.57-1.39-.57-2.41,0-.66,.09-1.25,.28-1.75,.19-.5,.46-.89,.8-1.17s.74-.41,1.19-.41c.6,0,1.1,.25,1.5,.76v-3.28l1.08,.12Zm-1.67,7.93c.21-.16,.41-.4,.59-.71v-3.17c-.36-.54-.78-.8-1.26-.8-.42,0-.76,.2-1.01,.61s-.37,1.02-.36,1.85c0,.84,.11,1.46,.34,1.86,.22,.4,.54,.6,.95,.6,.29,0,.54-.08,.75-.24Z"/>
    <path class="cls-3" d="M114.33,267.44c.14,.15,.21,.33,.21,.53s-.07,.39-.21,.54c-.14,.15-.32,.23-.54,.23s-.39-.08-.54-.23c-.14-.15-.21-.33-.21-.54s.07-.39,.21-.53c.14-.15,.32-.22,.54-.22s.41,.07,.54,.22Z"/>
    <path class="cls-3" d="M119.05,262.29c.28,.11,.55,.28,.8,.52l-.48,.65c-.19-.15-.38-.27-.58-.34-.19-.08-.4-.11-.62-.11-.47,0-.84,.2-1.1,.6-.26,.4-.39,1.03-.39,1.87,0,1.58,.5,2.38,1.49,2.38,.22,0,.43-.04,.61-.11,.18-.08,.38-.19,.59-.34l.5,.66c-.51,.46-1.09,.7-1.74,.7-.81,0-1.44-.28-1.9-.84-.46-.56-.69-1.37-.69-2.42,0-.69,.11-1.28,.32-1.79,.21-.5,.51-.89,.9-1.16,.39-.27,.84-.41,1.36-.41,.34,0,.64,.05,.92,.17Z"/>
    <path class="cls-3" d="M124.5,262.28v.8l-2.99,4.62h3l-.11,.89h-4.08v-.8l2.99-4.62h-2.74v-.89h3.92Z"/>
    <path class="cls-3" d="M133.11,258.91v10.91h-1.01v-10.91h1.01Z"/>
    <path class="cls-3" d="M146.38,260.33l-2.28,8.26h-1.33l-2.32-8.26h1.15l1.85,7.18,1.82-7.18h1.1Z"/>
    <path class="cls-3" d="M148.5,259.5c.13,.14,.2,.3,.2,.5s-.06,.37-.19,.5c-.13,.13-.3,.2-.52,.2s-.38-.07-.51-.2c-.13-.13-.2-.3-.2-.5s.07-.37,.2-.5c.13-.13,.3-.2,.51-.2s.38,.07,.51,.2Zm.03,2.77v6.31h-1.08v-6.31h1.08Z"/>
    <path class="cls-3" d="M153.92,262.28v.8l-2.99,4.62h3l-.11,.89h-4.08v-.8l2.99-4.62h-2.73v-.89h3.92Z"/>
    <path class="cls-3" d="M159.45,268.59h-.94l-.06-.95c-.44,.74-1.03,1.1-1.76,1.1-.5,0-.9-.16-1.19-.49s-.43-.77-.43-1.33v-4.64h1.08v4.55c0,.37,.07,.64,.21,.81,.14,.17,.35,.26,.63,.26,.54,0,1-.35,1.38-1.06v-4.56h1.08v6.31Z"/>
    <path class="cls-3" d="M165.44,267.72c.07,.12,.18,.22,.34,.28l-.23,.73c-.31-.05-.55-.14-.73-.29-.18-.14-.3-.36-.37-.66-.41,.64-.98,.96-1.72,.96-.56,0-1-.17-1.33-.52s-.49-.81-.49-1.4c0-.67,.22-1.18,.66-1.54,.44-.35,1.07-.53,1.88-.53h.82v-.54c0-.44-.09-.76-.27-.95-.18-.2-.47-.29-.88-.29-.44,0-.95,.11-1.54,.34l-.27-.76c.71-.29,1.36-.43,1.97-.43,1.37,0,2.05,.68,2.05,2.05v2.98c0,.26,.04,.45,.11,.57Zm-1.18-.77v-1.49h-.7c-1.04,0-1.56,.44-1.56,1.31,0,.38,.08,.67,.25,.87,.17,.2,.41,.3,.72,.3,.56,0,.99-.33,1.29-.98Z"/>
    <path class="cls-3" d="M167.43,268.4c-.22-.23-.34-.56-.34-.97v-7.7l1.08-.12v7.79c0,.31,.13,.47,.38,.47,.1,0,.22-.02,.35-.07l.24,.76c-.26,.13-.52,.2-.8,.2-.38,0-.69-.12-.91-.35Z"/>
    <path class="cls-3" d="M171.37,259.5c.13,.14,.2,.3,.2,.5s-.06,.37-.19,.5c-.13,.13-.3,.2-.52,.2s-.38-.07-.51-.2c-.13-.13-.2-.3-.2-.5s.07-.37,.2-.5c.13-.13,.3-.2,.51-.2s.38,.07,.51,.2Zm.03,2.77v6.31h-1.08v-6.31h1.08Z"/>
    <path class="cls-3" d="M176.79,262.28v.8l-2.99,4.62h3l-.11,.89h-4.08v-.8l2.99-4.62h-2.74v-.89h3.92Z"/>
    <path class="cls-3" d="M181.98,267.72c.07,.12,.19,.22,.34,.28l-.23,.73c-.31-.05-.56-.14-.73-.29s-.3-.36-.37-.66c-.41,.64-.98,.96-1.71,.96-.56,0-1-.17-1.33-.52s-.49-.81-.49-1.4c0-.67,.22-1.18,.66-1.54,.44-.35,1.07-.53,1.88-.53h.81v-.54c0-.44-.09-.76-.27-.95s-.47-.29-.88-.29c-.44,0-.95,.11-1.54,.34l-.26-.76c.7-.29,1.36-.43,1.97-.43,1.37,0,2.05,.68,2.05,2.05v2.98c0,.26,.04,.45,.11,.57Zm-1.18-.77v-1.49h-.7c-1.04,0-1.56,.44-1.56,1.31,0,.38,.08,.67,.25,.87,.17,.2,.41,.3,.72,.3,.56,0,.99-.33,1.28-.98Z"/>
    <path class="cls-3" d="M186.94,262.29c.28,.11,.55,.28,.8,.52l-.48,.65c-.19-.15-.38-.27-.58-.34-.19-.08-.4-.11-.62-.11-.47,0-.84,.2-1.1,.6-.26,.4-.39,1.03-.39,1.87,0,1.58,.5,2.38,1.49,2.38,.22,0,.43-.04,.61-.11,.18-.08,.38-.19,.59-.34l.5,.66c-.51,.46-1.09,.7-1.74,.7-.81,0-1.44-.28-1.9-.84-.46-.56-.69-1.37-.69-2.42,0-.69,.11-1.28,.32-1.79,.21-.5,.51-.89,.9-1.16,.39-.27,.84-.41,1.36-.41,.34,0,.64,.05,.92,.17Z"/>
    <path class="cls-3" d="M193.13,265.81h-3.67c.03,.74,.18,1.27,.45,1.59,.26,.32,.62,.49,1.08,.49,.29,0,.55-.04,.78-.13s.46-.23,.71-.43l.48,.64c-.59,.53-1.26,.79-2.02,.79-.82,0-1.46-.29-1.91-.86-.45-.57-.68-1.38-.68-2.41s.21-1.85,.65-2.45c.43-.6,1.03-.91,1.8-.91s1.34,.27,1.75,.81c.41,.54,.61,1.31,.61,2.31,0,.17,0,.36-.03,.56Zm-1.02-.89c0-1.32-.44-1.98-1.31-1.98-.4,0-.71,.17-.95,.5s-.36,.87-.4,1.61h2.65v-.13Z"/>
    <path class="cls-3" d="M195.49,262.98c.14,.15,.21,.33,.21,.53s-.07,.39-.21,.54c-.14,.15-.32,.23-.54,.23s-.39-.08-.54-.23c-.14-.15-.21-.33-.21-.54s.07-.38,.21-.53c.14-.15,.32-.22,.54-.22s.41,.07,.54,.22Zm0,4.46c.14,.15,.21,.33,.21,.53s-.07,.39-.21,.54c-.14,.15-.32,.23-.54,.23s-.39-.08-.54-.23c-.14-.15-.21-.33-.21-.54s.07-.39,.21-.53c.14-.15,.32-.22,.54-.22s.41,.07,.54,.22Z"/>
    <path class="cls-3" d="M201.07,259.5c.13,.14,.2,.3,.2,.5s-.06,.37-.19,.5c-.13,.13-.3,.2-.52,.2s-.38-.07-.51-.2c-.13-.13-.2-.3-.2-.5s.07-.37,.2-.5c.13-.13,.3-.2,.51-.2s.38,.07,.51,.2Zm.03,2.77v6.31h-1.08v-6.31h1.08Z"/>
    <path class="cls-3" d="M207.15,268.59l-1.78-3.52h-1.16v3.52h-1.12v-8.26h1.93c1.97,0,2.95,.78,2.95,2.33,0,.54-.13,1-.4,1.38-.26,.38-.65,.65-1.16,.83l1.97,3.72h-1.24Zm-.76-4.75c.28-.25,.42-.65,.42-1.18,0-.5-.14-.88-.43-1.12-.28-.24-.75-.36-1.39-.36h-.79v3.04h.9c.58,0,1-.13,1.28-.38Z"/>
    <path class="cls-3" d="M214.59,261.26c.56,.72,.85,1.79,.85,3.2s-.28,2.44-.84,3.18c-.56,.74-1.34,1.1-2.33,1.1s-1.76-.36-2.32-1.09c-.56-.72-.85-1.79-.85-3.19,0-.92,.13-1.7,.39-2.35,.26-.64,.63-1.13,1.1-1.46,.48-.33,1.04-.49,1.67-.49,.98,0,1.76,.36,2.32,1.09Zm-4.31,3.21c0,2.25,.66,3.37,1.99,3.37,.66,0,1.15-.27,1.49-.8,.34-.54,.5-1.4,.5-2.58s-.17-2.04-.51-2.58c-.34-.54-.83-.82-1.48-.82-1.33,0-1.99,1.14-1.99,3.41Z"/>
    <path class="cls-3" d="M220.98,260.33v.89l-3.72,6.42h3.71l-.12,.95h-4.81v-.89l3.74-6.44h-3.37v-.92h4.57Z"/>
    <path class="cls-3" d="M226.54,268.59v-3.88h-3v3.88h-1.12v-8.26h1.12v3.47h3v-3.47h1.12v8.26h-1.12Z"/>
    <path class="cls-3" d="M230.81,260.33v7.31h3.01l-.12,.95h-4.01v-8.26h1.12Z"/>
    <path class="cls-3" d="M239.07,268.59l-.55-2.1h-2.77l-.55,2.1h-1.12l2.39-8.26h1.37l2.39,8.26h-1.15Zm-3.1-2.98h2.32l-1.15-4.39-1.16,4.39Z"/>
    <path class="cls-3" d="M244.56,260.42c.36,.16,.71,.4,1.03,.72l-.56,.64c-.27-.24-.54-.42-.81-.53-.27-.12-.56-.17-.87-.17-.4,0-.72,.11-.96,.33-.24,.22-.37,.51-.37,.87,0,.24,.05,.45,.14,.62s.26,.33,.49,.47,.56,.28,.98,.43c.49,.18,.89,.36,1.2,.56,.31,.2,.55,.46,.72,.77s.25,.7,.25,1.18-.11,.89-.32,1.27c-.22,.37-.53,.66-.93,.88-.4,.21-.88,.32-1.42,.32-1,0-1.85-.36-2.56-1.08l.59-.64c.29,.26,.6,.47,.91,.61,.31,.14,.65,.21,1.03,.21,.47,0,.85-.13,1.13-.4,.28-.27,.43-.64,.43-1.11,0-.41-.11-.73-.34-.97-.23-.24-.65-.46-1.25-.67-.78-.27-1.33-.59-1.67-.95-.34-.36-.51-.83-.51-1.4,0-.41,.1-.78,.3-1.11,.21-.33,.49-.59,.86-.77,.37-.18,.79-.28,1.25-.28,.49,0,.91,.08,1.28,.24Z"/>
    <path class="cls-3" d="M248.06,267.44c.14,.15,.21,.33,.21,.53s-.07,.39-.21,.54-.32,.23-.55,.23-.39-.08-.53-.23-.21-.33-.21-.54,.07-.39,.21-.53,.32-.22,.53-.22,.41,.07,.55,.22Z"/>
    <path class="cls-3" d="M252.77,262.29c.28,.11,.55,.28,.8,.52l-.48,.65c-.19-.15-.38-.27-.58-.34-.19-.08-.4-.11-.62-.11-.47,0-.84,.2-1.1,.6-.26,.4-.39,1.03-.39,1.87,0,1.58,.5,2.38,1.49,2.38,.22,0,.43-.04,.61-.11s.38-.19,.59-.34l.5,.66c-.51,.46-1.09,.7-1.74,.7-.81,0-1.44-.28-1.9-.84-.46-.56-.69-1.37-.69-2.42,0-.69,.11-1.28,.32-1.79,.21-.5,.51-.89,.9-1.16s.84-.41,1.36-.41c.34,0,.64,.05,.92,.17Z"/>
    <path class="cls-3" d="M258.23,262.28v.8l-2.99,4.62h3l-.11,.89h-4.08v-.8l2.99-4.62h-2.73v-.89h3.92Z"/>
    <path class="cls-3" d="M260.33,267.44c.14,.14,.21,.32,.21,.53,0,.11-.02,.23-.05,.35-.04,.12-.09,.29-.17,.52l-.66,1.69h-.67l.44-1.91c-.23-.15-.35-.36-.35-.64,0-.22,.07-.4,.21-.54,.14-.14,.32-.22,.54-.22s.38,.07,.52,.22Z"/>
    <path class="cls-3" d="M266.02,260.33v8.26h-1.12v-8.26h1.12Zm4.06,0l-2.8,3.77,2.99,4.49h-1.29l-2.92-4.42,2.82-3.84h1.19Z"/>
    <path class="cls-3" d="M274.33,262.21l-.18,1.04c-.15-.05-.32-.07-.49-.07-.35,0-.64,.14-.86,.42-.22,.28-.39,.71-.52,1.29v3.71h-1.08v-6.31h.94l.08,1.25c.31-.93,.84-1.39,1.57-1.39,.21,0,.39,.02,.54,.07Z"/>
    <path class="cls-3" d="M276.44,259.5c.13,.14,.2,.3,.2,.5s-.06,.37-.19,.5c-.13,.13-.3,.2-.52,.2s-.38-.07-.51-.2c-.13-.13-.2-.3-.2-.5s.07-.37,.2-.5c.13-.13,.3-.2,.51-.2s.38,.07,.51,.2Zm.03,2.77v6.31h-1.08v-6.31h1.08Z"/>
    <path class="cls-3" d="M281.99,262.84l-.46,.64c-.26-.18-.5-.31-.72-.4-.22-.09-.46-.13-.71-.13-.33,0-.59,.08-.77,.23-.19,.16-.28,.37-.28,.64s.09,.47,.27,.62c.18,.15,.52,.31,1.03,.47,.63,.2,1.09,.44,1.38,.73,.29,.29,.43,.68,.43,1.19,0,.59-.22,1.06-.65,1.4s-.97,.51-1.62,.51c-.86,0-1.58-.28-2.17-.85l.55-.6c.5,.41,1.04,.61,1.6,.61,.35,0,.64-.09,.85-.26,.21-.18,.32-.42,.32-.73,0-.22-.04-.4-.11-.54s-.21-.26-.41-.37c-.2-.11-.48-.22-.86-.34-.6-.2-1.03-.44-1.3-.72-.26-.28-.39-.64-.39-1.07,0-.34,.09-.64,.26-.9s.42-.47,.73-.62c.31-.15,.67-.23,1.08-.23,.73,0,1.38,.24,1.95,.72Z"/>
    <path class="cls-3" d="M286.53,268.31c-.4,.29-.84,.43-1.33,.43s-.91-.15-1.18-.44c-.28-.3-.41-.71-.41-1.25v-3.96h-.9v-.82h.9v-1.45l1.08-.13v1.58h1.39l-.12,.82h-1.27v3.95c0,.54,.23,.82,.68,.82,.13,0,.26-.02,.38-.06,.12-.04,.25-.1,.39-.18l.4,.7Z"/>
    <path class="cls-3" d="M288.79,259.03l.46,.86-2.3,1.04-.31-.55,2.16-1.36Zm-.25,3.25v6.31h-1.08v-6.31h1.08Z"/>
    <path class="cls-3" d="M294.49,262.62c.29,.33,.43,.79,.43,1.37v4.6h-1.08v-4.46c0-.41-.07-.7-.21-.88s-.34-.27-.62-.27c-.53,0-1.01,.38-1.44,1.13v4.49h-1.08v-6.31h.94l.08,.94c.49-.73,1.09-1.09,1.8-1.09,.5,0,.9,.17,1.18,.5Z"/>
    <path class="cls-3" d="M300.85,267.72c.07,.12,.18,.22,.34,.28l-.23,.73c-.31-.05-.55-.14-.73-.29-.18-.14-.3-.36-.37-.66-.41,.64-.98,.96-1.72,.96-.56,0-1-.17-1.33-.52s-.49-.81-.49-1.4c0-.67,.22-1.18,.66-1.54,.44-.35,1.07-.53,1.88-.53h.82v-.54c0-.44-.09-.76-.27-.95-.18-.2-.47-.29-.88-.29-.44,0-.95,.11-1.54,.34l-.27-.76c.71-.29,1.36-.43,1.97-.43,1.37,0,2.05,.68,2.05,2.05v2.98c0,.26,.04,.45,.11,.57Zm-1.18-.77v-1.49h-.7c-1.04,0-1.56,.44-1.56,1.31,0,.38,.08,.67,.25,.87,.17,.2,.41,.3,.72,.3,.56,0,.99-.33,1.29-.98Z"/>
    <path class="cls-3" d="M309.7,260.97c.52,.42,.78,1.06,.78,1.91,0,.9-.27,1.56-.8,2-.53,.44-1.27,.65-2.21,.65h-.79v3.06h-1.12v-8.26h1.87c.99,0,1.75,.21,2.27,.64Zm-.85,3.3c.31-.26,.47-.72,.47-1.38,0-.6-.15-1.03-.46-1.3-.31-.27-.78-.4-1.41-.4h-.77v3.48h.76c.63,0,1.11-.13,1.42-.4Z"/>
    <path class="cls-3" d="M315.04,262.84l-.46,.64c-.26-.18-.5-.31-.72-.4-.22-.09-.46-.13-.71-.13-.33,0-.59,.08-.77,.23-.19,.16-.28,.37-.28,.64s.09,.47,.27,.62c.18,.15,.52,.31,1.03,.47,.63,.2,1.09,.44,1.38,.73,.29,.29,.43,.68,.43,1.19,0,.59-.22,1.06-.65,1.4s-.97,.51-1.62,.51c-.86,0-1.58-.28-2.17-.85l.55-.6c.5,.41,1.04,.61,1.6,.61,.35,0,.64-.09,.85-.26,.21-.18,.32-.42,.32-.73,0-.22-.04-.4-.11-.54s-.21-.26-.41-.37c-.2-.11-.48-.22-.86-.34-.6-.2-1.03-.44-1.3-.72-.26-.28-.39-.64-.39-1.07,0-.34,.09-.64,.26-.9s.42-.47,.73-.62c.31-.15,.67-.23,1.08-.23,.73,0,1.38,.24,1.95,.72Zm-.54-3.65l.42,.48-1.45,1.39h-.67l-1.45-1.39,.42-.48,1.37,1.06,1.37-1.06Z"/>
    <path class="cls-3" d="M320.66,262.97c.45,.57,.67,1.38,.67,2.45s-.23,1.83-.68,2.43c-.46,.6-1.08,.89-1.88,.89s-1.44-.29-1.89-.88c-.45-.58-.68-1.4-.68-2.44s.23-1.86,.68-2.44,1.09-.87,1.9-.87,1.44,.28,1.88,.85Zm-2.96,.61c-.25,.4-.37,1.01-.37,1.85,0,1.64,.48,2.46,1.44,2.46s1.44-.82,1.44-2.47c0-.84-.12-1.46-.36-1.85-.24-.39-.6-.59-1.07-.59s-.83,.2-1.08,.59Z"/>
    <path class="cls-3" d="M326.03,262.21l-.18,1.04c-.15-.05-.32-.07-.49-.07-.35,0-.64,.14-.86,.42-.22,.28-.39,.71-.52,1.29v3.71h-1.08v-6.31h.94l.08,1.25c.31-.93,.84-1.39,1.57-1.39,.21,0,.39,.02,.54,.07Z"/>
    <path class="cls-3" d="M331.09,262.62c.29,.33,.43,.79,.43,1.37v4.6h-1.08v-4.46c0-.41-.07-.7-.21-.88s-.34-.27-.62-.27c-.53,0-1.01,.38-1.44,1.13v4.49h-1.08v-6.31h.94l.08,.94c.49-.73,1.09-1.09,1.8-1.09,.5,0,.9,.17,1.18,.5Z"/>
    <path class="cls-3" d="M340.5,260.33v.89l-3.72,6.42h3.71l-.12,.95h-4.81v-.89l3.74-6.44h-3.37v-.92h4.57Z"/>
    <path class="cls-3" d="M345.76,267.72c.07,.12,.18,.22,.34,.28l-.23,.73c-.31-.05-.55-.14-.73-.29-.18-.14-.3-.36-.37-.66-.41,.64-.98,.96-1.72,.96-.56,0-1-.17-1.33-.52s-.49-.81-.49-1.4c0-.67,.22-1.18,.66-1.54,.44-.35,1.07-.53,1.88-.53h.82v-.54c0-.44-.09-.76-.27-.95-.18-.2-.47-.29-.88-.29-.44,0-.95,.11-1.54,.34l-.27-.76c.71-.29,1.36-.43,1.97-.43,1.37,0,2.05,.68,2.05,2.05v2.98c0,.26,.04,.45,.11,.57Zm-1.38-8.69l.46,.86-2.3,1.04-.31-.55,2.16-1.36Zm.21,7.92v-1.49h-.7c-1.04,0-1.56,.44-1.56,1.31,0,.38,.08,.67,.25,.87,.17,.2,.41,.3,.72,.3,.56,0,.99-.33,1.29-.98Z"/>
    <path class="cls-3" d="M348.67,259.6v8.99h-1.08v-8.87l1.08-.12Zm3.32,2.68l-2.14,2.81,2.34,3.5h-1.2l-2.27-3.46,2.13-2.86h1.13Z"/>
    <path class="cls-3" d="M357.16,262.97c.45,.57,.67,1.38,.67,2.45s-.23,1.83-.68,2.43c-.46,.6-1.08,.89-1.88,.89s-1.44-.29-1.89-.88c-.45-.58-.68-1.4-.68-2.44s.23-1.86,.69-2.44c.46-.58,1.09-.87,1.89-.87s1.44,.28,1.88,.85Zm-2.96,.61c-.25,.4-.37,1.01-.37,1.85,0,1.64,.48,2.46,1.44,2.46s1.44-.82,1.44-2.47c0-.84-.12-1.46-.36-1.85-.24-.39-.6-.59-1.07-.59s-.83,.2-1.08,.59Z"/>
    <path class="cls-3" d="M363.67,262.97c.35,.57,.52,1.38,.52,2.44s-.19,1.84-.58,2.44c-.39,.6-.93,.9-1.62,.9-.62,0-1.13-.25-1.51-.76v3l-1.08,.13v-8.84h.95l.06,.85c.43-.67,1-1.01,1.71-1.01s1.21,.28,1.55,.85Zm-.61,2.45c0-.86-.1-1.48-.3-1.87-.21-.39-.51-.58-.93-.58-.28,0-.53,.08-.74,.25-.22,.17-.42,.4-.61,.68v3.19c.33,.52,.75,.78,1.26,.78,.89,0,1.33-.82,1.33-2.46Z"/>
    <path class="cls-3" d="M368.89,262.29c.28,.11,.55,.28,.8,.52l-.48,.65c-.19-.15-.38-.27-.58-.34-.19-.08-.4-.11-.62-.11-.47,0-.84,.2-1.1,.6-.26,.4-.39,1.03-.39,1.87,0,1.58,.5,2.38,1.49,2.38,.22,0,.43-.04,.61-.11,.18-.08,.38-.19,.59-.34l.5,.66c-.51,.46-1.09,.7-1.74,.7-.81,0-1.44-.28-1.9-.84-.46-.56-.69-1.37-.69-2.42,0-.69,.11-1.28,.32-1.79,.21-.5,.51-.89,.9-1.16,.39-.27,.84-.41,1.36-.41,.34,0,.64,.05,.92,.17Zm.43-3.1l.42,.48-1.45,1.39h-.67l-1.45-1.39,.42-.48,1.37,1.06,1.37-1.06Z"/>
    <path class="cls-3" d="M374.83,267.72c.07,.12,.18,.22,.34,.28l-.23,.73c-.31-.05-.55-.14-.73-.29-.18-.14-.3-.36-.37-.66-.41,.64-.98,.96-1.72,.96-.56,0-1-.17-1.33-.52s-.49-.81-.49-1.4c0-.67,.22-1.18,.66-1.54,.44-.35,1.07-.53,1.88-.53h.82v-.54c0-.44-.09-.76-.27-.95-.18-.2-.47-.29-.88-.29-.44,0-.95,.11-1.54,.34l-.27-.76c.71-.29,1.36-.43,1.97-.43,1.37,0,2.05,.68,2.05,2.05v2.98c0,.26,.04,.45,.11,.57Zm-1.18-.77v-1.49h-.7c-1.04,0-1.56,.44-1.56,1.31,0,.38,.08,.67,.25,.87,.17,.2,.41,.3,.72,.3,.56,0,.99-.33,1.29-.98Z"/>
    <path class="cls-3" d="M380.67,262.62c.28,.33,.43,.79,.43,1.37v4.6h-1.08v-4.46c0-.41-.07-.7-.2-.88-.14-.18-.35-.27-.62-.27-.53,0-1.01,.38-1.44,1.13v4.49h-1.08v-6.31h.94l.08,.94c.49-.73,1.09-1.09,1.8-1.09,.5,0,.9,.17,1.18,.5Z"/>
    <path class="cls-3" d="M387.07,262.97c.45,.57,.67,1.38,.67,2.45s-.23,1.83-.68,2.43c-.46,.6-1.08,.89-1.88,.89s-1.44-.29-1.89-.88c-.45-.58-.68-1.4-.68-2.44s.23-1.86,.69-2.44c.46-.58,1.09-.87,1.89-.87s1.44,.28,1.88,.85Zm-2.96,.61c-.25,.4-.37,1.01-.37,1.85,0,1.64,.48,2.46,1.44,2.46s1.44-.82,1.44-2.47c0-.84-.12-1.46-.36-1.85-.24-.39-.6-.59-1.07-.59s-.83,.2-1.08,.59Z"/>
    <path class="cls-3" d="M393.52,262.28l-1.88,6.31h-1.29l-1.94-6.31h1.13l1.46,5.4,1.45-5.4h1.08Z"/>
    <path class="cls-3" d="M398.47,267.72c.07,.12,.19,.22,.34,.28l-.23,.73c-.31-.05-.56-.14-.73-.29s-.3-.36-.37-.66c-.41,.64-.98,.96-1.71,.96-.56,0-1-.17-1.33-.52s-.49-.81-.49-1.4c0-.67,.22-1.18,.66-1.54,.44-.35,1.07-.53,1.88-.53h.81v-.54c0-.44-.09-.76-.27-.95s-.47-.29-.88-.29c-.44,0-.95,.11-1.54,.34l-.26-.76c.7-.29,1.36-.43,1.97-.43,1.37,0,2.05,.68,2.05,2.05v2.98c0,.26,.04,.45,.11,.57Zm-1.38-8.69l.46,.86-2.3,1.04-.31-.55,2.16-1.36Zm.2,7.92v-1.49h-.7c-1.04,0-1.56,.44-1.56,1.31,0,.38,.08,.67,.25,.87,.17,.2,.41,.3,.72,.3,.56,0,.99-.33,1.28-.98Z"/>
  </g>
  <g class="cls-10">
    <line class="cls-1" x1="86.77" y1="212.12" x2="86.77" y2="86.73"/>
    <line class="cls-1" x1="209.73" y1="212.12" x2="209.73" y2="86.73"/>
    <line class="cls-1" x1="332.69" y1="212.12" x2="332.69" y2="86.73"/>
  </g>
  <rect class="cls-7" x="86.78" y="81.96" width="241.62" height="32.81"/>
  <rect class="cls-5" x="328.4" y="81.96" width="72.55" height="32.81"/>
  <g>
    <path class="cls-6" d="M154.5,94.66c.36,.17,.63,.4,.82,.68s.27,.6,.27,.95c0,.45-.13,.82-.39,1.12s-.62,.5-1.07,.62c.5,.04,.91,.22,1.23,.53,.32,.31,.48,.73,.48,1.28,0,.43-.11,.81-.33,1.15s-.54,.62-.95,.82c-.41,.2-.89,.3-1.45,.3-1.03,0-1.84-.36-2.44-1.07l.79-.75c.25,.25,.5,.43,.75,.54s.52,.17,.82,.17c.4,0,.72-.11,.97-.34s.36-.53,.36-.91c0-.42-.11-.73-.34-.91-.23-.18-.56-.28-1.01-.28h-.59l.17-1h.4c.37,0,.66-.1,.88-.3,.22-.2,.33-.47,.33-.82,0-.3-.1-.54-.3-.71-.2-.17-.47-.26-.81-.26-.29,0-.55,.05-.79,.16-.24,.11-.48,.27-.71,.49l-.73-.78c.68-.63,1.46-.95,2.36-.95,.5,0,.93,.08,1.29,.25Z"/>
    <path class="cls-6" d="M161.16,95.18c.46,.52,.68,1.22,.68,2.1,0,1-.15,1.83-.46,2.47s-.78,1.15-1.41,1.53c-.63,.38-1.47,.69-2.52,.94l-.3-1c.98-.26,1.73-.59,2.24-1,.51-.41,.81-.96,.91-1.67-.41,.51-.95,.77-1.61,.77-.39,0-.74-.1-1.07-.29-.32-.19-.58-.47-.77-.84s-.28-.79-.28-1.28,.12-.95,.35-1.33c.23-.38,.55-.67,.94-.87,.4-.21,.84-.31,1.33-.31,.85,0,1.5,.26,1.96,.78Zm-.78,2.36c0-.76-.08-1.29-.26-1.61-.18-.32-.49-.48-.91-.48-.37,0-.66,.12-.87,.37-.21,.25-.31,.6-.31,1.07s.1,.84,.3,1.07c.2,.23,.46,.34,.78,.34,.51,0,.94-.25,1.29-.76Z"/>
    <path class="cls-6" d="M165.94,94.66c.36,.17,.63,.4,.82,.68s.27,.6,.27,.95c0,.45-.13,.82-.39,1.12s-.62,.5-1.07,.62c.5,.04,.91,.22,1.23,.53,.32,.31,.48,.73,.48,1.28,0,.43-.11,.81-.33,1.15s-.54,.62-.95,.82c-.41,.2-.89,.3-1.45,.3-1.03,0-1.84-.36-2.44-1.07l.79-.75c.25,.25,.5,.43,.75,.54s.52,.17,.82,.17c.4,0,.72-.11,.97-.34s.36-.53,.36-.91c0-.42-.11-.73-.34-.91-.23-.18-.56-.28-1.01-.28h-.59l.17-1h.4c.37,0,.66-.1,.88-.3,.22-.2,.33-.47,.33-.82,0-.3-.1-.54-.3-.71-.2-.17-.47-.26-.81-.26-.29,0-.55,.05-.79,.16-.24,.11-.48,.27-.71,.49l-.73-.78c.68-.63,1.46-.95,2.36-.95,.5,0,.93,.08,1.29,.25Z"/>
  </g>
  <g>
    <path class="cls-9" d="M360.57,94.49v7.4h-1.41v-5.98l-1.68,1-.63-.95,2.45-1.47h1.26Z"/>
    <path class="cls-9" d="M365.42,94.49v7.4h-1.41v-5.98l-1.68,1-.63-.95,2.45-1.47h1.26Z"/>
    <path class="cls-9" d="M372.42,99.9c0,.4-.12,.77-.35,1.09-.23,.33-.56,.58-.98,.78-.42,.19-.91,.29-1.47,.29s-1.03-.09-1.44-.28-.73-.44-.95-.76-.33-.69-.33-1.09c0-.85,.48-1.47,1.43-1.87-.75-.4-1.13-.99-1.13-1.75,0-.39,.11-.73,.33-1.03,.22-.3,.52-.52,.89-.68,.38-.16,.79-.24,1.24-.24s.87,.07,1.24,.22c.37,.15,.67,.36,.89,.65,.22,.29,.33,.63,.33,1.02,0,.7-.41,1.25-1.24,1.67,1.03,.46,1.54,1.11,1.54,1.98Zm-1.8,.8c.23-.21,.35-.47,.35-.8s-.1-.6-.3-.8-.56-.38-1.07-.57l-.35-.12c-.6,.32-.91,.8-.91,1.46,0,.35,.12,.63,.36,.83s.56,.3,.96,.3,.73-.1,.96-.31Zm-1.75-5.1c-.19,.17-.29,.41-.29,.73,0,.29,.09,.53,.27,.7,.18,.17,.47,.33,.86,.47l.21,.08c.29-.18,.5-.36,.62-.56s.18-.43,.18-.7c0-.3-.09-.54-.28-.71-.19-.17-.45-.26-.79-.26s-.6,.08-.79,.25Z"/>
  </g>
  <rect class="cls-7" x="86.78" y="134.86" width="144.48" height="32.81"/>
  <rect class="cls-5" x="231.26" y="134.86" width="13.52" height="32.81"/>
  <g>
    <path class="cls-6" d="M154.45,147.58c.37,.18,.65,.43,.84,.75,.19,.32,.29,.67,.29,1.06,0,.42-.09,.82-.27,1.2s-.49,.81-.91,1.28c-.42,.47-1.05,1.09-1.87,1.86h3.22l-.16,1.11h-4.68v-1.03c.95-.95,1.64-1.66,2.05-2.12,.41-.46,.71-.85,.88-1.18,.17-.33,.26-.67,.26-1.02s-.1-.6-.3-.79c-.2-.19-.46-.29-.79-.29-.29,0-.55,.06-.77,.18-.22,.12-.45,.32-.69,.6l-.87-.68c.63-.81,1.45-1.21,2.44-1.21,.51,0,.94,.09,1.31,.28Z"/>
    <path class="cls-6" d="M160.03,147.56c.36,.17,.63,.4,.82,.68s.27,.6,.27,.95c0,.45-.13,.82-.39,1.12s-.62,.5-1.07,.62c.5,.04,.91,.22,1.23,.53,.32,.31,.48,.73,.48,1.28,0,.43-.11,.81-.33,1.16s-.54,.62-.95,.82c-.41,.2-.89,.3-1.45,.3-1.03,0-1.84-.36-2.44-1.07l.79-.75c.25,.25,.5,.43,.75,.54,.25,.11,.52,.17,.82,.17,.4,0,.72-.11,.97-.33s.36-.53,.36-.91c0-.42-.11-.73-.34-.91-.23-.18-.56-.28-1.01-.28h-.59l.17-1h.4c.37,0,.66-.1,.88-.3,.22-.2,.33-.47,.33-.82,0-.3-.1-.54-.3-.71-.2-.17-.47-.26-.81-.26-.29,0-.55,.05-.79,.16-.24,.11-.48,.27-.71,.49l-.73-.78c.68-.63,1.46-.95,2.36-.95,.5,0,.93,.08,1.29,.25Z"/>
    <path class="cls-6" d="M166.76,148.48h-2.82v1.84c.37-.18,.75-.27,1.14-.27,.42,0,.79,.09,1.12,.29,.33,.19,.58,.46,.77,.82s.27,.79,.27,1.28-.12,.95-.35,1.34c-.23,.39-.56,.69-.98,.91-.42,.22-.92,.33-1.48,.33-.5,0-.94-.09-1.33-.27s-.73-.44-1.04-.78l.82-.75c.43,.47,.94,.7,1.52,.7,.42,0,.76-.13,1-.39,.24-.26,.36-.62,.36-1.1,0-.92-.4-1.38-1.21-1.38-.17,0-.33,.02-.48,.06-.15,.04-.31,.1-.49,.19h-1.02v-3.87h4.36l-.17,1.04Z"/>
  </g>
  <g>
    <path class="cls-9" d="M236.37,147.65c.37,.18,.65,.43,.84,.75,.19,.32,.29,.67,.29,1.06,0,.42-.09,.82-.27,1.2-.18,.38-.49,.81-.91,1.28s-1.05,1.09-1.87,1.86h3.22l-.16,1.11h-4.68v-1.03c.95-.95,1.64-1.66,2.05-2.12,.41-.46,.71-.85,.88-1.18,.17-.33,.26-.67,.26-1.02s-.1-.6-.3-.79c-.2-.19-.46-.29-.79-.29-.29,0-.55,.06-.77,.18-.22,.12-.45,.32-.69,.6l-.87-.68c.63-.81,1.45-1.21,2.44-1.21,.51,0,.94,.09,1.31,.28Z"/>
    <path class="cls-9" d="M242.04,147.65c.37,.18,.65,.43,.84,.75,.19,.32,.29,.67,.29,1.06,0,.42-.09,.82-.27,1.2-.18,.38-.49,.81-.91,1.28s-1.05,1.09-1.87,1.86h3.22l-.16,1.11h-4.68v-1.03c.95-.95,1.64-1.66,2.05-2.12,.41-.46,.71-.85,.88-1.18,.17-.33,.26-.67,.26-1.02s-.1-.6-.3-.79c-.2-.19-.46-.29-.79-.29-.29,0-.55,.06-.77,.18-.22,.12-.45,.32-.69,.6l-.87-.68c.63-.81,1.45-1.21,2.44-1.21,.51,0,.94,.09,1.31,.28Z"/>
  </g>
  <rect class="cls-7" x="86.78" y="187.68" width="176.45" height="32.81"/>
  <rect class="cls-5" x="263.22" y="187.68" width="63.94" height="32.81"/>
  <g>
    <path class="cls-6" d="M154.48,200.47c.37,.18,.65,.43,.84,.75,.19,.32,.29,.67,.29,1.06,0,.42-.09,.82-.27,1.2-.18,.39-.49,.81-.91,1.28-.42,.47-1.05,1.09-1.87,1.86h3.22l-.16,1.11h-4.68v-1.03c.95-.95,1.64-1.66,2.05-2.12,.41-.46,.71-.85,.88-1.18,.17-.33,.26-.67,.26-1.02s-.1-.6-.3-.79-.46-.29-.79-.29c-.29,0-.55,.06-.77,.18s-.45,.32-.69,.6l-.87-.68c.63-.81,1.45-1.21,2.44-1.21,.51,0,.94,.09,1.31,.28Z"/>
    <path class="cls-6" d="M162.17,205.74c0,.4-.12,.77-.35,1.09-.23,.33-.56,.58-.98,.78-.42,.19-.91,.29-1.47,.29s-1.03-.09-1.44-.28c-.41-.19-.73-.44-.95-.76s-.33-.69-.33-1.09c0-.85,.48-1.47,1.43-1.87-.75-.4-1.13-.99-1.13-1.75,0-.39,.11-.73,.33-1.03,.22-.3,.52-.52,.89-.68,.38-.16,.79-.24,1.24-.24s.87,.07,1.24,.22c.37,.15,.67,.36,.89,.65,.22,.29,.33,.63,.33,1.02,0,.7-.41,1.25-1.24,1.67,1.03,.45,1.54,1.11,1.54,1.98Zm-1.8,.8c.23-.21,.35-.47,.35-.8s-.1-.6-.3-.8-.56-.38-1.07-.57l-.35-.12c-.6,.32-.91,.8-.91,1.46,0,.35,.12,.63,.36,.83,.24,.2,.56,.3,.96,.3s.73-.1,.96-.31Zm-1.75-5.1c-.19,.17-.29,.41-.29,.73,0,.29,.09,.53,.27,.7,.18,.17,.47,.33,.86,.47l.21,.08c.29-.18,.5-.36,.62-.56,.12-.19,.18-.43,.18-.7,0-.3-.09-.54-.28-.71-.19-.17-.45-.26-.79-.26s-.6,.08-.79,.25Z"/>
    <path class="cls-6" d="M167.26,200.33v.99l-2.78,6.56-1.31-.42,2.62-6.04h-3.18v-1.09h4.65Z"/>
  </g>
  <g>
    <path class="cls-9" d="M290.35,200.27v7.4h-1.41v-5.98l-1.68,1-.63-.95,2.45-1.47h1.26Z"/>
    <path class="cls-9" d="M296.61,201.13c.46,.66,.69,1.61,.69,2.85s-.23,2.2-.69,2.87c-.46,.66-1.13,1-2.01,1s-1.55-.33-2.01-1c-.46-.66-.69-1.62-.69-2.87s.23-2.19,.69-2.85c.46-.66,1.13-.99,2.01-.99s1.55,.33,2.01,.99Zm-2.93,.71c-.19,.42-.29,1.14-.29,2.14s.1,1.73,.29,2.16c.19,.43,.5,.64,.93,.64s.73-.21,.93-.63c.19-.42,.29-1.14,.29-2.16s-.1-1.73-.29-2.14c-.19-.42-.5-.63-.93-.63s-.73,.21-.93,.63Z"/>
    <path class="cls-9" d="M303.69,204.9v1.08h-.91v1.69h-1.4v-1.69h-3.2v-.97l2.19-4.88,1.22,.45-1.92,4.32h1.72l.15-1.86h1.24v1.86h.91Z"/>
  </g>
</svg>